M48
;DRILL file {KiCad 4.0.2-4+6225~38~ubuntu15.10.1-stable} date Sat 05 Mar 2016 02:29:08 PM EST
;FORMAT={-:-/ absolute / inch / decimal}
FMAT,2
INCH,TZ
T1C0.018
T2C0.022
T3C0.037
%
G90
G05
M72
T1
X1.7745Y-5.4791
X1.8117Y-5.442
X1.8135Y-5.4804
X1.847Y-5.4067
X1.8504Y-5.4449
T3
X0.9894Y-5.3071
X0.9894Y-5.5866
X1.0894Y-5.3071
X1.0894Y-5.5866
X1.6831Y-4.6075
X1.6831Y-4.7075
X1.6831Y-6.1744
X1.6831Y-6.2744
X1.9646Y-4.6075
X1.9646Y-4.7075
X1.9665Y-6.1756
X1.9665Y-6.2756
X2.0571Y-3.0937
X2.0571Y-3.1937
X2.0591Y-4.6724
X2.0591Y-4.7724
X2.3386Y-3.0937
X2.3386Y-3.1937
X2.3386Y-4.6724
X2.3386Y-4.7724
X2.4311Y-3.0945
X2.4311Y-3.1945
X2.4311Y-4.6724
X2.4311Y-4.7724
X2.5543Y-5.3051
X2.5563Y-5.5866
X2.6543Y-5.3051
X2.6563Y-5.5866
X2.7126Y-4.6724
X2.7126Y-4.7724
X2.7146Y-3.0957
X2.7146Y-3.1957
X2.8051Y-3.0937
X2.8051Y-3.1937
X2.8051Y-4.6724
X2.8051Y-4.7724
X2.8575Y-5.5886
X2.8594Y-5.3071
X2.9575Y-5.5886
X2.9594Y-5.3071
X3.0886Y-3.0937
X3.0886Y-3.1937
X3.0886Y-4.6724
X3.0886Y-4.7724
X3.1772Y-3.0937
X3.1772Y-3.1937
X3.1772Y-4.6724
X3.1772Y-4.7724
X3.4606Y-3.0937
X3.4606Y-3.1937
X3.4606Y-4.6724
X3.4606Y-4.7724
X3.5512Y-4.6055
X3.5512Y-4.7055
X3.5512Y-6.1823
X3.5512Y-6.2823
X3.8327Y-4.6102
X3.8327Y-4.7102
X3.8346Y-6.1843
X3.8346Y-6.2843
X4.4264Y-5.5866
X4.4303Y-5.3051
X4.5264Y-5.5866
X4.5303Y-5.3051
T2
X1.7126Y-5.5409G85X1.7251Y-5.5535
G05
X1.9116Y-5.3419G85X1.9242Y-5.3544
G05
T0
M30
