G04 #@! TF.FileFunction,Soldermask,Bot*
%FSLAX46Y46*%
G04 Gerber Fmt 4.6, Leading zero omitted, Abs format (unit mm)*
G04 Created by KiCad (PCBNEW 4.0.1-3.201512221401+6198~38~ubuntu15.10.1-stable) date Thu 21 Jan 2016 11:16:06 AM EST*
%MOMM*%
G01*
G04 APERTURE LIST*
%ADD10C,0.100000*%
%ADD11C,0.700000*%
%ADD12C,1.500000*%
%ADD13C,1.900000*%
%ADD14R,0.900000X1.300000*%
%ADD15R,1.200000X1.150000*%
%ADD16C,1.100000*%
%ADD17C,1.100000*%
G04 APERTURE END LIST*
D10*
D11*
X94800000Y-20450000D03*
X94800000Y-19950000D03*
X94800000Y-20950000D03*
X94800000Y-18950000D03*
X94800000Y-17950000D03*
X94800000Y-19450000D03*
X94800000Y-16950000D03*
X94800000Y-17450000D03*
X94800000Y-18450000D03*
X84800000Y-20450000D03*
X84800000Y-19950000D03*
X84800000Y-20950000D03*
X84800000Y-18950000D03*
X84800000Y-17950000D03*
X84800000Y-19450000D03*
X84800000Y-16950000D03*
X84800000Y-17450000D03*
X84800000Y-18450000D03*
X74800000Y-20450000D03*
X74800000Y-19950000D03*
X74800000Y-20950000D03*
X74800000Y-18950000D03*
X74800000Y-17950000D03*
X74800000Y-19450000D03*
X74800000Y-16950000D03*
X74800000Y-17450000D03*
X74800000Y-18450000D03*
X94800000Y-64350000D03*
X94800000Y-63850000D03*
X94800000Y-64850000D03*
X94800000Y-62850000D03*
X94800000Y-61850000D03*
X94800000Y-63350000D03*
X94800000Y-60850000D03*
X94800000Y-61350000D03*
X94800000Y-62350000D03*
X84800000Y-64350000D03*
X84800000Y-63850000D03*
X84800000Y-64850000D03*
X84800000Y-62850000D03*
X84800000Y-61850000D03*
X84800000Y-63350000D03*
X84800000Y-60850000D03*
X84800000Y-61350000D03*
X84800000Y-62350000D03*
X102800000Y-37400000D03*
X102800000Y-38400000D03*
X102800000Y-41400000D03*
X102800000Y-39900000D03*
X102800000Y-44400000D03*
X102800000Y-44900000D03*
X102800000Y-39400000D03*
X102800000Y-41900000D03*
X102800000Y-43400000D03*
X102800000Y-42900000D03*
X102800000Y-36900000D03*
X102800000Y-37900000D03*
X102800000Y-42400000D03*
X102800000Y-43900000D03*
X102800000Y-40900000D03*
X102800000Y-40400000D03*
X102800000Y-38900000D03*
X74800000Y-61350000D03*
X74800000Y-64350000D03*
X74800000Y-64850000D03*
X74800000Y-63350000D03*
X74800000Y-62850000D03*
X74800000Y-62350000D03*
X74800000Y-60850000D03*
X74800000Y-63850000D03*
X74800000Y-61850000D03*
D12*
X49102302Y-41017000D02*
X48183064Y-40097762D01*
X47688088Y-42431214D02*
X46768850Y-41511976D01*
X46273874Y-43845427D02*
X45354636Y-42926189D01*
X44859661Y-45259641D02*
X43940423Y-44340403D01*
X43445447Y-46673854D02*
X42526209Y-45754616D01*
X42031234Y-48088068D02*
X41111996Y-47168830D01*
D10*
G36*
X40079619Y-25785920D02*
X41140280Y-26846581D01*
X39160381Y-28826480D01*
X38099720Y-27765819D01*
X40079619Y-25785920D01*
X40079619Y-25785920D01*
G37*
D12*
X41493833Y-28260795D02*
X40574595Y-29180033D01*
X42908046Y-29675008D02*
X41988808Y-30594246D01*
X44322260Y-31089222D02*
X43403022Y-32008460D01*
X45736473Y-32503435D02*
X44817235Y-33422673D01*
X47150687Y-33917649D02*
X46231449Y-34836887D01*
X48564900Y-35331862D02*
X47645662Y-36251100D01*
X49979114Y-36746076D02*
X49059876Y-37665314D01*
X38665405Y-48059784D02*
X37746167Y-48979022D01*
X37251192Y-46645571D02*
X36331954Y-47564809D01*
X35836978Y-45231357D02*
X34917740Y-46150595D01*
X34422765Y-43817144D02*
X33503527Y-44736382D01*
X33008551Y-42402930D02*
X32089313Y-43322168D01*
X31594338Y-40988717D02*
X30675100Y-41907955D01*
X30180124Y-39574503D02*
X29260886Y-40493741D01*
X28765911Y-38160289D02*
X27846673Y-39079527D01*
D13*
X88460000Y-17100000D03*
X91000000Y-17100000D03*
X85920000Y-17100000D03*
X93540000Y-17100000D03*
X78620000Y-17050000D03*
X81160000Y-17050000D03*
X76080000Y-17050000D03*
X83700000Y-17050000D03*
X101040000Y-64700000D03*
X98500000Y-64700000D03*
X103580000Y-64700000D03*
X95960000Y-64700000D03*
X104050000Y-42190000D03*
X104050000Y-39650000D03*
X104050000Y-44730000D03*
X104050000Y-37110000D03*
X98500000Y-17100000D03*
X101040000Y-17100000D03*
X95960000Y-17100000D03*
X103580000Y-17100000D03*
X129090000Y-64700000D03*
X126550000Y-64700000D03*
X131630000Y-64700000D03*
X124010000Y-64700000D03*
X151500000Y-39630000D03*
X151500000Y-42170000D03*
X151500000Y-37090000D03*
X151500000Y-44710000D03*
X126550000Y-17050000D03*
X129090000Y-17050000D03*
X124010000Y-17050000D03*
X131630000Y-17050000D03*
X81110000Y-64700000D03*
X78570000Y-64700000D03*
X83650000Y-64700000D03*
X76030000Y-64700000D03*
X91040000Y-64700000D03*
X88500000Y-64700000D03*
X93580000Y-64700000D03*
X85960000Y-64700000D03*
X65500000Y-39650000D03*
X65500000Y-42190000D03*
X65500000Y-37110000D03*
X65500000Y-44730000D03*
X71020000Y-64700000D03*
X68480000Y-64700000D03*
X73560000Y-64700000D03*
X65940000Y-64700000D03*
X43070000Y-64700000D03*
X40530000Y-64700000D03*
X45610000Y-64700000D03*
X37990000Y-64700000D03*
X18050000Y-42170000D03*
X18050000Y-39630000D03*
X18050000Y-44710000D03*
X18050000Y-37090000D03*
X40650000Y-17050000D03*
X43190000Y-17050000D03*
X38110000Y-17050000D03*
X45730000Y-17050000D03*
X68480000Y-17050000D03*
X71020000Y-17050000D03*
X65940000Y-17050000D03*
X73560000Y-17050000D03*
D14*
X26200000Y-43110000D03*
X27700000Y-43110000D03*
X29400000Y-45210000D03*
X27900000Y-45210000D03*
X30950000Y-47300000D03*
X29450000Y-47300000D03*
X43750000Y-25450000D03*
X42250000Y-25450000D03*
X40950000Y-23400000D03*
X42450000Y-23400000D03*
X36600000Y-52010000D03*
X38100000Y-52010000D03*
X46500000Y-46310000D03*
X48000000Y-46310000D03*
X47400000Y-29550000D03*
X45900000Y-29550000D03*
D15*
X44450000Y-27550000D03*
X45950000Y-27550000D03*
X51300000Y-35110000D03*
X52800000Y-35110000D03*
D14*
X47800000Y-31500000D03*
X49300000Y-31500000D03*
D16*
X43998186Y-38246559D02*
X44351740Y-38600113D01*
X38942373Y-43302373D02*
X39295927Y-43655927D01*
D17*
X40533717Y-41750627D03*
X41476644Y-40807700D03*
X42374669Y-39909675D03*
X41523313Y-41782093D03*
X42460229Y-40880532D03*
D11*
X66800000Y-36750000D03*
X66800000Y-37250000D03*
X66800000Y-37750000D03*
X66800000Y-38250000D03*
X66800000Y-38750000D03*
X66800000Y-39250000D03*
X66800000Y-39750000D03*
X66800000Y-40250000D03*
X66800000Y-40750000D03*
X66800000Y-41250000D03*
X66800000Y-41750000D03*
X66800000Y-42250000D03*
X66800000Y-42750000D03*
X66800000Y-43250000D03*
X66800000Y-43750000D03*
X66800000Y-44250000D03*
X66800000Y-44750000D03*
M02*
