G04 #@! TF.FileFunction,Copper,L2,Bot,Signal*
%FSLAX46Y46*%
G04 Gerber Fmt 4.6, Leading zero omitted, Abs format (unit mm)*
G04 Created by KiCad (PCBNEW 4.0.2-4+6225~38~ubuntu15.10.1-stable) date Sat 05 Mar 2016 02:29:04 PM EST*
%MOMM*%
G01*
G04 APERTURE LIST*
%ADD10C,0.100000*%
%ADD11C,1.100000*%
%ADD12R,0.500000X0.900000*%
%ADD13R,0.800000X0.750000*%
%ADD14C,0.700000*%
%ADD15C,0.700000*%
%ADD16C,1.500000*%
G04 APERTURE END LIST*
D10*
D11*
X53496010Y-138397092D02*
X52576772Y-137477854D01*
X52081796Y-139811306D02*
X51162558Y-138892068D01*
X50667582Y-141225519D02*
X49748344Y-140306281D01*
X49253369Y-142639733D02*
X48334131Y-141720495D01*
X47839155Y-144053946D02*
X46919917Y-143134708D01*
X46424942Y-145468160D02*
X45505704Y-144548922D01*
D10*
G36*
X44473327Y-123448855D02*
X45251145Y-124226673D01*
X43554089Y-125923729D01*
X42776271Y-125145911D01*
X44473327Y-123448855D01*
X44473327Y-123448855D01*
G37*
D11*
X45887541Y-125640887D02*
X44968303Y-126560125D01*
X47301754Y-127055100D02*
X46382516Y-127974338D01*
X48715968Y-128469314D02*
X47796730Y-129388552D01*
X50130181Y-129883527D02*
X49210943Y-130802765D01*
X51544395Y-131297741D02*
X50625157Y-132216979D01*
X52958608Y-132711954D02*
X52039370Y-133631192D01*
X54372822Y-134126168D02*
X53453584Y-135045406D01*
X43059113Y-145439876D02*
X42139875Y-146359114D01*
X41644900Y-144025663D02*
X40725662Y-144944901D01*
X40230686Y-142611449D02*
X39311448Y-143530687D01*
X38816473Y-141197236D02*
X37897235Y-142116474D01*
X37402259Y-139783022D02*
X36483021Y-140702260D01*
X35988046Y-138368809D02*
X35068808Y-139288047D01*
X34573832Y-136954595D02*
X33654594Y-137873833D01*
X33159619Y-135540381D02*
X32240381Y-136459619D01*
D12*
X30650000Y-140460000D03*
X32150000Y-140460000D03*
X33850000Y-142560000D03*
X32350000Y-142560000D03*
X35400000Y-144650000D03*
X33900000Y-144650000D03*
X48200000Y-122800000D03*
X46700000Y-122800000D03*
X45400000Y-120750000D03*
X46900000Y-120750000D03*
X41050000Y-149360000D03*
X42550000Y-149360000D03*
X52400000Y-145450000D03*
X53900000Y-145450000D03*
X51850000Y-126900000D03*
X50350000Y-126900000D03*
D13*
X48900000Y-124900000D03*
X50400000Y-124900000D03*
X55750000Y-132460000D03*
X57250000Y-132460000D03*
D12*
X52250000Y-128850000D03*
X53750000Y-128850000D03*
D14*
X48537957Y-135666027D02*
X48891511Y-136019581D01*
X43482144Y-140721841D02*
X43835698Y-141075395D01*
D15*
X45073488Y-139170095D03*
X46016415Y-138227168D03*
X46914440Y-137329143D03*
X46063084Y-139201561D03*
X47000000Y-138300000D03*
D16*
X97350000Y-119640000D03*
X97350000Y-117100000D03*
X90200000Y-119520000D03*
X90200000Y-116980000D03*
X112430000Y-141900000D03*
X114970000Y-141900000D03*
X112530000Y-134750000D03*
X115070000Y-134750000D03*
X90200000Y-157030000D03*
X90200000Y-159570000D03*
X97400000Y-157080000D03*
X97400000Y-159620000D03*
X75170000Y-134800000D03*
X72630000Y-134800000D03*
X75120000Y-141950000D03*
X72580000Y-141950000D03*
X52250000Y-81120000D03*
X52250000Y-78580000D03*
X59400000Y-81120000D03*
X59400000Y-78580000D03*
X61750000Y-81140000D03*
X61750000Y-78600000D03*
X68950000Y-81170000D03*
X68950000Y-78630000D03*
X71250000Y-81120000D03*
X71250000Y-78580000D03*
X78450000Y-81120000D03*
X78450000Y-78580000D03*
X49950000Y-156860000D03*
X49950000Y-159400000D03*
X64930000Y-141900000D03*
X67470000Y-141900000D03*
X27670000Y-141900000D03*
X25130000Y-141900000D03*
X27670000Y-134800000D03*
X25130000Y-134800000D03*
X52300000Y-118680000D03*
X52300000Y-121220000D03*
X59400000Y-118680000D03*
X59400000Y-121220000D03*
X61750000Y-118680000D03*
X61750000Y-121220000D03*
X68900000Y-118680000D03*
X68900000Y-121220000D03*
X71250000Y-118680000D03*
X71250000Y-121220000D03*
X78450000Y-118680000D03*
X78450000Y-121220000D03*
X80700000Y-118680000D03*
X80700000Y-121220000D03*
X87900000Y-118680000D03*
X87900000Y-121220000D03*
X42750000Y-119570000D03*
X42750000Y-117030000D03*
X49900000Y-119570000D03*
X49900000Y-117030000D03*
X64880000Y-134750000D03*
X67420000Y-134750000D03*
X42750000Y-156830000D03*
X42750000Y-159370000D03*
X80700000Y-81120000D03*
X80700000Y-78580000D03*
X87900000Y-81120000D03*
X87900000Y-78580000D03*
M02*
