G04 #@! TF.FileFunction,Soldermask,Top*
%FSLAX46Y46*%
G04 Gerber Fmt 4.6, Leading zero omitted, Abs format (unit mm)*
G04 Created by KiCad (PCBNEW 4.0.2-4+6225~38~ubuntu15.10.1-stable) date Sat 05 Mar 2016 02:29:04 PM EST*
%MOMM*%
G01*
G04 APERTURE LIST*
%ADD10C,0.100000*%
%ADD11R,1.800000X1.800000*%
%ADD12R,1.800000X1.700000*%
%ADD13R,1.700000X1.800000*%
%ADD14R,1.200000X1.150000*%
%ADD15O,0.700000X1.250000*%
%ADD16O,1.250000X0.700000*%
%ADD17R,2.075000X2.075000*%
%ADD18R,1.150000X1.200000*%
%ADD19R,4.057600X2.432000*%
%ADD20R,1.416000X2.432000*%
%ADD21C,1.100000*%
%ADD22C,1.100000*%
%ADD23C,1.799540*%
%ADD24C,1.900000*%
G04 APERTURE END LIST*
D10*
D11*
X72150000Y-139950000D03*
X76550000Y-139950000D03*
D12*
X76550000Y-138350000D03*
X72150000Y-138350000D03*
D11*
X72150000Y-136750000D03*
X76550000Y-136750000D03*
X76450000Y-82660000D03*
X76450000Y-78260000D03*
D13*
X74850000Y-78260000D03*
X74850000Y-82660000D03*
D11*
X73250000Y-82660000D03*
X73250000Y-78260000D03*
X66950000Y-82650000D03*
X66950000Y-78250000D03*
D13*
X65350000Y-78250000D03*
X65350000Y-82650000D03*
D11*
X63750000Y-82650000D03*
X63750000Y-78250000D03*
X57450000Y-82650000D03*
X57450000Y-78250000D03*
D13*
X55850000Y-78250000D03*
X55850000Y-82650000D03*
D11*
X54250000Y-82650000D03*
X54250000Y-78250000D03*
X85900000Y-121500000D03*
X85900000Y-117100000D03*
D13*
X84300000Y-117100000D03*
X84300000Y-121500000D03*
D11*
X82700000Y-121500000D03*
X82700000Y-117100000D03*
X78850000Y-139950000D03*
X83250000Y-139950000D03*
D12*
X83250000Y-138350000D03*
X78850000Y-138350000D03*
D11*
X78850000Y-136750000D03*
X83250000Y-136750000D03*
X85900000Y-82600000D03*
X85900000Y-78200000D03*
D13*
X84300000Y-78200000D03*
X84300000Y-82600000D03*
D11*
X82700000Y-82600000D03*
X82700000Y-78200000D03*
X85900000Y-89050000D03*
X85900000Y-84650000D03*
D13*
X84300000Y-84650000D03*
X84300000Y-89050000D03*
D11*
X82700000Y-89050000D03*
X82700000Y-84650000D03*
X85550000Y-139950000D03*
X89950000Y-139950000D03*
D12*
X89950000Y-138350000D03*
X85550000Y-138350000D03*
D11*
X85550000Y-136750000D03*
X89950000Y-136750000D03*
X95400000Y-153550000D03*
X95400000Y-149150000D03*
D13*
X93800000Y-149150000D03*
X93800000Y-153550000D03*
D11*
X92200000Y-153550000D03*
X92200000Y-149150000D03*
X95400000Y-160060000D03*
X95400000Y-155660000D03*
D13*
X93800000Y-155660000D03*
X93800000Y-160060000D03*
D11*
X92200000Y-160060000D03*
X92200000Y-155660000D03*
X95400000Y-147050000D03*
X95400000Y-142650000D03*
D13*
X93800000Y-142650000D03*
X93800000Y-147050000D03*
D11*
X92200000Y-147050000D03*
X92200000Y-142650000D03*
X115350000Y-136700000D03*
X110950000Y-136700000D03*
D12*
X110950000Y-138300000D03*
X115350000Y-138300000D03*
D11*
X115350000Y-139900000D03*
X110950000Y-139900000D03*
X108700000Y-136750000D03*
X104300000Y-136750000D03*
D12*
X104300000Y-138350000D03*
X108700000Y-138350000D03*
D11*
X108700000Y-139950000D03*
X104300000Y-139950000D03*
X92200000Y-136210000D03*
X92200000Y-140610000D03*
D13*
X93800000Y-140610000D03*
X93800000Y-136210000D03*
D11*
X95400000Y-136210000D03*
X95400000Y-140610000D03*
X102000000Y-136750000D03*
X97600000Y-136750000D03*
D12*
X97600000Y-138350000D03*
X102000000Y-138350000D03*
D11*
X102000000Y-139950000D03*
X97600000Y-139950000D03*
X92200000Y-129710000D03*
X92200000Y-134110000D03*
D13*
X93800000Y-134110000D03*
X93800000Y-129710000D03*
D11*
X95400000Y-129710000D03*
X95400000Y-134110000D03*
X92200000Y-116710000D03*
X92200000Y-121110000D03*
D13*
X93800000Y-121110000D03*
X93800000Y-116710000D03*
D11*
X95400000Y-116710000D03*
X95400000Y-121110000D03*
X92200000Y-123210000D03*
X92200000Y-127610000D03*
D13*
X93800000Y-127610000D03*
X93800000Y-123210000D03*
D11*
X95400000Y-123210000D03*
X95400000Y-127610000D03*
X66950000Y-121600000D03*
X66950000Y-117200000D03*
D13*
X65350000Y-117200000D03*
X65350000Y-121600000D03*
D11*
X63750000Y-121600000D03*
X63750000Y-117200000D03*
X66950000Y-115100000D03*
X66950000Y-110700000D03*
D13*
X65350000Y-110700000D03*
X65350000Y-115100000D03*
D11*
X63750000Y-115100000D03*
X63750000Y-110700000D03*
X76450000Y-115150000D03*
X76450000Y-110750000D03*
D13*
X74850000Y-110750000D03*
X74850000Y-115150000D03*
D11*
X73250000Y-115150000D03*
X73250000Y-110750000D03*
X76450000Y-121600000D03*
X76450000Y-117200000D03*
D13*
X74850000Y-117200000D03*
X74850000Y-121600000D03*
D11*
X73250000Y-121600000D03*
X73250000Y-117200000D03*
X57450000Y-89100000D03*
X57450000Y-84700000D03*
D13*
X55850000Y-84700000D03*
X55850000Y-89100000D03*
D11*
X54250000Y-89100000D03*
X54250000Y-84700000D03*
X57450000Y-95600000D03*
X57450000Y-91200000D03*
D13*
X55850000Y-91200000D03*
X55850000Y-95600000D03*
D11*
X54250000Y-95600000D03*
X54250000Y-91200000D03*
X57450000Y-102100000D03*
X57450000Y-97700000D03*
D13*
X55850000Y-97700000D03*
X55850000Y-102100000D03*
D11*
X54250000Y-102100000D03*
X54250000Y-97700000D03*
X76450000Y-102160000D03*
X76450000Y-97760000D03*
D13*
X74850000Y-97760000D03*
X74850000Y-102160000D03*
D11*
X73250000Y-102160000D03*
X73250000Y-97760000D03*
X76450000Y-95700000D03*
X76450000Y-91300000D03*
D13*
X74850000Y-91300000D03*
X74850000Y-95700000D03*
D11*
X73250000Y-95700000D03*
X73250000Y-91300000D03*
X66950000Y-102150000D03*
X66950000Y-97750000D03*
D13*
X65350000Y-97750000D03*
X65350000Y-102150000D03*
D11*
X63750000Y-102150000D03*
X63750000Y-97750000D03*
X66950000Y-108600000D03*
X66950000Y-104200000D03*
D13*
X65350000Y-104200000D03*
X65350000Y-108600000D03*
D11*
X63750000Y-108600000D03*
X63750000Y-104200000D03*
X66950000Y-95660000D03*
X66950000Y-91260000D03*
D13*
X65350000Y-91260000D03*
X65350000Y-95660000D03*
D11*
X63750000Y-95660000D03*
X63750000Y-91260000D03*
X66950000Y-89160000D03*
X66950000Y-84760000D03*
D13*
X65350000Y-84760000D03*
X65350000Y-89160000D03*
D11*
X63750000Y-89160000D03*
X63750000Y-84760000D03*
X76450000Y-89200000D03*
X76450000Y-84800000D03*
D13*
X74850000Y-84800000D03*
X74850000Y-89200000D03*
D11*
X73250000Y-89200000D03*
X73250000Y-84800000D03*
X85900000Y-108550000D03*
X85900000Y-104150000D03*
D13*
X84300000Y-104150000D03*
X84300000Y-108550000D03*
D11*
X82700000Y-108550000D03*
X82700000Y-104150000D03*
X76450000Y-108650000D03*
X76450000Y-104250000D03*
D13*
X74850000Y-104250000D03*
X74850000Y-108650000D03*
D11*
X73250000Y-108650000D03*
X73250000Y-104250000D03*
X85900000Y-115050000D03*
X85900000Y-110650000D03*
D13*
X84300000Y-110650000D03*
X84300000Y-115050000D03*
D11*
X82700000Y-115050000D03*
X82700000Y-110650000D03*
X85900000Y-102050000D03*
X85900000Y-97650000D03*
D13*
X84300000Y-97650000D03*
X84300000Y-102050000D03*
D11*
X82700000Y-102050000D03*
X82700000Y-97650000D03*
X85900000Y-95550000D03*
X85900000Y-91150000D03*
D13*
X84300000Y-91150000D03*
X84300000Y-95550000D03*
D11*
X82700000Y-95550000D03*
X82700000Y-91150000D03*
X63600000Y-139950000D03*
X68000000Y-139950000D03*
D12*
X68000000Y-138350000D03*
X63600000Y-138350000D03*
D11*
X63600000Y-136750000D03*
X68000000Y-136750000D03*
X57450000Y-115100000D03*
X57450000Y-110700000D03*
D13*
X55850000Y-110700000D03*
X55850000Y-115100000D03*
D11*
X54250000Y-115100000D03*
X54250000Y-110700000D03*
X57450000Y-108600000D03*
X57450000Y-104200000D03*
D13*
X55850000Y-104200000D03*
X55850000Y-108600000D03*
D11*
X54250000Y-108600000D03*
X54250000Y-104200000D03*
X57450000Y-121600000D03*
X57450000Y-117200000D03*
D13*
X55850000Y-117200000D03*
X55850000Y-121600000D03*
D11*
X54250000Y-121600000D03*
X54250000Y-117200000D03*
D14*
X51200000Y-149050000D03*
X49700000Y-149050000D03*
D15*
X41000000Y-142550000D03*
X40500000Y-142550000D03*
X40000000Y-142550000D03*
X39500000Y-142550000D03*
X39000000Y-142550000D03*
X38500000Y-142550000D03*
X38000000Y-142550000D03*
D16*
X37050000Y-143500000D03*
X37050000Y-144000000D03*
X37050000Y-144500000D03*
X37050000Y-145000000D03*
X37050000Y-145500000D03*
X37050000Y-146000000D03*
X37050000Y-146500000D03*
D15*
X38000000Y-147450000D03*
X38500000Y-147450000D03*
X39000000Y-147450000D03*
X39500000Y-147450000D03*
X40000000Y-147450000D03*
X40500000Y-147450000D03*
X41000000Y-147450000D03*
D16*
X41950000Y-146500000D03*
X41950000Y-146000000D03*
X41950000Y-145500000D03*
X41950000Y-145000000D03*
X41950000Y-144500000D03*
X41950000Y-144000000D03*
X41950000Y-143500000D03*
D17*
X38662500Y-145837500D03*
X40337500Y-145837500D03*
X38662500Y-144162500D03*
X40337500Y-144162500D03*
D14*
X49700000Y-150750000D03*
X51200000Y-150750000D03*
D11*
X44800000Y-149150000D03*
X44800000Y-153550000D03*
D13*
X46400000Y-153550000D03*
X46400000Y-149150000D03*
D11*
X48000000Y-149150000D03*
X48000000Y-153550000D03*
X44800000Y-155600000D03*
X44800000Y-160000000D03*
D13*
X46400000Y-160000000D03*
X46400000Y-155600000D03*
D11*
X48000000Y-155600000D03*
X48000000Y-160000000D03*
X44750000Y-142750000D03*
X44750000Y-147150000D03*
D13*
X46350000Y-147150000D03*
X46350000Y-142750000D03*
D11*
X47950000Y-142750000D03*
X47950000Y-147150000D03*
X41850000Y-136750000D03*
X37450000Y-136750000D03*
D12*
X37450000Y-138350000D03*
X41850000Y-138350000D03*
D11*
X41850000Y-139950000D03*
X37450000Y-139950000D03*
X35450000Y-136750000D03*
X31050000Y-136750000D03*
D12*
X31050000Y-138350000D03*
X35450000Y-138350000D03*
D11*
X35450000Y-139950000D03*
X31050000Y-139950000D03*
D18*
X33380000Y-133440000D03*
X33380000Y-134940000D03*
D10*
G36*
X40523362Y-126930165D02*
X41370165Y-126083362D01*
X42216968Y-126930165D01*
X41370165Y-127776968D01*
X40523362Y-126930165D01*
X40523362Y-126930165D01*
G37*
G36*
X41583032Y-127989835D02*
X42429835Y-127143032D01*
X43276638Y-127989835D01*
X42429835Y-128836638D01*
X41583032Y-127989835D01*
X41583032Y-127989835D01*
G37*
D11*
X29050000Y-136750000D03*
X24650000Y-136750000D03*
D12*
X24650000Y-138350000D03*
X29050000Y-138350000D03*
D11*
X29050000Y-139950000D03*
X24650000Y-139950000D03*
D18*
X35200000Y-134940000D03*
X35200000Y-133440000D03*
X59810000Y-134820000D03*
X59810000Y-133320000D03*
X57910000Y-134880000D03*
X57910000Y-133380000D03*
D11*
X50550000Y-139950000D03*
X54950000Y-139950000D03*
D12*
X54950000Y-138350000D03*
X50550000Y-138350000D03*
D11*
X50550000Y-136750000D03*
X54950000Y-136750000D03*
X57150000Y-139950000D03*
X61550000Y-139950000D03*
D12*
X61550000Y-138350000D03*
X57150000Y-138350000D03*
D11*
X57150000Y-136750000D03*
X61550000Y-136750000D03*
D19*
X52100000Y-127498000D03*
D20*
X52100000Y-134102000D03*
X54386000Y-134102000D03*
X49814000Y-134102000D03*
D11*
X47950000Y-134050000D03*
X47950000Y-129650000D03*
D13*
X46350000Y-129650000D03*
X46350000Y-134050000D03*
D11*
X44750000Y-134050000D03*
X44750000Y-129650000D03*
X47950000Y-121100000D03*
X47950000Y-116700000D03*
D13*
X46350000Y-116700000D03*
X46350000Y-121100000D03*
D11*
X44750000Y-121100000D03*
X44750000Y-116700000D03*
X47950000Y-127550000D03*
X47950000Y-123150000D03*
D13*
X46350000Y-123150000D03*
X46350000Y-127550000D03*
D11*
X44750000Y-127550000D03*
X44750000Y-123150000D03*
D21*
X48537957Y-135666027D02*
X48891511Y-136019581D01*
X43482144Y-140721841D02*
X43835698Y-141075395D01*
D22*
X45073488Y-139170095D03*
X46016415Y-138227168D03*
X46914440Y-137329143D03*
X46063084Y-139201561D03*
X47000000Y-138300000D03*
D23*
X41821296Y-130190511D03*
X37930511Y-134081296D03*
X39343000Y-127712215D03*
X35381504Y-131532289D03*
X50578704Y-146629489D03*
X54469489Y-142738704D03*
X53057000Y-149107785D03*
X57018496Y-145287711D03*
D24*
X97350000Y-119640000D03*
X97350000Y-117100000D03*
X90200000Y-119520000D03*
X90200000Y-116980000D03*
X112430000Y-141900000D03*
X114970000Y-141900000D03*
X112530000Y-134750000D03*
X115070000Y-134750000D03*
X90200000Y-157030000D03*
X90200000Y-159570000D03*
X97400000Y-157080000D03*
X97400000Y-159620000D03*
X75170000Y-134800000D03*
X72630000Y-134800000D03*
X75120000Y-141950000D03*
X72580000Y-141950000D03*
X52250000Y-81120000D03*
X52250000Y-78580000D03*
X59400000Y-81120000D03*
X59400000Y-78580000D03*
X61750000Y-81140000D03*
X61750000Y-78600000D03*
X68950000Y-81170000D03*
X68950000Y-78630000D03*
X71250000Y-81120000D03*
X71250000Y-78580000D03*
X78450000Y-81120000D03*
X78450000Y-78580000D03*
X49950000Y-156860000D03*
X49950000Y-159400000D03*
X64930000Y-141900000D03*
X67470000Y-141900000D03*
X27670000Y-141900000D03*
X25130000Y-141900000D03*
X27670000Y-134800000D03*
X25130000Y-134800000D03*
X52300000Y-118680000D03*
X52300000Y-121220000D03*
X59400000Y-118680000D03*
X59400000Y-121220000D03*
X61750000Y-118680000D03*
X61750000Y-121220000D03*
X68900000Y-118680000D03*
X68900000Y-121220000D03*
X71250000Y-118680000D03*
X71250000Y-121220000D03*
X78450000Y-118680000D03*
X78450000Y-121220000D03*
X80700000Y-118680000D03*
X80700000Y-121220000D03*
X87900000Y-118680000D03*
X87900000Y-121220000D03*
X42750000Y-119570000D03*
X42750000Y-117030000D03*
X49900000Y-119570000D03*
X49900000Y-117030000D03*
X64880000Y-134750000D03*
X67420000Y-134750000D03*
X42750000Y-156830000D03*
X42750000Y-159370000D03*
X80700000Y-81120000D03*
X80700000Y-78580000D03*
X87900000Y-81120000D03*
X87900000Y-78580000D03*
M02*
