G04 #@! TF.FileFunction,Legend,Bot*
%FSLAX46Y46*%
G04 Gerber Fmt 4.6, Leading zero omitted, Abs format (unit mm)*
G04 Created by KiCad (PCBNEW 4.0.2-4+6225~38~ubuntu15.10.1-stable) date Sat 05 Mar 2016 02:29:04 PM EST*
%MOMM*%
G01*
G04 APERTURE LIST*
%ADD10C,0.100000*%
%ADD11C,0.150000*%
G04 APERTURE END LIST*
D10*
X62083335Y-141239084D02*
X62184351Y-141205413D01*
X62319038Y-141070725D01*
X62352710Y-140969710D01*
X62319038Y-140868695D01*
X62049664Y-140599320D01*
X61948649Y-140565649D01*
X61847633Y-140599320D01*
X61712946Y-140734008D01*
X61679274Y-140835023D01*
X61712946Y-140936038D01*
X61780290Y-141003382D01*
X62184351Y-140734008D01*
X61780290Y-141542130D02*
X61746618Y-141643145D01*
X61611931Y-141777832D01*
X61510916Y-141811504D01*
X61409900Y-141777833D01*
X61376229Y-141744161D01*
X61342557Y-141643146D01*
X61376229Y-141542130D01*
X61477245Y-141441115D01*
X61510916Y-141340100D01*
X61477244Y-141239084D01*
X61443572Y-141205412D01*
X61342557Y-141171740D01*
X61241542Y-141205412D01*
X61140527Y-141306427D01*
X61106854Y-141407443D01*
X60736465Y-141710488D02*
X61443572Y-142417595D01*
X60770137Y-141744160D02*
X60669122Y-141777832D01*
X60534434Y-141912519D01*
X60500763Y-142013535D01*
X60500763Y-142080878D01*
X60534434Y-142181893D01*
X60736465Y-142383924D01*
X60837481Y-142417596D01*
X60904824Y-142417596D01*
X61005839Y-142383924D01*
X61140527Y-142249237D01*
X61174198Y-142148222D01*
X60063030Y-142518610D02*
X60096702Y-142417595D01*
X60096702Y-142350252D01*
X60063030Y-142249237D01*
X60029359Y-142215565D01*
X59928343Y-142181893D01*
X59861000Y-142181893D01*
X59759985Y-142215565D01*
X59625297Y-142350253D01*
X59591626Y-142451268D01*
X59591626Y-142518611D01*
X59625297Y-142619626D01*
X59658969Y-142653298D01*
X59759984Y-142686970D01*
X59827328Y-142686970D01*
X59928343Y-142653298D01*
X60063030Y-142518610D01*
X60164045Y-142484939D01*
X60231389Y-142484939D01*
X60332405Y-142518611D01*
X60467092Y-142653298D01*
X60500763Y-142754313D01*
X60500763Y-142821657D01*
X60467092Y-142922672D01*
X60332404Y-143057359D01*
X60231389Y-143091031D01*
X60164045Y-143091031D01*
X60063030Y-143057359D01*
X59928343Y-142922672D01*
X59894671Y-142821657D01*
X59894671Y-142754313D01*
X59928343Y-142653298D01*
X59288580Y-142821657D02*
X59221237Y-142821657D01*
X59120221Y-142855328D01*
X58951862Y-143023688D01*
X58918190Y-143124703D01*
X58918190Y-143192046D01*
X58951862Y-143293061D01*
X59019206Y-143360405D01*
X59153892Y-143427748D01*
X59962015Y-143427748D01*
X59524282Y-143865481D01*
X58211084Y-143764466D02*
X58345771Y-143629779D01*
X58446786Y-143596107D01*
X58514130Y-143596107D01*
X58682488Y-143629779D01*
X58850847Y-143730794D01*
X59120221Y-144000168D01*
X59153893Y-144101183D01*
X59153893Y-144168527D01*
X59120221Y-144269542D01*
X58985534Y-144404229D01*
X58884519Y-144437901D01*
X58817175Y-144437901D01*
X58716160Y-144404229D01*
X58547802Y-144235871D01*
X58514129Y-144134855D01*
X58514129Y-144067512D01*
X58547801Y-143966496D01*
X58682488Y-143831809D01*
X58783504Y-143798137D01*
X58850847Y-143798137D01*
X58951863Y-143831810D01*
X57537649Y-144437901D02*
X57672336Y-144303214D01*
X57773351Y-144269542D01*
X57840695Y-144269542D01*
X58009053Y-144303214D01*
X58177412Y-144404229D01*
X58446786Y-144673603D01*
X58480458Y-144774618D01*
X58480458Y-144841962D01*
X58446786Y-144942977D01*
X58312099Y-145077665D01*
X58211084Y-145111336D01*
X58143740Y-145111336D01*
X58042725Y-145077665D01*
X57874367Y-144909306D01*
X57840694Y-144808290D01*
X57840694Y-144740947D01*
X57874366Y-144639931D01*
X58009053Y-144505244D01*
X58110069Y-144471572D01*
X58177412Y-144471572D01*
X58278428Y-144505245D01*
X58110069Y-145414382D02*
X57571320Y-145953130D01*
X57032572Y-146357191D02*
X56662183Y-145986802D01*
X56628511Y-145885786D01*
X56662183Y-145784771D01*
X56796870Y-145650084D01*
X56897885Y-145616412D01*
X56998900Y-146323519D02*
X57099916Y-146289848D01*
X57268275Y-146121488D01*
X57301947Y-146020473D01*
X57268275Y-145919458D01*
X57200931Y-145852115D01*
X57099916Y-145818443D01*
X56998901Y-145852115D01*
X56830542Y-146020474D01*
X56729527Y-146054146D01*
X56224450Y-146222504D02*
X56931557Y-146929610D01*
X56258122Y-146256175D02*
X56157107Y-146289847D01*
X56022419Y-146424535D01*
X55988747Y-146525550D01*
X55988747Y-146592893D01*
X56022419Y-146693908D01*
X56224450Y-146895939D01*
X56325465Y-146929611D01*
X56392809Y-146929611D01*
X56493824Y-146895939D01*
X56628512Y-146761252D01*
X56662183Y-146660237D01*
X55753045Y-147636718D02*
X55382656Y-147266328D01*
X55348984Y-147165313D01*
X55382656Y-147064298D01*
X55517343Y-146929610D01*
X55618359Y-146895939D01*
X55719374Y-147603046D02*
X55820389Y-147569374D01*
X55988748Y-147401015D01*
X56022420Y-147300000D01*
X55988748Y-147198985D01*
X55921405Y-147131641D01*
X55820390Y-147097970D01*
X55719374Y-147131641D01*
X55551015Y-147300001D01*
X55450000Y-147333672D01*
X55045939Y-148343825D02*
X55450000Y-147939763D01*
X55247970Y-148141794D02*
X54540863Y-147434687D01*
X54709222Y-147468359D01*
X54843908Y-147468359D01*
X54944924Y-147434687D01*
X53901100Y-148074450D02*
X53833755Y-148141794D01*
X53800084Y-148242810D01*
X53800084Y-148310153D01*
X53833755Y-148411168D01*
X53934771Y-148579527D01*
X54103130Y-148747886D01*
X54271488Y-148848901D01*
X54372504Y-148882573D01*
X54439847Y-148882573D01*
X54540862Y-148848901D01*
X54608206Y-148781557D01*
X54641878Y-148680542D01*
X54641878Y-148613198D01*
X54608206Y-148512183D01*
X54507191Y-148343825D01*
X54338832Y-148175465D01*
X54170473Y-148074450D01*
X54069458Y-148040778D01*
X54002115Y-148040778D01*
X53901100Y-148074450D01*
X53463367Y-148646870D02*
X53396023Y-148646870D01*
X53295008Y-148680542D01*
X53126649Y-148848901D01*
X53092977Y-148949916D01*
X53092977Y-149017260D01*
X53126649Y-149118275D01*
X53193992Y-149185618D01*
X53328679Y-149252962D01*
X54136802Y-149252962D01*
X53699069Y-149690695D01*
X53631725Y-149892725D02*
X53092977Y-150431473D01*
X52857275Y-150532488D02*
X52150168Y-149825382D01*
X52419542Y-150094755D02*
X52318527Y-150128427D01*
X52183839Y-150263115D01*
X52150167Y-150364130D01*
X52150167Y-150431473D01*
X52183839Y-150532488D01*
X52385870Y-150734519D01*
X52486885Y-150768191D01*
X52554229Y-150768191D01*
X52655244Y-150734519D01*
X52789931Y-150599832D01*
X52823603Y-150498817D01*
X51443061Y-151003893D02*
X51914465Y-151475298D01*
X51746107Y-150700847D02*
X52116496Y-151071237D01*
X52150168Y-151172252D01*
X52116496Y-151273267D01*
X52015481Y-151374283D01*
X51914465Y-151407955D01*
X51847122Y-151407955D01*
X51476733Y-151913030D02*
X51510405Y-151812015D01*
X51476733Y-151711000D01*
X50870641Y-151104908D01*
X51207359Y-152182405D02*
X50500252Y-151475298D01*
X50769626Y-151744672D02*
X50668610Y-151778343D01*
X50533923Y-151913031D01*
X50500251Y-152014046D01*
X50500251Y-152081390D01*
X50533923Y-152182405D01*
X50735954Y-152384436D01*
X50836969Y-152418107D01*
X50904312Y-152418107D01*
X51005328Y-152384436D01*
X51140015Y-152249748D01*
X51173687Y-152148733D01*
X49624786Y-152822168D02*
X49927832Y-153461931D01*
X49288068Y-153158886D01*
X48715648Y-153731306D02*
X49187053Y-154202711D01*
X48614634Y-153293573D02*
X49288069Y-153630291D01*
X48850336Y-154068024D01*
D11*
X31900000Y-139785000D02*
X30900000Y-139785000D01*
X30900000Y-141135000D02*
X31900000Y-141135000D01*
X32600000Y-143235000D02*
X33600000Y-143235000D01*
X33600000Y-141885000D02*
X32600000Y-141885000D01*
X34150000Y-145325000D02*
X35150000Y-145325000D01*
X35150000Y-143975000D02*
X34150000Y-143975000D01*
X46950000Y-123475000D02*
X47950000Y-123475000D01*
X47950000Y-122125000D02*
X46950000Y-122125000D01*
X46650000Y-120075000D02*
X45650000Y-120075000D01*
X45650000Y-121425000D02*
X46650000Y-121425000D01*
X42300000Y-148685000D02*
X41300000Y-148685000D01*
X41300000Y-150035000D02*
X42300000Y-150035000D01*
X53650000Y-144775000D02*
X52650000Y-144775000D01*
X52650000Y-146125000D02*
X53650000Y-146125000D01*
X50600000Y-127575000D02*
X51600000Y-127575000D01*
X51600000Y-126225000D02*
X50600000Y-126225000D01*
X49300000Y-125500000D02*
X50000000Y-125500000D01*
X50000000Y-124300000D02*
X49300000Y-124300000D01*
X56150000Y-133060000D02*
X56850000Y-133060000D01*
X56850000Y-131860000D02*
X56150000Y-131860000D01*
X53500000Y-128175000D02*
X52500000Y-128175000D01*
X52500000Y-129525000D02*
X53500000Y-129525000D01*
D10*
X42999773Y-133631911D02*
X43400466Y-134032605D01*
X43424037Y-134103315D01*
X43424037Y-134150455D01*
X43400467Y-134221167D01*
X43306186Y-134315447D01*
X43235475Y-134339017D01*
X43188335Y-134339017D01*
X43117624Y-134315447D01*
X42716930Y-133914754D01*
X42528369Y-134103315D02*
X42221956Y-134409728D01*
X42575509Y-134433298D01*
X42504798Y-134504009D01*
X42481228Y-134574720D01*
X42481228Y-134621860D01*
X42504799Y-134692571D01*
X42622650Y-134810421D01*
X42693360Y-134833992D01*
X42740500Y-134833992D01*
X42811212Y-134810422D01*
X42952633Y-134669001D01*
X42976203Y-134598289D01*
X42976203Y-134551149D01*
X33516666Y-140776667D02*
X33750000Y-140443333D01*
X33916666Y-140776667D02*
X33916666Y-140076667D01*
X33650000Y-140076667D01*
X33583333Y-140110000D01*
X33550000Y-140143333D01*
X33516666Y-140210000D01*
X33516666Y-140310000D01*
X33550000Y-140376667D01*
X33583333Y-140410000D01*
X33650000Y-140443333D01*
X33916666Y-140443333D01*
X33116666Y-140376667D02*
X33183333Y-140343333D01*
X33216666Y-140310000D01*
X33250000Y-140243333D01*
X33250000Y-140210000D01*
X33216666Y-140143333D01*
X33183333Y-140110000D01*
X33116666Y-140076667D01*
X32983333Y-140076667D01*
X32916666Y-140110000D01*
X32883333Y-140143333D01*
X32850000Y-140210000D01*
X32850000Y-140243333D01*
X32883333Y-140310000D01*
X32916666Y-140343333D01*
X32983333Y-140376667D01*
X33116666Y-140376667D01*
X33183333Y-140410000D01*
X33216666Y-140443333D01*
X33250000Y-140510000D01*
X33250000Y-140643333D01*
X33216666Y-140710000D01*
X33183333Y-140743333D01*
X33116666Y-140776667D01*
X32983333Y-140776667D01*
X32916666Y-140743333D01*
X32883333Y-140710000D01*
X32850000Y-140643333D01*
X32850000Y-140510000D01*
X32883333Y-140443333D01*
X32916666Y-140410000D01*
X32983333Y-140376667D01*
X35216666Y-142876667D02*
X35450000Y-142543333D01*
X35616666Y-142876667D02*
X35616666Y-142176667D01*
X35350000Y-142176667D01*
X35283333Y-142210000D01*
X35250000Y-142243333D01*
X35216666Y-142310000D01*
X35216666Y-142410000D01*
X35250000Y-142476667D01*
X35283333Y-142510000D01*
X35350000Y-142543333D01*
X35616666Y-142543333D01*
X34550000Y-142876667D02*
X34950000Y-142876667D01*
X34750000Y-142876667D02*
X34750000Y-142176667D01*
X34816666Y-142276667D01*
X34883333Y-142343333D01*
X34950000Y-142376667D01*
X36866666Y-145066667D02*
X37100000Y-144733333D01*
X37266666Y-145066667D02*
X37266666Y-144366667D01*
X37000000Y-144366667D01*
X36933333Y-144400000D01*
X36900000Y-144433333D01*
X36866666Y-144500000D01*
X36866666Y-144600000D01*
X36900000Y-144666667D01*
X36933333Y-144700000D01*
X37000000Y-144733333D01*
X37266666Y-144733333D01*
X36600000Y-144433333D02*
X36566666Y-144400000D01*
X36500000Y-144366667D01*
X36333333Y-144366667D01*
X36266666Y-144400000D01*
X36233333Y-144433333D01*
X36200000Y-144500000D01*
X36200000Y-144566667D01*
X36233333Y-144666667D01*
X36633333Y-145066667D01*
X36200000Y-145066667D01*
X49666666Y-123116667D02*
X49900000Y-122783333D01*
X50066666Y-123116667D02*
X50066666Y-122416667D01*
X49800000Y-122416667D01*
X49733333Y-122450000D01*
X49700000Y-122483333D01*
X49666666Y-122550000D01*
X49666666Y-122650000D01*
X49700000Y-122716667D01*
X49733333Y-122750000D01*
X49800000Y-122783333D01*
X50066666Y-122783333D01*
X49066666Y-122416667D02*
X49200000Y-122416667D01*
X49266666Y-122450000D01*
X49300000Y-122483333D01*
X49366666Y-122583333D01*
X49400000Y-122716667D01*
X49400000Y-122983333D01*
X49366666Y-123050000D01*
X49333333Y-123083333D01*
X49266666Y-123116667D01*
X49133333Y-123116667D01*
X49066666Y-123083333D01*
X49033333Y-123050000D01*
X49000000Y-122983333D01*
X49000000Y-122816667D01*
X49033333Y-122750000D01*
X49066666Y-122716667D01*
X49133333Y-122683333D01*
X49266666Y-122683333D01*
X49333333Y-122716667D01*
X49366666Y-122750000D01*
X49400000Y-122816667D01*
X48266666Y-121166667D02*
X48500000Y-120833333D01*
X48666666Y-121166667D02*
X48666666Y-120466667D01*
X48400000Y-120466667D01*
X48333333Y-120500000D01*
X48300000Y-120533333D01*
X48266666Y-120600000D01*
X48266666Y-120700000D01*
X48300000Y-120766667D01*
X48333333Y-120800000D01*
X48400000Y-120833333D01*
X48666666Y-120833333D01*
X48033333Y-120466667D02*
X47566666Y-120466667D01*
X47866666Y-121166667D01*
X41916666Y-148376667D02*
X42150000Y-148043333D01*
X42316666Y-148376667D02*
X42316666Y-147676667D01*
X42050000Y-147676667D01*
X41983333Y-147710000D01*
X41950000Y-147743333D01*
X41916666Y-147810000D01*
X41916666Y-147910000D01*
X41950000Y-147976667D01*
X41983333Y-148010000D01*
X42050000Y-148043333D01*
X42316666Y-148043333D01*
X41283333Y-147676667D02*
X41616666Y-147676667D01*
X41650000Y-148010000D01*
X41616666Y-147976667D01*
X41550000Y-147943333D01*
X41383333Y-147943333D01*
X41316666Y-147976667D01*
X41283333Y-148010000D01*
X41250000Y-148076667D01*
X41250000Y-148243333D01*
X41283333Y-148310000D01*
X41316666Y-148343333D01*
X41383333Y-148376667D01*
X41550000Y-148376667D01*
X41616666Y-148343333D01*
X41650000Y-148310000D01*
X55266666Y-145766667D02*
X55500000Y-145433333D01*
X55666666Y-145766667D02*
X55666666Y-145066667D01*
X55400000Y-145066667D01*
X55333333Y-145100000D01*
X55300000Y-145133333D01*
X55266666Y-145200000D01*
X55266666Y-145300000D01*
X55300000Y-145366667D01*
X55333333Y-145400000D01*
X55400000Y-145433333D01*
X55666666Y-145433333D01*
X54933333Y-145766667D02*
X54800000Y-145766667D01*
X54733333Y-145733333D01*
X54700000Y-145700000D01*
X54633333Y-145600000D01*
X54600000Y-145466667D01*
X54600000Y-145200000D01*
X54633333Y-145133333D01*
X54666666Y-145100000D01*
X54733333Y-145066667D01*
X54866666Y-145066667D01*
X54933333Y-145100000D01*
X54966666Y-145133333D01*
X55000000Y-145200000D01*
X55000000Y-145366667D01*
X54966666Y-145433333D01*
X54933333Y-145466667D01*
X54866666Y-145500000D01*
X54733333Y-145500000D01*
X54666666Y-145466667D01*
X54633333Y-145433333D01*
X54600000Y-145366667D01*
X53266666Y-127206667D02*
X53500000Y-126873333D01*
X53666666Y-127206667D02*
X53666666Y-126506667D01*
X53400000Y-126506667D01*
X53333333Y-126540000D01*
X53300000Y-126573333D01*
X53266666Y-126640000D01*
X53266666Y-126740000D01*
X53300000Y-126806667D01*
X53333333Y-126840000D01*
X53400000Y-126873333D01*
X53666666Y-126873333D01*
X52666666Y-126740000D02*
X52666666Y-127206667D01*
X52833333Y-126473333D02*
X53000000Y-126973333D01*
X52566666Y-126973333D01*
X51916666Y-125140000D02*
X51950000Y-125173333D01*
X52050000Y-125206667D01*
X52116666Y-125206667D01*
X52216666Y-125173333D01*
X52283333Y-125106667D01*
X52316666Y-125040000D01*
X52350000Y-124906667D01*
X52350000Y-124806667D01*
X52316666Y-124673333D01*
X52283333Y-124606667D01*
X52216666Y-124540000D01*
X52116666Y-124506667D01*
X52050000Y-124506667D01*
X51950000Y-124540000D01*
X51916666Y-124573333D01*
X51316666Y-124740000D02*
X51316666Y-125206667D01*
X51483333Y-124473333D02*
X51650000Y-124973333D01*
X51216666Y-124973333D01*
X58816666Y-132810000D02*
X58850000Y-132843333D01*
X58950000Y-132876667D01*
X59016666Y-132876667D01*
X59116666Y-132843333D01*
X59183333Y-132776667D01*
X59216666Y-132710000D01*
X59250000Y-132576667D01*
X59250000Y-132476667D01*
X59216666Y-132343333D01*
X59183333Y-132276667D01*
X59116666Y-132210000D01*
X59016666Y-132176667D01*
X58950000Y-132176667D01*
X58850000Y-132210000D01*
X58816666Y-132243333D01*
X58416666Y-132476667D02*
X58483333Y-132443333D01*
X58516666Y-132410000D01*
X58550000Y-132343333D01*
X58550000Y-132310000D01*
X58516666Y-132243333D01*
X58483333Y-132210000D01*
X58416666Y-132176667D01*
X58283333Y-132176667D01*
X58216666Y-132210000D01*
X58183333Y-132243333D01*
X58150000Y-132310000D01*
X58150000Y-132343333D01*
X58183333Y-132410000D01*
X58216666Y-132443333D01*
X58283333Y-132476667D01*
X58416666Y-132476667D01*
X58483333Y-132510000D01*
X58516666Y-132543333D01*
X58550000Y-132610000D01*
X58550000Y-132743333D01*
X58516666Y-132810000D01*
X58483333Y-132843333D01*
X58416666Y-132876667D01*
X58283333Y-132876667D01*
X58216666Y-132843333D01*
X58183333Y-132810000D01*
X58150000Y-132743333D01*
X58150000Y-132610000D01*
X58183333Y-132543333D01*
X58216666Y-132510000D01*
X58283333Y-132476667D01*
X55116666Y-129316667D02*
X55350000Y-128983333D01*
X55516666Y-129316667D02*
X55516666Y-128616667D01*
X55250000Y-128616667D01*
X55183333Y-128650000D01*
X55150000Y-128683333D01*
X55116666Y-128750000D01*
X55116666Y-128850000D01*
X55150000Y-128916667D01*
X55183333Y-128950000D01*
X55250000Y-128983333D01*
X55516666Y-128983333D01*
X54883333Y-128616667D02*
X54450000Y-128616667D01*
X54683333Y-128883333D01*
X54583333Y-128883333D01*
X54516666Y-128916667D01*
X54483333Y-128950000D01*
X54450000Y-129016667D01*
X54450000Y-129183333D01*
X54483333Y-129250000D01*
X54516666Y-129283333D01*
X54583333Y-129316667D01*
X54783333Y-129316667D01*
X54850000Y-129283333D01*
X54883333Y-129250000D01*
M02*
