M48
;DRILL file {KiCad 4.0.2-4+6225~38~ubuntu15.10.1-stable} date Sun 06 Mar 2016 02:01:04 PM EST
;FORMAT={-:-/ absolute / inch / decimal}
FMAT,2
INCH,TZ
T1C0.012
T2C0.016
T3C0.018
T4C0.020
T5C0.022
T6C0.037
%
G90
G05
M72
T1
X4.2382Y-4.7559
X4.2382Y-4.8406
X4.2579Y-4.7559
X4.2579Y-4.8406
X4.2776Y-3.3957
X4.2776Y-3.4862
X4.2776Y-3.935
X4.2776Y-4.3091
X4.2795Y-3.8602
X4.2795Y-4.3839
X4.2795Y-4.7559
X4.2795Y-4.8406
X4.3012Y-3.3957
X4.3012Y-3.4862
X4.3012Y-3.935
X4.3012Y-4.3091
X4.3012Y-4.7559
X4.3012Y-4.8406
X4.3031Y-3.8602
X4.3031Y-4.3839
X4.3248Y-3.3957
X4.3248Y-3.4862
X4.3248Y-3.935
X4.3248Y-4.3091
X4.3268Y-3.8602
X4.3268Y-4.3839
X5.0571Y-5.7146
X5.0571Y-5.7343
X5.0571Y-5.7539
X5.1201Y-5.7146
X5.1201Y-5.7343
X5.1201Y-5.7539
X5.8366Y-3.4843
X5.8366Y-3.8583
X5.8366Y-3.935
X5.8386Y-3.3937
X5.8386Y-4.3091
X5.8386Y-4.3858
X5.8602Y-3.4843
X5.8602Y-3.8583
X5.8602Y-3.935
X5.8622Y-3.3937
X5.8622Y-4.3091
X5.8622Y-4.3858
X5.8681Y-4.8386
X5.8701Y-4.7598
X5.8839Y-3.4843
X5.8839Y-3.8583
X5.8839Y-3.935
X5.8858Y-3.3937
X5.8858Y-4.3091
X5.8858Y-4.3858
X5.8878Y-4.8386
X5.8898Y-4.7598
X5.9094Y-4.8386
X5.9114Y-4.7598
X5.9311Y-4.8386
X5.9331Y-4.7598
T2
X3.5551Y-5.8618
X3.6005Y-5.8551
X3.9236Y-5.8184
X3.9281Y-5.8533
X4.0035Y-5.2494
X4.0411Y-5.9239
X4.0726Y-5.6366
X4.5334Y-4.5194
X4.5345Y-3.6102
X4.5346Y-3.1457
X4.5349Y-4.0601
X4.5977Y-3.5908
X4.5978Y-4.4993
X4.6052Y-4.0451
X4.6073Y-3.1318
X4.7861Y-3.1457
X4.788Y-3.6102
X4.7944Y-4.071
X4.8079Y-4.5258
X4.8485Y-4.0451
X4.8521Y-4.4957
X4.8588Y-3.1285
X4.8626Y-3.6068
X5.0422Y-3.1534
X5.044Y-4.077
X5.047Y-4.5258
X5.0568Y-3.6314
X5.1157Y-4.4957
X5.116Y-3.1369
X5.1201Y-3.6068
X5.122Y-4.0517
X5.2887Y-5.7984
X5.2994Y-3.1613
X5.3017Y-4.5217
X5.3045Y-3.6314
X5.3083Y-4.077
X5.3495Y-4.4924
X5.3515Y-4.0517
X5.3682Y-3.1295
X5.3686Y-3.6012
X5.5326Y-5.7419
X5.5532Y-3.6304
X5.5553Y-4.0815
X5.5673Y-3.1613
X5.5687Y-4.5217
X5.7227Y-5.7897
X5.7781Y-5.7401
X5.808Y-4.5079
X5.8092Y-3.6109
X5.8093Y-3.1613
X5.8106Y-4.0643
X5.9364Y-5.4529
X5.956Y-5.0057
X5.956Y-5.2674
X5.9634Y-5.5294
X5.9784Y-5.7898
X6.0335Y-5.7536
X6.0353Y-6.2242
X6.0658Y-5.9321
X6.1005Y-6.0057
X6.1073Y-6.4609
X6.2715Y-5.6615
X6.3108Y-5.6526
X6.5136Y-5.6765
X6.7455Y-5.6608
T3
X4.1102Y-5.7638
X4.1473Y-5.7266
X4.1492Y-5.765
X4.1827Y-5.6913
X4.1861Y-5.7295
T4
X3.6127Y-5.5885
X3.7686Y-5.8917
X3.8798Y-5.7315
X3.9226Y-5.7323
X4.0464Y-5.3764
X4.0584Y-5.7867
X4.2461Y-5.5036
X4.2789Y-5.6758
X4.3318Y-6.1096
X4.3601Y-5.6196
X4.4569Y-5.9645
X4.4933Y-5.5166
X4.6319Y-5.5374
X4.7479Y-5.6028
T6
X3.326Y-5.5925
X3.326Y-5.872
X3.426Y-5.5925
X3.426Y-5.872
X4.0197Y-4.8929
X4.0197Y-4.9929
X4.0197Y-6.4598
X4.0197Y-6.5598
X4.2413Y-3.0689
X4.2413Y-3.3504
X4.2413Y-3.9803
X4.2413Y-4.2638
X4.2421Y-3.813
X4.2433Y-3.5295
X4.2433Y-4.4291
X4.2433Y-4.7126
X4.3012Y-4.8929
X4.3012Y-4.9929
X4.3031Y-6.461
X4.3031Y-6.561
X4.3413Y-3.0689
X4.3413Y-3.3504
X4.3413Y-3.9803
X4.3413Y-4.2638
X4.3421Y-3.813
X4.3433Y-3.5295
X4.3433Y-4.4291
X4.3433Y-4.7126
X4.8909Y-5.5906
X4.8929Y-5.872
X4.9909Y-5.5906
X4.9929Y-5.872
X5.1783Y-5.8701
X5.1791Y-5.5886
X5.2783Y-5.8701
X5.2791Y-5.5886
X5.8201Y-3.0689
X5.8201Y-3.3484
X5.8201Y-3.5315
X5.8201Y-3.813
X5.8201Y-3.9803
X5.8201Y-4.2638
X5.822Y-4.4291
X5.822Y-4.7126
X5.878Y-4.8949
X5.878Y-4.9949
X5.878Y-6.4618
X5.878Y-6.5618
X5.9201Y-3.0689
X5.9201Y-3.3484
X5.9201Y-3.5315
X5.9201Y-3.813
X5.9201Y-3.9803
X5.9201Y-4.2638
X5.922Y-4.4291
X5.922Y-4.7126
X6.1575Y-4.8949
X6.1575Y-4.9949
X6.1575Y-6.4638
X6.1575Y-6.5638
X6.7512Y-5.872
X6.7531Y-5.5906
X6.8512Y-5.872
X6.8531Y-5.5906
T5
X4.0483Y-5.8256G85X4.0608Y-5.8381
G05
X4.2473Y-5.6265G85X4.2598Y-5.639
G05
T0
M30
