G04 #@! TF.FileFunction,Soldermask,Top*
%FSLAX46Y46*%
G04 Gerber Fmt 4.6, Leading zero omitted, Abs format (unit mm)*
G04 Created by KiCad (PCBNEW 4.0.2-4+6225~38~ubuntu15.10.1-stable) date Sun 13 Mar 2016 03:12:41 AM EDT*
%MOMM*%
G01*
G04 APERTURE LIST*
%ADD10C,0.100000*%
%ADD11C,0.700000*%
%ADD12R,1.800000X1.800000*%
%ADD13R,1.700000X1.800000*%
%ADD14C,1.799540*%
%ADD15C,1.900000*%
%ADD16R,1.200000X1.150000*%
%ADD17R,1.800000X1.700000*%
%ADD18R,1.150000X1.200000*%
%ADD19O,0.700000X1.250000*%
%ADD20O,1.250000X0.700000*%
%ADD21R,2.075000X2.075000*%
%ADD22C,1.100000*%
%ADD23C,1.100000*%
%ADD24R,4.057600X2.432000*%
%ADD25R,1.416000X2.432000*%
%ADD26R,1.200100X1.200100*%
G04 APERTURE END LIST*
D10*
D11*
X128350000Y-146150000D03*
X128350000Y-145650000D03*
X128350000Y-145150000D03*
X130150000Y-146150000D03*
X130150000Y-145650000D03*
X130150000Y-145150000D03*
X148300000Y-111350000D03*
X148850000Y-111350000D03*
X149400000Y-111350000D03*
X148300000Y-109450000D03*
X148850000Y-109450000D03*
X149400000Y-109450000D03*
X148300000Y-99950000D03*
X148850000Y-99950000D03*
X149400000Y-99950000D03*
X148300000Y-98050000D03*
X148850000Y-98050000D03*
X149400000Y-98050000D03*
X148300000Y-88550000D03*
X148850000Y-88550000D03*
X149400000Y-88550000D03*
X148300000Y-86250000D03*
X148850000Y-86250000D03*
X149400000Y-86250000D03*
X108700000Y-86250000D03*
X109250000Y-86250000D03*
X109800000Y-86250000D03*
X108700000Y-88550000D03*
X109250000Y-88550000D03*
X109800000Y-88550000D03*
X109800000Y-98050000D03*
X109250000Y-98050000D03*
X108700000Y-98050000D03*
X109800000Y-99950000D03*
X109250000Y-99950000D03*
X108700000Y-99950000D03*
X109800000Y-109450000D03*
X109250000Y-109450000D03*
X108700000Y-109450000D03*
X109800000Y-111350000D03*
X109250000Y-111350000D03*
X108700000Y-111350000D03*
X109200000Y-122900000D03*
X108700000Y-122900000D03*
X108200000Y-122900000D03*
X107700000Y-122900000D03*
X150600000Y-122900000D03*
X150100000Y-122900000D03*
X149600000Y-122900000D03*
X149100000Y-122900000D03*
X150600000Y-120850000D03*
X150100000Y-120850000D03*
X149600000Y-120850000D03*
X149100000Y-120850000D03*
D12*
X107300000Y-134800000D03*
X107300000Y-130400000D03*
D13*
X105700000Y-130400000D03*
X105700000Y-134800000D03*
D12*
X104100000Y-134800000D03*
X104100000Y-130400000D03*
X107300000Y-141250000D03*
X107300000Y-136850000D03*
D13*
X105700000Y-136850000D03*
X105700000Y-141250000D03*
D12*
X104100000Y-141250000D03*
X104100000Y-136850000D03*
X107300000Y-128350000D03*
X107300000Y-123950000D03*
D13*
X105700000Y-123950000D03*
X105700000Y-128350000D03*
D12*
X104100000Y-128350000D03*
X104100000Y-123950000D03*
D14*
X101171296Y-137440511D03*
X97280511Y-141331296D03*
X98693000Y-134962215D03*
X94731504Y-138782289D03*
D15*
X102100000Y-126820000D03*
X102100000Y-124280000D03*
X109250000Y-126820000D03*
X109250000Y-124280000D03*
D16*
X110550000Y-156300000D03*
X109050000Y-156300000D03*
X109050000Y-158000000D03*
X110550000Y-158000000D03*
D12*
X104100000Y-156400000D03*
X104100000Y-160800000D03*
D13*
X105700000Y-160800000D03*
X105700000Y-156400000D03*
D12*
X107300000Y-156400000D03*
X107300000Y-160800000D03*
X104100000Y-162850000D03*
X104100000Y-167250000D03*
D13*
X105700000Y-167250000D03*
X105700000Y-162850000D03*
D12*
X107300000Y-162850000D03*
X107300000Y-167250000D03*
D15*
X109300000Y-164110000D03*
X109300000Y-166650000D03*
X102100000Y-164080000D03*
X102100000Y-166620000D03*
D12*
X94800000Y-144000000D03*
X90400000Y-144000000D03*
D17*
X90400000Y-145600000D03*
X94800000Y-145600000D03*
D12*
X94800000Y-147200000D03*
X90400000Y-147200000D03*
D15*
X87020000Y-149150000D03*
X84480000Y-149150000D03*
D18*
X92730000Y-140690000D03*
X92730000Y-142190000D03*
D19*
X100250000Y-149800000D03*
X99750000Y-149800000D03*
X99250000Y-149800000D03*
X98750000Y-149800000D03*
X98250000Y-149800000D03*
X97750000Y-149800000D03*
X97250000Y-149800000D03*
D20*
X96300000Y-150750000D03*
X96300000Y-151250000D03*
X96300000Y-151750000D03*
X96300000Y-152250000D03*
X96300000Y-152750000D03*
X96300000Y-153250000D03*
X96300000Y-153750000D03*
D19*
X97250000Y-154700000D03*
X97750000Y-154700000D03*
X98250000Y-154700000D03*
X98750000Y-154700000D03*
X99250000Y-154700000D03*
X99750000Y-154700000D03*
X100250000Y-154700000D03*
D20*
X101200000Y-153750000D03*
X101200000Y-153250000D03*
X101200000Y-152750000D03*
X101200000Y-152250000D03*
X101200000Y-151750000D03*
X101200000Y-151250000D03*
X101200000Y-150750000D03*
D21*
X97912500Y-153087500D03*
X99587500Y-153087500D03*
X97912500Y-151412500D03*
X99587500Y-151412500D03*
D12*
X88400000Y-144000000D03*
X84000000Y-144000000D03*
D17*
X84000000Y-145600000D03*
X88400000Y-145600000D03*
D12*
X88400000Y-147200000D03*
X84000000Y-147200000D03*
D18*
X94550000Y-142190000D03*
X94550000Y-140690000D03*
D12*
X101200000Y-144000000D03*
X96800000Y-144000000D03*
D17*
X96800000Y-145600000D03*
X101200000Y-145600000D03*
D12*
X101200000Y-147200000D03*
X96800000Y-147200000D03*
D15*
X87020000Y-142050000D03*
X84480000Y-142050000D03*
D18*
X118650000Y-142150000D03*
X118650000Y-140650000D03*
X116650000Y-142130000D03*
X116650000Y-140630000D03*
D12*
X109950000Y-147200000D03*
X114350000Y-147200000D03*
D17*
X114350000Y-145600000D03*
X109950000Y-145600000D03*
D12*
X109950000Y-144000000D03*
X114350000Y-144000000D03*
D22*
X107864186Y-142895559D02*
X108217740Y-143249113D01*
X102808373Y-147951373D02*
X103161927Y-148304927D01*
D23*
X104399717Y-146399627D03*
X105342644Y-145456700D03*
X106240669Y-144558675D03*
X105389313Y-146431093D03*
X106326229Y-145529532D03*
D12*
X116500000Y-147200000D03*
X120900000Y-147200000D03*
D17*
X120900000Y-145600000D03*
X116500000Y-145600000D03*
D12*
X116500000Y-144000000D03*
X120900000Y-144000000D03*
X104100000Y-150000000D03*
X104100000Y-154400000D03*
D13*
X105700000Y-154400000D03*
X105700000Y-150000000D03*
D12*
X107300000Y-150000000D03*
X107300000Y-154400000D03*
D14*
X109928704Y-153879489D03*
X113819489Y-149988704D03*
X112407000Y-156357785D03*
X116368496Y-152537711D03*
D15*
X110320000Y-119700000D03*
X107780000Y-119700000D03*
D12*
X111810000Y-103100000D03*
X107410000Y-103100000D03*
D17*
X107410000Y-104700000D03*
X111810000Y-104700000D03*
D12*
X111810000Y-106300000D03*
X107410000Y-106300000D03*
X111800000Y-114500000D03*
X107400000Y-114500000D03*
D17*
X107400000Y-116100000D03*
X111800000Y-116100000D03*
D12*
X111800000Y-117700000D03*
X107400000Y-117700000D03*
X118250000Y-114500000D03*
X113850000Y-114500000D03*
D17*
X113850000Y-116100000D03*
X118250000Y-116100000D03*
D12*
X118250000Y-117700000D03*
X113850000Y-117700000D03*
X118350000Y-103100000D03*
X113950000Y-103100000D03*
D17*
X113950000Y-104700000D03*
X118350000Y-104700000D03*
D12*
X118350000Y-106300000D03*
X113950000Y-106300000D03*
D15*
X110270000Y-108300000D03*
X107730000Y-108300000D03*
X110270000Y-101100000D03*
X107730000Y-101100000D03*
X110320000Y-112500000D03*
X107780000Y-112500000D03*
X110290000Y-96850000D03*
X107750000Y-96850000D03*
D12*
X111800000Y-91700000D03*
X107400000Y-91700000D03*
D17*
X107400000Y-93300000D03*
X111800000Y-93300000D03*
D12*
X111800000Y-94900000D03*
X107400000Y-94900000D03*
X111800000Y-79900000D03*
X107400000Y-79900000D03*
D17*
X107400000Y-81500000D03*
X111800000Y-81500000D03*
D12*
X111800000Y-83100000D03*
X107400000Y-83100000D03*
D15*
X110270000Y-85100000D03*
X107730000Y-85100000D03*
X110270000Y-77950000D03*
X107730000Y-77950000D03*
X110320000Y-89650000D03*
X107780000Y-89650000D03*
D12*
X131250000Y-79900000D03*
X126850000Y-79900000D03*
D17*
X126850000Y-81500000D03*
X131250000Y-81500000D03*
D12*
X131250000Y-83100000D03*
X126850000Y-83100000D03*
X137750000Y-79900000D03*
X133350000Y-79900000D03*
D17*
X133350000Y-81500000D03*
X137750000Y-81500000D03*
D12*
X137750000Y-83100000D03*
X133350000Y-83100000D03*
X137750000Y-91700000D03*
X133350000Y-91700000D03*
D17*
X133350000Y-93300000D03*
X137750000Y-93300000D03*
D12*
X137750000Y-94900000D03*
X133350000Y-94900000D03*
X131300000Y-91700000D03*
X126900000Y-91700000D03*
D17*
X126900000Y-93300000D03*
X131300000Y-93300000D03*
D12*
X131300000Y-94900000D03*
X126900000Y-94900000D03*
X131250000Y-114500000D03*
X126850000Y-114500000D03*
D17*
X126850000Y-116100000D03*
X131250000Y-116100000D03*
D12*
X131250000Y-117700000D03*
X126850000Y-117700000D03*
X131310000Y-103100000D03*
X126910000Y-103100000D03*
D17*
X126910000Y-104700000D03*
X131310000Y-104700000D03*
D12*
X131310000Y-106300000D03*
X126910000Y-106300000D03*
X124850000Y-103100000D03*
X120450000Y-103100000D03*
D17*
X120450000Y-104700000D03*
X124850000Y-104700000D03*
D12*
X124850000Y-106300000D03*
X120450000Y-106300000D03*
X137750000Y-114500000D03*
X133350000Y-114500000D03*
D17*
X133350000Y-116100000D03*
X137750000Y-116100000D03*
D12*
X137750000Y-117700000D03*
X133350000Y-117700000D03*
X137800000Y-103100000D03*
X133400000Y-103100000D03*
D17*
X133400000Y-104700000D03*
X137800000Y-104700000D03*
D12*
X137800000Y-106300000D03*
X133400000Y-106300000D03*
X124750000Y-114500000D03*
X120350000Y-114500000D03*
D17*
X120350000Y-116100000D03*
X124750000Y-116100000D03*
D12*
X124750000Y-117700000D03*
X120350000Y-117700000D03*
X144250000Y-79900000D03*
X139850000Y-79900000D03*
D17*
X139850000Y-81500000D03*
X144250000Y-81500000D03*
D12*
X144250000Y-83100000D03*
X139850000Y-83100000D03*
X150750000Y-79900000D03*
X146350000Y-79900000D03*
D17*
X146350000Y-81500000D03*
X150750000Y-81500000D03*
D12*
X150750000Y-83100000D03*
X146350000Y-83100000D03*
D15*
X150370000Y-85050000D03*
X147830000Y-85050000D03*
X150370000Y-77950000D03*
X147830000Y-77950000D03*
X150370000Y-96850000D03*
X147830000Y-96850000D03*
D12*
X144250000Y-91700000D03*
X139850000Y-91700000D03*
D17*
X139850000Y-93300000D03*
X144250000Y-93300000D03*
D12*
X144250000Y-94900000D03*
X139850000Y-94900000D03*
X150750000Y-91700000D03*
X146350000Y-91700000D03*
D17*
X146350000Y-93300000D03*
X150750000Y-93300000D03*
D12*
X150750000Y-94900000D03*
X146350000Y-94900000D03*
D15*
X150370000Y-89700000D03*
X147830000Y-89700000D03*
D12*
X124800000Y-91700000D03*
X120400000Y-91700000D03*
D17*
X120400000Y-93300000D03*
X124800000Y-93300000D03*
D12*
X124800000Y-94900000D03*
X120400000Y-94900000D03*
X118300000Y-91700000D03*
X113900000Y-91700000D03*
D17*
X113900000Y-93300000D03*
X118300000Y-93300000D03*
D12*
X118300000Y-94900000D03*
X113900000Y-94900000D03*
X118250000Y-79900000D03*
X113850000Y-79900000D03*
D17*
X113850000Y-81500000D03*
X118250000Y-81500000D03*
D12*
X118250000Y-83100000D03*
X113850000Y-83100000D03*
X124750000Y-79900000D03*
X120350000Y-79900000D03*
D17*
X120350000Y-81500000D03*
X124750000Y-81500000D03*
D12*
X124750000Y-83100000D03*
X120350000Y-83100000D03*
X144300000Y-103100000D03*
X139900000Y-103100000D03*
D17*
X139900000Y-104700000D03*
X144300000Y-104700000D03*
D12*
X144300000Y-106300000D03*
X139900000Y-106300000D03*
X150750000Y-103100000D03*
X146350000Y-103100000D03*
D17*
X146350000Y-104700000D03*
X150750000Y-104700000D03*
D12*
X150750000Y-106300000D03*
X146350000Y-106300000D03*
D15*
X150370000Y-101100000D03*
X147830000Y-101100000D03*
D12*
X150700000Y-114500000D03*
X146300000Y-114500000D03*
D17*
X146300000Y-116100000D03*
X150700000Y-116100000D03*
D12*
X150700000Y-117700000D03*
X146300000Y-117700000D03*
D15*
X150370000Y-108300000D03*
X147830000Y-108300000D03*
D12*
X144250000Y-114500000D03*
X139850000Y-114500000D03*
D17*
X139850000Y-116100000D03*
X144250000Y-116100000D03*
D12*
X144250000Y-117700000D03*
X139850000Y-117700000D03*
D15*
X150420000Y-119700000D03*
X147880000Y-119700000D03*
X150420000Y-112500000D03*
X147880000Y-112500000D03*
X124280000Y-149150000D03*
X126820000Y-149150000D03*
D12*
X154450000Y-153750000D03*
X154450000Y-149350000D03*
D13*
X152850000Y-149350000D03*
X152850000Y-153750000D03*
D12*
X151250000Y-153750000D03*
X151250000Y-149350000D03*
X122950000Y-147200000D03*
X127350000Y-147200000D03*
D17*
X127350000Y-145600000D03*
X122950000Y-145600000D03*
D12*
X122950000Y-144000000D03*
X127350000Y-144000000D03*
D15*
X149300000Y-166670000D03*
X149300000Y-164130000D03*
X156400000Y-166720000D03*
X156400000Y-164180000D03*
D12*
X154450000Y-167150000D03*
X154450000Y-162750000D03*
D13*
X152850000Y-162750000D03*
X152850000Y-167150000D03*
D12*
X151250000Y-167150000D03*
X151250000Y-162750000D03*
X154450000Y-160450000D03*
X154450000Y-156050000D03*
D13*
X152850000Y-156050000D03*
X152850000Y-160450000D03*
D12*
X151250000Y-160450000D03*
X151250000Y-156050000D03*
D15*
X124230000Y-142000000D03*
X126770000Y-142000000D03*
D12*
X144150000Y-147150000D03*
X148550000Y-147150000D03*
D17*
X148550000Y-145550000D03*
X144150000Y-145550000D03*
D12*
X144150000Y-143950000D03*
X148550000Y-143950000D03*
X151250000Y-137300000D03*
X151250000Y-141700000D03*
D13*
X152850000Y-141700000D03*
X152850000Y-137300000D03*
D12*
X154450000Y-137300000D03*
X154450000Y-141700000D03*
X150650000Y-147150000D03*
X155050000Y-147150000D03*
D17*
X155050000Y-145550000D03*
X150650000Y-145550000D03*
D12*
X150650000Y-143950000D03*
X155050000Y-143950000D03*
D15*
X131530000Y-149100000D03*
X134070000Y-149100000D03*
X131550000Y-141950000D03*
X134090000Y-141950000D03*
D12*
X131150000Y-147150000D03*
X135550000Y-147150000D03*
D17*
X135550000Y-145550000D03*
X131150000Y-145550000D03*
D12*
X131150000Y-143950000D03*
X135550000Y-143950000D03*
X137650000Y-147150000D03*
X142050000Y-147150000D03*
D17*
X142050000Y-145550000D03*
X137650000Y-145550000D03*
D12*
X137650000Y-143950000D03*
X142050000Y-143950000D03*
D15*
X174020000Y-149150000D03*
X171480000Y-149150000D03*
D12*
X168000000Y-143950000D03*
X163600000Y-143950000D03*
D17*
X163600000Y-145550000D03*
X168000000Y-145550000D03*
D12*
X168000000Y-147150000D03*
X163600000Y-147150000D03*
X174500000Y-143950000D03*
X170100000Y-143950000D03*
D17*
X170100000Y-145550000D03*
X174500000Y-145550000D03*
D12*
X174500000Y-147150000D03*
X170100000Y-147150000D03*
X161500000Y-143950000D03*
X157100000Y-143950000D03*
D17*
X157100000Y-145550000D03*
X161500000Y-145550000D03*
D12*
X161500000Y-147150000D03*
X157100000Y-147150000D03*
D15*
X174070000Y-142000000D03*
X171530000Y-142000000D03*
D12*
X151250000Y-123950000D03*
X151250000Y-128350000D03*
D13*
X152850000Y-128350000D03*
X152850000Y-123950000D03*
D12*
X154450000Y-123950000D03*
X154450000Y-128350000D03*
X151250000Y-130600000D03*
X151250000Y-135000000D03*
D13*
X152850000Y-135000000D03*
X152850000Y-130600000D03*
D12*
X154450000Y-130600000D03*
X154450000Y-135000000D03*
D15*
X156400000Y-124330000D03*
X156400000Y-126870000D03*
X149300000Y-124330000D03*
X149300000Y-126870000D03*
D24*
X111850000Y-135098000D03*
D25*
X111850000Y-141702000D03*
X114136000Y-141702000D03*
X109564000Y-141702000D03*
D26*
X93600000Y-148949240D03*
X91700000Y-148949240D03*
X92650000Y-150948220D03*
X118700000Y-149000240D03*
X116800000Y-149000240D03*
X117750000Y-150999220D03*
D11*
X107700000Y-120850000D03*
X108200000Y-120850000D03*
X109200000Y-120850000D03*
X108700000Y-120850000D03*
M02*
