G04 #@! TF.FileFunction,Soldermask,Top*
%FSLAX46Y46*%
G04 Gerber Fmt 4.6, Leading zero omitted, Abs format (unit mm)*
G04 Created by KiCad (PCBNEW 4.0.1-3.201512221401+6198~38~ubuntu15.10.1-stable) date Thu 21 Jan 2016 11:16:06 AM EST*
%MOMM*%
G01*
G04 APERTURE LIST*
%ADD10C,0.100000*%
%ADD11C,0.700000*%
%ADD12R,1.800000X1.800000*%
%ADD13R,1.700000X1.800000*%
%ADD14C,1.900000*%
%ADD15R,1.800000X1.700000*%
%ADD16R,1.200000X1.150000*%
%ADD17O,0.700000X1.250000*%
%ADD18O,1.250000X0.700000*%
%ADD19R,2.075000X2.075000*%
%ADD20R,1.150000X1.200000*%
%ADD21C,1.799540*%
%ADD22R,4.057600X2.432000*%
%ADD23R,1.416000X2.432000*%
%ADD24C,1.100000*%
%ADD25C,1.100000*%
G04 APERTURE END LIST*
D10*
D11*
X94800000Y-20450000D03*
X94800000Y-19950000D03*
X94800000Y-20950000D03*
X94800000Y-18950000D03*
X94800000Y-17950000D03*
X94800000Y-19450000D03*
X94800000Y-16950000D03*
X94800000Y-17450000D03*
X94800000Y-18450000D03*
X84800000Y-20450000D03*
X84800000Y-19950000D03*
X84800000Y-20950000D03*
X84800000Y-18950000D03*
X84800000Y-17950000D03*
X84800000Y-19450000D03*
X84800000Y-16950000D03*
X84800000Y-17450000D03*
X84800000Y-18450000D03*
X74800000Y-20450000D03*
X74800000Y-19950000D03*
X74800000Y-20950000D03*
X74800000Y-18950000D03*
X74800000Y-17950000D03*
X74800000Y-19450000D03*
X74800000Y-16950000D03*
X74800000Y-17450000D03*
X74800000Y-18450000D03*
X94800000Y-64350000D03*
X94800000Y-63850000D03*
X94800000Y-64850000D03*
X94800000Y-62850000D03*
X94800000Y-61850000D03*
X94800000Y-63350000D03*
X94800000Y-60850000D03*
X94800000Y-61350000D03*
X94800000Y-62350000D03*
X84800000Y-64350000D03*
X84800000Y-63850000D03*
X84800000Y-64850000D03*
X84800000Y-62850000D03*
X84800000Y-61850000D03*
X84800000Y-63350000D03*
X84800000Y-60850000D03*
X84800000Y-61350000D03*
X84800000Y-62350000D03*
X102800000Y-37400000D03*
X102800000Y-38400000D03*
X102800000Y-41400000D03*
X102800000Y-39900000D03*
X102800000Y-44400000D03*
X102800000Y-44900000D03*
X102800000Y-39400000D03*
X102800000Y-41900000D03*
X102800000Y-43400000D03*
X102800000Y-42900000D03*
X102800000Y-36900000D03*
X102800000Y-37900000D03*
X102800000Y-42400000D03*
X102800000Y-43900000D03*
X102800000Y-40900000D03*
X102800000Y-40400000D03*
X102800000Y-38900000D03*
X74800000Y-61350000D03*
X74800000Y-64350000D03*
X74800000Y-64850000D03*
X74800000Y-63350000D03*
X74800000Y-62850000D03*
X74800000Y-62350000D03*
X74800000Y-60850000D03*
X74800000Y-63850000D03*
X74800000Y-61850000D03*
D12*
X91400000Y-23860000D03*
X91400000Y-19460000D03*
D13*
X89800000Y-19460000D03*
X89800000Y-23860000D03*
D12*
X88200000Y-23860000D03*
X88200000Y-19460000D03*
D14*
X88460000Y-17100000D03*
X91000000Y-17100000D03*
X85920000Y-17100000D03*
X93540000Y-17100000D03*
D12*
X81400000Y-23860000D03*
X81400000Y-19460000D03*
D13*
X79800000Y-19460000D03*
X79800000Y-23860000D03*
D12*
X78200000Y-23860000D03*
X78200000Y-19460000D03*
D14*
X78620000Y-17050000D03*
X81160000Y-17050000D03*
X76080000Y-17050000D03*
X83700000Y-17050000D03*
D12*
X71400000Y-23850000D03*
X71400000Y-19450000D03*
D13*
X69800000Y-19450000D03*
X69800000Y-23850000D03*
D12*
X68200000Y-23850000D03*
X68200000Y-19450000D03*
X101400000Y-62850000D03*
X101400000Y-58450000D03*
D13*
X99800000Y-58450000D03*
X99800000Y-62850000D03*
D12*
X98200000Y-62850000D03*
X98200000Y-58450000D03*
D14*
X101040000Y-64700000D03*
X98500000Y-64700000D03*
X103580000Y-64700000D03*
X95960000Y-64700000D03*
D12*
X112850000Y-42500000D03*
X117250000Y-42500000D03*
D15*
X117250000Y-40900000D03*
X112850000Y-40900000D03*
D12*
X112850000Y-39300000D03*
X117250000Y-39300000D03*
X106150000Y-42500000D03*
X110550000Y-42500000D03*
D15*
X110550000Y-40900000D03*
X106150000Y-40900000D03*
D12*
X106150000Y-39300000D03*
X110550000Y-39300000D03*
D14*
X104050000Y-42190000D03*
X104050000Y-39650000D03*
X104050000Y-44730000D03*
X104050000Y-37110000D03*
D12*
X101400000Y-23850000D03*
X101400000Y-19450000D03*
D13*
X99800000Y-19450000D03*
X99800000Y-23850000D03*
D12*
X98200000Y-23850000D03*
X98200000Y-19450000D03*
X101400000Y-30250000D03*
X101400000Y-25850000D03*
D13*
X99800000Y-25850000D03*
X99800000Y-30250000D03*
D12*
X98200000Y-30250000D03*
X98200000Y-25850000D03*
D14*
X98500000Y-17100000D03*
X101040000Y-17100000D03*
X95960000Y-17100000D03*
X103580000Y-17100000D03*
D12*
X119550000Y-42500000D03*
X123950000Y-42500000D03*
D15*
X123950000Y-40900000D03*
X119550000Y-40900000D03*
D12*
X119550000Y-39300000D03*
X123950000Y-39300000D03*
X129400000Y-56300000D03*
X129400000Y-51900000D03*
D13*
X127800000Y-51900000D03*
X127800000Y-56300000D03*
D12*
X126200000Y-56300000D03*
X126200000Y-51900000D03*
X129400000Y-62810000D03*
X129400000Y-58410000D03*
D13*
X127800000Y-58410000D03*
X127800000Y-62810000D03*
D12*
X126200000Y-62810000D03*
X126200000Y-58410000D03*
X129400000Y-49800000D03*
X129400000Y-45400000D03*
D13*
X127800000Y-45400000D03*
X127800000Y-49800000D03*
D12*
X126200000Y-49800000D03*
X126200000Y-45400000D03*
D14*
X129090000Y-64700000D03*
X126550000Y-64700000D03*
X131630000Y-64700000D03*
X124010000Y-64700000D03*
D12*
X149350000Y-39300000D03*
X144950000Y-39300000D03*
D15*
X144950000Y-40900000D03*
X149350000Y-40900000D03*
D12*
X149350000Y-42500000D03*
X144950000Y-42500000D03*
X142650000Y-39300000D03*
X138250000Y-39300000D03*
D15*
X138250000Y-40900000D03*
X142650000Y-40900000D03*
D12*
X142650000Y-42500000D03*
X138250000Y-42500000D03*
X126200000Y-38960000D03*
X126200000Y-43360000D03*
D13*
X127800000Y-43360000D03*
X127800000Y-38960000D03*
D12*
X129400000Y-38960000D03*
X129400000Y-43360000D03*
X135950000Y-39300000D03*
X131550000Y-39300000D03*
D15*
X131550000Y-40900000D03*
X135950000Y-40900000D03*
D12*
X135950000Y-42500000D03*
X131550000Y-42500000D03*
D14*
X151500000Y-39630000D03*
X151500000Y-42170000D03*
X151500000Y-37090000D03*
X151500000Y-44710000D03*
D12*
X126200000Y-32460000D03*
X126200000Y-36860000D03*
D13*
X127800000Y-36860000D03*
X127800000Y-32460000D03*
D12*
X129400000Y-32460000D03*
X129400000Y-36860000D03*
X126200000Y-19460000D03*
X126200000Y-23860000D03*
D13*
X127800000Y-23860000D03*
X127800000Y-19460000D03*
D12*
X129400000Y-19460000D03*
X129400000Y-23860000D03*
X126200000Y-25960000D03*
X126200000Y-30360000D03*
D13*
X127800000Y-30360000D03*
X127800000Y-25960000D03*
D12*
X129400000Y-25960000D03*
X129400000Y-30360000D03*
D14*
X126550000Y-17050000D03*
X129090000Y-17050000D03*
X124010000Y-17050000D03*
X131630000Y-17050000D03*
D12*
X81400000Y-62950000D03*
X81400000Y-58550000D03*
D13*
X79800000Y-58550000D03*
X79800000Y-62950000D03*
D12*
X78200000Y-62950000D03*
X78200000Y-58550000D03*
X81400000Y-56450000D03*
X81400000Y-52050000D03*
D13*
X79800000Y-52050000D03*
X79800000Y-56450000D03*
D12*
X78200000Y-56450000D03*
X78200000Y-52050000D03*
D14*
X81110000Y-64700000D03*
X78570000Y-64700000D03*
X83650000Y-64700000D03*
X76030000Y-64700000D03*
D12*
X91400000Y-56460000D03*
X91400000Y-52060000D03*
D13*
X89800000Y-52060000D03*
X89800000Y-56460000D03*
D12*
X88200000Y-56460000D03*
X88200000Y-52060000D03*
X91400000Y-62960000D03*
X91400000Y-58560000D03*
D13*
X89800000Y-58560000D03*
X89800000Y-62960000D03*
D12*
X88200000Y-62960000D03*
X88200000Y-58560000D03*
D14*
X91040000Y-64700000D03*
X88500000Y-64700000D03*
X93580000Y-64700000D03*
X85960000Y-64700000D03*
D12*
X71400000Y-30350000D03*
X71400000Y-25950000D03*
D13*
X69800000Y-25950000D03*
X69800000Y-30350000D03*
D12*
X68200000Y-30350000D03*
X68200000Y-25950000D03*
X71400000Y-36850000D03*
X71400000Y-32450000D03*
D13*
X69800000Y-32450000D03*
X69800000Y-36850000D03*
D12*
X68200000Y-36850000D03*
X68200000Y-32450000D03*
D14*
X65500000Y-39650000D03*
X65500000Y-42190000D03*
X65500000Y-37110000D03*
X65500000Y-44730000D03*
D12*
X71400000Y-43350000D03*
X71400000Y-38950000D03*
D13*
X69800000Y-38950000D03*
X69800000Y-43350000D03*
D12*
X68200000Y-43350000D03*
X68200000Y-38950000D03*
X91400000Y-43360000D03*
X91400000Y-38960000D03*
D13*
X89800000Y-38960000D03*
X89800000Y-43360000D03*
D12*
X88200000Y-43360000D03*
X88200000Y-38960000D03*
X91400000Y-36860000D03*
X91400000Y-32460000D03*
D13*
X89800000Y-32460000D03*
X89800000Y-36860000D03*
D12*
X88200000Y-36860000D03*
X88200000Y-32460000D03*
X81400000Y-43450000D03*
X81400000Y-39050000D03*
D13*
X79800000Y-39050000D03*
X79800000Y-43450000D03*
D12*
X78200000Y-43450000D03*
X78200000Y-39050000D03*
X81400000Y-49950000D03*
X81400000Y-45550000D03*
D13*
X79800000Y-45550000D03*
X79800000Y-49950000D03*
D12*
X78200000Y-49950000D03*
X78200000Y-45550000D03*
X81400000Y-36960000D03*
X81400000Y-32560000D03*
D13*
X79800000Y-32560000D03*
X79800000Y-36960000D03*
D12*
X78200000Y-36960000D03*
X78200000Y-32560000D03*
X81400000Y-30460000D03*
X81400000Y-26060000D03*
D13*
X79800000Y-26060000D03*
X79800000Y-30460000D03*
D12*
X78200000Y-30460000D03*
X78200000Y-26060000D03*
X91400000Y-30360000D03*
X91400000Y-25960000D03*
D13*
X89800000Y-25960000D03*
X89800000Y-30360000D03*
D12*
X88200000Y-30360000D03*
X88200000Y-25960000D03*
X101400000Y-49860000D03*
X101400000Y-45460000D03*
D13*
X99800000Y-45460000D03*
X99800000Y-49860000D03*
D12*
X98200000Y-49860000D03*
X98200000Y-45460000D03*
X91400000Y-49960000D03*
X91400000Y-45560000D03*
D13*
X89800000Y-45560000D03*
X89800000Y-49960000D03*
D12*
X88200000Y-49960000D03*
X88200000Y-45560000D03*
X101400000Y-56350000D03*
X101400000Y-51950000D03*
D13*
X99800000Y-51950000D03*
X99800000Y-56350000D03*
D12*
X98200000Y-56350000D03*
X98200000Y-51950000D03*
X101400000Y-43250000D03*
X101400000Y-38850000D03*
D13*
X99800000Y-38850000D03*
X99800000Y-43250000D03*
D12*
X98200000Y-43250000D03*
X98200000Y-38850000D03*
X101400000Y-36750000D03*
X101400000Y-32350000D03*
D13*
X99800000Y-32350000D03*
X99800000Y-36750000D03*
D12*
X98200000Y-36750000D03*
X98200000Y-32350000D03*
X59050000Y-42610000D03*
X63450000Y-42610000D03*
D15*
X63450000Y-41010000D03*
X59050000Y-41010000D03*
D12*
X59050000Y-39410000D03*
X63450000Y-39410000D03*
X71400000Y-56350000D03*
X71400000Y-51950000D03*
D13*
X69800000Y-51950000D03*
X69800000Y-56350000D03*
D12*
X68200000Y-56350000D03*
X68200000Y-51950000D03*
X71400000Y-49850000D03*
X71400000Y-45450000D03*
D13*
X69800000Y-45450000D03*
X69800000Y-49850000D03*
D12*
X68200000Y-49850000D03*
X68200000Y-45450000D03*
X71400000Y-62850000D03*
X71400000Y-58450000D03*
D13*
X69800000Y-58450000D03*
X69800000Y-62850000D03*
D12*
X68200000Y-62850000D03*
X68200000Y-58450000D03*
D14*
X71020000Y-64700000D03*
X68480000Y-64700000D03*
X73560000Y-64700000D03*
X65940000Y-64700000D03*
X43070000Y-64700000D03*
X40530000Y-64700000D03*
X45610000Y-64700000D03*
X37990000Y-64700000D03*
D16*
X46600000Y-51710000D03*
X45100000Y-51710000D03*
D17*
X36200000Y-45650000D03*
X35700000Y-45650000D03*
X35200000Y-45650000D03*
X34700000Y-45650000D03*
X34200000Y-45650000D03*
X33700000Y-45650000D03*
X33200000Y-45650000D03*
D18*
X32250000Y-46600000D03*
X32250000Y-47100000D03*
X32250000Y-47600000D03*
X32250000Y-48100000D03*
X32250000Y-48600000D03*
X32250000Y-49100000D03*
X32250000Y-49600000D03*
D17*
X33200000Y-50550000D03*
X33700000Y-50550000D03*
X34200000Y-50550000D03*
X34700000Y-50550000D03*
X35200000Y-50550000D03*
X35700000Y-50550000D03*
X36200000Y-50550000D03*
D18*
X37150000Y-49600000D03*
X37150000Y-49100000D03*
X37150000Y-48600000D03*
X37150000Y-48100000D03*
X37150000Y-47600000D03*
X37150000Y-47100000D03*
X37150000Y-46600000D03*
D19*
X33862500Y-48937500D03*
X35537500Y-48937500D03*
X33862500Y-47262500D03*
X35537500Y-47262500D03*
D16*
X45100000Y-53410000D03*
X46600000Y-53410000D03*
D12*
X40050000Y-51810000D03*
X40050000Y-56210000D03*
D13*
X41650000Y-56210000D03*
X41650000Y-51810000D03*
D12*
X43250000Y-51810000D03*
X43250000Y-56210000D03*
X40050000Y-58210000D03*
X40050000Y-62610000D03*
D13*
X41650000Y-62610000D03*
X41650000Y-58210000D03*
D12*
X43250000Y-58210000D03*
X43250000Y-62610000D03*
X40050000Y-45210000D03*
X40050000Y-49610000D03*
D13*
X41650000Y-49610000D03*
X41650000Y-45210000D03*
D12*
X43250000Y-45210000D03*
X43250000Y-49610000D03*
D14*
X18050000Y-42170000D03*
X18050000Y-39630000D03*
X18050000Y-44710000D03*
X18050000Y-37090000D03*
D12*
X37450000Y-39410000D03*
X33050000Y-39410000D03*
D15*
X33050000Y-41010000D03*
X37450000Y-41010000D03*
D12*
X37450000Y-42610000D03*
X33050000Y-42610000D03*
X30950000Y-39410000D03*
X26550000Y-39410000D03*
D15*
X26550000Y-41010000D03*
X30950000Y-41010000D03*
D12*
X30950000Y-42610000D03*
X26550000Y-42610000D03*
D20*
X28930000Y-36090000D03*
X28930000Y-37590000D03*
D10*
G36*
X36073362Y-29580165D02*
X36920165Y-28733362D01*
X37766968Y-29580165D01*
X36920165Y-30426968D01*
X36073362Y-29580165D01*
X36073362Y-29580165D01*
G37*
G36*
X37133032Y-30639835D02*
X37979835Y-29793032D01*
X38826638Y-30639835D01*
X37979835Y-31486638D01*
X37133032Y-30639835D01*
X37133032Y-30639835D01*
G37*
D12*
X24450000Y-39410000D03*
X20050000Y-39410000D03*
D15*
X20050000Y-41010000D03*
X24450000Y-41010000D03*
D12*
X24450000Y-42610000D03*
X20050000Y-42610000D03*
D20*
X30750000Y-37590000D03*
X30750000Y-36090000D03*
D21*
X37512717Y-32981933D03*
X33795909Y-37046694D03*
X34680867Y-30150083D03*
X30790083Y-34040867D03*
D20*
X55360000Y-37470000D03*
X55360000Y-35970000D03*
X53460000Y-37530000D03*
X53460000Y-36030000D03*
D12*
X45950000Y-42610000D03*
X50350000Y-42610000D03*
D15*
X50350000Y-41010000D03*
X45950000Y-41010000D03*
D12*
X45950000Y-39410000D03*
X50350000Y-39410000D03*
X52550000Y-42610000D03*
X56950000Y-42610000D03*
D15*
X56950000Y-41010000D03*
X52550000Y-41010000D03*
D12*
X52550000Y-39410000D03*
X56950000Y-39410000D03*
D21*
X45987283Y-49138067D03*
X49704091Y-45073306D03*
X48819133Y-51969917D03*
X52709917Y-48079133D03*
D22*
X48150000Y-30308000D03*
D23*
X48150000Y-36912000D03*
X50436000Y-36912000D03*
X45864000Y-36912000D03*
D12*
X43250000Y-36710000D03*
X43250000Y-32310000D03*
D13*
X41650000Y-32310000D03*
X41650000Y-36710000D03*
D12*
X40050000Y-36710000D03*
X40050000Y-32310000D03*
X43250000Y-23510000D03*
X43250000Y-19110000D03*
D13*
X41650000Y-19110000D03*
X41650000Y-23510000D03*
D12*
X40050000Y-23510000D03*
X40050000Y-19110000D03*
X43250000Y-30010000D03*
X43250000Y-25610000D03*
D13*
X41650000Y-25610000D03*
X41650000Y-30010000D03*
D12*
X40050000Y-30010000D03*
X40050000Y-25610000D03*
D14*
X40650000Y-17050000D03*
X43190000Y-17050000D03*
X38110000Y-17050000D03*
X45730000Y-17050000D03*
X68480000Y-17050000D03*
X71020000Y-17050000D03*
X65940000Y-17050000D03*
X73560000Y-17050000D03*
D24*
X43998186Y-38246559D02*
X44351740Y-38600113D01*
X38942373Y-43302373D02*
X39295927Y-43655927D01*
D25*
X40533717Y-41750627D03*
X41476644Y-40807700D03*
X42374669Y-39909675D03*
X41523313Y-41782093D03*
X42460229Y-40880532D03*
D11*
X66800000Y-36750000D03*
X66800000Y-37250000D03*
X66800000Y-37750000D03*
X66800000Y-38250000D03*
X66800000Y-38750000D03*
X66800000Y-39250000D03*
X66800000Y-39750000D03*
X66800000Y-40250000D03*
X66800000Y-40750000D03*
X66800000Y-41250000D03*
X66800000Y-41750000D03*
X66800000Y-42250000D03*
X66800000Y-42750000D03*
X66800000Y-43250000D03*
X66800000Y-43750000D03*
X66800000Y-44250000D03*
X66800000Y-44750000D03*
M02*
