G04 #@! TF.FileFunction,Soldermask,Bot*
%FSLAX46Y46*%
G04 Gerber Fmt 4.6, Leading zero omitted, Abs format (unit mm)*
G04 Created by KiCad (PCBNEW 4.0.2-4+6225~38~ubuntu15.10.1-stable) date Sun 06 Mar 2016 02:01:02 PM EST*
%MOMM*%
G01*
G04 APERTURE LIST*
%ADD10C,0.100000*%
%ADD11C,0.700000*%
%ADD12C,1.900000*%
%ADD13C,1.100000*%
%ADD14C,1.100000*%
%ADD15R,1.200000X1.150000*%
%ADD16R,0.900000X1.300000*%
%ADD17C,1.500000*%
G04 APERTURE END LIST*
D10*
D11*
X130050000Y-145650000D03*
X130050000Y-145150000D03*
X130050000Y-146150000D03*
X128450000Y-145650000D03*
X128450000Y-145150000D03*
X128450000Y-146150000D03*
X109900000Y-111350000D03*
X108700000Y-111350000D03*
X109300000Y-111350000D03*
X109850000Y-109450000D03*
X108650000Y-109450000D03*
X109250000Y-109450000D03*
X109850000Y-99950000D03*
X108650000Y-99950000D03*
X109250000Y-99950000D03*
X109900000Y-98050000D03*
X108700000Y-98050000D03*
X109300000Y-98050000D03*
X109850000Y-88550000D03*
X108650000Y-88550000D03*
X109250000Y-88550000D03*
X109850000Y-86250000D03*
X108650000Y-86250000D03*
X109250000Y-86250000D03*
X149500000Y-86200000D03*
X148300000Y-86200000D03*
X148900000Y-86200000D03*
X149450000Y-88500000D03*
X148250000Y-88500000D03*
X148850000Y-88500000D03*
X149450000Y-98000000D03*
X148250000Y-98000000D03*
X148850000Y-98000000D03*
X149450000Y-99950000D03*
X148250000Y-99950000D03*
X148850000Y-99950000D03*
X149500000Y-109450000D03*
X148300000Y-109450000D03*
X148900000Y-109450000D03*
X149600000Y-120900000D03*
X150150000Y-120900000D03*
X149100000Y-120900000D03*
X150700000Y-120900000D03*
X149050000Y-122900000D03*
X150100000Y-122900000D03*
X149550000Y-122900000D03*
X150650000Y-122900000D03*
X108700000Y-120800000D03*
X109250000Y-120800000D03*
X108150000Y-120800000D03*
X107650000Y-120800000D03*
D12*
X102100000Y-126820000D03*
X102100000Y-124280000D03*
X109250000Y-126820000D03*
X109250000Y-124280000D03*
X109300000Y-164110000D03*
X109300000Y-166650000D03*
X102100000Y-164080000D03*
X102100000Y-166620000D03*
X87020000Y-149150000D03*
X84480000Y-149150000D03*
X87020000Y-142050000D03*
X84480000Y-142050000D03*
D13*
X107864186Y-142895559D02*
X108217740Y-143249113D01*
X102808373Y-147951373D02*
X103161927Y-148304927D01*
D14*
X104399717Y-146399627D03*
X105342644Y-145456700D03*
X106240669Y-144558675D03*
X105389313Y-146431093D03*
X106326229Y-145529532D03*
D12*
X110320000Y-119700000D03*
X107780000Y-119700000D03*
X110270000Y-108300000D03*
X107730000Y-108300000D03*
X110270000Y-101100000D03*
X107730000Y-101100000D03*
X110320000Y-112500000D03*
X107780000Y-112500000D03*
X110290000Y-96850000D03*
X107750000Y-96850000D03*
X110270000Y-85100000D03*
X107730000Y-85100000D03*
X110270000Y-77950000D03*
X107730000Y-77950000D03*
X110320000Y-89650000D03*
X107780000Y-89650000D03*
X150370000Y-85050000D03*
X147830000Y-85050000D03*
X150370000Y-77950000D03*
X147830000Y-77950000D03*
X150370000Y-96850000D03*
X147830000Y-96850000D03*
X150370000Y-89700000D03*
X147830000Y-89700000D03*
X150370000Y-101100000D03*
X147830000Y-101100000D03*
X150370000Y-108300000D03*
X147830000Y-108300000D03*
X150420000Y-119700000D03*
X147880000Y-119700000D03*
X150420000Y-112500000D03*
X147880000Y-112500000D03*
X124280000Y-149150000D03*
X126820000Y-149150000D03*
X149300000Y-166670000D03*
X149300000Y-164130000D03*
X156400000Y-166720000D03*
X156400000Y-164180000D03*
X124230000Y-142000000D03*
X126770000Y-142000000D03*
X131530000Y-149100000D03*
X134070000Y-149100000D03*
X131550000Y-141950000D03*
X134090000Y-141950000D03*
X174020000Y-149150000D03*
X171480000Y-149150000D03*
X174070000Y-142000000D03*
X171530000Y-142000000D03*
D15*
X115100000Y-139710000D03*
X116600000Y-139710000D03*
X108250000Y-132150000D03*
X109750000Y-132150000D03*
D16*
X106900000Y-129450000D03*
X105400000Y-129450000D03*
X112000000Y-134600000D03*
X110500000Y-134600000D03*
X112600000Y-137100000D03*
X114100000Y-137100000D03*
D17*
X112846302Y-145646800D02*
X111927064Y-144727562D01*
X111432088Y-147061014D02*
X110512850Y-146141776D01*
X110017874Y-148475227D02*
X109098636Y-147555989D01*
X108603661Y-149889441D02*
X107684423Y-148970203D01*
X107189447Y-151303654D02*
X106270209Y-150384416D01*
X105775234Y-152717868D02*
X104855996Y-151798630D01*
D10*
G36*
X103823619Y-130415720D02*
X104884280Y-131476381D01*
X102904381Y-133456280D01*
X101843720Y-132395619D01*
X103823619Y-130415720D01*
X103823619Y-130415720D01*
G37*
D17*
X105237833Y-132890595D02*
X104318595Y-133809833D01*
X106652046Y-134304808D02*
X105732808Y-135224046D01*
X108066260Y-135719022D02*
X107147022Y-136638260D01*
X109480473Y-137133235D02*
X108561235Y-138052473D01*
X110894687Y-138547449D02*
X109975449Y-139466687D01*
X112308900Y-139961662D02*
X111389662Y-140880900D01*
X113723114Y-141375876D02*
X112803876Y-142295114D01*
X102409405Y-152689584D02*
X101490167Y-153608822D01*
X100995192Y-151275371D02*
X100075954Y-152194609D01*
X99580978Y-149861157D02*
X98661740Y-150780395D01*
X98166765Y-148446944D02*
X97247527Y-149366182D01*
X96752551Y-147032730D02*
X95833313Y-147951968D01*
X95338338Y-145618517D02*
X94419100Y-146537755D01*
X93924124Y-144204303D02*
X93004886Y-145123541D01*
X92509911Y-142790089D02*
X91590673Y-143709327D01*
D16*
X90100000Y-147600000D03*
X91600000Y-147600000D03*
X93150000Y-149700000D03*
X91650000Y-149700000D03*
X104750000Y-128000000D03*
X106250000Y-128000000D03*
X100400000Y-156610000D03*
X101900000Y-156610000D03*
X94900000Y-151850000D03*
X93400000Y-151850000D03*
X111750000Y-152700000D03*
X113250000Y-152700000D03*
D12*
X156400000Y-124330000D03*
X156400000Y-126870000D03*
X149300000Y-124330000D03*
X149300000Y-126870000D03*
D11*
X109250000Y-122950000D03*
X108700000Y-122950000D03*
X108150000Y-122950000D03*
X107650000Y-122950000D03*
X149500000Y-111400000D03*
X148900000Y-111400000D03*
X148300000Y-111400000D03*
M02*
