G04 #@! TF.FileFunction,Legend,Top*
%FSLAX46Y46*%
G04 Gerber Fmt 4.6, Leading zero omitted, Abs format (unit mm)*
G04 Created by KiCad (PCBNEW 4.0.1-3.201512221401+6198~38~ubuntu15.10.1-stable) date Thu 21 Jan 2016 11:16:06 AM EST*
%MOMM*%
G01*
G04 APERTURE LIST*
%ADD10C,0.100000*%
%ADD11C,0.150000*%
%ADD12C,0.099060*%
G04 APERTURE END LIST*
D10*
X95816667Y-63683332D02*
X95116667Y-63683332D01*
X95116667Y-63516666D01*
X95150000Y-63416666D01*
X95216667Y-63349999D01*
X95283333Y-63316666D01*
X95416667Y-63283332D01*
X95516667Y-63283332D01*
X95650000Y-63316666D01*
X95716667Y-63349999D01*
X95783333Y-63416666D01*
X95816667Y-63516666D01*
X95816667Y-63683332D01*
X95883333Y-63149999D02*
X95883333Y-62616666D01*
X95816667Y-62449999D02*
X95116667Y-62449999D01*
X95816667Y-62116666D02*
X95116667Y-62116666D01*
X95816667Y-61716666D01*
X95116667Y-61716666D01*
X97150000Y-63266666D02*
X97183333Y-63300000D01*
X97216667Y-63400000D01*
X97216667Y-63466666D01*
X97183333Y-63566666D01*
X97116667Y-63633333D01*
X97050000Y-63666666D01*
X96916667Y-63700000D01*
X96816667Y-63700000D01*
X96683333Y-63666666D01*
X96616667Y-63633333D01*
X96550000Y-63566666D01*
X96516667Y-63466666D01*
X96516667Y-63400000D01*
X96550000Y-63300000D01*
X96583333Y-63266666D01*
X97216667Y-62633333D02*
X97216667Y-62966666D01*
X96516667Y-62966666D01*
X97216667Y-62399999D02*
X96516667Y-62399999D01*
X97216667Y-61999999D02*
X96816667Y-62299999D01*
X96516667Y-61999999D02*
X96916667Y-62399999D01*
X97283333Y-61866666D02*
X97283333Y-61333333D01*
X97216667Y-61166666D02*
X96516667Y-61166666D01*
X97216667Y-60833333D02*
X96516667Y-60833333D01*
X97216667Y-60433333D01*
X96516667Y-60433333D01*
X93750000Y-63383333D02*
X93716667Y-63449999D01*
X93716667Y-63549999D01*
X93750000Y-63649999D01*
X93816667Y-63716666D01*
X93883333Y-63749999D01*
X94016667Y-63783333D01*
X94116667Y-63783333D01*
X94250000Y-63749999D01*
X94316667Y-63716666D01*
X94383333Y-63649999D01*
X94416667Y-63549999D01*
X94416667Y-63483333D01*
X94383333Y-63383333D01*
X94350000Y-63349999D01*
X94116667Y-63349999D01*
X94116667Y-63483333D01*
X94416667Y-63049999D02*
X93716667Y-63049999D01*
X94416667Y-62649999D01*
X93716667Y-62649999D01*
X94416667Y-62316666D02*
X93716667Y-62316666D01*
X93716667Y-62150000D01*
X93750000Y-62050000D01*
X93816667Y-61983333D01*
X93883333Y-61950000D01*
X94016667Y-61916666D01*
X94116667Y-61916666D01*
X94250000Y-61950000D01*
X94316667Y-61983333D01*
X94383333Y-62050000D01*
X94416667Y-62150000D01*
X94416667Y-62316666D01*
X102566667Y-63833333D02*
X103266667Y-63600000D01*
X102566667Y-63366667D01*
X103200000Y-62733333D02*
X103233333Y-62766667D01*
X103266667Y-62866667D01*
X103266667Y-62933333D01*
X103233333Y-63033333D01*
X103166667Y-63100000D01*
X103100000Y-63133333D01*
X102966667Y-63166667D01*
X102866667Y-63166667D01*
X102733333Y-63133333D01*
X102666667Y-63100000D01*
X102600000Y-63033333D01*
X102566667Y-62933333D01*
X102566667Y-62866667D01*
X102600000Y-62766667D01*
X102633333Y-62733333D01*
X103200000Y-62033333D02*
X103233333Y-62066667D01*
X103266667Y-62166667D01*
X103266667Y-62233333D01*
X103233333Y-62333333D01*
X103166667Y-62400000D01*
X103100000Y-62433333D01*
X102966667Y-62466667D01*
X102866667Y-62466667D01*
X102733333Y-62433333D01*
X102666667Y-62400000D01*
X102600000Y-62333333D01*
X102566667Y-62233333D01*
X102566667Y-62166667D01*
X102600000Y-62066667D01*
X102633333Y-62033333D01*
X103750000Y-63383333D02*
X103716667Y-63449999D01*
X103716667Y-63549999D01*
X103750000Y-63649999D01*
X103816667Y-63716666D01*
X103883333Y-63749999D01*
X104016667Y-63783333D01*
X104116667Y-63783333D01*
X104250000Y-63749999D01*
X104316667Y-63716666D01*
X104383333Y-63649999D01*
X104416667Y-63549999D01*
X104416667Y-63483333D01*
X104383333Y-63383333D01*
X104350000Y-63349999D01*
X104116667Y-63349999D01*
X104116667Y-63483333D01*
X104416667Y-63049999D02*
X103716667Y-63049999D01*
X104416667Y-62649999D01*
X103716667Y-62649999D01*
X104416667Y-62316666D02*
X103716667Y-62316666D01*
X103716667Y-62150000D01*
X103750000Y-62050000D01*
X103816667Y-61983333D01*
X103883333Y-61950000D01*
X104016667Y-61916666D01*
X104116667Y-61916666D01*
X104250000Y-61950000D01*
X104316667Y-61983333D01*
X104383333Y-62050000D01*
X104416667Y-62150000D01*
X104416667Y-62316666D01*
X93700000Y-19683333D02*
X93666667Y-19749999D01*
X93666667Y-19849999D01*
X93700000Y-19949999D01*
X93766667Y-20016666D01*
X93833333Y-20049999D01*
X93966667Y-20083333D01*
X94066667Y-20083333D01*
X94200000Y-20049999D01*
X94266667Y-20016666D01*
X94333333Y-19949999D01*
X94366667Y-19849999D01*
X94366667Y-19783333D01*
X94333333Y-19683333D01*
X94300000Y-19649999D01*
X94066667Y-19649999D01*
X94066667Y-19783333D01*
X94366667Y-19349999D02*
X93666667Y-19349999D01*
X94366667Y-18949999D01*
X93666667Y-18949999D01*
X94366667Y-18616666D02*
X93666667Y-18616666D01*
X93666667Y-18450000D01*
X93700000Y-18350000D01*
X93766667Y-18283333D01*
X93833333Y-18250000D01*
X93966667Y-18216666D01*
X94066667Y-18216666D01*
X94200000Y-18250000D01*
X94266667Y-18283333D01*
X94333333Y-18350000D01*
X94366667Y-18450000D01*
X94366667Y-18616666D01*
X95816667Y-21109999D02*
X95116667Y-21109999D01*
X95116667Y-20943333D01*
X95150000Y-20843333D01*
X95216667Y-20776666D01*
X95283333Y-20743333D01*
X95416667Y-20709999D01*
X95516667Y-20709999D01*
X95650000Y-20743333D01*
X95716667Y-20776666D01*
X95783333Y-20843333D01*
X95816667Y-20943333D01*
X95816667Y-21109999D01*
X95883333Y-20576666D02*
X95883333Y-20043333D01*
X95116667Y-19743333D02*
X95116667Y-19610000D01*
X95150000Y-19543333D01*
X95216667Y-19476666D01*
X95350000Y-19443333D01*
X95583333Y-19443333D01*
X95716667Y-19476666D01*
X95783333Y-19543333D01*
X95816667Y-19610000D01*
X95816667Y-19743333D01*
X95783333Y-19810000D01*
X95716667Y-19876666D01*
X95583333Y-19910000D01*
X95350000Y-19910000D01*
X95216667Y-19876666D01*
X95150000Y-19810000D01*
X95116667Y-19743333D01*
X95116667Y-19143333D02*
X95683333Y-19143333D01*
X95750000Y-19110000D01*
X95783333Y-19076667D01*
X95816667Y-19010000D01*
X95816667Y-18876667D01*
X95783333Y-18810000D01*
X95750000Y-18776667D01*
X95683333Y-18743333D01*
X95116667Y-18743333D01*
X95116667Y-18510000D02*
X95116667Y-18110000D01*
X95816667Y-18310000D02*
X95116667Y-18310000D01*
X92466667Y-20083333D02*
X93166667Y-19850000D01*
X92466667Y-19616667D01*
X93100000Y-18983333D02*
X93133333Y-19016667D01*
X93166667Y-19116667D01*
X93166667Y-19183333D01*
X93133333Y-19283333D01*
X93066667Y-19350000D01*
X93000000Y-19383333D01*
X92866667Y-19416667D01*
X92766667Y-19416667D01*
X92633333Y-19383333D01*
X92566667Y-19350000D01*
X92500000Y-19283333D01*
X92466667Y-19183333D01*
X92466667Y-19116667D01*
X92500000Y-19016667D01*
X92533333Y-18983333D01*
X93100000Y-18283333D02*
X93133333Y-18316667D01*
X93166667Y-18416667D01*
X93166667Y-18483333D01*
X93133333Y-18583333D01*
X93066667Y-18650000D01*
X93000000Y-18683333D01*
X92866667Y-18716667D01*
X92766667Y-18716667D01*
X92633333Y-18683333D01*
X92566667Y-18650000D01*
X92500000Y-18583333D01*
X92466667Y-18483333D01*
X92466667Y-18416667D01*
X92500000Y-18316667D01*
X92533333Y-18283333D01*
X102616667Y-20193333D02*
X103316667Y-19960000D01*
X102616667Y-19726667D01*
X103250000Y-19093333D02*
X103283333Y-19126667D01*
X103316667Y-19226667D01*
X103316667Y-19293333D01*
X103283333Y-19393333D01*
X103216667Y-19460000D01*
X103150000Y-19493333D01*
X103016667Y-19526667D01*
X102916667Y-19526667D01*
X102783333Y-19493333D01*
X102716667Y-19460000D01*
X102650000Y-19393333D01*
X102616667Y-19293333D01*
X102616667Y-19226667D01*
X102650000Y-19126667D01*
X102683333Y-19093333D01*
X103250000Y-18393333D02*
X103283333Y-18426667D01*
X103316667Y-18526667D01*
X103316667Y-18593333D01*
X103283333Y-18693333D01*
X103216667Y-18760000D01*
X103150000Y-18793333D01*
X103016667Y-18826667D01*
X102916667Y-18826667D01*
X102783333Y-18793333D01*
X102716667Y-18760000D01*
X102650000Y-18693333D01*
X102616667Y-18593333D01*
X102616667Y-18526667D01*
X102650000Y-18426667D01*
X102683333Y-18393333D01*
X103750000Y-19793333D02*
X103716667Y-19859999D01*
X103716667Y-19959999D01*
X103750000Y-20059999D01*
X103816667Y-20126666D01*
X103883333Y-20159999D01*
X104016667Y-20193333D01*
X104116667Y-20193333D01*
X104250000Y-20159999D01*
X104316667Y-20126666D01*
X104383333Y-20059999D01*
X104416667Y-19959999D01*
X104416667Y-19893333D01*
X104383333Y-19793333D01*
X104350000Y-19759999D01*
X104116667Y-19759999D01*
X104116667Y-19893333D01*
X104416667Y-19459999D02*
X103716667Y-19459999D01*
X104416667Y-19059999D01*
X103716667Y-19059999D01*
X104416667Y-18726666D02*
X103716667Y-18726666D01*
X103716667Y-18560000D01*
X103750000Y-18460000D01*
X103816667Y-18393333D01*
X103883333Y-18360000D01*
X104016667Y-18326666D01*
X104116667Y-18326666D01*
X104250000Y-18360000D01*
X104316667Y-18393333D01*
X104383333Y-18460000D01*
X104416667Y-18560000D01*
X104416667Y-18726666D01*
X97150000Y-21943332D02*
X97183333Y-21976666D01*
X97216667Y-22076666D01*
X97216667Y-22143332D01*
X97183333Y-22243332D01*
X97116667Y-22309999D01*
X97050000Y-22343332D01*
X96916667Y-22376666D01*
X96816667Y-22376666D01*
X96683333Y-22343332D01*
X96616667Y-22309999D01*
X96550000Y-22243332D01*
X96516667Y-22143332D01*
X96516667Y-22076666D01*
X96550000Y-21976666D01*
X96583333Y-21943332D01*
X97216667Y-21309999D02*
X97216667Y-21643332D01*
X96516667Y-21643332D01*
X97216667Y-21076665D02*
X96516667Y-21076665D01*
X97216667Y-20676665D02*
X96816667Y-20976665D01*
X96516667Y-20676665D02*
X96916667Y-21076665D01*
X97283333Y-20543332D02*
X97283333Y-20009999D01*
X96516667Y-19709999D02*
X96516667Y-19576666D01*
X96550000Y-19509999D01*
X96616667Y-19443332D01*
X96750000Y-19409999D01*
X96983333Y-19409999D01*
X97116667Y-19443332D01*
X97183333Y-19509999D01*
X97216667Y-19576666D01*
X97216667Y-19709999D01*
X97183333Y-19776666D01*
X97116667Y-19843332D01*
X96983333Y-19876666D01*
X96750000Y-19876666D01*
X96616667Y-19843332D01*
X96550000Y-19776666D01*
X96516667Y-19709999D01*
X96516667Y-19109999D02*
X97083333Y-19109999D01*
X97150000Y-19076666D01*
X97183333Y-19043333D01*
X97216667Y-18976666D01*
X97216667Y-18843333D01*
X97183333Y-18776666D01*
X97150000Y-18743333D01*
X97083333Y-18709999D01*
X96516667Y-18709999D01*
X96516667Y-18476666D02*
X96516667Y-18076666D01*
X97216667Y-18276666D02*
X96516667Y-18276666D01*
X82616667Y-63733333D02*
X83316667Y-63500000D01*
X82616667Y-63266667D01*
X83250000Y-62633333D02*
X83283333Y-62666667D01*
X83316667Y-62766667D01*
X83316667Y-62833333D01*
X83283333Y-62933333D01*
X83216667Y-63000000D01*
X83150000Y-63033333D01*
X83016667Y-63066667D01*
X82916667Y-63066667D01*
X82783333Y-63033333D01*
X82716667Y-63000000D01*
X82650000Y-62933333D01*
X82616667Y-62833333D01*
X82616667Y-62766667D01*
X82650000Y-62666667D01*
X82683333Y-62633333D01*
X83250000Y-61933333D02*
X83283333Y-61966667D01*
X83316667Y-62066667D01*
X83316667Y-62133333D01*
X83283333Y-62233333D01*
X83216667Y-62300000D01*
X83150000Y-62333333D01*
X83016667Y-62366667D01*
X82916667Y-62366667D01*
X82783333Y-62333333D01*
X82716667Y-62300000D01*
X82650000Y-62233333D01*
X82616667Y-62133333D01*
X82616667Y-62066667D01*
X82650000Y-61966667D01*
X82683333Y-61933333D01*
X83850000Y-63383333D02*
X83816667Y-63449999D01*
X83816667Y-63549999D01*
X83850000Y-63649999D01*
X83916667Y-63716666D01*
X83983333Y-63749999D01*
X84116667Y-63783333D01*
X84216667Y-63783333D01*
X84350000Y-63749999D01*
X84416667Y-63716666D01*
X84483333Y-63649999D01*
X84516667Y-63549999D01*
X84516667Y-63483333D01*
X84483333Y-63383333D01*
X84450000Y-63349999D01*
X84216667Y-63349999D01*
X84216667Y-63483333D01*
X84516667Y-63049999D02*
X83816667Y-63049999D01*
X84516667Y-62649999D01*
X83816667Y-62649999D01*
X84516667Y-62316666D02*
X83816667Y-62316666D01*
X83816667Y-62150000D01*
X83850000Y-62050000D01*
X83916667Y-61983333D01*
X83983333Y-61950000D01*
X84116667Y-61916666D01*
X84216667Y-61916666D01*
X84350000Y-61950000D01*
X84416667Y-61983333D01*
X84483333Y-62050000D01*
X84516667Y-62150000D01*
X84516667Y-62316666D01*
X85816667Y-63683332D02*
X85116667Y-63683332D01*
X85116667Y-63516666D01*
X85150000Y-63416666D01*
X85216667Y-63349999D01*
X85283333Y-63316666D01*
X85416667Y-63283332D01*
X85516667Y-63283332D01*
X85650000Y-63316666D01*
X85716667Y-63349999D01*
X85783333Y-63416666D01*
X85816667Y-63516666D01*
X85816667Y-63683332D01*
X85883333Y-63149999D02*
X85883333Y-62616666D01*
X85816667Y-62449999D02*
X85116667Y-62449999D01*
X85816667Y-62116666D02*
X85116667Y-62116666D01*
X85816667Y-61716666D01*
X85116667Y-61716666D01*
X87050000Y-63266666D02*
X87083333Y-63300000D01*
X87116667Y-63400000D01*
X87116667Y-63466666D01*
X87083333Y-63566666D01*
X87016667Y-63633333D01*
X86950000Y-63666666D01*
X86816667Y-63700000D01*
X86716667Y-63700000D01*
X86583333Y-63666666D01*
X86516667Y-63633333D01*
X86450000Y-63566666D01*
X86416667Y-63466666D01*
X86416667Y-63400000D01*
X86450000Y-63300000D01*
X86483333Y-63266666D01*
X87116667Y-62633333D02*
X87116667Y-62966666D01*
X86416667Y-62966666D01*
X87116667Y-62399999D02*
X86416667Y-62399999D01*
X87116667Y-61999999D02*
X86716667Y-62299999D01*
X86416667Y-61999999D02*
X86816667Y-62399999D01*
X87183333Y-61866666D02*
X87183333Y-61333333D01*
X87116667Y-61166666D02*
X86416667Y-61166666D01*
X87116667Y-60833333D02*
X86416667Y-60833333D01*
X87116667Y-60433333D01*
X86416667Y-60433333D01*
X92416667Y-63833333D02*
X93116667Y-63600000D01*
X92416667Y-63366667D01*
X93050000Y-62733333D02*
X93083333Y-62766667D01*
X93116667Y-62866667D01*
X93116667Y-62933333D01*
X93083333Y-63033333D01*
X93016667Y-63100000D01*
X92950000Y-63133333D01*
X92816667Y-63166667D01*
X92716667Y-63166667D01*
X92583333Y-63133333D01*
X92516667Y-63100000D01*
X92450000Y-63033333D01*
X92416667Y-62933333D01*
X92416667Y-62866667D01*
X92450000Y-62766667D01*
X92483333Y-62733333D01*
X93050000Y-62033333D02*
X93083333Y-62066667D01*
X93116667Y-62166667D01*
X93116667Y-62233333D01*
X93083333Y-62333333D01*
X93016667Y-62400000D01*
X92950000Y-62433333D01*
X92816667Y-62466667D01*
X92716667Y-62466667D01*
X92583333Y-62433333D01*
X92516667Y-62400000D01*
X92450000Y-62333333D01*
X92416667Y-62233333D01*
X92416667Y-62166667D01*
X92450000Y-62066667D01*
X92483333Y-62033333D01*
X85866667Y-21199999D02*
X85166667Y-21199999D01*
X85166667Y-21033333D01*
X85200000Y-20933333D01*
X85266667Y-20866666D01*
X85333333Y-20833333D01*
X85466667Y-20799999D01*
X85566667Y-20799999D01*
X85700000Y-20833333D01*
X85766667Y-20866666D01*
X85833333Y-20933333D01*
X85866667Y-21033333D01*
X85866667Y-21199999D01*
X85933333Y-20666666D02*
X85933333Y-20133333D01*
X85166667Y-19833333D02*
X85166667Y-19700000D01*
X85200000Y-19633333D01*
X85266667Y-19566666D01*
X85400000Y-19533333D01*
X85633333Y-19533333D01*
X85766667Y-19566666D01*
X85833333Y-19633333D01*
X85866667Y-19700000D01*
X85866667Y-19833333D01*
X85833333Y-19900000D01*
X85766667Y-19966666D01*
X85633333Y-20000000D01*
X85400000Y-20000000D01*
X85266667Y-19966666D01*
X85200000Y-19900000D01*
X85166667Y-19833333D01*
X85166667Y-19233333D02*
X85733333Y-19233333D01*
X85800000Y-19200000D01*
X85833333Y-19166667D01*
X85866667Y-19100000D01*
X85866667Y-18966667D01*
X85833333Y-18900000D01*
X85800000Y-18866667D01*
X85733333Y-18833333D01*
X85166667Y-18833333D01*
X85166667Y-18600000D02*
X85166667Y-18200000D01*
X85866667Y-18400000D02*
X85166667Y-18400000D01*
X87050000Y-22033332D02*
X87083333Y-22066666D01*
X87116667Y-22166666D01*
X87116667Y-22233332D01*
X87083333Y-22333332D01*
X87016667Y-22399999D01*
X86950000Y-22433332D01*
X86816667Y-22466666D01*
X86716667Y-22466666D01*
X86583333Y-22433332D01*
X86516667Y-22399999D01*
X86450000Y-22333332D01*
X86416667Y-22233332D01*
X86416667Y-22166666D01*
X86450000Y-22066666D01*
X86483333Y-22033332D01*
X87116667Y-21399999D02*
X87116667Y-21733332D01*
X86416667Y-21733332D01*
X87116667Y-21166665D02*
X86416667Y-21166665D01*
X87116667Y-20766665D02*
X86716667Y-21066665D01*
X86416667Y-20766665D02*
X86816667Y-21166665D01*
X87183333Y-20633332D02*
X87183333Y-20099999D01*
X86416667Y-19799999D02*
X86416667Y-19666666D01*
X86450000Y-19599999D01*
X86516667Y-19533332D01*
X86650000Y-19499999D01*
X86883333Y-19499999D01*
X87016667Y-19533332D01*
X87083333Y-19599999D01*
X87116667Y-19666666D01*
X87116667Y-19799999D01*
X87083333Y-19866666D01*
X87016667Y-19933332D01*
X86883333Y-19966666D01*
X86650000Y-19966666D01*
X86516667Y-19933332D01*
X86450000Y-19866666D01*
X86416667Y-19799999D01*
X86416667Y-19199999D02*
X86983333Y-19199999D01*
X87050000Y-19166666D01*
X87083333Y-19133333D01*
X87116667Y-19066666D01*
X87116667Y-18933333D01*
X87083333Y-18866666D01*
X87050000Y-18833333D01*
X86983333Y-18799999D01*
X86416667Y-18799999D01*
X86416667Y-18566666D02*
X86416667Y-18166666D01*
X87116667Y-18366666D02*
X86416667Y-18366666D01*
X82616667Y-19983333D02*
X83316667Y-19750000D01*
X82616667Y-19516667D01*
X83250000Y-18883333D02*
X83283333Y-18916667D01*
X83316667Y-19016667D01*
X83316667Y-19083333D01*
X83283333Y-19183333D01*
X83216667Y-19250000D01*
X83150000Y-19283333D01*
X83016667Y-19316667D01*
X82916667Y-19316667D01*
X82783333Y-19283333D01*
X82716667Y-19250000D01*
X82650000Y-19183333D01*
X82616667Y-19083333D01*
X82616667Y-19016667D01*
X82650000Y-18916667D01*
X82683333Y-18883333D01*
X83250000Y-18183333D02*
X83283333Y-18216667D01*
X83316667Y-18316667D01*
X83316667Y-18383333D01*
X83283333Y-18483333D01*
X83216667Y-18550000D01*
X83150000Y-18583333D01*
X83016667Y-18616667D01*
X82916667Y-18616667D01*
X82783333Y-18583333D01*
X82716667Y-18550000D01*
X82650000Y-18483333D01*
X82616667Y-18383333D01*
X82616667Y-18316667D01*
X82650000Y-18216667D01*
X82683333Y-18183333D01*
X83750000Y-19633333D02*
X83716667Y-19699999D01*
X83716667Y-19799999D01*
X83750000Y-19899999D01*
X83816667Y-19966666D01*
X83883333Y-19999999D01*
X84016667Y-20033333D01*
X84116667Y-20033333D01*
X84250000Y-19999999D01*
X84316667Y-19966666D01*
X84383333Y-19899999D01*
X84416667Y-19799999D01*
X84416667Y-19733333D01*
X84383333Y-19633333D01*
X84350000Y-19599999D01*
X84116667Y-19599999D01*
X84116667Y-19733333D01*
X84416667Y-19299999D02*
X83716667Y-19299999D01*
X84416667Y-18899999D01*
X83716667Y-18899999D01*
X84416667Y-18566666D02*
X83716667Y-18566666D01*
X83716667Y-18400000D01*
X83750000Y-18300000D01*
X83816667Y-18233333D01*
X83883333Y-18200000D01*
X84016667Y-18166666D01*
X84116667Y-18166666D01*
X84250000Y-18200000D01*
X84316667Y-18233333D01*
X84383333Y-18300000D01*
X84416667Y-18400000D01*
X84416667Y-18566666D01*
X75816667Y-63683332D02*
X75116667Y-63683332D01*
X75116667Y-63516666D01*
X75150000Y-63416666D01*
X75216667Y-63349999D01*
X75283333Y-63316666D01*
X75416667Y-63283332D01*
X75516667Y-63283332D01*
X75650000Y-63316666D01*
X75716667Y-63349999D01*
X75783333Y-63416666D01*
X75816667Y-63516666D01*
X75816667Y-63683332D01*
X75883333Y-63149999D02*
X75883333Y-62616666D01*
X75816667Y-62449999D02*
X75116667Y-62449999D01*
X75816667Y-62116666D02*
X75116667Y-62116666D01*
X75816667Y-61716666D01*
X75116667Y-61716666D01*
X77250000Y-63316666D02*
X77283333Y-63350000D01*
X77316667Y-63450000D01*
X77316667Y-63516666D01*
X77283333Y-63616666D01*
X77216667Y-63683333D01*
X77150000Y-63716666D01*
X77016667Y-63750000D01*
X76916667Y-63750000D01*
X76783333Y-63716666D01*
X76716667Y-63683333D01*
X76650000Y-63616666D01*
X76616667Y-63516666D01*
X76616667Y-63450000D01*
X76650000Y-63350000D01*
X76683333Y-63316666D01*
X77316667Y-62683333D02*
X77316667Y-63016666D01*
X76616667Y-63016666D01*
X77316667Y-62449999D02*
X76616667Y-62449999D01*
X77316667Y-62049999D02*
X76916667Y-62349999D01*
X76616667Y-62049999D02*
X77016667Y-62449999D01*
X77383333Y-61916666D02*
X77383333Y-61383333D01*
X77316667Y-61216666D02*
X76616667Y-61216666D01*
X77316667Y-60883333D02*
X76616667Y-60883333D01*
X77316667Y-60483333D01*
X76616667Y-60483333D01*
X72616667Y-63783333D02*
X73316667Y-63550000D01*
X72616667Y-63316667D01*
X73250000Y-62683333D02*
X73283333Y-62716667D01*
X73316667Y-62816667D01*
X73316667Y-62883333D01*
X73283333Y-62983333D01*
X73216667Y-63050000D01*
X73150000Y-63083333D01*
X73016667Y-63116667D01*
X72916667Y-63116667D01*
X72783333Y-63083333D01*
X72716667Y-63050000D01*
X72650000Y-62983333D01*
X72616667Y-62883333D01*
X72616667Y-62816667D01*
X72650000Y-62716667D01*
X72683333Y-62683333D01*
X73250000Y-61983333D02*
X73283333Y-62016667D01*
X73316667Y-62116667D01*
X73316667Y-62183333D01*
X73283333Y-62283333D01*
X73216667Y-62350000D01*
X73150000Y-62383333D01*
X73016667Y-62416667D01*
X72916667Y-62416667D01*
X72783333Y-62383333D01*
X72716667Y-62350000D01*
X72650000Y-62283333D01*
X72616667Y-62183333D01*
X72616667Y-62116667D01*
X72650000Y-62016667D01*
X72683333Y-61983333D01*
X73750000Y-63383333D02*
X73716667Y-63449999D01*
X73716667Y-63549999D01*
X73750000Y-63649999D01*
X73816667Y-63716666D01*
X73883333Y-63749999D01*
X74016667Y-63783333D01*
X74116667Y-63783333D01*
X74250000Y-63749999D01*
X74316667Y-63716666D01*
X74383333Y-63649999D01*
X74416667Y-63549999D01*
X74416667Y-63483333D01*
X74383333Y-63383333D01*
X74350000Y-63349999D01*
X74116667Y-63349999D01*
X74116667Y-63483333D01*
X74416667Y-63049999D02*
X73716667Y-63049999D01*
X74416667Y-62649999D01*
X73716667Y-62649999D01*
X74416667Y-62316666D02*
X73716667Y-62316666D01*
X73716667Y-62150000D01*
X73750000Y-62050000D01*
X73816667Y-61983333D01*
X73883333Y-61950000D01*
X74016667Y-61916666D01*
X74116667Y-61916666D01*
X74250000Y-61950000D01*
X74316667Y-61983333D01*
X74383333Y-62050000D01*
X74416667Y-62150000D01*
X74416667Y-62316666D01*
X67250000Y-63366666D02*
X67283333Y-63400000D01*
X67316667Y-63500000D01*
X67316667Y-63566666D01*
X67283333Y-63666666D01*
X67216667Y-63733333D01*
X67150000Y-63766666D01*
X67016667Y-63800000D01*
X66916667Y-63800000D01*
X66783333Y-63766666D01*
X66716667Y-63733333D01*
X66650000Y-63666666D01*
X66616667Y-63566666D01*
X66616667Y-63500000D01*
X66650000Y-63400000D01*
X66683333Y-63366666D01*
X67316667Y-62733333D02*
X67316667Y-63066666D01*
X66616667Y-63066666D01*
X67316667Y-62499999D02*
X66616667Y-62499999D01*
X67316667Y-62099999D02*
X66916667Y-62399999D01*
X66616667Y-62099999D02*
X67016667Y-62499999D01*
X67383333Y-61966666D02*
X67383333Y-61433333D01*
X67316667Y-61266666D02*
X66616667Y-61266666D01*
X67316667Y-60933333D02*
X66616667Y-60933333D01*
X67316667Y-60533333D01*
X66616667Y-60533333D01*
X65916667Y-63733332D02*
X65216667Y-63733332D01*
X65216667Y-63566666D01*
X65250000Y-63466666D01*
X65316667Y-63399999D01*
X65383333Y-63366666D01*
X65516667Y-63333332D01*
X65616667Y-63333332D01*
X65750000Y-63366666D01*
X65816667Y-63399999D01*
X65883333Y-63466666D01*
X65916667Y-63566666D01*
X65916667Y-63733332D01*
X65983333Y-63199999D02*
X65983333Y-62666666D01*
X65916667Y-62499999D02*
X65216667Y-62499999D01*
X65916667Y-62166666D02*
X65216667Y-62166666D01*
X65916667Y-61766666D01*
X65216667Y-61766666D01*
X75866667Y-21049999D02*
X75166667Y-21049999D01*
X75166667Y-20883333D01*
X75200000Y-20783333D01*
X75266667Y-20716666D01*
X75333333Y-20683333D01*
X75466667Y-20649999D01*
X75566667Y-20649999D01*
X75700000Y-20683333D01*
X75766667Y-20716666D01*
X75833333Y-20783333D01*
X75866667Y-20883333D01*
X75866667Y-21049999D01*
X75933333Y-20516666D02*
X75933333Y-19983333D01*
X75166667Y-19683333D02*
X75166667Y-19550000D01*
X75200000Y-19483333D01*
X75266667Y-19416666D01*
X75400000Y-19383333D01*
X75633333Y-19383333D01*
X75766667Y-19416666D01*
X75833333Y-19483333D01*
X75866667Y-19550000D01*
X75866667Y-19683333D01*
X75833333Y-19750000D01*
X75766667Y-19816666D01*
X75633333Y-19850000D01*
X75400000Y-19850000D01*
X75266667Y-19816666D01*
X75200000Y-19750000D01*
X75166667Y-19683333D01*
X75166667Y-19083333D02*
X75733333Y-19083333D01*
X75800000Y-19050000D01*
X75833333Y-19016667D01*
X75866667Y-18950000D01*
X75866667Y-18816667D01*
X75833333Y-18750000D01*
X75800000Y-18716667D01*
X75733333Y-18683333D01*
X75166667Y-18683333D01*
X75166667Y-18450000D02*
X75166667Y-18050000D01*
X75866667Y-18250000D02*
X75166667Y-18250000D01*
X72566667Y-19883333D02*
X73266667Y-19650000D01*
X72566667Y-19416667D01*
X73200000Y-18783333D02*
X73233333Y-18816667D01*
X73266667Y-18916667D01*
X73266667Y-18983333D01*
X73233333Y-19083333D01*
X73166667Y-19150000D01*
X73100000Y-19183333D01*
X72966667Y-19216667D01*
X72866667Y-19216667D01*
X72733333Y-19183333D01*
X72666667Y-19150000D01*
X72600000Y-19083333D01*
X72566667Y-18983333D01*
X72566667Y-18916667D01*
X72600000Y-18816667D01*
X72633333Y-18783333D01*
X73200000Y-18083333D02*
X73233333Y-18116667D01*
X73266667Y-18216667D01*
X73266667Y-18283333D01*
X73233333Y-18383333D01*
X73166667Y-18450000D01*
X73100000Y-18483333D01*
X72966667Y-18516667D01*
X72866667Y-18516667D01*
X72733333Y-18483333D01*
X72666667Y-18450000D01*
X72600000Y-18383333D01*
X72566667Y-18283333D01*
X72566667Y-18216667D01*
X72600000Y-18116667D01*
X72633333Y-18083333D01*
X73850000Y-19533333D02*
X73816667Y-19599999D01*
X73816667Y-19699999D01*
X73850000Y-19799999D01*
X73916667Y-19866666D01*
X73983333Y-19899999D01*
X74116667Y-19933333D01*
X74216667Y-19933333D01*
X74350000Y-19899999D01*
X74416667Y-19866666D01*
X74483333Y-19799999D01*
X74516667Y-19699999D01*
X74516667Y-19633333D01*
X74483333Y-19533333D01*
X74450000Y-19499999D01*
X74216667Y-19499999D01*
X74216667Y-19633333D01*
X74516667Y-19199999D02*
X73816667Y-19199999D01*
X74516667Y-18799999D01*
X73816667Y-18799999D01*
X74516667Y-18466666D02*
X73816667Y-18466666D01*
X73816667Y-18300000D01*
X73850000Y-18200000D01*
X73916667Y-18133333D01*
X73983333Y-18100000D01*
X74116667Y-18066666D01*
X74216667Y-18066666D01*
X74350000Y-18100000D01*
X74416667Y-18133333D01*
X74483333Y-18200000D01*
X74516667Y-18300000D01*
X74516667Y-18466666D01*
X65916667Y-21109999D02*
X65216667Y-21109999D01*
X65216667Y-20943333D01*
X65250000Y-20843333D01*
X65316667Y-20776666D01*
X65383333Y-20743333D01*
X65516667Y-20709999D01*
X65616667Y-20709999D01*
X65750000Y-20743333D01*
X65816667Y-20776666D01*
X65883333Y-20843333D01*
X65916667Y-20943333D01*
X65916667Y-21109999D01*
X65983333Y-20576666D02*
X65983333Y-20043333D01*
X65216667Y-19743333D02*
X65216667Y-19610000D01*
X65250000Y-19543333D01*
X65316667Y-19476666D01*
X65450000Y-19443333D01*
X65683333Y-19443333D01*
X65816667Y-19476666D01*
X65883333Y-19543333D01*
X65916667Y-19610000D01*
X65916667Y-19743333D01*
X65883333Y-19810000D01*
X65816667Y-19876666D01*
X65683333Y-19910000D01*
X65450000Y-19910000D01*
X65316667Y-19876666D01*
X65250000Y-19810000D01*
X65216667Y-19743333D01*
X65216667Y-19143333D02*
X65783333Y-19143333D01*
X65850000Y-19110000D01*
X65883333Y-19076667D01*
X65916667Y-19010000D01*
X65916667Y-18876667D01*
X65883333Y-18810000D01*
X65850000Y-18776667D01*
X65783333Y-18743333D01*
X65216667Y-18743333D01*
X65216667Y-18510000D02*
X65216667Y-18110000D01*
X65916667Y-18310000D02*
X65216667Y-18310000D01*
X67250000Y-21933332D02*
X67283333Y-21966666D01*
X67316667Y-22066666D01*
X67316667Y-22133332D01*
X67283333Y-22233332D01*
X67216667Y-22299999D01*
X67150000Y-22333332D01*
X67016667Y-22366666D01*
X66916667Y-22366666D01*
X66783333Y-22333332D01*
X66716667Y-22299999D01*
X66650000Y-22233332D01*
X66616667Y-22133332D01*
X66616667Y-22066666D01*
X66650000Y-21966666D01*
X66683333Y-21933332D01*
X67316667Y-21299999D02*
X67316667Y-21633332D01*
X66616667Y-21633332D01*
X67316667Y-21066665D02*
X66616667Y-21066665D01*
X67316667Y-20666665D02*
X66916667Y-20966665D01*
X66616667Y-20666665D02*
X67016667Y-21066665D01*
X67383333Y-20533332D02*
X67383333Y-19999999D01*
X66616667Y-19699999D02*
X66616667Y-19566666D01*
X66650000Y-19499999D01*
X66716667Y-19433332D01*
X66850000Y-19399999D01*
X67083333Y-19399999D01*
X67216667Y-19433332D01*
X67283333Y-19499999D01*
X67316667Y-19566666D01*
X67316667Y-19699999D01*
X67283333Y-19766666D01*
X67216667Y-19833332D01*
X67083333Y-19866666D01*
X66850000Y-19866666D01*
X66716667Y-19833332D01*
X66650000Y-19766666D01*
X66616667Y-19699999D01*
X66616667Y-19099999D02*
X67183333Y-19099999D01*
X67250000Y-19066666D01*
X67283333Y-19033333D01*
X67316667Y-18966666D01*
X67316667Y-18833333D01*
X67283333Y-18766666D01*
X67250000Y-18733333D01*
X67183333Y-18699999D01*
X66616667Y-18699999D01*
X66616667Y-18466666D02*
X66616667Y-18066666D01*
X67316667Y-18266666D02*
X66616667Y-18266666D01*
X77250000Y-21883332D02*
X77283333Y-21916666D01*
X77316667Y-22016666D01*
X77316667Y-22083332D01*
X77283333Y-22183332D01*
X77216667Y-22249999D01*
X77150000Y-22283332D01*
X77016667Y-22316666D01*
X76916667Y-22316666D01*
X76783333Y-22283332D01*
X76716667Y-22249999D01*
X76650000Y-22183332D01*
X76616667Y-22083332D01*
X76616667Y-22016666D01*
X76650000Y-21916666D01*
X76683333Y-21883332D01*
X77316667Y-21249999D02*
X77316667Y-21583332D01*
X76616667Y-21583332D01*
X77316667Y-21016665D02*
X76616667Y-21016665D01*
X77316667Y-20616665D02*
X76916667Y-20916665D01*
X76616667Y-20616665D02*
X77016667Y-21016665D01*
X77383333Y-20483332D02*
X77383333Y-19949999D01*
X76616667Y-19649999D02*
X76616667Y-19516666D01*
X76650000Y-19449999D01*
X76716667Y-19383332D01*
X76850000Y-19349999D01*
X77083333Y-19349999D01*
X77216667Y-19383332D01*
X77283333Y-19449999D01*
X77316667Y-19516666D01*
X77316667Y-19649999D01*
X77283333Y-19716666D01*
X77216667Y-19783332D01*
X77083333Y-19816666D01*
X76850000Y-19816666D01*
X76716667Y-19783332D01*
X76650000Y-19716666D01*
X76616667Y-19649999D01*
X76616667Y-19049999D02*
X77183333Y-19049999D01*
X77250000Y-19016666D01*
X77283333Y-18983333D01*
X77316667Y-18916666D01*
X77316667Y-18783333D01*
X77283333Y-18716666D01*
X77250000Y-18683333D01*
X77183333Y-18649999D01*
X76616667Y-18649999D01*
X76616667Y-18416666D02*
X76616667Y-18016666D01*
X77316667Y-18216666D02*
X76616667Y-18216666D01*
X37816667Y-21049999D02*
X37116667Y-21049999D01*
X37116667Y-20883333D01*
X37150000Y-20783333D01*
X37216667Y-20716666D01*
X37283333Y-20683333D01*
X37416667Y-20649999D01*
X37516667Y-20649999D01*
X37650000Y-20683333D01*
X37716667Y-20716666D01*
X37783333Y-20783333D01*
X37816667Y-20883333D01*
X37816667Y-21049999D01*
X37883333Y-20516666D02*
X37883333Y-19983333D01*
X37116667Y-19683333D02*
X37116667Y-19550000D01*
X37150000Y-19483333D01*
X37216667Y-19416666D01*
X37350000Y-19383333D01*
X37583333Y-19383333D01*
X37716667Y-19416666D01*
X37783333Y-19483333D01*
X37816667Y-19550000D01*
X37816667Y-19683333D01*
X37783333Y-19750000D01*
X37716667Y-19816666D01*
X37583333Y-19850000D01*
X37350000Y-19850000D01*
X37216667Y-19816666D01*
X37150000Y-19750000D01*
X37116667Y-19683333D01*
X37116667Y-19083333D02*
X37683333Y-19083333D01*
X37750000Y-19050000D01*
X37783333Y-19016667D01*
X37816667Y-18950000D01*
X37816667Y-18816667D01*
X37783333Y-18750000D01*
X37750000Y-18716667D01*
X37683333Y-18683333D01*
X37116667Y-18683333D01*
X37116667Y-18450000D02*
X37116667Y-18050000D01*
X37816667Y-18250000D02*
X37116667Y-18250000D01*
X38900000Y-21883332D02*
X38933333Y-21916666D01*
X38966667Y-22016666D01*
X38966667Y-22083332D01*
X38933333Y-22183332D01*
X38866667Y-22249999D01*
X38800000Y-22283332D01*
X38666667Y-22316666D01*
X38566667Y-22316666D01*
X38433333Y-22283332D01*
X38366667Y-22249999D01*
X38300000Y-22183332D01*
X38266667Y-22083332D01*
X38266667Y-22016666D01*
X38300000Y-21916666D01*
X38333333Y-21883332D01*
X38966667Y-21249999D02*
X38966667Y-21583332D01*
X38266667Y-21583332D01*
X38966667Y-21016665D02*
X38266667Y-21016665D01*
X38966667Y-20616665D02*
X38566667Y-20916665D01*
X38266667Y-20616665D02*
X38666667Y-21016665D01*
X39033333Y-20483332D02*
X39033333Y-19949999D01*
X38266667Y-19649999D02*
X38266667Y-19516666D01*
X38300000Y-19449999D01*
X38366667Y-19383332D01*
X38500000Y-19349999D01*
X38733333Y-19349999D01*
X38866667Y-19383332D01*
X38933333Y-19449999D01*
X38966667Y-19516666D01*
X38966667Y-19649999D01*
X38933333Y-19716666D01*
X38866667Y-19783332D01*
X38733333Y-19816666D01*
X38500000Y-19816666D01*
X38366667Y-19783332D01*
X38300000Y-19716666D01*
X38266667Y-19649999D01*
X38266667Y-19049999D02*
X38833333Y-19049999D01*
X38900000Y-19016666D01*
X38933333Y-18983333D01*
X38966667Y-18916666D01*
X38966667Y-18783333D01*
X38933333Y-18716666D01*
X38900000Y-18683333D01*
X38833333Y-18649999D01*
X38266667Y-18649999D01*
X38266667Y-18416666D02*
X38266667Y-18016666D01*
X38966667Y-18216666D02*
X38266667Y-18216666D01*
X44416667Y-20033333D02*
X45116667Y-19800000D01*
X44416667Y-19566667D01*
X45050000Y-18933333D02*
X45083333Y-18966667D01*
X45116667Y-19066667D01*
X45116667Y-19133333D01*
X45083333Y-19233333D01*
X45016667Y-19300000D01*
X44950000Y-19333333D01*
X44816667Y-19366667D01*
X44716667Y-19366667D01*
X44583333Y-19333333D01*
X44516667Y-19300000D01*
X44450000Y-19233333D01*
X44416667Y-19133333D01*
X44416667Y-19066667D01*
X44450000Y-18966667D01*
X44483333Y-18933333D01*
X45050000Y-18233333D02*
X45083333Y-18266667D01*
X45116667Y-18366667D01*
X45116667Y-18433333D01*
X45083333Y-18533333D01*
X45016667Y-18600000D01*
X44950000Y-18633333D01*
X44816667Y-18666667D01*
X44716667Y-18666667D01*
X44583333Y-18633333D01*
X44516667Y-18600000D01*
X44450000Y-18533333D01*
X44416667Y-18433333D01*
X44416667Y-18366667D01*
X44450000Y-18266667D01*
X44483333Y-18233333D01*
X45900000Y-19633333D02*
X45866667Y-19699999D01*
X45866667Y-19799999D01*
X45900000Y-19899999D01*
X45966667Y-19966666D01*
X46033333Y-19999999D01*
X46166667Y-20033333D01*
X46266667Y-20033333D01*
X46400000Y-19999999D01*
X46466667Y-19966666D01*
X46533333Y-19899999D01*
X46566667Y-19799999D01*
X46566667Y-19733333D01*
X46533333Y-19633333D01*
X46500000Y-19599999D01*
X46266667Y-19599999D01*
X46266667Y-19733333D01*
X46566667Y-19299999D02*
X45866667Y-19299999D01*
X46566667Y-18899999D01*
X45866667Y-18899999D01*
X46566667Y-18566666D02*
X45866667Y-18566666D01*
X45866667Y-18400000D01*
X45900000Y-18300000D01*
X45966667Y-18233333D01*
X46033333Y-18200000D01*
X46166667Y-18166666D01*
X46266667Y-18166666D01*
X46400000Y-18200000D01*
X46466667Y-18233333D01*
X46533333Y-18300000D01*
X46566667Y-18400000D01*
X46566667Y-18566666D01*
X62916667Y-45000000D02*
X62850001Y-44966667D01*
X62750001Y-44966667D01*
X62650001Y-45000000D01*
X62583334Y-45066667D01*
X62550001Y-45133333D01*
X62516667Y-45266667D01*
X62516667Y-45366667D01*
X62550001Y-45500000D01*
X62583334Y-45566667D01*
X62650001Y-45633333D01*
X62750001Y-45666667D01*
X62816667Y-45666667D01*
X62916667Y-45633333D01*
X62950001Y-45600000D01*
X62950001Y-45366667D01*
X62816667Y-45366667D01*
X63250001Y-45666667D02*
X63250001Y-44966667D01*
X63650001Y-45666667D01*
X63650001Y-44966667D01*
X63983334Y-45666667D02*
X63983334Y-44966667D01*
X64150000Y-44966667D01*
X64250000Y-45000000D01*
X64316667Y-45066667D01*
X64350000Y-45133333D01*
X64383334Y-45266667D01*
X64383334Y-45366667D01*
X64350000Y-45500000D01*
X64316667Y-45566667D01*
X64250000Y-45633333D01*
X64150000Y-45666667D01*
X63983334Y-45666667D01*
X62566667Y-43816667D02*
X62800000Y-44516667D01*
X63033333Y-43816667D01*
X63666667Y-44450000D02*
X63633333Y-44483333D01*
X63533333Y-44516667D01*
X63466667Y-44516667D01*
X63366667Y-44483333D01*
X63300000Y-44416667D01*
X63266667Y-44350000D01*
X63233333Y-44216667D01*
X63233333Y-44116667D01*
X63266667Y-43983333D01*
X63300000Y-43916667D01*
X63366667Y-43850000D01*
X63466667Y-43816667D01*
X63533333Y-43816667D01*
X63633333Y-43850000D01*
X63666667Y-43883333D01*
X64366667Y-44450000D02*
X64333333Y-44483333D01*
X64233333Y-44516667D01*
X64166667Y-44516667D01*
X64066667Y-44483333D01*
X64000000Y-44416667D01*
X63966667Y-44350000D01*
X63933333Y-44216667D01*
X63933333Y-44116667D01*
X63966667Y-43983333D01*
X64000000Y-43916667D01*
X64066667Y-43850000D01*
X64166667Y-43816667D01*
X64233333Y-43816667D01*
X64333333Y-43850000D01*
X64366667Y-43883333D01*
X60616668Y-38350000D02*
X60583334Y-38383333D01*
X60483334Y-38416667D01*
X60416668Y-38416667D01*
X60316668Y-38383333D01*
X60250001Y-38316667D01*
X60216668Y-38250000D01*
X60183334Y-38116667D01*
X60183334Y-38016667D01*
X60216668Y-37883333D01*
X60250001Y-37816667D01*
X60316668Y-37750000D01*
X60416668Y-37716667D01*
X60483334Y-37716667D01*
X60583334Y-37750000D01*
X60616668Y-37783333D01*
X61250001Y-38416667D02*
X60916668Y-38416667D01*
X60916668Y-37716667D01*
X61483335Y-38416667D02*
X61483335Y-37716667D01*
X61883335Y-38416667D02*
X61583335Y-38016667D01*
X61883335Y-37716667D02*
X61483335Y-38116667D01*
X62016668Y-38483333D02*
X62550001Y-38483333D01*
X62850001Y-37716667D02*
X62983334Y-37716667D01*
X63050001Y-37750000D01*
X63116668Y-37816667D01*
X63150001Y-37950000D01*
X63150001Y-38183333D01*
X63116668Y-38316667D01*
X63050001Y-38383333D01*
X62983334Y-38416667D01*
X62850001Y-38416667D01*
X62783334Y-38383333D01*
X62716668Y-38316667D01*
X62683334Y-38183333D01*
X62683334Y-37950000D01*
X62716668Y-37816667D01*
X62783334Y-37750000D01*
X62850001Y-37716667D01*
X63450001Y-37716667D02*
X63450001Y-38283333D01*
X63483334Y-38350000D01*
X63516667Y-38383333D01*
X63583334Y-38416667D01*
X63716667Y-38416667D01*
X63783334Y-38383333D01*
X63816667Y-38350000D01*
X63850001Y-38283333D01*
X63850001Y-37716667D01*
X64083334Y-37716667D02*
X64483334Y-37716667D01*
X64283334Y-38416667D02*
X64283334Y-37716667D01*
X61450001Y-37066667D02*
X61450001Y-36366667D01*
X61616667Y-36366667D01*
X61716667Y-36400000D01*
X61783334Y-36466667D01*
X61816667Y-36533333D01*
X61850001Y-36666667D01*
X61850001Y-36766667D01*
X61816667Y-36900000D01*
X61783334Y-36966667D01*
X61716667Y-37033333D01*
X61616667Y-37066667D01*
X61450001Y-37066667D01*
X61983334Y-37133333D02*
X62516667Y-37133333D01*
X62816667Y-36366667D02*
X62950000Y-36366667D01*
X63016667Y-36400000D01*
X63083334Y-36466667D01*
X63116667Y-36600000D01*
X63116667Y-36833333D01*
X63083334Y-36966667D01*
X63016667Y-37033333D01*
X62950000Y-37066667D01*
X62816667Y-37066667D01*
X62750000Y-37033333D01*
X62683334Y-36966667D01*
X62650000Y-36833333D01*
X62650000Y-36600000D01*
X62683334Y-36466667D01*
X62750000Y-36400000D01*
X62816667Y-36366667D01*
X63416667Y-36366667D02*
X63416667Y-36933333D01*
X63450000Y-37000000D01*
X63483333Y-37033333D01*
X63550000Y-37066667D01*
X63683333Y-37066667D01*
X63750000Y-37033333D01*
X63783333Y-37000000D01*
X63816667Y-36933333D01*
X63816667Y-36366667D01*
X64050000Y-36366667D02*
X64450000Y-36366667D01*
X64250000Y-37066667D02*
X64250000Y-36366667D01*
X22933332Y-43700000D02*
X22966666Y-43666667D01*
X23066666Y-43633333D01*
X23133332Y-43633333D01*
X23233332Y-43666667D01*
X23299999Y-43733333D01*
X23333332Y-43800000D01*
X23366666Y-43933333D01*
X23366666Y-44033333D01*
X23333332Y-44166667D01*
X23299999Y-44233333D01*
X23233332Y-44300000D01*
X23133332Y-44333333D01*
X23066666Y-44333333D01*
X22966666Y-44300000D01*
X22933332Y-44266667D01*
X22299999Y-43633333D02*
X22633332Y-43633333D01*
X22633332Y-44333333D01*
X22066665Y-43633333D02*
X22066665Y-44333333D01*
X21666665Y-43633333D02*
X21966665Y-44033333D01*
X21666665Y-44333333D02*
X22066665Y-43933333D01*
X21533332Y-43566667D02*
X20999999Y-43566667D01*
X20699999Y-44333333D02*
X20566666Y-44333333D01*
X20499999Y-44300000D01*
X20433332Y-44233333D01*
X20399999Y-44100000D01*
X20399999Y-43866667D01*
X20433332Y-43733333D01*
X20499999Y-43666667D01*
X20566666Y-43633333D01*
X20699999Y-43633333D01*
X20766666Y-43666667D01*
X20833332Y-43733333D01*
X20866666Y-43866667D01*
X20866666Y-44100000D01*
X20833332Y-44233333D01*
X20766666Y-44300000D01*
X20699999Y-44333333D01*
X20099999Y-44333333D02*
X20099999Y-43766667D01*
X20066666Y-43700000D01*
X20033333Y-43666667D01*
X19966666Y-43633333D01*
X19833333Y-43633333D01*
X19766666Y-43666667D01*
X19733333Y-43700000D01*
X19699999Y-43766667D01*
X19699999Y-44333333D01*
X19466666Y-44333333D02*
X19066666Y-44333333D01*
X19266666Y-43633333D02*
X19266666Y-44333333D01*
X22099999Y-44733333D02*
X22099999Y-45433333D01*
X21933333Y-45433333D01*
X21833333Y-45400000D01*
X21766666Y-45333333D01*
X21733333Y-45266667D01*
X21699999Y-45133333D01*
X21699999Y-45033333D01*
X21733333Y-44900000D01*
X21766666Y-44833333D01*
X21833333Y-44766667D01*
X21933333Y-44733333D01*
X22099999Y-44733333D01*
X21566666Y-44666667D02*
X21033333Y-44666667D01*
X20733333Y-45433333D02*
X20600000Y-45433333D01*
X20533333Y-45400000D01*
X20466666Y-45333333D01*
X20433333Y-45200000D01*
X20433333Y-44966667D01*
X20466666Y-44833333D01*
X20533333Y-44766667D01*
X20600000Y-44733333D01*
X20733333Y-44733333D01*
X20800000Y-44766667D01*
X20866666Y-44833333D01*
X20900000Y-44966667D01*
X20900000Y-45200000D01*
X20866666Y-45333333D01*
X20800000Y-45400000D01*
X20733333Y-45433333D01*
X20133333Y-45433333D02*
X20133333Y-44866667D01*
X20100000Y-44800000D01*
X20066667Y-44766667D01*
X20000000Y-44733333D01*
X19866667Y-44733333D01*
X19800000Y-44766667D01*
X19766667Y-44800000D01*
X19733333Y-44866667D01*
X19733333Y-45433333D01*
X19500000Y-45433333D02*
X19100000Y-45433333D01*
X19300000Y-44733333D02*
X19300000Y-45433333D01*
X20983333Y-38183333D02*
X20750000Y-37483333D01*
X20516667Y-38183333D01*
X19883333Y-37550000D02*
X19916667Y-37516667D01*
X20016667Y-37483333D01*
X20083333Y-37483333D01*
X20183333Y-37516667D01*
X20250000Y-37583333D01*
X20283333Y-37650000D01*
X20316667Y-37783333D01*
X20316667Y-37883333D01*
X20283333Y-38016667D01*
X20250000Y-38083333D01*
X20183333Y-38150000D01*
X20083333Y-38183333D01*
X20016667Y-38183333D01*
X19916667Y-38150000D01*
X19883333Y-38116667D01*
X19183333Y-37550000D02*
X19216667Y-37516667D01*
X19316667Y-37483333D01*
X19383333Y-37483333D01*
X19483333Y-37516667D01*
X19550000Y-37583333D01*
X19583333Y-37650000D01*
X19616667Y-37783333D01*
X19616667Y-37883333D01*
X19583333Y-38016667D01*
X19550000Y-38083333D01*
X19483333Y-38150000D01*
X19383333Y-38183333D01*
X19316667Y-38183333D01*
X19216667Y-38150000D01*
X19183333Y-38116667D01*
X20583333Y-36950000D02*
X20649999Y-36983333D01*
X20749999Y-36983333D01*
X20849999Y-36950000D01*
X20916666Y-36883333D01*
X20949999Y-36816667D01*
X20983333Y-36683333D01*
X20983333Y-36583333D01*
X20949999Y-36450000D01*
X20916666Y-36383333D01*
X20849999Y-36316667D01*
X20749999Y-36283333D01*
X20683333Y-36283333D01*
X20583333Y-36316667D01*
X20549999Y-36350000D01*
X20549999Y-36583333D01*
X20683333Y-36583333D01*
X20249999Y-36283333D02*
X20249999Y-36983333D01*
X19849999Y-36283333D01*
X19849999Y-36983333D01*
X19516666Y-36283333D02*
X19516666Y-36983333D01*
X19350000Y-36983333D01*
X19250000Y-36950000D01*
X19183333Y-36883333D01*
X19150000Y-36816667D01*
X19116666Y-36683333D01*
X19116666Y-36583333D01*
X19150000Y-36450000D01*
X19183333Y-36383333D01*
X19250000Y-36316667D01*
X19350000Y-36283333D01*
X19516666Y-36283333D01*
X44410000Y-59736668D02*
X44376667Y-59703334D01*
X44343333Y-59603334D01*
X44343333Y-59536668D01*
X44376667Y-59436668D01*
X44443333Y-59370001D01*
X44510000Y-59336668D01*
X44643333Y-59303334D01*
X44743333Y-59303334D01*
X44876667Y-59336668D01*
X44943333Y-59370001D01*
X45010000Y-59436668D01*
X45043333Y-59536668D01*
X45043333Y-59603334D01*
X45010000Y-59703334D01*
X44976667Y-59736668D01*
X44343333Y-60370001D02*
X44343333Y-60036668D01*
X45043333Y-60036668D01*
X44343333Y-60603335D02*
X45043333Y-60603335D01*
X44343333Y-61003335D02*
X44743333Y-60703335D01*
X45043333Y-61003335D02*
X44643333Y-60603335D01*
X44276667Y-61136668D02*
X44276667Y-61670001D01*
X45043333Y-61970001D02*
X45043333Y-62103334D01*
X45010000Y-62170001D01*
X44943333Y-62236668D01*
X44810000Y-62270001D01*
X44576667Y-62270001D01*
X44443333Y-62236668D01*
X44376667Y-62170001D01*
X44343333Y-62103334D01*
X44343333Y-61970001D01*
X44376667Y-61903334D01*
X44443333Y-61836668D01*
X44576667Y-61803334D01*
X44810000Y-61803334D01*
X44943333Y-61836668D01*
X45010000Y-61903334D01*
X45043333Y-61970001D01*
X45043333Y-62570001D02*
X44476667Y-62570001D01*
X44410000Y-62603334D01*
X44376667Y-62636667D01*
X44343333Y-62703334D01*
X44343333Y-62836667D01*
X44376667Y-62903334D01*
X44410000Y-62936667D01*
X44476667Y-62970001D01*
X45043333Y-62970001D01*
X45043333Y-63203334D02*
X45043333Y-63603334D01*
X44343333Y-63403334D02*
X45043333Y-63403334D01*
X45553333Y-60580001D02*
X46253333Y-60580001D01*
X46253333Y-60746667D01*
X46220000Y-60846667D01*
X46153333Y-60913334D01*
X46086667Y-60946667D01*
X45953333Y-60980001D01*
X45853333Y-60980001D01*
X45720000Y-60946667D01*
X45653333Y-60913334D01*
X45586667Y-60846667D01*
X45553333Y-60746667D01*
X45553333Y-60580001D01*
X45486667Y-61113334D02*
X45486667Y-61646667D01*
X46253333Y-61946667D02*
X46253333Y-62080000D01*
X46220000Y-62146667D01*
X46153333Y-62213334D01*
X46020000Y-62246667D01*
X45786667Y-62246667D01*
X45653333Y-62213334D01*
X45586667Y-62146667D01*
X45553333Y-62080000D01*
X45553333Y-61946667D01*
X45586667Y-61880000D01*
X45653333Y-61813334D01*
X45786667Y-61780000D01*
X46020000Y-61780000D01*
X46153333Y-61813334D01*
X46220000Y-61880000D01*
X46253333Y-61946667D01*
X46253333Y-62546667D02*
X45686667Y-62546667D01*
X45620000Y-62580000D01*
X45586667Y-62613333D01*
X45553333Y-62680000D01*
X45553333Y-62813333D01*
X45586667Y-62880000D01*
X45620000Y-62913333D01*
X45686667Y-62946667D01*
X46253333Y-62946667D01*
X46253333Y-63180000D02*
X46253333Y-63580000D01*
X45553333Y-63380000D02*
X46253333Y-63380000D01*
X38968333Y-61751667D02*
X38268333Y-61985000D01*
X38968333Y-62218333D01*
X38335000Y-62851667D02*
X38301667Y-62818333D01*
X38268333Y-62718333D01*
X38268333Y-62651667D01*
X38301667Y-62551667D01*
X38368333Y-62485000D01*
X38435000Y-62451667D01*
X38568333Y-62418333D01*
X38668333Y-62418333D01*
X38801667Y-62451667D01*
X38868333Y-62485000D01*
X38935000Y-62551667D01*
X38968333Y-62651667D01*
X38968333Y-62718333D01*
X38935000Y-62818333D01*
X38901667Y-62851667D01*
X38335000Y-63551667D02*
X38301667Y-63518333D01*
X38268333Y-63418333D01*
X38268333Y-63351667D01*
X38301667Y-63251667D01*
X38368333Y-63185000D01*
X38435000Y-63151667D01*
X38568333Y-63118333D01*
X38668333Y-63118333D01*
X38801667Y-63151667D01*
X38868333Y-63185000D01*
X38935000Y-63251667D01*
X38968333Y-63351667D01*
X38968333Y-63418333D01*
X38935000Y-63518333D01*
X38901667Y-63551667D01*
X37735000Y-62151667D02*
X37768333Y-62085001D01*
X37768333Y-61985001D01*
X37735000Y-61885001D01*
X37668333Y-61818334D01*
X37601667Y-61785001D01*
X37468333Y-61751667D01*
X37368333Y-61751667D01*
X37235000Y-61785001D01*
X37168333Y-61818334D01*
X37101667Y-61885001D01*
X37068333Y-61985001D01*
X37068333Y-62051667D01*
X37101667Y-62151667D01*
X37135000Y-62185001D01*
X37368333Y-62185001D01*
X37368333Y-62051667D01*
X37068333Y-62485001D02*
X37768333Y-62485001D01*
X37068333Y-62885001D01*
X37768333Y-62885001D01*
X37068333Y-63218334D02*
X37768333Y-63218334D01*
X37768333Y-63385000D01*
X37735000Y-63485000D01*
X37668333Y-63551667D01*
X37601667Y-63585000D01*
X37468333Y-63618334D01*
X37368333Y-63618334D01*
X37235000Y-63585000D01*
X37168333Y-63551667D01*
X37101667Y-63485000D01*
X37068333Y-63385000D01*
X37068333Y-63218334D01*
X105566667Y-45000000D02*
X105500001Y-44966667D01*
X105400001Y-44966667D01*
X105300001Y-45000000D01*
X105233334Y-45066667D01*
X105200001Y-45133333D01*
X105166667Y-45266667D01*
X105166667Y-45366667D01*
X105200001Y-45500000D01*
X105233334Y-45566667D01*
X105300001Y-45633333D01*
X105400001Y-45666667D01*
X105466667Y-45666667D01*
X105566667Y-45633333D01*
X105600001Y-45600000D01*
X105600001Y-45366667D01*
X105466667Y-45366667D01*
X105900001Y-45666667D02*
X105900001Y-44966667D01*
X106300001Y-45666667D01*
X106300001Y-44966667D01*
X106633334Y-45666667D02*
X106633334Y-44966667D01*
X106800000Y-44966667D01*
X106900000Y-45000000D01*
X106966667Y-45066667D01*
X107000000Y-45133333D01*
X107033334Y-45266667D01*
X107033334Y-45366667D01*
X107000000Y-45500000D01*
X106966667Y-45566667D01*
X106900000Y-45633333D01*
X106800000Y-45666667D01*
X106633334Y-45666667D01*
X105066667Y-43816667D02*
X105300000Y-44516667D01*
X105533333Y-43816667D01*
X106166667Y-44450000D02*
X106133333Y-44483333D01*
X106033333Y-44516667D01*
X105966667Y-44516667D01*
X105866667Y-44483333D01*
X105800000Y-44416667D01*
X105766667Y-44350000D01*
X105733333Y-44216667D01*
X105733333Y-44116667D01*
X105766667Y-43983333D01*
X105800000Y-43916667D01*
X105866667Y-43850000D01*
X105966667Y-43816667D01*
X106033333Y-43816667D01*
X106133333Y-43850000D01*
X106166667Y-43883333D01*
X106866667Y-44450000D02*
X106833333Y-44483333D01*
X106733333Y-44516667D01*
X106666667Y-44516667D01*
X106566667Y-44483333D01*
X106500000Y-44416667D01*
X106466667Y-44350000D01*
X106433333Y-44216667D01*
X106433333Y-44116667D01*
X106466667Y-43983333D01*
X106500000Y-43916667D01*
X106566667Y-43850000D01*
X106666667Y-43816667D01*
X106733333Y-43816667D01*
X106833333Y-43850000D01*
X106866667Y-43883333D01*
X105166668Y-36966667D02*
X105166668Y-36266667D01*
X105333334Y-36266667D01*
X105433334Y-36300000D01*
X105500001Y-36366667D01*
X105533334Y-36433333D01*
X105566668Y-36566667D01*
X105566668Y-36666667D01*
X105533334Y-36800000D01*
X105500001Y-36866667D01*
X105433334Y-36933333D01*
X105333334Y-36966667D01*
X105166668Y-36966667D01*
X105700001Y-37033333D02*
X106233334Y-37033333D01*
X106400001Y-36966667D02*
X106400001Y-36266667D01*
X106733334Y-36966667D02*
X106733334Y-36266667D01*
X107133334Y-36966667D01*
X107133334Y-36266667D01*
X105583334Y-38300000D02*
X105550000Y-38333333D01*
X105450000Y-38366667D01*
X105383334Y-38366667D01*
X105283334Y-38333333D01*
X105216667Y-38266667D01*
X105183334Y-38200000D01*
X105150000Y-38066667D01*
X105150000Y-37966667D01*
X105183334Y-37833333D01*
X105216667Y-37766667D01*
X105283334Y-37700000D01*
X105383334Y-37666667D01*
X105450000Y-37666667D01*
X105550000Y-37700000D01*
X105583334Y-37733333D01*
X106216667Y-38366667D02*
X105883334Y-38366667D01*
X105883334Y-37666667D01*
X106450001Y-38366667D02*
X106450001Y-37666667D01*
X106850001Y-38366667D02*
X106550001Y-37966667D01*
X106850001Y-37666667D02*
X106450001Y-38066667D01*
X106983334Y-38433333D02*
X107516667Y-38433333D01*
X107683334Y-38366667D02*
X107683334Y-37666667D01*
X108016667Y-38366667D02*
X108016667Y-37666667D01*
X108416667Y-38366667D01*
X108416667Y-37666667D01*
X131833333Y-18316668D02*
X132533333Y-18316668D01*
X132533333Y-18483334D01*
X132500000Y-18583334D01*
X132433333Y-18650001D01*
X132366667Y-18683334D01*
X132233333Y-18716668D01*
X132133333Y-18716668D01*
X132000000Y-18683334D01*
X131933333Y-18650001D01*
X131866667Y-18583334D01*
X131833333Y-18483334D01*
X131833333Y-18316668D01*
X131766667Y-18850001D02*
X131766667Y-19383334D01*
X131833333Y-19550001D02*
X132533333Y-19550001D01*
X131833333Y-19883334D02*
X132533333Y-19883334D01*
X131833333Y-20283334D01*
X132533333Y-20283334D01*
X130500000Y-18683334D02*
X130466667Y-18650000D01*
X130433333Y-18550000D01*
X130433333Y-18483334D01*
X130466667Y-18383334D01*
X130533333Y-18316667D01*
X130600000Y-18283334D01*
X130733333Y-18250000D01*
X130833333Y-18250000D01*
X130966667Y-18283334D01*
X131033333Y-18316667D01*
X131100000Y-18383334D01*
X131133333Y-18483334D01*
X131133333Y-18550000D01*
X131100000Y-18650000D01*
X131066667Y-18683334D01*
X130433333Y-19316667D02*
X130433333Y-18983334D01*
X131133333Y-18983334D01*
X130433333Y-19550001D02*
X131133333Y-19550001D01*
X130433333Y-19950001D02*
X130833333Y-19650001D01*
X131133333Y-19950001D02*
X130733333Y-19550001D01*
X130366667Y-20083334D02*
X130366667Y-20616667D01*
X130433333Y-20783334D02*
X131133333Y-20783334D01*
X130433333Y-21116667D02*
X131133333Y-21116667D01*
X130433333Y-21516667D01*
X131133333Y-21516667D01*
X125083333Y-18266667D02*
X124383333Y-18500000D01*
X125083333Y-18733333D01*
X124450000Y-19366667D02*
X124416667Y-19333333D01*
X124383333Y-19233333D01*
X124383333Y-19166667D01*
X124416667Y-19066667D01*
X124483333Y-19000000D01*
X124550000Y-18966667D01*
X124683333Y-18933333D01*
X124783333Y-18933333D01*
X124916667Y-18966667D01*
X124983333Y-19000000D01*
X125050000Y-19066667D01*
X125083333Y-19166667D01*
X125083333Y-19233333D01*
X125050000Y-19333333D01*
X125016667Y-19366667D01*
X124450000Y-20066667D02*
X124416667Y-20033333D01*
X124383333Y-19933333D01*
X124383333Y-19866667D01*
X124416667Y-19766667D01*
X124483333Y-19700000D01*
X124550000Y-19666667D01*
X124683333Y-19633333D01*
X124783333Y-19633333D01*
X124916667Y-19666667D01*
X124983333Y-19700000D01*
X125050000Y-19766667D01*
X125083333Y-19866667D01*
X125083333Y-19933333D01*
X125050000Y-20033333D01*
X125016667Y-20066667D01*
X123700000Y-18666667D02*
X123733333Y-18600001D01*
X123733333Y-18500001D01*
X123700000Y-18400001D01*
X123633333Y-18333334D01*
X123566667Y-18300001D01*
X123433333Y-18266667D01*
X123333333Y-18266667D01*
X123200000Y-18300001D01*
X123133333Y-18333334D01*
X123066667Y-18400001D01*
X123033333Y-18500001D01*
X123033333Y-18566667D01*
X123066667Y-18666667D01*
X123100000Y-18700001D01*
X123333333Y-18700001D01*
X123333333Y-18566667D01*
X123033333Y-19000001D02*
X123733333Y-19000001D01*
X123033333Y-19400001D01*
X123733333Y-19400001D01*
X123033333Y-19733334D02*
X123733333Y-19733334D01*
X123733333Y-19900000D01*
X123700000Y-20000000D01*
X123633333Y-20066667D01*
X123566667Y-20100000D01*
X123433333Y-20133334D01*
X123333333Y-20133334D01*
X123200000Y-20100000D01*
X123133333Y-20066667D01*
X123066667Y-20000000D01*
X123033333Y-19900000D01*
X123033333Y-19733334D01*
X150016666Y-43900000D02*
X150050000Y-43866667D01*
X150150000Y-43833333D01*
X150216666Y-43833333D01*
X150316666Y-43866667D01*
X150383333Y-43933333D01*
X150416666Y-44000000D01*
X150450000Y-44133333D01*
X150450000Y-44233333D01*
X150416666Y-44366667D01*
X150383333Y-44433333D01*
X150316666Y-44500000D01*
X150216666Y-44533333D01*
X150150000Y-44533333D01*
X150050000Y-44500000D01*
X150016666Y-44466667D01*
X149383333Y-43833333D02*
X149716666Y-43833333D01*
X149716666Y-44533333D01*
X149149999Y-43833333D02*
X149149999Y-44533333D01*
X148749999Y-43833333D02*
X149049999Y-44233333D01*
X148749999Y-44533333D02*
X149149999Y-44133333D01*
X148616666Y-43766667D02*
X148083333Y-43766667D01*
X147916666Y-43833333D02*
X147916666Y-44533333D01*
X147583333Y-43833333D02*
X147583333Y-44533333D01*
X147183333Y-43833333D01*
X147183333Y-44533333D01*
X150383332Y-44933333D02*
X150383332Y-45633333D01*
X150216666Y-45633333D01*
X150116666Y-45600000D01*
X150049999Y-45533333D01*
X150016666Y-45466667D01*
X149983332Y-45333333D01*
X149983332Y-45233333D01*
X150016666Y-45100000D01*
X150049999Y-45033333D01*
X150116666Y-44966667D01*
X150216666Y-44933333D01*
X150383332Y-44933333D01*
X149849999Y-44866667D02*
X149316666Y-44866667D01*
X149149999Y-44933333D02*
X149149999Y-45633333D01*
X148816666Y-44933333D02*
X148816666Y-45633333D01*
X148416666Y-44933333D01*
X148416666Y-45633333D01*
X150383333Y-38383333D02*
X150150000Y-37683333D01*
X149916667Y-38383333D01*
X149283333Y-37750000D02*
X149316667Y-37716667D01*
X149416667Y-37683333D01*
X149483333Y-37683333D01*
X149583333Y-37716667D01*
X149650000Y-37783333D01*
X149683333Y-37850000D01*
X149716667Y-37983333D01*
X149716667Y-38083333D01*
X149683333Y-38216667D01*
X149650000Y-38283333D01*
X149583333Y-38350000D01*
X149483333Y-38383333D01*
X149416667Y-38383333D01*
X149316667Y-38350000D01*
X149283333Y-38316667D01*
X148583333Y-37750000D02*
X148616667Y-37716667D01*
X148716667Y-37683333D01*
X148783333Y-37683333D01*
X148883333Y-37716667D01*
X148950000Y-37783333D01*
X148983333Y-37850000D01*
X149016667Y-37983333D01*
X149016667Y-38083333D01*
X148983333Y-38216667D01*
X148950000Y-38283333D01*
X148883333Y-38350000D01*
X148783333Y-38383333D01*
X148716667Y-38383333D01*
X148616667Y-38350000D01*
X148583333Y-38316667D01*
X150033333Y-36950000D02*
X150099999Y-36983333D01*
X150199999Y-36983333D01*
X150299999Y-36950000D01*
X150366666Y-36883333D01*
X150399999Y-36816667D01*
X150433333Y-36683333D01*
X150433333Y-36583333D01*
X150399999Y-36450000D01*
X150366666Y-36383333D01*
X150299999Y-36316667D01*
X150199999Y-36283333D01*
X150133333Y-36283333D01*
X150033333Y-36316667D01*
X149999999Y-36350000D01*
X149999999Y-36583333D01*
X150133333Y-36583333D01*
X149699999Y-36283333D02*
X149699999Y-36983333D01*
X149299999Y-36283333D01*
X149299999Y-36983333D01*
X148966666Y-36283333D02*
X148966666Y-36983333D01*
X148800000Y-36983333D01*
X148700000Y-36950000D01*
X148633333Y-36883333D01*
X148600000Y-36816667D01*
X148566666Y-36683333D01*
X148566666Y-36583333D01*
X148600000Y-36450000D01*
X148633333Y-36383333D01*
X148700000Y-36316667D01*
X148800000Y-36283333D01*
X148966666Y-36283333D01*
X125000000Y-63226666D02*
X125033333Y-63260000D01*
X125066667Y-63360000D01*
X125066667Y-63426666D01*
X125033333Y-63526666D01*
X124966667Y-63593333D01*
X124900000Y-63626666D01*
X124766667Y-63660000D01*
X124666667Y-63660000D01*
X124533333Y-63626666D01*
X124466667Y-63593333D01*
X124400000Y-63526666D01*
X124366667Y-63426666D01*
X124366667Y-63360000D01*
X124400000Y-63260000D01*
X124433333Y-63226666D01*
X125066667Y-62593333D02*
X125066667Y-62926666D01*
X124366667Y-62926666D01*
X125066667Y-62359999D02*
X124366667Y-62359999D01*
X125066667Y-61959999D02*
X124666667Y-62259999D01*
X124366667Y-61959999D02*
X124766667Y-62359999D01*
X125133333Y-61826666D02*
X125133333Y-61293333D01*
X125066667Y-61126666D02*
X124366667Y-61126666D01*
X125066667Y-60793333D02*
X124366667Y-60793333D01*
X125066667Y-60393333D01*
X124366667Y-60393333D01*
X123666667Y-63693332D02*
X122966667Y-63693332D01*
X122966667Y-63526666D01*
X123000000Y-63426666D01*
X123066667Y-63359999D01*
X123133333Y-63326666D01*
X123266667Y-63293332D01*
X123366667Y-63293332D01*
X123500000Y-63326666D01*
X123566667Y-63359999D01*
X123633333Y-63426666D01*
X123666667Y-63526666D01*
X123666667Y-63693332D01*
X123733333Y-63159999D02*
X123733333Y-62626666D01*
X123666667Y-62459999D02*
X122966667Y-62459999D01*
X123666667Y-62126666D02*
X122966667Y-62126666D01*
X123666667Y-61726666D01*
X122966667Y-61726666D01*
X131900000Y-63443333D02*
X131866667Y-63509999D01*
X131866667Y-63609999D01*
X131900000Y-63709999D01*
X131966667Y-63776666D01*
X132033333Y-63809999D01*
X132166667Y-63843333D01*
X132266667Y-63843333D01*
X132400000Y-63809999D01*
X132466667Y-63776666D01*
X132533333Y-63709999D01*
X132566667Y-63609999D01*
X132566667Y-63543333D01*
X132533333Y-63443333D01*
X132500000Y-63409999D01*
X132266667Y-63409999D01*
X132266667Y-63543333D01*
X132566667Y-63109999D02*
X131866667Y-63109999D01*
X132566667Y-62709999D01*
X131866667Y-62709999D01*
X132566667Y-62376666D02*
X131866667Y-62376666D01*
X131866667Y-62210000D01*
X131900000Y-62110000D01*
X131966667Y-62043333D01*
X132033333Y-62010000D01*
X132166667Y-61976666D01*
X132266667Y-61976666D01*
X132400000Y-62010000D01*
X132466667Y-62043333D01*
X132533333Y-62110000D01*
X132566667Y-62210000D01*
X132566667Y-62376666D01*
X130516667Y-63833333D02*
X131216667Y-63600000D01*
X130516667Y-63366667D01*
X131150000Y-62733333D02*
X131183333Y-62766667D01*
X131216667Y-62866667D01*
X131216667Y-62933333D01*
X131183333Y-63033333D01*
X131116667Y-63100000D01*
X131050000Y-63133333D01*
X130916667Y-63166667D01*
X130816667Y-63166667D01*
X130683333Y-63133333D01*
X130616667Y-63100000D01*
X130550000Y-63033333D01*
X130516667Y-62933333D01*
X130516667Y-62866667D01*
X130550000Y-62766667D01*
X130583333Y-62733333D01*
X131150000Y-62033333D02*
X131183333Y-62066667D01*
X131216667Y-62166667D01*
X131216667Y-62233333D01*
X131183333Y-62333333D01*
X131116667Y-62400000D01*
X131050000Y-62433333D01*
X130916667Y-62466667D01*
X130816667Y-62466667D01*
X130683333Y-62433333D01*
X130616667Y-62400000D01*
X130550000Y-62333333D01*
X130516667Y-62233333D01*
X130516667Y-62166667D01*
X130550000Y-62066667D01*
X130583333Y-62033333D01*
D11*
X87600000Y-22260000D02*
X88200000Y-22860000D01*
X92000000Y-22860000D02*
X88000000Y-22860000D01*
X87600000Y-20460000D02*
X92000000Y-20460000D01*
X88000000Y-22860000D02*
X87600000Y-22860000D01*
X92000000Y-20460000D02*
X92000000Y-22860000D01*
X87600000Y-20460000D02*
X87600000Y-22860000D01*
X77600000Y-22260000D02*
X78200000Y-22860000D01*
X82000000Y-22860000D02*
X78000000Y-22860000D01*
X77600000Y-20460000D02*
X82000000Y-20460000D01*
X78000000Y-22860000D02*
X77600000Y-22860000D01*
X82000000Y-20460000D02*
X82000000Y-22860000D01*
X77600000Y-20460000D02*
X77600000Y-22860000D01*
X67600000Y-22250000D02*
X68200000Y-22850000D01*
X72000000Y-22850000D02*
X68000000Y-22850000D01*
X67600000Y-20450000D02*
X72000000Y-20450000D01*
X68000000Y-22850000D02*
X67600000Y-22850000D01*
X72000000Y-20450000D02*
X72000000Y-22850000D01*
X67600000Y-20450000D02*
X67600000Y-22850000D01*
X97600000Y-61250000D02*
X98200000Y-61850000D01*
X102000000Y-61850000D02*
X98000000Y-61850000D01*
X97600000Y-59450000D02*
X102000000Y-59450000D01*
X98000000Y-61850000D02*
X97600000Y-61850000D01*
X102000000Y-59450000D02*
X102000000Y-61850000D01*
X97600000Y-59450000D02*
X97600000Y-61850000D01*
X114450000Y-38700000D02*
X113850000Y-39300000D01*
X113850000Y-43100000D02*
X113850000Y-39100000D01*
X116250000Y-38700000D02*
X116250000Y-43100000D01*
X113850000Y-39100000D02*
X113850000Y-38700000D01*
X116250000Y-43100000D02*
X113850000Y-43100000D01*
X116250000Y-38700000D02*
X113850000Y-38700000D01*
X107750000Y-38700000D02*
X107150000Y-39300000D01*
X107150000Y-43100000D02*
X107150000Y-39100000D01*
X109550000Y-38700000D02*
X109550000Y-43100000D01*
X107150000Y-39100000D02*
X107150000Y-38700000D01*
X109550000Y-43100000D02*
X107150000Y-43100000D01*
X109550000Y-38700000D02*
X107150000Y-38700000D01*
X97600000Y-22250000D02*
X98200000Y-22850000D01*
X102000000Y-22850000D02*
X98000000Y-22850000D01*
X97600000Y-20450000D02*
X102000000Y-20450000D01*
X98000000Y-22850000D02*
X97600000Y-22850000D01*
X102000000Y-20450000D02*
X102000000Y-22850000D01*
X97600000Y-20450000D02*
X97600000Y-22850000D01*
X97600000Y-28650000D02*
X98200000Y-29250000D01*
X102000000Y-29250000D02*
X98000000Y-29250000D01*
X97600000Y-26850000D02*
X102000000Y-26850000D01*
X98000000Y-29250000D02*
X97600000Y-29250000D01*
X102000000Y-26850000D02*
X102000000Y-29250000D01*
X97600000Y-26850000D02*
X97600000Y-29250000D01*
X121150000Y-38700000D02*
X120550000Y-39300000D01*
X120550000Y-43100000D02*
X120550000Y-39100000D01*
X122950000Y-38700000D02*
X122950000Y-43100000D01*
X120550000Y-39100000D02*
X120550000Y-38700000D01*
X122950000Y-43100000D02*
X120550000Y-43100000D01*
X122950000Y-38700000D02*
X120550000Y-38700000D01*
X125600000Y-54700000D02*
X126200000Y-55300000D01*
X130000000Y-55300000D02*
X126000000Y-55300000D01*
X125600000Y-52900000D02*
X130000000Y-52900000D01*
X126000000Y-55300000D02*
X125600000Y-55300000D01*
X130000000Y-52900000D02*
X130000000Y-55300000D01*
X125600000Y-52900000D02*
X125600000Y-55300000D01*
X125600000Y-61210000D02*
X126200000Y-61810000D01*
X130000000Y-61810000D02*
X126000000Y-61810000D01*
X125600000Y-59410000D02*
X130000000Y-59410000D01*
X126000000Y-61810000D02*
X125600000Y-61810000D01*
X130000000Y-59410000D02*
X130000000Y-61810000D01*
X125600000Y-59410000D02*
X125600000Y-61810000D01*
X125600000Y-48200000D02*
X126200000Y-48800000D01*
X130000000Y-48800000D02*
X126000000Y-48800000D01*
X125600000Y-46400000D02*
X130000000Y-46400000D01*
X126000000Y-48800000D02*
X125600000Y-48800000D01*
X130000000Y-46400000D02*
X130000000Y-48800000D01*
X125600000Y-46400000D02*
X125600000Y-48800000D01*
X147750000Y-43100000D02*
X148350000Y-42500000D01*
X148350000Y-38700000D02*
X148350000Y-42700000D01*
X145950000Y-43100000D02*
X145950000Y-38700000D01*
X148350000Y-42700000D02*
X148350000Y-43100000D01*
X145950000Y-38700000D02*
X148350000Y-38700000D01*
X145950000Y-43100000D02*
X148350000Y-43100000D01*
X141050000Y-43100000D02*
X141650000Y-42500000D01*
X141650000Y-38700000D02*
X141650000Y-42700000D01*
X139250000Y-43100000D02*
X139250000Y-38700000D01*
X141650000Y-42700000D02*
X141650000Y-43100000D01*
X139250000Y-38700000D02*
X141650000Y-38700000D01*
X139250000Y-43100000D02*
X141650000Y-43100000D01*
X130000000Y-40560000D02*
X129400000Y-39960000D01*
X125600000Y-39960000D02*
X129600000Y-39960000D01*
X130000000Y-42360000D02*
X125600000Y-42360000D01*
X129600000Y-39960000D02*
X130000000Y-39960000D01*
X125600000Y-42360000D02*
X125600000Y-39960000D01*
X130000000Y-42360000D02*
X130000000Y-39960000D01*
X134350000Y-43100000D02*
X134950000Y-42500000D01*
X134950000Y-38700000D02*
X134950000Y-42700000D01*
X132550000Y-43100000D02*
X132550000Y-38700000D01*
X134950000Y-42700000D02*
X134950000Y-43100000D01*
X132550000Y-38700000D02*
X134950000Y-38700000D01*
X132550000Y-43100000D02*
X134950000Y-43100000D01*
X130000000Y-34060000D02*
X129400000Y-33460000D01*
X125600000Y-33460000D02*
X129600000Y-33460000D01*
X130000000Y-35860000D02*
X125600000Y-35860000D01*
X129600000Y-33460000D02*
X130000000Y-33460000D01*
X125600000Y-35860000D02*
X125600000Y-33460000D01*
X130000000Y-35860000D02*
X130000000Y-33460000D01*
X130000000Y-21060000D02*
X129400000Y-20460000D01*
X125600000Y-20460000D02*
X129600000Y-20460000D01*
X130000000Y-22860000D02*
X125600000Y-22860000D01*
X129600000Y-20460000D02*
X130000000Y-20460000D01*
X125600000Y-22860000D02*
X125600000Y-20460000D01*
X130000000Y-22860000D02*
X130000000Y-20460000D01*
X130000000Y-27560000D02*
X129400000Y-26960000D01*
X125600000Y-26960000D02*
X129600000Y-26960000D01*
X130000000Y-29360000D02*
X125600000Y-29360000D01*
X129600000Y-26960000D02*
X130000000Y-26960000D01*
X125600000Y-29360000D02*
X125600000Y-26960000D01*
X130000000Y-29360000D02*
X130000000Y-26960000D01*
X77600000Y-61350000D02*
X78200000Y-61950000D01*
X82000000Y-61950000D02*
X78000000Y-61950000D01*
X77600000Y-59550000D02*
X82000000Y-59550000D01*
X78000000Y-61950000D02*
X77600000Y-61950000D01*
X82000000Y-59550000D02*
X82000000Y-61950000D01*
X77600000Y-59550000D02*
X77600000Y-61950000D01*
X77600000Y-54850000D02*
X78200000Y-55450000D01*
X82000000Y-55450000D02*
X78000000Y-55450000D01*
X77600000Y-53050000D02*
X82000000Y-53050000D01*
X78000000Y-55450000D02*
X77600000Y-55450000D01*
X82000000Y-53050000D02*
X82000000Y-55450000D01*
X77600000Y-53050000D02*
X77600000Y-55450000D01*
X87600000Y-54860000D02*
X88200000Y-55460000D01*
X92000000Y-55460000D02*
X88000000Y-55460000D01*
X87600000Y-53060000D02*
X92000000Y-53060000D01*
X88000000Y-55460000D02*
X87600000Y-55460000D01*
X92000000Y-53060000D02*
X92000000Y-55460000D01*
X87600000Y-53060000D02*
X87600000Y-55460000D01*
X87600000Y-61360000D02*
X88200000Y-61960000D01*
X92000000Y-61960000D02*
X88000000Y-61960000D01*
X87600000Y-59560000D02*
X92000000Y-59560000D01*
X88000000Y-61960000D02*
X87600000Y-61960000D01*
X92000000Y-59560000D02*
X92000000Y-61960000D01*
X87600000Y-59560000D02*
X87600000Y-61960000D01*
X67600000Y-28750000D02*
X68200000Y-29350000D01*
X72000000Y-29350000D02*
X68000000Y-29350000D01*
X67600000Y-26950000D02*
X72000000Y-26950000D01*
X68000000Y-29350000D02*
X67600000Y-29350000D01*
X72000000Y-26950000D02*
X72000000Y-29350000D01*
X67600000Y-26950000D02*
X67600000Y-29350000D01*
X67600000Y-35250000D02*
X68200000Y-35850000D01*
X72000000Y-35850000D02*
X68000000Y-35850000D01*
X67600000Y-33450000D02*
X72000000Y-33450000D01*
X68000000Y-35850000D02*
X67600000Y-35850000D01*
X72000000Y-33450000D02*
X72000000Y-35850000D01*
X67600000Y-33450000D02*
X67600000Y-35850000D01*
X67600000Y-41750000D02*
X68200000Y-42350000D01*
X72000000Y-42350000D02*
X68000000Y-42350000D01*
X67600000Y-39950000D02*
X72000000Y-39950000D01*
X68000000Y-42350000D02*
X67600000Y-42350000D01*
X72000000Y-39950000D02*
X72000000Y-42350000D01*
X67600000Y-39950000D02*
X67600000Y-42350000D01*
X87600000Y-41760000D02*
X88200000Y-42360000D01*
X92000000Y-42360000D02*
X88000000Y-42360000D01*
X87600000Y-39960000D02*
X92000000Y-39960000D01*
X88000000Y-42360000D02*
X87600000Y-42360000D01*
X92000000Y-39960000D02*
X92000000Y-42360000D01*
X87600000Y-39960000D02*
X87600000Y-42360000D01*
X87600000Y-35260000D02*
X88200000Y-35860000D01*
X92000000Y-35860000D02*
X88000000Y-35860000D01*
X87600000Y-33460000D02*
X92000000Y-33460000D01*
X88000000Y-35860000D02*
X87600000Y-35860000D01*
X92000000Y-33460000D02*
X92000000Y-35860000D01*
X87600000Y-33460000D02*
X87600000Y-35860000D01*
X77600000Y-41850000D02*
X78200000Y-42450000D01*
X82000000Y-42450000D02*
X78000000Y-42450000D01*
X77600000Y-40050000D02*
X82000000Y-40050000D01*
X78000000Y-42450000D02*
X77600000Y-42450000D01*
X82000000Y-40050000D02*
X82000000Y-42450000D01*
X77600000Y-40050000D02*
X77600000Y-42450000D01*
X77600000Y-48350000D02*
X78200000Y-48950000D01*
X82000000Y-48950000D02*
X78000000Y-48950000D01*
X77600000Y-46550000D02*
X82000000Y-46550000D01*
X78000000Y-48950000D02*
X77600000Y-48950000D01*
X82000000Y-46550000D02*
X82000000Y-48950000D01*
X77600000Y-46550000D02*
X77600000Y-48950000D01*
X77600000Y-35360000D02*
X78200000Y-35960000D01*
X82000000Y-35960000D02*
X78000000Y-35960000D01*
X77600000Y-33560000D02*
X82000000Y-33560000D01*
X78000000Y-35960000D02*
X77600000Y-35960000D01*
X82000000Y-33560000D02*
X82000000Y-35960000D01*
X77600000Y-33560000D02*
X77600000Y-35960000D01*
X77600000Y-28860000D02*
X78200000Y-29460000D01*
X82000000Y-29460000D02*
X78000000Y-29460000D01*
X77600000Y-27060000D02*
X82000000Y-27060000D01*
X78000000Y-29460000D02*
X77600000Y-29460000D01*
X82000000Y-27060000D02*
X82000000Y-29460000D01*
X77600000Y-27060000D02*
X77600000Y-29460000D01*
X87600000Y-28760000D02*
X88200000Y-29360000D01*
X92000000Y-29360000D02*
X88000000Y-29360000D01*
X87600000Y-26960000D02*
X92000000Y-26960000D01*
X88000000Y-29360000D02*
X87600000Y-29360000D01*
X92000000Y-26960000D02*
X92000000Y-29360000D01*
X87600000Y-26960000D02*
X87600000Y-29360000D01*
X97600000Y-48260000D02*
X98200000Y-48860000D01*
X102000000Y-48860000D02*
X98000000Y-48860000D01*
X97600000Y-46460000D02*
X102000000Y-46460000D01*
X98000000Y-48860000D02*
X97600000Y-48860000D01*
X102000000Y-46460000D02*
X102000000Y-48860000D01*
X97600000Y-46460000D02*
X97600000Y-48860000D01*
X87600000Y-48360000D02*
X88200000Y-48960000D01*
X92000000Y-48960000D02*
X88000000Y-48960000D01*
X87600000Y-46560000D02*
X92000000Y-46560000D01*
X88000000Y-48960000D02*
X87600000Y-48960000D01*
X92000000Y-46560000D02*
X92000000Y-48960000D01*
X87600000Y-46560000D02*
X87600000Y-48960000D01*
X97600000Y-54750000D02*
X98200000Y-55350000D01*
X102000000Y-55350000D02*
X98000000Y-55350000D01*
X97600000Y-52950000D02*
X102000000Y-52950000D01*
X98000000Y-55350000D02*
X97600000Y-55350000D01*
X102000000Y-52950000D02*
X102000000Y-55350000D01*
X97600000Y-52950000D02*
X97600000Y-55350000D01*
X97600000Y-41650000D02*
X98200000Y-42250000D01*
X102000000Y-42250000D02*
X98000000Y-42250000D01*
X97600000Y-39850000D02*
X102000000Y-39850000D01*
X98000000Y-42250000D02*
X97600000Y-42250000D01*
X102000000Y-39850000D02*
X102000000Y-42250000D01*
X97600000Y-39850000D02*
X97600000Y-42250000D01*
X97600000Y-35150000D02*
X98200000Y-35750000D01*
X102000000Y-35750000D02*
X98000000Y-35750000D01*
X97600000Y-33350000D02*
X102000000Y-33350000D01*
X98000000Y-35750000D02*
X97600000Y-35750000D01*
X102000000Y-33350000D02*
X102000000Y-35750000D01*
X97600000Y-33350000D02*
X97600000Y-35750000D01*
X60650000Y-38810000D02*
X60050000Y-39410000D01*
X60050000Y-43210000D02*
X60050000Y-39210000D01*
X62450000Y-38810000D02*
X62450000Y-43210000D01*
X60050000Y-39210000D02*
X60050000Y-38810000D01*
X62450000Y-43210000D02*
X60050000Y-43210000D01*
X62450000Y-38810000D02*
X60050000Y-38810000D01*
X67600000Y-54750000D02*
X68200000Y-55350000D01*
X72000000Y-55350000D02*
X68000000Y-55350000D01*
X67600000Y-52950000D02*
X72000000Y-52950000D01*
X68000000Y-55350000D02*
X67600000Y-55350000D01*
X72000000Y-52950000D02*
X72000000Y-55350000D01*
X67600000Y-52950000D02*
X67600000Y-55350000D01*
X67600000Y-48250000D02*
X68200000Y-48850000D01*
X72000000Y-48850000D02*
X68000000Y-48850000D01*
X67600000Y-46450000D02*
X72000000Y-46450000D01*
X68000000Y-48850000D02*
X67600000Y-48850000D01*
X72000000Y-46450000D02*
X72000000Y-48850000D01*
X67600000Y-46450000D02*
X67600000Y-48850000D01*
X67600000Y-61250000D02*
X68200000Y-61850000D01*
X72000000Y-61850000D02*
X68000000Y-61850000D01*
X67600000Y-59450000D02*
X72000000Y-59450000D01*
X68000000Y-61850000D02*
X67600000Y-61850000D01*
X72000000Y-59450000D02*
X72000000Y-61850000D01*
X67600000Y-59450000D02*
X67600000Y-61850000D01*
X46200000Y-52310000D02*
X45500000Y-52310000D01*
X45500000Y-51110000D02*
X46200000Y-51110000D01*
X37325000Y-50725000D02*
X36575000Y-50725000D01*
X32075000Y-45475000D02*
X32825000Y-45475000D01*
X32075000Y-50725000D02*
X32825000Y-50725000D01*
X37325000Y-45475000D02*
X37325000Y-46225000D01*
X32075000Y-45475000D02*
X32075000Y-46225000D01*
X32075000Y-50725000D02*
X32075000Y-49975000D01*
X37325000Y-50725000D02*
X37325000Y-49975000D01*
X45500000Y-52810000D02*
X46200000Y-52810000D01*
X46200000Y-54010000D02*
X45500000Y-54010000D01*
X43850000Y-53410000D02*
X43250000Y-52810000D01*
X39450000Y-52810000D02*
X43450000Y-52810000D01*
X43850000Y-55210000D02*
X39450000Y-55210000D01*
X43450000Y-52810000D02*
X43850000Y-52810000D01*
X39450000Y-55210000D02*
X39450000Y-52810000D01*
X43850000Y-55210000D02*
X43850000Y-52810000D01*
X43850000Y-59810000D02*
X43250000Y-59210000D01*
X39450000Y-59210000D02*
X43450000Y-59210000D01*
X43850000Y-61610000D02*
X39450000Y-61610000D01*
X43450000Y-59210000D02*
X43850000Y-59210000D01*
X39450000Y-61610000D02*
X39450000Y-59210000D01*
X43850000Y-61610000D02*
X43850000Y-59210000D01*
X43850000Y-46810000D02*
X43250000Y-46210000D01*
X39450000Y-46210000D02*
X43450000Y-46210000D01*
X43850000Y-48610000D02*
X39450000Y-48610000D01*
X43450000Y-46210000D02*
X43850000Y-46210000D01*
X39450000Y-48610000D02*
X39450000Y-46210000D01*
X43850000Y-48610000D02*
X43850000Y-46210000D01*
X35850000Y-43210000D02*
X36450000Y-42610000D01*
X36450000Y-38810000D02*
X36450000Y-42810000D01*
X34050000Y-43210000D02*
X34050000Y-38810000D01*
X36450000Y-42810000D02*
X36450000Y-43210000D01*
X34050000Y-38810000D02*
X36450000Y-38810000D01*
X34050000Y-43210000D02*
X36450000Y-43210000D01*
X29350000Y-43210000D02*
X29950000Y-42610000D01*
X29950000Y-38810000D02*
X29950000Y-42810000D01*
X27550000Y-43210000D02*
X27550000Y-38810000D01*
X29950000Y-42810000D02*
X29950000Y-43210000D01*
X27550000Y-38810000D02*
X29950000Y-38810000D01*
X27550000Y-43210000D02*
X29950000Y-43210000D01*
X29530000Y-36490000D02*
X29530000Y-37190000D01*
X28330000Y-37190000D02*
X28330000Y-36490000D01*
X38616726Y-30498909D02*
X37273223Y-29155406D01*
X37838909Y-31276726D02*
X36495406Y-29933223D01*
X37591421Y-30251421D02*
X37273223Y-29933223D01*
X37450000Y-30463553D02*
X37803553Y-30110000D01*
X37626777Y-30286777D02*
X37273223Y-30286777D01*
X37273223Y-30286777D02*
X37626777Y-29933223D01*
X37626777Y-29933223D02*
X37626777Y-30286777D01*
X22850000Y-43210000D02*
X23450000Y-42610000D01*
X23450000Y-38810000D02*
X23450000Y-42810000D01*
X21050000Y-43210000D02*
X21050000Y-38810000D01*
X23450000Y-42810000D02*
X23450000Y-43210000D01*
X21050000Y-38810000D02*
X23450000Y-38810000D01*
X21050000Y-43210000D02*
X23450000Y-43210000D01*
X30150000Y-37190000D02*
X30150000Y-36490000D01*
X31350000Y-36490000D02*
X31350000Y-37190000D01*
D12*
X35900060Y-33510000D02*
G75*
G03X35900060Y-33510000I-1750060J0D01*
G01*
X35387479Y-30505206D02*
X37154794Y-32272521D01*
X30261549Y-33156178D02*
X33796178Y-29621549D01*
X32912521Y-36514794D02*
X31145206Y-34747479D01*
X38038451Y-33863822D02*
X34503822Y-37398451D01*
D11*
X54760000Y-37070000D02*
X54760000Y-36370000D01*
X55960000Y-36370000D02*
X55960000Y-37070000D01*
X52860000Y-37130000D02*
X52860000Y-36430000D01*
X54060000Y-36430000D02*
X54060000Y-37130000D01*
X47550000Y-38810000D02*
X46950000Y-39410000D01*
X46950000Y-43210000D02*
X46950000Y-39210000D01*
X49350000Y-38810000D02*
X49350000Y-43210000D01*
X46950000Y-39210000D02*
X46950000Y-38810000D01*
X49350000Y-43210000D02*
X46950000Y-43210000D01*
X49350000Y-38810000D02*
X46950000Y-38810000D01*
X54150000Y-38810000D02*
X53550000Y-39410000D01*
X53550000Y-43210000D02*
X53550000Y-39210000D01*
X55950000Y-38810000D02*
X55950000Y-43210000D01*
X53550000Y-39210000D02*
X53550000Y-38810000D01*
X55950000Y-43210000D02*
X53550000Y-43210000D01*
X55950000Y-38810000D02*
X53550000Y-38810000D01*
D12*
X51100060Y-48610000D02*
G75*
G03X51100060Y-48610000I-1750060J0D01*
G01*
X48112521Y-51614794D02*
X46345206Y-49847479D01*
X53238451Y-48963822D02*
X49703822Y-52498451D01*
X50587479Y-45605206D02*
X52354794Y-47372521D01*
X45461549Y-48256178D02*
X48996178Y-44721549D01*
D11*
X44594000Y-35134000D02*
X44594000Y-38182000D01*
X44594000Y-38182000D02*
X51706000Y-38182000D01*
X51706000Y-38182000D02*
X51706000Y-35134000D01*
X44594000Y-32086000D02*
X44594000Y-31324000D01*
X44594000Y-31324000D02*
X46118000Y-29038000D01*
X46118000Y-29038000D02*
X50182000Y-29038000D01*
X50182000Y-29038000D02*
X51706000Y-31324000D01*
X51706000Y-31324000D02*
X51706000Y-32086000D01*
X39450000Y-35110000D02*
X40050000Y-35710000D01*
X43850000Y-35710000D02*
X39850000Y-35710000D01*
X39450000Y-33310000D02*
X43850000Y-33310000D01*
X39850000Y-35710000D02*
X39450000Y-35710000D01*
X43850000Y-33310000D02*
X43850000Y-35710000D01*
X39450000Y-33310000D02*
X39450000Y-35710000D01*
X39450000Y-21910000D02*
X40050000Y-22510000D01*
X43850000Y-22510000D02*
X39850000Y-22510000D01*
X39450000Y-20110000D02*
X43850000Y-20110000D01*
X39850000Y-22510000D02*
X39450000Y-22510000D01*
X43850000Y-20110000D02*
X43850000Y-22510000D01*
X39450000Y-20110000D02*
X39450000Y-22510000D01*
X39450000Y-28410000D02*
X40050000Y-29010000D01*
X43850000Y-29010000D02*
X39850000Y-29010000D01*
X39450000Y-26610000D02*
X43850000Y-26610000D01*
X39850000Y-29010000D02*
X39450000Y-29010000D01*
X43850000Y-26610000D02*
X43850000Y-29010000D01*
X39450000Y-26610000D02*
X39450000Y-29010000D01*
D10*
X40268198Y-44592843D02*
X45306334Y-39554707D01*
X43043592Y-37291965D02*
X37987779Y-42347779D01*
X45306334Y-38953666D02*
X43644633Y-37291965D01*
X39667157Y-44628198D02*
X37987779Y-42948819D01*
X39950000Y-44310000D02*
X45005813Y-39254187D01*
X45005813Y-39254187D02*
X43344113Y-37592486D01*
X43344113Y-37592486D02*
X38288299Y-42648299D01*
X38288299Y-42648299D02*
X39950000Y-44310000D01*
D11*
X87923810Y-21793333D02*
X88304762Y-21793333D01*
X87847619Y-22021905D02*
X88114286Y-21221905D01*
X88380953Y-22021905D01*
X88647619Y-22021905D02*
X88647619Y-21221905D01*
X88952381Y-21221905D01*
X89028572Y-21260000D01*
X89066667Y-21298095D01*
X89104762Y-21374286D01*
X89104762Y-21488571D01*
X89066667Y-21564762D01*
X89028572Y-21602857D01*
X88952381Y-21640952D01*
X88647619Y-21640952D01*
X89409524Y-21793333D02*
X89790476Y-21793333D01*
X89333333Y-22021905D02*
X89600000Y-21221905D01*
X89866667Y-22021905D01*
X90552381Y-22021905D02*
X90095238Y-22021905D01*
X90323809Y-22021905D02*
X90323809Y-21221905D01*
X90247619Y-21336190D01*
X90171428Y-21412381D01*
X90095238Y-21450476D01*
X91047619Y-21221905D02*
X91123810Y-21221905D01*
X91200000Y-21260000D01*
X91238095Y-21298095D01*
X91276191Y-21374286D01*
X91314286Y-21526667D01*
X91314286Y-21717143D01*
X91276191Y-21869524D01*
X91238095Y-21945714D01*
X91200000Y-21983810D01*
X91123810Y-22021905D01*
X91047619Y-22021905D01*
X90971429Y-21983810D01*
X90933333Y-21945714D01*
X90895238Y-21869524D01*
X90857143Y-21717143D01*
X90857143Y-21526667D01*
X90895238Y-21374286D01*
X90933333Y-21298095D01*
X90971429Y-21260000D01*
X91047619Y-21221905D01*
X91619048Y-21298095D02*
X91657143Y-21260000D01*
X91733334Y-21221905D01*
X91923810Y-21221905D01*
X92000000Y-21260000D01*
X92038096Y-21298095D01*
X92076191Y-21374286D01*
X92076191Y-21450476D01*
X92038096Y-21564762D01*
X91580953Y-22021905D01*
X92076191Y-22021905D01*
X77923810Y-21793333D02*
X78304762Y-21793333D01*
X77847619Y-22021905D02*
X78114286Y-21221905D01*
X78380953Y-22021905D01*
X78647619Y-22021905D02*
X78647619Y-21221905D01*
X78952381Y-21221905D01*
X79028572Y-21260000D01*
X79066667Y-21298095D01*
X79104762Y-21374286D01*
X79104762Y-21488571D01*
X79066667Y-21564762D01*
X79028572Y-21602857D01*
X78952381Y-21640952D01*
X78647619Y-21640952D01*
X79409524Y-21793333D02*
X79790476Y-21793333D01*
X79333333Y-22021905D02*
X79600000Y-21221905D01*
X79866667Y-22021905D01*
X80552381Y-22021905D02*
X80095238Y-22021905D01*
X80323809Y-22021905D02*
X80323809Y-21221905D01*
X80247619Y-21336190D01*
X80171428Y-21412381D01*
X80095238Y-21450476D01*
X81047619Y-21221905D02*
X81123810Y-21221905D01*
X81200000Y-21260000D01*
X81238095Y-21298095D01*
X81276191Y-21374286D01*
X81314286Y-21526667D01*
X81314286Y-21717143D01*
X81276191Y-21869524D01*
X81238095Y-21945714D01*
X81200000Y-21983810D01*
X81123810Y-22021905D01*
X81047619Y-22021905D01*
X80971429Y-21983810D01*
X80933333Y-21945714D01*
X80895238Y-21869524D01*
X80857143Y-21717143D01*
X80857143Y-21526667D01*
X80895238Y-21374286D01*
X80933333Y-21298095D01*
X80971429Y-21260000D01*
X81047619Y-21221905D01*
X81619048Y-21298095D02*
X81657143Y-21260000D01*
X81733334Y-21221905D01*
X81923810Y-21221905D01*
X82000000Y-21260000D01*
X82038096Y-21298095D01*
X82076191Y-21374286D01*
X82076191Y-21450476D01*
X82038096Y-21564762D01*
X81580953Y-22021905D01*
X82076191Y-22021905D01*
X67923810Y-21783333D02*
X68304762Y-21783333D01*
X67847619Y-22011905D02*
X68114286Y-21211905D01*
X68380953Y-22011905D01*
X68647619Y-22011905D02*
X68647619Y-21211905D01*
X68952381Y-21211905D01*
X69028572Y-21250000D01*
X69066667Y-21288095D01*
X69104762Y-21364286D01*
X69104762Y-21478571D01*
X69066667Y-21554762D01*
X69028572Y-21592857D01*
X68952381Y-21630952D01*
X68647619Y-21630952D01*
X69409524Y-21783333D02*
X69790476Y-21783333D01*
X69333333Y-22011905D02*
X69600000Y-21211905D01*
X69866667Y-22011905D01*
X70552381Y-22011905D02*
X70095238Y-22011905D01*
X70323809Y-22011905D02*
X70323809Y-21211905D01*
X70247619Y-21326190D01*
X70171428Y-21402381D01*
X70095238Y-21440476D01*
X71047619Y-21211905D02*
X71123810Y-21211905D01*
X71200000Y-21250000D01*
X71238095Y-21288095D01*
X71276191Y-21364286D01*
X71314286Y-21516667D01*
X71314286Y-21707143D01*
X71276191Y-21859524D01*
X71238095Y-21935714D01*
X71200000Y-21973810D01*
X71123810Y-22011905D01*
X71047619Y-22011905D01*
X70971429Y-21973810D01*
X70933333Y-21935714D01*
X70895238Y-21859524D01*
X70857143Y-21707143D01*
X70857143Y-21516667D01*
X70895238Y-21364286D01*
X70933333Y-21288095D01*
X70971429Y-21250000D01*
X71047619Y-21211905D01*
X71619048Y-21288095D02*
X71657143Y-21250000D01*
X71733334Y-21211905D01*
X71923810Y-21211905D01*
X72000000Y-21250000D01*
X72038096Y-21288095D01*
X72076191Y-21364286D01*
X72076191Y-21440476D01*
X72038096Y-21554762D01*
X71580953Y-22011905D01*
X72076191Y-22011905D01*
X97923810Y-60783333D02*
X98304762Y-60783333D01*
X97847619Y-61011905D02*
X98114286Y-60211905D01*
X98380953Y-61011905D01*
X98647619Y-61011905D02*
X98647619Y-60211905D01*
X98952381Y-60211905D01*
X99028572Y-60250000D01*
X99066667Y-60288095D01*
X99104762Y-60364286D01*
X99104762Y-60478571D01*
X99066667Y-60554762D01*
X99028572Y-60592857D01*
X98952381Y-60630952D01*
X98647619Y-60630952D01*
X99409524Y-60783333D02*
X99790476Y-60783333D01*
X99333333Y-61011905D02*
X99600000Y-60211905D01*
X99866667Y-61011905D01*
X100552381Y-61011905D02*
X100095238Y-61011905D01*
X100323809Y-61011905D02*
X100323809Y-60211905D01*
X100247619Y-60326190D01*
X100171428Y-60402381D01*
X100095238Y-60440476D01*
X101047619Y-60211905D02*
X101123810Y-60211905D01*
X101200000Y-60250000D01*
X101238095Y-60288095D01*
X101276191Y-60364286D01*
X101314286Y-60516667D01*
X101314286Y-60707143D01*
X101276191Y-60859524D01*
X101238095Y-60935714D01*
X101200000Y-60973810D01*
X101123810Y-61011905D01*
X101047619Y-61011905D01*
X100971429Y-60973810D01*
X100933333Y-60935714D01*
X100895238Y-60859524D01*
X100857143Y-60707143D01*
X100857143Y-60516667D01*
X100895238Y-60364286D01*
X100933333Y-60288095D01*
X100971429Y-60250000D01*
X101047619Y-60211905D01*
X101619048Y-60288095D02*
X101657143Y-60250000D01*
X101733334Y-60211905D01*
X101923810Y-60211905D01*
X102000000Y-60250000D01*
X102038096Y-60288095D01*
X102076191Y-60364286D01*
X102076191Y-60440476D01*
X102038096Y-60554762D01*
X101580953Y-61011905D01*
X102076191Y-61011905D01*
X115183333Y-43176190D02*
X115183333Y-42795238D01*
X115411905Y-43252381D02*
X114611905Y-42985714D01*
X115411905Y-42719047D01*
X115411905Y-42452381D02*
X114611905Y-42452381D01*
X114611905Y-42147619D01*
X114650000Y-42071428D01*
X114688095Y-42033333D01*
X114764286Y-41995238D01*
X114878571Y-41995238D01*
X114954762Y-42033333D01*
X114992857Y-42071428D01*
X115030952Y-42147619D01*
X115030952Y-42452381D01*
X115183333Y-41690476D02*
X115183333Y-41309524D01*
X115411905Y-41766667D02*
X114611905Y-41500000D01*
X115411905Y-41233333D01*
X115411905Y-40547619D02*
X115411905Y-41004762D01*
X115411905Y-40776191D02*
X114611905Y-40776191D01*
X114726190Y-40852381D01*
X114802381Y-40928572D01*
X114840476Y-41004762D01*
X114611905Y-40052381D02*
X114611905Y-39976190D01*
X114650000Y-39900000D01*
X114688095Y-39861905D01*
X114764286Y-39823809D01*
X114916667Y-39785714D01*
X115107143Y-39785714D01*
X115259524Y-39823809D01*
X115335714Y-39861905D01*
X115373810Y-39900000D01*
X115411905Y-39976190D01*
X115411905Y-40052381D01*
X115373810Y-40128571D01*
X115335714Y-40166667D01*
X115259524Y-40204762D01*
X115107143Y-40242857D01*
X114916667Y-40242857D01*
X114764286Y-40204762D01*
X114688095Y-40166667D01*
X114650000Y-40128571D01*
X114611905Y-40052381D01*
X114688095Y-39480952D02*
X114650000Y-39442857D01*
X114611905Y-39366666D01*
X114611905Y-39176190D01*
X114650000Y-39100000D01*
X114688095Y-39061904D01*
X114764286Y-39023809D01*
X114840476Y-39023809D01*
X114954762Y-39061904D01*
X115411905Y-39519047D01*
X115411905Y-39023809D01*
X108483333Y-43176190D02*
X108483333Y-42795238D01*
X108711905Y-43252381D02*
X107911905Y-42985714D01*
X108711905Y-42719047D01*
X108711905Y-42452381D02*
X107911905Y-42452381D01*
X107911905Y-42147619D01*
X107950000Y-42071428D01*
X107988095Y-42033333D01*
X108064286Y-41995238D01*
X108178571Y-41995238D01*
X108254762Y-42033333D01*
X108292857Y-42071428D01*
X108330952Y-42147619D01*
X108330952Y-42452381D01*
X108483333Y-41690476D02*
X108483333Y-41309524D01*
X108711905Y-41766667D02*
X107911905Y-41500000D01*
X108711905Y-41233333D01*
X108711905Y-40547619D02*
X108711905Y-41004762D01*
X108711905Y-40776191D02*
X107911905Y-40776191D01*
X108026190Y-40852381D01*
X108102381Y-40928572D01*
X108140476Y-41004762D01*
X107911905Y-40052381D02*
X107911905Y-39976190D01*
X107950000Y-39900000D01*
X107988095Y-39861905D01*
X108064286Y-39823809D01*
X108216667Y-39785714D01*
X108407143Y-39785714D01*
X108559524Y-39823809D01*
X108635714Y-39861905D01*
X108673810Y-39900000D01*
X108711905Y-39976190D01*
X108711905Y-40052381D01*
X108673810Y-40128571D01*
X108635714Y-40166667D01*
X108559524Y-40204762D01*
X108407143Y-40242857D01*
X108216667Y-40242857D01*
X108064286Y-40204762D01*
X107988095Y-40166667D01*
X107950000Y-40128571D01*
X107911905Y-40052381D01*
X107988095Y-39480952D02*
X107950000Y-39442857D01*
X107911905Y-39366666D01*
X107911905Y-39176190D01*
X107950000Y-39100000D01*
X107988095Y-39061904D01*
X108064286Y-39023809D01*
X108140476Y-39023809D01*
X108254762Y-39061904D01*
X108711905Y-39519047D01*
X108711905Y-39023809D01*
X97923810Y-21783333D02*
X98304762Y-21783333D01*
X97847619Y-22011905D02*
X98114286Y-21211905D01*
X98380953Y-22011905D01*
X98647619Y-22011905D02*
X98647619Y-21211905D01*
X98952381Y-21211905D01*
X99028572Y-21250000D01*
X99066667Y-21288095D01*
X99104762Y-21364286D01*
X99104762Y-21478571D01*
X99066667Y-21554762D01*
X99028572Y-21592857D01*
X98952381Y-21630952D01*
X98647619Y-21630952D01*
X99409524Y-21783333D02*
X99790476Y-21783333D01*
X99333333Y-22011905D02*
X99600000Y-21211905D01*
X99866667Y-22011905D01*
X100552381Y-22011905D02*
X100095238Y-22011905D01*
X100323809Y-22011905D02*
X100323809Y-21211905D01*
X100247619Y-21326190D01*
X100171428Y-21402381D01*
X100095238Y-21440476D01*
X101047619Y-21211905D02*
X101123810Y-21211905D01*
X101200000Y-21250000D01*
X101238095Y-21288095D01*
X101276191Y-21364286D01*
X101314286Y-21516667D01*
X101314286Y-21707143D01*
X101276191Y-21859524D01*
X101238095Y-21935714D01*
X101200000Y-21973810D01*
X101123810Y-22011905D01*
X101047619Y-22011905D01*
X100971429Y-21973810D01*
X100933333Y-21935714D01*
X100895238Y-21859524D01*
X100857143Y-21707143D01*
X100857143Y-21516667D01*
X100895238Y-21364286D01*
X100933333Y-21288095D01*
X100971429Y-21250000D01*
X101047619Y-21211905D01*
X101619048Y-21288095D02*
X101657143Y-21250000D01*
X101733334Y-21211905D01*
X101923810Y-21211905D01*
X102000000Y-21250000D01*
X102038096Y-21288095D01*
X102076191Y-21364286D01*
X102076191Y-21440476D01*
X102038096Y-21554762D01*
X101580953Y-22011905D01*
X102076191Y-22011905D01*
X97923810Y-28183333D02*
X98304762Y-28183333D01*
X97847619Y-28411905D02*
X98114286Y-27611905D01*
X98380953Y-28411905D01*
X98647619Y-28411905D02*
X98647619Y-27611905D01*
X98952381Y-27611905D01*
X99028572Y-27650000D01*
X99066667Y-27688095D01*
X99104762Y-27764286D01*
X99104762Y-27878571D01*
X99066667Y-27954762D01*
X99028572Y-27992857D01*
X98952381Y-28030952D01*
X98647619Y-28030952D01*
X99409524Y-28183333D02*
X99790476Y-28183333D01*
X99333333Y-28411905D02*
X99600000Y-27611905D01*
X99866667Y-28411905D01*
X100552381Y-28411905D02*
X100095238Y-28411905D01*
X100323809Y-28411905D02*
X100323809Y-27611905D01*
X100247619Y-27726190D01*
X100171428Y-27802381D01*
X100095238Y-27840476D01*
X101047619Y-27611905D02*
X101123810Y-27611905D01*
X101200000Y-27650000D01*
X101238095Y-27688095D01*
X101276191Y-27764286D01*
X101314286Y-27916667D01*
X101314286Y-28107143D01*
X101276191Y-28259524D01*
X101238095Y-28335714D01*
X101200000Y-28373810D01*
X101123810Y-28411905D01*
X101047619Y-28411905D01*
X100971429Y-28373810D01*
X100933333Y-28335714D01*
X100895238Y-28259524D01*
X100857143Y-28107143D01*
X100857143Y-27916667D01*
X100895238Y-27764286D01*
X100933333Y-27688095D01*
X100971429Y-27650000D01*
X101047619Y-27611905D01*
X101619048Y-27688095D02*
X101657143Y-27650000D01*
X101733334Y-27611905D01*
X101923810Y-27611905D01*
X102000000Y-27650000D01*
X102038096Y-27688095D01*
X102076191Y-27764286D01*
X102076191Y-27840476D01*
X102038096Y-27954762D01*
X101580953Y-28411905D01*
X102076191Y-28411905D01*
X121883333Y-43176190D02*
X121883333Y-42795238D01*
X122111905Y-43252381D02*
X121311905Y-42985714D01*
X122111905Y-42719047D01*
X122111905Y-42452381D02*
X121311905Y-42452381D01*
X121311905Y-42147619D01*
X121350000Y-42071428D01*
X121388095Y-42033333D01*
X121464286Y-41995238D01*
X121578571Y-41995238D01*
X121654762Y-42033333D01*
X121692857Y-42071428D01*
X121730952Y-42147619D01*
X121730952Y-42452381D01*
X121883333Y-41690476D02*
X121883333Y-41309524D01*
X122111905Y-41766667D02*
X121311905Y-41500000D01*
X122111905Y-41233333D01*
X122111905Y-40547619D02*
X122111905Y-41004762D01*
X122111905Y-40776191D02*
X121311905Y-40776191D01*
X121426190Y-40852381D01*
X121502381Y-40928572D01*
X121540476Y-41004762D01*
X121311905Y-40052381D02*
X121311905Y-39976190D01*
X121350000Y-39900000D01*
X121388095Y-39861905D01*
X121464286Y-39823809D01*
X121616667Y-39785714D01*
X121807143Y-39785714D01*
X121959524Y-39823809D01*
X122035714Y-39861905D01*
X122073810Y-39900000D01*
X122111905Y-39976190D01*
X122111905Y-40052381D01*
X122073810Y-40128571D01*
X122035714Y-40166667D01*
X121959524Y-40204762D01*
X121807143Y-40242857D01*
X121616667Y-40242857D01*
X121464286Y-40204762D01*
X121388095Y-40166667D01*
X121350000Y-40128571D01*
X121311905Y-40052381D01*
X121388095Y-39480952D02*
X121350000Y-39442857D01*
X121311905Y-39366666D01*
X121311905Y-39176190D01*
X121350000Y-39100000D01*
X121388095Y-39061904D01*
X121464286Y-39023809D01*
X121540476Y-39023809D01*
X121654762Y-39061904D01*
X122111905Y-39519047D01*
X122111905Y-39023809D01*
X125923810Y-54233333D02*
X126304762Y-54233333D01*
X125847619Y-54461905D02*
X126114286Y-53661905D01*
X126380953Y-54461905D01*
X126647619Y-54461905D02*
X126647619Y-53661905D01*
X126952381Y-53661905D01*
X127028572Y-53700000D01*
X127066667Y-53738095D01*
X127104762Y-53814286D01*
X127104762Y-53928571D01*
X127066667Y-54004762D01*
X127028572Y-54042857D01*
X126952381Y-54080952D01*
X126647619Y-54080952D01*
X127409524Y-54233333D02*
X127790476Y-54233333D01*
X127333333Y-54461905D02*
X127600000Y-53661905D01*
X127866667Y-54461905D01*
X128552381Y-54461905D02*
X128095238Y-54461905D01*
X128323809Y-54461905D02*
X128323809Y-53661905D01*
X128247619Y-53776190D01*
X128171428Y-53852381D01*
X128095238Y-53890476D01*
X129047619Y-53661905D02*
X129123810Y-53661905D01*
X129200000Y-53700000D01*
X129238095Y-53738095D01*
X129276191Y-53814286D01*
X129314286Y-53966667D01*
X129314286Y-54157143D01*
X129276191Y-54309524D01*
X129238095Y-54385714D01*
X129200000Y-54423810D01*
X129123810Y-54461905D01*
X129047619Y-54461905D01*
X128971429Y-54423810D01*
X128933333Y-54385714D01*
X128895238Y-54309524D01*
X128857143Y-54157143D01*
X128857143Y-53966667D01*
X128895238Y-53814286D01*
X128933333Y-53738095D01*
X128971429Y-53700000D01*
X129047619Y-53661905D01*
X129619048Y-53738095D02*
X129657143Y-53700000D01*
X129733334Y-53661905D01*
X129923810Y-53661905D01*
X130000000Y-53700000D01*
X130038096Y-53738095D01*
X130076191Y-53814286D01*
X130076191Y-53890476D01*
X130038096Y-54004762D01*
X129580953Y-54461905D01*
X130076191Y-54461905D01*
X125923810Y-60743333D02*
X126304762Y-60743333D01*
X125847619Y-60971905D02*
X126114286Y-60171905D01*
X126380953Y-60971905D01*
X126647619Y-60971905D02*
X126647619Y-60171905D01*
X126952381Y-60171905D01*
X127028572Y-60210000D01*
X127066667Y-60248095D01*
X127104762Y-60324286D01*
X127104762Y-60438571D01*
X127066667Y-60514762D01*
X127028572Y-60552857D01*
X126952381Y-60590952D01*
X126647619Y-60590952D01*
X127409524Y-60743333D02*
X127790476Y-60743333D01*
X127333333Y-60971905D02*
X127600000Y-60171905D01*
X127866667Y-60971905D01*
X128552381Y-60971905D02*
X128095238Y-60971905D01*
X128323809Y-60971905D02*
X128323809Y-60171905D01*
X128247619Y-60286190D01*
X128171428Y-60362381D01*
X128095238Y-60400476D01*
X129047619Y-60171905D02*
X129123810Y-60171905D01*
X129200000Y-60210000D01*
X129238095Y-60248095D01*
X129276191Y-60324286D01*
X129314286Y-60476667D01*
X129314286Y-60667143D01*
X129276191Y-60819524D01*
X129238095Y-60895714D01*
X129200000Y-60933810D01*
X129123810Y-60971905D01*
X129047619Y-60971905D01*
X128971429Y-60933810D01*
X128933333Y-60895714D01*
X128895238Y-60819524D01*
X128857143Y-60667143D01*
X128857143Y-60476667D01*
X128895238Y-60324286D01*
X128933333Y-60248095D01*
X128971429Y-60210000D01*
X129047619Y-60171905D01*
X129619048Y-60248095D02*
X129657143Y-60210000D01*
X129733334Y-60171905D01*
X129923810Y-60171905D01*
X130000000Y-60210000D01*
X130038096Y-60248095D01*
X130076191Y-60324286D01*
X130076191Y-60400476D01*
X130038096Y-60514762D01*
X129580953Y-60971905D01*
X130076191Y-60971905D01*
X125923810Y-47733333D02*
X126304762Y-47733333D01*
X125847619Y-47961905D02*
X126114286Y-47161905D01*
X126380953Y-47961905D01*
X126647619Y-47961905D02*
X126647619Y-47161905D01*
X126952381Y-47161905D01*
X127028572Y-47200000D01*
X127066667Y-47238095D01*
X127104762Y-47314286D01*
X127104762Y-47428571D01*
X127066667Y-47504762D01*
X127028572Y-47542857D01*
X126952381Y-47580952D01*
X126647619Y-47580952D01*
X127409524Y-47733333D02*
X127790476Y-47733333D01*
X127333333Y-47961905D02*
X127600000Y-47161905D01*
X127866667Y-47961905D01*
X128552381Y-47961905D02*
X128095238Y-47961905D01*
X128323809Y-47961905D02*
X128323809Y-47161905D01*
X128247619Y-47276190D01*
X128171428Y-47352381D01*
X128095238Y-47390476D01*
X129047619Y-47161905D02*
X129123810Y-47161905D01*
X129200000Y-47200000D01*
X129238095Y-47238095D01*
X129276191Y-47314286D01*
X129314286Y-47466667D01*
X129314286Y-47657143D01*
X129276191Y-47809524D01*
X129238095Y-47885714D01*
X129200000Y-47923810D01*
X129123810Y-47961905D01*
X129047619Y-47961905D01*
X128971429Y-47923810D01*
X128933333Y-47885714D01*
X128895238Y-47809524D01*
X128857143Y-47657143D01*
X128857143Y-47466667D01*
X128895238Y-47314286D01*
X128933333Y-47238095D01*
X128971429Y-47200000D01*
X129047619Y-47161905D01*
X129619048Y-47238095D02*
X129657143Y-47200000D01*
X129733334Y-47161905D01*
X129923810Y-47161905D01*
X130000000Y-47200000D01*
X130038096Y-47238095D01*
X130076191Y-47314286D01*
X130076191Y-47390476D01*
X130038096Y-47504762D01*
X129580953Y-47961905D01*
X130076191Y-47961905D01*
X147283333Y-42776190D02*
X147283333Y-42395238D01*
X147511905Y-42852381D02*
X146711905Y-42585714D01*
X147511905Y-42319047D01*
X147511905Y-42052381D02*
X146711905Y-42052381D01*
X146711905Y-41747619D01*
X146750000Y-41671428D01*
X146788095Y-41633333D01*
X146864286Y-41595238D01*
X146978571Y-41595238D01*
X147054762Y-41633333D01*
X147092857Y-41671428D01*
X147130952Y-41747619D01*
X147130952Y-42052381D01*
X147283333Y-41290476D02*
X147283333Y-40909524D01*
X147511905Y-41366667D02*
X146711905Y-41100000D01*
X147511905Y-40833333D01*
X147511905Y-40147619D02*
X147511905Y-40604762D01*
X147511905Y-40376191D02*
X146711905Y-40376191D01*
X146826190Y-40452381D01*
X146902381Y-40528572D01*
X146940476Y-40604762D01*
X146711905Y-39652381D02*
X146711905Y-39576190D01*
X146750000Y-39500000D01*
X146788095Y-39461905D01*
X146864286Y-39423809D01*
X147016667Y-39385714D01*
X147207143Y-39385714D01*
X147359524Y-39423809D01*
X147435714Y-39461905D01*
X147473810Y-39500000D01*
X147511905Y-39576190D01*
X147511905Y-39652381D01*
X147473810Y-39728571D01*
X147435714Y-39766667D01*
X147359524Y-39804762D01*
X147207143Y-39842857D01*
X147016667Y-39842857D01*
X146864286Y-39804762D01*
X146788095Y-39766667D01*
X146750000Y-39728571D01*
X146711905Y-39652381D01*
X146788095Y-39080952D02*
X146750000Y-39042857D01*
X146711905Y-38966666D01*
X146711905Y-38776190D01*
X146750000Y-38700000D01*
X146788095Y-38661904D01*
X146864286Y-38623809D01*
X146940476Y-38623809D01*
X147054762Y-38661904D01*
X147511905Y-39119047D01*
X147511905Y-38623809D01*
X140583333Y-42776190D02*
X140583333Y-42395238D01*
X140811905Y-42852381D02*
X140011905Y-42585714D01*
X140811905Y-42319047D01*
X140811905Y-42052381D02*
X140011905Y-42052381D01*
X140011905Y-41747619D01*
X140050000Y-41671428D01*
X140088095Y-41633333D01*
X140164286Y-41595238D01*
X140278571Y-41595238D01*
X140354762Y-41633333D01*
X140392857Y-41671428D01*
X140430952Y-41747619D01*
X140430952Y-42052381D01*
X140583333Y-41290476D02*
X140583333Y-40909524D01*
X140811905Y-41366667D02*
X140011905Y-41100000D01*
X140811905Y-40833333D01*
X140811905Y-40147619D02*
X140811905Y-40604762D01*
X140811905Y-40376191D02*
X140011905Y-40376191D01*
X140126190Y-40452381D01*
X140202381Y-40528572D01*
X140240476Y-40604762D01*
X140011905Y-39652381D02*
X140011905Y-39576190D01*
X140050000Y-39500000D01*
X140088095Y-39461905D01*
X140164286Y-39423809D01*
X140316667Y-39385714D01*
X140507143Y-39385714D01*
X140659524Y-39423809D01*
X140735714Y-39461905D01*
X140773810Y-39500000D01*
X140811905Y-39576190D01*
X140811905Y-39652381D01*
X140773810Y-39728571D01*
X140735714Y-39766667D01*
X140659524Y-39804762D01*
X140507143Y-39842857D01*
X140316667Y-39842857D01*
X140164286Y-39804762D01*
X140088095Y-39766667D01*
X140050000Y-39728571D01*
X140011905Y-39652381D01*
X140088095Y-39080952D02*
X140050000Y-39042857D01*
X140011905Y-38966666D01*
X140011905Y-38776190D01*
X140050000Y-38700000D01*
X140088095Y-38661904D01*
X140164286Y-38623809D01*
X140240476Y-38623809D01*
X140354762Y-38661904D01*
X140811905Y-39119047D01*
X140811905Y-38623809D01*
X125523810Y-41293333D02*
X125904762Y-41293333D01*
X125447619Y-41521905D02*
X125714286Y-40721905D01*
X125980953Y-41521905D01*
X126247619Y-41521905D02*
X126247619Y-40721905D01*
X126552381Y-40721905D01*
X126628572Y-40760000D01*
X126666667Y-40798095D01*
X126704762Y-40874286D01*
X126704762Y-40988571D01*
X126666667Y-41064762D01*
X126628572Y-41102857D01*
X126552381Y-41140952D01*
X126247619Y-41140952D01*
X127009524Y-41293333D02*
X127390476Y-41293333D01*
X126933333Y-41521905D02*
X127200000Y-40721905D01*
X127466667Y-41521905D01*
X128152381Y-41521905D02*
X127695238Y-41521905D01*
X127923809Y-41521905D02*
X127923809Y-40721905D01*
X127847619Y-40836190D01*
X127771428Y-40912381D01*
X127695238Y-40950476D01*
X128647619Y-40721905D02*
X128723810Y-40721905D01*
X128800000Y-40760000D01*
X128838095Y-40798095D01*
X128876191Y-40874286D01*
X128914286Y-41026667D01*
X128914286Y-41217143D01*
X128876191Y-41369524D01*
X128838095Y-41445714D01*
X128800000Y-41483810D01*
X128723810Y-41521905D01*
X128647619Y-41521905D01*
X128571429Y-41483810D01*
X128533333Y-41445714D01*
X128495238Y-41369524D01*
X128457143Y-41217143D01*
X128457143Y-41026667D01*
X128495238Y-40874286D01*
X128533333Y-40798095D01*
X128571429Y-40760000D01*
X128647619Y-40721905D01*
X129219048Y-40798095D02*
X129257143Y-40760000D01*
X129333334Y-40721905D01*
X129523810Y-40721905D01*
X129600000Y-40760000D01*
X129638096Y-40798095D01*
X129676191Y-40874286D01*
X129676191Y-40950476D01*
X129638096Y-41064762D01*
X129180953Y-41521905D01*
X129676191Y-41521905D01*
X133883333Y-42776190D02*
X133883333Y-42395238D01*
X134111905Y-42852381D02*
X133311905Y-42585714D01*
X134111905Y-42319047D01*
X134111905Y-42052381D02*
X133311905Y-42052381D01*
X133311905Y-41747619D01*
X133350000Y-41671428D01*
X133388095Y-41633333D01*
X133464286Y-41595238D01*
X133578571Y-41595238D01*
X133654762Y-41633333D01*
X133692857Y-41671428D01*
X133730952Y-41747619D01*
X133730952Y-42052381D01*
X133883333Y-41290476D02*
X133883333Y-40909524D01*
X134111905Y-41366667D02*
X133311905Y-41100000D01*
X134111905Y-40833333D01*
X134111905Y-40147619D02*
X134111905Y-40604762D01*
X134111905Y-40376191D02*
X133311905Y-40376191D01*
X133426190Y-40452381D01*
X133502381Y-40528572D01*
X133540476Y-40604762D01*
X133311905Y-39652381D02*
X133311905Y-39576190D01*
X133350000Y-39500000D01*
X133388095Y-39461905D01*
X133464286Y-39423809D01*
X133616667Y-39385714D01*
X133807143Y-39385714D01*
X133959524Y-39423809D01*
X134035714Y-39461905D01*
X134073810Y-39500000D01*
X134111905Y-39576190D01*
X134111905Y-39652381D01*
X134073810Y-39728571D01*
X134035714Y-39766667D01*
X133959524Y-39804762D01*
X133807143Y-39842857D01*
X133616667Y-39842857D01*
X133464286Y-39804762D01*
X133388095Y-39766667D01*
X133350000Y-39728571D01*
X133311905Y-39652381D01*
X133388095Y-39080952D02*
X133350000Y-39042857D01*
X133311905Y-38966666D01*
X133311905Y-38776190D01*
X133350000Y-38700000D01*
X133388095Y-38661904D01*
X133464286Y-38623809D01*
X133540476Y-38623809D01*
X133654762Y-38661904D01*
X134111905Y-39119047D01*
X134111905Y-38623809D01*
X125523810Y-34793333D02*
X125904762Y-34793333D01*
X125447619Y-35021905D02*
X125714286Y-34221905D01*
X125980953Y-35021905D01*
X126247619Y-35021905D02*
X126247619Y-34221905D01*
X126552381Y-34221905D01*
X126628572Y-34260000D01*
X126666667Y-34298095D01*
X126704762Y-34374286D01*
X126704762Y-34488571D01*
X126666667Y-34564762D01*
X126628572Y-34602857D01*
X126552381Y-34640952D01*
X126247619Y-34640952D01*
X127009524Y-34793333D02*
X127390476Y-34793333D01*
X126933333Y-35021905D02*
X127200000Y-34221905D01*
X127466667Y-35021905D01*
X128152381Y-35021905D02*
X127695238Y-35021905D01*
X127923809Y-35021905D02*
X127923809Y-34221905D01*
X127847619Y-34336190D01*
X127771428Y-34412381D01*
X127695238Y-34450476D01*
X128647619Y-34221905D02*
X128723810Y-34221905D01*
X128800000Y-34260000D01*
X128838095Y-34298095D01*
X128876191Y-34374286D01*
X128914286Y-34526667D01*
X128914286Y-34717143D01*
X128876191Y-34869524D01*
X128838095Y-34945714D01*
X128800000Y-34983810D01*
X128723810Y-35021905D01*
X128647619Y-35021905D01*
X128571429Y-34983810D01*
X128533333Y-34945714D01*
X128495238Y-34869524D01*
X128457143Y-34717143D01*
X128457143Y-34526667D01*
X128495238Y-34374286D01*
X128533333Y-34298095D01*
X128571429Y-34260000D01*
X128647619Y-34221905D01*
X129219048Y-34298095D02*
X129257143Y-34260000D01*
X129333334Y-34221905D01*
X129523810Y-34221905D01*
X129600000Y-34260000D01*
X129638096Y-34298095D01*
X129676191Y-34374286D01*
X129676191Y-34450476D01*
X129638096Y-34564762D01*
X129180953Y-35021905D01*
X129676191Y-35021905D01*
X125523810Y-21793333D02*
X125904762Y-21793333D01*
X125447619Y-22021905D02*
X125714286Y-21221905D01*
X125980953Y-22021905D01*
X126247619Y-22021905D02*
X126247619Y-21221905D01*
X126552381Y-21221905D01*
X126628572Y-21260000D01*
X126666667Y-21298095D01*
X126704762Y-21374286D01*
X126704762Y-21488571D01*
X126666667Y-21564762D01*
X126628572Y-21602857D01*
X126552381Y-21640952D01*
X126247619Y-21640952D01*
X127009524Y-21793333D02*
X127390476Y-21793333D01*
X126933333Y-22021905D02*
X127200000Y-21221905D01*
X127466667Y-22021905D01*
X128152381Y-22021905D02*
X127695238Y-22021905D01*
X127923809Y-22021905D02*
X127923809Y-21221905D01*
X127847619Y-21336190D01*
X127771428Y-21412381D01*
X127695238Y-21450476D01*
X128647619Y-21221905D02*
X128723810Y-21221905D01*
X128800000Y-21260000D01*
X128838095Y-21298095D01*
X128876191Y-21374286D01*
X128914286Y-21526667D01*
X128914286Y-21717143D01*
X128876191Y-21869524D01*
X128838095Y-21945714D01*
X128800000Y-21983810D01*
X128723810Y-22021905D01*
X128647619Y-22021905D01*
X128571429Y-21983810D01*
X128533333Y-21945714D01*
X128495238Y-21869524D01*
X128457143Y-21717143D01*
X128457143Y-21526667D01*
X128495238Y-21374286D01*
X128533333Y-21298095D01*
X128571429Y-21260000D01*
X128647619Y-21221905D01*
X129219048Y-21298095D02*
X129257143Y-21260000D01*
X129333334Y-21221905D01*
X129523810Y-21221905D01*
X129600000Y-21260000D01*
X129638096Y-21298095D01*
X129676191Y-21374286D01*
X129676191Y-21450476D01*
X129638096Y-21564762D01*
X129180953Y-22021905D01*
X129676191Y-22021905D01*
X125523810Y-28293333D02*
X125904762Y-28293333D01*
X125447619Y-28521905D02*
X125714286Y-27721905D01*
X125980953Y-28521905D01*
X126247619Y-28521905D02*
X126247619Y-27721905D01*
X126552381Y-27721905D01*
X126628572Y-27760000D01*
X126666667Y-27798095D01*
X126704762Y-27874286D01*
X126704762Y-27988571D01*
X126666667Y-28064762D01*
X126628572Y-28102857D01*
X126552381Y-28140952D01*
X126247619Y-28140952D01*
X127009524Y-28293333D02*
X127390476Y-28293333D01*
X126933333Y-28521905D02*
X127200000Y-27721905D01*
X127466667Y-28521905D01*
X128152381Y-28521905D02*
X127695238Y-28521905D01*
X127923809Y-28521905D02*
X127923809Y-27721905D01*
X127847619Y-27836190D01*
X127771428Y-27912381D01*
X127695238Y-27950476D01*
X128647619Y-27721905D02*
X128723810Y-27721905D01*
X128800000Y-27760000D01*
X128838095Y-27798095D01*
X128876191Y-27874286D01*
X128914286Y-28026667D01*
X128914286Y-28217143D01*
X128876191Y-28369524D01*
X128838095Y-28445714D01*
X128800000Y-28483810D01*
X128723810Y-28521905D01*
X128647619Y-28521905D01*
X128571429Y-28483810D01*
X128533333Y-28445714D01*
X128495238Y-28369524D01*
X128457143Y-28217143D01*
X128457143Y-28026667D01*
X128495238Y-27874286D01*
X128533333Y-27798095D01*
X128571429Y-27760000D01*
X128647619Y-27721905D01*
X129219048Y-27798095D02*
X129257143Y-27760000D01*
X129333334Y-27721905D01*
X129523810Y-27721905D01*
X129600000Y-27760000D01*
X129638096Y-27798095D01*
X129676191Y-27874286D01*
X129676191Y-27950476D01*
X129638096Y-28064762D01*
X129180953Y-28521905D01*
X129676191Y-28521905D01*
X77923810Y-60883333D02*
X78304762Y-60883333D01*
X77847619Y-61111905D02*
X78114286Y-60311905D01*
X78380953Y-61111905D01*
X78647619Y-61111905D02*
X78647619Y-60311905D01*
X78952381Y-60311905D01*
X79028572Y-60350000D01*
X79066667Y-60388095D01*
X79104762Y-60464286D01*
X79104762Y-60578571D01*
X79066667Y-60654762D01*
X79028572Y-60692857D01*
X78952381Y-60730952D01*
X78647619Y-60730952D01*
X79409524Y-60883333D02*
X79790476Y-60883333D01*
X79333333Y-61111905D02*
X79600000Y-60311905D01*
X79866667Y-61111905D01*
X80552381Y-61111905D02*
X80095238Y-61111905D01*
X80323809Y-61111905D02*
X80323809Y-60311905D01*
X80247619Y-60426190D01*
X80171428Y-60502381D01*
X80095238Y-60540476D01*
X81047619Y-60311905D02*
X81123810Y-60311905D01*
X81200000Y-60350000D01*
X81238095Y-60388095D01*
X81276191Y-60464286D01*
X81314286Y-60616667D01*
X81314286Y-60807143D01*
X81276191Y-60959524D01*
X81238095Y-61035714D01*
X81200000Y-61073810D01*
X81123810Y-61111905D01*
X81047619Y-61111905D01*
X80971429Y-61073810D01*
X80933333Y-61035714D01*
X80895238Y-60959524D01*
X80857143Y-60807143D01*
X80857143Y-60616667D01*
X80895238Y-60464286D01*
X80933333Y-60388095D01*
X80971429Y-60350000D01*
X81047619Y-60311905D01*
X81619048Y-60388095D02*
X81657143Y-60350000D01*
X81733334Y-60311905D01*
X81923810Y-60311905D01*
X82000000Y-60350000D01*
X82038096Y-60388095D01*
X82076191Y-60464286D01*
X82076191Y-60540476D01*
X82038096Y-60654762D01*
X81580953Y-61111905D01*
X82076191Y-61111905D01*
X77923810Y-54383333D02*
X78304762Y-54383333D01*
X77847619Y-54611905D02*
X78114286Y-53811905D01*
X78380953Y-54611905D01*
X78647619Y-54611905D02*
X78647619Y-53811905D01*
X78952381Y-53811905D01*
X79028572Y-53850000D01*
X79066667Y-53888095D01*
X79104762Y-53964286D01*
X79104762Y-54078571D01*
X79066667Y-54154762D01*
X79028572Y-54192857D01*
X78952381Y-54230952D01*
X78647619Y-54230952D01*
X79409524Y-54383333D02*
X79790476Y-54383333D01*
X79333333Y-54611905D02*
X79600000Y-53811905D01*
X79866667Y-54611905D01*
X80552381Y-54611905D02*
X80095238Y-54611905D01*
X80323809Y-54611905D02*
X80323809Y-53811905D01*
X80247619Y-53926190D01*
X80171428Y-54002381D01*
X80095238Y-54040476D01*
X81047619Y-53811905D02*
X81123810Y-53811905D01*
X81200000Y-53850000D01*
X81238095Y-53888095D01*
X81276191Y-53964286D01*
X81314286Y-54116667D01*
X81314286Y-54307143D01*
X81276191Y-54459524D01*
X81238095Y-54535714D01*
X81200000Y-54573810D01*
X81123810Y-54611905D01*
X81047619Y-54611905D01*
X80971429Y-54573810D01*
X80933333Y-54535714D01*
X80895238Y-54459524D01*
X80857143Y-54307143D01*
X80857143Y-54116667D01*
X80895238Y-53964286D01*
X80933333Y-53888095D01*
X80971429Y-53850000D01*
X81047619Y-53811905D01*
X81619048Y-53888095D02*
X81657143Y-53850000D01*
X81733334Y-53811905D01*
X81923810Y-53811905D01*
X82000000Y-53850000D01*
X82038096Y-53888095D01*
X82076191Y-53964286D01*
X82076191Y-54040476D01*
X82038096Y-54154762D01*
X81580953Y-54611905D01*
X82076191Y-54611905D01*
X87923810Y-54393333D02*
X88304762Y-54393333D01*
X87847619Y-54621905D02*
X88114286Y-53821905D01*
X88380953Y-54621905D01*
X88647619Y-54621905D02*
X88647619Y-53821905D01*
X88952381Y-53821905D01*
X89028572Y-53860000D01*
X89066667Y-53898095D01*
X89104762Y-53974286D01*
X89104762Y-54088571D01*
X89066667Y-54164762D01*
X89028572Y-54202857D01*
X88952381Y-54240952D01*
X88647619Y-54240952D01*
X89409524Y-54393333D02*
X89790476Y-54393333D01*
X89333333Y-54621905D02*
X89600000Y-53821905D01*
X89866667Y-54621905D01*
X90552381Y-54621905D02*
X90095238Y-54621905D01*
X90323809Y-54621905D02*
X90323809Y-53821905D01*
X90247619Y-53936190D01*
X90171428Y-54012381D01*
X90095238Y-54050476D01*
X91047619Y-53821905D02*
X91123810Y-53821905D01*
X91200000Y-53860000D01*
X91238095Y-53898095D01*
X91276191Y-53974286D01*
X91314286Y-54126667D01*
X91314286Y-54317143D01*
X91276191Y-54469524D01*
X91238095Y-54545714D01*
X91200000Y-54583810D01*
X91123810Y-54621905D01*
X91047619Y-54621905D01*
X90971429Y-54583810D01*
X90933333Y-54545714D01*
X90895238Y-54469524D01*
X90857143Y-54317143D01*
X90857143Y-54126667D01*
X90895238Y-53974286D01*
X90933333Y-53898095D01*
X90971429Y-53860000D01*
X91047619Y-53821905D01*
X91619048Y-53898095D02*
X91657143Y-53860000D01*
X91733334Y-53821905D01*
X91923810Y-53821905D01*
X92000000Y-53860000D01*
X92038096Y-53898095D01*
X92076191Y-53974286D01*
X92076191Y-54050476D01*
X92038096Y-54164762D01*
X91580953Y-54621905D01*
X92076191Y-54621905D01*
X87923810Y-60893333D02*
X88304762Y-60893333D01*
X87847619Y-61121905D02*
X88114286Y-60321905D01*
X88380953Y-61121905D01*
X88647619Y-61121905D02*
X88647619Y-60321905D01*
X88952381Y-60321905D01*
X89028572Y-60360000D01*
X89066667Y-60398095D01*
X89104762Y-60474286D01*
X89104762Y-60588571D01*
X89066667Y-60664762D01*
X89028572Y-60702857D01*
X88952381Y-60740952D01*
X88647619Y-60740952D01*
X89409524Y-60893333D02*
X89790476Y-60893333D01*
X89333333Y-61121905D02*
X89600000Y-60321905D01*
X89866667Y-61121905D01*
X90552381Y-61121905D02*
X90095238Y-61121905D01*
X90323809Y-61121905D02*
X90323809Y-60321905D01*
X90247619Y-60436190D01*
X90171428Y-60512381D01*
X90095238Y-60550476D01*
X91047619Y-60321905D02*
X91123810Y-60321905D01*
X91200000Y-60360000D01*
X91238095Y-60398095D01*
X91276191Y-60474286D01*
X91314286Y-60626667D01*
X91314286Y-60817143D01*
X91276191Y-60969524D01*
X91238095Y-61045714D01*
X91200000Y-61083810D01*
X91123810Y-61121905D01*
X91047619Y-61121905D01*
X90971429Y-61083810D01*
X90933333Y-61045714D01*
X90895238Y-60969524D01*
X90857143Y-60817143D01*
X90857143Y-60626667D01*
X90895238Y-60474286D01*
X90933333Y-60398095D01*
X90971429Y-60360000D01*
X91047619Y-60321905D01*
X91619048Y-60398095D02*
X91657143Y-60360000D01*
X91733334Y-60321905D01*
X91923810Y-60321905D01*
X92000000Y-60360000D01*
X92038096Y-60398095D01*
X92076191Y-60474286D01*
X92076191Y-60550476D01*
X92038096Y-60664762D01*
X91580953Y-61121905D01*
X92076191Y-61121905D01*
X67923810Y-28283333D02*
X68304762Y-28283333D01*
X67847619Y-28511905D02*
X68114286Y-27711905D01*
X68380953Y-28511905D01*
X68647619Y-28511905D02*
X68647619Y-27711905D01*
X68952381Y-27711905D01*
X69028572Y-27750000D01*
X69066667Y-27788095D01*
X69104762Y-27864286D01*
X69104762Y-27978571D01*
X69066667Y-28054762D01*
X69028572Y-28092857D01*
X68952381Y-28130952D01*
X68647619Y-28130952D01*
X69409524Y-28283333D02*
X69790476Y-28283333D01*
X69333333Y-28511905D02*
X69600000Y-27711905D01*
X69866667Y-28511905D01*
X70552381Y-28511905D02*
X70095238Y-28511905D01*
X70323809Y-28511905D02*
X70323809Y-27711905D01*
X70247619Y-27826190D01*
X70171428Y-27902381D01*
X70095238Y-27940476D01*
X71047619Y-27711905D02*
X71123810Y-27711905D01*
X71200000Y-27750000D01*
X71238095Y-27788095D01*
X71276191Y-27864286D01*
X71314286Y-28016667D01*
X71314286Y-28207143D01*
X71276191Y-28359524D01*
X71238095Y-28435714D01*
X71200000Y-28473810D01*
X71123810Y-28511905D01*
X71047619Y-28511905D01*
X70971429Y-28473810D01*
X70933333Y-28435714D01*
X70895238Y-28359524D01*
X70857143Y-28207143D01*
X70857143Y-28016667D01*
X70895238Y-27864286D01*
X70933333Y-27788095D01*
X70971429Y-27750000D01*
X71047619Y-27711905D01*
X71619048Y-27788095D02*
X71657143Y-27750000D01*
X71733334Y-27711905D01*
X71923810Y-27711905D01*
X72000000Y-27750000D01*
X72038096Y-27788095D01*
X72076191Y-27864286D01*
X72076191Y-27940476D01*
X72038096Y-28054762D01*
X71580953Y-28511905D01*
X72076191Y-28511905D01*
X67923810Y-34783333D02*
X68304762Y-34783333D01*
X67847619Y-35011905D02*
X68114286Y-34211905D01*
X68380953Y-35011905D01*
X68647619Y-35011905D02*
X68647619Y-34211905D01*
X68952381Y-34211905D01*
X69028572Y-34250000D01*
X69066667Y-34288095D01*
X69104762Y-34364286D01*
X69104762Y-34478571D01*
X69066667Y-34554762D01*
X69028572Y-34592857D01*
X68952381Y-34630952D01*
X68647619Y-34630952D01*
X69409524Y-34783333D02*
X69790476Y-34783333D01*
X69333333Y-35011905D02*
X69600000Y-34211905D01*
X69866667Y-35011905D01*
X70552381Y-35011905D02*
X70095238Y-35011905D01*
X70323809Y-35011905D02*
X70323809Y-34211905D01*
X70247619Y-34326190D01*
X70171428Y-34402381D01*
X70095238Y-34440476D01*
X71047619Y-34211905D02*
X71123810Y-34211905D01*
X71200000Y-34250000D01*
X71238095Y-34288095D01*
X71276191Y-34364286D01*
X71314286Y-34516667D01*
X71314286Y-34707143D01*
X71276191Y-34859524D01*
X71238095Y-34935714D01*
X71200000Y-34973810D01*
X71123810Y-35011905D01*
X71047619Y-35011905D01*
X70971429Y-34973810D01*
X70933333Y-34935714D01*
X70895238Y-34859524D01*
X70857143Y-34707143D01*
X70857143Y-34516667D01*
X70895238Y-34364286D01*
X70933333Y-34288095D01*
X70971429Y-34250000D01*
X71047619Y-34211905D01*
X71619048Y-34288095D02*
X71657143Y-34250000D01*
X71733334Y-34211905D01*
X71923810Y-34211905D01*
X72000000Y-34250000D01*
X72038096Y-34288095D01*
X72076191Y-34364286D01*
X72076191Y-34440476D01*
X72038096Y-34554762D01*
X71580953Y-35011905D01*
X72076191Y-35011905D01*
X67923810Y-41283333D02*
X68304762Y-41283333D01*
X67847619Y-41511905D02*
X68114286Y-40711905D01*
X68380953Y-41511905D01*
X68647619Y-41511905D02*
X68647619Y-40711905D01*
X68952381Y-40711905D01*
X69028572Y-40750000D01*
X69066667Y-40788095D01*
X69104762Y-40864286D01*
X69104762Y-40978571D01*
X69066667Y-41054762D01*
X69028572Y-41092857D01*
X68952381Y-41130952D01*
X68647619Y-41130952D01*
X69409524Y-41283333D02*
X69790476Y-41283333D01*
X69333333Y-41511905D02*
X69600000Y-40711905D01*
X69866667Y-41511905D01*
X70552381Y-41511905D02*
X70095238Y-41511905D01*
X70323809Y-41511905D02*
X70323809Y-40711905D01*
X70247619Y-40826190D01*
X70171428Y-40902381D01*
X70095238Y-40940476D01*
X71047619Y-40711905D02*
X71123810Y-40711905D01*
X71200000Y-40750000D01*
X71238095Y-40788095D01*
X71276191Y-40864286D01*
X71314286Y-41016667D01*
X71314286Y-41207143D01*
X71276191Y-41359524D01*
X71238095Y-41435714D01*
X71200000Y-41473810D01*
X71123810Y-41511905D01*
X71047619Y-41511905D01*
X70971429Y-41473810D01*
X70933333Y-41435714D01*
X70895238Y-41359524D01*
X70857143Y-41207143D01*
X70857143Y-41016667D01*
X70895238Y-40864286D01*
X70933333Y-40788095D01*
X70971429Y-40750000D01*
X71047619Y-40711905D01*
X71619048Y-40788095D02*
X71657143Y-40750000D01*
X71733334Y-40711905D01*
X71923810Y-40711905D01*
X72000000Y-40750000D01*
X72038096Y-40788095D01*
X72076191Y-40864286D01*
X72076191Y-40940476D01*
X72038096Y-41054762D01*
X71580953Y-41511905D01*
X72076191Y-41511905D01*
X87923810Y-41293333D02*
X88304762Y-41293333D01*
X87847619Y-41521905D02*
X88114286Y-40721905D01*
X88380953Y-41521905D01*
X88647619Y-41521905D02*
X88647619Y-40721905D01*
X88952381Y-40721905D01*
X89028572Y-40760000D01*
X89066667Y-40798095D01*
X89104762Y-40874286D01*
X89104762Y-40988571D01*
X89066667Y-41064762D01*
X89028572Y-41102857D01*
X88952381Y-41140952D01*
X88647619Y-41140952D01*
X89409524Y-41293333D02*
X89790476Y-41293333D01*
X89333333Y-41521905D02*
X89600000Y-40721905D01*
X89866667Y-41521905D01*
X90552381Y-41521905D02*
X90095238Y-41521905D01*
X90323809Y-41521905D02*
X90323809Y-40721905D01*
X90247619Y-40836190D01*
X90171428Y-40912381D01*
X90095238Y-40950476D01*
X91047619Y-40721905D02*
X91123810Y-40721905D01*
X91200000Y-40760000D01*
X91238095Y-40798095D01*
X91276191Y-40874286D01*
X91314286Y-41026667D01*
X91314286Y-41217143D01*
X91276191Y-41369524D01*
X91238095Y-41445714D01*
X91200000Y-41483810D01*
X91123810Y-41521905D01*
X91047619Y-41521905D01*
X90971429Y-41483810D01*
X90933333Y-41445714D01*
X90895238Y-41369524D01*
X90857143Y-41217143D01*
X90857143Y-41026667D01*
X90895238Y-40874286D01*
X90933333Y-40798095D01*
X90971429Y-40760000D01*
X91047619Y-40721905D01*
X91619048Y-40798095D02*
X91657143Y-40760000D01*
X91733334Y-40721905D01*
X91923810Y-40721905D01*
X92000000Y-40760000D01*
X92038096Y-40798095D01*
X92076191Y-40874286D01*
X92076191Y-40950476D01*
X92038096Y-41064762D01*
X91580953Y-41521905D01*
X92076191Y-41521905D01*
X87923810Y-34793333D02*
X88304762Y-34793333D01*
X87847619Y-35021905D02*
X88114286Y-34221905D01*
X88380953Y-35021905D01*
X88647619Y-35021905D02*
X88647619Y-34221905D01*
X88952381Y-34221905D01*
X89028572Y-34260000D01*
X89066667Y-34298095D01*
X89104762Y-34374286D01*
X89104762Y-34488571D01*
X89066667Y-34564762D01*
X89028572Y-34602857D01*
X88952381Y-34640952D01*
X88647619Y-34640952D01*
X89409524Y-34793333D02*
X89790476Y-34793333D01*
X89333333Y-35021905D02*
X89600000Y-34221905D01*
X89866667Y-35021905D01*
X90552381Y-35021905D02*
X90095238Y-35021905D01*
X90323809Y-35021905D02*
X90323809Y-34221905D01*
X90247619Y-34336190D01*
X90171428Y-34412381D01*
X90095238Y-34450476D01*
X91047619Y-34221905D02*
X91123810Y-34221905D01*
X91200000Y-34260000D01*
X91238095Y-34298095D01*
X91276191Y-34374286D01*
X91314286Y-34526667D01*
X91314286Y-34717143D01*
X91276191Y-34869524D01*
X91238095Y-34945714D01*
X91200000Y-34983810D01*
X91123810Y-35021905D01*
X91047619Y-35021905D01*
X90971429Y-34983810D01*
X90933333Y-34945714D01*
X90895238Y-34869524D01*
X90857143Y-34717143D01*
X90857143Y-34526667D01*
X90895238Y-34374286D01*
X90933333Y-34298095D01*
X90971429Y-34260000D01*
X91047619Y-34221905D01*
X91619048Y-34298095D02*
X91657143Y-34260000D01*
X91733334Y-34221905D01*
X91923810Y-34221905D01*
X92000000Y-34260000D01*
X92038096Y-34298095D01*
X92076191Y-34374286D01*
X92076191Y-34450476D01*
X92038096Y-34564762D01*
X91580953Y-35021905D01*
X92076191Y-35021905D01*
X77923810Y-41383333D02*
X78304762Y-41383333D01*
X77847619Y-41611905D02*
X78114286Y-40811905D01*
X78380953Y-41611905D01*
X78647619Y-41611905D02*
X78647619Y-40811905D01*
X78952381Y-40811905D01*
X79028572Y-40850000D01*
X79066667Y-40888095D01*
X79104762Y-40964286D01*
X79104762Y-41078571D01*
X79066667Y-41154762D01*
X79028572Y-41192857D01*
X78952381Y-41230952D01*
X78647619Y-41230952D01*
X79409524Y-41383333D02*
X79790476Y-41383333D01*
X79333333Y-41611905D02*
X79600000Y-40811905D01*
X79866667Y-41611905D01*
X80552381Y-41611905D02*
X80095238Y-41611905D01*
X80323809Y-41611905D02*
X80323809Y-40811905D01*
X80247619Y-40926190D01*
X80171428Y-41002381D01*
X80095238Y-41040476D01*
X81047619Y-40811905D02*
X81123810Y-40811905D01*
X81200000Y-40850000D01*
X81238095Y-40888095D01*
X81276191Y-40964286D01*
X81314286Y-41116667D01*
X81314286Y-41307143D01*
X81276191Y-41459524D01*
X81238095Y-41535714D01*
X81200000Y-41573810D01*
X81123810Y-41611905D01*
X81047619Y-41611905D01*
X80971429Y-41573810D01*
X80933333Y-41535714D01*
X80895238Y-41459524D01*
X80857143Y-41307143D01*
X80857143Y-41116667D01*
X80895238Y-40964286D01*
X80933333Y-40888095D01*
X80971429Y-40850000D01*
X81047619Y-40811905D01*
X81619048Y-40888095D02*
X81657143Y-40850000D01*
X81733334Y-40811905D01*
X81923810Y-40811905D01*
X82000000Y-40850000D01*
X82038096Y-40888095D01*
X82076191Y-40964286D01*
X82076191Y-41040476D01*
X82038096Y-41154762D01*
X81580953Y-41611905D01*
X82076191Y-41611905D01*
X77923810Y-47883333D02*
X78304762Y-47883333D01*
X77847619Y-48111905D02*
X78114286Y-47311905D01*
X78380953Y-48111905D01*
X78647619Y-48111905D02*
X78647619Y-47311905D01*
X78952381Y-47311905D01*
X79028572Y-47350000D01*
X79066667Y-47388095D01*
X79104762Y-47464286D01*
X79104762Y-47578571D01*
X79066667Y-47654762D01*
X79028572Y-47692857D01*
X78952381Y-47730952D01*
X78647619Y-47730952D01*
X79409524Y-47883333D02*
X79790476Y-47883333D01*
X79333333Y-48111905D02*
X79600000Y-47311905D01*
X79866667Y-48111905D01*
X80552381Y-48111905D02*
X80095238Y-48111905D01*
X80323809Y-48111905D02*
X80323809Y-47311905D01*
X80247619Y-47426190D01*
X80171428Y-47502381D01*
X80095238Y-47540476D01*
X81047619Y-47311905D02*
X81123810Y-47311905D01*
X81200000Y-47350000D01*
X81238095Y-47388095D01*
X81276191Y-47464286D01*
X81314286Y-47616667D01*
X81314286Y-47807143D01*
X81276191Y-47959524D01*
X81238095Y-48035714D01*
X81200000Y-48073810D01*
X81123810Y-48111905D01*
X81047619Y-48111905D01*
X80971429Y-48073810D01*
X80933333Y-48035714D01*
X80895238Y-47959524D01*
X80857143Y-47807143D01*
X80857143Y-47616667D01*
X80895238Y-47464286D01*
X80933333Y-47388095D01*
X80971429Y-47350000D01*
X81047619Y-47311905D01*
X81619048Y-47388095D02*
X81657143Y-47350000D01*
X81733334Y-47311905D01*
X81923810Y-47311905D01*
X82000000Y-47350000D01*
X82038096Y-47388095D01*
X82076191Y-47464286D01*
X82076191Y-47540476D01*
X82038096Y-47654762D01*
X81580953Y-48111905D01*
X82076191Y-48111905D01*
X77923810Y-34893333D02*
X78304762Y-34893333D01*
X77847619Y-35121905D02*
X78114286Y-34321905D01*
X78380953Y-35121905D01*
X78647619Y-35121905D02*
X78647619Y-34321905D01*
X78952381Y-34321905D01*
X79028572Y-34360000D01*
X79066667Y-34398095D01*
X79104762Y-34474286D01*
X79104762Y-34588571D01*
X79066667Y-34664762D01*
X79028572Y-34702857D01*
X78952381Y-34740952D01*
X78647619Y-34740952D01*
X79409524Y-34893333D02*
X79790476Y-34893333D01*
X79333333Y-35121905D02*
X79600000Y-34321905D01*
X79866667Y-35121905D01*
X80552381Y-35121905D02*
X80095238Y-35121905D01*
X80323809Y-35121905D02*
X80323809Y-34321905D01*
X80247619Y-34436190D01*
X80171428Y-34512381D01*
X80095238Y-34550476D01*
X81047619Y-34321905D02*
X81123810Y-34321905D01*
X81200000Y-34360000D01*
X81238095Y-34398095D01*
X81276191Y-34474286D01*
X81314286Y-34626667D01*
X81314286Y-34817143D01*
X81276191Y-34969524D01*
X81238095Y-35045714D01*
X81200000Y-35083810D01*
X81123810Y-35121905D01*
X81047619Y-35121905D01*
X80971429Y-35083810D01*
X80933333Y-35045714D01*
X80895238Y-34969524D01*
X80857143Y-34817143D01*
X80857143Y-34626667D01*
X80895238Y-34474286D01*
X80933333Y-34398095D01*
X80971429Y-34360000D01*
X81047619Y-34321905D01*
X81619048Y-34398095D02*
X81657143Y-34360000D01*
X81733334Y-34321905D01*
X81923810Y-34321905D01*
X82000000Y-34360000D01*
X82038096Y-34398095D01*
X82076191Y-34474286D01*
X82076191Y-34550476D01*
X82038096Y-34664762D01*
X81580953Y-35121905D01*
X82076191Y-35121905D01*
X77923810Y-28393333D02*
X78304762Y-28393333D01*
X77847619Y-28621905D02*
X78114286Y-27821905D01*
X78380953Y-28621905D01*
X78647619Y-28621905D02*
X78647619Y-27821905D01*
X78952381Y-27821905D01*
X79028572Y-27860000D01*
X79066667Y-27898095D01*
X79104762Y-27974286D01*
X79104762Y-28088571D01*
X79066667Y-28164762D01*
X79028572Y-28202857D01*
X78952381Y-28240952D01*
X78647619Y-28240952D01*
X79409524Y-28393333D02*
X79790476Y-28393333D01*
X79333333Y-28621905D02*
X79600000Y-27821905D01*
X79866667Y-28621905D01*
X80552381Y-28621905D02*
X80095238Y-28621905D01*
X80323809Y-28621905D02*
X80323809Y-27821905D01*
X80247619Y-27936190D01*
X80171428Y-28012381D01*
X80095238Y-28050476D01*
X81047619Y-27821905D02*
X81123810Y-27821905D01*
X81200000Y-27860000D01*
X81238095Y-27898095D01*
X81276191Y-27974286D01*
X81314286Y-28126667D01*
X81314286Y-28317143D01*
X81276191Y-28469524D01*
X81238095Y-28545714D01*
X81200000Y-28583810D01*
X81123810Y-28621905D01*
X81047619Y-28621905D01*
X80971429Y-28583810D01*
X80933333Y-28545714D01*
X80895238Y-28469524D01*
X80857143Y-28317143D01*
X80857143Y-28126667D01*
X80895238Y-27974286D01*
X80933333Y-27898095D01*
X80971429Y-27860000D01*
X81047619Y-27821905D01*
X81619048Y-27898095D02*
X81657143Y-27860000D01*
X81733334Y-27821905D01*
X81923810Y-27821905D01*
X82000000Y-27860000D01*
X82038096Y-27898095D01*
X82076191Y-27974286D01*
X82076191Y-28050476D01*
X82038096Y-28164762D01*
X81580953Y-28621905D01*
X82076191Y-28621905D01*
X87923810Y-28293333D02*
X88304762Y-28293333D01*
X87847619Y-28521905D02*
X88114286Y-27721905D01*
X88380953Y-28521905D01*
X88647619Y-28521905D02*
X88647619Y-27721905D01*
X88952381Y-27721905D01*
X89028572Y-27760000D01*
X89066667Y-27798095D01*
X89104762Y-27874286D01*
X89104762Y-27988571D01*
X89066667Y-28064762D01*
X89028572Y-28102857D01*
X88952381Y-28140952D01*
X88647619Y-28140952D01*
X89409524Y-28293333D02*
X89790476Y-28293333D01*
X89333333Y-28521905D02*
X89600000Y-27721905D01*
X89866667Y-28521905D01*
X90552381Y-28521905D02*
X90095238Y-28521905D01*
X90323809Y-28521905D02*
X90323809Y-27721905D01*
X90247619Y-27836190D01*
X90171428Y-27912381D01*
X90095238Y-27950476D01*
X91047619Y-27721905D02*
X91123810Y-27721905D01*
X91200000Y-27760000D01*
X91238095Y-27798095D01*
X91276191Y-27874286D01*
X91314286Y-28026667D01*
X91314286Y-28217143D01*
X91276191Y-28369524D01*
X91238095Y-28445714D01*
X91200000Y-28483810D01*
X91123810Y-28521905D01*
X91047619Y-28521905D01*
X90971429Y-28483810D01*
X90933333Y-28445714D01*
X90895238Y-28369524D01*
X90857143Y-28217143D01*
X90857143Y-28026667D01*
X90895238Y-27874286D01*
X90933333Y-27798095D01*
X90971429Y-27760000D01*
X91047619Y-27721905D01*
X91619048Y-27798095D02*
X91657143Y-27760000D01*
X91733334Y-27721905D01*
X91923810Y-27721905D01*
X92000000Y-27760000D01*
X92038096Y-27798095D01*
X92076191Y-27874286D01*
X92076191Y-27950476D01*
X92038096Y-28064762D01*
X91580953Y-28521905D01*
X92076191Y-28521905D01*
X97923810Y-47793333D02*
X98304762Y-47793333D01*
X97847619Y-48021905D02*
X98114286Y-47221905D01*
X98380953Y-48021905D01*
X98647619Y-48021905D02*
X98647619Y-47221905D01*
X98952381Y-47221905D01*
X99028572Y-47260000D01*
X99066667Y-47298095D01*
X99104762Y-47374286D01*
X99104762Y-47488571D01*
X99066667Y-47564762D01*
X99028572Y-47602857D01*
X98952381Y-47640952D01*
X98647619Y-47640952D01*
X99409524Y-47793333D02*
X99790476Y-47793333D01*
X99333333Y-48021905D02*
X99600000Y-47221905D01*
X99866667Y-48021905D01*
X100552381Y-48021905D02*
X100095238Y-48021905D01*
X100323809Y-48021905D02*
X100323809Y-47221905D01*
X100247619Y-47336190D01*
X100171428Y-47412381D01*
X100095238Y-47450476D01*
X101047619Y-47221905D02*
X101123810Y-47221905D01*
X101200000Y-47260000D01*
X101238095Y-47298095D01*
X101276191Y-47374286D01*
X101314286Y-47526667D01*
X101314286Y-47717143D01*
X101276191Y-47869524D01*
X101238095Y-47945714D01*
X101200000Y-47983810D01*
X101123810Y-48021905D01*
X101047619Y-48021905D01*
X100971429Y-47983810D01*
X100933333Y-47945714D01*
X100895238Y-47869524D01*
X100857143Y-47717143D01*
X100857143Y-47526667D01*
X100895238Y-47374286D01*
X100933333Y-47298095D01*
X100971429Y-47260000D01*
X101047619Y-47221905D01*
X101619048Y-47298095D02*
X101657143Y-47260000D01*
X101733334Y-47221905D01*
X101923810Y-47221905D01*
X102000000Y-47260000D01*
X102038096Y-47298095D01*
X102076191Y-47374286D01*
X102076191Y-47450476D01*
X102038096Y-47564762D01*
X101580953Y-48021905D01*
X102076191Y-48021905D01*
X87923810Y-47893333D02*
X88304762Y-47893333D01*
X87847619Y-48121905D02*
X88114286Y-47321905D01*
X88380953Y-48121905D01*
X88647619Y-48121905D02*
X88647619Y-47321905D01*
X88952381Y-47321905D01*
X89028572Y-47360000D01*
X89066667Y-47398095D01*
X89104762Y-47474286D01*
X89104762Y-47588571D01*
X89066667Y-47664762D01*
X89028572Y-47702857D01*
X88952381Y-47740952D01*
X88647619Y-47740952D01*
X89409524Y-47893333D02*
X89790476Y-47893333D01*
X89333333Y-48121905D02*
X89600000Y-47321905D01*
X89866667Y-48121905D01*
X90552381Y-48121905D02*
X90095238Y-48121905D01*
X90323809Y-48121905D02*
X90323809Y-47321905D01*
X90247619Y-47436190D01*
X90171428Y-47512381D01*
X90095238Y-47550476D01*
X91047619Y-47321905D02*
X91123810Y-47321905D01*
X91200000Y-47360000D01*
X91238095Y-47398095D01*
X91276191Y-47474286D01*
X91314286Y-47626667D01*
X91314286Y-47817143D01*
X91276191Y-47969524D01*
X91238095Y-48045714D01*
X91200000Y-48083810D01*
X91123810Y-48121905D01*
X91047619Y-48121905D01*
X90971429Y-48083810D01*
X90933333Y-48045714D01*
X90895238Y-47969524D01*
X90857143Y-47817143D01*
X90857143Y-47626667D01*
X90895238Y-47474286D01*
X90933333Y-47398095D01*
X90971429Y-47360000D01*
X91047619Y-47321905D01*
X91619048Y-47398095D02*
X91657143Y-47360000D01*
X91733334Y-47321905D01*
X91923810Y-47321905D01*
X92000000Y-47360000D01*
X92038096Y-47398095D01*
X92076191Y-47474286D01*
X92076191Y-47550476D01*
X92038096Y-47664762D01*
X91580953Y-48121905D01*
X92076191Y-48121905D01*
X97923810Y-54283333D02*
X98304762Y-54283333D01*
X97847619Y-54511905D02*
X98114286Y-53711905D01*
X98380953Y-54511905D01*
X98647619Y-54511905D02*
X98647619Y-53711905D01*
X98952381Y-53711905D01*
X99028572Y-53750000D01*
X99066667Y-53788095D01*
X99104762Y-53864286D01*
X99104762Y-53978571D01*
X99066667Y-54054762D01*
X99028572Y-54092857D01*
X98952381Y-54130952D01*
X98647619Y-54130952D01*
X99409524Y-54283333D02*
X99790476Y-54283333D01*
X99333333Y-54511905D02*
X99600000Y-53711905D01*
X99866667Y-54511905D01*
X100552381Y-54511905D02*
X100095238Y-54511905D01*
X100323809Y-54511905D02*
X100323809Y-53711905D01*
X100247619Y-53826190D01*
X100171428Y-53902381D01*
X100095238Y-53940476D01*
X101047619Y-53711905D02*
X101123810Y-53711905D01*
X101200000Y-53750000D01*
X101238095Y-53788095D01*
X101276191Y-53864286D01*
X101314286Y-54016667D01*
X101314286Y-54207143D01*
X101276191Y-54359524D01*
X101238095Y-54435714D01*
X101200000Y-54473810D01*
X101123810Y-54511905D01*
X101047619Y-54511905D01*
X100971429Y-54473810D01*
X100933333Y-54435714D01*
X100895238Y-54359524D01*
X100857143Y-54207143D01*
X100857143Y-54016667D01*
X100895238Y-53864286D01*
X100933333Y-53788095D01*
X100971429Y-53750000D01*
X101047619Y-53711905D01*
X101619048Y-53788095D02*
X101657143Y-53750000D01*
X101733334Y-53711905D01*
X101923810Y-53711905D01*
X102000000Y-53750000D01*
X102038096Y-53788095D01*
X102076191Y-53864286D01*
X102076191Y-53940476D01*
X102038096Y-54054762D01*
X101580953Y-54511905D01*
X102076191Y-54511905D01*
X97923810Y-41183333D02*
X98304762Y-41183333D01*
X97847619Y-41411905D02*
X98114286Y-40611905D01*
X98380953Y-41411905D01*
X98647619Y-41411905D02*
X98647619Y-40611905D01*
X98952381Y-40611905D01*
X99028572Y-40650000D01*
X99066667Y-40688095D01*
X99104762Y-40764286D01*
X99104762Y-40878571D01*
X99066667Y-40954762D01*
X99028572Y-40992857D01*
X98952381Y-41030952D01*
X98647619Y-41030952D01*
X99409524Y-41183333D02*
X99790476Y-41183333D01*
X99333333Y-41411905D02*
X99600000Y-40611905D01*
X99866667Y-41411905D01*
X100552381Y-41411905D02*
X100095238Y-41411905D01*
X100323809Y-41411905D02*
X100323809Y-40611905D01*
X100247619Y-40726190D01*
X100171428Y-40802381D01*
X100095238Y-40840476D01*
X101047619Y-40611905D02*
X101123810Y-40611905D01*
X101200000Y-40650000D01*
X101238095Y-40688095D01*
X101276191Y-40764286D01*
X101314286Y-40916667D01*
X101314286Y-41107143D01*
X101276191Y-41259524D01*
X101238095Y-41335714D01*
X101200000Y-41373810D01*
X101123810Y-41411905D01*
X101047619Y-41411905D01*
X100971429Y-41373810D01*
X100933333Y-41335714D01*
X100895238Y-41259524D01*
X100857143Y-41107143D01*
X100857143Y-40916667D01*
X100895238Y-40764286D01*
X100933333Y-40688095D01*
X100971429Y-40650000D01*
X101047619Y-40611905D01*
X101619048Y-40688095D02*
X101657143Y-40650000D01*
X101733334Y-40611905D01*
X101923810Y-40611905D01*
X102000000Y-40650000D01*
X102038096Y-40688095D01*
X102076191Y-40764286D01*
X102076191Y-40840476D01*
X102038096Y-40954762D01*
X101580953Y-41411905D01*
X102076191Y-41411905D01*
X97923810Y-34683333D02*
X98304762Y-34683333D01*
X97847619Y-34911905D02*
X98114286Y-34111905D01*
X98380953Y-34911905D01*
X98647619Y-34911905D02*
X98647619Y-34111905D01*
X98952381Y-34111905D01*
X99028572Y-34150000D01*
X99066667Y-34188095D01*
X99104762Y-34264286D01*
X99104762Y-34378571D01*
X99066667Y-34454762D01*
X99028572Y-34492857D01*
X98952381Y-34530952D01*
X98647619Y-34530952D01*
X99409524Y-34683333D02*
X99790476Y-34683333D01*
X99333333Y-34911905D02*
X99600000Y-34111905D01*
X99866667Y-34911905D01*
X100552381Y-34911905D02*
X100095238Y-34911905D01*
X100323809Y-34911905D02*
X100323809Y-34111905D01*
X100247619Y-34226190D01*
X100171428Y-34302381D01*
X100095238Y-34340476D01*
X101047619Y-34111905D02*
X101123810Y-34111905D01*
X101200000Y-34150000D01*
X101238095Y-34188095D01*
X101276191Y-34264286D01*
X101314286Y-34416667D01*
X101314286Y-34607143D01*
X101276191Y-34759524D01*
X101238095Y-34835714D01*
X101200000Y-34873810D01*
X101123810Y-34911905D01*
X101047619Y-34911905D01*
X100971429Y-34873810D01*
X100933333Y-34835714D01*
X100895238Y-34759524D01*
X100857143Y-34607143D01*
X100857143Y-34416667D01*
X100895238Y-34264286D01*
X100933333Y-34188095D01*
X100971429Y-34150000D01*
X101047619Y-34111905D01*
X101619048Y-34188095D02*
X101657143Y-34150000D01*
X101733334Y-34111905D01*
X101923810Y-34111905D01*
X102000000Y-34150000D01*
X102038096Y-34188095D01*
X102076191Y-34264286D01*
X102076191Y-34340476D01*
X102038096Y-34454762D01*
X101580953Y-34911905D01*
X102076191Y-34911905D01*
X61383333Y-43286190D02*
X61383333Y-42905238D01*
X61611905Y-43362381D02*
X60811905Y-43095714D01*
X61611905Y-42829047D01*
X61611905Y-42562381D02*
X60811905Y-42562381D01*
X60811905Y-42257619D01*
X60850000Y-42181428D01*
X60888095Y-42143333D01*
X60964286Y-42105238D01*
X61078571Y-42105238D01*
X61154762Y-42143333D01*
X61192857Y-42181428D01*
X61230952Y-42257619D01*
X61230952Y-42562381D01*
X61383333Y-41800476D02*
X61383333Y-41419524D01*
X61611905Y-41876667D02*
X60811905Y-41610000D01*
X61611905Y-41343333D01*
X61611905Y-40657619D02*
X61611905Y-41114762D01*
X61611905Y-40886191D02*
X60811905Y-40886191D01*
X60926190Y-40962381D01*
X61002381Y-41038572D01*
X61040476Y-41114762D01*
X60811905Y-40162381D02*
X60811905Y-40086190D01*
X60850000Y-40010000D01*
X60888095Y-39971905D01*
X60964286Y-39933809D01*
X61116667Y-39895714D01*
X61307143Y-39895714D01*
X61459524Y-39933809D01*
X61535714Y-39971905D01*
X61573810Y-40010000D01*
X61611905Y-40086190D01*
X61611905Y-40162381D01*
X61573810Y-40238571D01*
X61535714Y-40276667D01*
X61459524Y-40314762D01*
X61307143Y-40352857D01*
X61116667Y-40352857D01*
X60964286Y-40314762D01*
X60888095Y-40276667D01*
X60850000Y-40238571D01*
X60811905Y-40162381D01*
X60888095Y-39590952D02*
X60850000Y-39552857D01*
X60811905Y-39476666D01*
X60811905Y-39286190D01*
X60850000Y-39210000D01*
X60888095Y-39171904D01*
X60964286Y-39133809D01*
X61040476Y-39133809D01*
X61154762Y-39171904D01*
X61611905Y-39629047D01*
X61611905Y-39133809D01*
X67923810Y-54283333D02*
X68304762Y-54283333D01*
X67847619Y-54511905D02*
X68114286Y-53711905D01*
X68380953Y-54511905D01*
X68647619Y-54511905D02*
X68647619Y-53711905D01*
X68952381Y-53711905D01*
X69028572Y-53750000D01*
X69066667Y-53788095D01*
X69104762Y-53864286D01*
X69104762Y-53978571D01*
X69066667Y-54054762D01*
X69028572Y-54092857D01*
X68952381Y-54130952D01*
X68647619Y-54130952D01*
X69409524Y-54283333D02*
X69790476Y-54283333D01*
X69333333Y-54511905D02*
X69600000Y-53711905D01*
X69866667Y-54511905D01*
X70552381Y-54511905D02*
X70095238Y-54511905D01*
X70323809Y-54511905D02*
X70323809Y-53711905D01*
X70247619Y-53826190D01*
X70171428Y-53902381D01*
X70095238Y-53940476D01*
X71047619Y-53711905D02*
X71123810Y-53711905D01*
X71200000Y-53750000D01*
X71238095Y-53788095D01*
X71276191Y-53864286D01*
X71314286Y-54016667D01*
X71314286Y-54207143D01*
X71276191Y-54359524D01*
X71238095Y-54435714D01*
X71200000Y-54473810D01*
X71123810Y-54511905D01*
X71047619Y-54511905D01*
X70971429Y-54473810D01*
X70933333Y-54435714D01*
X70895238Y-54359524D01*
X70857143Y-54207143D01*
X70857143Y-54016667D01*
X70895238Y-53864286D01*
X70933333Y-53788095D01*
X70971429Y-53750000D01*
X71047619Y-53711905D01*
X71619048Y-53788095D02*
X71657143Y-53750000D01*
X71733334Y-53711905D01*
X71923810Y-53711905D01*
X72000000Y-53750000D01*
X72038096Y-53788095D01*
X72076191Y-53864286D01*
X72076191Y-53940476D01*
X72038096Y-54054762D01*
X71580953Y-54511905D01*
X72076191Y-54511905D01*
X67923810Y-47783333D02*
X68304762Y-47783333D01*
X67847619Y-48011905D02*
X68114286Y-47211905D01*
X68380953Y-48011905D01*
X68647619Y-48011905D02*
X68647619Y-47211905D01*
X68952381Y-47211905D01*
X69028572Y-47250000D01*
X69066667Y-47288095D01*
X69104762Y-47364286D01*
X69104762Y-47478571D01*
X69066667Y-47554762D01*
X69028572Y-47592857D01*
X68952381Y-47630952D01*
X68647619Y-47630952D01*
X69409524Y-47783333D02*
X69790476Y-47783333D01*
X69333333Y-48011905D02*
X69600000Y-47211905D01*
X69866667Y-48011905D01*
X70552381Y-48011905D02*
X70095238Y-48011905D01*
X70323809Y-48011905D02*
X70323809Y-47211905D01*
X70247619Y-47326190D01*
X70171428Y-47402381D01*
X70095238Y-47440476D01*
X71047619Y-47211905D02*
X71123810Y-47211905D01*
X71200000Y-47250000D01*
X71238095Y-47288095D01*
X71276191Y-47364286D01*
X71314286Y-47516667D01*
X71314286Y-47707143D01*
X71276191Y-47859524D01*
X71238095Y-47935714D01*
X71200000Y-47973810D01*
X71123810Y-48011905D01*
X71047619Y-48011905D01*
X70971429Y-47973810D01*
X70933333Y-47935714D01*
X70895238Y-47859524D01*
X70857143Y-47707143D01*
X70857143Y-47516667D01*
X70895238Y-47364286D01*
X70933333Y-47288095D01*
X70971429Y-47250000D01*
X71047619Y-47211905D01*
X71619048Y-47288095D02*
X71657143Y-47250000D01*
X71733334Y-47211905D01*
X71923810Y-47211905D01*
X72000000Y-47250000D01*
X72038096Y-47288095D01*
X72076191Y-47364286D01*
X72076191Y-47440476D01*
X72038096Y-47554762D01*
X71580953Y-48011905D01*
X72076191Y-48011905D01*
X67923810Y-60783333D02*
X68304762Y-60783333D01*
X67847619Y-61011905D02*
X68114286Y-60211905D01*
X68380953Y-61011905D01*
X68647619Y-61011905D02*
X68647619Y-60211905D01*
X68952381Y-60211905D01*
X69028572Y-60250000D01*
X69066667Y-60288095D01*
X69104762Y-60364286D01*
X69104762Y-60478571D01*
X69066667Y-60554762D01*
X69028572Y-60592857D01*
X68952381Y-60630952D01*
X68647619Y-60630952D01*
X69409524Y-60783333D02*
X69790476Y-60783333D01*
X69333333Y-61011905D02*
X69600000Y-60211905D01*
X69866667Y-61011905D01*
X70552381Y-61011905D02*
X70095238Y-61011905D01*
X70323809Y-61011905D02*
X70323809Y-60211905D01*
X70247619Y-60326190D01*
X70171428Y-60402381D01*
X70095238Y-60440476D01*
X71047619Y-60211905D02*
X71123810Y-60211905D01*
X71200000Y-60250000D01*
X71238095Y-60288095D01*
X71276191Y-60364286D01*
X71314286Y-60516667D01*
X71314286Y-60707143D01*
X71276191Y-60859524D01*
X71238095Y-60935714D01*
X71200000Y-60973810D01*
X71123810Y-61011905D01*
X71047619Y-61011905D01*
X70971429Y-60973810D01*
X70933333Y-60935714D01*
X70895238Y-60859524D01*
X70857143Y-60707143D01*
X70857143Y-60516667D01*
X70895238Y-60364286D01*
X70933333Y-60288095D01*
X70971429Y-60250000D01*
X71047619Y-60211905D01*
X71619048Y-60288095D02*
X71657143Y-60250000D01*
X71733334Y-60211905D01*
X71923810Y-60211905D01*
X72000000Y-60250000D01*
X72038096Y-60288095D01*
X72076191Y-60364286D01*
X72076191Y-60440476D01*
X72038096Y-60554762D01*
X71580953Y-61011905D01*
X72076191Y-61011905D01*
D10*
X44693334Y-50750000D02*
X44660000Y-50783333D01*
X44560000Y-50816667D01*
X44493334Y-50816667D01*
X44393334Y-50783333D01*
X44326667Y-50716667D01*
X44293334Y-50650000D01*
X44260000Y-50516667D01*
X44260000Y-50416667D01*
X44293334Y-50283333D01*
X44326667Y-50216667D01*
X44393334Y-50150000D01*
X44493334Y-50116667D01*
X44560000Y-50116667D01*
X44660000Y-50150000D01*
X44693334Y-50183333D01*
X45293334Y-50116667D02*
X45160000Y-50116667D01*
X45093334Y-50150000D01*
X45060000Y-50183333D01*
X44993334Y-50283333D01*
X44960000Y-50416667D01*
X44960000Y-50683333D01*
X44993334Y-50750000D01*
X45026667Y-50783333D01*
X45093334Y-50816667D01*
X45226667Y-50816667D01*
X45293334Y-50783333D01*
X45326667Y-50750000D01*
X45360000Y-50683333D01*
X45360000Y-50516667D01*
X45326667Y-50450000D01*
X45293334Y-50416667D01*
X45226667Y-50383333D01*
X45093334Y-50383333D01*
X45026667Y-50416667D01*
X44993334Y-50450000D01*
X44960000Y-50516667D01*
X34266667Y-44116667D02*
X34266667Y-44683333D01*
X34300000Y-44750000D01*
X34333333Y-44783333D01*
X34400000Y-44816667D01*
X34533333Y-44816667D01*
X34600000Y-44783333D01*
X34633333Y-44750000D01*
X34666667Y-44683333D01*
X34666667Y-44116667D01*
X35366666Y-44816667D02*
X34966666Y-44816667D01*
X35166666Y-44816667D02*
X35166666Y-44116667D01*
X35100000Y-44216667D01*
X35033333Y-44283333D01*
X34966666Y-44316667D01*
X44563334Y-54890000D02*
X44530000Y-54923333D01*
X44430000Y-54956667D01*
X44363334Y-54956667D01*
X44263334Y-54923333D01*
X44196667Y-54856667D01*
X44163334Y-54790000D01*
X44130000Y-54656667D01*
X44130000Y-54556667D01*
X44163334Y-54423333D01*
X44196667Y-54356667D01*
X44263334Y-54290000D01*
X44363334Y-54256667D01*
X44430000Y-54256667D01*
X44530000Y-54290000D01*
X44563334Y-54323333D01*
X45196667Y-54256667D02*
X44863334Y-54256667D01*
X44830000Y-54590000D01*
X44863334Y-54556667D01*
X44930000Y-54523333D01*
X45096667Y-54523333D01*
X45163334Y-54556667D01*
X45196667Y-54590000D01*
X45230000Y-54656667D01*
X45230000Y-54823333D01*
X45196667Y-54890000D01*
X45163334Y-54923333D01*
X45096667Y-54956667D01*
X44930000Y-54956667D01*
X44863334Y-54923333D01*
X44830000Y-54890000D01*
D11*
X39373810Y-54143333D02*
X39754762Y-54143333D01*
X39297619Y-54371905D02*
X39564286Y-53571905D01*
X39830953Y-54371905D01*
X40097619Y-54371905D02*
X40097619Y-53571905D01*
X40402381Y-53571905D01*
X40478572Y-53610000D01*
X40516667Y-53648095D01*
X40554762Y-53724286D01*
X40554762Y-53838571D01*
X40516667Y-53914762D01*
X40478572Y-53952857D01*
X40402381Y-53990952D01*
X40097619Y-53990952D01*
X40859524Y-54143333D02*
X41240476Y-54143333D01*
X40783333Y-54371905D02*
X41050000Y-53571905D01*
X41316667Y-54371905D01*
X42002381Y-54371905D02*
X41545238Y-54371905D01*
X41773809Y-54371905D02*
X41773809Y-53571905D01*
X41697619Y-53686190D01*
X41621428Y-53762381D01*
X41545238Y-53800476D01*
X42497619Y-53571905D02*
X42573810Y-53571905D01*
X42650000Y-53610000D01*
X42688095Y-53648095D01*
X42726191Y-53724286D01*
X42764286Y-53876667D01*
X42764286Y-54067143D01*
X42726191Y-54219524D01*
X42688095Y-54295714D01*
X42650000Y-54333810D01*
X42573810Y-54371905D01*
X42497619Y-54371905D01*
X42421429Y-54333810D01*
X42383333Y-54295714D01*
X42345238Y-54219524D01*
X42307143Y-54067143D01*
X42307143Y-53876667D01*
X42345238Y-53724286D01*
X42383333Y-53648095D01*
X42421429Y-53610000D01*
X42497619Y-53571905D01*
X43069048Y-53648095D02*
X43107143Y-53610000D01*
X43183334Y-53571905D01*
X43373810Y-53571905D01*
X43450000Y-53610000D01*
X43488096Y-53648095D01*
X43526191Y-53724286D01*
X43526191Y-53800476D01*
X43488096Y-53914762D01*
X43030953Y-54371905D01*
X43526191Y-54371905D01*
X39373810Y-60543333D02*
X39754762Y-60543333D01*
X39297619Y-60771905D02*
X39564286Y-59971905D01*
X39830953Y-60771905D01*
X40097619Y-60771905D02*
X40097619Y-59971905D01*
X40402381Y-59971905D01*
X40478572Y-60010000D01*
X40516667Y-60048095D01*
X40554762Y-60124286D01*
X40554762Y-60238571D01*
X40516667Y-60314762D01*
X40478572Y-60352857D01*
X40402381Y-60390952D01*
X40097619Y-60390952D01*
X40859524Y-60543333D02*
X41240476Y-60543333D01*
X40783333Y-60771905D02*
X41050000Y-59971905D01*
X41316667Y-60771905D01*
X42002381Y-60771905D02*
X41545238Y-60771905D01*
X41773809Y-60771905D02*
X41773809Y-59971905D01*
X41697619Y-60086190D01*
X41621428Y-60162381D01*
X41545238Y-60200476D01*
X42497619Y-59971905D02*
X42573810Y-59971905D01*
X42650000Y-60010000D01*
X42688095Y-60048095D01*
X42726191Y-60124286D01*
X42764286Y-60276667D01*
X42764286Y-60467143D01*
X42726191Y-60619524D01*
X42688095Y-60695714D01*
X42650000Y-60733810D01*
X42573810Y-60771905D01*
X42497619Y-60771905D01*
X42421429Y-60733810D01*
X42383333Y-60695714D01*
X42345238Y-60619524D01*
X42307143Y-60467143D01*
X42307143Y-60276667D01*
X42345238Y-60124286D01*
X42383333Y-60048095D01*
X42421429Y-60010000D01*
X42497619Y-59971905D01*
X43069048Y-60048095D02*
X43107143Y-60010000D01*
X43183334Y-59971905D01*
X43373810Y-59971905D01*
X43450000Y-60010000D01*
X43488096Y-60048095D01*
X43526191Y-60124286D01*
X43526191Y-60200476D01*
X43488096Y-60314762D01*
X43030953Y-60771905D01*
X43526191Y-60771905D01*
X39373810Y-47543333D02*
X39754762Y-47543333D01*
X39297619Y-47771905D02*
X39564286Y-46971905D01*
X39830953Y-47771905D01*
X40097619Y-47771905D02*
X40097619Y-46971905D01*
X40402381Y-46971905D01*
X40478572Y-47010000D01*
X40516667Y-47048095D01*
X40554762Y-47124286D01*
X40554762Y-47238571D01*
X40516667Y-47314762D01*
X40478572Y-47352857D01*
X40402381Y-47390952D01*
X40097619Y-47390952D01*
X40859524Y-47543333D02*
X41240476Y-47543333D01*
X40783333Y-47771905D02*
X41050000Y-46971905D01*
X41316667Y-47771905D01*
X42002381Y-47771905D02*
X41545238Y-47771905D01*
X41773809Y-47771905D02*
X41773809Y-46971905D01*
X41697619Y-47086190D01*
X41621428Y-47162381D01*
X41545238Y-47200476D01*
X42497619Y-46971905D02*
X42573810Y-46971905D01*
X42650000Y-47010000D01*
X42688095Y-47048095D01*
X42726191Y-47124286D01*
X42764286Y-47276667D01*
X42764286Y-47467143D01*
X42726191Y-47619524D01*
X42688095Y-47695714D01*
X42650000Y-47733810D01*
X42573810Y-47771905D01*
X42497619Y-47771905D01*
X42421429Y-47733810D01*
X42383333Y-47695714D01*
X42345238Y-47619524D01*
X42307143Y-47467143D01*
X42307143Y-47276667D01*
X42345238Y-47124286D01*
X42383333Y-47048095D01*
X42421429Y-47010000D01*
X42497619Y-46971905D01*
X43069048Y-47048095D02*
X43107143Y-47010000D01*
X43183334Y-46971905D01*
X43373810Y-46971905D01*
X43450000Y-47010000D01*
X43488096Y-47048095D01*
X43526191Y-47124286D01*
X43526191Y-47200476D01*
X43488096Y-47314762D01*
X43030953Y-47771905D01*
X43526191Y-47771905D01*
X35383333Y-42886190D02*
X35383333Y-42505238D01*
X35611905Y-42962381D02*
X34811905Y-42695714D01*
X35611905Y-42429047D01*
X35611905Y-42162381D02*
X34811905Y-42162381D01*
X34811905Y-41857619D01*
X34850000Y-41781428D01*
X34888095Y-41743333D01*
X34964286Y-41705238D01*
X35078571Y-41705238D01*
X35154762Y-41743333D01*
X35192857Y-41781428D01*
X35230952Y-41857619D01*
X35230952Y-42162381D01*
X35383333Y-41400476D02*
X35383333Y-41019524D01*
X35611905Y-41476667D02*
X34811905Y-41210000D01*
X35611905Y-40943333D01*
X35611905Y-40257619D02*
X35611905Y-40714762D01*
X35611905Y-40486191D02*
X34811905Y-40486191D01*
X34926190Y-40562381D01*
X35002381Y-40638572D01*
X35040476Y-40714762D01*
X34811905Y-39762381D02*
X34811905Y-39686190D01*
X34850000Y-39610000D01*
X34888095Y-39571905D01*
X34964286Y-39533809D01*
X35116667Y-39495714D01*
X35307143Y-39495714D01*
X35459524Y-39533809D01*
X35535714Y-39571905D01*
X35573810Y-39610000D01*
X35611905Y-39686190D01*
X35611905Y-39762381D01*
X35573810Y-39838571D01*
X35535714Y-39876667D01*
X35459524Y-39914762D01*
X35307143Y-39952857D01*
X35116667Y-39952857D01*
X34964286Y-39914762D01*
X34888095Y-39876667D01*
X34850000Y-39838571D01*
X34811905Y-39762381D01*
X34888095Y-39190952D02*
X34850000Y-39152857D01*
X34811905Y-39076666D01*
X34811905Y-38886190D01*
X34850000Y-38810000D01*
X34888095Y-38771904D01*
X34964286Y-38733809D01*
X35040476Y-38733809D01*
X35154762Y-38771904D01*
X35611905Y-39229047D01*
X35611905Y-38733809D01*
X28883333Y-42886190D02*
X28883333Y-42505238D01*
X29111905Y-42962381D02*
X28311905Y-42695714D01*
X29111905Y-42429047D01*
X29111905Y-42162381D02*
X28311905Y-42162381D01*
X28311905Y-41857619D01*
X28350000Y-41781428D01*
X28388095Y-41743333D01*
X28464286Y-41705238D01*
X28578571Y-41705238D01*
X28654762Y-41743333D01*
X28692857Y-41781428D01*
X28730952Y-41857619D01*
X28730952Y-42162381D01*
X28883333Y-41400476D02*
X28883333Y-41019524D01*
X29111905Y-41476667D02*
X28311905Y-41210000D01*
X29111905Y-40943333D01*
X29111905Y-40257619D02*
X29111905Y-40714762D01*
X29111905Y-40486191D02*
X28311905Y-40486191D01*
X28426190Y-40562381D01*
X28502381Y-40638572D01*
X28540476Y-40714762D01*
X28311905Y-39762381D02*
X28311905Y-39686190D01*
X28350000Y-39610000D01*
X28388095Y-39571905D01*
X28464286Y-39533809D01*
X28616667Y-39495714D01*
X28807143Y-39495714D01*
X28959524Y-39533809D01*
X29035714Y-39571905D01*
X29073810Y-39610000D01*
X29111905Y-39686190D01*
X29111905Y-39762381D01*
X29073810Y-39838571D01*
X29035714Y-39876667D01*
X28959524Y-39914762D01*
X28807143Y-39952857D01*
X28616667Y-39952857D01*
X28464286Y-39914762D01*
X28388095Y-39876667D01*
X28350000Y-39838571D01*
X28311905Y-39762381D01*
X28388095Y-39190952D02*
X28350000Y-39152857D01*
X28311905Y-39076666D01*
X28311905Y-38886190D01*
X28350000Y-38810000D01*
X28388095Y-38771904D01*
X28464286Y-38733809D01*
X28540476Y-38733809D01*
X28654762Y-38771904D01*
X29111905Y-39229047D01*
X29111905Y-38733809D01*
D10*
X27980000Y-37656666D02*
X28013333Y-37690000D01*
X28046667Y-37790000D01*
X28046667Y-37856666D01*
X28013333Y-37956666D01*
X27946667Y-38023333D01*
X27880000Y-38056666D01*
X27746667Y-38090000D01*
X27646667Y-38090000D01*
X27513333Y-38056666D01*
X27446667Y-38023333D01*
X27380000Y-37956666D01*
X27346667Y-37856666D01*
X27346667Y-37790000D01*
X27380000Y-37690000D01*
X27413333Y-37656666D01*
X27413333Y-37390000D02*
X27380000Y-37356666D01*
X27346667Y-37290000D01*
X27346667Y-37123333D01*
X27380000Y-37056666D01*
X27413333Y-37023333D01*
X27480000Y-36990000D01*
X27546667Y-36990000D01*
X27646667Y-37023333D01*
X28046667Y-37423333D01*
X28046667Y-36990000D01*
X35460745Y-28468579D02*
X35955719Y-27973605D01*
X36073570Y-28091455D01*
X36120711Y-28185736D01*
X36120711Y-28280017D01*
X36097141Y-28350727D01*
X36026430Y-28468579D01*
X35955719Y-28539290D01*
X35837868Y-28610000D01*
X35767157Y-28633571D01*
X35672877Y-28633570D01*
X35578595Y-28586430D01*
X35460745Y-28468579D01*
X36214991Y-29222826D02*
X35932149Y-28939983D01*
X36073570Y-29081405D02*
X36568545Y-28586430D01*
X36450694Y-28610001D01*
X36356413Y-28610000D01*
X36285702Y-28586430D01*
D11*
X22383333Y-42886190D02*
X22383333Y-42505238D01*
X22611905Y-42962381D02*
X21811905Y-42695714D01*
X22611905Y-42429047D01*
X22611905Y-42162381D02*
X21811905Y-42162381D01*
X21811905Y-41857619D01*
X21850000Y-41781428D01*
X21888095Y-41743333D01*
X21964286Y-41705238D01*
X22078571Y-41705238D01*
X22154762Y-41743333D01*
X22192857Y-41781428D01*
X22230952Y-41857619D01*
X22230952Y-42162381D01*
X22383333Y-41400476D02*
X22383333Y-41019524D01*
X22611905Y-41476667D02*
X21811905Y-41210000D01*
X22611905Y-40943333D01*
X22611905Y-40257619D02*
X22611905Y-40714762D01*
X22611905Y-40486191D02*
X21811905Y-40486191D01*
X21926190Y-40562381D01*
X22002381Y-40638572D01*
X22040476Y-40714762D01*
X21811905Y-39762381D02*
X21811905Y-39686190D01*
X21850000Y-39610000D01*
X21888095Y-39571905D01*
X21964286Y-39533809D01*
X22116667Y-39495714D01*
X22307143Y-39495714D01*
X22459524Y-39533809D01*
X22535714Y-39571905D01*
X22573810Y-39610000D01*
X22611905Y-39686190D01*
X22611905Y-39762381D01*
X22573810Y-39838571D01*
X22535714Y-39876667D01*
X22459524Y-39914762D01*
X22307143Y-39952857D01*
X22116667Y-39952857D01*
X21964286Y-39914762D01*
X21888095Y-39876667D01*
X21850000Y-39838571D01*
X21811905Y-39762381D01*
X21888095Y-39190952D02*
X21850000Y-39152857D01*
X21811905Y-39076666D01*
X21811905Y-38886190D01*
X21850000Y-38810000D01*
X21888095Y-38771904D01*
X21964286Y-38733809D01*
X22040476Y-38733809D01*
X22154762Y-38771904D01*
X22611905Y-39229047D01*
X22611905Y-38733809D01*
D10*
X32300000Y-37656666D02*
X32333333Y-37690000D01*
X32366667Y-37790000D01*
X32366667Y-37856666D01*
X32333333Y-37956666D01*
X32266667Y-38023333D01*
X32200000Y-38056666D01*
X32066667Y-38090000D01*
X31966667Y-38090000D01*
X31833333Y-38056666D01*
X31766667Y-38023333D01*
X31700000Y-37956666D01*
X31666667Y-37856666D01*
X31666667Y-37790000D01*
X31700000Y-37690000D01*
X31733333Y-37656666D01*
X31666667Y-37423333D02*
X31666667Y-36990000D01*
X31933333Y-37223333D01*
X31933333Y-37123333D01*
X31966667Y-37056666D01*
X32000000Y-37023333D01*
X32066667Y-36990000D01*
X32233333Y-36990000D01*
X32300000Y-37023333D01*
X32333333Y-37056666D01*
X32366667Y-37123333D01*
X32366667Y-37323333D01*
X32333333Y-37390000D01*
X32300000Y-37423333D01*
D11*
X35301100Y-38431320D02*
X35435786Y-38363977D01*
X35604146Y-38195618D01*
X35637817Y-38094602D01*
X35637817Y-38027259D01*
X35604146Y-37926244D01*
X35536802Y-37858900D01*
X35435787Y-37825229D01*
X35368444Y-37825229D01*
X35267428Y-37858900D01*
X35099069Y-37959916D01*
X34998053Y-37993587D01*
X34930710Y-37993587D01*
X34829695Y-37959916D01*
X34762351Y-37892572D01*
X34728680Y-37791557D01*
X34728680Y-37724214D01*
X34762351Y-37623198D01*
X34930711Y-37454839D01*
X35065398Y-37387496D01*
X35267428Y-37118122D02*
X36142893Y-37656870D01*
X35772504Y-37017106D01*
X36412268Y-37387496D01*
X35873519Y-36512030D01*
X36748985Y-37185465D02*
X37287733Y-36646717D01*
X37792810Y-36006954D02*
X37220389Y-35905939D01*
X37388748Y-36411015D02*
X36681641Y-35703908D01*
X36951016Y-35434534D01*
X37052031Y-35400862D01*
X37119374Y-35400862D01*
X37220390Y-35434534D01*
X37321405Y-35535549D01*
X37355076Y-35636564D01*
X37355076Y-35703908D01*
X37321405Y-35804923D01*
X37052030Y-36074297D01*
X38028512Y-35703908D02*
X38163198Y-35636565D01*
X38331558Y-35468206D01*
X38365229Y-35367190D01*
X38365229Y-35299847D01*
X38331558Y-35198832D01*
X38264214Y-35131488D01*
X38163199Y-35097817D01*
X38095856Y-35097817D01*
X37994840Y-35131488D01*
X37826481Y-35232504D01*
X37725465Y-35266175D01*
X37658122Y-35266175D01*
X37557107Y-35232504D01*
X37489763Y-35165160D01*
X37456092Y-35064145D01*
X37456092Y-34996802D01*
X37489763Y-34895786D01*
X37658123Y-34727427D01*
X37792810Y-34660084D01*
X37961168Y-34424382D02*
X38365229Y-34020320D01*
X38870305Y-34929458D02*
X38163198Y-34222351D01*
D10*
X56880000Y-37656666D02*
X56913333Y-37690000D01*
X56946667Y-37790000D01*
X56946667Y-37856666D01*
X56913333Y-37956666D01*
X56846667Y-38023333D01*
X56780000Y-38056666D01*
X56646667Y-38090000D01*
X56546667Y-38090000D01*
X56413333Y-38056666D01*
X56346667Y-38023333D01*
X56280000Y-37956666D01*
X56246667Y-37856666D01*
X56246667Y-37790000D01*
X56280000Y-37690000D01*
X56313333Y-37656666D01*
X56246667Y-37423333D02*
X56246667Y-36956666D01*
X56946667Y-37256666D01*
X52520000Y-37730000D02*
X52553333Y-37763334D01*
X52586667Y-37863334D01*
X52586667Y-37930000D01*
X52553333Y-38030000D01*
X52486667Y-38096667D01*
X52420000Y-38130000D01*
X52286667Y-38163334D01*
X52186667Y-38163334D01*
X52053333Y-38130000D01*
X51986667Y-38096667D01*
X51920000Y-38030000D01*
X51886667Y-37930000D01*
X51886667Y-37863334D01*
X51920000Y-37763334D01*
X51953333Y-37730000D01*
X52586667Y-37063334D02*
X52586667Y-37463334D01*
X52586667Y-37263334D02*
X51886667Y-37263334D01*
X51986667Y-37330000D01*
X52053333Y-37396667D01*
X52086667Y-37463334D01*
X51886667Y-36630000D02*
X51886667Y-36563333D01*
X51920000Y-36496667D01*
X51953333Y-36463333D01*
X52020000Y-36430000D01*
X52153333Y-36396667D01*
X52320000Y-36396667D01*
X52453333Y-36430000D01*
X52520000Y-36463333D01*
X52553333Y-36496667D01*
X52586667Y-36563333D01*
X52586667Y-36630000D01*
X52553333Y-36696667D01*
X52520000Y-36730000D01*
X52453333Y-36763333D01*
X52320000Y-36796667D01*
X52153333Y-36796667D01*
X52020000Y-36763333D01*
X51953333Y-36730000D01*
X51920000Y-36696667D01*
X51886667Y-36630000D01*
D11*
X48283333Y-43286190D02*
X48283333Y-42905238D01*
X48511905Y-43362381D02*
X47711905Y-43095714D01*
X48511905Y-42829047D01*
X48511905Y-42562381D02*
X47711905Y-42562381D01*
X47711905Y-42257619D01*
X47750000Y-42181428D01*
X47788095Y-42143333D01*
X47864286Y-42105238D01*
X47978571Y-42105238D01*
X48054762Y-42143333D01*
X48092857Y-42181428D01*
X48130952Y-42257619D01*
X48130952Y-42562381D01*
X48283333Y-41800476D02*
X48283333Y-41419524D01*
X48511905Y-41876667D02*
X47711905Y-41610000D01*
X48511905Y-41343333D01*
X48511905Y-40657619D02*
X48511905Y-41114762D01*
X48511905Y-40886191D02*
X47711905Y-40886191D01*
X47826190Y-40962381D01*
X47902381Y-41038572D01*
X47940476Y-41114762D01*
X47711905Y-40162381D02*
X47711905Y-40086190D01*
X47750000Y-40010000D01*
X47788095Y-39971905D01*
X47864286Y-39933809D01*
X48016667Y-39895714D01*
X48207143Y-39895714D01*
X48359524Y-39933809D01*
X48435714Y-39971905D01*
X48473810Y-40010000D01*
X48511905Y-40086190D01*
X48511905Y-40162381D01*
X48473810Y-40238571D01*
X48435714Y-40276667D01*
X48359524Y-40314762D01*
X48207143Y-40352857D01*
X48016667Y-40352857D01*
X47864286Y-40314762D01*
X47788095Y-40276667D01*
X47750000Y-40238571D01*
X47711905Y-40162381D01*
X47788095Y-39590952D02*
X47750000Y-39552857D01*
X47711905Y-39476666D01*
X47711905Y-39286190D01*
X47750000Y-39210000D01*
X47788095Y-39171904D01*
X47864286Y-39133809D01*
X47940476Y-39133809D01*
X48054762Y-39171904D01*
X48511905Y-39629047D01*
X48511905Y-39133809D01*
X54883333Y-43286190D02*
X54883333Y-42905238D01*
X55111905Y-43362381D02*
X54311905Y-43095714D01*
X55111905Y-42829047D01*
X55111905Y-42562381D02*
X54311905Y-42562381D01*
X54311905Y-42257619D01*
X54350000Y-42181428D01*
X54388095Y-42143333D01*
X54464286Y-42105238D01*
X54578571Y-42105238D01*
X54654762Y-42143333D01*
X54692857Y-42181428D01*
X54730952Y-42257619D01*
X54730952Y-42562381D01*
X54883333Y-41800476D02*
X54883333Y-41419524D01*
X55111905Y-41876667D02*
X54311905Y-41610000D01*
X55111905Y-41343333D01*
X55111905Y-40657619D02*
X55111905Y-41114762D01*
X55111905Y-40886191D02*
X54311905Y-40886191D01*
X54426190Y-40962381D01*
X54502381Y-41038572D01*
X54540476Y-41114762D01*
X54311905Y-40162381D02*
X54311905Y-40086190D01*
X54350000Y-40010000D01*
X54388095Y-39971905D01*
X54464286Y-39933809D01*
X54616667Y-39895714D01*
X54807143Y-39895714D01*
X54959524Y-39933809D01*
X55035714Y-39971905D01*
X55073810Y-40010000D01*
X55111905Y-40086190D01*
X55111905Y-40162381D01*
X55073810Y-40238571D01*
X55035714Y-40276667D01*
X54959524Y-40314762D01*
X54807143Y-40352857D01*
X54616667Y-40352857D01*
X54464286Y-40314762D01*
X54388095Y-40276667D01*
X54350000Y-40238571D01*
X54311905Y-40162381D01*
X54388095Y-39590952D02*
X54350000Y-39552857D01*
X54311905Y-39476666D01*
X54311905Y-39286190D01*
X54350000Y-39210000D01*
X54388095Y-39171904D01*
X54464286Y-39133809D01*
X54540476Y-39133809D01*
X54654762Y-39171904D01*
X55111905Y-39629047D01*
X55111905Y-39133809D01*
X44461336Y-48571084D02*
X44596023Y-48503740D01*
X44764382Y-48335381D01*
X44798054Y-48234366D01*
X44798054Y-48167022D01*
X44764382Y-48066007D01*
X44697039Y-47998664D01*
X44596024Y-47964992D01*
X44528680Y-47964992D01*
X44427665Y-47998663D01*
X44259305Y-48099679D01*
X44158290Y-48133351D01*
X44090947Y-48133351D01*
X43989931Y-48099679D01*
X43922588Y-48032335D01*
X43888916Y-47931320D01*
X43888916Y-47863977D01*
X43922588Y-47762962D01*
X44090947Y-47594602D01*
X44225634Y-47527259D01*
X44427665Y-47257885D02*
X45303130Y-47796633D01*
X44932741Y-47156869D01*
X45572504Y-47527259D01*
X45033756Y-46651794D01*
X45909222Y-47325229D02*
X46447970Y-46786481D01*
X46414298Y-45944686D02*
X46178595Y-46180389D01*
X46548985Y-46550778D02*
X45841878Y-45843672D01*
X46178596Y-45506954D01*
X47491794Y-45607969D02*
X47155076Y-45944687D01*
X46447970Y-45237580D01*
X47491794Y-45203908D02*
X47828512Y-44867190D01*
X47626481Y-45473282D02*
X47155076Y-44530473D01*
X48097886Y-45001877D01*
X48266245Y-44766175D02*
X48400931Y-44698832D01*
X48569291Y-44530473D01*
X48602962Y-44429457D01*
X48602962Y-44362114D01*
X48569291Y-44261099D01*
X48501947Y-44193755D01*
X48400932Y-44160084D01*
X48333589Y-44160084D01*
X48232573Y-44193755D01*
X48064214Y-44294771D01*
X47963198Y-44328442D01*
X47895855Y-44328442D01*
X47794840Y-44294771D01*
X47727496Y-44227427D01*
X47693825Y-44126412D01*
X47693825Y-44059069D01*
X47727496Y-43958053D01*
X47895856Y-43789694D01*
X48030543Y-43722351D01*
X49007023Y-44092740D02*
X48299916Y-43385633D01*
X48636633Y-43722351D02*
X49040695Y-43318289D01*
X49411084Y-43688679D02*
X48703978Y-42981572D01*
D10*
X47616667Y-32464667D02*
X47616667Y-33031333D01*
X47650000Y-33098000D01*
X47683333Y-33131333D01*
X47750000Y-33164667D01*
X47883333Y-33164667D01*
X47950000Y-33131333D01*
X47983333Y-33098000D01*
X48016667Y-33031333D01*
X48016667Y-32464667D01*
X48650000Y-32698000D02*
X48650000Y-33164667D01*
X48483333Y-32431333D02*
X48316666Y-32931333D01*
X48750000Y-32931333D01*
D11*
X39773810Y-34643333D02*
X40154762Y-34643333D01*
X39697619Y-34871905D02*
X39964286Y-34071905D01*
X40230953Y-34871905D01*
X40497619Y-34871905D02*
X40497619Y-34071905D01*
X40802381Y-34071905D01*
X40878572Y-34110000D01*
X40916667Y-34148095D01*
X40954762Y-34224286D01*
X40954762Y-34338571D01*
X40916667Y-34414762D01*
X40878572Y-34452857D01*
X40802381Y-34490952D01*
X40497619Y-34490952D01*
X41259524Y-34643333D02*
X41640476Y-34643333D01*
X41183333Y-34871905D02*
X41450000Y-34071905D01*
X41716667Y-34871905D01*
X42402381Y-34871905D02*
X41945238Y-34871905D01*
X42173809Y-34871905D02*
X42173809Y-34071905D01*
X42097619Y-34186190D01*
X42021428Y-34262381D01*
X41945238Y-34300476D01*
X42897619Y-34071905D02*
X42973810Y-34071905D01*
X43050000Y-34110000D01*
X43088095Y-34148095D01*
X43126191Y-34224286D01*
X43164286Y-34376667D01*
X43164286Y-34567143D01*
X43126191Y-34719524D01*
X43088095Y-34795714D01*
X43050000Y-34833810D01*
X42973810Y-34871905D01*
X42897619Y-34871905D01*
X42821429Y-34833810D01*
X42783333Y-34795714D01*
X42745238Y-34719524D01*
X42707143Y-34567143D01*
X42707143Y-34376667D01*
X42745238Y-34224286D01*
X42783333Y-34148095D01*
X42821429Y-34110000D01*
X42897619Y-34071905D01*
X43469048Y-34148095D02*
X43507143Y-34110000D01*
X43583334Y-34071905D01*
X43773810Y-34071905D01*
X43850000Y-34110000D01*
X43888096Y-34148095D01*
X43926191Y-34224286D01*
X43926191Y-34300476D01*
X43888096Y-34414762D01*
X43430953Y-34871905D01*
X43926191Y-34871905D01*
X39773810Y-21443333D02*
X40154762Y-21443333D01*
X39697619Y-21671905D02*
X39964286Y-20871905D01*
X40230953Y-21671905D01*
X40497619Y-21671905D02*
X40497619Y-20871905D01*
X40802381Y-20871905D01*
X40878572Y-20910000D01*
X40916667Y-20948095D01*
X40954762Y-21024286D01*
X40954762Y-21138571D01*
X40916667Y-21214762D01*
X40878572Y-21252857D01*
X40802381Y-21290952D01*
X40497619Y-21290952D01*
X41259524Y-21443333D02*
X41640476Y-21443333D01*
X41183333Y-21671905D02*
X41450000Y-20871905D01*
X41716667Y-21671905D01*
X42402381Y-21671905D02*
X41945238Y-21671905D01*
X42173809Y-21671905D02*
X42173809Y-20871905D01*
X42097619Y-20986190D01*
X42021428Y-21062381D01*
X41945238Y-21100476D01*
X42897619Y-20871905D02*
X42973810Y-20871905D01*
X43050000Y-20910000D01*
X43088095Y-20948095D01*
X43126191Y-21024286D01*
X43164286Y-21176667D01*
X43164286Y-21367143D01*
X43126191Y-21519524D01*
X43088095Y-21595714D01*
X43050000Y-21633810D01*
X42973810Y-21671905D01*
X42897619Y-21671905D01*
X42821429Y-21633810D01*
X42783333Y-21595714D01*
X42745238Y-21519524D01*
X42707143Y-21367143D01*
X42707143Y-21176667D01*
X42745238Y-21024286D01*
X42783333Y-20948095D01*
X42821429Y-20910000D01*
X42897619Y-20871905D01*
X43469048Y-20948095D02*
X43507143Y-20910000D01*
X43583334Y-20871905D01*
X43773810Y-20871905D01*
X43850000Y-20910000D01*
X43888096Y-20948095D01*
X43926191Y-21024286D01*
X43926191Y-21100476D01*
X43888096Y-21214762D01*
X43430953Y-21671905D01*
X43926191Y-21671905D01*
X39773810Y-27943333D02*
X40154762Y-27943333D01*
X39697619Y-28171905D02*
X39964286Y-27371905D01*
X40230953Y-28171905D01*
X40497619Y-28171905D02*
X40497619Y-27371905D01*
X40802381Y-27371905D01*
X40878572Y-27410000D01*
X40916667Y-27448095D01*
X40954762Y-27524286D01*
X40954762Y-27638571D01*
X40916667Y-27714762D01*
X40878572Y-27752857D01*
X40802381Y-27790952D01*
X40497619Y-27790952D01*
X41259524Y-27943333D02*
X41640476Y-27943333D01*
X41183333Y-28171905D02*
X41450000Y-27371905D01*
X41716667Y-28171905D01*
X42402381Y-28171905D02*
X41945238Y-28171905D01*
X42173809Y-28171905D02*
X42173809Y-27371905D01*
X42097619Y-27486190D01*
X42021428Y-27562381D01*
X41945238Y-27600476D01*
X42897619Y-27371905D02*
X42973810Y-27371905D01*
X43050000Y-27410000D01*
X43088095Y-27448095D01*
X43126191Y-27524286D01*
X43164286Y-27676667D01*
X43164286Y-27867143D01*
X43126191Y-28019524D01*
X43088095Y-28095714D01*
X43050000Y-28133810D01*
X42973810Y-28171905D01*
X42897619Y-28171905D01*
X42821429Y-28133810D01*
X42783333Y-28095714D01*
X42745238Y-28019524D01*
X42707143Y-27867143D01*
X42707143Y-27676667D01*
X42745238Y-27524286D01*
X42783333Y-27448095D01*
X42821429Y-27410000D01*
X42897619Y-27371905D01*
X43469048Y-27448095D02*
X43507143Y-27410000D01*
X43583334Y-27371905D01*
X43773810Y-27371905D01*
X43850000Y-27410000D01*
X43888096Y-27448095D01*
X43926191Y-27524286D01*
X43926191Y-27600476D01*
X43888096Y-27714762D01*
X43430953Y-28171905D01*
X43926191Y-28171905D01*
M02*
