G04 #@! TF.FileFunction,Legend,Bot*
%FSLAX46Y46*%
G04 Gerber Fmt 4.6, Leading zero omitted, Abs format (unit mm)*
G04 Created by KiCad (PCBNEW 4.0.2-4+6225~38~ubuntu15.10.1-stable) date Sun 13 Mar 2016 03:12:41 AM EDT*
%MOMM*%
G01*
G04 APERTURE LIST*
%ADD10C,0.100000*%
%ADD11C,0.300000*%
%ADD12C,0.150000*%
G04 APERTURE END LIST*
D10*
X107683333Y-126500000D02*
X107749999Y-126466667D01*
X107849999Y-126466667D01*
X107949999Y-126500000D01*
X108016666Y-126566667D01*
X108049999Y-126633333D01*
X108083333Y-126766667D01*
X108083333Y-126866667D01*
X108049999Y-127000000D01*
X108016666Y-127066667D01*
X107949999Y-127133333D01*
X107849999Y-127166667D01*
X107783333Y-127166667D01*
X107683333Y-127133333D01*
X107649999Y-127100000D01*
X107649999Y-126866667D01*
X107783333Y-126866667D01*
X107349999Y-127166667D02*
X107349999Y-126466667D01*
X106949999Y-127166667D01*
X106949999Y-126466667D01*
X106616666Y-127166667D02*
X106616666Y-126466667D01*
X106450000Y-126466667D01*
X106350000Y-126500000D01*
X106283333Y-126566667D01*
X106250000Y-126633333D01*
X106216666Y-126766667D01*
X106216666Y-126866667D01*
X106250000Y-127000000D01*
X106283333Y-127066667D01*
X106350000Y-127133333D01*
X106450000Y-127166667D01*
X106616666Y-127166667D01*
X103633333Y-124616667D02*
X103633333Y-123916667D01*
X103466667Y-123916667D01*
X103366667Y-123950000D01*
X103300000Y-124016667D01*
X103266667Y-124083333D01*
X103233333Y-124216667D01*
X103233333Y-124316667D01*
X103266667Y-124450000D01*
X103300000Y-124516667D01*
X103366667Y-124583333D01*
X103466667Y-124616667D01*
X103633333Y-124616667D01*
X104516666Y-127100000D02*
X104550000Y-127133333D01*
X104650000Y-127166667D01*
X104716666Y-127166667D01*
X104816666Y-127133333D01*
X104883333Y-127066667D01*
X104916666Y-127000000D01*
X104950000Y-126866667D01*
X104950000Y-126766667D01*
X104916666Y-126633333D01*
X104883333Y-126566667D01*
X104816666Y-126500000D01*
X104716666Y-126466667D01*
X104650000Y-126466667D01*
X104550000Y-126500000D01*
X104516666Y-126533333D01*
X103883333Y-127166667D02*
X104216666Y-127166667D01*
X104216666Y-126466667D01*
X103649999Y-127166667D02*
X103649999Y-126466667D01*
X103249999Y-127166667D02*
X103549999Y-126766667D01*
X103249999Y-126466667D02*
X103649999Y-126866667D01*
X108133333Y-123916667D02*
X107900000Y-124616667D01*
X107666667Y-123916667D01*
X107033333Y-124550000D02*
X107066667Y-124583333D01*
X107166667Y-124616667D01*
X107233333Y-124616667D01*
X107333333Y-124583333D01*
X107400000Y-124516667D01*
X107433333Y-124450000D01*
X107466667Y-124316667D01*
X107466667Y-124216667D01*
X107433333Y-124083333D01*
X107400000Y-124016667D01*
X107333333Y-123950000D01*
X107233333Y-123916667D01*
X107166667Y-123916667D01*
X107066667Y-123950000D01*
X107033333Y-123983333D01*
X106333333Y-124550000D02*
X106366667Y-124583333D01*
X106466667Y-124616667D01*
X106533333Y-124616667D01*
X106633333Y-124583333D01*
X106700000Y-124516667D01*
X106733333Y-124450000D01*
X106766667Y-124316667D01*
X106766667Y-124216667D01*
X106733333Y-124083333D01*
X106700000Y-124016667D01*
X106633333Y-123950000D01*
X106533333Y-123916667D01*
X106466667Y-123916667D01*
X106366667Y-123950000D01*
X106333333Y-123983333D01*
X84816667Y-147616667D02*
X84116667Y-147616667D01*
X84116667Y-147783333D01*
X84150000Y-147883333D01*
X84216667Y-147950000D01*
X84283333Y-147983333D01*
X84416667Y-148016667D01*
X84516667Y-148016667D01*
X84650000Y-147983333D01*
X84716667Y-147950000D01*
X84783333Y-147883333D01*
X84816667Y-147783333D01*
X84816667Y-147616667D01*
X87300000Y-146733334D02*
X87333333Y-146700000D01*
X87366667Y-146600000D01*
X87366667Y-146533334D01*
X87333333Y-146433334D01*
X87266667Y-146366667D01*
X87200000Y-146333334D01*
X87066667Y-146300000D01*
X86966667Y-146300000D01*
X86833333Y-146333334D01*
X86766667Y-146366667D01*
X86700000Y-146433334D01*
X86666667Y-146533334D01*
X86666667Y-146600000D01*
X86700000Y-146700000D01*
X86733333Y-146733334D01*
X87366667Y-147366667D02*
X87366667Y-147033334D01*
X86666667Y-147033334D01*
X87366667Y-147600001D02*
X86666667Y-147600001D01*
X87366667Y-148000001D02*
X86966667Y-147700001D01*
X86666667Y-148000001D02*
X87066667Y-147600001D01*
X84116667Y-143116667D02*
X84816667Y-143350000D01*
X84116667Y-143583333D01*
X84750000Y-144216667D02*
X84783333Y-144183333D01*
X84816667Y-144083333D01*
X84816667Y-144016667D01*
X84783333Y-143916667D01*
X84716667Y-143850000D01*
X84650000Y-143816667D01*
X84516667Y-143783333D01*
X84416667Y-143783333D01*
X84283333Y-143816667D01*
X84216667Y-143850000D01*
X84150000Y-143916667D01*
X84116667Y-144016667D01*
X84116667Y-144083333D01*
X84150000Y-144183333D01*
X84183333Y-144216667D01*
X84750000Y-144916667D02*
X84783333Y-144883333D01*
X84816667Y-144783333D01*
X84816667Y-144716667D01*
X84783333Y-144616667D01*
X84716667Y-144550000D01*
X84650000Y-144516667D01*
X84516667Y-144483333D01*
X84416667Y-144483333D01*
X84283333Y-144516667D01*
X84216667Y-144550000D01*
X84150000Y-144616667D01*
X84116667Y-144716667D01*
X84116667Y-144783333D01*
X84150000Y-144883333D01*
X84183333Y-144916667D01*
X86700000Y-143566667D02*
X86666667Y-143500001D01*
X86666667Y-143400001D01*
X86700000Y-143300001D01*
X86766667Y-143233334D01*
X86833333Y-143200001D01*
X86966667Y-143166667D01*
X87066667Y-143166667D01*
X87200000Y-143200001D01*
X87266667Y-143233334D01*
X87333333Y-143300001D01*
X87366667Y-143400001D01*
X87366667Y-143466667D01*
X87333333Y-143566667D01*
X87300000Y-143600001D01*
X87066667Y-143600001D01*
X87066667Y-143466667D01*
X87366667Y-143900001D02*
X86666667Y-143900001D01*
X87366667Y-144300001D01*
X86666667Y-144300001D01*
X87366667Y-144633334D02*
X86666667Y-144633334D01*
X86666667Y-144800000D01*
X86700000Y-144900000D01*
X86766667Y-144966667D01*
X86833333Y-145000000D01*
X86966667Y-145033334D01*
X87066667Y-145033334D01*
X87200000Y-145000000D01*
X87266667Y-144966667D01*
X87333333Y-144900000D01*
X87366667Y-144800000D01*
X87366667Y-144633334D01*
X107716667Y-166333333D02*
X107716667Y-167033333D01*
X107883333Y-167033333D01*
X107983333Y-167000000D01*
X108050000Y-166933333D01*
X108083333Y-166866667D01*
X108116667Y-166733333D01*
X108116667Y-166633333D01*
X108083333Y-166500000D01*
X108050000Y-166433333D01*
X107983333Y-166366667D01*
X107883333Y-166333333D01*
X107716667Y-166333333D01*
X106833334Y-163850000D02*
X106800000Y-163816667D01*
X106700000Y-163783333D01*
X106633334Y-163783333D01*
X106533334Y-163816667D01*
X106466667Y-163883333D01*
X106433334Y-163950000D01*
X106400000Y-164083333D01*
X106400000Y-164183333D01*
X106433334Y-164316667D01*
X106466667Y-164383333D01*
X106533334Y-164450000D01*
X106633334Y-164483333D01*
X106700000Y-164483333D01*
X106800000Y-164450000D01*
X106833334Y-164416667D01*
X107466667Y-163783333D02*
X107133334Y-163783333D01*
X107133334Y-164483333D01*
X107700001Y-163783333D02*
X107700001Y-164483333D01*
X108100001Y-163783333D02*
X107800001Y-164183333D01*
X108100001Y-164483333D02*
X107700001Y-164083333D01*
X103216667Y-167033333D02*
X103450000Y-166333333D01*
X103683333Y-167033333D01*
X104316667Y-166400000D02*
X104283333Y-166366667D01*
X104183333Y-166333333D01*
X104116667Y-166333333D01*
X104016667Y-166366667D01*
X103950000Y-166433333D01*
X103916667Y-166500000D01*
X103883333Y-166633333D01*
X103883333Y-166733333D01*
X103916667Y-166866667D01*
X103950000Y-166933333D01*
X104016667Y-167000000D01*
X104116667Y-167033333D01*
X104183333Y-167033333D01*
X104283333Y-167000000D01*
X104316667Y-166966667D01*
X105016667Y-166400000D02*
X104983333Y-166366667D01*
X104883333Y-166333333D01*
X104816667Y-166333333D01*
X104716667Y-166366667D01*
X104650000Y-166433333D01*
X104616667Y-166500000D01*
X104583333Y-166633333D01*
X104583333Y-166733333D01*
X104616667Y-166866667D01*
X104650000Y-166933333D01*
X104716667Y-167000000D01*
X104816667Y-167033333D01*
X104883333Y-167033333D01*
X104983333Y-167000000D01*
X105016667Y-166966667D01*
X103666667Y-164450000D02*
X103600001Y-164483333D01*
X103500001Y-164483333D01*
X103400001Y-164450000D01*
X103333334Y-164383333D01*
X103300001Y-164316667D01*
X103266667Y-164183333D01*
X103266667Y-164083333D01*
X103300001Y-163950000D01*
X103333334Y-163883333D01*
X103400001Y-163816667D01*
X103500001Y-163783333D01*
X103566667Y-163783333D01*
X103666667Y-163816667D01*
X103700001Y-163850000D01*
X103700001Y-164083333D01*
X103566667Y-164083333D01*
X104000001Y-163783333D02*
X104000001Y-164483333D01*
X104400001Y-163783333D01*
X104400001Y-164483333D01*
X104733334Y-163783333D02*
X104733334Y-164483333D01*
X104900000Y-164483333D01*
X105000000Y-164450000D01*
X105066667Y-164383333D01*
X105100000Y-164316667D01*
X105133334Y-164183333D01*
X105133334Y-164083333D01*
X105100000Y-163950000D01*
X105066667Y-163883333D01*
X105000000Y-163816667D01*
X104900000Y-163783333D01*
X104733334Y-163783333D01*
X126433333Y-143533333D02*
X127133333Y-143533333D01*
X127133333Y-143366667D01*
X127100000Y-143266667D01*
X127033333Y-143200000D01*
X126966667Y-143166667D01*
X126833333Y-143133333D01*
X126733333Y-143133333D01*
X126600000Y-143166667D01*
X126533333Y-143200000D01*
X126466667Y-143266667D01*
X126433333Y-143366667D01*
X126433333Y-143533333D01*
X123950000Y-144416666D02*
X123916667Y-144450000D01*
X123883333Y-144550000D01*
X123883333Y-144616666D01*
X123916667Y-144716666D01*
X123983333Y-144783333D01*
X124050000Y-144816666D01*
X124183333Y-144850000D01*
X124283333Y-144850000D01*
X124416667Y-144816666D01*
X124483333Y-144783333D01*
X124550000Y-144716666D01*
X124583333Y-144616666D01*
X124583333Y-144550000D01*
X124550000Y-144450000D01*
X124516667Y-144416666D01*
X123883333Y-143783333D02*
X123883333Y-144116666D01*
X124583333Y-144116666D01*
X123883333Y-143549999D02*
X124583333Y-143549999D01*
X123883333Y-143149999D02*
X124283333Y-143449999D01*
X124583333Y-143149999D02*
X124183333Y-143549999D01*
X124550000Y-147583333D02*
X124583333Y-147649999D01*
X124583333Y-147749999D01*
X124550000Y-147849999D01*
X124483333Y-147916666D01*
X124416667Y-147949999D01*
X124283333Y-147983333D01*
X124183333Y-147983333D01*
X124050000Y-147949999D01*
X123983333Y-147916666D01*
X123916667Y-147849999D01*
X123883333Y-147749999D01*
X123883333Y-147683333D01*
X123916667Y-147583333D01*
X123950000Y-147549999D01*
X124183333Y-147549999D01*
X124183333Y-147683333D01*
X123883333Y-147249999D02*
X124583333Y-147249999D01*
X123883333Y-146849999D01*
X124583333Y-146849999D01*
X123883333Y-146516666D02*
X124583333Y-146516666D01*
X124583333Y-146350000D01*
X124550000Y-146250000D01*
X124483333Y-146183333D01*
X124416667Y-146150000D01*
X124283333Y-146116666D01*
X124183333Y-146116666D01*
X124050000Y-146150000D01*
X123983333Y-146183333D01*
X123916667Y-146250000D01*
X123883333Y-146350000D01*
X123883333Y-146516666D01*
X127133333Y-148033333D02*
X126433333Y-147800000D01*
X127133333Y-147566667D01*
X126500000Y-146933333D02*
X126466667Y-146966667D01*
X126433333Y-147066667D01*
X126433333Y-147133333D01*
X126466667Y-147233333D01*
X126533333Y-147300000D01*
X126600000Y-147333333D01*
X126733333Y-147366667D01*
X126833333Y-147366667D01*
X126966667Y-147333333D01*
X127033333Y-147300000D01*
X127100000Y-147233333D01*
X127133333Y-147133333D01*
X127133333Y-147066667D01*
X127100000Y-146966667D01*
X127066667Y-146933333D01*
X126500000Y-146233333D02*
X126466667Y-146266667D01*
X126433333Y-146366667D01*
X126433333Y-146433333D01*
X126466667Y-146533333D01*
X126533333Y-146600000D01*
X126600000Y-146633333D01*
X126733333Y-146666667D01*
X126833333Y-146666667D01*
X126966667Y-146633333D01*
X127033333Y-146600000D01*
X127100000Y-146533333D01*
X127133333Y-146433333D01*
X127133333Y-146366667D01*
X127100000Y-146266667D01*
X127066667Y-146233333D01*
X150833334Y-163850000D02*
X150800000Y-163816667D01*
X150700000Y-163783333D01*
X150633334Y-163783333D01*
X150533334Y-163816667D01*
X150466667Y-163883333D01*
X150433334Y-163950000D01*
X150400000Y-164083333D01*
X150400000Y-164183333D01*
X150433334Y-164316667D01*
X150466667Y-164383333D01*
X150533334Y-164450000D01*
X150633334Y-164483333D01*
X150700000Y-164483333D01*
X150800000Y-164450000D01*
X150833334Y-164416667D01*
X151466667Y-163783333D02*
X151133334Y-163783333D01*
X151133334Y-164483333D01*
X151700001Y-163783333D02*
X151700001Y-164483333D01*
X152100001Y-163783333D02*
X151800001Y-164183333D01*
X152100001Y-164483333D02*
X151700001Y-164083333D01*
X153766667Y-164450000D02*
X153700001Y-164483333D01*
X153600001Y-164483333D01*
X153500001Y-164450000D01*
X153433334Y-164383333D01*
X153400001Y-164316667D01*
X153366667Y-164183333D01*
X153366667Y-164083333D01*
X153400001Y-163950000D01*
X153433334Y-163883333D01*
X153500001Y-163816667D01*
X153600001Y-163783333D01*
X153666667Y-163783333D01*
X153766667Y-163816667D01*
X153800001Y-163850000D01*
X153800001Y-164083333D01*
X153666667Y-164083333D01*
X154100001Y-163783333D02*
X154100001Y-164483333D01*
X154500001Y-163783333D01*
X154500001Y-164483333D01*
X154833334Y-163783333D02*
X154833334Y-164483333D01*
X155000000Y-164483333D01*
X155100000Y-164450000D01*
X155166667Y-164383333D01*
X155200000Y-164316667D01*
X155233334Y-164183333D01*
X155233334Y-164083333D01*
X155200000Y-163950000D01*
X155166667Y-163883333D01*
X155100000Y-163816667D01*
X155000000Y-163783333D01*
X154833334Y-163783333D01*
X150416667Y-166333333D02*
X150416667Y-167033333D01*
X150583333Y-167033333D01*
X150683333Y-167000000D01*
X150750000Y-166933333D01*
X150783333Y-166866667D01*
X150816667Y-166733333D01*
X150816667Y-166633333D01*
X150783333Y-166500000D01*
X150750000Y-166433333D01*
X150683333Y-166366667D01*
X150583333Y-166333333D01*
X150416667Y-166333333D01*
X153416667Y-167033333D02*
X153650000Y-166333333D01*
X153883333Y-167033333D01*
X154516667Y-166400000D02*
X154483333Y-166366667D01*
X154383333Y-166333333D01*
X154316667Y-166333333D01*
X154216667Y-166366667D01*
X154150000Y-166433333D01*
X154116667Y-166500000D01*
X154083333Y-166633333D01*
X154083333Y-166733333D01*
X154116667Y-166866667D01*
X154150000Y-166933333D01*
X154216667Y-167000000D01*
X154316667Y-167033333D01*
X154383333Y-167033333D01*
X154483333Y-167000000D01*
X154516667Y-166966667D01*
X155216667Y-166400000D02*
X155183333Y-166366667D01*
X155083333Y-166333333D01*
X155016667Y-166333333D01*
X154916667Y-166366667D01*
X154850000Y-166433333D01*
X154816667Y-166500000D01*
X154783333Y-166633333D01*
X154783333Y-166733333D01*
X154816667Y-166866667D01*
X154850000Y-166933333D01*
X154916667Y-167000000D01*
X155016667Y-167033333D01*
X155083333Y-167033333D01*
X155183333Y-167000000D01*
X155216667Y-166966667D01*
X174433333Y-144883333D02*
X173733333Y-144650000D01*
X174433333Y-144416667D01*
X173800000Y-143783333D02*
X173766667Y-143816667D01*
X173733333Y-143916667D01*
X173733333Y-143983333D01*
X173766667Y-144083333D01*
X173833333Y-144150000D01*
X173900000Y-144183333D01*
X174033333Y-144216667D01*
X174133333Y-144216667D01*
X174266667Y-144183333D01*
X174333333Y-144150000D01*
X174400000Y-144083333D01*
X174433333Y-143983333D01*
X174433333Y-143916667D01*
X174400000Y-143816667D01*
X174366667Y-143783333D01*
X173800000Y-143083333D02*
X173766667Y-143116667D01*
X173733333Y-143216667D01*
X173733333Y-143283333D01*
X173766667Y-143383333D01*
X173833333Y-143450000D01*
X173900000Y-143483333D01*
X174033333Y-143516667D01*
X174133333Y-143516667D01*
X174266667Y-143483333D01*
X174333333Y-143450000D01*
X174400000Y-143383333D01*
X174433333Y-143283333D01*
X174433333Y-143216667D01*
X174400000Y-143116667D01*
X174366667Y-143083333D01*
X171850000Y-144533333D02*
X171883333Y-144599999D01*
X171883333Y-144699999D01*
X171850000Y-144799999D01*
X171783333Y-144866666D01*
X171716667Y-144899999D01*
X171583333Y-144933333D01*
X171483333Y-144933333D01*
X171350000Y-144899999D01*
X171283333Y-144866666D01*
X171216667Y-144799999D01*
X171183333Y-144699999D01*
X171183333Y-144633333D01*
X171216667Y-144533333D01*
X171250000Y-144499999D01*
X171483333Y-144499999D01*
X171483333Y-144633333D01*
X171183333Y-144199999D02*
X171883333Y-144199999D01*
X171183333Y-143799999D01*
X171883333Y-143799999D01*
X171183333Y-143466666D02*
X171883333Y-143466666D01*
X171883333Y-143300000D01*
X171850000Y-143200000D01*
X171783333Y-143133333D01*
X171716667Y-143100000D01*
X171583333Y-143066666D01*
X171483333Y-143066666D01*
X171350000Y-143100000D01*
X171283333Y-143133333D01*
X171216667Y-143200000D01*
X171183333Y-143300000D01*
X171183333Y-143466666D01*
X171250000Y-147466666D02*
X171216667Y-147500000D01*
X171183333Y-147600000D01*
X171183333Y-147666666D01*
X171216667Y-147766666D01*
X171283333Y-147833333D01*
X171350000Y-147866666D01*
X171483333Y-147900000D01*
X171583333Y-147900000D01*
X171716667Y-147866666D01*
X171783333Y-147833333D01*
X171850000Y-147766666D01*
X171883333Y-147666666D01*
X171883333Y-147600000D01*
X171850000Y-147500000D01*
X171816667Y-147466666D01*
X171183333Y-146833333D02*
X171183333Y-147166666D01*
X171883333Y-147166666D01*
X171183333Y-146599999D02*
X171883333Y-146599999D01*
X171183333Y-146199999D02*
X171583333Y-146499999D01*
X171883333Y-146199999D02*
X171483333Y-146599999D01*
X173733333Y-147883333D02*
X174433333Y-147883333D01*
X174433333Y-147716667D01*
X174400000Y-147616667D01*
X174333333Y-147550000D01*
X174266667Y-147516667D01*
X174133333Y-147483333D01*
X174033333Y-147483333D01*
X173900000Y-147516667D01*
X173833333Y-147550000D01*
X173766667Y-147616667D01*
X173733333Y-147716667D01*
X173733333Y-147883333D01*
X151833333Y-126550000D02*
X151899999Y-126516667D01*
X151999999Y-126516667D01*
X152099999Y-126550000D01*
X152166666Y-126616667D01*
X152199999Y-126683333D01*
X152233333Y-126816667D01*
X152233333Y-126916667D01*
X152199999Y-127050000D01*
X152166666Y-127116667D01*
X152099999Y-127183333D01*
X151999999Y-127216667D01*
X151933333Y-127216667D01*
X151833333Y-127183333D01*
X151799999Y-127150000D01*
X151799999Y-126916667D01*
X151933333Y-126916667D01*
X151499999Y-127216667D02*
X151499999Y-126516667D01*
X151099999Y-127216667D01*
X151099999Y-126516667D01*
X150766666Y-127216667D02*
X150766666Y-126516667D01*
X150600000Y-126516667D01*
X150500000Y-126550000D01*
X150433333Y-126616667D01*
X150400000Y-126683333D01*
X150366666Y-126816667D01*
X150366666Y-126916667D01*
X150400000Y-127050000D01*
X150433333Y-127116667D01*
X150500000Y-127183333D01*
X150600000Y-127216667D01*
X150766666Y-127216667D01*
X152183333Y-123966667D02*
X151950000Y-124666667D01*
X151716667Y-123966667D01*
X151083333Y-124600000D02*
X151116667Y-124633333D01*
X151216667Y-124666667D01*
X151283333Y-124666667D01*
X151383333Y-124633333D01*
X151450000Y-124566667D01*
X151483333Y-124500000D01*
X151516667Y-124366667D01*
X151516667Y-124266667D01*
X151483333Y-124133333D01*
X151450000Y-124066667D01*
X151383333Y-124000000D01*
X151283333Y-123966667D01*
X151216667Y-123966667D01*
X151116667Y-124000000D01*
X151083333Y-124033333D01*
X150383333Y-124600000D02*
X150416667Y-124633333D01*
X150516667Y-124666667D01*
X150583333Y-124666667D01*
X150683333Y-124633333D01*
X150750000Y-124566667D01*
X150783333Y-124500000D01*
X150816667Y-124366667D01*
X150816667Y-124266667D01*
X150783333Y-124133333D01*
X150750000Y-124066667D01*
X150683333Y-124000000D01*
X150583333Y-123966667D01*
X150516667Y-123966667D01*
X150416667Y-124000000D01*
X150383333Y-124033333D01*
X155183333Y-124666667D02*
X155183333Y-123966667D01*
X155016667Y-123966667D01*
X154916667Y-124000000D01*
X154850000Y-124066667D01*
X154816667Y-124133333D01*
X154783333Y-124266667D01*
X154783333Y-124366667D01*
X154816667Y-124500000D01*
X154850000Y-124566667D01*
X154916667Y-124633333D01*
X155016667Y-124666667D01*
X155183333Y-124666667D01*
X154766666Y-127150000D02*
X154800000Y-127183333D01*
X154900000Y-127216667D01*
X154966666Y-127216667D01*
X155066666Y-127183333D01*
X155133333Y-127116667D01*
X155166666Y-127050000D01*
X155200000Y-126916667D01*
X155200000Y-126816667D01*
X155166666Y-126683333D01*
X155133333Y-126616667D01*
X155066666Y-126550000D01*
X154966666Y-126516667D01*
X154900000Y-126516667D01*
X154800000Y-126550000D01*
X154766666Y-126583333D01*
X154133333Y-127216667D02*
X154466666Y-127216667D01*
X154466666Y-126516667D01*
X153899999Y-127216667D02*
X153899999Y-126516667D01*
X153499999Y-127216667D02*
X153799999Y-126816667D01*
X153499999Y-126516667D02*
X153899999Y-126916667D01*
X133750000Y-146466667D02*
X133716667Y-146400001D01*
X133716667Y-146300001D01*
X133750000Y-146200001D01*
X133816667Y-146133334D01*
X133883333Y-146100001D01*
X134016667Y-146066667D01*
X134116667Y-146066667D01*
X134250000Y-146100001D01*
X134316667Y-146133334D01*
X134383333Y-146200001D01*
X134416667Y-146300001D01*
X134416667Y-146366667D01*
X134383333Y-146466667D01*
X134350000Y-146500001D01*
X134116667Y-146500001D01*
X134116667Y-146366667D01*
X134416667Y-146800001D02*
X133716667Y-146800001D01*
X134416667Y-147200001D01*
X133716667Y-147200001D01*
X134416667Y-147533334D02*
X133716667Y-147533334D01*
X133716667Y-147700000D01*
X133750000Y-147800000D01*
X133816667Y-147866667D01*
X133883333Y-147900000D01*
X134016667Y-147933334D01*
X134116667Y-147933334D01*
X134250000Y-147900000D01*
X134316667Y-147866667D01*
X134383333Y-147800000D01*
X134416667Y-147700000D01*
X134416667Y-147533334D01*
X131166667Y-146116667D02*
X131866667Y-146350000D01*
X131166667Y-146583333D01*
X131800000Y-147216667D02*
X131833333Y-147183333D01*
X131866667Y-147083333D01*
X131866667Y-147016667D01*
X131833333Y-146916667D01*
X131766667Y-146850000D01*
X131700000Y-146816667D01*
X131566667Y-146783333D01*
X131466667Y-146783333D01*
X131333333Y-146816667D01*
X131266667Y-146850000D01*
X131200000Y-146916667D01*
X131166667Y-147016667D01*
X131166667Y-147083333D01*
X131200000Y-147183333D01*
X131233333Y-147216667D01*
X131800000Y-147916667D02*
X131833333Y-147883333D01*
X131866667Y-147783333D01*
X131866667Y-147716667D01*
X131833333Y-147616667D01*
X131766667Y-147550000D01*
X131700000Y-147516667D01*
X131566667Y-147483333D01*
X131466667Y-147483333D01*
X131333333Y-147516667D01*
X131266667Y-147550000D01*
X131200000Y-147616667D01*
X131166667Y-147716667D01*
X131166667Y-147783333D01*
X131200000Y-147883333D01*
X131233333Y-147916667D01*
X131866667Y-143116667D02*
X131166667Y-143116667D01*
X131166667Y-143283333D01*
X131200000Y-143383333D01*
X131266667Y-143450000D01*
X131333333Y-143483333D01*
X131466667Y-143516667D01*
X131566667Y-143516667D01*
X131700000Y-143483333D01*
X131766667Y-143450000D01*
X131833333Y-143383333D01*
X131866667Y-143283333D01*
X131866667Y-143116667D01*
X134350000Y-143533334D02*
X134383333Y-143500000D01*
X134416667Y-143400000D01*
X134416667Y-143333334D01*
X134383333Y-143233334D01*
X134316667Y-143166667D01*
X134250000Y-143133334D01*
X134116667Y-143100000D01*
X134016667Y-143100000D01*
X133883333Y-143133334D01*
X133816667Y-143166667D01*
X133750000Y-143233334D01*
X133716667Y-143333334D01*
X133716667Y-143400000D01*
X133750000Y-143500000D01*
X133783333Y-143533334D01*
X134416667Y-144166667D02*
X134416667Y-143833334D01*
X133716667Y-143833334D01*
X134416667Y-144400001D02*
X133716667Y-144400001D01*
X134416667Y-144800001D02*
X134016667Y-144500001D01*
X133716667Y-144800001D02*
X134116667Y-144400001D01*
X150083333Y-118483333D02*
X150783333Y-118483333D01*
X150783333Y-118316667D01*
X150750000Y-118216667D01*
X150683333Y-118150000D01*
X150616667Y-118116667D01*
X150483333Y-118083333D01*
X150383333Y-118083333D01*
X150250000Y-118116667D01*
X150183333Y-118150000D01*
X150116667Y-118216667D01*
X150083333Y-118316667D01*
X150083333Y-118483333D01*
X150783333Y-115483333D02*
X150083333Y-115250000D01*
X150783333Y-115016667D01*
X150150000Y-114383333D02*
X150116667Y-114416667D01*
X150083333Y-114516667D01*
X150083333Y-114583333D01*
X150116667Y-114683333D01*
X150183333Y-114750000D01*
X150250000Y-114783333D01*
X150383333Y-114816667D01*
X150483333Y-114816667D01*
X150616667Y-114783333D01*
X150683333Y-114750000D01*
X150750000Y-114683333D01*
X150783333Y-114583333D01*
X150783333Y-114516667D01*
X150750000Y-114416667D01*
X150716667Y-114383333D01*
X150150000Y-113683333D02*
X150116667Y-113716667D01*
X150083333Y-113816667D01*
X150083333Y-113883333D01*
X150116667Y-113983333D01*
X150183333Y-114050000D01*
X150250000Y-114083333D01*
X150383333Y-114116667D01*
X150483333Y-114116667D01*
X150616667Y-114083333D01*
X150683333Y-114050000D01*
X150750000Y-113983333D01*
X150783333Y-113883333D01*
X150783333Y-113816667D01*
X150750000Y-113716667D01*
X150716667Y-113683333D01*
X148200000Y-115133333D02*
X148233333Y-115199999D01*
X148233333Y-115299999D01*
X148200000Y-115399999D01*
X148133333Y-115466666D01*
X148066667Y-115499999D01*
X147933333Y-115533333D01*
X147833333Y-115533333D01*
X147700000Y-115499999D01*
X147633333Y-115466666D01*
X147566667Y-115399999D01*
X147533333Y-115299999D01*
X147533333Y-115233333D01*
X147566667Y-115133333D01*
X147600000Y-115099999D01*
X147833333Y-115099999D01*
X147833333Y-115233333D01*
X147533333Y-114799999D02*
X148233333Y-114799999D01*
X147533333Y-114399999D01*
X148233333Y-114399999D01*
X147533333Y-114066666D02*
X148233333Y-114066666D01*
X148233333Y-113900000D01*
X148200000Y-113800000D01*
X148133333Y-113733333D01*
X148066667Y-113700000D01*
X147933333Y-113666666D01*
X147833333Y-113666666D01*
X147700000Y-113700000D01*
X147633333Y-113733333D01*
X147566667Y-113800000D01*
X147533333Y-113900000D01*
X147533333Y-114066666D01*
X147600000Y-118066666D02*
X147566667Y-118100000D01*
X147533333Y-118200000D01*
X147533333Y-118266666D01*
X147566667Y-118366666D01*
X147633333Y-118433333D01*
X147700000Y-118466666D01*
X147833333Y-118500000D01*
X147933333Y-118500000D01*
X148066667Y-118466666D01*
X148133333Y-118433333D01*
X148200000Y-118366666D01*
X148233333Y-118266666D01*
X148233333Y-118200000D01*
X148200000Y-118100000D01*
X148166667Y-118066666D01*
X147533333Y-117433333D02*
X147533333Y-117766666D01*
X148233333Y-117766666D01*
X147533333Y-117199999D02*
X148233333Y-117199999D01*
X147533333Y-116799999D02*
X147933333Y-117099999D01*
X148233333Y-116799999D02*
X147833333Y-117199999D01*
X150033333Y-107133333D02*
X150733333Y-107133333D01*
X150733333Y-106966667D01*
X150700000Y-106866667D01*
X150633333Y-106800000D01*
X150566667Y-106766667D01*
X150433333Y-106733333D01*
X150333333Y-106733333D01*
X150200000Y-106766667D01*
X150133333Y-106800000D01*
X150066667Y-106866667D01*
X150033333Y-106966667D01*
X150033333Y-107133333D01*
X150733333Y-104133333D02*
X150033333Y-103900000D01*
X150733333Y-103666667D01*
X150100000Y-103033333D02*
X150066667Y-103066667D01*
X150033333Y-103166667D01*
X150033333Y-103233333D01*
X150066667Y-103333333D01*
X150133333Y-103400000D01*
X150200000Y-103433333D01*
X150333333Y-103466667D01*
X150433333Y-103466667D01*
X150566667Y-103433333D01*
X150633333Y-103400000D01*
X150700000Y-103333333D01*
X150733333Y-103233333D01*
X150733333Y-103166667D01*
X150700000Y-103066667D01*
X150666667Y-103033333D01*
X150100000Y-102333333D02*
X150066667Y-102366667D01*
X150033333Y-102466667D01*
X150033333Y-102533333D01*
X150066667Y-102633333D01*
X150133333Y-102700000D01*
X150200000Y-102733333D01*
X150333333Y-102766667D01*
X150433333Y-102766667D01*
X150566667Y-102733333D01*
X150633333Y-102700000D01*
X150700000Y-102633333D01*
X150733333Y-102533333D01*
X150733333Y-102466667D01*
X150700000Y-102366667D01*
X150666667Y-102333333D01*
X148150000Y-103783333D02*
X148183333Y-103849999D01*
X148183333Y-103949999D01*
X148150000Y-104049999D01*
X148083333Y-104116666D01*
X148016667Y-104149999D01*
X147883333Y-104183333D01*
X147783333Y-104183333D01*
X147650000Y-104149999D01*
X147583333Y-104116666D01*
X147516667Y-104049999D01*
X147483333Y-103949999D01*
X147483333Y-103883333D01*
X147516667Y-103783333D01*
X147550000Y-103749999D01*
X147783333Y-103749999D01*
X147783333Y-103883333D01*
X147483333Y-103449999D02*
X148183333Y-103449999D01*
X147483333Y-103049999D01*
X148183333Y-103049999D01*
X147483333Y-102716666D02*
X148183333Y-102716666D01*
X148183333Y-102550000D01*
X148150000Y-102450000D01*
X148083333Y-102383333D01*
X148016667Y-102350000D01*
X147883333Y-102316666D01*
X147783333Y-102316666D01*
X147650000Y-102350000D01*
X147583333Y-102383333D01*
X147516667Y-102450000D01*
X147483333Y-102550000D01*
X147483333Y-102716666D01*
X147550000Y-106716666D02*
X147516667Y-106750000D01*
X147483333Y-106850000D01*
X147483333Y-106916666D01*
X147516667Y-107016666D01*
X147583333Y-107083333D01*
X147650000Y-107116666D01*
X147783333Y-107150000D01*
X147883333Y-107150000D01*
X148016667Y-107116666D01*
X148083333Y-107083333D01*
X148150000Y-107016666D01*
X148183333Y-106916666D01*
X148183333Y-106850000D01*
X148150000Y-106750000D01*
X148116667Y-106716666D01*
X147483333Y-106083333D02*
X147483333Y-106416666D01*
X148183333Y-106416666D01*
X147483333Y-105849999D02*
X148183333Y-105849999D01*
X147483333Y-105449999D02*
X147883333Y-105749999D01*
X148183333Y-105449999D02*
X147783333Y-105849999D01*
X150683333Y-80883333D02*
X149983333Y-80650000D01*
X150683333Y-80416667D01*
X150050000Y-79783333D02*
X150016667Y-79816667D01*
X149983333Y-79916667D01*
X149983333Y-79983333D01*
X150016667Y-80083333D01*
X150083333Y-80150000D01*
X150150000Y-80183333D01*
X150283333Y-80216667D01*
X150383333Y-80216667D01*
X150516667Y-80183333D01*
X150583333Y-80150000D01*
X150650000Y-80083333D01*
X150683333Y-79983333D01*
X150683333Y-79916667D01*
X150650000Y-79816667D01*
X150616667Y-79783333D01*
X150050000Y-79083333D02*
X150016667Y-79116667D01*
X149983333Y-79216667D01*
X149983333Y-79283333D01*
X150016667Y-79383333D01*
X150083333Y-79450000D01*
X150150000Y-79483333D01*
X150283333Y-79516667D01*
X150383333Y-79516667D01*
X150516667Y-79483333D01*
X150583333Y-79450000D01*
X150650000Y-79383333D01*
X150683333Y-79283333D01*
X150683333Y-79216667D01*
X150650000Y-79116667D01*
X150616667Y-79083333D01*
X148100000Y-80533333D02*
X148133333Y-80599999D01*
X148133333Y-80699999D01*
X148100000Y-80799999D01*
X148033333Y-80866666D01*
X147966667Y-80899999D01*
X147833333Y-80933333D01*
X147733333Y-80933333D01*
X147600000Y-80899999D01*
X147533333Y-80866666D01*
X147466667Y-80799999D01*
X147433333Y-80699999D01*
X147433333Y-80633333D01*
X147466667Y-80533333D01*
X147500000Y-80499999D01*
X147733333Y-80499999D01*
X147733333Y-80633333D01*
X147433333Y-80199999D02*
X148133333Y-80199999D01*
X147433333Y-79799999D01*
X148133333Y-79799999D01*
X147433333Y-79466666D02*
X148133333Y-79466666D01*
X148133333Y-79300000D01*
X148100000Y-79200000D01*
X148033333Y-79133333D01*
X147966667Y-79100000D01*
X147833333Y-79066666D01*
X147733333Y-79066666D01*
X147600000Y-79100000D01*
X147533333Y-79133333D01*
X147466667Y-79200000D01*
X147433333Y-79300000D01*
X147433333Y-79466666D01*
X149983333Y-83883333D02*
X150683333Y-83883333D01*
X150683333Y-83716667D01*
X150650000Y-83616667D01*
X150583333Y-83550000D01*
X150516667Y-83516667D01*
X150383333Y-83483333D01*
X150283333Y-83483333D01*
X150150000Y-83516667D01*
X150083333Y-83550000D01*
X150016667Y-83616667D01*
X149983333Y-83716667D01*
X149983333Y-83883333D01*
X147500000Y-83466666D02*
X147466667Y-83500000D01*
X147433333Y-83600000D01*
X147433333Y-83666666D01*
X147466667Y-83766666D01*
X147533333Y-83833333D01*
X147600000Y-83866666D01*
X147733333Y-83900000D01*
X147833333Y-83900000D01*
X147966667Y-83866666D01*
X148033333Y-83833333D01*
X148100000Y-83766666D01*
X148133333Y-83666666D01*
X148133333Y-83600000D01*
X148100000Y-83500000D01*
X148066667Y-83466666D01*
X147433333Y-82833333D02*
X147433333Y-83166666D01*
X148133333Y-83166666D01*
X147433333Y-82599999D02*
X148133333Y-82599999D01*
X147433333Y-82199999D02*
X147833333Y-82499999D01*
X148133333Y-82199999D02*
X147733333Y-82599999D01*
X107366667Y-113666667D02*
X108066667Y-113900000D01*
X107366667Y-114133333D01*
X108000000Y-114766667D02*
X108033333Y-114733333D01*
X108066667Y-114633333D01*
X108066667Y-114566667D01*
X108033333Y-114466667D01*
X107966667Y-114400000D01*
X107900000Y-114366667D01*
X107766667Y-114333333D01*
X107666667Y-114333333D01*
X107533333Y-114366667D01*
X107466667Y-114400000D01*
X107400000Y-114466667D01*
X107366667Y-114566667D01*
X107366667Y-114633333D01*
X107400000Y-114733333D01*
X107433333Y-114766667D01*
X108000000Y-115466667D02*
X108033333Y-115433333D01*
X108066667Y-115333333D01*
X108066667Y-115266667D01*
X108033333Y-115166667D01*
X107966667Y-115100000D01*
X107900000Y-115066667D01*
X107766667Y-115033333D01*
X107666667Y-115033333D01*
X107533333Y-115066667D01*
X107466667Y-115100000D01*
X107400000Y-115166667D01*
X107366667Y-115266667D01*
X107366667Y-115333333D01*
X107400000Y-115433333D01*
X107433333Y-115466667D01*
X109950000Y-114066667D02*
X109916667Y-114000001D01*
X109916667Y-113900001D01*
X109950000Y-113800001D01*
X110016667Y-113733334D01*
X110083333Y-113700001D01*
X110216667Y-113666667D01*
X110316667Y-113666667D01*
X110450000Y-113700001D01*
X110516667Y-113733334D01*
X110583333Y-113800001D01*
X110616667Y-113900001D01*
X110616667Y-113966667D01*
X110583333Y-114066667D01*
X110550000Y-114100001D01*
X110316667Y-114100001D01*
X110316667Y-113966667D01*
X110616667Y-114400001D02*
X109916667Y-114400001D01*
X110616667Y-114800001D01*
X109916667Y-114800001D01*
X110616667Y-115133334D02*
X109916667Y-115133334D01*
X109916667Y-115300000D01*
X109950000Y-115400000D01*
X110016667Y-115466667D01*
X110083333Y-115500000D01*
X110216667Y-115533334D01*
X110316667Y-115533334D01*
X110450000Y-115500000D01*
X110516667Y-115466667D01*
X110583333Y-115400000D01*
X110616667Y-115300000D01*
X110616667Y-115133334D01*
X108066667Y-118166667D02*
X107366667Y-118166667D01*
X107366667Y-118333333D01*
X107400000Y-118433333D01*
X107466667Y-118500000D01*
X107533333Y-118533333D01*
X107666667Y-118566667D01*
X107766667Y-118566667D01*
X107900000Y-118533333D01*
X107966667Y-118500000D01*
X108033333Y-118433333D01*
X108066667Y-118333333D01*
X108066667Y-118166667D01*
X110550000Y-117283334D02*
X110583333Y-117250000D01*
X110616667Y-117150000D01*
X110616667Y-117083334D01*
X110583333Y-116983334D01*
X110516667Y-116916667D01*
X110450000Y-116883334D01*
X110316667Y-116850000D01*
X110216667Y-116850000D01*
X110083333Y-116883334D01*
X110016667Y-116916667D01*
X109950000Y-116983334D01*
X109916667Y-117083334D01*
X109916667Y-117150000D01*
X109950000Y-117250000D01*
X109983333Y-117283334D01*
X110616667Y-117916667D02*
X110616667Y-117583334D01*
X109916667Y-117583334D01*
X110616667Y-118150001D02*
X109916667Y-118150001D01*
X110616667Y-118550001D02*
X110216667Y-118250001D01*
X109916667Y-118550001D02*
X110316667Y-118150001D01*
X110550000Y-105883334D02*
X110583333Y-105850000D01*
X110616667Y-105750000D01*
X110616667Y-105683334D01*
X110583333Y-105583334D01*
X110516667Y-105516667D01*
X110450000Y-105483334D01*
X110316667Y-105450000D01*
X110216667Y-105450000D01*
X110083333Y-105483334D01*
X110016667Y-105516667D01*
X109950000Y-105583334D01*
X109916667Y-105683334D01*
X109916667Y-105750000D01*
X109950000Y-105850000D01*
X109983333Y-105883334D01*
X110616667Y-106516667D02*
X110616667Y-106183334D01*
X109916667Y-106183334D01*
X110616667Y-106750001D02*
X109916667Y-106750001D01*
X110616667Y-107150001D02*
X110216667Y-106850001D01*
X109916667Y-107150001D02*
X110316667Y-106750001D01*
X108066667Y-106766667D02*
X107366667Y-106766667D01*
X107366667Y-106933333D01*
X107400000Y-107033333D01*
X107466667Y-107100000D01*
X107533333Y-107133333D01*
X107666667Y-107166667D01*
X107766667Y-107166667D01*
X107900000Y-107133333D01*
X107966667Y-107100000D01*
X108033333Y-107033333D01*
X108066667Y-106933333D01*
X108066667Y-106766667D01*
X107366667Y-102266667D02*
X108066667Y-102500000D01*
X107366667Y-102733333D01*
X108000000Y-103366667D02*
X108033333Y-103333333D01*
X108066667Y-103233333D01*
X108066667Y-103166667D01*
X108033333Y-103066667D01*
X107966667Y-103000000D01*
X107900000Y-102966667D01*
X107766667Y-102933333D01*
X107666667Y-102933333D01*
X107533333Y-102966667D01*
X107466667Y-103000000D01*
X107400000Y-103066667D01*
X107366667Y-103166667D01*
X107366667Y-103233333D01*
X107400000Y-103333333D01*
X107433333Y-103366667D01*
X108000000Y-104066667D02*
X108033333Y-104033333D01*
X108066667Y-103933333D01*
X108066667Y-103866667D01*
X108033333Y-103766667D01*
X107966667Y-103700000D01*
X107900000Y-103666667D01*
X107766667Y-103633333D01*
X107666667Y-103633333D01*
X107533333Y-103666667D01*
X107466667Y-103700000D01*
X107400000Y-103766667D01*
X107366667Y-103866667D01*
X107366667Y-103933333D01*
X107400000Y-104033333D01*
X107433333Y-104066667D01*
X109950000Y-102666667D02*
X109916667Y-102600001D01*
X109916667Y-102500001D01*
X109950000Y-102400001D01*
X110016667Y-102333334D01*
X110083333Y-102300001D01*
X110216667Y-102266667D01*
X110316667Y-102266667D01*
X110450000Y-102300001D01*
X110516667Y-102333334D01*
X110583333Y-102400001D01*
X110616667Y-102500001D01*
X110616667Y-102566667D01*
X110583333Y-102666667D01*
X110550000Y-102700001D01*
X110316667Y-102700001D01*
X110316667Y-102566667D01*
X110616667Y-103000001D02*
X109916667Y-103000001D01*
X110616667Y-103400001D01*
X109916667Y-103400001D01*
X110616667Y-103733334D02*
X109916667Y-103733334D01*
X109916667Y-103900000D01*
X109950000Y-104000000D01*
X110016667Y-104066667D01*
X110083333Y-104100000D01*
X110216667Y-104133334D01*
X110316667Y-104133334D01*
X110450000Y-104100000D01*
X110516667Y-104066667D01*
X110583333Y-104000000D01*
X110616667Y-103900000D01*
X110616667Y-103733334D01*
X110600000Y-94433334D02*
X110633333Y-94400000D01*
X110666667Y-94300000D01*
X110666667Y-94233334D01*
X110633333Y-94133334D01*
X110566667Y-94066667D01*
X110500000Y-94033334D01*
X110366667Y-94000000D01*
X110266667Y-94000000D01*
X110133333Y-94033334D01*
X110066667Y-94066667D01*
X110000000Y-94133334D01*
X109966667Y-94233334D01*
X109966667Y-94300000D01*
X110000000Y-94400000D01*
X110033333Y-94433334D01*
X110666667Y-95066667D02*
X110666667Y-94733334D01*
X109966667Y-94733334D01*
X110666667Y-95300001D02*
X109966667Y-95300001D01*
X110666667Y-95700001D02*
X110266667Y-95400001D01*
X109966667Y-95700001D02*
X110366667Y-95300001D01*
X108116667Y-95316667D02*
X107416667Y-95316667D01*
X107416667Y-95483333D01*
X107450000Y-95583333D01*
X107516667Y-95650000D01*
X107583333Y-95683333D01*
X107716667Y-95716667D01*
X107816667Y-95716667D01*
X107950000Y-95683333D01*
X108016667Y-95650000D01*
X108083333Y-95583333D01*
X108116667Y-95483333D01*
X108116667Y-95316667D01*
X107416667Y-90816667D02*
X108116667Y-91050000D01*
X107416667Y-91283333D01*
X108050000Y-91916667D02*
X108083333Y-91883333D01*
X108116667Y-91783333D01*
X108116667Y-91716667D01*
X108083333Y-91616667D01*
X108016667Y-91550000D01*
X107950000Y-91516667D01*
X107816667Y-91483333D01*
X107716667Y-91483333D01*
X107583333Y-91516667D01*
X107516667Y-91550000D01*
X107450000Y-91616667D01*
X107416667Y-91716667D01*
X107416667Y-91783333D01*
X107450000Y-91883333D01*
X107483333Y-91916667D01*
X108050000Y-92616667D02*
X108083333Y-92583333D01*
X108116667Y-92483333D01*
X108116667Y-92416667D01*
X108083333Y-92316667D01*
X108016667Y-92250000D01*
X107950000Y-92216667D01*
X107816667Y-92183333D01*
X107716667Y-92183333D01*
X107583333Y-92216667D01*
X107516667Y-92250000D01*
X107450000Y-92316667D01*
X107416667Y-92416667D01*
X107416667Y-92483333D01*
X107450000Y-92583333D01*
X107483333Y-92616667D01*
X110000000Y-91216667D02*
X109966667Y-91150001D01*
X109966667Y-91050001D01*
X110000000Y-90950001D01*
X110066667Y-90883334D01*
X110133333Y-90850001D01*
X110266667Y-90816667D01*
X110366667Y-90816667D01*
X110500000Y-90850001D01*
X110566667Y-90883334D01*
X110633333Y-90950001D01*
X110666667Y-91050001D01*
X110666667Y-91116667D01*
X110633333Y-91216667D01*
X110600000Y-91250001D01*
X110366667Y-91250001D01*
X110366667Y-91116667D01*
X110666667Y-91550001D02*
X109966667Y-91550001D01*
X110666667Y-91950001D01*
X109966667Y-91950001D01*
X110666667Y-92283334D02*
X109966667Y-92283334D01*
X109966667Y-92450000D01*
X110000000Y-92550000D01*
X110066667Y-92616667D01*
X110133333Y-92650000D01*
X110266667Y-92683334D01*
X110366667Y-92683334D01*
X110500000Y-92650000D01*
X110566667Y-92616667D01*
X110633333Y-92550000D01*
X110666667Y-92450000D01*
X110666667Y-92283334D01*
X109950000Y-79466667D02*
X109916667Y-79400001D01*
X109916667Y-79300001D01*
X109950000Y-79200001D01*
X110016667Y-79133334D01*
X110083333Y-79100001D01*
X110216667Y-79066667D01*
X110316667Y-79066667D01*
X110450000Y-79100001D01*
X110516667Y-79133334D01*
X110583333Y-79200001D01*
X110616667Y-79300001D01*
X110616667Y-79366667D01*
X110583333Y-79466667D01*
X110550000Y-79500001D01*
X110316667Y-79500001D01*
X110316667Y-79366667D01*
X110616667Y-79800001D02*
X109916667Y-79800001D01*
X110616667Y-80200001D01*
X109916667Y-80200001D01*
X110616667Y-80533334D02*
X109916667Y-80533334D01*
X109916667Y-80700000D01*
X109950000Y-80800000D01*
X110016667Y-80866667D01*
X110083333Y-80900000D01*
X110216667Y-80933334D01*
X110316667Y-80933334D01*
X110450000Y-80900000D01*
X110516667Y-80866667D01*
X110583333Y-80800000D01*
X110616667Y-80700000D01*
X110616667Y-80533334D01*
X110550000Y-82683334D02*
X110583333Y-82650000D01*
X110616667Y-82550000D01*
X110616667Y-82483334D01*
X110583333Y-82383334D01*
X110516667Y-82316667D01*
X110450000Y-82283334D01*
X110316667Y-82250000D01*
X110216667Y-82250000D01*
X110083333Y-82283334D01*
X110016667Y-82316667D01*
X109950000Y-82383334D01*
X109916667Y-82483334D01*
X109916667Y-82550000D01*
X109950000Y-82650000D01*
X109983333Y-82683334D01*
X110616667Y-83316667D02*
X110616667Y-82983334D01*
X109916667Y-82983334D01*
X110616667Y-83550001D02*
X109916667Y-83550001D01*
X110616667Y-83950001D02*
X110216667Y-83650001D01*
X109916667Y-83950001D02*
X110316667Y-83550001D01*
X107366667Y-79066667D02*
X108066667Y-79300000D01*
X107366667Y-79533333D01*
X108000000Y-80166667D02*
X108033333Y-80133333D01*
X108066667Y-80033333D01*
X108066667Y-79966667D01*
X108033333Y-79866667D01*
X107966667Y-79800000D01*
X107900000Y-79766667D01*
X107766667Y-79733333D01*
X107666667Y-79733333D01*
X107533333Y-79766667D01*
X107466667Y-79800000D01*
X107400000Y-79866667D01*
X107366667Y-79966667D01*
X107366667Y-80033333D01*
X107400000Y-80133333D01*
X107433333Y-80166667D01*
X108000000Y-80866667D02*
X108033333Y-80833333D01*
X108066667Y-80733333D01*
X108066667Y-80666667D01*
X108033333Y-80566667D01*
X107966667Y-80500000D01*
X107900000Y-80466667D01*
X107766667Y-80433333D01*
X107666667Y-80433333D01*
X107533333Y-80466667D01*
X107466667Y-80500000D01*
X107400000Y-80566667D01*
X107366667Y-80666667D01*
X107366667Y-80733333D01*
X107400000Y-80833333D01*
X107433333Y-80866667D01*
X108066667Y-83566667D02*
X107366667Y-83566667D01*
X107366667Y-83733333D01*
X107400000Y-83833333D01*
X107466667Y-83900000D01*
X107533333Y-83933333D01*
X107666667Y-83966667D01*
X107766667Y-83966667D01*
X107900000Y-83933333D01*
X107966667Y-83900000D01*
X108033333Y-83833333D01*
X108066667Y-83733333D01*
X108066667Y-83566667D01*
D11*
X130500000Y-93307143D02*
X129357143Y-93307143D01*
X128642857Y-92878571D02*
X127500000Y-93307143D01*
X128642857Y-93735714D01*
X130450000Y-81607143D02*
X129307143Y-81607143D01*
X128592857Y-81178571D02*
X127450000Y-81607143D01*
X128592857Y-82035714D01*
X130500000Y-116107143D02*
X129357143Y-116107143D01*
X128642857Y-115678571D02*
X127500000Y-116107143D01*
X128642857Y-116535714D01*
X130600000Y-104707143D02*
X129457143Y-104707143D01*
X128742857Y-104278571D02*
X127600000Y-104707143D01*
X128742857Y-105135714D01*
D10*
X138740477Y-83704762D02*
X138835715Y-83752381D01*
X139026192Y-83752381D01*
X139121430Y-83704762D01*
X139169049Y-83609524D01*
X139169049Y-83228571D01*
X139121430Y-83133333D01*
X139026192Y-83085714D01*
X138835715Y-83085714D01*
X138740477Y-83133333D01*
X138692858Y-83228571D01*
X138692858Y-83323810D01*
X139169049Y-83419048D01*
X138311906Y-83704762D02*
X138216668Y-83752381D01*
X138026192Y-83752381D01*
X137930953Y-83704762D01*
X137883334Y-83609524D01*
X137883334Y-83561905D01*
X137930953Y-83466667D01*
X138026192Y-83419048D01*
X138169049Y-83419048D01*
X138264287Y-83371429D01*
X138311906Y-83276190D01*
X138311906Y-83228571D01*
X138264287Y-83133333D01*
X138169049Y-83085714D01*
X138026192Y-83085714D01*
X137930953Y-83133333D01*
X137454763Y-83085714D02*
X137454763Y-84085714D01*
X137454763Y-83133333D02*
X137359525Y-83085714D01*
X137169048Y-83085714D01*
X137073810Y-83133333D01*
X137026191Y-83180952D01*
X136978572Y-83276190D01*
X136978572Y-83561905D01*
X137026191Y-83657143D01*
X137073810Y-83704762D01*
X137169048Y-83752381D01*
X137359525Y-83752381D01*
X137454763Y-83704762D01*
X136407144Y-83180952D02*
X136502382Y-83133333D01*
X136550001Y-83085714D01*
X136597620Y-82990476D01*
X136597620Y-82942857D01*
X136550001Y-82847619D01*
X136502382Y-82800000D01*
X136407144Y-82752381D01*
X136216667Y-82752381D01*
X136121429Y-82800000D01*
X136073810Y-82847619D01*
X136026191Y-82942857D01*
X136026191Y-82990476D01*
X136073810Y-83085714D01*
X136121429Y-83133333D01*
X136216667Y-83180952D01*
X136407144Y-83180952D01*
X136502382Y-83228571D01*
X136550001Y-83276190D01*
X136597620Y-83371429D01*
X136597620Y-83561905D01*
X136550001Y-83657143D01*
X136502382Y-83704762D01*
X136407144Y-83752381D01*
X136216667Y-83752381D01*
X136121429Y-83704762D01*
X136073810Y-83657143D01*
X136026191Y-83561905D01*
X136026191Y-83371429D01*
X136073810Y-83276190D01*
X136121429Y-83228571D01*
X136216667Y-83180952D01*
X135645239Y-82847619D02*
X135597620Y-82800000D01*
X135502382Y-82752381D01*
X135264286Y-82752381D01*
X135169048Y-82800000D01*
X135121429Y-82847619D01*
X135073810Y-82942857D01*
X135073810Y-83038095D01*
X135121429Y-83180952D01*
X135692858Y-83752381D01*
X135073810Y-83752381D01*
X134216667Y-82752381D02*
X134407144Y-82752381D01*
X134502382Y-82800000D01*
X134550001Y-82847619D01*
X134645239Y-82990476D01*
X134692858Y-83180952D01*
X134692858Y-83561905D01*
X134645239Y-83657143D01*
X134597620Y-83704762D01*
X134502382Y-83752381D01*
X134311905Y-83752381D01*
X134216667Y-83704762D01*
X134169048Y-83657143D01*
X134121429Y-83561905D01*
X134121429Y-83323810D01*
X134169048Y-83228571D01*
X134216667Y-83180952D01*
X134311905Y-83133333D01*
X134502382Y-83133333D01*
X134597620Y-83180952D01*
X134645239Y-83228571D01*
X134692858Y-83323810D01*
X133264286Y-82752381D02*
X133454763Y-82752381D01*
X133550001Y-82800000D01*
X133597620Y-82847619D01*
X133692858Y-82990476D01*
X133740477Y-83180952D01*
X133740477Y-83561905D01*
X133692858Y-83657143D01*
X133645239Y-83704762D01*
X133550001Y-83752381D01*
X133359524Y-83752381D01*
X133264286Y-83704762D01*
X133216667Y-83657143D01*
X133169048Y-83561905D01*
X133169048Y-83323810D01*
X133216667Y-83228571D01*
X133264286Y-83180952D01*
X133359524Y-83133333D01*
X133550001Y-83133333D01*
X133645239Y-83180952D01*
X133692858Y-83228571D01*
X133740477Y-83323810D01*
X132978572Y-83847619D02*
X132216667Y-83847619D01*
X131550000Y-83752381D02*
X131550000Y-83228571D01*
X131597619Y-83133333D01*
X131692857Y-83085714D01*
X131883334Y-83085714D01*
X131978572Y-83133333D01*
X131550000Y-83704762D02*
X131645238Y-83752381D01*
X131883334Y-83752381D01*
X131978572Y-83704762D01*
X132026191Y-83609524D01*
X132026191Y-83514286D01*
X131978572Y-83419048D01*
X131883334Y-83371429D01*
X131645238Y-83371429D01*
X131550000Y-83323810D01*
X131073810Y-83085714D02*
X131073810Y-84085714D01*
X131073810Y-83133333D02*
X130978572Y-83085714D01*
X130788095Y-83085714D01*
X130692857Y-83133333D01*
X130645238Y-83180952D01*
X130597619Y-83276190D01*
X130597619Y-83561905D01*
X130645238Y-83657143D01*
X130692857Y-83704762D01*
X130788095Y-83752381D01*
X130978572Y-83752381D01*
X131073810Y-83704762D01*
X129740476Y-83752381D02*
X129740476Y-83228571D01*
X129788095Y-83133333D01*
X129883333Y-83085714D01*
X130073810Y-83085714D01*
X130169048Y-83133333D01*
X129740476Y-83704762D02*
X129835714Y-83752381D01*
X130073810Y-83752381D01*
X130169048Y-83704762D01*
X130216667Y-83609524D01*
X130216667Y-83514286D01*
X130169048Y-83419048D01*
X130073810Y-83371429D01*
X129835714Y-83371429D01*
X129740476Y-83323810D01*
X128740476Y-83752381D02*
X129311905Y-83752381D01*
X129026191Y-83752381D02*
X129026191Y-82752381D01*
X129121429Y-82895238D01*
X129216667Y-82990476D01*
X129311905Y-83038095D01*
X128121429Y-82752381D02*
X128026190Y-82752381D01*
X127930952Y-82800000D01*
X127883333Y-82847619D01*
X127835714Y-82942857D01*
X127788095Y-83133333D01*
X127788095Y-83371429D01*
X127835714Y-83561905D01*
X127883333Y-83657143D01*
X127930952Y-83704762D01*
X128026190Y-83752381D01*
X128121429Y-83752381D01*
X128216667Y-83704762D01*
X128264286Y-83657143D01*
X128311905Y-83561905D01*
X128359524Y-83371429D01*
X128359524Y-83133333D01*
X128311905Y-82942857D01*
X128264286Y-82847619D01*
X128216667Y-82800000D01*
X128121429Y-82752381D01*
X127407143Y-82847619D02*
X127359524Y-82800000D01*
X127264286Y-82752381D01*
X127026190Y-82752381D01*
X126930952Y-82800000D01*
X126883333Y-82847619D01*
X126835714Y-82942857D01*
X126835714Y-83038095D01*
X126883333Y-83180952D01*
X127454762Y-83752381D01*
X126835714Y-83752381D01*
X126645238Y-83847619D02*
X125883333Y-83847619D01*
X125645238Y-83752381D02*
X125645238Y-82752381D01*
X125645238Y-83133333D02*
X125550000Y-83085714D01*
X125359523Y-83085714D01*
X125264285Y-83133333D01*
X125216666Y-83180952D01*
X125169047Y-83276190D01*
X125169047Y-83561905D01*
X125216666Y-83657143D01*
X125264285Y-83704762D01*
X125359523Y-83752381D01*
X125550000Y-83752381D01*
X125645238Y-83704762D01*
X124311904Y-83085714D02*
X124311904Y-83752381D01*
X124740476Y-83085714D02*
X124740476Y-83609524D01*
X124692857Y-83704762D01*
X124597619Y-83752381D01*
X124454761Y-83752381D01*
X124359523Y-83704762D01*
X124311904Y-83657143D01*
X123692857Y-83752381D02*
X123788095Y-83704762D01*
X123835714Y-83609524D01*
X123835714Y-82752381D01*
X123311904Y-83752381D02*
X123311904Y-82752381D01*
X123311904Y-83133333D02*
X123216666Y-83085714D01*
X123026189Y-83085714D01*
X122930951Y-83133333D01*
X122883332Y-83180952D01*
X122835713Y-83276190D01*
X122835713Y-83561905D01*
X122883332Y-83657143D01*
X122930951Y-83704762D01*
X123026189Y-83752381D01*
X123216666Y-83752381D01*
X123311904Y-83704762D01*
X121740475Y-83085714D02*
X121502380Y-83752381D01*
X121264284Y-83085714D01*
X120454760Y-83085714D02*
X120454760Y-83752381D01*
X120692856Y-82704762D02*
X120930951Y-83419048D01*
X120311903Y-83419048D01*
X119930951Y-83657143D02*
X119883332Y-83704762D01*
X119930951Y-83752381D01*
X119978570Y-83704762D01*
X119930951Y-83657143D01*
X119930951Y-83752381D01*
X119264285Y-82752381D02*
X119169046Y-82752381D01*
X119073808Y-82800000D01*
X119026189Y-82847619D01*
X118978570Y-82942857D01*
X118930951Y-83133333D01*
X118930951Y-83371429D01*
X118978570Y-83561905D01*
X119026189Y-83657143D01*
X119073808Y-83704762D01*
X119169046Y-83752381D01*
X119264285Y-83752381D01*
X119359523Y-83704762D01*
X119407142Y-83657143D01*
X119454761Y-83561905D01*
X119502380Y-83371429D01*
X119502380Y-83133333D01*
X119454761Y-82942857D01*
X119407142Y-82847619D01*
X119359523Y-82800000D01*
X119264285Y-82752381D01*
X138790477Y-106804762D02*
X138885715Y-106852381D01*
X139076192Y-106852381D01*
X139171430Y-106804762D01*
X139219049Y-106709524D01*
X139219049Y-106328571D01*
X139171430Y-106233333D01*
X139076192Y-106185714D01*
X138885715Y-106185714D01*
X138790477Y-106233333D01*
X138742858Y-106328571D01*
X138742858Y-106423810D01*
X139219049Y-106519048D01*
X138361906Y-106804762D02*
X138266668Y-106852381D01*
X138076192Y-106852381D01*
X137980953Y-106804762D01*
X137933334Y-106709524D01*
X137933334Y-106661905D01*
X137980953Y-106566667D01*
X138076192Y-106519048D01*
X138219049Y-106519048D01*
X138314287Y-106471429D01*
X138361906Y-106376190D01*
X138361906Y-106328571D01*
X138314287Y-106233333D01*
X138219049Y-106185714D01*
X138076192Y-106185714D01*
X137980953Y-106233333D01*
X137504763Y-106185714D02*
X137504763Y-107185714D01*
X137504763Y-106233333D02*
X137409525Y-106185714D01*
X137219048Y-106185714D01*
X137123810Y-106233333D01*
X137076191Y-106280952D01*
X137028572Y-106376190D01*
X137028572Y-106661905D01*
X137076191Y-106757143D01*
X137123810Y-106804762D01*
X137219048Y-106852381D01*
X137409525Y-106852381D01*
X137504763Y-106804762D01*
X136457144Y-106280952D02*
X136552382Y-106233333D01*
X136600001Y-106185714D01*
X136647620Y-106090476D01*
X136647620Y-106042857D01*
X136600001Y-105947619D01*
X136552382Y-105900000D01*
X136457144Y-105852381D01*
X136266667Y-105852381D01*
X136171429Y-105900000D01*
X136123810Y-105947619D01*
X136076191Y-106042857D01*
X136076191Y-106090476D01*
X136123810Y-106185714D01*
X136171429Y-106233333D01*
X136266667Y-106280952D01*
X136457144Y-106280952D01*
X136552382Y-106328571D01*
X136600001Y-106376190D01*
X136647620Y-106471429D01*
X136647620Y-106661905D01*
X136600001Y-106757143D01*
X136552382Y-106804762D01*
X136457144Y-106852381D01*
X136266667Y-106852381D01*
X136171429Y-106804762D01*
X136123810Y-106757143D01*
X136076191Y-106661905D01*
X136076191Y-106471429D01*
X136123810Y-106376190D01*
X136171429Y-106328571D01*
X136266667Y-106280952D01*
X135695239Y-105947619D02*
X135647620Y-105900000D01*
X135552382Y-105852381D01*
X135314286Y-105852381D01*
X135219048Y-105900000D01*
X135171429Y-105947619D01*
X135123810Y-106042857D01*
X135123810Y-106138095D01*
X135171429Y-106280952D01*
X135742858Y-106852381D01*
X135123810Y-106852381D01*
X134266667Y-105852381D02*
X134457144Y-105852381D01*
X134552382Y-105900000D01*
X134600001Y-105947619D01*
X134695239Y-106090476D01*
X134742858Y-106280952D01*
X134742858Y-106661905D01*
X134695239Y-106757143D01*
X134647620Y-106804762D01*
X134552382Y-106852381D01*
X134361905Y-106852381D01*
X134266667Y-106804762D01*
X134219048Y-106757143D01*
X134171429Y-106661905D01*
X134171429Y-106423810D01*
X134219048Y-106328571D01*
X134266667Y-106280952D01*
X134361905Y-106233333D01*
X134552382Y-106233333D01*
X134647620Y-106280952D01*
X134695239Y-106328571D01*
X134742858Y-106423810D01*
X133314286Y-105852381D02*
X133504763Y-105852381D01*
X133600001Y-105900000D01*
X133647620Y-105947619D01*
X133742858Y-106090476D01*
X133790477Y-106280952D01*
X133790477Y-106661905D01*
X133742858Y-106757143D01*
X133695239Y-106804762D01*
X133600001Y-106852381D01*
X133409524Y-106852381D01*
X133314286Y-106804762D01*
X133266667Y-106757143D01*
X133219048Y-106661905D01*
X133219048Y-106423810D01*
X133266667Y-106328571D01*
X133314286Y-106280952D01*
X133409524Y-106233333D01*
X133600001Y-106233333D01*
X133695239Y-106280952D01*
X133742858Y-106328571D01*
X133790477Y-106423810D01*
X133028572Y-106947619D02*
X132266667Y-106947619D01*
X131600000Y-106852381D02*
X131600000Y-106328571D01*
X131647619Y-106233333D01*
X131742857Y-106185714D01*
X131933334Y-106185714D01*
X132028572Y-106233333D01*
X131600000Y-106804762D02*
X131695238Y-106852381D01*
X131933334Y-106852381D01*
X132028572Y-106804762D01*
X132076191Y-106709524D01*
X132076191Y-106614286D01*
X132028572Y-106519048D01*
X131933334Y-106471429D01*
X131695238Y-106471429D01*
X131600000Y-106423810D01*
X131123810Y-106185714D02*
X131123810Y-107185714D01*
X131123810Y-106233333D02*
X131028572Y-106185714D01*
X130838095Y-106185714D01*
X130742857Y-106233333D01*
X130695238Y-106280952D01*
X130647619Y-106376190D01*
X130647619Y-106661905D01*
X130695238Y-106757143D01*
X130742857Y-106804762D01*
X130838095Y-106852381D01*
X131028572Y-106852381D01*
X131123810Y-106804762D01*
X129790476Y-106852381D02*
X129790476Y-106328571D01*
X129838095Y-106233333D01*
X129933333Y-106185714D01*
X130123810Y-106185714D01*
X130219048Y-106233333D01*
X129790476Y-106804762D02*
X129885714Y-106852381D01*
X130123810Y-106852381D01*
X130219048Y-106804762D01*
X130266667Y-106709524D01*
X130266667Y-106614286D01*
X130219048Y-106519048D01*
X130123810Y-106471429D01*
X129885714Y-106471429D01*
X129790476Y-106423810D01*
X128790476Y-106852381D02*
X129361905Y-106852381D01*
X129076191Y-106852381D02*
X129076191Y-105852381D01*
X129171429Y-105995238D01*
X129266667Y-106090476D01*
X129361905Y-106138095D01*
X128171429Y-105852381D02*
X128076190Y-105852381D01*
X127980952Y-105900000D01*
X127933333Y-105947619D01*
X127885714Y-106042857D01*
X127838095Y-106233333D01*
X127838095Y-106471429D01*
X127885714Y-106661905D01*
X127933333Y-106757143D01*
X127980952Y-106804762D01*
X128076190Y-106852381D01*
X128171429Y-106852381D01*
X128266667Y-106804762D01*
X128314286Y-106757143D01*
X128361905Y-106661905D01*
X128409524Y-106471429D01*
X128409524Y-106233333D01*
X128361905Y-106042857D01*
X128314286Y-105947619D01*
X128266667Y-105900000D01*
X128171429Y-105852381D01*
X127457143Y-105947619D02*
X127409524Y-105900000D01*
X127314286Y-105852381D01*
X127076190Y-105852381D01*
X126980952Y-105900000D01*
X126933333Y-105947619D01*
X126885714Y-106042857D01*
X126885714Y-106138095D01*
X126933333Y-106280952D01*
X127504762Y-106852381D01*
X126885714Y-106852381D01*
X126695238Y-106947619D02*
X125933333Y-106947619D01*
X125695238Y-106852381D02*
X125695238Y-105852381D01*
X125695238Y-106233333D02*
X125600000Y-106185714D01*
X125409523Y-106185714D01*
X125314285Y-106233333D01*
X125266666Y-106280952D01*
X125219047Y-106376190D01*
X125219047Y-106661905D01*
X125266666Y-106757143D01*
X125314285Y-106804762D01*
X125409523Y-106852381D01*
X125600000Y-106852381D01*
X125695238Y-106804762D01*
X124361904Y-106185714D02*
X124361904Y-106852381D01*
X124790476Y-106185714D02*
X124790476Y-106709524D01*
X124742857Y-106804762D01*
X124647619Y-106852381D01*
X124504761Y-106852381D01*
X124409523Y-106804762D01*
X124361904Y-106757143D01*
X123742857Y-106852381D02*
X123838095Y-106804762D01*
X123885714Y-106709524D01*
X123885714Y-105852381D01*
X123361904Y-106852381D02*
X123361904Y-105852381D01*
X123361904Y-106233333D02*
X123266666Y-106185714D01*
X123076189Y-106185714D01*
X122980951Y-106233333D01*
X122933332Y-106280952D01*
X122885713Y-106376190D01*
X122885713Y-106661905D01*
X122933332Y-106757143D01*
X122980951Y-106804762D01*
X123076189Y-106852381D01*
X123266666Y-106852381D01*
X123361904Y-106804762D01*
X121790475Y-106185714D02*
X121552380Y-106852381D01*
X121314284Y-106185714D01*
X120504760Y-106185714D02*
X120504760Y-106852381D01*
X120742856Y-105804762D02*
X120980951Y-106519048D01*
X120361903Y-106519048D01*
X119980951Y-106757143D02*
X119933332Y-106804762D01*
X119980951Y-106852381D01*
X120028570Y-106804762D01*
X119980951Y-106757143D01*
X119980951Y-106852381D01*
X119314285Y-105852381D02*
X119219046Y-105852381D01*
X119123808Y-105900000D01*
X119076189Y-105947619D01*
X119028570Y-106042857D01*
X118980951Y-106233333D01*
X118980951Y-106471429D01*
X119028570Y-106661905D01*
X119076189Y-106757143D01*
X119123808Y-106804762D01*
X119219046Y-106852381D01*
X119314285Y-106852381D01*
X119409523Y-106804762D01*
X119457142Y-106757143D01*
X119504761Y-106661905D01*
X119552380Y-106471429D01*
X119552380Y-106233333D01*
X119504761Y-106042857D01*
X119457142Y-105947619D01*
X119409523Y-105900000D01*
X119314285Y-105852381D01*
X138790477Y-118204762D02*
X138885715Y-118252381D01*
X139076192Y-118252381D01*
X139171430Y-118204762D01*
X139219049Y-118109524D01*
X139219049Y-117728571D01*
X139171430Y-117633333D01*
X139076192Y-117585714D01*
X138885715Y-117585714D01*
X138790477Y-117633333D01*
X138742858Y-117728571D01*
X138742858Y-117823810D01*
X139219049Y-117919048D01*
X138361906Y-118204762D02*
X138266668Y-118252381D01*
X138076192Y-118252381D01*
X137980953Y-118204762D01*
X137933334Y-118109524D01*
X137933334Y-118061905D01*
X137980953Y-117966667D01*
X138076192Y-117919048D01*
X138219049Y-117919048D01*
X138314287Y-117871429D01*
X138361906Y-117776190D01*
X138361906Y-117728571D01*
X138314287Y-117633333D01*
X138219049Y-117585714D01*
X138076192Y-117585714D01*
X137980953Y-117633333D01*
X137504763Y-117585714D02*
X137504763Y-118585714D01*
X137504763Y-117633333D02*
X137409525Y-117585714D01*
X137219048Y-117585714D01*
X137123810Y-117633333D01*
X137076191Y-117680952D01*
X137028572Y-117776190D01*
X137028572Y-118061905D01*
X137076191Y-118157143D01*
X137123810Y-118204762D01*
X137219048Y-118252381D01*
X137409525Y-118252381D01*
X137504763Y-118204762D01*
X136457144Y-117680952D02*
X136552382Y-117633333D01*
X136600001Y-117585714D01*
X136647620Y-117490476D01*
X136647620Y-117442857D01*
X136600001Y-117347619D01*
X136552382Y-117300000D01*
X136457144Y-117252381D01*
X136266667Y-117252381D01*
X136171429Y-117300000D01*
X136123810Y-117347619D01*
X136076191Y-117442857D01*
X136076191Y-117490476D01*
X136123810Y-117585714D01*
X136171429Y-117633333D01*
X136266667Y-117680952D01*
X136457144Y-117680952D01*
X136552382Y-117728571D01*
X136600001Y-117776190D01*
X136647620Y-117871429D01*
X136647620Y-118061905D01*
X136600001Y-118157143D01*
X136552382Y-118204762D01*
X136457144Y-118252381D01*
X136266667Y-118252381D01*
X136171429Y-118204762D01*
X136123810Y-118157143D01*
X136076191Y-118061905D01*
X136076191Y-117871429D01*
X136123810Y-117776190D01*
X136171429Y-117728571D01*
X136266667Y-117680952D01*
X135695239Y-117347619D02*
X135647620Y-117300000D01*
X135552382Y-117252381D01*
X135314286Y-117252381D01*
X135219048Y-117300000D01*
X135171429Y-117347619D01*
X135123810Y-117442857D01*
X135123810Y-117538095D01*
X135171429Y-117680952D01*
X135742858Y-118252381D01*
X135123810Y-118252381D01*
X134266667Y-117252381D02*
X134457144Y-117252381D01*
X134552382Y-117300000D01*
X134600001Y-117347619D01*
X134695239Y-117490476D01*
X134742858Y-117680952D01*
X134742858Y-118061905D01*
X134695239Y-118157143D01*
X134647620Y-118204762D01*
X134552382Y-118252381D01*
X134361905Y-118252381D01*
X134266667Y-118204762D01*
X134219048Y-118157143D01*
X134171429Y-118061905D01*
X134171429Y-117823810D01*
X134219048Y-117728571D01*
X134266667Y-117680952D01*
X134361905Y-117633333D01*
X134552382Y-117633333D01*
X134647620Y-117680952D01*
X134695239Y-117728571D01*
X134742858Y-117823810D01*
X133314286Y-117252381D02*
X133504763Y-117252381D01*
X133600001Y-117300000D01*
X133647620Y-117347619D01*
X133742858Y-117490476D01*
X133790477Y-117680952D01*
X133790477Y-118061905D01*
X133742858Y-118157143D01*
X133695239Y-118204762D01*
X133600001Y-118252381D01*
X133409524Y-118252381D01*
X133314286Y-118204762D01*
X133266667Y-118157143D01*
X133219048Y-118061905D01*
X133219048Y-117823810D01*
X133266667Y-117728571D01*
X133314286Y-117680952D01*
X133409524Y-117633333D01*
X133600001Y-117633333D01*
X133695239Y-117680952D01*
X133742858Y-117728571D01*
X133790477Y-117823810D01*
X133028572Y-118347619D02*
X132266667Y-118347619D01*
X131600000Y-118252381D02*
X131600000Y-117728571D01*
X131647619Y-117633333D01*
X131742857Y-117585714D01*
X131933334Y-117585714D01*
X132028572Y-117633333D01*
X131600000Y-118204762D02*
X131695238Y-118252381D01*
X131933334Y-118252381D01*
X132028572Y-118204762D01*
X132076191Y-118109524D01*
X132076191Y-118014286D01*
X132028572Y-117919048D01*
X131933334Y-117871429D01*
X131695238Y-117871429D01*
X131600000Y-117823810D01*
X131123810Y-117585714D02*
X131123810Y-118585714D01*
X131123810Y-117633333D02*
X131028572Y-117585714D01*
X130838095Y-117585714D01*
X130742857Y-117633333D01*
X130695238Y-117680952D01*
X130647619Y-117776190D01*
X130647619Y-118061905D01*
X130695238Y-118157143D01*
X130742857Y-118204762D01*
X130838095Y-118252381D01*
X131028572Y-118252381D01*
X131123810Y-118204762D01*
X129790476Y-118252381D02*
X129790476Y-117728571D01*
X129838095Y-117633333D01*
X129933333Y-117585714D01*
X130123810Y-117585714D01*
X130219048Y-117633333D01*
X129790476Y-118204762D02*
X129885714Y-118252381D01*
X130123810Y-118252381D01*
X130219048Y-118204762D01*
X130266667Y-118109524D01*
X130266667Y-118014286D01*
X130219048Y-117919048D01*
X130123810Y-117871429D01*
X129885714Y-117871429D01*
X129790476Y-117823810D01*
X128790476Y-118252381D02*
X129361905Y-118252381D01*
X129076191Y-118252381D02*
X129076191Y-117252381D01*
X129171429Y-117395238D01*
X129266667Y-117490476D01*
X129361905Y-117538095D01*
X128171429Y-117252381D02*
X128076190Y-117252381D01*
X127980952Y-117300000D01*
X127933333Y-117347619D01*
X127885714Y-117442857D01*
X127838095Y-117633333D01*
X127838095Y-117871429D01*
X127885714Y-118061905D01*
X127933333Y-118157143D01*
X127980952Y-118204762D01*
X128076190Y-118252381D01*
X128171429Y-118252381D01*
X128266667Y-118204762D01*
X128314286Y-118157143D01*
X128361905Y-118061905D01*
X128409524Y-117871429D01*
X128409524Y-117633333D01*
X128361905Y-117442857D01*
X128314286Y-117347619D01*
X128266667Y-117300000D01*
X128171429Y-117252381D01*
X127457143Y-117347619D02*
X127409524Y-117300000D01*
X127314286Y-117252381D01*
X127076190Y-117252381D01*
X126980952Y-117300000D01*
X126933333Y-117347619D01*
X126885714Y-117442857D01*
X126885714Y-117538095D01*
X126933333Y-117680952D01*
X127504762Y-118252381D01*
X126885714Y-118252381D01*
X126695238Y-118347619D02*
X125933333Y-118347619D01*
X125695238Y-118252381D02*
X125695238Y-117252381D01*
X125695238Y-117633333D02*
X125600000Y-117585714D01*
X125409523Y-117585714D01*
X125314285Y-117633333D01*
X125266666Y-117680952D01*
X125219047Y-117776190D01*
X125219047Y-118061905D01*
X125266666Y-118157143D01*
X125314285Y-118204762D01*
X125409523Y-118252381D01*
X125600000Y-118252381D01*
X125695238Y-118204762D01*
X124361904Y-117585714D02*
X124361904Y-118252381D01*
X124790476Y-117585714D02*
X124790476Y-118109524D01*
X124742857Y-118204762D01*
X124647619Y-118252381D01*
X124504761Y-118252381D01*
X124409523Y-118204762D01*
X124361904Y-118157143D01*
X123742857Y-118252381D02*
X123838095Y-118204762D01*
X123885714Y-118109524D01*
X123885714Y-117252381D01*
X123361904Y-118252381D02*
X123361904Y-117252381D01*
X123361904Y-117633333D02*
X123266666Y-117585714D01*
X123076189Y-117585714D01*
X122980951Y-117633333D01*
X122933332Y-117680952D01*
X122885713Y-117776190D01*
X122885713Y-118061905D01*
X122933332Y-118157143D01*
X122980951Y-118204762D01*
X123076189Y-118252381D01*
X123266666Y-118252381D01*
X123361904Y-118204762D01*
X121790475Y-117585714D02*
X121552380Y-118252381D01*
X121314284Y-117585714D01*
X120504760Y-117585714D02*
X120504760Y-118252381D01*
X120742856Y-117204762D02*
X120980951Y-117919048D01*
X120361903Y-117919048D01*
X119980951Y-118157143D02*
X119933332Y-118204762D01*
X119980951Y-118252381D01*
X120028570Y-118204762D01*
X119980951Y-118157143D01*
X119980951Y-118252381D01*
X119314285Y-117252381D02*
X119219046Y-117252381D01*
X119123808Y-117300000D01*
X119076189Y-117347619D01*
X119028570Y-117442857D01*
X118980951Y-117633333D01*
X118980951Y-117871429D01*
X119028570Y-118061905D01*
X119076189Y-118157143D01*
X119123808Y-118204762D01*
X119219046Y-118252381D01*
X119314285Y-118252381D01*
X119409523Y-118204762D01*
X119457142Y-118157143D01*
X119504761Y-118061905D01*
X119552380Y-117871429D01*
X119552380Y-117633333D01*
X119504761Y-117442857D01*
X119457142Y-117347619D01*
X119409523Y-117300000D01*
X119314285Y-117252381D01*
X138790477Y-95454762D02*
X138885715Y-95502381D01*
X139076192Y-95502381D01*
X139171430Y-95454762D01*
X139219049Y-95359524D01*
X139219049Y-94978571D01*
X139171430Y-94883333D01*
X139076192Y-94835714D01*
X138885715Y-94835714D01*
X138790477Y-94883333D01*
X138742858Y-94978571D01*
X138742858Y-95073810D01*
X139219049Y-95169048D01*
X138361906Y-95454762D02*
X138266668Y-95502381D01*
X138076192Y-95502381D01*
X137980953Y-95454762D01*
X137933334Y-95359524D01*
X137933334Y-95311905D01*
X137980953Y-95216667D01*
X138076192Y-95169048D01*
X138219049Y-95169048D01*
X138314287Y-95121429D01*
X138361906Y-95026190D01*
X138361906Y-94978571D01*
X138314287Y-94883333D01*
X138219049Y-94835714D01*
X138076192Y-94835714D01*
X137980953Y-94883333D01*
X137504763Y-94835714D02*
X137504763Y-95835714D01*
X137504763Y-94883333D02*
X137409525Y-94835714D01*
X137219048Y-94835714D01*
X137123810Y-94883333D01*
X137076191Y-94930952D01*
X137028572Y-95026190D01*
X137028572Y-95311905D01*
X137076191Y-95407143D01*
X137123810Y-95454762D01*
X137219048Y-95502381D01*
X137409525Y-95502381D01*
X137504763Y-95454762D01*
X136457144Y-94930952D02*
X136552382Y-94883333D01*
X136600001Y-94835714D01*
X136647620Y-94740476D01*
X136647620Y-94692857D01*
X136600001Y-94597619D01*
X136552382Y-94550000D01*
X136457144Y-94502381D01*
X136266667Y-94502381D01*
X136171429Y-94550000D01*
X136123810Y-94597619D01*
X136076191Y-94692857D01*
X136076191Y-94740476D01*
X136123810Y-94835714D01*
X136171429Y-94883333D01*
X136266667Y-94930952D01*
X136457144Y-94930952D01*
X136552382Y-94978571D01*
X136600001Y-95026190D01*
X136647620Y-95121429D01*
X136647620Y-95311905D01*
X136600001Y-95407143D01*
X136552382Y-95454762D01*
X136457144Y-95502381D01*
X136266667Y-95502381D01*
X136171429Y-95454762D01*
X136123810Y-95407143D01*
X136076191Y-95311905D01*
X136076191Y-95121429D01*
X136123810Y-95026190D01*
X136171429Y-94978571D01*
X136266667Y-94930952D01*
X135695239Y-94597619D02*
X135647620Y-94550000D01*
X135552382Y-94502381D01*
X135314286Y-94502381D01*
X135219048Y-94550000D01*
X135171429Y-94597619D01*
X135123810Y-94692857D01*
X135123810Y-94788095D01*
X135171429Y-94930952D01*
X135742858Y-95502381D01*
X135123810Y-95502381D01*
X134266667Y-94502381D02*
X134457144Y-94502381D01*
X134552382Y-94550000D01*
X134600001Y-94597619D01*
X134695239Y-94740476D01*
X134742858Y-94930952D01*
X134742858Y-95311905D01*
X134695239Y-95407143D01*
X134647620Y-95454762D01*
X134552382Y-95502381D01*
X134361905Y-95502381D01*
X134266667Y-95454762D01*
X134219048Y-95407143D01*
X134171429Y-95311905D01*
X134171429Y-95073810D01*
X134219048Y-94978571D01*
X134266667Y-94930952D01*
X134361905Y-94883333D01*
X134552382Y-94883333D01*
X134647620Y-94930952D01*
X134695239Y-94978571D01*
X134742858Y-95073810D01*
X133314286Y-94502381D02*
X133504763Y-94502381D01*
X133600001Y-94550000D01*
X133647620Y-94597619D01*
X133742858Y-94740476D01*
X133790477Y-94930952D01*
X133790477Y-95311905D01*
X133742858Y-95407143D01*
X133695239Y-95454762D01*
X133600001Y-95502381D01*
X133409524Y-95502381D01*
X133314286Y-95454762D01*
X133266667Y-95407143D01*
X133219048Y-95311905D01*
X133219048Y-95073810D01*
X133266667Y-94978571D01*
X133314286Y-94930952D01*
X133409524Y-94883333D01*
X133600001Y-94883333D01*
X133695239Y-94930952D01*
X133742858Y-94978571D01*
X133790477Y-95073810D01*
X133028572Y-95597619D02*
X132266667Y-95597619D01*
X131600000Y-95502381D02*
X131600000Y-94978571D01*
X131647619Y-94883333D01*
X131742857Y-94835714D01*
X131933334Y-94835714D01*
X132028572Y-94883333D01*
X131600000Y-95454762D02*
X131695238Y-95502381D01*
X131933334Y-95502381D01*
X132028572Y-95454762D01*
X132076191Y-95359524D01*
X132076191Y-95264286D01*
X132028572Y-95169048D01*
X131933334Y-95121429D01*
X131695238Y-95121429D01*
X131600000Y-95073810D01*
X131123810Y-94835714D02*
X131123810Y-95835714D01*
X131123810Y-94883333D02*
X131028572Y-94835714D01*
X130838095Y-94835714D01*
X130742857Y-94883333D01*
X130695238Y-94930952D01*
X130647619Y-95026190D01*
X130647619Y-95311905D01*
X130695238Y-95407143D01*
X130742857Y-95454762D01*
X130838095Y-95502381D01*
X131028572Y-95502381D01*
X131123810Y-95454762D01*
X129790476Y-95502381D02*
X129790476Y-94978571D01*
X129838095Y-94883333D01*
X129933333Y-94835714D01*
X130123810Y-94835714D01*
X130219048Y-94883333D01*
X129790476Y-95454762D02*
X129885714Y-95502381D01*
X130123810Y-95502381D01*
X130219048Y-95454762D01*
X130266667Y-95359524D01*
X130266667Y-95264286D01*
X130219048Y-95169048D01*
X130123810Y-95121429D01*
X129885714Y-95121429D01*
X129790476Y-95073810D01*
X128790476Y-95502381D02*
X129361905Y-95502381D01*
X129076191Y-95502381D02*
X129076191Y-94502381D01*
X129171429Y-94645238D01*
X129266667Y-94740476D01*
X129361905Y-94788095D01*
X128171429Y-94502381D02*
X128076190Y-94502381D01*
X127980952Y-94550000D01*
X127933333Y-94597619D01*
X127885714Y-94692857D01*
X127838095Y-94883333D01*
X127838095Y-95121429D01*
X127885714Y-95311905D01*
X127933333Y-95407143D01*
X127980952Y-95454762D01*
X128076190Y-95502381D01*
X128171429Y-95502381D01*
X128266667Y-95454762D01*
X128314286Y-95407143D01*
X128361905Y-95311905D01*
X128409524Y-95121429D01*
X128409524Y-94883333D01*
X128361905Y-94692857D01*
X128314286Y-94597619D01*
X128266667Y-94550000D01*
X128171429Y-94502381D01*
X127457143Y-94597619D02*
X127409524Y-94550000D01*
X127314286Y-94502381D01*
X127076190Y-94502381D01*
X126980952Y-94550000D01*
X126933333Y-94597619D01*
X126885714Y-94692857D01*
X126885714Y-94788095D01*
X126933333Y-94930952D01*
X127504762Y-95502381D01*
X126885714Y-95502381D01*
X126695238Y-95597619D02*
X125933333Y-95597619D01*
X125695238Y-95502381D02*
X125695238Y-94502381D01*
X125695238Y-94883333D02*
X125600000Y-94835714D01*
X125409523Y-94835714D01*
X125314285Y-94883333D01*
X125266666Y-94930952D01*
X125219047Y-95026190D01*
X125219047Y-95311905D01*
X125266666Y-95407143D01*
X125314285Y-95454762D01*
X125409523Y-95502381D01*
X125600000Y-95502381D01*
X125695238Y-95454762D01*
X124361904Y-94835714D02*
X124361904Y-95502381D01*
X124790476Y-94835714D02*
X124790476Y-95359524D01*
X124742857Y-95454762D01*
X124647619Y-95502381D01*
X124504761Y-95502381D01*
X124409523Y-95454762D01*
X124361904Y-95407143D01*
X123742857Y-95502381D02*
X123838095Y-95454762D01*
X123885714Y-95359524D01*
X123885714Y-94502381D01*
X123361904Y-95502381D02*
X123361904Y-94502381D01*
X123361904Y-94883333D02*
X123266666Y-94835714D01*
X123076189Y-94835714D01*
X122980951Y-94883333D01*
X122933332Y-94930952D01*
X122885713Y-95026190D01*
X122885713Y-95311905D01*
X122933332Y-95407143D01*
X122980951Y-95454762D01*
X123076189Y-95502381D01*
X123266666Y-95502381D01*
X123361904Y-95454762D01*
X121790475Y-94835714D02*
X121552380Y-95502381D01*
X121314284Y-94835714D01*
X120504760Y-94835714D02*
X120504760Y-95502381D01*
X120742856Y-94454762D02*
X120980951Y-95169048D01*
X120361903Y-95169048D01*
X119980951Y-95407143D02*
X119933332Y-95454762D01*
X119980951Y-95502381D01*
X120028570Y-95454762D01*
X119980951Y-95407143D01*
X119980951Y-95502381D01*
X119314285Y-94502381D02*
X119219046Y-94502381D01*
X119123808Y-94550000D01*
X119076189Y-94597619D01*
X119028570Y-94692857D01*
X118980951Y-94883333D01*
X118980951Y-95121429D01*
X119028570Y-95311905D01*
X119076189Y-95407143D01*
X119123808Y-95454762D01*
X119219046Y-95502381D01*
X119314285Y-95502381D01*
X119409523Y-95454762D01*
X119457142Y-95407143D01*
X119504761Y-95311905D01*
X119552380Y-95121429D01*
X119552380Y-94883333D01*
X119504761Y-94692857D01*
X119457142Y-94597619D01*
X119409523Y-94550000D01*
X119314285Y-94502381D01*
X154954762Y-135759523D02*
X155002381Y-135664285D01*
X155002381Y-135473808D01*
X154954762Y-135378570D01*
X154859524Y-135330951D01*
X154478571Y-135330951D01*
X154383333Y-135378570D01*
X154335714Y-135473808D01*
X154335714Y-135664285D01*
X154383333Y-135759523D01*
X154478571Y-135807142D01*
X154573810Y-135807142D01*
X154669048Y-135330951D01*
X154954762Y-136188094D02*
X155002381Y-136283332D01*
X155002381Y-136473808D01*
X154954762Y-136569047D01*
X154859524Y-136616666D01*
X154811905Y-136616666D01*
X154716667Y-136569047D01*
X154669048Y-136473808D01*
X154669048Y-136330951D01*
X154621429Y-136235713D01*
X154526190Y-136188094D01*
X154478571Y-136188094D01*
X154383333Y-136235713D01*
X154335714Y-136330951D01*
X154335714Y-136473808D01*
X154383333Y-136569047D01*
X154335714Y-137045237D02*
X155335714Y-137045237D01*
X154383333Y-137045237D02*
X154335714Y-137140475D01*
X154335714Y-137330952D01*
X154383333Y-137426190D01*
X154430952Y-137473809D01*
X154526190Y-137521428D01*
X154811905Y-137521428D01*
X154907143Y-137473809D01*
X154954762Y-137426190D01*
X155002381Y-137330952D01*
X155002381Y-137140475D01*
X154954762Y-137045237D01*
X154430952Y-138092856D02*
X154383333Y-137997618D01*
X154335714Y-137949999D01*
X154240476Y-137902380D01*
X154192857Y-137902380D01*
X154097619Y-137949999D01*
X154050000Y-137997618D01*
X154002381Y-138092856D01*
X154002381Y-138283333D01*
X154050000Y-138378571D01*
X154097619Y-138426190D01*
X154192857Y-138473809D01*
X154240476Y-138473809D01*
X154335714Y-138426190D01*
X154383333Y-138378571D01*
X154430952Y-138283333D01*
X154430952Y-138092856D01*
X154478571Y-137997618D01*
X154526190Y-137949999D01*
X154621429Y-137902380D01*
X154811905Y-137902380D01*
X154907143Y-137949999D01*
X154954762Y-137997618D01*
X155002381Y-138092856D01*
X155002381Y-138283333D01*
X154954762Y-138378571D01*
X154907143Y-138426190D01*
X154811905Y-138473809D01*
X154621429Y-138473809D01*
X154526190Y-138426190D01*
X154478571Y-138378571D01*
X154430952Y-138283333D01*
X154097619Y-138854761D02*
X154050000Y-138902380D01*
X154002381Y-138997618D01*
X154002381Y-139235714D01*
X154050000Y-139330952D01*
X154097619Y-139378571D01*
X154192857Y-139426190D01*
X154288095Y-139426190D01*
X154430952Y-139378571D01*
X155002381Y-138807142D01*
X155002381Y-139426190D01*
X154002381Y-140283333D02*
X154002381Y-140092856D01*
X154050000Y-139997618D01*
X154097619Y-139949999D01*
X154240476Y-139854761D01*
X154430952Y-139807142D01*
X154811905Y-139807142D01*
X154907143Y-139854761D01*
X154954762Y-139902380D01*
X155002381Y-139997618D01*
X155002381Y-140188095D01*
X154954762Y-140283333D01*
X154907143Y-140330952D01*
X154811905Y-140378571D01*
X154573810Y-140378571D01*
X154478571Y-140330952D01*
X154430952Y-140283333D01*
X154383333Y-140188095D01*
X154383333Y-139997618D01*
X154430952Y-139902380D01*
X154478571Y-139854761D01*
X154573810Y-139807142D01*
X154002381Y-141235714D02*
X154002381Y-141045237D01*
X154050000Y-140949999D01*
X154097619Y-140902380D01*
X154240476Y-140807142D01*
X154430952Y-140759523D01*
X154811905Y-140759523D01*
X154907143Y-140807142D01*
X154954762Y-140854761D01*
X155002381Y-140949999D01*
X155002381Y-141140476D01*
X154954762Y-141235714D01*
X154907143Y-141283333D01*
X154811905Y-141330952D01*
X154573810Y-141330952D01*
X154478571Y-141283333D01*
X154430952Y-141235714D01*
X154383333Y-141140476D01*
X154383333Y-140949999D01*
X154430952Y-140854761D01*
X154478571Y-140807142D01*
X154573810Y-140759523D01*
X155097619Y-141521428D02*
X155097619Y-142283333D01*
X155002381Y-142950000D02*
X154478571Y-142950000D01*
X154383333Y-142902381D01*
X154335714Y-142807143D01*
X154335714Y-142616666D01*
X154383333Y-142521428D01*
X154954762Y-142950000D02*
X155002381Y-142854762D01*
X155002381Y-142616666D01*
X154954762Y-142521428D01*
X154859524Y-142473809D01*
X154764286Y-142473809D01*
X154669048Y-142521428D01*
X154621429Y-142616666D01*
X154621429Y-142854762D01*
X154573810Y-142950000D01*
X154335714Y-143426190D02*
X155335714Y-143426190D01*
X154383333Y-143426190D02*
X154335714Y-143521428D01*
X154335714Y-143711905D01*
X154383333Y-143807143D01*
X154430952Y-143854762D01*
X154526190Y-143902381D01*
X154811905Y-143902381D01*
X154907143Y-143854762D01*
X154954762Y-143807143D01*
X155002381Y-143711905D01*
X155002381Y-143521428D01*
X154954762Y-143426190D01*
X155002381Y-144759524D02*
X154478571Y-144759524D01*
X154383333Y-144711905D01*
X154335714Y-144616667D01*
X154335714Y-144426190D01*
X154383333Y-144330952D01*
X154954762Y-144759524D02*
X155002381Y-144664286D01*
X155002381Y-144426190D01*
X154954762Y-144330952D01*
X154859524Y-144283333D01*
X154764286Y-144283333D01*
X154669048Y-144330952D01*
X154621429Y-144426190D01*
X154621429Y-144664286D01*
X154573810Y-144759524D01*
X155002381Y-145759524D02*
X155002381Y-145188095D01*
X155002381Y-145473809D02*
X154002381Y-145473809D01*
X154145238Y-145378571D01*
X154240476Y-145283333D01*
X154288095Y-145188095D01*
X154002381Y-146378571D02*
X154002381Y-146473810D01*
X154050000Y-146569048D01*
X154097619Y-146616667D01*
X154192857Y-146664286D01*
X154383333Y-146711905D01*
X154621429Y-146711905D01*
X154811905Y-146664286D01*
X154907143Y-146616667D01*
X154954762Y-146569048D01*
X155002381Y-146473810D01*
X155002381Y-146378571D01*
X154954762Y-146283333D01*
X154907143Y-146235714D01*
X154811905Y-146188095D01*
X154621429Y-146140476D01*
X154383333Y-146140476D01*
X154192857Y-146188095D01*
X154097619Y-146235714D01*
X154050000Y-146283333D01*
X154002381Y-146378571D01*
X154097619Y-147092857D02*
X154050000Y-147140476D01*
X154002381Y-147235714D01*
X154002381Y-147473810D01*
X154050000Y-147569048D01*
X154097619Y-147616667D01*
X154192857Y-147664286D01*
X154288095Y-147664286D01*
X154430952Y-147616667D01*
X155002381Y-147045238D01*
X155002381Y-147664286D01*
X155097619Y-147854762D02*
X155097619Y-148616667D01*
X155002381Y-148854762D02*
X154002381Y-148854762D01*
X154383333Y-148854762D02*
X154335714Y-148950000D01*
X154335714Y-149140477D01*
X154383333Y-149235715D01*
X154430952Y-149283334D01*
X154526190Y-149330953D01*
X154811905Y-149330953D01*
X154907143Y-149283334D01*
X154954762Y-149235715D01*
X155002381Y-149140477D01*
X155002381Y-148950000D01*
X154954762Y-148854762D01*
X154335714Y-150188096D02*
X155002381Y-150188096D01*
X154335714Y-149759524D02*
X154859524Y-149759524D01*
X154954762Y-149807143D01*
X155002381Y-149902381D01*
X155002381Y-150045239D01*
X154954762Y-150140477D01*
X154907143Y-150188096D01*
X155002381Y-150807143D02*
X154954762Y-150711905D01*
X154859524Y-150664286D01*
X154002381Y-150664286D01*
X155002381Y-151188096D02*
X154002381Y-151188096D01*
X154383333Y-151188096D02*
X154335714Y-151283334D01*
X154335714Y-151473811D01*
X154383333Y-151569049D01*
X154430952Y-151616668D01*
X154526190Y-151664287D01*
X154811905Y-151664287D01*
X154907143Y-151616668D01*
X154954762Y-151569049D01*
X155002381Y-151473811D01*
X155002381Y-151283334D01*
X154954762Y-151188096D01*
X154335714Y-152759525D02*
X155002381Y-152997620D01*
X154335714Y-153235716D01*
X154335714Y-154045240D02*
X155002381Y-154045240D01*
X153954762Y-153807144D02*
X154669048Y-153569049D01*
X154669048Y-154188097D01*
X154907143Y-154569049D02*
X154954762Y-154616668D01*
X155002381Y-154569049D01*
X154954762Y-154521430D01*
X154907143Y-154569049D01*
X155002381Y-154569049D01*
X154002381Y-155235715D02*
X154002381Y-155330954D01*
X154050000Y-155426192D01*
X154097619Y-155473811D01*
X154192857Y-155521430D01*
X154383333Y-155569049D01*
X154621429Y-155569049D01*
X154811905Y-155521430D01*
X154907143Y-155473811D01*
X154954762Y-155426192D01*
X155002381Y-155330954D01*
X155002381Y-155235715D01*
X154954762Y-155140477D01*
X154907143Y-155092858D01*
X154811905Y-155045239D01*
X154621429Y-154997620D01*
X154383333Y-154997620D01*
X154192857Y-155045239D01*
X154097619Y-155092858D01*
X154050000Y-155140477D01*
X154002381Y-155235715D01*
X121938412Y-147984008D02*
X122039427Y-147950336D01*
X122174115Y-147815649D01*
X122207786Y-147714634D01*
X122174115Y-147613618D01*
X121904740Y-147344244D01*
X121803725Y-147310572D01*
X121702710Y-147344244D01*
X121568022Y-147478931D01*
X121534351Y-147579947D01*
X121568022Y-147680962D01*
X121635366Y-147748306D01*
X122039428Y-147478931D01*
X121635366Y-148287053D02*
X121601695Y-148388069D01*
X121467008Y-148522755D01*
X121365992Y-148556428D01*
X121264977Y-148522756D01*
X121231305Y-148489084D01*
X121197633Y-148388069D01*
X121231306Y-148287053D01*
X121332321Y-148186038D01*
X121365993Y-148085023D01*
X121332320Y-147984007D01*
X121298649Y-147950336D01*
X121197633Y-147916664D01*
X121096618Y-147950336D01*
X120995603Y-148051351D01*
X120961931Y-148152367D01*
X120591542Y-148455412D02*
X121298649Y-149162519D01*
X120625214Y-148489084D02*
X120524198Y-148522755D01*
X120389511Y-148657443D01*
X120355839Y-148758458D01*
X120355839Y-148825802D01*
X120389511Y-148926817D01*
X120591542Y-149128848D01*
X120692557Y-149162519D01*
X120759900Y-149162519D01*
X120860916Y-149128848D01*
X120995603Y-148994160D01*
X121029275Y-148893145D01*
X119918107Y-149263534D02*
X119951778Y-149162519D01*
X119951778Y-149095175D01*
X119918107Y-148994160D01*
X119884435Y-148960488D01*
X119783420Y-148926817D01*
X119716076Y-148926817D01*
X119615061Y-148960488D01*
X119480374Y-149095176D01*
X119446702Y-149196191D01*
X119446702Y-149263535D01*
X119480374Y-149364550D01*
X119514045Y-149398222D01*
X119615061Y-149431893D01*
X119682404Y-149431893D01*
X119783419Y-149398222D01*
X119918107Y-149263534D01*
X120019122Y-149229862D01*
X120086465Y-149229862D01*
X120187481Y-149263535D01*
X120322168Y-149398222D01*
X120355840Y-149499237D01*
X120355840Y-149566580D01*
X120322168Y-149667595D01*
X120187481Y-149802283D01*
X120086465Y-149835955D01*
X120019122Y-149835955D01*
X119918107Y-149802283D01*
X119783420Y-149667596D01*
X119749747Y-149566580D01*
X119749747Y-149499237D01*
X119783419Y-149398222D01*
X119143657Y-149566580D02*
X119076313Y-149566580D01*
X118975298Y-149600252D01*
X118806939Y-149768611D01*
X118773267Y-149869626D01*
X118773267Y-149936970D01*
X118806939Y-150037985D01*
X118874282Y-150105328D01*
X119008969Y-150172672D01*
X119817092Y-150172672D01*
X119379359Y-150610405D01*
X118066160Y-150509390D02*
X118200848Y-150374702D01*
X118301863Y-150341030D01*
X118369206Y-150341030D01*
X118537565Y-150374702D01*
X118705924Y-150475717D01*
X118975298Y-150745092D01*
X119008970Y-150846107D01*
X119008970Y-150913450D01*
X118975298Y-151014465D01*
X118840610Y-151149153D01*
X118739595Y-151182825D01*
X118672252Y-151182825D01*
X118571237Y-151149153D01*
X118402878Y-150980794D01*
X118369206Y-150879779D01*
X118369206Y-150812435D01*
X118402877Y-150711420D01*
X118537565Y-150576732D01*
X118638580Y-150543061D01*
X118705924Y-150543061D01*
X118806939Y-150576733D01*
X117392725Y-151182825D02*
X117527413Y-151048137D01*
X117628428Y-151014465D01*
X117695771Y-151014465D01*
X117864130Y-151048137D01*
X118032488Y-151149152D01*
X118301863Y-151418527D01*
X118335535Y-151519542D01*
X118335535Y-151586885D01*
X118301863Y-151687900D01*
X118167175Y-151822588D01*
X118066160Y-151856260D01*
X117998817Y-151856260D01*
X117897802Y-151822588D01*
X117729443Y-151654229D01*
X117695771Y-151553214D01*
X117695771Y-151485870D01*
X117729442Y-151384855D01*
X117864130Y-151250167D01*
X117965145Y-151216496D01*
X118032488Y-151216496D01*
X118133504Y-151250168D01*
X117965145Y-152159305D02*
X117426397Y-152698053D01*
X116887649Y-153102115D02*
X116517259Y-152731725D01*
X116483587Y-152630710D01*
X116517259Y-152529695D01*
X116651947Y-152395007D01*
X116752962Y-152361336D01*
X116853977Y-153068443D02*
X116954992Y-153034771D01*
X117123351Y-152866412D01*
X117157023Y-152765397D01*
X117123351Y-152664382D01*
X117056008Y-152597038D01*
X116954993Y-152563367D01*
X116853978Y-152597038D01*
X116685618Y-152765398D01*
X116584603Y-152799069D01*
X116079527Y-152967427D02*
X116786633Y-153674534D01*
X116113198Y-153001099D02*
X116012183Y-153034771D01*
X115877496Y-153169458D01*
X115843824Y-153270473D01*
X115843824Y-153337817D01*
X115877496Y-153438832D01*
X116079527Y-153640863D01*
X116180542Y-153674535D01*
X116247885Y-153674535D01*
X116348900Y-153640863D01*
X116483588Y-153506175D01*
X116517260Y-153405160D01*
X115608122Y-154381641D02*
X115237732Y-154011252D01*
X115204061Y-153910237D01*
X115237732Y-153809222D01*
X115372420Y-153674534D01*
X115473435Y-153640862D01*
X115574450Y-154347970D02*
X115675465Y-154314298D01*
X115843825Y-154145939D01*
X115877496Y-154044924D01*
X115843825Y-153943908D01*
X115776481Y-153876565D01*
X115675466Y-153842893D01*
X115574451Y-153876565D01*
X115406092Y-154044924D01*
X115305076Y-154078596D01*
X114901015Y-155088748D02*
X115305076Y-154684687D01*
X115103046Y-154886717D02*
X114395939Y-154179610D01*
X114564298Y-154213282D01*
X114698985Y-154213282D01*
X114800000Y-154179610D01*
X113756176Y-154819374D02*
X113688832Y-154886718D01*
X113655160Y-154987733D01*
X113655160Y-155055076D01*
X113688832Y-155156092D01*
X113789847Y-155324450D01*
X113958206Y-155492810D01*
X114126565Y-155593825D01*
X114227580Y-155627496D01*
X114294924Y-155627496D01*
X114395939Y-155593825D01*
X114463283Y-155526481D01*
X114496955Y-155425465D01*
X114496955Y-155358122D01*
X114463283Y-155257107D01*
X114362268Y-155088748D01*
X114193908Y-154920389D01*
X114025550Y-154819374D01*
X113924535Y-154785702D01*
X113857191Y-154785702D01*
X113756176Y-154819374D01*
X113318443Y-155391794D02*
X113251100Y-155391794D01*
X113150084Y-155425465D01*
X112981725Y-155593825D01*
X112948053Y-155694840D01*
X112948053Y-155762183D01*
X112981725Y-155863198D01*
X113049069Y-155930542D01*
X113183755Y-155997885D01*
X113991878Y-155997885D01*
X113554145Y-156435618D01*
X113486802Y-156637649D02*
X112948053Y-157176397D01*
X112712351Y-157277412D02*
X112005245Y-156570305D01*
X112274618Y-156839679D02*
X112173603Y-156873351D01*
X112038916Y-157008038D01*
X112005244Y-157109053D01*
X112005244Y-157176397D01*
X112038916Y-157277412D01*
X112240947Y-157479443D01*
X112341962Y-157513115D01*
X112409305Y-157513115D01*
X112510320Y-157479443D01*
X112645008Y-157344755D01*
X112678680Y-157243740D01*
X111298137Y-157748817D02*
X111769542Y-158220221D01*
X111601183Y-157445771D02*
X111971573Y-157816160D01*
X112005245Y-157917175D01*
X111971573Y-158018190D01*
X111870557Y-158119206D01*
X111769542Y-158152878D01*
X111702198Y-158152878D01*
X111331810Y-158657954D02*
X111365481Y-158556939D01*
X111331810Y-158455924D01*
X110725718Y-157849832D01*
X111062435Y-158927328D02*
X110355328Y-158220221D01*
X110624702Y-158489595D02*
X110523687Y-158523267D01*
X110388999Y-158657955D01*
X110355328Y-158758970D01*
X110355328Y-158826313D01*
X110388999Y-158927328D01*
X110591030Y-159129359D01*
X110692045Y-159163031D01*
X110759389Y-159163031D01*
X110860404Y-159129359D01*
X110995092Y-158994672D01*
X111028763Y-158893657D01*
X109479862Y-159567092D02*
X109782908Y-160206855D01*
X109143144Y-159903809D01*
X108570724Y-160476229D02*
X109042129Y-160947634D01*
X108469710Y-160038496D02*
X109143145Y-160375214D01*
X108705412Y-160812947D01*
X108604397Y-161250680D02*
X108604397Y-161318023D01*
X108671740Y-161318023D01*
X108671740Y-161250680D01*
X108604397Y-161250680D01*
X108671740Y-161318023D01*
X107493229Y-161082320D02*
X107425885Y-161149664D01*
X107392214Y-161250680D01*
X107392214Y-161318023D01*
X107425885Y-161419038D01*
X107526900Y-161587397D01*
X107695260Y-161755756D01*
X107863618Y-161856771D01*
X107964634Y-161890443D01*
X108031977Y-161890443D01*
X108132992Y-161856771D01*
X108200336Y-161789427D01*
X108234008Y-161688412D01*
X108234008Y-161621069D01*
X108200336Y-161520053D01*
X108099321Y-161351695D01*
X107930962Y-161183335D01*
X107762603Y-161082320D01*
X107661588Y-161048649D01*
X107594245Y-161048649D01*
X107493229Y-161082320D01*
D12*
X114578249Y-139976777D02*
X115073223Y-140471751D01*
X115921751Y-139623223D02*
X115426777Y-139128249D01*
X104978249Y-130676777D02*
X105473223Y-131171751D01*
X106321751Y-130323223D02*
X105826777Y-129828249D01*
X98069150Y-155023744D02*
X98776256Y-155730850D01*
X99730850Y-154776256D02*
X99023744Y-154069150D01*
X109580850Y-133476256D02*
X108873744Y-132769150D01*
X107919150Y-133723744D02*
X108626256Y-134430850D01*
X111230850Y-131826256D02*
X110523744Y-131119150D01*
X109569150Y-132073744D02*
X110276256Y-132780850D01*
X111119150Y-136773744D02*
X111826256Y-137480850D01*
X112780850Y-136526256D02*
X112073744Y-135819150D01*
X94319150Y-151173744D02*
X95026256Y-151880850D01*
X95980850Y-150926256D02*
X95273744Y-150219150D01*
X115060850Y-149506256D02*
X114353744Y-148799150D01*
X113399150Y-149753744D02*
X114106256Y-150460850D01*
X110330850Y-154126256D02*
X109623744Y-153419150D01*
X108669150Y-154373744D02*
X109376256Y-155080850D01*
X113530850Y-150976256D02*
X112823744Y-150269150D01*
X111869150Y-151223744D02*
X112576256Y-151930850D01*
X114330850Y-134976256D02*
X113623744Y-134269150D01*
X112669150Y-135223744D02*
X113376256Y-135930850D01*
X111980850Y-152526256D02*
X111273744Y-151819150D01*
X110319150Y-152773744D02*
X111026256Y-153480850D01*
X103260850Y-158256256D02*
X102553744Y-157549150D01*
X101599150Y-158503744D02*
X102306256Y-159210850D01*
D10*
X113605719Y-138559272D02*
X113605719Y-138606413D01*
X113652859Y-138700694D01*
X113699999Y-138747834D01*
X113794281Y-138794974D01*
X113888561Y-138794975D01*
X113959272Y-138771404D01*
X114077123Y-138700694D01*
X114147834Y-138629983D01*
X114218545Y-138512131D01*
X114242115Y-138441421D01*
X114242115Y-138347140D01*
X114194974Y-138252859D01*
X114147834Y-138205719D01*
X114053553Y-138158579D01*
X114006413Y-138158578D01*
X113558578Y-138040727D02*
X113629289Y-138064297D01*
X113676429Y-138064297D01*
X113747141Y-138040727D01*
X113770711Y-138017157D01*
X113794281Y-137946446D01*
X113794281Y-137899306D01*
X113770710Y-137828595D01*
X113676429Y-137734315D01*
X113605719Y-137710744D01*
X113558579Y-137710744D01*
X113487868Y-137734315D01*
X113464298Y-137757885D01*
X113440727Y-137828595D01*
X113440727Y-137875735D01*
X113464297Y-137946447D01*
X113558578Y-138040727D01*
X113582149Y-138111438D01*
X113582149Y-138158578D01*
X113558579Y-138229289D01*
X113464298Y-138323570D01*
X113393587Y-138347140D01*
X113346447Y-138347140D01*
X113275735Y-138323570D01*
X113181455Y-138229289D01*
X113157885Y-138158578D01*
X113157885Y-138111438D01*
X113181455Y-138040727D01*
X113275736Y-137946447D01*
X113346447Y-137922876D01*
X113393587Y-137922876D01*
X113464297Y-137946447D01*
X104005719Y-129309272D02*
X104005719Y-129356413D01*
X104052859Y-129450694D01*
X104099999Y-129497834D01*
X104194281Y-129544974D01*
X104288561Y-129544975D01*
X104359272Y-129521404D01*
X104477123Y-129450694D01*
X104547834Y-129379983D01*
X104618545Y-129262131D01*
X104642115Y-129191421D01*
X104642115Y-129097140D01*
X104594974Y-129002859D01*
X104547834Y-128955719D01*
X104453553Y-128908579D01*
X104406413Y-128908578D01*
X103864297Y-128602165D02*
X103534314Y-128932149D01*
X104170711Y-128531455D02*
X103935009Y-129002859D01*
X103628595Y-128696446D01*
X97358578Y-153906413D02*
X97759273Y-153835702D01*
X97641421Y-154189255D02*
X98136395Y-153694281D01*
X97947834Y-153505719D01*
X97877123Y-153482149D01*
X97829983Y-153482149D01*
X97759272Y-153505719D01*
X97688561Y-153576429D01*
X97664991Y-153647141D01*
X97664991Y-153694281D01*
X97688562Y-153764991D01*
X97877123Y-153953553D01*
X97429289Y-152987174D02*
X97523570Y-153081455D01*
X97547140Y-153152165D01*
X97547141Y-153199306D01*
X97523570Y-153317157D01*
X97452859Y-153435009D01*
X97264298Y-153623570D01*
X97193587Y-153647140D01*
X97146447Y-153647140D01*
X97075735Y-153623570D01*
X96981455Y-153529289D01*
X96957885Y-153458578D01*
X96957885Y-153411438D01*
X96981455Y-153340727D01*
X97099306Y-153222877D01*
X97170017Y-153199306D01*
X97217157Y-153199306D01*
X97287868Y-153222876D01*
X97382149Y-153317157D01*
X97405719Y-153387868D01*
X97405719Y-153435008D01*
X97382149Y-153505719D01*
X107208578Y-132606413D02*
X107609273Y-132535702D01*
X107491421Y-132889255D02*
X107986395Y-132394281D01*
X107797834Y-132205719D01*
X107727123Y-132182149D01*
X107679983Y-132182149D01*
X107609272Y-132205719D01*
X107538561Y-132276429D01*
X107514991Y-132347141D01*
X107514991Y-132394281D01*
X107538562Y-132464991D01*
X107727123Y-132653553D01*
X107114297Y-131852165D02*
X106784314Y-132182149D01*
X107420711Y-131781455D02*
X107185009Y-132252859D01*
X106878595Y-131946446D01*
X108858578Y-130956413D02*
X109259273Y-130885702D01*
X109141421Y-131239255D02*
X109636395Y-130744281D01*
X109447834Y-130555719D01*
X109377123Y-130532149D01*
X109329983Y-130532149D01*
X109259272Y-130555719D01*
X109188561Y-130626429D01*
X109164991Y-130697141D01*
X109164991Y-130744281D01*
X109188562Y-130814991D01*
X109377123Y-131003553D01*
X109188561Y-130296447D02*
X108882149Y-129990034D01*
X108858579Y-130343587D01*
X108787868Y-130272876D01*
X108717157Y-130249306D01*
X108670017Y-130249306D01*
X108599306Y-130272877D01*
X108481455Y-130390727D01*
X108457885Y-130461438D01*
X108457885Y-130508578D01*
X108481455Y-130579289D01*
X108622876Y-130720711D01*
X108693587Y-130744281D01*
X108740727Y-130744281D01*
X102350065Y-140881619D02*
X102750758Y-141282313D01*
X102774329Y-141353023D01*
X102774329Y-141400163D01*
X102750759Y-141470875D01*
X102656478Y-141565155D01*
X102585767Y-141588725D01*
X102538627Y-141588725D01*
X102467916Y-141565155D01*
X102067222Y-141164462D01*
X101878661Y-141353023D02*
X101572248Y-141659436D01*
X101925801Y-141683006D01*
X101855090Y-141753717D01*
X101831520Y-141824428D01*
X101831520Y-141871568D01*
X101855091Y-141942279D01*
X101972942Y-142060129D01*
X102043652Y-142083700D01*
X102090792Y-142083700D01*
X102161504Y-142060130D01*
X102302925Y-141918709D01*
X102326495Y-141847997D01*
X102326495Y-141800857D01*
X110358578Y-135656413D02*
X110759273Y-135585702D01*
X110641421Y-135939255D02*
X111136395Y-135444281D01*
X110947834Y-135255719D01*
X110877123Y-135232149D01*
X110829983Y-135232149D01*
X110759272Y-135255719D01*
X110688561Y-135326429D01*
X110664991Y-135397141D01*
X110664991Y-135444281D01*
X110688562Y-135514991D01*
X110877123Y-135703553D01*
X110358578Y-135090727D02*
X110429289Y-135114297D01*
X110476429Y-135114297D01*
X110547141Y-135090727D01*
X110570711Y-135067157D01*
X110594281Y-134996446D01*
X110594281Y-134949306D01*
X110570710Y-134878595D01*
X110476429Y-134784315D01*
X110405719Y-134760744D01*
X110358579Y-134760744D01*
X110287868Y-134784315D01*
X110264298Y-134807885D01*
X110240727Y-134878595D01*
X110240727Y-134925735D01*
X110264297Y-134996447D01*
X110358578Y-135090727D01*
X110382149Y-135161438D01*
X110382149Y-135208578D01*
X110358579Y-135279289D01*
X110264298Y-135373570D01*
X110193587Y-135397140D01*
X110146447Y-135397140D01*
X110075735Y-135373570D01*
X109981455Y-135279289D01*
X109957885Y-135208578D01*
X109957885Y-135161438D01*
X109981455Y-135090727D01*
X110075736Y-134996447D01*
X110146447Y-134972876D01*
X110193587Y-134972876D01*
X110264297Y-134996447D01*
X93608578Y-149956413D02*
X94009273Y-149885702D01*
X93891421Y-150239255D02*
X94386395Y-149744281D01*
X94197834Y-149555719D01*
X94127123Y-149532149D01*
X94079983Y-149532149D01*
X94009272Y-149555719D01*
X93938561Y-149626429D01*
X93914991Y-149697141D01*
X93914991Y-149744281D01*
X93938562Y-149814991D01*
X94127123Y-150003553D01*
X93137174Y-149485009D02*
X93420017Y-149767851D01*
X93278595Y-149626430D02*
X93773570Y-149131455D01*
X93749999Y-149249306D01*
X93750000Y-149343587D01*
X93773570Y-149414298D01*
X112758248Y-148606083D02*
X113158943Y-148535372D01*
X113041091Y-148888925D02*
X113536065Y-148393951D01*
X113347504Y-148205389D01*
X113276793Y-148181819D01*
X113229653Y-148181819D01*
X113158942Y-148205389D01*
X113088231Y-148276099D01*
X113064661Y-148346811D01*
X113064661Y-148393951D01*
X113088232Y-148464661D01*
X113276793Y-148653223D01*
X113088231Y-147946117D02*
X112758248Y-147616133D01*
X112475405Y-148323240D01*
X108008578Y-153256413D02*
X108409273Y-153185702D01*
X108291421Y-153539255D02*
X108786395Y-153044281D01*
X108597834Y-152855719D01*
X108527123Y-152832149D01*
X108479983Y-152832149D01*
X108409272Y-152855719D01*
X108338561Y-152926429D01*
X108314991Y-152997141D01*
X108314991Y-153044281D01*
X108338562Y-153114991D01*
X108527123Y-153303553D01*
X108055719Y-152313604D02*
X108291421Y-152549306D01*
X108079289Y-152808579D01*
X108079289Y-152761438D01*
X108055719Y-152690727D01*
X107937868Y-152572876D01*
X107867157Y-152549306D01*
X107820017Y-152549306D01*
X107749306Y-152572877D01*
X107631455Y-152690727D01*
X107607885Y-152761438D01*
X107607885Y-152808578D01*
X107631455Y-152879289D01*
X107749306Y-152997141D01*
X107820017Y-153020710D01*
X107867157Y-153020711D01*
X111208578Y-150156413D02*
X111609273Y-150085702D01*
X111491421Y-150439255D02*
X111986395Y-149944281D01*
X111797834Y-149755719D01*
X111727123Y-149732149D01*
X111679983Y-149732149D01*
X111609272Y-149755719D01*
X111538561Y-149826429D01*
X111514991Y-149897141D01*
X111514991Y-149944281D01*
X111538562Y-150014991D01*
X111727123Y-150203553D01*
X111467851Y-149520017D02*
X111467851Y-149472876D01*
X111444281Y-149402166D01*
X111326429Y-149284315D01*
X111255719Y-149260744D01*
X111208579Y-149260744D01*
X111137868Y-149284315D01*
X111090727Y-149331455D01*
X111043587Y-149425736D01*
X111043587Y-149991421D01*
X110737174Y-149685009D01*
X111958578Y-134056413D02*
X112359273Y-133985702D01*
X112241421Y-134339255D02*
X112736395Y-133844281D01*
X112547834Y-133655719D01*
X112477123Y-133632149D01*
X112429983Y-133632149D01*
X112359272Y-133655719D01*
X112288561Y-133726429D01*
X112264991Y-133797141D01*
X112264991Y-133844281D01*
X112288562Y-133914991D01*
X112477123Y-134103553D01*
X111722876Y-133820711D02*
X111628595Y-133726430D01*
X111605025Y-133655719D01*
X111605025Y-133608579D01*
X111628595Y-133490727D01*
X111699306Y-133372877D01*
X111887868Y-133184315D01*
X111958579Y-133160744D01*
X112005719Y-133160744D01*
X112076429Y-133184315D01*
X112170710Y-133278595D01*
X112194281Y-133349306D01*
X112194281Y-133396446D01*
X112170711Y-133467157D01*
X112052859Y-133585009D01*
X111982149Y-133608578D01*
X111935008Y-133608579D01*
X111864297Y-133585008D01*
X111770017Y-133490727D01*
X111746446Y-133420017D01*
X111746447Y-133372876D01*
X111770017Y-133302166D01*
X109694281Y-151642115D02*
X110094975Y-151571405D01*
X109977123Y-151924958D02*
X110472098Y-151429983D01*
X110283537Y-151241422D01*
X110212826Y-151217851D01*
X110165686Y-151217851D01*
X110094975Y-151241421D01*
X110024264Y-151312132D01*
X110000694Y-151382843D01*
X110000694Y-151429983D01*
X110024265Y-151500694D01*
X110212826Y-151689255D01*
X109222877Y-151170711D02*
X109505719Y-151453554D01*
X109364298Y-151312133D02*
X109859273Y-150817158D01*
X109835702Y-150935009D01*
X109835703Y-151029289D01*
X109859273Y-151100001D01*
X109411438Y-150369323D02*
X109364297Y-150322183D01*
X109293587Y-150298613D01*
X109246447Y-150298612D01*
X109175736Y-150322183D01*
X109057885Y-150392893D01*
X108940034Y-150510745D01*
X108869323Y-150628595D01*
X108845753Y-150699306D01*
X108845753Y-150746447D01*
X108869323Y-150817157D01*
X108916463Y-150864298D01*
X108987175Y-150887868D01*
X109034315Y-150887868D01*
X109105025Y-150864297D01*
X109222877Y-150793587D01*
X109340728Y-150675736D01*
X109411438Y-150557885D01*
X109435009Y-150487174D01*
X109435009Y-150440034D01*
X109411438Y-150369323D01*
X100893952Y-157341785D02*
X101294646Y-157271075D01*
X101176794Y-157624628D02*
X101671769Y-157129653D01*
X101483208Y-156941092D01*
X101412497Y-156917521D01*
X101365357Y-156917521D01*
X101294646Y-156941091D01*
X101223935Y-157011802D01*
X101200365Y-157082513D01*
X101200365Y-157129653D01*
X101223936Y-157200364D01*
X101412497Y-157388925D01*
X100422548Y-156870381D02*
X100705390Y-157153224D01*
X100563969Y-157011803D02*
X101058944Y-156516828D01*
X101035373Y-156634679D01*
X101035374Y-156728959D01*
X101058944Y-156799671D01*
X99951143Y-156398977D02*
X100233986Y-156681819D01*
X100092564Y-156540398D02*
X100587539Y-156045423D01*
X100563968Y-156163274D01*
X100563969Y-156257555D01*
X100587539Y-156328266D01*
M02*
