M48
;DRILL file {KiCad 4.0.1-3.201512221401+6198~38~ubuntu15.10.1-stable} date Thu 21 Jan 2016 11:16:09 AM EST
;FORMAT={-:-/ absolute / inch / decimal}
FMAT,2
INCH,TZ
T1C0.012
T2C0.016
T3C0.018
T4C0.020
T5C0.022
T6C0.037
%
G90
G05
M72
T1
X2.6299Y-1.4469
X2.6299Y-1.4665
X2.6299Y-1.4862
X2.6299Y-1.5059
X2.6299Y-1.5256
X2.6299Y-1.5453
X2.6299Y-1.565
X2.6299Y-1.5846
X2.6299Y-1.6043
X2.6299Y-1.624
X2.6299Y-1.6437
X2.6299Y-1.6634
X2.6299Y-1.6831
X2.6299Y-1.7028
X2.6299Y-1.7224
X2.6299Y-1.7421
X2.6299Y-1.7618
X2.9449Y-0.6673
X2.9449Y-0.687
X2.9449Y-0.7067
X2.9449Y-0.7264
X2.9449Y-0.7461
X2.9449Y-0.7657
X2.9449Y-0.7854
X2.9449Y-0.8051
X2.9449Y-0.8248
X2.9449Y-2.3957
X2.9449Y-2.4154
X2.9449Y-2.435
X2.9449Y-2.4547
X2.9449Y-2.4744
X2.9449Y-2.4941
X2.9449Y-2.5138
X2.9449Y-2.5335
X2.9449Y-2.5531
X3.3386Y-0.6673
X3.3386Y-0.687
X3.3386Y-0.7067
X3.3386Y-0.7264
X3.3386Y-0.7461
X3.3386Y-0.7657
X3.3386Y-0.7854
X3.3386Y-0.8051
X3.3386Y-0.8248
X3.3386Y-2.3957
X3.3386Y-2.4154
X3.3386Y-2.435
X3.3386Y-2.4547
X3.3386Y-2.4744
X3.3386Y-2.4941
X3.3386Y-2.5138
X3.3386Y-2.5335
X3.3386Y-2.5531
X3.7323Y-0.6673
X3.7323Y-0.687
X3.7323Y-0.7067
X3.7323Y-0.7264
X3.7323Y-0.7461
X3.7323Y-0.7657
X3.7323Y-0.7854
X3.7323Y-0.8051
X3.7323Y-0.8248
X3.7323Y-2.3957
X3.7323Y-2.4154
X3.7323Y-2.435
X3.7323Y-2.4547
X3.7323Y-2.4744
X3.7323Y-2.4941
X3.7323Y-2.5138
X3.7323Y-2.5335
X3.7323Y-2.5531
X4.0472Y-1.4528
X4.0472Y-1.4724
X4.0472Y-1.4921
X4.0472Y-1.5118
X4.0472Y-1.5315
X4.0472Y-1.5512
X4.0472Y-1.5709
X4.0472Y-1.5906
X4.0472Y-1.6102
X4.0472Y-1.6299
X4.0472Y-1.6496
X4.0472Y-1.6693
X4.0472Y-1.689
X4.0472Y-1.7087
X4.0472Y-1.7283
X4.0472Y-1.748
X4.0472Y-1.7677
T2
X1.0681Y-1.7889
X1.0686Y-1.7407
X1.1425Y-1.7418
X1.4059Y-1.7044
X1.4649Y-1.9967
X1.5029Y-1.729
X1.5245Y-1.8207
X1.5304Y-1.1445
X1.5746Y-1.6955
T3
X1.5958Y-1.6437
X1.6329Y-1.6066
X1.6348Y-1.645
X1.6683Y-1.5712
X1.6717Y-1.6095
T4
X1.0567Y-1.5018
X1.2592Y-1.7498
X1.3512Y-1.5516
X1.3534Y-1.6221
X1.3971Y-1.6407
X1.5091Y-1.0618
X1.5219Y-1.1796
X1.5268Y-1.3154
X1.5532Y-1.8531
X1.68Y-1.3951
X1.7548Y-1.4764
X1.7594Y-1.5717
X1.8346Y-1.9984
X1.907Y-1.7773
X1.9719Y-1.3902
X2.1347Y-1.6238
X2.1921Y-1.6496
X2.7989Y-1.0709
X2.799Y-1.327
X2.799Y-1.5829
X2.799Y-1.8388
X2.799Y-2.0954
X2.799Y-2.3511
X2.8365Y-1.1444
X2.8412Y-1.6559
X2.8412Y-1.9128
X2.8412Y-2.1689
X2.8413Y-1.4011
X3.1878Y-1.5886
X3.1878Y-1.8427
X3.1878Y-2.0986
X3.1883Y-1.0753
X3.1933Y-2.3547
X3.1952Y-1.3322
X3.2181Y-1.1497
X3.2272Y-2.1721
X3.2366Y-1.4054
X3.2366Y-1.6613
X3.2373Y-1.9154
X3.5805Y-1.5856
X3.5805Y-1.8611
X3.5805Y-2.1053
X3.5827Y-1.1099
X3.5827Y-1.3538
X3.6044Y-2.3548
X3.6107Y-1.4015
X3.6107Y-1.6561
X3.6107Y-1.9175
X3.6107Y-2.1644
X3.6127Y-1.1442
X3.978Y-2.3504
X3.9818Y-1.0692
X3.9836Y-1.3246
X3.9836Y-1.5793
X3.9836Y-1.8395
X3.9836Y-2.0959
X4.0138Y-1.3971
X4.0138Y-1.9132
X4.0138Y-2.1678
X4.014Y-1.653
X4.0148Y-1.1411
X4.3028Y-1.6728
X4.5465Y-1.7046
X4.5662Y-1.6732
X4.7587Y-1.692
X4.8303Y-1.6733
X4.9369Y-1.0719
X4.9767Y-1.3272
X4.9823Y-0.8872
X4.9874Y-1.6565
X4.9924Y-1.5835
X5.0262Y-1.1454
X5.0262Y-1.3817
X5.0823Y-2.3501
X5.0871Y-1.856
X5.0945Y-2.0929
X5.0984Y-1.9113
X5.1258Y-2.1672
X5.2478Y-1.5541
X5.3028Y-1.5472
X5.4927Y-1.5811
X5.5662Y-1.5472
X5.8002Y-1.5811
T6
X0.7106Y-1.4602
X0.7106Y-1.5602
X0.7106Y-1.6602
X0.7106Y-1.7602
X1.4957Y-2.5472
X1.5004Y-0.6713
X1.5957Y-2.5472
X1.6004Y-0.6713
X1.6957Y-2.5472
X1.7004Y-0.6713
X1.7957Y-2.5472
X1.8004Y-0.6713
X2.5787Y-1.461
X2.5787Y-1.561
X2.5787Y-1.661
X2.5787Y-1.761
X2.5961Y-0.6713
X2.5961Y-2.5472
X2.6961Y-0.6713
X2.6961Y-2.5472
X2.7961Y-0.6713
X2.7961Y-2.5472
X2.8961Y-0.6713
X2.8961Y-2.5472
X2.9933Y-2.5472
X2.9953Y-0.6713
X3.0933Y-2.5472
X3.0953Y-0.6713
X3.1933Y-2.5472
X3.1953Y-0.6713
X3.2933Y-2.5472
X3.2953Y-0.6713
X3.3827Y-0.6732
X3.3843Y-2.5472
X3.4827Y-0.6732
X3.4843Y-2.5472
X3.5827Y-0.6732
X3.5843Y-2.5472
X3.6827Y-0.6732
X3.6843Y-2.5472
X3.778Y-0.6732
X3.778Y-2.5472
X3.878Y-0.6732
X3.878Y-2.5472
X3.978Y-0.6732
X3.978Y-2.5472
X4.078Y-0.6732
X4.078Y-2.5472
X4.0965Y-1.461
X4.0965Y-1.561
X4.0965Y-1.661
X4.0965Y-1.761
X4.8823Y-0.6713
X4.8823Y-2.5472
X4.9823Y-0.6713
X4.9823Y-2.5472
X5.0823Y-0.6713
X5.0823Y-2.5472
X5.1823Y-0.6713
X5.1823Y-2.5472
X5.9646Y-1.4602
X5.9646Y-1.5602
X5.9646Y-1.6602
X5.9646Y-1.7602
T5
X1.5339Y-1.7055G85X1.5464Y-1.718
G05
X1.7329Y-1.5065G85X1.7454Y-1.519
G05
T0
M30
