M48
;DRILL file {KiCad 4.0.2-4+6225~38~ubuntu15.10.1-stable} date Sun 13 Mar 2016 03:12:52 AM EDT
;FORMAT={-:-/ absolute / inch / decimal}
FMAT,2
INCH,TZ
T1C0.012
T2C0.016
T3C0.018
T4C0.020
T5C0.022
T6C0.037
%
G90
G05
M72
T1
X4.2402Y-4.7579
X4.2402Y-4.8386
X4.2598Y-4.7579
X4.2598Y-4.8386
X4.2795Y-3.3957
X4.2795Y-3.4862
X4.2795Y-3.8602
X4.2795Y-3.935
X4.2795Y-4.3091
X4.2795Y-4.3839
X4.2795Y-4.7579
X4.2795Y-4.8386
X4.2992Y-4.7579
X4.2992Y-4.8386
X4.3012Y-3.3957
X4.3012Y-3.4862
X4.3012Y-3.8602
X4.3012Y-3.935
X4.3012Y-4.3091
X4.3012Y-4.3839
X4.3228Y-3.3957
X4.3228Y-3.4862
X4.3228Y-3.8602
X4.3228Y-3.935
X4.3228Y-4.3091
X4.3228Y-4.3839
X5.0531Y-5.7146
X5.0531Y-5.7343
X5.0531Y-5.7539
X5.124Y-5.7146
X5.124Y-5.7343
X5.124Y-5.7539
X5.8386Y-3.3957
X5.8386Y-3.4862
X5.8386Y-3.8602
X5.8386Y-3.935
X5.8386Y-4.3091
X5.8386Y-4.3839
X5.8602Y-3.3957
X5.8602Y-3.4862
X5.8602Y-3.8602
X5.8602Y-3.935
X5.8602Y-4.3091
X5.8602Y-4.3839
X5.8701Y-4.7579
X5.8701Y-4.8386
X5.8819Y-3.3957
X5.8819Y-3.4862
X5.8819Y-3.8602
X5.8819Y-3.935
X5.8819Y-4.3091
X5.8819Y-4.3839
X5.8898Y-4.7579
X5.8898Y-4.8386
X5.9094Y-4.7579
X5.9094Y-4.8386
X5.9291Y-4.7579
X5.9291Y-4.8386
T2
X3.6171Y-5.8999
X3.7252Y-5.9692
X3.8979Y-5.6264
X3.9298Y-5.6787
X3.9457Y-6.131
X3.9802Y-5.8684
X4.015Y-5.8435
X4.0242Y-5.9691
X4.0503Y-5.883
X4.0767Y-5.6124
X4.0915Y-5.9529
X4.2996Y-5.203
X4.4071Y-5.2575
X4.423Y-6.0582
X4.5518Y-5.8661
X4.5936Y-5.4918
X4.6408Y-5.8985
T3
X4.1102Y-5.7638
X4.1473Y-5.7266
X4.1492Y-5.765
X4.1827Y-5.6913
X4.1861Y-5.7295
T4
X3.5771Y-5.615
X3.7613Y-5.539
X3.7706Y-5.8738
X3.8884Y-5.7525
X3.918Y-5.7741
X3.9803Y-6.0886
X4.0169Y-5.1772
X4.049Y-6.1575
X4.0982Y-6.2089
X4.1564Y-6.2795
X4.1569Y-5.441
X4.2501Y-5.4981
X4.2646Y-5.9512
X4.3558Y-5.6199
X4.3902Y-6.1981
X4.4035Y-5.6527
X4.4978Y-5.516
X4.5346Y-3.1767
X4.5346Y-4.5195
X4.5356Y-3.6412
X4.5366Y-4.0901
X4.6034Y-4.5079
X4.6036Y-3.1457
X4.6079Y-3.6102
X4.6084Y-4.0591
X4.6319Y-5.5504
X4.7103Y-5.7953
X4.7879Y-3.1829
X4.7884Y-4.5394
X4.7897Y-3.6474
X4.7924Y-4.0943
X4.8526Y-3.1457
X4.8538Y-3.6102
X4.8621Y-4.5079
X4.8657Y-4.0591
X5.0457Y-3.6474
X5.049Y-4.5228
X5.0529Y-4.0948
X5.0628Y-3.184
X5.1114Y-4.0591
X5.1148Y-4.5079
X5.1179Y-3.1457
X5.1189Y-3.6102
X5.287Y-5.7908
X5.3028Y-4.0948
X5.3089Y-3.184
X5.3124Y-4.5312
X5.3184Y-3.6634
X5.3526Y-4.0591
X5.3636Y-3.1457
X5.3735Y-4.5079
X5.3739Y-3.6102
X5.4702Y-5.7953
X5.5326Y-5.7646
X5.5557Y-4.5267
X5.5593Y-4.0948
X5.5604Y-3.1856
X5.5751Y-3.6634
X5.5939Y-3.1561
X5.6283Y-4.5079
X5.6296Y-3.6102
X5.6301Y-4.0591
X5.7278Y-5.7889
X5.7802Y-5.7383
X5.8093Y-4.506
X5.8111Y-4.0515
X5.8112Y-3.1457
X5.8212Y-3.6074
X5.9447Y-4.9999
X5.9489Y-5.1915
X5.9489Y-5.4556
X5.9804Y-5.7889
X5.992Y-5.7386
X6.0119Y-5.2569
X6.0119Y-5.523
X6.0353Y-5.9399
X6.0353Y-6.2242
X6.0395Y-6.4567
X6.0664Y-6.2669
X6.0682Y-6.0037
X6.2538Y-5.6615
X6.3088Y-5.6633
X6.5401Y-5.6764
X6.564Y-5.6495
X6.7491Y-5.6703
T6
X3.326Y-5.5925
X3.326Y-5.872
X3.426Y-5.5925
X3.426Y-5.872
X4.0197Y-4.8929
X4.0197Y-4.9929
X4.0197Y-6.4598
X4.0197Y-6.5598
X4.2413Y-3.0689
X4.2413Y-3.3504
X4.2413Y-3.9803
X4.2413Y-4.2638
X4.2421Y-3.813
X4.2433Y-3.5295
X4.2433Y-4.4291
X4.2433Y-4.7126
X4.3012Y-4.8929
X4.3012Y-4.9929
X4.3031Y-6.461
X4.3031Y-6.561
X4.3413Y-3.0689
X4.3413Y-3.3504
X4.3413Y-3.9803
X4.3413Y-4.2638
X4.3421Y-3.813
X4.3433Y-3.5295
X4.3433Y-4.4291
X4.3433Y-4.7126
X4.8909Y-5.5906
X4.8929Y-5.872
X4.9909Y-5.5906
X4.9929Y-5.872
X5.1783Y-5.8701
X5.1791Y-5.5886
X5.2783Y-5.8701
X5.2791Y-5.5886
X5.8201Y-3.0689
X5.8201Y-3.3484
X5.8201Y-3.5315
X5.8201Y-3.813
X5.8201Y-3.9803
X5.8201Y-4.2638
X5.822Y-4.4291
X5.822Y-4.7126
X5.878Y-4.8949
X5.878Y-4.9949
X5.878Y-6.4618
X5.878Y-6.5618
X5.9201Y-3.0689
X5.9201Y-3.3484
X5.9201Y-3.5315
X5.9201Y-3.813
X5.9201Y-3.9803
X5.9201Y-4.2638
X5.922Y-4.4291
X5.922Y-4.7126
X6.1575Y-4.8949
X6.1575Y-4.9949
X6.1575Y-6.4638
X6.1575Y-6.5638
X6.7512Y-5.872
X6.7531Y-5.5906
X6.8512Y-5.872
X6.8531Y-5.5906
T5
X4.0483Y-5.8256G85X4.0608Y-5.8381
G05
X4.2473Y-5.6265G85X4.2598Y-5.639
G05
T0
M30
