G04 #@! TF.FileFunction,Profile,NP*
%FSLAX46Y46*%
G04 Gerber Fmt 4.6, Leading zero omitted, Abs format (unit mm)*
G04 Created by KiCad (PCBNEW 4.0.2-4+6225~38~ubuntu15.10.1-stable) date Sun 06 Mar 2016 02:01:02 PM EST*
%MOMM*%
G01*
G04 APERTURE LIST*
%ADD10C,0.100000*%
G04 APERTURE END LIST*
D10*
X108941194Y-129160360D02*
X121316508Y-141535969D01*
X121316508Y-141535969D02*
X122091047Y-142310507D01*
X168673703Y-148253231D02*
X167098857Y-148250261D01*
X151655539Y-108500000D02*
G75*
G02X150650000Y-109400000I-905539J0D01*
G01*
X151655539Y-97100000D02*
G75*
G02X150650000Y-98000000I-905539J0D01*
G01*
X123501981Y-150299573D02*
X127451981Y-150299573D01*
X123501981Y-140899573D02*
X127351981Y-140899573D01*
X128251981Y-149499573D02*
G75*
G02X127451981Y-150299573I-800000J0D01*
G01*
X127351981Y-140899573D02*
G75*
G02X128251981Y-141799573I0J-900000D01*
G01*
X110351981Y-123899573D02*
X110351981Y-127749573D01*
X106450000Y-85300000D02*
X106450000Y-77700000D01*
X107350000Y-86200000D02*
X108650000Y-86200000D01*
X108650000Y-88600000D02*
X107350000Y-88600000D01*
X111200000Y-88600000D02*
X109850000Y-88600000D01*
X109850000Y-98000000D02*
X111200000Y-98000000D01*
X107350000Y-98000000D02*
X108650000Y-98000000D01*
X108650000Y-100000000D02*
X107350000Y-100000000D01*
X111200000Y-100000000D02*
X109850000Y-100000000D01*
X111200000Y-109400000D02*
X109850000Y-109400000D01*
X106450000Y-89500000D02*
G75*
G02X107350000Y-88600000I900000J0D01*
G01*
X100951981Y-123899573D02*
G75*
G02X101851981Y-122999573I900000J0D01*
G01*
X107350000Y-86200000D02*
G75*
G02X106450000Y-85300000I0J900000D01*
G01*
X107350000Y-120800000D02*
G75*
G02X106450000Y-119900000I0J900000D01*
G01*
X107350000Y-109400000D02*
G75*
G02X106450000Y-108500000I0J900000D01*
G01*
X107350000Y-98000000D02*
G75*
G02X106450000Y-97100000I0J900000D01*
G01*
X84051981Y-140899573D02*
X87801981Y-140899573D01*
X83051981Y-149199573D02*
X83051981Y-141899573D01*
X157548857Y-123878386D02*
X157548857Y-127728386D01*
X174548857Y-140878386D02*
G75*
G02X175448857Y-141778386I0J-900000D01*
G01*
X175448857Y-149478386D02*
G75*
G02X174648857Y-150278386I-800000J0D01*
G01*
X170698857Y-140878386D02*
X174548857Y-140878386D01*
X175448857Y-141778386D02*
X175448857Y-149478386D01*
X170698857Y-150278386D02*
X174648857Y-150278386D01*
X114800000Y-95950000D02*
X143300000Y-95950000D01*
X110351981Y-167299573D02*
X110351981Y-163449573D01*
X101851981Y-168205112D02*
X109451981Y-168199573D01*
X151655539Y-85300000D02*
X151650000Y-77700000D01*
X151655539Y-119900000D02*
X151650000Y-112300000D01*
X151655539Y-108500000D02*
X151650000Y-100900000D01*
X151655539Y-97100000D02*
X151650000Y-89500000D01*
X100951981Y-163449573D02*
X100951981Y-167199573D01*
X106450000Y-119900000D02*
X106450000Y-112300000D01*
X106450000Y-108500000D02*
X106450000Y-100900000D01*
X106450000Y-97100000D02*
X106450000Y-89500000D01*
X100951981Y-127749573D02*
X100951981Y-123899573D01*
X109451981Y-122999573D02*
G75*
G02X110351981Y-123899573I0J-900000D01*
G01*
X106450000Y-77700000D02*
G75*
G02X107350000Y-76800000I900000J0D01*
G01*
X106450000Y-112300000D02*
G75*
G02X107350000Y-111400000I900000J0D01*
G01*
X106450000Y-100900000D02*
G75*
G02X107350000Y-100000000I900000J0D01*
G01*
X144850000Y-95950000D02*
X143300000Y-95950000D01*
X144850000Y-78850000D02*
X143300000Y-78850000D01*
X144850000Y-113450000D02*
X143300000Y-113450000D01*
X144850000Y-102050000D02*
X143300000Y-102050000D01*
X144850000Y-90650000D02*
X143300000Y-90650000D01*
X111200000Y-76800000D02*
X113250000Y-78850000D01*
X111200000Y-111400000D02*
X113250000Y-113450000D01*
X150651967Y-122983785D02*
X150650000Y-120800000D01*
X149048857Y-120800000D02*
X149048857Y-122978386D01*
X107648871Y-122994173D02*
X101851981Y-122999573D01*
X109451981Y-122999573D02*
X109251981Y-122999573D01*
X110351981Y-167299573D02*
G75*
G02X109451981Y-168199573I-900000J0D01*
G01*
X150750000Y-76800000D02*
G75*
G02X151650000Y-77700000I0J-900000D01*
G01*
X150750000Y-111400000D02*
G75*
G02X151650000Y-112300000I0J-900000D01*
G01*
X150750000Y-100000000D02*
G75*
G02X151650000Y-100900000I0J-900000D01*
G01*
X150750000Y-88600000D02*
G75*
G02X151650000Y-89500000I0J-900000D01*
G01*
X101851981Y-168205112D02*
G75*
G02X100951981Y-167199573I0J905539D01*
G01*
X151655539Y-85300000D02*
G75*
G02X150650000Y-86200000I-905539J0D01*
G01*
X151655539Y-119900000D02*
G75*
G02X150650000Y-120800000I-905539J0D01*
G01*
X148250000Y-100000000D02*
X148250000Y-98000000D01*
X109850000Y-111400000D02*
X109850000Y-109400000D01*
X149450000Y-111400000D02*
X149450000Y-109400000D01*
X108650000Y-111400000D02*
X108650000Y-109400000D01*
X148250000Y-111400000D02*
X148250000Y-109400000D01*
X111200000Y-76800000D02*
X109850000Y-76800000D01*
X108650000Y-76800000D02*
X107350000Y-76800000D01*
X111200000Y-86200000D02*
X109850000Y-86200000D01*
X87801981Y-150299573D02*
X84051981Y-150304561D01*
X83051981Y-141899573D02*
G75*
G02X84051981Y-140899573I1000000J0D01*
G01*
X84051981Y-150304561D02*
G75*
G02X83051981Y-149199573I0J1004988D01*
G01*
X113250000Y-78850000D02*
X114800000Y-78850000D01*
X113250000Y-113450000D02*
X114800000Y-113450000D01*
X113250000Y-102050000D02*
X114800000Y-102050000D01*
X113250000Y-90650000D02*
X114800000Y-90650000D01*
X111200000Y-120800000D02*
X109250015Y-120815788D01*
X107648871Y-120815788D02*
X107350000Y-120800000D01*
X146900000Y-120800000D02*
X149048857Y-120800000D01*
X107648871Y-122994173D02*
X107648871Y-120815788D01*
X109251981Y-122999573D02*
X109250015Y-120815788D01*
X156648857Y-122978386D02*
X150651967Y-122983785D01*
X130251981Y-146199573D02*
X130248857Y-149178386D01*
X130248857Y-141878386D02*
X130248857Y-145099573D01*
X113250000Y-84150000D02*
X114800000Y-84150000D01*
X113250000Y-118750000D02*
X114800000Y-118750000D01*
X113250000Y-107350000D02*
X114800000Y-107350000D01*
X113250000Y-95950000D02*
X114800000Y-95950000D01*
X144850000Y-84150000D02*
X143300000Y-84150000D01*
X144850000Y-118750000D02*
X143300000Y-118750000D01*
X144850000Y-107350000D02*
X143300000Y-107350000D01*
X138598857Y-148228386D02*
X137048857Y-148228386D01*
X137048857Y-142928386D02*
X138598857Y-142928386D01*
X150198857Y-129778386D02*
X150198857Y-131328386D01*
X155498857Y-129778386D02*
X155498857Y-131328386D01*
X110351981Y-163449573D02*
X108941194Y-162038786D01*
X102362767Y-162038787D02*
X100951981Y-163449573D01*
X89212915Y-148888639D02*
X87801981Y-150299573D01*
X87801981Y-140899573D02*
X89212768Y-142310360D01*
X89987768Y-141535360D02*
X89212768Y-142310360D01*
X101588682Y-129934445D02*
X102362768Y-129160360D01*
X89987768Y-141535360D02*
X101588682Y-129934445D01*
X121304197Y-149675480D02*
X122091043Y-148888635D01*
X107350000Y-109400000D02*
X108650000Y-109400000D01*
X108650000Y-111400000D02*
X107350000Y-111400000D01*
X111200000Y-111400000D02*
X109850000Y-111400000D01*
X150750000Y-76800000D02*
X146900000Y-76800000D01*
X100951981Y-127749573D02*
X102362768Y-129160360D01*
X108941194Y-129160360D02*
X110351981Y-127749573D01*
X123501981Y-140899573D02*
X122091047Y-142310507D01*
X123501981Y-150299573D02*
X122091043Y-148888635D01*
X128251981Y-145099573D02*
X128251981Y-141799573D01*
X128251981Y-149499573D02*
X128251981Y-146199573D01*
X128251981Y-145099573D02*
X130248857Y-145099573D01*
X130251981Y-146199573D02*
X128251981Y-146199573D01*
X149450000Y-86200000D02*
X150650000Y-86200000D01*
X148250000Y-86200000D02*
X146900000Y-86200000D01*
X149450000Y-88600000D02*
X150750000Y-88600000D01*
X148250000Y-88600000D02*
X146900000Y-88600000D01*
X131248857Y-150283374D02*
G75*
G02X130248857Y-149178386I0J1004988D01*
G01*
X130248857Y-141878386D02*
G75*
G02X131248857Y-140878386I1000000J0D01*
G01*
X134998857Y-150278386D02*
X131248857Y-150283373D01*
X131248857Y-140878386D02*
X134998857Y-140878386D01*
X148148857Y-123878386D02*
G75*
G02X149048857Y-122978386I900000J0D01*
G01*
X156648857Y-122978386D02*
G75*
G02X157548857Y-123878386I0J-900000D01*
G01*
X148148857Y-127728386D02*
X148148857Y-123878386D01*
X146900000Y-88600000D02*
X144850000Y-90650000D01*
X146900000Y-76800000D02*
X144850000Y-78850000D01*
X146900000Y-120800000D02*
X144850000Y-118750000D01*
X146900000Y-109400000D02*
X144850000Y-107350000D01*
X146900000Y-98000000D02*
X144850000Y-95950000D01*
X146900000Y-86200000D02*
X144850000Y-84150000D01*
X148148857Y-163428386D02*
X150198857Y-161378386D01*
X111200000Y-100000000D02*
X113250000Y-102050000D01*
X111200000Y-88600000D02*
X113250000Y-90650000D01*
X111200000Y-86200000D02*
X113250000Y-84150000D01*
X111200000Y-120800000D02*
X113250000Y-118750000D01*
X111200000Y-109400000D02*
X113250000Y-107350000D01*
X111200000Y-98000000D02*
X113250000Y-95950000D01*
X146900000Y-111400000D02*
X144850000Y-113450000D01*
X146900000Y-100000000D02*
X144850000Y-102050000D01*
X155498857Y-148241357D02*
X155498857Y-161378386D01*
X150198857Y-161378386D02*
X150198857Y-148237289D01*
X150198857Y-148237289D02*
X138598857Y-148228386D01*
X138598857Y-142928386D02*
X150198857Y-142928732D01*
X150198857Y-142928732D02*
X150198857Y-131328386D01*
X155498857Y-131328386D02*
X155498857Y-142928890D01*
X155498857Y-142928890D02*
X168647892Y-142929351D01*
X108650000Y-76800000D02*
X109850000Y-76800000D01*
X109850000Y-88600000D02*
X109850000Y-86200000D01*
X149450000Y-88600000D02*
X149450000Y-86200000D01*
X108650000Y-88600000D02*
X108650000Y-86200000D01*
X148250000Y-88600000D02*
X148250000Y-86200000D01*
X109850000Y-100000000D02*
X109850000Y-98000000D01*
X149450000Y-100000000D02*
X149450000Y-98000000D01*
X108650000Y-100000000D02*
X108650000Y-98000000D01*
X149048857Y-168183925D02*
G75*
G02X148148857Y-167178386I0J905539D01*
G01*
X157548857Y-167278386D02*
G75*
G02X156648857Y-168178386I-900000J0D01*
G01*
X148148857Y-163428386D02*
X148148857Y-167178386D01*
X149048857Y-168183924D02*
X156648857Y-168178386D01*
X157548857Y-167278386D02*
X157548857Y-163428386D01*
X167098857Y-148250261D02*
X155498857Y-148241357D01*
X157548857Y-163428386D02*
X155498857Y-161378386D01*
X170698857Y-150278386D02*
X168673703Y-148253231D01*
X170698857Y-140878386D02*
X168647892Y-142929351D01*
X148148857Y-127728386D02*
X150198857Y-129778386D01*
X157548857Y-127728386D02*
X155498857Y-129778386D01*
X134998857Y-140878386D02*
X137048857Y-142928386D01*
X134998857Y-150278386D02*
X137048857Y-148228386D01*
X109716194Y-161263786D02*
X108941194Y-162038786D01*
X121304197Y-149675480D02*
X109716194Y-161263786D01*
X89987915Y-149663639D02*
X89212915Y-148888639D01*
X101587732Y-161263751D02*
X102362767Y-162038787D01*
X149450000Y-98000000D02*
X150650000Y-98000000D01*
X148250000Y-98000000D02*
X146900000Y-98000000D01*
X148250000Y-100000000D02*
X146900000Y-100000000D01*
X150750000Y-100000000D02*
X149450000Y-100000000D01*
X149450000Y-109400000D02*
X150650000Y-109400000D01*
X146900000Y-109400000D02*
X148250000Y-109400000D01*
X148250000Y-111400000D02*
X146900000Y-111400000D01*
X150750000Y-111400000D02*
X149450000Y-111400000D01*
X89987915Y-149663639D02*
X101587732Y-161263751D01*
X143300000Y-78850000D02*
X114800000Y-78850000D01*
X143300000Y-113450000D02*
X114800000Y-113450000D01*
X143300000Y-102050000D02*
X114800000Y-102050000D01*
X143300000Y-90650000D02*
X114800000Y-90650000D01*
X114800000Y-84150000D02*
X143300000Y-84150000D01*
X114800000Y-118750000D02*
X143300000Y-118750000D01*
X114800000Y-107350000D02*
X143300000Y-107350000D01*
M02*
