G04 #@! TF.FileFunction,Profile,NP*
%FSLAX46Y46*%
G04 Gerber Fmt 4.6, Leading zero omitted, Abs format (unit mm)*
G04 Created by KiCad (PCBNEW 4.0.2-4+6225~38~ubuntu15.10.1-stable) date Sat 05 Mar 2016 02:29:04 PM EST*
%MOMM*%
G01*
G04 APERTURE LIST*
%ADD10C,0.100000*%
G04 APERTURE END LIST*
D10*
X51050000Y-116650000D02*
X51050000Y-120500000D01*
X51126933Y-117769754D02*
X51126933Y-121519754D01*
X79550000Y-135700000D02*
X91150000Y-135700346D01*
X91150000Y-135700346D02*
X91150000Y-124100000D01*
X91150000Y-122550000D02*
X91150000Y-124100000D01*
X96450000Y-135700505D02*
X109599035Y-135700965D01*
X96450000Y-141012972D02*
X96450000Y-154150000D01*
X30685786Y-134285786D02*
X42286701Y-122684872D01*
X30685934Y-142414066D02*
X42285751Y-154014178D01*
X62002216Y-142425907D02*
X50414213Y-154014213D01*
X62014527Y-134286396D02*
X62789065Y-135060934D01*
X62014527Y-134286396D02*
X50414213Y-122685786D01*
X50414213Y-122685786D02*
X49639213Y-121910786D01*
X51050000Y-160050000D02*
X51050000Y-156200000D01*
X68950000Y-142250000D02*
G75*
G02X68150000Y-143050000I-800000J0D01*
G01*
X41650000Y-116650000D02*
G75*
G02X42550000Y-115750000I900000J0D01*
G01*
X23750000Y-141950000D02*
X23750000Y-134650000D01*
X41650000Y-120500000D02*
X43060786Y-121910786D01*
X43060786Y-154789213D02*
X41650000Y-156200000D01*
X64200000Y-143050000D02*
X68150000Y-143050000D01*
X64200000Y-133650000D02*
X68050000Y-133650000D01*
X49639213Y-121910786D02*
X51050000Y-120500000D01*
X64200000Y-143050000D02*
X62789062Y-141639062D01*
X51050000Y-156200000D02*
X49639213Y-154789213D01*
X68050000Y-133650000D02*
G75*
G02X68950000Y-134550000I0J-900000D01*
G01*
X62002216Y-142425907D02*
X62789062Y-141639062D01*
X42550000Y-160955539D02*
G75*
G02X41650000Y-159950000I0J905539D01*
G01*
X42550000Y-160955538D02*
X50150000Y-160950000D01*
X30685934Y-142414066D02*
X29910934Y-141639066D01*
X29910934Y-141639066D02*
X28500000Y-143050000D01*
X64200000Y-133650000D02*
X62789065Y-135060934D01*
X50414213Y-154014213D02*
X49639213Y-154789213D01*
X41650000Y-120500000D02*
X41650000Y-116650000D01*
X28500000Y-143050000D02*
X24750000Y-143054987D01*
X42286701Y-122684872D02*
X43060786Y-121910786D01*
X68950000Y-134550000D02*
X68950000Y-142250000D01*
X42550000Y-115750000D02*
X50150000Y-115750000D01*
X50150000Y-115750000D02*
G75*
G02X51050000Y-116650000I0J-900000D01*
G01*
X42285751Y-154014178D02*
X43060786Y-154789213D01*
X28500000Y-133650000D02*
X29910786Y-135060786D01*
X24750000Y-143054988D02*
G75*
G02X23750000Y-141950000I0J1004988D01*
G01*
X41650000Y-156200000D02*
X41650000Y-159950000D01*
X23750000Y-134650000D02*
G75*
G02X24750000Y-133650000I1000000J0D01*
G01*
X30685786Y-134285786D02*
X29910786Y-135060786D01*
X24750000Y-133650000D02*
X28500000Y-133650000D01*
X51050000Y-160050000D02*
G75*
G02X50150000Y-160950000I-900000J0D01*
G01*
X71200000Y-134650000D02*
G75*
G02X72200000Y-133650000I1000000J0D01*
G01*
X75950000Y-143050000D02*
X72200000Y-143054987D01*
X52026933Y-77319754D02*
X59626933Y-77319754D01*
X60626933Y-82069754D02*
X60626933Y-78219754D01*
X60526933Y-121619754D02*
G75*
G02X59626933Y-122519754I-900000J0D01*
G01*
X61526933Y-122525293D02*
G75*
G02X60626933Y-121519754I0J905539D01*
G01*
X71026933Y-122525293D02*
G75*
G02X70126933Y-121519754I0J905539D01*
G01*
X89100000Y-120500000D02*
X89100000Y-116650000D01*
X60626933Y-78219754D02*
G75*
G02X61526933Y-77319754I900000J0D01*
G01*
X70126933Y-78219754D02*
G75*
G02X71026933Y-77319754I900000J0D01*
G01*
X79613329Y-78156150D02*
G75*
G02X80513329Y-77256150I900000J0D01*
G01*
X79550000Y-141000000D02*
X78000000Y-141000000D01*
X51126933Y-82069754D02*
X51126933Y-78219754D01*
X69126933Y-77319754D02*
G75*
G02X70026933Y-78219754I0J-900000D01*
G01*
X78626933Y-77319754D02*
G75*
G02X79526933Y-78219754I0J-900000D01*
G01*
X67976933Y-115719754D02*
X67976933Y-114169754D01*
X77476933Y-115719754D02*
X77476933Y-114169754D01*
X70026933Y-78219754D02*
X70026933Y-82069754D01*
X79526933Y-78219754D02*
X79526933Y-82069754D01*
X89013329Y-78156150D02*
X89013329Y-82006150D01*
X80513329Y-77256150D02*
X88113329Y-77256150D01*
X79613329Y-117706150D02*
X81663329Y-115656150D01*
X75950000Y-133650000D02*
X78000000Y-135700000D01*
X80513329Y-122461689D02*
X88113329Y-122456150D01*
X52026933Y-122525293D02*
X59626933Y-122519754D01*
X111650000Y-143050000D02*
X109624846Y-141024846D01*
X80513329Y-122461689D02*
G75*
G02X79613329Y-121456150I0J905539D01*
G01*
X52026933Y-122525293D02*
G75*
G02X51126933Y-121519754I0J905539D01*
G01*
X111650000Y-133650000D02*
X109599035Y-135700965D01*
X89013329Y-82006150D02*
X86963329Y-84056150D01*
X71026933Y-77319754D02*
X78626933Y-77319754D01*
X67976933Y-114169754D02*
X67976933Y-85669754D01*
X77476933Y-114169754D02*
X77476933Y-85669754D01*
X86963329Y-114106150D02*
X86963329Y-85606150D01*
X111650000Y-143050000D02*
X115600000Y-143050000D01*
X116400000Y-142250000D02*
G75*
G02X115600000Y-143050000I-800000J0D01*
G01*
X77476933Y-84119754D02*
X77476933Y-85669754D01*
X86963329Y-84056150D02*
X86963329Y-85606150D01*
X79526933Y-121619754D02*
G75*
G02X78626933Y-122519754I-900000J0D01*
G01*
X89013329Y-121556150D02*
G75*
G02X88113329Y-122456150I-900000J0D01*
G01*
X58476933Y-114169754D02*
X58476933Y-85669754D01*
X62676933Y-85669754D02*
X62676933Y-114169754D01*
X72176933Y-85669754D02*
X72176933Y-114169754D01*
X81663329Y-85606150D02*
X81663329Y-114106150D01*
X70026933Y-117769754D02*
X67976933Y-115719754D01*
X79526933Y-117769754D02*
X77476933Y-115719754D01*
X75950000Y-143050000D02*
X78000000Y-141000000D01*
X81663329Y-84056150D02*
X81663329Y-85606150D01*
X98500000Y-160050000D02*
X98500000Y-156200000D01*
X62676933Y-115719754D02*
X62676933Y-114169754D01*
X60526933Y-78219754D02*
X60526933Y-82069754D01*
X61526933Y-77319754D02*
X69126933Y-77319754D01*
X96450000Y-122550000D02*
X96450000Y-124100000D01*
X72200000Y-133650000D02*
X75950000Y-133650000D01*
X115500000Y-133650000D02*
G75*
G02X116400000Y-134550000I0J-900000D01*
G01*
X98500000Y-116650000D02*
X98500000Y-120500000D01*
X62676933Y-84119754D02*
X62676933Y-85669754D01*
X72176933Y-84119754D02*
X72176933Y-85669754D01*
X96450000Y-141012972D02*
X108050000Y-141021876D01*
X67976933Y-84119754D02*
X67976933Y-85669754D01*
X60526933Y-117769754D02*
X58476933Y-115719754D01*
X70026933Y-82069754D02*
X67976933Y-84119754D01*
X79526933Y-82069754D02*
X77476933Y-84119754D01*
X89100000Y-156200000D02*
X91150000Y-154150000D01*
X89100000Y-156200000D02*
X89100000Y-159950000D01*
X58476933Y-115719754D02*
X58476933Y-114169754D01*
X90000000Y-160955539D02*
G75*
G02X89100000Y-159950000I0J905539D01*
G01*
X70026933Y-121619754D02*
G75*
G02X69126933Y-122519754I-900000J0D01*
G01*
X89100000Y-120500000D02*
X91150000Y-122550000D01*
X98500000Y-120500000D02*
X96450000Y-122550000D01*
X72176933Y-115719754D02*
X72176933Y-114169754D01*
X81663329Y-115656150D02*
X81663329Y-114106150D01*
X51126933Y-82069754D02*
X53176933Y-84119754D01*
X53176933Y-85669754D02*
X53176933Y-114169754D01*
X70026933Y-121619754D02*
X70026933Y-117769754D01*
X79526933Y-121619754D02*
X79526933Y-117769754D01*
X89013329Y-121556150D02*
X89013329Y-117706150D01*
X70126933Y-117769754D02*
X72176933Y-115719754D01*
X60526933Y-121619754D02*
X60526933Y-117769754D01*
X61526933Y-122525293D02*
X69126933Y-122519754D01*
X71026933Y-122525293D02*
X78626933Y-122519754D01*
X98500000Y-160050000D02*
G75*
G02X97600000Y-160950000I-900000J0D01*
G01*
X88113329Y-77256150D02*
G75*
G02X89013329Y-78156150I0J-900000D01*
G01*
X59626933Y-77319754D02*
G75*
G02X60526933Y-78219754I0J-900000D01*
G01*
X60626933Y-117769754D02*
X60626933Y-121519754D01*
X70126933Y-117769754D02*
X70126933Y-121519754D01*
X79613329Y-117706150D02*
X79613329Y-121456150D01*
X70126933Y-82069754D02*
X72176933Y-84119754D01*
X79613329Y-82006150D02*
X81663329Y-84056150D01*
X90000000Y-115750000D02*
X97600000Y-115750000D01*
X78000000Y-135700000D02*
X79550000Y-135700000D01*
X98500000Y-156200000D02*
X96450000Y-154150000D01*
X53176933Y-115719754D02*
X53176933Y-114169754D01*
X89100000Y-116650000D02*
G75*
G02X90000000Y-115750000I900000J0D01*
G01*
X51126933Y-117769754D02*
X53176933Y-115719754D01*
X116400000Y-134550000D02*
X116400000Y-142250000D01*
X89013329Y-117706150D02*
X86963329Y-115656150D01*
X90000000Y-160955538D02*
X97600000Y-160950000D01*
X60626933Y-117769754D02*
X62676933Y-115719754D01*
X53176933Y-84119754D02*
X53176933Y-85669754D01*
X72200000Y-143054988D02*
G75*
G02X71200000Y-141950000I0J1004988D01*
G01*
X71200000Y-141950000D02*
X71200000Y-134650000D01*
X109624846Y-141024846D02*
X108050000Y-141021876D01*
X58476933Y-84119754D02*
X58476933Y-85669754D01*
X70126933Y-82069754D02*
X70126933Y-78219754D01*
X79613329Y-82006150D02*
X79613329Y-78156150D01*
X51126933Y-78219754D02*
G75*
G02X52026933Y-77319754I900000J0D01*
G01*
X60526933Y-82069754D02*
X58476933Y-84119754D01*
X60626933Y-82069754D02*
X62676933Y-84119754D01*
X91150000Y-154150000D02*
X91150000Y-141008904D01*
X96450000Y-124100000D02*
X96450000Y-135700505D01*
X86963329Y-115656150D02*
X86963329Y-114106150D01*
X111650000Y-133650000D02*
X115500000Y-133650000D01*
X91150000Y-141008904D02*
X79550000Y-141000000D01*
X97600000Y-115750000D02*
G75*
G02X98500000Y-116650000I0J-900000D01*
G01*
M02*
