G04 #@! TF.FileFunction,Profile,NP*
%FSLAX46Y46*%
G04 Gerber Fmt 4.6, Leading zero omitted, Abs format (unit mm)*
G04 Created by KiCad (PCBNEW 4.0.1-3.201512221401+6198~38~ubuntu15.10.1-stable) date Thu 21 Jan 2016 11:16:06 AM EST*
%MOMM*%
G01*
G04 APERTURE LIST*
%ADD10C,0.100000*%
G04 APERTURE END LIST*
D10*
X64801100Y-60903600D02*
X66801100Y-58903600D01*
X65801100Y-65903600D02*
G75*
G02X64801100Y-64903600I0J1000000D01*
G01*
X65801100Y-65903600D02*
X73801100Y-65903600D01*
X66801100Y-58903600D02*
X66801100Y-57903600D01*
X72801100Y-57903600D02*
X72801100Y-23903600D01*
X66801100Y-44903600D02*
X66801100Y-57903600D01*
X64801100Y-64903600D02*
X64801100Y-60903600D01*
X44801100Y-58903600D02*
X44801100Y-57903600D01*
X38801100Y-57903600D02*
X24801100Y-43903600D01*
X38801100Y-58903600D02*
X38801100Y-57903600D01*
X36801100Y-60903600D02*
X38801100Y-58903600D01*
X58801100Y-43903600D02*
X44801100Y-57903600D01*
X16801100Y-36903600D02*
G75*
G02X17801100Y-35903600I1000000J0D01*
G01*
X23801100Y-43903600D02*
X24801100Y-43903600D01*
X21801100Y-45903600D02*
X23801100Y-43903600D01*
X17801100Y-45903600D02*
X21801100Y-45903600D01*
X16801100Y-36903600D02*
X16801100Y-44903600D01*
X17801100Y-45903600D02*
G75*
G02X16801100Y-44903600I0J1000000D01*
G01*
X23801100Y-37903600D02*
X24801100Y-37903600D01*
X21801100Y-35903600D02*
X23801100Y-37903600D01*
X24801100Y-37903600D02*
X38801100Y-23903600D01*
X17801100Y-35903600D02*
X21801100Y-35903600D01*
X36801100Y-64903600D02*
X36801100Y-60903600D01*
X37801100Y-65903600D02*
X45801100Y-65903600D01*
X37801100Y-65903600D02*
G75*
G02X36801100Y-64903600I0J1000000D01*
G01*
X46801100Y-64903600D02*
X46801100Y-60903600D01*
X46801100Y-60903600D02*
X44801100Y-58903600D01*
X46801100Y-64903600D02*
G75*
G02X45801100Y-65903600I-1000000J0D01*
G01*
X122801100Y-37903600D02*
X124801100Y-37903600D01*
X103801100Y-45903600D02*
X107801100Y-45903600D01*
X109801100Y-37903600D02*
X110801100Y-37903600D01*
X107801100Y-35903600D02*
X109801100Y-37903600D01*
X110801100Y-37903600D02*
X122801100Y-37903600D01*
X103801100Y-35903600D02*
X107801100Y-35903600D01*
X122801100Y-64903600D02*
X122801100Y-60903600D01*
X124801100Y-58903600D02*
X124801100Y-57903600D01*
X123801100Y-65903600D02*
X131801100Y-65903600D01*
X122801100Y-60903600D02*
X124801100Y-58903600D01*
X123801100Y-65903600D02*
G75*
G02X122801100Y-64903600I0J1000000D01*
G01*
X124801100Y-43903600D02*
X110801100Y-43903600D01*
X124801100Y-57903600D02*
X124801100Y-43903600D01*
X107801100Y-45903600D02*
X109801100Y-43903600D01*
X130801100Y-43903600D02*
X130801100Y-57903600D01*
X109801100Y-43903600D02*
X110801100Y-43903600D01*
X152801100Y-44903600D02*
X152801100Y-36903600D01*
X145801100Y-37903600D02*
X144801100Y-37903600D01*
X147801100Y-35903600D02*
X145801100Y-37903600D01*
X151801100Y-35903600D02*
X147801100Y-35903600D01*
X151801100Y-35903600D02*
G75*
G02X152801100Y-36903600I0J-1000000D01*
G01*
X132801100Y-20903600D02*
X130801100Y-22903600D01*
X130801100Y-23903600D02*
X130801100Y-22903600D01*
X144801100Y-43903600D02*
X130801100Y-43903600D01*
X130801100Y-37903600D02*
X144801100Y-37903600D01*
X124801100Y-22903600D02*
X124801100Y-23903600D01*
X130801100Y-23903600D02*
X130801100Y-37903600D01*
X124801100Y-37903600D02*
X124801100Y-23903600D01*
X132801100Y-64903600D02*
X132801100Y-60903600D01*
X130801100Y-58903600D02*
X130801100Y-57903600D01*
X132801100Y-60903600D02*
X130801100Y-58903600D01*
X132801100Y-64903600D02*
G75*
G02X131801100Y-65903600I-1000000J0D01*
G01*
X124801100Y-22903600D02*
X124801100Y-22903600D01*
X122801100Y-20903600D02*
X124801100Y-22903600D01*
X122801100Y-20903600D02*
X122801100Y-20903600D01*
X132801100Y-16903600D02*
X132801100Y-20903600D01*
X131810381Y-15903600D02*
X123801100Y-15903600D01*
X131810381Y-15903600D02*
G75*
G02X132801100Y-16903600I-9281J-999957D01*
G01*
X122801100Y-16903600D02*
X122801100Y-20903600D01*
X122801100Y-16903600D02*
G75*
G02X123801100Y-15903600I1000000J0D01*
G01*
X147801100Y-45903600D02*
X145801100Y-43903600D01*
X151801100Y-45903600D02*
X147801100Y-45903600D01*
X145801100Y-43903600D02*
X144801100Y-43903600D01*
X152801100Y-44903600D02*
G75*
G02X151801100Y-45903600I-1000000J0D01*
G01*
X75801100Y-65903600D02*
G75*
G02X74801100Y-64903600I0J1000000D01*
G01*
X84801100Y-64903600D02*
G75*
G02X83801100Y-65903600I-1000000J0D01*
G01*
X75801100Y-65903600D02*
X83801100Y-65903600D01*
X82801100Y-58903600D02*
X82801100Y-57903600D01*
X84801100Y-60903600D02*
X82801100Y-58903600D01*
X96801100Y-58903600D02*
X96801100Y-57903600D01*
X95801100Y-65903600D02*
G75*
G02X94801100Y-64903600I0J1000000D01*
G01*
X94801100Y-60903600D02*
X96801100Y-58903600D01*
X94801100Y-60903600D02*
X92801100Y-58903600D01*
X94801100Y-64903600D02*
G75*
G02X93801100Y-65903600I-1000000J0D01*
G01*
X92801100Y-58903600D02*
X92801100Y-57903600D01*
X86801100Y-58903600D02*
X86801100Y-57903600D01*
X84801100Y-60903600D02*
X86801100Y-58903600D01*
X85801100Y-65903600D02*
X93801100Y-65903600D01*
X85801100Y-65903600D02*
G75*
G02X84801100Y-64903600I0J1000000D01*
G01*
X103801100Y-45903600D02*
G75*
G02X102801100Y-44903600I0J1000000D01*
G01*
X95801100Y-65903600D02*
X103801100Y-65903600D01*
X102801100Y-44903600D02*
X102801100Y-57903600D01*
X104801100Y-60903600D02*
X102801100Y-58903600D01*
X104801100Y-64903600D02*
X104801100Y-60903600D01*
X102801100Y-58903600D02*
X102801100Y-57903600D01*
X104801100Y-64903600D02*
G75*
G02X103801100Y-65903600I-1000000J0D01*
G01*
X74801100Y-60903600D02*
X76801100Y-58903600D01*
X76801100Y-58903600D02*
X76801100Y-57903600D01*
X74801100Y-64903600D02*
G75*
G02X73801100Y-65903600I-1000000J0D01*
G01*
X74801100Y-60903600D02*
X72801100Y-58903600D01*
X72801100Y-58903600D02*
X72801100Y-57903600D01*
X76801100Y-23903600D02*
X76801100Y-57903600D01*
X102801100Y-36903600D02*
X102801100Y-23903600D01*
X82801100Y-57903600D02*
X82801100Y-23903600D01*
X96801100Y-23903600D02*
X96801100Y-57903600D01*
X92801100Y-57903600D02*
X92801100Y-23903600D01*
X86801100Y-23903600D02*
X86801100Y-57903600D01*
X102801100Y-36903600D02*
G75*
G02X103801100Y-35903600I1000000J0D01*
G01*
X82801100Y-23903600D02*
X82801100Y-22903600D01*
X86801100Y-22903600D02*
X86801100Y-23903600D01*
X86801100Y-22903600D02*
X86801100Y-22903600D01*
X84801100Y-20903600D02*
X86801100Y-22903600D01*
X84801100Y-20903600D02*
X82801100Y-22903600D01*
X96801100Y-22903600D02*
X96801100Y-23903600D01*
X96801100Y-22903600D02*
X96801100Y-22903600D01*
X94801100Y-20903600D02*
X96801100Y-22903600D01*
X94801100Y-20903600D02*
X92801100Y-22903600D01*
X94801100Y-20903600D02*
X94801100Y-20903600D01*
X92801100Y-23903600D02*
X92801100Y-22903600D01*
X93810381Y-15903600D02*
X85801100Y-15903600D01*
X104801100Y-16903600D02*
X104801100Y-20903600D01*
X103810381Y-15903600D02*
G75*
G02X104801100Y-16903600I-9281J-999957D01*
G01*
X102801100Y-23903600D02*
X102801100Y-22903600D01*
X104801100Y-20903600D02*
X102801100Y-22903600D01*
X103810381Y-15903600D02*
X95801100Y-15903600D01*
X93810381Y-15903600D02*
G75*
G02X94801100Y-16903600I-9281J-999957D01*
G01*
X94801100Y-16903600D02*
G75*
G02X95801100Y-15903600I1000000J0D01*
G01*
X84801100Y-20903600D02*
X84801100Y-20903600D01*
X83810381Y-15903600D02*
X75801100Y-15903600D01*
X83810381Y-15903600D02*
G75*
G02X84801100Y-16903600I-9281J-999957D01*
G01*
X84801100Y-16903600D02*
G75*
G02X85801100Y-15903600I1000000J0D01*
G01*
X74801100Y-20903600D02*
X72801100Y-22903600D01*
X76801100Y-22903600D02*
X76801100Y-23903600D01*
X76801100Y-22903600D02*
X76801100Y-22903600D01*
X74801100Y-20903600D02*
X74801100Y-20903600D01*
X74801100Y-20903600D02*
X76801100Y-22903600D01*
X36801100Y-16903600D02*
X36801100Y-20903600D01*
X38801100Y-22903600D02*
X38801100Y-23903600D01*
X38801100Y-22903600D02*
X38801100Y-22903600D01*
X36801100Y-20903600D02*
X36801100Y-20903600D01*
X36801100Y-20903600D02*
X38801100Y-22903600D01*
X36801100Y-16903600D02*
G75*
G02X37801100Y-15903600I1000000J0D01*
G01*
X58801100Y-37903600D02*
X44801100Y-23903600D01*
X59801100Y-37903600D02*
X58801100Y-37903600D01*
X61801100Y-35903600D02*
X59801100Y-37903600D01*
X65801100Y-35903600D02*
X61801100Y-35903600D01*
X45810381Y-15903600D02*
G75*
G02X46801100Y-16903600I-9281J-999957D01*
G01*
X46801100Y-16903600D02*
X46801100Y-20903600D01*
X44801100Y-23903600D02*
X44801100Y-22903600D01*
X46801100Y-20903600D02*
X44801100Y-22903600D01*
X45810381Y-15903600D02*
X37801100Y-15903600D01*
X64801100Y-16903600D02*
X64801100Y-20903600D01*
X73810381Y-15903600D02*
X65801100Y-15903600D01*
X73810381Y-15903600D02*
G75*
G02X74801100Y-16903600I-9281J-999957D01*
G01*
X74801100Y-16903600D02*
G75*
G02X75801100Y-15903600I1000000J0D01*
G01*
X64801100Y-20903600D02*
X66801100Y-22903600D01*
X64801100Y-20903600D02*
X64801100Y-20903600D01*
X64801100Y-16903600D02*
G75*
G02X65801100Y-15903600I1000000J0D01*
G01*
X59801100Y-43903600D02*
X58801100Y-43903600D01*
X61801100Y-45903600D02*
X59801100Y-43903600D01*
X66801100Y-44903600D02*
G75*
G02X65801100Y-45903600I-1000000J0D01*
G01*
X65801100Y-45903600D02*
X61801100Y-45903600D01*
X72801100Y-23903600D02*
X72801100Y-22903600D01*
X66801100Y-36903600D02*
X66801100Y-23903600D01*
X66801100Y-22903600D02*
X66801100Y-23903600D01*
X66801100Y-22903600D02*
X66801100Y-22903600D01*
X65801100Y-35903600D02*
G75*
G02X66801100Y-36903600I0J-1000000D01*
G01*
M02*
