G04 #@! TF.FileFunction,Soldermask,Bot*
%FSLAX46Y46*%
G04 Gerber Fmt 4.6, Leading zero omitted, Abs format (unit mm)*
G04 Created by KiCad (PCBNEW 4.0.2-4+6225~38~ubuntu15.10.1-stable) date Sun 13 Mar 2016 11:44:29 AM EDT*
%MOMM*%
G01*
G04 APERTURE LIST*
%ADD10C,0.100000*%
%ADD11C,1.900000*%
%ADD12C,1.100000*%
%ADD13C,1.100000*%
%ADD14C,1.500000*%
%ADD15C,0.700000*%
G04 APERTURE END LIST*
D10*
D11*
X102100000Y-126820000D03*
X102100000Y-124280000D03*
X109250000Y-126820000D03*
X109250000Y-124280000D03*
X109300000Y-164110000D03*
X109300000Y-166650000D03*
X102100000Y-164080000D03*
X102100000Y-166620000D03*
X87020000Y-149150000D03*
X84480000Y-149150000D03*
X87020000Y-142050000D03*
X84480000Y-142050000D03*
D12*
X107864186Y-142895559D02*
X108217740Y-143249113D01*
X102808373Y-147951373D02*
X103161927Y-148304927D01*
D13*
X104399717Y-146399627D03*
X105342644Y-145456700D03*
X106240669Y-144558675D03*
X105389313Y-146431093D03*
X106326229Y-145529532D03*
D11*
X110320000Y-119700000D03*
X107780000Y-119700000D03*
X110270000Y-108300000D03*
X107730000Y-108300000D03*
X110270000Y-101100000D03*
X107730000Y-101100000D03*
X110320000Y-112500000D03*
X107780000Y-112500000D03*
X110290000Y-96850000D03*
X107750000Y-96850000D03*
X110270000Y-85100000D03*
X107730000Y-85100000D03*
X110270000Y-77950000D03*
X107730000Y-77950000D03*
X110320000Y-89650000D03*
X107780000Y-89650000D03*
X150370000Y-85050000D03*
X147830000Y-85050000D03*
X150370000Y-77950000D03*
X147830000Y-77950000D03*
X150370000Y-96850000D03*
X147830000Y-96850000D03*
X150370000Y-89700000D03*
X147830000Y-89700000D03*
X150370000Y-101100000D03*
X147830000Y-101100000D03*
X150370000Y-108300000D03*
X147830000Y-108300000D03*
X150420000Y-119700000D03*
X147880000Y-119700000D03*
X150420000Y-112500000D03*
X147880000Y-112500000D03*
X124280000Y-149150000D03*
X126820000Y-149150000D03*
X149300000Y-166670000D03*
X149300000Y-164130000D03*
X156400000Y-166720000D03*
X156400000Y-164180000D03*
X124230000Y-142000000D03*
X126770000Y-142000000D03*
X131530000Y-149100000D03*
X134070000Y-149100000D03*
X131550000Y-141950000D03*
X134090000Y-141950000D03*
X174020000Y-149150000D03*
X171480000Y-149150000D03*
X174070000Y-142000000D03*
X171530000Y-142000000D03*
D10*
G36*
X113888820Y-139251992D02*
X114701992Y-138438820D01*
X115550520Y-139287348D01*
X114737348Y-140100520D01*
X113888820Y-139251992D01*
X113888820Y-139251992D01*
G37*
G36*
X114949480Y-140312652D02*
X115762652Y-139499480D01*
X116611180Y-140348008D01*
X115798008Y-141161180D01*
X114949480Y-140312652D01*
X114949480Y-140312652D01*
G37*
G36*
X104288820Y-129951992D02*
X105101992Y-129138820D01*
X105950520Y-129987348D01*
X105137348Y-130800520D01*
X104288820Y-129951992D01*
X104288820Y-129951992D01*
G37*
G36*
X105349480Y-131012652D02*
X106162652Y-130199480D01*
X107011180Y-131048008D01*
X106198008Y-131861180D01*
X105349480Y-131012652D01*
X105349480Y-131012652D01*
G37*
G36*
X100208147Y-155288909D02*
X99288909Y-156208147D01*
X98652513Y-155571751D01*
X99571751Y-154652513D01*
X100208147Y-155288909D01*
X100208147Y-155288909D01*
G37*
G36*
X99147487Y-154228249D02*
X98228249Y-155147487D01*
X97591853Y-154511091D01*
X98511091Y-153591853D01*
X99147487Y-154228249D01*
X99147487Y-154228249D01*
G37*
G36*
X107441853Y-133211091D02*
X108361091Y-132291853D01*
X108997487Y-132928249D01*
X108078249Y-133847487D01*
X107441853Y-133211091D01*
X107441853Y-133211091D01*
G37*
G36*
X108502513Y-134271751D02*
X109421751Y-133352513D01*
X110058147Y-133988909D01*
X109138909Y-134908147D01*
X108502513Y-134271751D01*
X108502513Y-134271751D01*
G37*
G36*
X109091853Y-131561091D02*
X110011091Y-130641853D01*
X110647487Y-131278249D01*
X109728249Y-132197487D01*
X109091853Y-131561091D01*
X109091853Y-131561091D01*
G37*
G36*
X110152513Y-132621751D02*
X111071751Y-131702513D01*
X111708147Y-132338909D01*
X110788909Y-133258147D01*
X110152513Y-132621751D01*
X110152513Y-132621751D01*
G37*
D14*
X112846302Y-145646800D02*
X111927064Y-144727562D01*
X111432088Y-147061014D02*
X110512850Y-146141776D01*
X110017874Y-148475227D02*
X109098636Y-147555989D01*
X108603661Y-149889441D02*
X107684423Y-148970203D01*
X107189447Y-151303654D02*
X106270209Y-150384416D01*
X105775234Y-152717868D02*
X104855996Y-151798630D01*
D10*
G36*
X103823619Y-130415720D02*
X104884280Y-131476381D01*
X102904381Y-133456280D01*
X101843720Y-132395619D01*
X103823619Y-130415720D01*
X103823619Y-130415720D01*
G37*
D14*
X105237833Y-132890595D02*
X104318595Y-133809833D01*
X106652046Y-134304808D02*
X105732808Y-135224046D01*
X108066260Y-135719022D02*
X107147022Y-136638260D01*
X109480473Y-137133235D02*
X108561235Y-138052473D01*
X110894687Y-138547449D02*
X109975449Y-139466687D01*
X112308900Y-139961662D02*
X111389662Y-140880900D01*
X113723114Y-141375876D02*
X112803876Y-142295114D01*
X102409405Y-152689584D02*
X101490167Y-153608822D01*
X100995192Y-151275371D02*
X100075954Y-152194609D01*
X99580978Y-149861157D02*
X98661740Y-150780395D01*
X98166765Y-148446944D02*
X97247527Y-149366182D01*
X96752551Y-147032730D02*
X95833313Y-147951968D01*
X95338338Y-145618517D02*
X94419100Y-146537755D01*
X93924124Y-144204303D02*
X93004886Y-145123541D01*
X92509911Y-142790089D02*
X91590673Y-143709327D01*
D10*
G36*
X113258147Y-137038909D02*
X112338909Y-137958147D01*
X111702513Y-137321751D01*
X112621751Y-136402513D01*
X113258147Y-137038909D01*
X113258147Y-137038909D01*
G37*
G36*
X112197487Y-135978249D02*
X111278249Y-136897487D01*
X110641853Y-136261091D01*
X111561091Y-135341853D01*
X112197487Y-135978249D01*
X112197487Y-135978249D01*
G37*
G36*
X96458147Y-151438909D02*
X95538909Y-152358147D01*
X94902513Y-151721751D01*
X95821751Y-150802513D01*
X96458147Y-151438909D01*
X96458147Y-151438909D01*
G37*
G36*
X95397487Y-150378249D02*
X94478249Y-151297487D01*
X93841853Y-150661091D01*
X94761091Y-149741853D01*
X95397487Y-150378249D01*
X95397487Y-150378249D01*
G37*
G36*
X112921853Y-149241091D02*
X113841091Y-148321853D01*
X114477487Y-148958249D01*
X113558249Y-149877487D01*
X112921853Y-149241091D01*
X112921853Y-149241091D01*
G37*
G36*
X113982513Y-150301751D02*
X114901751Y-149382513D01*
X115538147Y-150018909D01*
X114618909Y-150938147D01*
X113982513Y-150301751D01*
X113982513Y-150301751D01*
G37*
G36*
X108191853Y-153861091D02*
X109111091Y-152941853D01*
X109747487Y-153578249D01*
X108828249Y-154497487D01*
X108191853Y-153861091D01*
X108191853Y-153861091D01*
G37*
G36*
X109252513Y-154921751D02*
X110171751Y-154002513D01*
X110808147Y-154638909D01*
X109888909Y-155558147D01*
X109252513Y-154921751D01*
X109252513Y-154921751D01*
G37*
G36*
X111391853Y-150711091D02*
X112311091Y-149791853D01*
X112947487Y-150428249D01*
X112028249Y-151347487D01*
X111391853Y-150711091D01*
X111391853Y-150711091D01*
G37*
G36*
X112452513Y-151771751D02*
X113371751Y-150852513D01*
X114008147Y-151488909D01*
X113088909Y-152408147D01*
X112452513Y-151771751D01*
X112452513Y-151771751D01*
G37*
G36*
X112191853Y-134711091D02*
X113111091Y-133791853D01*
X113747487Y-134428249D01*
X112828249Y-135347487D01*
X112191853Y-134711091D01*
X112191853Y-134711091D01*
G37*
G36*
X113252513Y-135771751D02*
X114171751Y-134852513D01*
X114808147Y-135488909D01*
X113888909Y-136408147D01*
X113252513Y-135771751D01*
X113252513Y-135771751D01*
G37*
D11*
X156400000Y-124330000D03*
X156400000Y-126870000D03*
X149300000Y-124330000D03*
X149300000Y-126870000D03*
D10*
G36*
X109841853Y-152261091D02*
X110761091Y-151341853D01*
X111397487Y-151978249D01*
X110478249Y-152897487D01*
X109841853Y-152261091D01*
X109841853Y-152261091D01*
G37*
G36*
X110902513Y-153321751D02*
X111821751Y-152402513D01*
X112458147Y-153038909D01*
X111538909Y-153958147D01*
X110902513Y-153321751D01*
X110902513Y-153321751D01*
G37*
G36*
X101121853Y-157991091D02*
X102041091Y-157071853D01*
X102677487Y-157708249D01*
X101758249Y-158627487D01*
X101121853Y-157991091D01*
X101121853Y-157991091D01*
G37*
G36*
X102182513Y-159051751D02*
X103101751Y-158132513D01*
X103738147Y-158768909D01*
X102818909Y-159688147D01*
X102182513Y-159051751D01*
X102182513Y-159051751D01*
G37*
D15*
X108700000Y-120850000D03*
X109200000Y-120850000D03*
X108200000Y-120850000D03*
X107700000Y-120850000D03*
X149100000Y-120850000D03*
X149600000Y-120850000D03*
X150100000Y-120850000D03*
X150600000Y-120850000D03*
X149100000Y-122900000D03*
X149600000Y-122900000D03*
X150100000Y-122900000D03*
X150600000Y-122900000D03*
X107700000Y-122900000D03*
X108200000Y-122900000D03*
X108700000Y-122900000D03*
X109200000Y-122900000D03*
X108700000Y-111350000D03*
X109250000Y-111350000D03*
X109800000Y-111350000D03*
X108700000Y-109450000D03*
X109250000Y-109450000D03*
X109800000Y-109450000D03*
X108700000Y-99950000D03*
X109250000Y-99950000D03*
X109800000Y-99950000D03*
X108700000Y-98050000D03*
X109250000Y-98050000D03*
X109800000Y-98050000D03*
X109800000Y-88550000D03*
X109250000Y-88550000D03*
X108700000Y-88550000D03*
X109800000Y-86250000D03*
X109250000Y-86250000D03*
X108700000Y-86250000D03*
X149400000Y-86250000D03*
X148850000Y-86250000D03*
X148300000Y-86250000D03*
X149400000Y-88550000D03*
X148850000Y-88550000D03*
X148300000Y-88550000D03*
X149400000Y-98050000D03*
X148850000Y-98050000D03*
X148300000Y-98050000D03*
X149400000Y-99950000D03*
X148850000Y-99950000D03*
X148300000Y-99950000D03*
X149400000Y-109450000D03*
X148850000Y-109450000D03*
X148300000Y-109450000D03*
X149400000Y-111350000D03*
X148850000Y-111350000D03*
X148300000Y-111350000D03*
X130150000Y-145150000D03*
X130150000Y-145650000D03*
X130150000Y-146150000D03*
X128350000Y-145150000D03*
X128350000Y-145650000D03*
X128350000Y-146150000D03*
M02*
