G04 #@! TF.FileFunction,Legend,Top*
%FSLAX46Y46*%
G04 Gerber Fmt 4.6, Leading zero omitted, Abs format (unit mm)*
G04 Created by KiCad (PCBNEW 4.0.2-4+6225~38~ubuntu15.10.1-stable) date Sat 05 Mar 2016 02:29:04 PM EST*
%MOMM*%
G01*
G04 APERTURE LIST*
%ADD10C,0.100000*%
%ADD11C,0.150000*%
%ADD12C,0.099060*%
G04 APERTURE END LIST*
D10*
D11*
X73750000Y-136150000D02*
X73150000Y-136750000D01*
X73150000Y-140550000D02*
X73150000Y-136550000D01*
X75550000Y-136150000D02*
X75550000Y-140550000D01*
X73150000Y-136550000D02*
X73150000Y-136150000D01*
X75550000Y-140550000D02*
X73150000Y-140550000D01*
X75550000Y-136150000D02*
X73150000Y-136150000D01*
X72650000Y-81060000D02*
X73250000Y-81660000D01*
X77050000Y-81660000D02*
X73050000Y-81660000D01*
X72650000Y-79260000D02*
X77050000Y-79260000D01*
X73050000Y-81660000D02*
X72650000Y-81660000D01*
X77050000Y-79260000D02*
X77050000Y-81660000D01*
X72650000Y-79260000D02*
X72650000Y-81660000D01*
X63150000Y-81050000D02*
X63750000Y-81650000D01*
X67550000Y-81650000D02*
X63550000Y-81650000D01*
X63150000Y-79250000D02*
X67550000Y-79250000D01*
X63550000Y-81650000D02*
X63150000Y-81650000D01*
X67550000Y-79250000D02*
X67550000Y-81650000D01*
X63150000Y-79250000D02*
X63150000Y-81650000D01*
X53650000Y-81050000D02*
X54250000Y-81650000D01*
X58050000Y-81650000D02*
X54050000Y-81650000D01*
X53650000Y-79250000D02*
X58050000Y-79250000D01*
X54050000Y-81650000D02*
X53650000Y-81650000D01*
X58050000Y-79250000D02*
X58050000Y-81650000D01*
X53650000Y-79250000D02*
X53650000Y-81650000D01*
X82100000Y-119900000D02*
X82700000Y-120500000D01*
X86500000Y-120500000D02*
X82500000Y-120500000D01*
X82100000Y-118100000D02*
X86500000Y-118100000D01*
X82500000Y-120500000D02*
X82100000Y-120500000D01*
X86500000Y-118100000D02*
X86500000Y-120500000D01*
X82100000Y-118100000D02*
X82100000Y-120500000D01*
X80450000Y-136150000D02*
X79850000Y-136750000D01*
X79850000Y-140550000D02*
X79850000Y-136550000D01*
X82250000Y-136150000D02*
X82250000Y-140550000D01*
X79850000Y-136550000D02*
X79850000Y-136150000D01*
X82250000Y-140550000D02*
X79850000Y-140550000D01*
X82250000Y-136150000D02*
X79850000Y-136150000D01*
X82100000Y-81000000D02*
X82700000Y-81600000D01*
X86500000Y-81600000D02*
X82500000Y-81600000D01*
X82100000Y-79200000D02*
X86500000Y-79200000D01*
X82500000Y-81600000D02*
X82100000Y-81600000D01*
X86500000Y-79200000D02*
X86500000Y-81600000D01*
X82100000Y-79200000D02*
X82100000Y-81600000D01*
X82100000Y-87450000D02*
X82700000Y-88050000D01*
X86500000Y-88050000D02*
X82500000Y-88050000D01*
X82100000Y-85650000D02*
X86500000Y-85650000D01*
X82500000Y-88050000D02*
X82100000Y-88050000D01*
X86500000Y-85650000D02*
X86500000Y-88050000D01*
X82100000Y-85650000D02*
X82100000Y-88050000D01*
X87150000Y-136150000D02*
X86550000Y-136750000D01*
X86550000Y-140550000D02*
X86550000Y-136550000D01*
X88950000Y-136150000D02*
X88950000Y-140550000D01*
X86550000Y-136550000D02*
X86550000Y-136150000D01*
X88950000Y-140550000D02*
X86550000Y-140550000D01*
X88950000Y-136150000D02*
X86550000Y-136150000D01*
X91600000Y-151950000D02*
X92200000Y-152550000D01*
X96000000Y-152550000D02*
X92000000Y-152550000D01*
X91600000Y-150150000D02*
X96000000Y-150150000D01*
X92000000Y-152550000D02*
X91600000Y-152550000D01*
X96000000Y-150150000D02*
X96000000Y-152550000D01*
X91600000Y-150150000D02*
X91600000Y-152550000D01*
X91600000Y-158460000D02*
X92200000Y-159060000D01*
X96000000Y-159060000D02*
X92000000Y-159060000D01*
X91600000Y-156660000D02*
X96000000Y-156660000D01*
X92000000Y-159060000D02*
X91600000Y-159060000D01*
X96000000Y-156660000D02*
X96000000Y-159060000D01*
X91600000Y-156660000D02*
X91600000Y-159060000D01*
X91600000Y-145450000D02*
X92200000Y-146050000D01*
X96000000Y-146050000D02*
X92000000Y-146050000D01*
X91600000Y-143650000D02*
X96000000Y-143650000D01*
X92000000Y-146050000D02*
X91600000Y-146050000D01*
X96000000Y-143650000D02*
X96000000Y-146050000D01*
X91600000Y-143650000D02*
X91600000Y-146050000D01*
X113750000Y-140500000D02*
X114350000Y-139900000D01*
X114350000Y-136100000D02*
X114350000Y-140100000D01*
X111950000Y-140500000D02*
X111950000Y-136100000D01*
X114350000Y-140100000D02*
X114350000Y-140500000D01*
X111950000Y-136100000D02*
X114350000Y-136100000D01*
X111950000Y-140500000D02*
X114350000Y-140500000D01*
X107100000Y-140550000D02*
X107700000Y-139950000D01*
X107700000Y-136150000D02*
X107700000Y-140150000D01*
X105300000Y-140550000D02*
X105300000Y-136150000D01*
X107700000Y-140150000D02*
X107700000Y-140550000D01*
X105300000Y-136150000D02*
X107700000Y-136150000D01*
X105300000Y-140550000D02*
X107700000Y-140550000D01*
X96000000Y-137810000D02*
X95400000Y-137210000D01*
X91600000Y-137210000D02*
X95600000Y-137210000D01*
X96000000Y-139610000D02*
X91600000Y-139610000D01*
X95600000Y-137210000D02*
X96000000Y-137210000D01*
X91600000Y-139610000D02*
X91600000Y-137210000D01*
X96000000Y-139610000D02*
X96000000Y-137210000D01*
X100400000Y-140550000D02*
X101000000Y-139950000D01*
X101000000Y-136150000D02*
X101000000Y-140150000D01*
X98600000Y-140550000D02*
X98600000Y-136150000D01*
X101000000Y-140150000D02*
X101000000Y-140550000D01*
X98600000Y-136150000D02*
X101000000Y-136150000D01*
X98600000Y-140550000D02*
X101000000Y-140550000D01*
X96000000Y-131310000D02*
X95400000Y-130710000D01*
X91600000Y-130710000D02*
X95600000Y-130710000D01*
X96000000Y-133110000D02*
X91600000Y-133110000D01*
X95600000Y-130710000D02*
X96000000Y-130710000D01*
X91600000Y-133110000D02*
X91600000Y-130710000D01*
X96000000Y-133110000D02*
X96000000Y-130710000D01*
X96000000Y-118310000D02*
X95400000Y-117710000D01*
X91600000Y-117710000D02*
X95600000Y-117710000D01*
X96000000Y-120110000D02*
X91600000Y-120110000D01*
X95600000Y-117710000D02*
X96000000Y-117710000D01*
X91600000Y-120110000D02*
X91600000Y-117710000D01*
X96000000Y-120110000D02*
X96000000Y-117710000D01*
X96000000Y-124810000D02*
X95400000Y-124210000D01*
X91600000Y-124210000D02*
X95600000Y-124210000D01*
X96000000Y-126610000D02*
X91600000Y-126610000D01*
X95600000Y-124210000D02*
X96000000Y-124210000D01*
X91600000Y-126610000D02*
X91600000Y-124210000D01*
X96000000Y-126610000D02*
X96000000Y-124210000D01*
X63150000Y-120000000D02*
X63750000Y-120600000D01*
X67550000Y-120600000D02*
X63550000Y-120600000D01*
X63150000Y-118200000D02*
X67550000Y-118200000D01*
X63550000Y-120600000D02*
X63150000Y-120600000D01*
X67550000Y-118200000D02*
X67550000Y-120600000D01*
X63150000Y-118200000D02*
X63150000Y-120600000D01*
X63150000Y-113500000D02*
X63750000Y-114100000D01*
X67550000Y-114100000D02*
X63550000Y-114100000D01*
X63150000Y-111700000D02*
X67550000Y-111700000D01*
X63550000Y-114100000D02*
X63150000Y-114100000D01*
X67550000Y-111700000D02*
X67550000Y-114100000D01*
X63150000Y-111700000D02*
X63150000Y-114100000D01*
X72650000Y-113550000D02*
X73250000Y-114150000D01*
X77050000Y-114150000D02*
X73050000Y-114150000D01*
X72650000Y-111750000D02*
X77050000Y-111750000D01*
X73050000Y-114150000D02*
X72650000Y-114150000D01*
X77050000Y-111750000D02*
X77050000Y-114150000D01*
X72650000Y-111750000D02*
X72650000Y-114150000D01*
X72650000Y-120000000D02*
X73250000Y-120600000D01*
X77050000Y-120600000D02*
X73050000Y-120600000D01*
X72650000Y-118200000D02*
X77050000Y-118200000D01*
X73050000Y-120600000D02*
X72650000Y-120600000D01*
X77050000Y-118200000D02*
X77050000Y-120600000D01*
X72650000Y-118200000D02*
X72650000Y-120600000D01*
X53650000Y-87500000D02*
X54250000Y-88100000D01*
X58050000Y-88100000D02*
X54050000Y-88100000D01*
X53650000Y-85700000D02*
X58050000Y-85700000D01*
X54050000Y-88100000D02*
X53650000Y-88100000D01*
X58050000Y-85700000D02*
X58050000Y-88100000D01*
X53650000Y-85700000D02*
X53650000Y-88100000D01*
X53650000Y-94000000D02*
X54250000Y-94600000D01*
X58050000Y-94600000D02*
X54050000Y-94600000D01*
X53650000Y-92200000D02*
X58050000Y-92200000D01*
X54050000Y-94600000D02*
X53650000Y-94600000D01*
X58050000Y-92200000D02*
X58050000Y-94600000D01*
X53650000Y-92200000D02*
X53650000Y-94600000D01*
X53650000Y-100500000D02*
X54250000Y-101100000D01*
X58050000Y-101100000D02*
X54050000Y-101100000D01*
X53650000Y-98700000D02*
X58050000Y-98700000D01*
X54050000Y-101100000D02*
X53650000Y-101100000D01*
X58050000Y-98700000D02*
X58050000Y-101100000D01*
X53650000Y-98700000D02*
X53650000Y-101100000D01*
X72650000Y-100560000D02*
X73250000Y-101160000D01*
X77050000Y-101160000D02*
X73050000Y-101160000D01*
X72650000Y-98760000D02*
X77050000Y-98760000D01*
X73050000Y-101160000D02*
X72650000Y-101160000D01*
X77050000Y-98760000D02*
X77050000Y-101160000D01*
X72650000Y-98760000D02*
X72650000Y-101160000D01*
X72650000Y-94100000D02*
X73250000Y-94700000D01*
X77050000Y-94700000D02*
X73050000Y-94700000D01*
X72650000Y-92300000D02*
X77050000Y-92300000D01*
X73050000Y-94700000D02*
X72650000Y-94700000D01*
X77050000Y-92300000D02*
X77050000Y-94700000D01*
X72650000Y-92300000D02*
X72650000Y-94700000D01*
X63150000Y-100550000D02*
X63750000Y-101150000D01*
X67550000Y-101150000D02*
X63550000Y-101150000D01*
X63150000Y-98750000D02*
X67550000Y-98750000D01*
X63550000Y-101150000D02*
X63150000Y-101150000D01*
X67550000Y-98750000D02*
X67550000Y-101150000D01*
X63150000Y-98750000D02*
X63150000Y-101150000D01*
X63150000Y-107000000D02*
X63750000Y-107600000D01*
X67550000Y-107600000D02*
X63550000Y-107600000D01*
X63150000Y-105200000D02*
X67550000Y-105200000D01*
X63550000Y-107600000D02*
X63150000Y-107600000D01*
X67550000Y-105200000D02*
X67550000Y-107600000D01*
X63150000Y-105200000D02*
X63150000Y-107600000D01*
X63150000Y-94060000D02*
X63750000Y-94660000D01*
X67550000Y-94660000D02*
X63550000Y-94660000D01*
X63150000Y-92260000D02*
X67550000Y-92260000D01*
X63550000Y-94660000D02*
X63150000Y-94660000D01*
X67550000Y-92260000D02*
X67550000Y-94660000D01*
X63150000Y-92260000D02*
X63150000Y-94660000D01*
X63150000Y-87560000D02*
X63750000Y-88160000D01*
X67550000Y-88160000D02*
X63550000Y-88160000D01*
X63150000Y-85760000D02*
X67550000Y-85760000D01*
X63550000Y-88160000D02*
X63150000Y-88160000D01*
X67550000Y-85760000D02*
X67550000Y-88160000D01*
X63150000Y-85760000D02*
X63150000Y-88160000D01*
X72650000Y-87600000D02*
X73250000Y-88200000D01*
X77050000Y-88200000D02*
X73050000Y-88200000D01*
X72650000Y-85800000D02*
X77050000Y-85800000D01*
X73050000Y-88200000D02*
X72650000Y-88200000D01*
X77050000Y-85800000D02*
X77050000Y-88200000D01*
X72650000Y-85800000D02*
X72650000Y-88200000D01*
X82100000Y-106950000D02*
X82700000Y-107550000D01*
X86500000Y-107550000D02*
X82500000Y-107550000D01*
X82100000Y-105150000D02*
X86500000Y-105150000D01*
X82500000Y-107550000D02*
X82100000Y-107550000D01*
X86500000Y-105150000D02*
X86500000Y-107550000D01*
X82100000Y-105150000D02*
X82100000Y-107550000D01*
X72650000Y-107050000D02*
X73250000Y-107650000D01*
X77050000Y-107650000D02*
X73050000Y-107650000D01*
X72650000Y-105250000D02*
X77050000Y-105250000D01*
X73050000Y-107650000D02*
X72650000Y-107650000D01*
X77050000Y-105250000D02*
X77050000Y-107650000D01*
X72650000Y-105250000D02*
X72650000Y-107650000D01*
X82100000Y-113450000D02*
X82700000Y-114050000D01*
X86500000Y-114050000D02*
X82500000Y-114050000D01*
X82100000Y-111650000D02*
X86500000Y-111650000D01*
X82500000Y-114050000D02*
X82100000Y-114050000D01*
X86500000Y-111650000D02*
X86500000Y-114050000D01*
X82100000Y-111650000D02*
X82100000Y-114050000D01*
X82100000Y-100450000D02*
X82700000Y-101050000D01*
X86500000Y-101050000D02*
X82500000Y-101050000D01*
X82100000Y-98650000D02*
X86500000Y-98650000D01*
X82500000Y-101050000D02*
X82100000Y-101050000D01*
X86500000Y-98650000D02*
X86500000Y-101050000D01*
X82100000Y-98650000D02*
X82100000Y-101050000D01*
X82100000Y-93950000D02*
X82700000Y-94550000D01*
X86500000Y-94550000D02*
X82500000Y-94550000D01*
X82100000Y-92150000D02*
X86500000Y-92150000D01*
X82500000Y-94550000D02*
X82100000Y-94550000D01*
X86500000Y-92150000D02*
X86500000Y-94550000D01*
X82100000Y-92150000D02*
X82100000Y-94550000D01*
X65200000Y-136150000D02*
X64600000Y-136750000D01*
X64600000Y-140550000D02*
X64600000Y-136550000D01*
X67000000Y-136150000D02*
X67000000Y-140550000D01*
X64600000Y-136550000D02*
X64600000Y-136150000D01*
X67000000Y-140550000D02*
X64600000Y-140550000D01*
X67000000Y-136150000D02*
X64600000Y-136150000D01*
X53650000Y-113500000D02*
X54250000Y-114100000D01*
X58050000Y-114100000D02*
X54050000Y-114100000D01*
X53650000Y-111700000D02*
X58050000Y-111700000D01*
X54050000Y-114100000D02*
X53650000Y-114100000D01*
X58050000Y-111700000D02*
X58050000Y-114100000D01*
X53650000Y-111700000D02*
X53650000Y-114100000D01*
X53650000Y-107000000D02*
X54250000Y-107600000D01*
X58050000Y-107600000D02*
X54050000Y-107600000D01*
X53650000Y-105200000D02*
X58050000Y-105200000D01*
X54050000Y-107600000D02*
X53650000Y-107600000D01*
X58050000Y-105200000D02*
X58050000Y-107600000D01*
X53650000Y-105200000D02*
X53650000Y-107600000D01*
X53650000Y-120000000D02*
X54250000Y-120600000D01*
X58050000Y-120600000D02*
X54050000Y-120600000D01*
X53650000Y-118200000D02*
X58050000Y-118200000D01*
X54050000Y-120600000D02*
X53650000Y-120600000D01*
X58050000Y-118200000D02*
X58050000Y-120600000D01*
X53650000Y-118200000D02*
X53650000Y-120600000D01*
X50800000Y-149650000D02*
X50100000Y-149650000D01*
X50100000Y-148450000D02*
X50800000Y-148450000D01*
X42125000Y-147625000D02*
X41375000Y-147625000D01*
X36875000Y-142375000D02*
X37625000Y-142375000D01*
X36875000Y-147625000D02*
X37625000Y-147625000D01*
X42125000Y-142375000D02*
X42125000Y-143125000D01*
X36875000Y-142375000D02*
X36875000Y-143125000D01*
X36875000Y-147625000D02*
X36875000Y-146875000D01*
X42125000Y-147625000D02*
X42125000Y-146875000D01*
X50100000Y-150150000D02*
X50800000Y-150150000D01*
X50800000Y-151350000D02*
X50100000Y-151350000D01*
X48600000Y-150750000D02*
X48000000Y-150150000D01*
X44200000Y-150150000D02*
X48200000Y-150150000D01*
X48600000Y-152550000D02*
X44200000Y-152550000D01*
X48200000Y-150150000D02*
X48600000Y-150150000D01*
X44200000Y-152550000D02*
X44200000Y-150150000D01*
X48600000Y-152550000D02*
X48600000Y-150150000D01*
X48600000Y-157200000D02*
X48000000Y-156600000D01*
X44200000Y-156600000D02*
X48200000Y-156600000D01*
X48600000Y-159000000D02*
X44200000Y-159000000D01*
X48200000Y-156600000D02*
X48600000Y-156600000D01*
X44200000Y-159000000D02*
X44200000Y-156600000D01*
X48600000Y-159000000D02*
X48600000Y-156600000D01*
X48550000Y-144350000D02*
X47950000Y-143750000D01*
X44150000Y-143750000D02*
X48150000Y-143750000D01*
X48550000Y-146150000D02*
X44150000Y-146150000D01*
X48150000Y-143750000D02*
X48550000Y-143750000D01*
X44150000Y-146150000D02*
X44150000Y-143750000D01*
X48550000Y-146150000D02*
X48550000Y-143750000D01*
X40250000Y-140550000D02*
X40850000Y-139950000D01*
X40850000Y-136150000D02*
X40850000Y-140150000D01*
X38450000Y-140550000D02*
X38450000Y-136150000D01*
X40850000Y-140150000D02*
X40850000Y-140550000D01*
X38450000Y-136150000D02*
X40850000Y-136150000D01*
X38450000Y-140550000D02*
X40850000Y-140550000D01*
X33850000Y-140550000D02*
X34450000Y-139950000D01*
X34450000Y-136150000D02*
X34450000Y-140150000D01*
X32050000Y-140550000D02*
X32050000Y-136150000D01*
X34450000Y-140150000D02*
X34450000Y-140550000D01*
X32050000Y-136150000D02*
X34450000Y-136150000D01*
X32050000Y-140550000D02*
X34450000Y-140550000D01*
X33980000Y-133840000D02*
X33980000Y-134540000D01*
X32780000Y-134540000D02*
X32780000Y-133840000D01*
X43066726Y-127848909D02*
X41723223Y-126505406D01*
X42288909Y-128626726D02*
X40945406Y-127283223D01*
X42041421Y-127601421D02*
X41723223Y-127283223D01*
X41900000Y-127813553D02*
X42253553Y-127460000D01*
X42076777Y-127636777D02*
X41723223Y-127636777D01*
X41723223Y-127636777D02*
X42076777Y-127283223D01*
X42076777Y-127283223D02*
X42076777Y-127636777D01*
X27450000Y-140550000D02*
X28050000Y-139950000D01*
X28050000Y-136150000D02*
X28050000Y-140150000D01*
X25650000Y-140550000D02*
X25650000Y-136150000D01*
X28050000Y-140150000D02*
X28050000Y-140550000D01*
X25650000Y-136150000D02*
X28050000Y-136150000D01*
X25650000Y-140550000D02*
X28050000Y-140550000D01*
X34600000Y-134540000D02*
X34600000Y-133840000D01*
X35800000Y-133840000D02*
X35800000Y-134540000D01*
X59210000Y-134420000D02*
X59210000Y-133720000D01*
X60410000Y-133720000D02*
X60410000Y-134420000D01*
X57310000Y-134480000D02*
X57310000Y-133780000D01*
X58510000Y-133780000D02*
X58510000Y-134480000D01*
X52150000Y-136150000D02*
X51550000Y-136750000D01*
X51550000Y-140550000D02*
X51550000Y-136550000D01*
X53950000Y-136150000D02*
X53950000Y-140550000D01*
X51550000Y-136550000D02*
X51550000Y-136150000D01*
X53950000Y-140550000D02*
X51550000Y-140550000D01*
X53950000Y-136150000D02*
X51550000Y-136150000D01*
X58750000Y-136150000D02*
X58150000Y-136750000D01*
X58150000Y-140550000D02*
X58150000Y-136550000D01*
X60550000Y-136150000D02*
X60550000Y-140550000D01*
X58150000Y-136550000D02*
X58150000Y-136150000D01*
X60550000Y-140550000D02*
X58150000Y-140550000D01*
X60550000Y-136150000D02*
X58150000Y-136150000D01*
X48544000Y-132324000D02*
X48544000Y-135372000D01*
X48544000Y-135372000D02*
X55656000Y-135372000D01*
X55656000Y-135372000D02*
X55656000Y-132324000D01*
X48544000Y-129276000D02*
X48544000Y-128514000D01*
X48544000Y-128514000D02*
X50068000Y-126228000D01*
X50068000Y-126228000D02*
X54132000Y-126228000D01*
X54132000Y-126228000D02*
X55656000Y-128514000D01*
X55656000Y-128514000D02*
X55656000Y-129276000D01*
X44150000Y-132450000D02*
X44750000Y-133050000D01*
X48550000Y-133050000D02*
X44550000Y-133050000D01*
X44150000Y-130650000D02*
X48550000Y-130650000D01*
X44550000Y-133050000D02*
X44150000Y-133050000D01*
X48550000Y-130650000D02*
X48550000Y-133050000D01*
X44150000Y-130650000D02*
X44150000Y-133050000D01*
X44150000Y-119500000D02*
X44750000Y-120100000D01*
X48550000Y-120100000D02*
X44550000Y-120100000D01*
X44150000Y-117700000D02*
X48550000Y-117700000D01*
X44550000Y-120100000D02*
X44150000Y-120100000D01*
X48550000Y-117700000D02*
X48550000Y-120100000D01*
X44150000Y-117700000D02*
X44150000Y-120100000D01*
X44150000Y-125950000D02*
X44750000Y-126550000D01*
X48550000Y-126550000D02*
X44550000Y-126550000D01*
X44150000Y-124150000D02*
X48550000Y-124150000D01*
X44550000Y-126550000D02*
X44150000Y-126550000D01*
X48550000Y-124150000D02*
X48550000Y-126550000D01*
X44150000Y-124150000D02*
X44150000Y-126550000D01*
D10*
X44807969Y-142012311D02*
X49846105Y-136974175D01*
X47583363Y-134711433D02*
X42527550Y-139767247D01*
X49846105Y-136373134D02*
X48184404Y-134711433D01*
X44206928Y-142047666D02*
X42527550Y-140368287D01*
X44489771Y-141729468D02*
X49545584Y-136673655D01*
X49545584Y-136673655D02*
X47883884Y-135011954D01*
X47883884Y-135011954D02*
X42828070Y-140067767D01*
X42828070Y-140067767D02*
X44489771Y-141729468D01*
D12*
X40350060Y-130860000D02*
G75*
G03X40350060Y-130860000I-1750060J0D01*
G01*
X39660886Y-128031799D02*
X41428201Y-129799114D01*
X35559893Y-131354522D02*
X39094522Y-127819893D01*
X37539114Y-133688201D02*
X35771799Y-131920886D01*
X41640107Y-130365478D02*
X38105478Y-133900107D01*
X55550060Y-145960000D02*
G75*
G03X55550060Y-145960000I-1750060J0D01*
G01*
X52739114Y-148788201D02*
X50971799Y-147020886D01*
X56840107Y-145465478D02*
X53305478Y-149000107D01*
X54860886Y-143131799D02*
X56628201Y-144899114D01*
X50759893Y-146454522D02*
X54294522Y-142919893D01*
D11*
X74483333Y-140626190D02*
X74483333Y-140245238D01*
X74711905Y-140702381D02*
X73911905Y-140435714D01*
X74711905Y-140169047D01*
X74711905Y-139902381D02*
X73911905Y-139902381D01*
X73911905Y-139597619D01*
X73950000Y-139521428D01*
X73988095Y-139483333D01*
X74064286Y-139445238D01*
X74178571Y-139445238D01*
X74254762Y-139483333D01*
X74292857Y-139521428D01*
X74330952Y-139597619D01*
X74330952Y-139902381D01*
X74483333Y-139140476D02*
X74483333Y-138759524D01*
X74711905Y-139216667D02*
X73911905Y-138950000D01*
X74711905Y-138683333D01*
X74711905Y-137997619D02*
X74711905Y-138454762D01*
X74711905Y-138226191D02*
X73911905Y-138226191D01*
X74026190Y-138302381D01*
X74102381Y-138378572D01*
X74140476Y-138454762D01*
X73911905Y-137502381D02*
X73911905Y-137426190D01*
X73950000Y-137350000D01*
X73988095Y-137311905D01*
X74064286Y-137273809D01*
X74216667Y-137235714D01*
X74407143Y-137235714D01*
X74559524Y-137273809D01*
X74635714Y-137311905D01*
X74673810Y-137350000D01*
X74711905Y-137426190D01*
X74711905Y-137502381D01*
X74673810Y-137578571D01*
X74635714Y-137616667D01*
X74559524Y-137654762D01*
X74407143Y-137692857D01*
X74216667Y-137692857D01*
X74064286Y-137654762D01*
X73988095Y-137616667D01*
X73950000Y-137578571D01*
X73911905Y-137502381D01*
X73988095Y-136930952D02*
X73950000Y-136892857D01*
X73911905Y-136816666D01*
X73911905Y-136626190D01*
X73950000Y-136550000D01*
X73988095Y-136511904D01*
X74064286Y-136473809D01*
X74140476Y-136473809D01*
X74254762Y-136511904D01*
X74711905Y-136969047D01*
X74711905Y-136473809D01*
X72973810Y-80593333D02*
X73354762Y-80593333D01*
X72897619Y-80821905D02*
X73164286Y-80021905D01*
X73430953Y-80821905D01*
X73697619Y-80821905D02*
X73697619Y-80021905D01*
X74002381Y-80021905D01*
X74078572Y-80060000D01*
X74116667Y-80098095D01*
X74154762Y-80174286D01*
X74154762Y-80288571D01*
X74116667Y-80364762D01*
X74078572Y-80402857D01*
X74002381Y-80440952D01*
X73697619Y-80440952D01*
X74459524Y-80593333D02*
X74840476Y-80593333D01*
X74383333Y-80821905D02*
X74650000Y-80021905D01*
X74916667Y-80821905D01*
X75602381Y-80821905D02*
X75145238Y-80821905D01*
X75373809Y-80821905D02*
X75373809Y-80021905D01*
X75297619Y-80136190D01*
X75221428Y-80212381D01*
X75145238Y-80250476D01*
X76097619Y-80021905D02*
X76173810Y-80021905D01*
X76250000Y-80060000D01*
X76288095Y-80098095D01*
X76326191Y-80174286D01*
X76364286Y-80326667D01*
X76364286Y-80517143D01*
X76326191Y-80669524D01*
X76288095Y-80745714D01*
X76250000Y-80783810D01*
X76173810Y-80821905D01*
X76097619Y-80821905D01*
X76021429Y-80783810D01*
X75983333Y-80745714D01*
X75945238Y-80669524D01*
X75907143Y-80517143D01*
X75907143Y-80326667D01*
X75945238Y-80174286D01*
X75983333Y-80098095D01*
X76021429Y-80060000D01*
X76097619Y-80021905D01*
X76669048Y-80098095D02*
X76707143Y-80060000D01*
X76783334Y-80021905D01*
X76973810Y-80021905D01*
X77050000Y-80060000D01*
X77088096Y-80098095D01*
X77126191Y-80174286D01*
X77126191Y-80250476D01*
X77088096Y-80364762D01*
X76630953Y-80821905D01*
X77126191Y-80821905D01*
X63473810Y-80583333D02*
X63854762Y-80583333D01*
X63397619Y-80811905D02*
X63664286Y-80011905D01*
X63930953Y-80811905D01*
X64197619Y-80811905D02*
X64197619Y-80011905D01*
X64502381Y-80011905D01*
X64578572Y-80050000D01*
X64616667Y-80088095D01*
X64654762Y-80164286D01*
X64654762Y-80278571D01*
X64616667Y-80354762D01*
X64578572Y-80392857D01*
X64502381Y-80430952D01*
X64197619Y-80430952D01*
X64959524Y-80583333D02*
X65340476Y-80583333D01*
X64883333Y-80811905D02*
X65150000Y-80011905D01*
X65416667Y-80811905D01*
X66102381Y-80811905D02*
X65645238Y-80811905D01*
X65873809Y-80811905D02*
X65873809Y-80011905D01*
X65797619Y-80126190D01*
X65721428Y-80202381D01*
X65645238Y-80240476D01*
X66597619Y-80011905D02*
X66673810Y-80011905D01*
X66750000Y-80050000D01*
X66788095Y-80088095D01*
X66826191Y-80164286D01*
X66864286Y-80316667D01*
X66864286Y-80507143D01*
X66826191Y-80659524D01*
X66788095Y-80735714D01*
X66750000Y-80773810D01*
X66673810Y-80811905D01*
X66597619Y-80811905D01*
X66521429Y-80773810D01*
X66483333Y-80735714D01*
X66445238Y-80659524D01*
X66407143Y-80507143D01*
X66407143Y-80316667D01*
X66445238Y-80164286D01*
X66483333Y-80088095D01*
X66521429Y-80050000D01*
X66597619Y-80011905D01*
X67169048Y-80088095D02*
X67207143Y-80050000D01*
X67283334Y-80011905D01*
X67473810Y-80011905D01*
X67550000Y-80050000D01*
X67588096Y-80088095D01*
X67626191Y-80164286D01*
X67626191Y-80240476D01*
X67588096Y-80354762D01*
X67130953Y-80811905D01*
X67626191Y-80811905D01*
X53973810Y-80583333D02*
X54354762Y-80583333D01*
X53897619Y-80811905D02*
X54164286Y-80011905D01*
X54430953Y-80811905D01*
X54697619Y-80811905D02*
X54697619Y-80011905D01*
X55002381Y-80011905D01*
X55078572Y-80050000D01*
X55116667Y-80088095D01*
X55154762Y-80164286D01*
X55154762Y-80278571D01*
X55116667Y-80354762D01*
X55078572Y-80392857D01*
X55002381Y-80430952D01*
X54697619Y-80430952D01*
X55459524Y-80583333D02*
X55840476Y-80583333D01*
X55383333Y-80811905D02*
X55650000Y-80011905D01*
X55916667Y-80811905D01*
X56602381Y-80811905D02*
X56145238Y-80811905D01*
X56373809Y-80811905D02*
X56373809Y-80011905D01*
X56297619Y-80126190D01*
X56221428Y-80202381D01*
X56145238Y-80240476D01*
X57097619Y-80011905D02*
X57173810Y-80011905D01*
X57250000Y-80050000D01*
X57288095Y-80088095D01*
X57326191Y-80164286D01*
X57364286Y-80316667D01*
X57364286Y-80507143D01*
X57326191Y-80659524D01*
X57288095Y-80735714D01*
X57250000Y-80773810D01*
X57173810Y-80811905D01*
X57097619Y-80811905D01*
X57021429Y-80773810D01*
X56983333Y-80735714D01*
X56945238Y-80659524D01*
X56907143Y-80507143D01*
X56907143Y-80316667D01*
X56945238Y-80164286D01*
X56983333Y-80088095D01*
X57021429Y-80050000D01*
X57097619Y-80011905D01*
X57669048Y-80088095D02*
X57707143Y-80050000D01*
X57783334Y-80011905D01*
X57973810Y-80011905D01*
X58050000Y-80050000D01*
X58088096Y-80088095D01*
X58126191Y-80164286D01*
X58126191Y-80240476D01*
X58088096Y-80354762D01*
X57630953Y-80811905D01*
X58126191Y-80811905D01*
X82423810Y-119433333D02*
X82804762Y-119433333D01*
X82347619Y-119661905D02*
X82614286Y-118861905D01*
X82880953Y-119661905D01*
X83147619Y-119661905D02*
X83147619Y-118861905D01*
X83452381Y-118861905D01*
X83528572Y-118900000D01*
X83566667Y-118938095D01*
X83604762Y-119014286D01*
X83604762Y-119128571D01*
X83566667Y-119204762D01*
X83528572Y-119242857D01*
X83452381Y-119280952D01*
X83147619Y-119280952D01*
X83909524Y-119433333D02*
X84290476Y-119433333D01*
X83833333Y-119661905D02*
X84100000Y-118861905D01*
X84366667Y-119661905D01*
X85052381Y-119661905D02*
X84595238Y-119661905D01*
X84823809Y-119661905D02*
X84823809Y-118861905D01*
X84747619Y-118976190D01*
X84671428Y-119052381D01*
X84595238Y-119090476D01*
X85547619Y-118861905D02*
X85623810Y-118861905D01*
X85700000Y-118900000D01*
X85738095Y-118938095D01*
X85776191Y-119014286D01*
X85814286Y-119166667D01*
X85814286Y-119357143D01*
X85776191Y-119509524D01*
X85738095Y-119585714D01*
X85700000Y-119623810D01*
X85623810Y-119661905D01*
X85547619Y-119661905D01*
X85471429Y-119623810D01*
X85433333Y-119585714D01*
X85395238Y-119509524D01*
X85357143Y-119357143D01*
X85357143Y-119166667D01*
X85395238Y-119014286D01*
X85433333Y-118938095D01*
X85471429Y-118900000D01*
X85547619Y-118861905D01*
X86119048Y-118938095D02*
X86157143Y-118900000D01*
X86233334Y-118861905D01*
X86423810Y-118861905D01*
X86500000Y-118900000D01*
X86538096Y-118938095D01*
X86576191Y-119014286D01*
X86576191Y-119090476D01*
X86538096Y-119204762D01*
X86080953Y-119661905D01*
X86576191Y-119661905D01*
X81183333Y-140626190D02*
X81183333Y-140245238D01*
X81411905Y-140702381D02*
X80611905Y-140435714D01*
X81411905Y-140169047D01*
X81411905Y-139902381D02*
X80611905Y-139902381D01*
X80611905Y-139597619D01*
X80650000Y-139521428D01*
X80688095Y-139483333D01*
X80764286Y-139445238D01*
X80878571Y-139445238D01*
X80954762Y-139483333D01*
X80992857Y-139521428D01*
X81030952Y-139597619D01*
X81030952Y-139902381D01*
X81183333Y-139140476D02*
X81183333Y-138759524D01*
X81411905Y-139216667D02*
X80611905Y-138950000D01*
X81411905Y-138683333D01*
X81411905Y-137997619D02*
X81411905Y-138454762D01*
X81411905Y-138226191D02*
X80611905Y-138226191D01*
X80726190Y-138302381D01*
X80802381Y-138378572D01*
X80840476Y-138454762D01*
X80611905Y-137502381D02*
X80611905Y-137426190D01*
X80650000Y-137350000D01*
X80688095Y-137311905D01*
X80764286Y-137273809D01*
X80916667Y-137235714D01*
X81107143Y-137235714D01*
X81259524Y-137273809D01*
X81335714Y-137311905D01*
X81373810Y-137350000D01*
X81411905Y-137426190D01*
X81411905Y-137502381D01*
X81373810Y-137578571D01*
X81335714Y-137616667D01*
X81259524Y-137654762D01*
X81107143Y-137692857D01*
X80916667Y-137692857D01*
X80764286Y-137654762D01*
X80688095Y-137616667D01*
X80650000Y-137578571D01*
X80611905Y-137502381D01*
X80688095Y-136930952D02*
X80650000Y-136892857D01*
X80611905Y-136816666D01*
X80611905Y-136626190D01*
X80650000Y-136550000D01*
X80688095Y-136511904D01*
X80764286Y-136473809D01*
X80840476Y-136473809D01*
X80954762Y-136511904D01*
X81411905Y-136969047D01*
X81411905Y-136473809D01*
X82423810Y-80533333D02*
X82804762Y-80533333D01*
X82347619Y-80761905D02*
X82614286Y-79961905D01*
X82880953Y-80761905D01*
X83147619Y-80761905D02*
X83147619Y-79961905D01*
X83452381Y-79961905D01*
X83528572Y-80000000D01*
X83566667Y-80038095D01*
X83604762Y-80114286D01*
X83604762Y-80228571D01*
X83566667Y-80304762D01*
X83528572Y-80342857D01*
X83452381Y-80380952D01*
X83147619Y-80380952D01*
X83909524Y-80533333D02*
X84290476Y-80533333D01*
X83833333Y-80761905D02*
X84100000Y-79961905D01*
X84366667Y-80761905D01*
X85052381Y-80761905D02*
X84595238Y-80761905D01*
X84823809Y-80761905D02*
X84823809Y-79961905D01*
X84747619Y-80076190D01*
X84671428Y-80152381D01*
X84595238Y-80190476D01*
X85547619Y-79961905D02*
X85623810Y-79961905D01*
X85700000Y-80000000D01*
X85738095Y-80038095D01*
X85776191Y-80114286D01*
X85814286Y-80266667D01*
X85814286Y-80457143D01*
X85776191Y-80609524D01*
X85738095Y-80685714D01*
X85700000Y-80723810D01*
X85623810Y-80761905D01*
X85547619Y-80761905D01*
X85471429Y-80723810D01*
X85433333Y-80685714D01*
X85395238Y-80609524D01*
X85357143Y-80457143D01*
X85357143Y-80266667D01*
X85395238Y-80114286D01*
X85433333Y-80038095D01*
X85471429Y-80000000D01*
X85547619Y-79961905D01*
X86119048Y-80038095D02*
X86157143Y-80000000D01*
X86233334Y-79961905D01*
X86423810Y-79961905D01*
X86500000Y-80000000D01*
X86538096Y-80038095D01*
X86576191Y-80114286D01*
X86576191Y-80190476D01*
X86538096Y-80304762D01*
X86080953Y-80761905D01*
X86576191Y-80761905D01*
X82423810Y-86983333D02*
X82804762Y-86983333D01*
X82347619Y-87211905D02*
X82614286Y-86411905D01*
X82880953Y-87211905D01*
X83147619Y-87211905D02*
X83147619Y-86411905D01*
X83452381Y-86411905D01*
X83528572Y-86450000D01*
X83566667Y-86488095D01*
X83604762Y-86564286D01*
X83604762Y-86678571D01*
X83566667Y-86754762D01*
X83528572Y-86792857D01*
X83452381Y-86830952D01*
X83147619Y-86830952D01*
X83909524Y-86983333D02*
X84290476Y-86983333D01*
X83833333Y-87211905D02*
X84100000Y-86411905D01*
X84366667Y-87211905D01*
X85052381Y-87211905D02*
X84595238Y-87211905D01*
X84823809Y-87211905D02*
X84823809Y-86411905D01*
X84747619Y-86526190D01*
X84671428Y-86602381D01*
X84595238Y-86640476D01*
X85547619Y-86411905D02*
X85623810Y-86411905D01*
X85700000Y-86450000D01*
X85738095Y-86488095D01*
X85776191Y-86564286D01*
X85814286Y-86716667D01*
X85814286Y-86907143D01*
X85776191Y-87059524D01*
X85738095Y-87135714D01*
X85700000Y-87173810D01*
X85623810Y-87211905D01*
X85547619Y-87211905D01*
X85471429Y-87173810D01*
X85433333Y-87135714D01*
X85395238Y-87059524D01*
X85357143Y-86907143D01*
X85357143Y-86716667D01*
X85395238Y-86564286D01*
X85433333Y-86488095D01*
X85471429Y-86450000D01*
X85547619Y-86411905D01*
X86119048Y-86488095D02*
X86157143Y-86450000D01*
X86233334Y-86411905D01*
X86423810Y-86411905D01*
X86500000Y-86450000D01*
X86538096Y-86488095D01*
X86576191Y-86564286D01*
X86576191Y-86640476D01*
X86538096Y-86754762D01*
X86080953Y-87211905D01*
X86576191Y-87211905D01*
X87883333Y-140626190D02*
X87883333Y-140245238D01*
X88111905Y-140702381D02*
X87311905Y-140435714D01*
X88111905Y-140169047D01*
X88111905Y-139902381D02*
X87311905Y-139902381D01*
X87311905Y-139597619D01*
X87350000Y-139521428D01*
X87388095Y-139483333D01*
X87464286Y-139445238D01*
X87578571Y-139445238D01*
X87654762Y-139483333D01*
X87692857Y-139521428D01*
X87730952Y-139597619D01*
X87730952Y-139902381D01*
X87883333Y-139140476D02*
X87883333Y-138759524D01*
X88111905Y-139216667D02*
X87311905Y-138950000D01*
X88111905Y-138683333D01*
X88111905Y-137997619D02*
X88111905Y-138454762D01*
X88111905Y-138226191D02*
X87311905Y-138226191D01*
X87426190Y-138302381D01*
X87502381Y-138378572D01*
X87540476Y-138454762D01*
X87311905Y-137502381D02*
X87311905Y-137426190D01*
X87350000Y-137350000D01*
X87388095Y-137311905D01*
X87464286Y-137273809D01*
X87616667Y-137235714D01*
X87807143Y-137235714D01*
X87959524Y-137273809D01*
X88035714Y-137311905D01*
X88073810Y-137350000D01*
X88111905Y-137426190D01*
X88111905Y-137502381D01*
X88073810Y-137578571D01*
X88035714Y-137616667D01*
X87959524Y-137654762D01*
X87807143Y-137692857D01*
X87616667Y-137692857D01*
X87464286Y-137654762D01*
X87388095Y-137616667D01*
X87350000Y-137578571D01*
X87311905Y-137502381D01*
X87388095Y-136930952D02*
X87350000Y-136892857D01*
X87311905Y-136816666D01*
X87311905Y-136626190D01*
X87350000Y-136550000D01*
X87388095Y-136511904D01*
X87464286Y-136473809D01*
X87540476Y-136473809D01*
X87654762Y-136511904D01*
X88111905Y-136969047D01*
X88111905Y-136473809D01*
X91923810Y-151483333D02*
X92304762Y-151483333D01*
X91847619Y-151711905D02*
X92114286Y-150911905D01*
X92380953Y-151711905D01*
X92647619Y-151711905D02*
X92647619Y-150911905D01*
X92952381Y-150911905D01*
X93028572Y-150950000D01*
X93066667Y-150988095D01*
X93104762Y-151064286D01*
X93104762Y-151178571D01*
X93066667Y-151254762D01*
X93028572Y-151292857D01*
X92952381Y-151330952D01*
X92647619Y-151330952D01*
X93409524Y-151483333D02*
X93790476Y-151483333D01*
X93333333Y-151711905D02*
X93600000Y-150911905D01*
X93866667Y-151711905D01*
X94552381Y-151711905D02*
X94095238Y-151711905D01*
X94323809Y-151711905D02*
X94323809Y-150911905D01*
X94247619Y-151026190D01*
X94171428Y-151102381D01*
X94095238Y-151140476D01*
X95047619Y-150911905D02*
X95123810Y-150911905D01*
X95200000Y-150950000D01*
X95238095Y-150988095D01*
X95276191Y-151064286D01*
X95314286Y-151216667D01*
X95314286Y-151407143D01*
X95276191Y-151559524D01*
X95238095Y-151635714D01*
X95200000Y-151673810D01*
X95123810Y-151711905D01*
X95047619Y-151711905D01*
X94971429Y-151673810D01*
X94933333Y-151635714D01*
X94895238Y-151559524D01*
X94857143Y-151407143D01*
X94857143Y-151216667D01*
X94895238Y-151064286D01*
X94933333Y-150988095D01*
X94971429Y-150950000D01*
X95047619Y-150911905D01*
X95619048Y-150988095D02*
X95657143Y-150950000D01*
X95733334Y-150911905D01*
X95923810Y-150911905D01*
X96000000Y-150950000D01*
X96038096Y-150988095D01*
X96076191Y-151064286D01*
X96076191Y-151140476D01*
X96038096Y-151254762D01*
X95580953Y-151711905D01*
X96076191Y-151711905D01*
X91923810Y-157993333D02*
X92304762Y-157993333D01*
X91847619Y-158221905D02*
X92114286Y-157421905D01*
X92380953Y-158221905D01*
X92647619Y-158221905D02*
X92647619Y-157421905D01*
X92952381Y-157421905D01*
X93028572Y-157460000D01*
X93066667Y-157498095D01*
X93104762Y-157574286D01*
X93104762Y-157688571D01*
X93066667Y-157764762D01*
X93028572Y-157802857D01*
X92952381Y-157840952D01*
X92647619Y-157840952D01*
X93409524Y-157993333D02*
X93790476Y-157993333D01*
X93333333Y-158221905D02*
X93600000Y-157421905D01*
X93866667Y-158221905D01*
X94552381Y-158221905D02*
X94095238Y-158221905D01*
X94323809Y-158221905D02*
X94323809Y-157421905D01*
X94247619Y-157536190D01*
X94171428Y-157612381D01*
X94095238Y-157650476D01*
X95047619Y-157421905D02*
X95123810Y-157421905D01*
X95200000Y-157460000D01*
X95238095Y-157498095D01*
X95276191Y-157574286D01*
X95314286Y-157726667D01*
X95314286Y-157917143D01*
X95276191Y-158069524D01*
X95238095Y-158145714D01*
X95200000Y-158183810D01*
X95123810Y-158221905D01*
X95047619Y-158221905D01*
X94971429Y-158183810D01*
X94933333Y-158145714D01*
X94895238Y-158069524D01*
X94857143Y-157917143D01*
X94857143Y-157726667D01*
X94895238Y-157574286D01*
X94933333Y-157498095D01*
X94971429Y-157460000D01*
X95047619Y-157421905D01*
X95619048Y-157498095D02*
X95657143Y-157460000D01*
X95733334Y-157421905D01*
X95923810Y-157421905D01*
X96000000Y-157460000D01*
X96038096Y-157498095D01*
X96076191Y-157574286D01*
X96076191Y-157650476D01*
X96038096Y-157764762D01*
X95580953Y-158221905D01*
X96076191Y-158221905D01*
X91923810Y-144983333D02*
X92304762Y-144983333D01*
X91847619Y-145211905D02*
X92114286Y-144411905D01*
X92380953Y-145211905D01*
X92647619Y-145211905D02*
X92647619Y-144411905D01*
X92952381Y-144411905D01*
X93028572Y-144450000D01*
X93066667Y-144488095D01*
X93104762Y-144564286D01*
X93104762Y-144678571D01*
X93066667Y-144754762D01*
X93028572Y-144792857D01*
X92952381Y-144830952D01*
X92647619Y-144830952D01*
X93409524Y-144983333D02*
X93790476Y-144983333D01*
X93333333Y-145211905D02*
X93600000Y-144411905D01*
X93866667Y-145211905D01*
X94552381Y-145211905D02*
X94095238Y-145211905D01*
X94323809Y-145211905D02*
X94323809Y-144411905D01*
X94247619Y-144526190D01*
X94171428Y-144602381D01*
X94095238Y-144640476D01*
X95047619Y-144411905D02*
X95123810Y-144411905D01*
X95200000Y-144450000D01*
X95238095Y-144488095D01*
X95276191Y-144564286D01*
X95314286Y-144716667D01*
X95314286Y-144907143D01*
X95276191Y-145059524D01*
X95238095Y-145135714D01*
X95200000Y-145173810D01*
X95123810Y-145211905D01*
X95047619Y-145211905D01*
X94971429Y-145173810D01*
X94933333Y-145135714D01*
X94895238Y-145059524D01*
X94857143Y-144907143D01*
X94857143Y-144716667D01*
X94895238Y-144564286D01*
X94933333Y-144488095D01*
X94971429Y-144450000D01*
X95047619Y-144411905D01*
X95619048Y-144488095D02*
X95657143Y-144450000D01*
X95733334Y-144411905D01*
X95923810Y-144411905D01*
X96000000Y-144450000D01*
X96038096Y-144488095D01*
X96076191Y-144564286D01*
X96076191Y-144640476D01*
X96038096Y-144754762D01*
X95580953Y-145211905D01*
X96076191Y-145211905D01*
X113283333Y-140176190D02*
X113283333Y-139795238D01*
X113511905Y-140252381D02*
X112711905Y-139985714D01*
X113511905Y-139719047D01*
X113511905Y-139452381D02*
X112711905Y-139452381D01*
X112711905Y-139147619D01*
X112750000Y-139071428D01*
X112788095Y-139033333D01*
X112864286Y-138995238D01*
X112978571Y-138995238D01*
X113054762Y-139033333D01*
X113092857Y-139071428D01*
X113130952Y-139147619D01*
X113130952Y-139452381D01*
X113283333Y-138690476D02*
X113283333Y-138309524D01*
X113511905Y-138766667D02*
X112711905Y-138500000D01*
X113511905Y-138233333D01*
X113511905Y-137547619D02*
X113511905Y-138004762D01*
X113511905Y-137776191D02*
X112711905Y-137776191D01*
X112826190Y-137852381D01*
X112902381Y-137928572D01*
X112940476Y-138004762D01*
X112711905Y-137052381D02*
X112711905Y-136976190D01*
X112750000Y-136900000D01*
X112788095Y-136861905D01*
X112864286Y-136823809D01*
X113016667Y-136785714D01*
X113207143Y-136785714D01*
X113359524Y-136823809D01*
X113435714Y-136861905D01*
X113473810Y-136900000D01*
X113511905Y-136976190D01*
X113511905Y-137052381D01*
X113473810Y-137128571D01*
X113435714Y-137166667D01*
X113359524Y-137204762D01*
X113207143Y-137242857D01*
X113016667Y-137242857D01*
X112864286Y-137204762D01*
X112788095Y-137166667D01*
X112750000Y-137128571D01*
X112711905Y-137052381D01*
X112788095Y-136480952D02*
X112750000Y-136442857D01*
X112711905Y-136366666D01*
X112711905Y-136176190D01*
X112750000Y-136100000D01*
X112788095Y-136061904D01*
X112864286Y-136023809D01*
X112940476Y-136023809D01*
X113054762Y-136061904D01*
X113511905Y-136519047D01*
X113511905Y-136023809D01*
X106633333Y-140226190D02*
X106633333Y-139845238D01*
X106861905Y-140302381D02*
X106061905Y-140035714D01*
X106861905Y-139769047D01*
X106861905Y-139502381D02*
X106061905Y-139502381D01*
X106061905Y-139197619D01*
X106100000Y-139121428D01*
X106138095Y-139083333D01*
X106214286Y-139045238D01*
X106328571Y-139045238D01*
X106404762Y-139083333D01*
X106442857Y-139121428D01*
X106480952Y-139197619D01*
X106480952Y-139502381D01*
X106633333Y-138740476D02*
X106633333Y-138359524D01*
X106861905Y-138816667D02*
X106061905Y-138550000D01*
X106861905Y-138283333D01*
X106861905Y-137597619D02*
X106861905Y-138054762D01*
X106861905Y-137826191D02*
X106061905Y-137826191D01*
X106176190Y-137902381D01*
X106252381Y-137978572D01*
X106290476Y-138054762D01*
X106061905Y-137102381D02*
X106061905Y-137026190D01*
X106100000Y-136950000D01*
X106138095Y-136911905D01*
X106214286Y-136873809D01*
X106366667Y-136835714D01*
X106557143Y-136835714D01*
X106709524Y-136873809D01*
X106785714Y-136911905D01*
X106823810Y-136950000D01*
X106861905Y-137026190D01*
X106861905Y-137102381D01*
X106823810Y-137178571D01*
X106785714Y-137216667D01*
X106709524Y-137254762D01*
X106557143Y-137292857D01*
X106366667Y-137292857D01*
X106214286Y-137254762D01*
X106138095Y-137216667D01*
X106100000Y-137178571D01*
X106061905Y-137102381D01*
X106138095Y-136530952D02*
X106100000Y-136492857D01*
X106061905Y-136416666D01*
X106061905Y-136226190D01*
X106100000Y-136150000D01*
X106138095Y-136111904D01*
X106214286Y-136073809D01*
X106290476Y-136073809D01*
X106404762Y-136111904D01*
X106861905Y-136569047D01*
X106861905Y-136073809D01*
X91523810Y-138543333D02*
X91904762Y-138543333D01*
X91447619Y-138771905D02*
X91714286Y-137971905D01*
X91980953Y-138771905D01*
X92247619Y-138771905D02*
X92247619Y-137971905D01*
X92552381Y-137971905D01*
X92628572Y-138010000D01*
X92666667Y-138048095D01*
X92704762Y-138124286D01*
X92704762Y-138238571D01*
X92666667Y-138314762D01*
X92628572Y-138352857D01*
X92552381Y-138390952D01*
X92247619Y-138390952D01*
X93009524Y-138543333D02*
X93390476Y-138543333D01*
X92933333Y-138771905D02*
X93200000Y-137971905D01*
X93466667Y-138771905D01*
X94152381Y-138771905D02*
X93695238Y-138771905D01*
X93923809Y-138771905D02*
X93923809Y-137971905D01*
X93847619Y-138086190D01*
X93771428Y-138162381D01*
X93695238Y-138200476D01*
X94647619Y-137971905D02*
X94723810Y-137971905D01*
X94800000Y-138010000D01*
X94838095Y-138048095D01*
X94876191Y-138124286D01*
X94914286Y-138276667D01*
X94914286Y-138467143D01*
X94876191Y-138619524D01*
X94838095Y-138695714D01*
X94800000Y-138733810D01*
X94723810Y-138771905D01*
X94647619Y-138771905D01*
X94571429Y-138733810D01*
X94533333Y-138695714D01*
X94495238Y-138619524D01*
X94457143Y-138467143D01*
X94457143Y-138276667D01*
X94495238Y-138124286D01*
X94533333Y-138048095D01*
X94571429Y-138010000D01*
X94647619Y-137971905D01*
X95219048Y-138048095D02*
X95257143Y-138010000D01*
X95333334Y-137971905D01*
X95523810Y-137971905D01*
X95600000Y-138010000D01*
X95638096Y-138048095D01*
X95676191Y-138124286D01*
X95676191Y-138200476D01*
X95638096Y-138314762D01*
X95180953Y-138771905D01*
X95676191Y-138771905D01*
X99933333Y-140226190D02*
X99933333Y-139845238D01*
X100161905Y-140302381D02*
X99361905Y-140035714D01*
X100161905Y-139769047D01*
X100161905Y-139502381D02*
X99361905Y-139502381D01*
X99361905Y-139197619D01*
X99400000Y-139121428D01*
X99438095Y-139083333D01*
X99514286Y-139045238D01*
X99628571Y-139045238D01*
X99704762Y-139083333D01*
X99742857Y-139121428D01*
X99780952Y-139197619D01*
X99780952Y-139502381D01*
X99933333Y-138740476D02*
X99933333Y-138359524D01*
X100161905Y-138816667D02*
X99361905Y-138550000D01*
X100161905Y-138283333D01*
X100161905Y-137597619D02*
X100161905Y-138054762D01*
X100161905Y-137826191D02*
X99361905Y-137826191D01*
X99476190Y-137902381D01*
X99552381Y-137978572D01*
X99590476Y-138054762D01*
X99361905Y-137102381D02*
X99361905Y-137026190D01*
X99400000Y-136950000D01*
X99438095Y-136911905D01*
X99514286Y-136873809D01*
X99666667Y-136835714D01*
X99857143Y-136835714D01*
X100009524Y-136873809D01*
X100085714Y-136911905D01*
X100123810Y-136950000D01*
X100161905Y-137026190D01*
X100161905Y-137102381D01*
X100123810Y-137178571D01*
X100085714Y-137216667D01*
X100009524Y-137254762D01*
X99857143Y-137292857D01*
X99666667Y-137292857D01*
X99514286Y-137254762D01*
X99438095Y-137216667D01*
X99400000Y-137178571D01*
X99361905Y-137102381D01*
X99438095Y-136530952D02*
X99400000Y-136492857D01*
X99361905Y-136416666D01*
X99361905Y-136226190D01*
X99400000Y-136150000D01*
X99438095Y-136111904D01*
X99514286Y-136073809D01*
X99590476Y-136073809D01*
X99704762Y-136111904D01*
X100161905Y-136569047D01*
X100161905Y-136073809D01*
X91523810Y-132043333D02*
X91904762Y-132043333D01*
X91447619Y-132271905D02*
X91714286Y-131471905D01*
X91980953Y-132271905D01*
X92247619Y-132271905D02*
X92247619Y-131471905D01*
X92552381Y-131471905D01*
X92628572Y-131510000D01*
X92666667Y-131548095D01*
X92704762Y-131624286D01*
X92704762Y-131738571D01*
X92666667Y-131814762D01*
X92628572Y-131852857D01*
X92552381Y-131890952D01*
X92247619Y-131890952D01*
X93009524Y-132043333D02*
X93390476Y-132043333D01*
X92933333Y-132271905D02*
X93200000Y-131471905D01*
X93466667Y-132271905D01*
X94152381Y-132271905D02*
X93695238Y-132271905D01*
X93923809Y-132271905D02*
X93923809Y-131471905D01*
X93847619Y-131586190D01*
X93771428Y-131662381D01*
X93695238Y-131700476D01*
X94647619Y-131471905D02*
X94723810Y-131471905D01*
X94800000Y-131510000D01*
X94838095Y-131548095D01*
X94876191Y-131624286D01*
X94914286Y-131776667D01*
X94914286Y-131967143D01*
X94876191Y-132119524D01*
X94838095Y-132195714D01*
X94800000Y-132233810D01*
X94723810Y-132271905D01*
X94647619Y-132271905D01*
X94571429Y-132233810D01*
X94533333Y-132195714D01*
X94495238Y-132119524D01*
X94457143Y-131967143D01*
X94457143Y-131776667D01*
X94495238Y-131624286D01*
X94533333Y-131548095D01*
X94571429Y-131510000D01*
X94647619Y-131471905D01*
X95219048Y-131548095D02*
X95257143Y-131510000D01*
X95333334Y-131471905D01*
X95523810Y-131471905D01*
X95600000Y-131510000D01*
X95638096Y-131548095D01*
X95676191Y-131624286D01*
X95676191Y-131700476D01*
X95638096Y-131814762D01*
X95180953Y-132271905D01*
X95676191Y-132271905D01*
X91523810Y-119043333D02*
X91904762Y-119043333D01*
X91447619Y-119271905D02*
X91714286Y-118471905D01*
X91980953Y-119271905D01*
X92247619Y-119271905D02*
X92247619Y-118471905D01*
X92552381Y-118471905D01*
X92628572Y-118510000D01*
X92666667Y-118548095D01*
X92704762Y-118624286D01*
X92704762Y-118738571D01*
X92666667Y-118814762D01*
X92628572Y-118852857D01*
X92552381Y-118890952D01*
X92247619Y-118890952D01*
X93009524Y-119043333D02*
X93390476Y-119043333D01*
X92933333Y-119271905D02*
X93200000Y-118471905D01*
X93466667Y-119271905D01*
X94152381Y-119271905D02*
X93695238Y-119271905D01*
X93923809Y-119271905D02*
X93923809Y-118471905D01*
X93847619Y-118586190D01*
X93771428Y-118662381D01*
X93695238Y-118700476D01*
X94647619Y-118471905D02*
X94723810Y-118471905D01*
X94800000Y-118510000D01*
X94838095Y-118548095D01*
X94876191Y-118624286D01*
X94914286Y-118776667D01*
X94914286Y-118967143D01*
X94876191Y-119119524D01*
X94838095Y-119195714D01*
X94800000Y-119233810D01*
X94723810Y-119271905D01*
X94647619Y-119271905D01*
X94571429Y-119233810D01*
X94533333Y-119195714D01*
X94495238Y-119119524D01*
X94457143Y-118967143D01*
X94457143Y-118776667D01*
X94495238Y-118624286D01*
X94533333Y-118548095D01*
X94571429Y-118510000D01*
X94647619Y-118471905D01*
X95219048Y-118548095D02*
X95257143Y-118510000D01*
X95333334Y-118471905D01*
X95523810Y-118471905D01*
X95600000Y-118510000D01*
X95638096Y-118548095D01*
X95676191Y-118624286D01*
X95676191Y-118700476D01*
X95638096Y-118814762D01*
X95180953Y-119271905D01*
X95676191Y-119271905D01*
X91523810Y-125543333D02*
X91904762Y-125543333D01*
X91447619Y-125771905D02*
X91714286Y-124971905D01*
X91980953Y-125771905D01*
X92247619Y-125771905D02*
X92247619Y-124971905D01*
X92552381Y-124971905D01*
X92628572Y-125010000D01*
X92666667Y-125048095D01*
X92704762Y-125124286D01*
X92704762Y-125238571D01*
X92666667Y-125314762D01*
X92628572Y-125352857D01*
X92552381Y-125390952D01*
X92247619Y-125390952D01*
X93009524Y-125543333D02*
X93390476Y-125543333D01*
X92933333Y-125771905D02*
X93200000Y-124971905D01*
X93466667Y-125771905D01*
X94152381Y-125771905D02*
X93695238Y-125771905D01*
X93923809Y-125771905D02*
X93923809Y-124971905D01*
X93847619Y-125086190D01*
X93771428Y-125162381D01*
X93695238Y-125200476D01*
X94647619Y-124971905D02*
X94723810Y-124971905D01*
X94800000Y-125010000D01*
X94838095Y-125048095D01*
X94876191Y-125124286D01*
X94914286Y-125276667D01*
X94914286Y-125467143D01*
X94876191Y-125619524D01*
X94838095Y-125695714D01*
X94800000Y-125733810D01*
X94723810Y-125771905D01*
X94647619Y-125771905D01*
X94571429Y-125733810D01*
X94533333Y-125695714D01*
X94495238Y-125619524D01*
X94457143Y-125467143D01*
X94457143Y-125276667D01*
X94495238Y-125124286D01*
X94533333Y-125048095D01*
X94571429Y-125010000D01*
X94647619Y-124971905D01*
X95219048Y-125048095D02*
X95257143Y-125010000D01*
X95333334Y-124971905D01*
X95523810Y-124971905D01*
X95600000Y-125010000D01*
X95638096Y-125048095D01*
X95676191Y-125124286D01*
X95676191Y-125200476D01*
X95638096Y-125314762D01*
X95180953Y-125771905D01*
X95676191Y-125771905D01*
X63473810Y-119533333D02*
X63854762Y-119533333D01*
X63397619Y-119761905D02*
X63664286Y-118961905D01*
X63930953Y-119761905D01*
X64197619Y-119761905D02*
X64197619Y-118961905D01*
X64502381Y-118961905D01*
X64578572Y-119000000D01*
X64616667Y-119038095D01*
X64654762Y-119114286D01*
X64654762Y-119228571D01*
X64616667Y-119304762D01*
X64578572Y-119342857D01*
X64502381Y-119380952D01*
X64197619Y-119380952D01*
X64959524Y-119533333D02*
X65340476Y-119533333D01*
X64883333Y-119761905D02*
X65150000Y-118961905D01*
X65416667Y-119761905D01*
X66102381Y-119761905D02*
X65645238Y-119761905D01*
X65873809Y-119761905D02*
X65873809Y-118961905D01*
X65797619Y-119076190D01*
X65721428Y-119152381D01*
X65645238Y-119190476D01*
X66597619Y-118961905D02*
X66673810Y-118961905D01*
X66750000Y-119000000D01*
X66788095Y-119038095D01*
X66826191Y-119114286D01*
X66864286Y-119266667D01*
X66864286Y-119457143D01*
X66826191Y-119609524D01*
X66788095Y-119685714D01*
X66750000Y-119723810D01*
X66673810Y-119761905D01*
X66597619Y-119761905D01*
X66521429Y-119723810D01*
X66483333Y-119685714D01*
X66445238Y-119609524D01*
X66407143Y-119457143D01*
X66407143Y-119266667D01*
X66445238Y-119114286D01*
X66483333Y-119038095D01*
X66521429Y-119000000D01*
X66597619Y-118961905D01*
X67169048Y-119038095D02*
X67207143Y-119000000D01*
X67283334Y-118961905D01*
X67473810Y-118961905D01*
X67550000Y-119000000D01*
X67588096Y-119038095D01*
X67626191Y-119114286D01*
X67626191Y-119190476D01*
X67588096Y-119304762D01*
X67130953Y-119761905D01*
X67626191Y-119761905D01*
X63473810Y-113033333D02*
X63854762Y-113033333D01*
X63397619Y-113261905D02*
X63664286Y-112461905D01*
X63930953Y-113261905D01*
X64197619Y-113261905D02*
X64197619Y-112461905D01*
X64502381Y-112461905D01*
X64578572Y-112500000D01*
X64616667Y-112538095D01*
X64654762Y-112614286D01*
X64654762Y-112728571D01*
X64616667Y-112804762D01*
X64578572Y-112842857D01*
X64502381Y-112880952D01*
X64197619Y-112880952D01*
X64959524Y-113033333D02*
X65340476Y-113033333D01*
X64883333Y-113261905D02*
X65150000Y-112461905D01*
X65416667Y-113261905D01*
X66102381Y-113261905D02*
X65645238Y-113261905D01*
X65873809Y-113261905D02*
X65873809Y-112461905D01*
X65797619Y-112576190D01*
X65721428Y-112652381D01*
X65645238Y-112690476D01*
X66597619Y-112461905D02*
X66673810Y-112461905D01*
X66750000Y-112500000D01*
X66788095Y-112538095D01*
X66826191Y-112614286D01*
X66864286Y-112766667D01*
X66864286Y-112957143D01*
X66826191Y-113109524D01*
X66788095Y-113185714D01*
X66750000Y-113223810D01*
X66673810Y-113261905D01*
X66597619Y-113261905D01*
X66521429Y-113223810D01*
X66483333Y-113185714D01*
X66445238Y-113109524D01*
X66407143Y-112957143D01*
X66407143Y-112766667D01*
X66445238Y-112614286D01*
X66483333Y-112538095D01*
X66521429Y-112500000D01*
X66597619Y-112461905D01*
X67169048Y-112538095D02*
X67207143Y-112500000D01*
X67283334Y-112461905D01*
X67473810Y-112461905D01*
X67550000Y-112500000D01*
X67588096Y-112538095D01*
X67626191Y-112614286D01*
X67626191Y-112690476D01*
X67588096Y-112804762D01*
X67130953Y-113261905D01*
X67626191Y-113261905D01*
X72973810Y-113083333D02*
X73354762Y-113083333D01*
X72897619Y-113311905D02*
X73164286Y-112511905D01*
X73430953Y-113311905D01*
X73697619Y-113311905D02*
X73697619Y-112511905D01*
X74002381Y-112511905D01*
X74078572Y-112550000D01*
X74116667Y-112588095D01*
X74154762Y-112664286D01*
X74154762Y-112778571D01*
X74116667Y-112854762D01*
X74078572Y-112892857D01*
X74002381Y-112930952D01*
X73697619Y-112930952D01*
X74459524Y-113083333D02*
X74840476Y-113083333D01*
X74383333Y-113311905D02*
X74650000Y-112511905D01*
X74916667Y-113311905D01*
X75602381Y-113311905D02*
X75145238Y-113311905D01*
X75373809Y-113311905D02*
X75373809Y-112511905D01*
X75297619Y-112626190D01*
X75221428Y-112702381D01*
X75145238Y-112740476D01*
X76097619Y-112511905D02*
X76173810Y-112511905D01*
X76250000Y-112550000D01*
X76288095Y-112588095D01*
X76326191Y-112664286D01*
X76364286Y-112816667D01*
X76364286Y-113007143D01*
X76326191Y-113159524D01*
X76288095Y-113235714D01*
X76250000Y-113273810D01*
X76173810Y-113311905D01*
X76097619Y-113311905D01*
X76021429Y-113273810D01*
X75983333Y-113235714D01*
X75945238Y-113159524D01*
X75907143Y-113007143D01*
X75907143Y-112816667D01*
X75945238Y-112664286D01*
X75983333Y-112588095D01*
X76021429Y-112550000D01*
X76097619Y-112511905D01*
X76669048Y-112588095D02*
X76707143Y-112550000D01*
X76783334Y-112511905D01*
X76973810Y-112511905D01*
X77050000Y-112550000D01*
X77088096Y-112588095D01*
X77126191Y-112664286D01*
X77126191Y-112740476D01*
X77088096Y-112854762D01*
X76630953Y-113311905D01*
X77126191Y-113311905D01*
X72973810Y-119533333D02*
X73354762Y-119533333D01*
X72897619Y-119761905D02*
X73164286Y-118961905D01*
X73430953Y-119761905D01*
X73697619Y-119761905D02*
X73697619Y-118961905D01*
X74002381Y-118961905D01*
X74078572Y-119000000D01*
X74116667Y-119038095D01*
X74154762Y-119114286D01*
X74154762Y-119228571D01*
X74116667Y-119304762D01*
X74078572Y-119342857D01*
X74002381Y-119380952D01*
X73697619Y-119380952D01*
X74459524Y-119533333D02*
X74840476Y-119533333D01*
X74383333Y-119761905D02*
X74650000Y-118961905D01*
X74916667Y-119761905D01*
X75602381Y-119761905D02*
X75145238Y-119761905D01*
X75373809Y-119761905D02*
X75373809Y-118961905D01*
X75297619Y-119076190D01*
X75221428Y-119152381D01*
X75145238Y-119190476D01*
X76097619Y-118961905D02*
X76173810Y-118961905D01*
X76250000Y-119000000D01*
X76288095Y-119038095D01*
X76326191Y-119114286D01*
X76364286Y-119266667D01*
X76364286Y-119457143D01*
X76326191Y-119609524D01*
X76288095Y-119685714D01*
X76250000Y-119723810D01*
X76173810Y-119761905D01*
X76097619Y-119761905D01*
X76021429Y-119723810D01*
X75983333Y-119685714D01*
X75945238Y-119609524D01*
X75907143Y-119457143D01*
X75907143Y-119266667D01*
X75945238Y-119114286D01*
X75983333Y-119038095D01*
X76021429Y-119000000D01*
X76097619Y-118961905D01*
X76669048Y-119038095D02*
X76707143Y-119000000D01*
X76783334Y-118961905D01*
X76973810Y-118961905D01*
X77050000Y-119000000D01*
X77088096Y-119038095D01*
X77126191Y-119114286D01*
X77126191Y-119190476D01*
X77088096Y-119304762D01*
X76630953Y-119761905D01*
X77126191Y-119761905D01*
X53973810Y-87033333D02*
X54354762Y-87033333D01*
X53897619Y-87261905D02*
X54164286Y-86461905D01*
X54430953Y-87261905D01*
X54697619Y-87261905D02*
X54697619Y-86461905D01*
X55002381Y-86461905D01*
X55078572Y-86500000D01*
X55116667Y-86538095D01*
X55154762Y-86614286D01*
X55154762Y-86728571D01*
X55116667Y-86804762D01*
X55078572Y-86842857D01*
X55002381Y-86880952D01*
X54697619Y-86880952D01*
X55459524Y-87033333D02*
X55840476Y-87033333D01*
X55383333Y-87261905D02*
X55650000Y-86461905D01*
X55916667Y-87261905D01*
X56602381Y-87261905D02*
X56145238Y-87261905D01*
X56373809Y-87261905D02*
X56373809Y-86461905D01*
X56297619Y-86576190D01*
X56221428Y-86652381D01*
X56145238Y-86690476D01*
X57097619Y-86461905D02*
X57173810Y-86461905D01*
X57250000Y-86500000D01*
X57288095Y-86538095D01*
X57326191Y-86614286D01*
X57364286Y-86766667D01*
X57364286Y-86957143D01*
X57326191Y-87109524D01*
X57288095Y-87185714D01*
X57250000Y-87223810D01*
X57173810Y-87261905D01*
X57097619Y-87261905D01*
X57021429Y-87223810D01*
X56983333Y-87185714D01*
X56945238Y-87109524D01*
X56907143Y-86957143D01*
X56907143Y-86766667D01*
X56945238Y-86614286D01*
X56983333Y-86538095D01*
X57021429Y-86500000D01*
X57097619Y-86461905D01*
X57669048Y-86538095D02*
X57707143Y-86500000D01*
X57783334Y-86461905D01*
X57973810Y-86461905D01*
X58050000Y-86500000D01*
X58088096Y-86538095D01*
X58126191Y-86614286D01*
X58126191Y-86690476D01*
X58088096Y-86804762D01*
X57630953Y-87261905D01*
X58126191Y-87261905D01*
X53973810Y-93533333D02*
X54354762Y-93533333D01*
X53897619Y-93761905D02*
X54164286Y-92961905D01*
X54430953Y-93761905D01*
X54697619Y-93761905D02*
X54697619Y-92961905D01*
X55002381Y-92961905D01*
X55078572Y-93000000D01*
X55116667Y-93038095D01*
X55154762Y-93114286D01*
X55154762Y-93228571D01*
X55116667Y-93304762D01*
X55078572Y-93342857D01*
X55002381Y-93380952D01*
X54697619Y-93380952D01*
X55459524Y-93533333D02*
X55840476Y-93533333D01*
X55383333Y-93761905D02*
X55650000Y-92961905D01*
X55916667Y-93761905D01*
X56602381Y-93761905D02*
X56145238Y-93761905D01*
X56373809Y-93761905D02*
X56373809Y-92961905D01*
X56297619Y-93076190D01*
X56221428Y-93152381D01*
X56145238Y-93190476D01*
X57097619Y-92961905D02*
X57173810Y-92961905D01*
X57250000Y-93000000D01*
X57288095Y-93038095D01*
X57326191Y-93114286D01*
X57364286Y-93266667D01*
X57364286Y-93457143D01*
X57326191Y-93609524D01*
X57288095Y-93685714D01*
X57250000Y-93723810D01*
X57173810Y-93761905D01*
X57097619Y-93761905D01*
X57021429Y-93723810D01*
X56983333Y-93685714D01*
X56945238Y-93609524D01*
X56907143Y-93457143D01*
X56907143Y-93266667D01*
X56945238Y-93114286D01*
X56983333Y-93038095D01*
X57021429Y-93000000D01*
X57097619Y-92961905D01*
X57669048Y-93038095D02*
X57707143Y-93000000D01*
X57783334Y-92961905D01*
X57973810Y-92961905D01*
X58050000Y-93000000D01*
X58088096Y-93038095D01*
X58126191Y-93114286D01*
X58126191Y-93190476D01*
X58088096Y-93304762D01*
X57630953Y-93761905D01*
X58126191Y-93761905D01*
X53973810Y-100033333D02*
X54354762Y-100033333D01*
X53897619Y-100261905D02*
X54164286Y-99461905D01*
X54430953Y-100261905D01*
X54697619Y-100261905D02*
X54697619Y-99461905D01*
X55002381Y-99461905D01*
X55078572Y-99500000D01*
X55116667Y-99538095D01*
X55154762Y-99614286D01*
X55154762Y-99728571D01*
X55116667Y-99804762D01*
X55078572Y-99842857D01*
X55002381Y-99880952D01*
X54697619Y-99880952D01*
X55459524Y-100033333D02*
X55840476Y-100033333D01*
X55383333Y-100261905D02*
X55650000Y-99461905D01*
X55916667Y-100261905D01*
X56602381Y-100261905D02*
X56145238Y-100261905D01*
X56373809Y-100261905D02*
X56373809Y-99461905D01*
X56297619Y-99576190D01*
X56221428Y-99652381D01*
X56145238Y-99690476D01*
X57097619Y-99461905D02*
X57173810Y-99461905D01*
X57250000Y-99500000D01*
X57288095Y-99538095D01*
X57326191Y-99614286D01*
X57364286Y-99766667D01*
X57364286Y-99957143D01*
X57326191Y-100109524D01*
X57288095Y-100185714D01*
X57250000Y-100223810D01*
X57173810Y-100261905D01*
X57097619Y-100261905D01*
X57021429Y-100223810D01*
X56983333Y-100185714D01*
X56945238Y-100109524D01*
X56907143Y-99957143D01*
X56907143Y-99766667D01*
X56945238Y-99614286D01*
X56983333Y-99538095D01*
X57021429Y-99500000D01*
X57097619Y-99461905D01*
X57669048Y-99538095D02*
X57707143Y-99500000D01*
X57783334Y-99461905D01*
X57973810Y-99461905D01*
X58050000Y-99500000D01*
X58088096Y-99538095D01*
X58126191Y-99614286D01*
X58126191Y-99690476D01*
X58088096Y-99804762D01*
X57630953Y-100261905D01*
X58126191Y-100261905D01*
X72973810Y-100093333D02*
X73354762Y-100093333D01*
X72897619Y-100321905D02*
X73164286Y-99521905D01*
X73430953Y-100321905D01*
X73697619Y-100321905D02*
X73697619Y-99521905D01*
X74002381Y-99521905D01*
X74078572Y-99560000D01*
X74116667Y-99598095D01*
X74154762Y-99674286D01*
X74154762Y-99788571D01*
X74116667Y-99864762D01*
X74078572Y-99902857D01*
X74002381Y-99940952D01*
X73697619Y-99940952D01*
X74459524Y-100093333D02*
X74840476Y-100093333D01*
X74383333Y-100321905D02*
X74650000Y-99521905D01*
X74916667Y-100321905D01*
X75602381Y-100321905D02*
X75145238Y-100321905D01*
X75373809Y-100321905D02*
X75373809Y-99521905D01*
X75297619Y-99636190D01*
X75221428Y-99712381D01*
X75145238Y-99750476D01*
X76097619Y-99521905D02*
X76173810Y-99521905D01*
X76250000Y-99560000D01*
X76288095Y-99598095D01*
X76326191Y-99674286D01*
X76364286Y-99826667D01*
X76364286Y-100017143D01*
X76326191Y-100169524D01*
X76288095Y-100245714D01*
X76250000Y-100283810D01*
X76173810Y-100321905D01*
X76097619Y-100321905D01*
X76021429Y-100283810D01*
X75983333Y-100245714D01*
X75945238Y-100169524D01*
X75907143Y-100017143D01*
X75907143Y-99826667D01*
X75945238Y-99674286D01*
X75983333Y-99598095D01*
X76021429Y-99560000D01*
X76097619Y-99521905D01*
X76669048Y-99598095D02*
X76707143Y-99560000D01*
X76783334Y-99521905D01*
X76973810Y-99521905D01*
X77050000Y-99560000D01*
X77088096Y-99598095D01*
X77126191Y-99674286D01*
X77126191Y-99750476D01*
X77088096Y-99864762D01*
X76630953Y-100321905D01*
X77126191Y-100321905D01*
X72973810Y-93633333D02*
X73354762Y-93633333D01*
X72897619Y-93861905D02*
X73164286Y-93061905D01*
X73430953Y-93861905D01*
X73697619Y-93861905D02*
X73697619Y-93061905D01*
X74002381Y-93061905D01*
X74078572Y-93100000D01*
X74116667Y-93138095D01*
X74154762Y-93214286D01*
X74154762Y-93328571D01*
X74116667Y-93404762D01*
X74078572Y-93442857D01*
X74002381Y-93480952D01*
X73697619Y-93480952D01*
X74459524Y-93633333D02*
X74840476Y-93633333D01*
X74383333Y-93861905D02*
X74650000Y-93061905D01*
X74916667Y-93861905D01*
X75602381Y-93861905D02*
X75145238Y-93861905D01*
X75373809Y-93861905D02*
X75373809Y-93061905D01*
X75297619Y-93176190D01*
X75221428Y-93252381D01*
X75145238Y-93290476D01*
X76097619Y-93061905D02*
X76173810Y-93061905D01*
X76250000Y-93100000D01*
X76288095Y-93138095D01*
X76326191Y-93214286D01*
X76364286Y-93366667D01*
X76364286Y-93557143D01*
X76326191Y-93709524D01*
X76288095Y-93785714D01*
X76250000Y-93823810D01*
X76173810Y-93861905D01*
X76097619Y-93861905D01*
X76021429Y-93823810D01*
X75983333Y-93785714D01*
X75945238Y-93709524D01*
X75907143Y-93557143D01*
X75907143Y-93366667D01*
X75945238Y-93214286D01*
X75983333Y-93138095D01*
X76021429Y-93100000D01*
X76097619Y-93061905D01*
X76669048Y-93138095D02*
X76707143Y-93100000D01*
X76783334Y-93061905D01*
X76973810Y-93061905D01*
X77050000Y-93100000D01*
X77088096Y-93138095D01*
X77126191Y-93214286D01*
X77126191Y-93290476D01*
X77088096Y-93404762D01*
X76630953Y-93861905D01*
X77126191Y-93861905D01*
X63473810Y-100083333D02*
X63854762Y-100083333D01*
X63397619Y-100311905D02*
X63664286Y-99511905D01*
X63930953Y-100311905D01*
X64197619Y-100311905D02*
X64197619Y-99511905D01*
X64502381Y-99511905D01*
X64578572Y-99550000D01*
X64616667Y-99588095D01*
X64654762Y-99664286D01*
X64654762Y-99778571D01*
X64616667Y-99854762D01*
X64578572Y-99892857D01*
X64502381Y-99930952D01*
X64197619Y-99930952D01*
X64959524Y-100083333D02*
X65340476Y-100083333D01*
X64883333Y-100311905D02*
X65150000Y-99511905D01*
X65416667Y-100311905D01*
X66102381Y-100311905D02*
X65645238Y-100311905D01*
X65873809Y-100311905D02*
X65873809Y-99511905D01*
X65797619Y-99626190D01*
X65721428Y-99702381D01*
X65645238Y-99740476D01*
X66597619Y-99511905D02*
X66673810Y-99511905D01*
X66750000Y-99550000D01*
X66788095Y-99588095D01*
X66826191Y-99664286D01*
X66864286Y-99816667D01*
X66864286Y-100007143D01*
X66826191Y-100159524D01*
X66788095Y-100235714D01*
X66750000Y-100273810D01*
X66673810Y-100311905D01*
X66597619Y-100311905D01*
X66521429Y-100273810D01*
X66483333Y-100235714D01*
X66445238Y-100159524D01*
X66407143Y-100007143D01*
X66407143Y-99816667D01*
X66445238Y-99664286D01*
X66483333Y-99588095D01*
X66521429Y-99550000D01*
X66597619Y-99511905D01*
X67169048Y-99588095D02*
X67207143Y-99550000D01*
X67283334Y-99511905D01*
X67473810Y-99511905D01*
X67550000Y-99550000D01*
X67588096Y-99588095D01*
X67626191Y-99664286D01*
X67626191Y-99740476D01*
X67588096Y-99854762D01*
X67130953Y-100311905D01*
X67626191Y-100311905D01*
X63473810Y-106533333D02*
X63854762Y-106533333D01*
X63397619Y-106761905D02*
X63664286Y-105961905D01*
X63930953Y-106761905D01*
X64197619Y-106761905D02*
X64197619Y-105961905D01*
X64502381Y-105961905D01*
X64578572Y-106000000D01*
X64616667Y-106038095D01*
X64654762Y-106114286D01*
X64654762Y-106228571D01*
X64616667Y-106304762D01*
X64578572Y-106342857D01*
X64502381Y-106380952D01*
X64197619Y-106380952D01*
X64959524Y-106533333D02*
X65340476Y-106533333D01*
X64883333Y-106761905D02*
X65150000Y-105961905D01*
X65416667Y-106761905D01*
X66102381Y-106761905D02*
X65645238Y-106761905D01*
X65873809Y-106761905D02*
X65873809Y-105961905D01*
X65797619Y-106076190D01*
X65721428Y-106152381D01*
X65645238Y-106190476D01*
X66597619Y-105961905D02*
X66673810Y-105961905D01*
X66750000Y-106000000D01*
X66788095Y-106038095D01*
X66826191Y-106114286D01*
X66864286Y-106266667D01*
X66864286Y-106457143D01*
X66826191Y-106609524D01*
X66788095Y-106685714D01*
X66750000Y-106723810D01*
X66673810Y-106761905D01*
X66597619Y-106761905D01*
X66521429Y-106723810D01*
X66483333Y-106685714D01*
X66445238Y-106609524D01*
X66407143Y-106457143D01*
X66407143Y-106266667D01*
X66445238Y-106114286D01*
X66483333Y-106038095D01*
X66521429Y-106000000D01*
X66597619Y-105961905D01*
X67169048Y-106038095D02*
X67207143Y-106000000D01*
X67283334Y-105961905D01*
X67473810Y-105961905D01*
X67550000Y-106000000D01*
X67588096Y-106038095D01*
X67626191Y-106114286D01*
X67626191Y-106190476D01*
X67588096Y-106304762D01*
X67130953Y-106761905D01*
X67626191Y-106761905D01*
X63473810Y-93593333D02*
X63854762Y-93593333D01*
X63397619Y-93821905D02*
X63664286Y-93021905D01*
X63930953Y-93821905D01*
X64197619Y-93821905D02*
X64197619Y-93021905D01*
X64502381Y-93021905D01*
X64578572Y-93060000D01*
X64616667Y-93098095D01*
X64654762Y-93174286D01*
X64654762Y-93288571D01*
X64616667Y-93364762D01*
X64578572Y-93402857D01*
X64502381Y-93440952D01*
X64197619Y-93440952D01*
X64959524Y-93593333D02*
X65340476Y-93593333D01*
X64883333Y-93821905D02*
X65150000Y-93021905D01*
X65416667Y-93821905D01*
X66102381Y-93821905D02*
X65645238Y-93821905D01*
X65873809Y-93821905D02*
X65873809Y-93021905D01*
X65797619Y-93136190D01*
X65721428Y-93212381D01*
X65645238Y-93250476D01*
X66597619Y-93021905D02*
X66673810Y-93021905D01*
X66750000Y-93060000D01*
X66788095Y-93098095D01*
X66826191Y-93174286D01*
X66864286Y-93326667D01*
X66864286Y-93517143D01*
X66826191Y-93669524D01*
X66788095Y-93745714D01*
X66750000Y-93783810D01*
X66673810Y-93821905D01*
X66597619Y-93821905D01*
X66521429Y-93783810D01*
X66483333Y-93745714D01*
X66445238Y-93669524D01*
X66407143Y-93517143D01*
X66407143Y-93326667D01*
X66445238Y-93174286D01*
X66483333Y-93098095D01*
X66521429Y-93060000D01*
X66597619Y-93021905D01*
X67169048Y-93098095D02*
X67207143Y-93060000D01*
X67283334Y-93021905D01*
X67473810Y-93021905D01*
X67550000Y-93060000D01*
X67588096Y-93098095D01*
X67626191Y-93174286D01*
X67626191Y-93250476D01*
X67588096Y-93364762D01*
X67130953Y-93821905D01*
X67626191Y-93821905D01*
X63473810Y-87093333D02*
X63854762Y-87093333D01*
X63397619Y-87321905D02*
X63664286Y-86521905D01*
X63930953Y-87321905D01*
X64197619Y-87321905D02*
X64197619Y-86521905D01*
X64502381Y-86521905D01*
X64578572Y-86560000D01*
X64616667Y-86598095D01*
X64654762Y-86674286D01*
X64654762Y-86788571D01*
X64616667Y-86864762D01*
X64578572Y-86902857D01*
X64502381Y-86940952D01*
X64197619Y-86940952D01*
X64959524Y-87093333D02*
X65340476Y-87093333D01*
X64883333Y-87321905D02*
X65150000Y-86521905D01*
X65416667Y-87321905D01*
X66102381Y-87321905D02*
X65645238Y-87321905D01*
X65873809Y-87321905D02*
X65873809Y-86521905D01*
X65797619Y-86636190D01*
X65721428Y-86712381D01*
X65645238Y-86750476D01*
X66597619Y-86521905D02*
X66673810Y-86521905D01*
X66750000Y-86560000D01*
X66788095Y-86598095D01*
X66826191Y-86674286D01*
X66864286Y-86826667D01*
X66864286Y-87017143D01*
X66826191Y-87169524D01*
X66788095Y-87245714D01*
X66750000Y-87283810D01*
X66673810Y-87321905D01*
X66597619Y-87321905D01*
X66521429Y-87283810D01*
X66483333Y-87245714D01*
X66445238Y-87169524D01*
X66407143Y-87017143D01*
X66407143Y-86826667D01*
X66445238Y-86674286D01*
X66483333Y-86598095D01*
X66521429Y-86560000D01*
X66597619Y-86521905D01*
X67169048Y-86598095D02*
X67207143Y-86560000D01*
X67283334Y-86521905D01*
X67473810Y-86521905D01*
X67550000Y-86560000D01*
X67588096Y-86598095D01*
X67626191Y-86674286D01*
X67626191Y-86750476D01*
X67588096Y-86864762D01*
X67130953Y-87321905D01*
X67626191Y-87321905D01*
X72973810Y-87133333D02*
X73354762Y-87133333D01*
X72897619Y-87361905D02*
X73164286Y-86561905D01*
X73430953Y-87361905D01*
X73697619Y-87361905D02*
X73697619Y-86561905D01*
X74002381Y-86561905D01*
X74078572Y-86600000D01*
X74116667Y-86638095D01*
X74154762Y-86714286D01*
X74154762Y-86828571D01*
X74116667Y-86904762D01*
X74078572Y-86942857D01*
X74002381Y-86980952D01*
X73697619Y-86980952D01*
X74459524Y-87133333D02*
X74840476Y-87133333D01*
X74383333Y-87361905D02*
X74650000Y-86561905D01*
X74916667Y-87361905D01*
X75602381Y-87361905D02*
X75145238Y-87361905D01*
X75373809Y-87361905D02*
X75373809Y-86561905D01*
X75297619Y-86676190D01*
X75221428Y-86752381D01*
X75145238Y-86790476D01*
X76097619Y-86561905D02*
X76173810Y-86561905D01*
X76250000Y-86600000D01*
X76288095Y-86638095D01*
X76326191Y-86714286D01*
X76364286Y-86866667D01*
X76364286Y-87057143D01*
X76326191Y-87209524D01*
X76288095Y-87285714D01*
X76250000Y-87323810D01*
X76173810Y-87361905D01*
X76097619Y-87361905D01*
X76021429Y-87323810D01*
X75983333Y-87285714D01*
X75945238Y-87209524D01*
X75907143Y-87057143D01*
X75907143Y-86866667D01*
X75945238Y-86714286D01*
X75983333Y-86638095D01*
X76021429Y-86600000D01*
X76097619Y-86561905D01*
X76669048Y-86638095D02*
X76707143Y-86600000D01*
X76783334Y-86561905D01*
X76973810Y-86561905D01*
X77050000Y-86600000D01*
X77088096Y-86638095D01*
X77126191Y-86714286D01*
X77126191Y-86790476D01*
X77088096Y-86904762D01*
X76630953Y-87361905D01*
X77126191Y-87361905D01*
X82423810Y-106483333D02*
X82804762Y-106483333D01*
X82347619Y-106711905D02*
X82614286Y-105911905D01*
X82880953Y-106711905D01*
X83147619Y-106711905D02*
X83147619Y-105911905D01*
X83452381Y-105911905D01*
X83528572Y-105950000D01*
X83566667Y-105988095D01*
X83604762Y-106064286D01*
X83604762Y-106178571D01*
X83566667Y-106254762D01*
X83528572Y-106292857D01*
X83452381Y-106330952D01*
X83147619Y-106330952D01*
X83909524Y-106483333D02*
X84290476Y-106483333D01*
X83833333Y-106711905D02*
X84100000Y-105911905D01*
X84366667Y-106711905D01*
X85052381Y-106711905D02*
X84595238Y-106711905D01*
X84823809Y-106711905D02*
X84823809Y-105911905D01*
X84747619Y-106026190D01*
X84671428Y-106102381D01*
X84595238Y-106140476D01*
X85547619Y-105911905D02*
X85623810Y-105911905D01*
X85700000Y-105950000D01*
X85738095Y-105988095D01*
X85776191Y-106064286D01*
X85814286Y-106216667D01*
X85814286Y-106407143D01*
X85776191Y-106559524D01*
X85738095Y-106635714D01*
X85700000Y-106673810D01*
X85623810Y-106711905D01*
X85547619Y-106711905D01*
X85471429Y-106673810D01*
X85433333Y-106635714D01*
X85395238Y-106559524D01*
X85357143Y-106407143D01*
X85357143Y-106216667D01*
X85395238Y-106064286D01*
X85433333Y-105988095D01*
X85471429Y-105950000D01*
X85547619Y-105911905D01*
X86119048Y-105988095D02*
X86157143Y-105950000D01*
X86233334Y-105911905D01*
X86423810Y-105911905D01*
X86500000Y-105950000D01*
X86538096Y-105988095D01*
X86576191Y-106064286D01*
X86576191Y-106140476D01*
X86538096Y-106254762D01*
X86080953Y-106711905D01*
X86576191Y-106711905D01*
X72973810Y-106583333D02*
X73354762Y-106583333D01*
X72897619Y-106811905D02*
X73164286Y-106011905D01*
X73430953Y-106811905D01*
X73697619Y-106811905D02*
X73697619Y-106011905D01*
X74002381Y-106011905D01*
X74078572Y-106050000D01*
X74116667Y-106088095D01*
X74154762Y-106164286D01*
X74154762Y-106278571D01*
X74116667Y-106354762D01*
X74078572Y-106392857D01*
X74002381Y-106430952D01*
X73697619Y-106430952D01*
X74459524Y-106583333D02*
X74840476Y-106583333D01*
X74383333Y-106811905D02*
X74650000Y-106011905D01*
X74916667Y-106811905D01*
X75602381Y-106811905D02*
X75145238Y-106811905D01*
X75373809Y-106811905D02*
X75373809Y-106011905D01*
X75297619Y-106126190D01*
X75221428Y-106202381D01*
X75145238Y-106240476D01*
X76097619Y-106011905D02*
X76173810Y-106011905D01*
X76250000Y-106050000D01*
X76288095Y-106088095D01*
X76326191Y-106164286D01*
X76364286Y-106316667D01*
X76364286Y-106507143D01*
X76326191Y-106659524D01*
X76288095Y-106735714D01*
X76250000Y-106773810D01*
X76173810Y-106811905D01*
X76097619Y-106811905D01*
X76021429Y-106773810D01*
X75983333Y-106735714D01*
X75945238Y-106659524D01*
X75907143Y-106507143D01*
X75907143Y-106316667D01*
X75945238Y-106164286D01*
X75983333Y-106088095D01*
X76021429Y-106050000D01*
X76097619Y-106011905D01*
X76669048Y-106088095D02*
X76707143Y-106050000D01*
X76783334Y-106011905D01*
X76973810Y-106011905D01*
X77050000Y-106050000D01*
X77088096Y-106088095D01*
X77126191Y-106164286D01*
X77126191Y-106240476D01*
X77088096Y-106354762D01*
X76630953Y-106811905D01*
X77126191Y-106811905D01*
X82423810Y-112983333D02*
X82804762Y-112983333D01*
X82347619Y-113211905D02*
X82614286Y-112411905D01*
X82880953Y-113211905D01*
X83147619Y-113211905D02*
X83147619Y-112411905D01*
X83452381Y-112411905D01*
X83528572Y-112450000D01*
X83566667Y-112488095D01*
X83604762Y-112564286D01*
X83604762Y-112678571D01*
X83566667Y-112754762D01*
X83528572Y-112792857D01*
X83452381Y-112830952D01*
X83147619Y-112830952D01*
X83909524Y-112983333D02*
X84290476Y-112983333D01*
X83833333Y-113211905D02*
X84100000Y-112411905D01*
X84366667Y-113211905D01*
X85052381Y-113211905D02*
X84595238Y-113211905D01*
X84823809Y-113211905D02*
X84823809Y-112411905D01*
X84747619Y-112526190D01*
X84671428Y-112602381D01*
X84595238Y-112640476D01*
X85547619Y-112411905D02*
X85623810Y-112411905D01*
X85700000Y-112450000D01*
X85738095Y-112488095D01*
X85776191Y-112564286D01*
X85814286Y-112716667D01*
X85814286Y-112907143D01*
X85776191Y-113059524D01*
X85738095Y-113135714D01*
X85700000Y-113173810D01*
X85623810Y-113211905D01*
X85547619Y-113211905D01*
X85471429Y-113173810D01*
X85433333Y-113135714D01*
X85395238Y-113059524D01*
X85357143Y-112907143D01*
X85357143Y-112716667D01*
X85395238Y-112564286D01*
X85433333Y-112488095D01*
X85471429Y-112450000D01*
X85547619Y-112411905D01*
X86119048Y-112488095D02*
X86157143Y-112450000D01*
X86233334Y-112411905D01*
X86423810Y-112411905D01*
X86500000Y-112450000D01*
X86538096Y-112488095D01*
X86576191Y-112564286D01*
X86576191Y-112640476D01*
X86538096Y-112754762D01*
X86080953Y-113211905D01*
X86576191Y-113211905D01*
X82423810Y-99983333D02*
X82804762Y-99983333D01*
X82347619Y-100211905D02*
X82614286Y-99411905D01*
X82880953Y-100211905D01*
X83147619Y-100211905D02*
X83147619Y-99411905D01*
X83452381Y-99411905D01*
X83528572Y-99450000D01*
X83566667Y-99488095D01*
X83604762Y-99564286D01*
X83604762Y-99678571D01*
X83566667Y-99754762D01*
X83528572Y-99792857D01*
X83452381Y-99830952D01*
X83147619Y-99830952D01*
X83909524Y-99983333D02*
X84290476Y-99983333D01*
X83833333Y-100211905D02*
X84100000Y-99411905D01*
X84366667Y-100211905D01*
X85052381Y-100211905D02*
X84595238Y-100211905D01*
X84823809Y-100211905D02*
X84823809Y-99411905D01*
X84747619Y-99526190D01*
X84671428Y-99602381D01*
X84595238Y-99640476D01*
X85547619Y-99411905D02*
X85623810Y-99411905D01*
X85700000Y-99450000D01*
X85738095Y-99488095D01*
X85776191Y-99564286D01*
X85814286Y-99716667D01*
X85814286Y-99907143D01*
X85776191Y-100059524D01*
X85738095Y-100135714D01*
X85700000Y-100173810D01*
X85623810Y-100211905D01*
X85547619Y-100211905D01*
X85471429Y-100173810D01*
X85433333Y-100135714D01*
X85395238Y-100059524D01*
X85357143Y-99907143D01*
X85357143Y-99716667D01*
X85395238Y-99564286D01*
X85433333Y-99488095D01*
X85471429Y-99450000D01*
X85547619Y-99411905D01*
X86119048Y-99488095D02*
X86157143Y-99450000D01*
X86233334Y-99411905D01*
X86423810Y-99411905D01*
X86500000Y-99450000D01*
X86538096Y-99488095D01*
X86576191Y-99564286D01*
X86576191Y-99640476D01*
X86538096Y-99754762D01*
X86080953Y-100211905D01*
X86576191Y-100211905D01*
X82423810Y-93483333D02*
X82804762Y-93483333D01*
X82347619Y-93711905D02*
X82614286Y-92911905D01*
X82880953Y-93711905D01*
X83147619Y-93711905D02*
X83147619Y-92911905D01*
X83452381Y-92911905D01*
X83528572Y-92950000D01*
X83566667Y-92988095D01*
X83604762Y-93064286D01*
X83604762Y-93178571D01*
X83566667Y-93254762D01*
X83528572Y-93292857D01*
X83452381Y-93330952D01*
X83147619Y-93330952D01*
X83909524Y-93483333D02*
X84290476Y-93483333D01*
X83833333Y-93711905D02*
X84100000Y-92911905D01*
X84366667Y-93711905D01*
X85052381Y-93711905D02*
X84595238Y-93711905D01*
X84823809Y-93711905D02*
X84823809Y-92911905D01*
X84747619Y-93026190D01*
X84671428Y-93102381D01*
X84595238Y-93140476D01*
X85547619Y-92911905D02*
X85623810Y-92911905D01*
X85700000Y-92950000D01*
X85738095Y-92988095D01*
X85776191Y-93064286D01*
X85814286Y-93216667D01*
X85814286Y-93407143D01*
X85776191Y-93559524D01*
X85738095Y-93635714D01*
X85700000Y-93673810D01*
X85623810Y-93711905D01*
X85547619Y-93711905D01*
X85471429Y-93673810D01*
X85433333Y-93635714D01*
X85395238Y-93559524D01*
X85357143Y-93407143D01*
X85357143Y-93216667D01*
X85395238Y-93064286D01*
X85433333Y-92988095D01*
X85471429Y-92950000D01*
X85547619Y-92911905D01*
X86119048Y-92988095D02*
X86157143Y-92950000D01*
X86233334Y-92911905D01*
X86423810Y-92911905D01*
X86500000Y-92950000D01*
X86538096Y-92988095D01*
X86576191Y-93064286D01*
X86576191Y-93140476D01*
X86538096Y-93254762D01*
X86080953Y-93711905D01*
X86576191Y-93711905D01*
X65933333Y-140626190D02*
X65933333Y-140245238D01*
X66161905Y-140702381D02*
X65361905Y-140435714D01*
X66161905Y-140169047D01*
X66161905Y-139902381D02*
X65361905Y-139902381D01*
X65361905Y-139597619D01*
X65400000Y-139521428D01*
X65438095Y-139483333D01*
X65514286Y-139445238D01*
X65628571Y-139445238D01*
X65704762Y-139483333D01*
X65742857Y-139521428D01*
X65780952Y-139597619D01*
X65780952Y-139902381D01*
X65933333Y-139140476D02*
X65933333Y-138759524D01*
X66161905Y-139216667D02*
X65361905Y-138950000D01*
X66161905Y-138683333D01*
X66161905Y-137997619D02*
X66161905Y-138454762D01*
X66161905Y-138226191D02*
X65361905Y-138226191D01*
X65476190Y-138302381D01*
X65552381Y-138378572D01*
X65590476Y-138454762D01*
X65361905Y-137502381D02*
X65361905Y-137426190D01*
X65400000Y-137350000D01*
X65438095Y-137311905D01*
X65514286Y-137273809D01*
X65666667Y-137235714D01*
X65857143Y-137235714D01*
X66009524Y-137273809D01*
X66085714Y-137311905D01*
X66123810Y-137350000D01*
X66161905Y-137426190D01*
X66161905Y-137502381D01*
X66123810Y-137578571D01*
X66085714Y-137616667D01*
X66009524Y-137654762D01*
X65857143Y-137692857D01*
X65666667Y-137692857D01*
X65514286Y-137654762D01*
X65438095Y-137616667D01*
X65400000Y-137578571D01*
X65361905Y-137502381D01*
X65438095Y-136930952D02*
X65400000Y-136892857D01*
X65361905Y-136816666D01*
X65361905Y-136626190D01*
X65400000Y-136550000D01*
X65438095Y-136511904D01*
X65514286Y-136473809D01*
X65590476Y-136473809D01*
X65704762Y-136511904D01*
X66161905Y-136969047D01*
X66161905Y-136473809D01*
X53973810Y-113033333D02*
X54354762Y-113033333D01*
X53897619Y-113261905D02*
X54164286Y-112461905D01*
X54430953Y-113261905D01*
X54697619Y-113261905D02*
X54697619Y-112461905D01*
X55002381Y-112461905D01*
X55078572Y-112500000D01*
X55116667Y-112538095D01*
X55154762Y-112614286D01*
X55154762Y-112728571D01*
X55116667Y-112804762D01*
X55078572Y-112842857D01*
X55002381Y-112880952D01*
X54697619Y-112880952D01*
X55459524Y-113033333D02*
X55840476Y-113033333D01*
X55383333Y-113261905D02*
X55650000Y-112461905D01*
X55916667Y-113261905D01*
X56602381Y-113261905D02*
X56145238Y-113261905D01*
X56373809Y-113261905D02*
X56373809Y-112461905D01*
X56297619Y-112576190D01*
X56221428Y-112652381D01*
X56145238Y-112690476D01*
X57097619Y-112461905D02*
X57173810Y-112461905D01*
X57250000Y-112500000D01*
X57288095Y-112538095D01*
X57326191Y-112614286D01*
X57364286Y-112766667D01*
X57364286Y-112957143D01*
X57326191Y-113109524D01*
X57288095Y-113185714D01*
X57250000Y-113223810D01*
X57173810Y-113261905D01*
X57097619Y-113261905D01*
X57021429Y-113223810D01*
X56983333Y-113185714D01*
X56945238Y-113109524D01*
X56907143Y-112957143D01*
X56907143Y-112766667D01*
X56945238Y-112614286D01*
X56983333Y-112538095D01*
X57021429Y-112500000D01*
X57097619Y-112461905D01*
X57669048Y-112538095D02*
X57707143Y-112500000D01*
X57783334Y-112461905D01*
X57973810Y-112461905D01*
X58050000Y-112500000D01*
X58088096Y-112538095D01*
X58126191Y-112614286D01*
X58126191Y-112690476D01*
X58088096Y-112804762D01*
X57630953Y-113261905D01*
X58126191Y-113261905D01*
X53973810Y-106533333D02*
X54354762Y-106533333D01*
X53897619Y-106761905D02*
X54164286Y-105961905D01*
X54430953Y-106761905D01*
X54697619Y-106761905D02*
X54697619Y-105961905D01*
X55002381Y-105961905D01*
X55078572Y-106000000D01*
X55116667Y-106038095D01*
X55154762Y-106114286D01*
X55154762Y-106228571D01*
X55116667Y-106304762D01*
X55078572Y-106342857D01*
X55002381Y-106380952D01*
X54697619Y-106380952D01*
X55459524Y-106533333D02*
X55840476Y-106533333D01*
X55383333Y-106761905D02*
X55650000Y-105961905D01*
X55916667Y-106761905D01*
X56602381Y-106761905D02*
X56145238Y-106761905D01*
X56373809Y-106761905D02*
X56373809Y-105961905D01*
X56297619Y-106076190D01*
X56221428Y-106152381D01*
X56145238Y-106190476D01*
X57097619Y-105961905D02*
X57173810Y-105961905D01*
X57250000Y-106000000D01*
X57288095Y-106038095D01*
X57326191Y-106114286D01*
X57364286Y-106266667D01*
X57364286Y-106457143D01*
X57326191Y-106609524D01*
X57288095Y-106685714D01*
X57250000Y-106723810D01*
X57173810Y-106761905D01*
X57097619Y-106761905D01*
X57021429Y-106723810D01*
X56983333Y-106685714D01*
X56945238Y-106609524D01*
X56907143Y-106457143D01*
X56907143Y-106266667D01*
X56945238Y-106114286D01*
X56983333Y-106038095D01*
X57021429Y-106000000D01*
X57097619Y-105961905D01*
X57669048Y-106038095D02*
X57707143Y-106000000D01*
X57783334Y-105961905D01*
X57973810Y-105961905D01*
X58050000Y-106000000D01*
X58088096Y-106038095D01*
X58126191Y-106114286D01*
X58126191Y-106190476D01*
X58088096Y-106304762D01*
X57630953Y-106761905D01*
X58126191Y-106761905D01*
X53973810Y-119533333D02*
X54354762Y-119533333D01*
X53897619Y-119761905D02*
X54164286Y-118961905D01*
X54430953Y-119761905D01*
X54697619Y-119761905D02*
X54697619Y-118961905D01*
X55002381Y-118961905D01*
X55078572Y-119000000D01*
X55116667Y-119038095D01*
X55154762Y-119114286D01*
X55154762Y-119228571D01*
X55116667Y-119304762D01*
X55078572Y-119342857D01*
X55002381Y-119380952D01*
X54697619Y-119380952D01*
X55459524Y-119533333D02*
X55840476Y-119533333D01*
X55383333Y-119761905D02*
X55650000Y-118961905D01*
X55916667Y-119761905D01*
X56602381Y-119761905D02*
X56145238Y-119761905D01*
X56373809Y-119761905D02*
X56373809Y-118961905D01*
X56297619Y-119076190D01*
X56221428Y-119152381D01*
X56145238Y-119190476D01*
X57097619Y-118961905D02*
X57173810Y-118961905D01*
X57250000Y-119000000D01*
X57288095Y-119038095D01*
X57326191Y-119114286D01*
X57364286Y-119266667D01*
X57364286Y-119457143D01*
X57326191Y-119609524D01*
X57288095Y-119685714D01*
X57250000Y-119723810D01*
X57173810Y-119761905D01*
X57097619Y-119761905D01*
X57021429Y-119723810D01*
X56983333Y-119685714D01*
X56945238Y-119609524D01*
X56907143Y-119457143D01*
X56907143Y-119266667D01*
X56945238Y-119114286D01*
X56983333Y-119038095D01*
X57021429Y-119000000D01*
X57097619Y-118961905D01*
X57669048Y-119038095D02*
X57707143Y-119000000D01*
X57783334Y-118961905D01*
X57973810Y-118961905D01*
X58050000Y-119000000D01*
X58088096Y-119038095D01*
X58126191Y-119114286D01*
X58126191Y-119190476D01*
X58088096Y-119304762D01*
X57630953Y-119761905D01*
X58126191Y-119761905D01*
D10*
X49293334Y-148090000D02*
X49260000Y-148123333D01*
X49160000Y-148156667D01*
X49093334Y-148156667D01*
X48993334Y-148123333D01*
X48926667Y-148056667D01*
X48893334Y-147990000D01*
X48860000Y-147856667D01*
X48860000Y-147756667D01*
X48893334Y-147623333D01*
X48926667Y-147556667D01*
X48993334Y-147490000D01*
X49093334Y-147456667D01*
X49160000Y-147456667D01*
X49260000Y-147490000D01*
X49293334Y-147523333D01*
X49893334Y-147456667D02*
X49760000Y-147456667D01*
X49693334Y-147490000D01*
X49660000Y-147523333D01*
X49593334Y-147623333D01*
X49560000Y-147756667D01*
X49560000Y-148023333D01*
X49593334Y-148090000D01*
X49626667Y-148123333D01*
X49693334Y-148156667D01*
X49826667Y-148156667D01*
X49893334Y-148123333D01*
X49926667Y-148090000D01*
X49960000Y-148023333D01*
X49960000Y-147856667D01*
X49926667Y-147790000D01*
X49893334Y-147756667D01*
X49826667Y-147723333D01*
X49693334Y-147723333D01*
X49626667Y-147756667D01*
X49593334Y-147790000D01*
X49560000Y-147856667D01*
X39066667Y-141016667D02*
X39066667Y-141583333D01*
X39100000Y-141650000D01*
X39133333Y-141683333D01*
X39200000Y-141716667D01*
X39333333Y-141716667D01*
X39400000Y-141683333D01*
X39433333Y-141650000D01*
X39466667Y-141583333D01*
X39466667Y-141016667D01*
X40166666Y-141716667D02*
X39766666Y-141716667D01*
X39966666Y-141716667D02*
X39966666Y-141016667D01*
X39900000Y-141116667D01*
X39833333Y-141183333D01*
X39766666Y-141216667D01*
X49163334Y-152230000D02*
X49130000Y-152263333D01*
X49030000Y-152296667D01*
X48963334Y-152296667D01*
X48863334Y-152263333D01*
X48796667Y-152196667D01*
X48763334Y-152130000D01*
X48730000Y-151996667D01*
X48730000Y-151896667D01*
X48763334Y-151763333D01*
X48796667Y-151696667D01*
X48863334Y-151630000D01*
X48963334Y-151596667D01*
X49030000Y-151596667D01*
X49130000Y-151630000D01*
X49163334Y-151663333D01*
X49796667Y-151596667D02*
X49463334Y-151596667D01*
X49430000Y-151930000D01*
X49463334Y-151896667D01*
X49530000Y-151863333D01*
X49696667Y-151863333D01*
X49763334Y-151896667D01*
X49796667Y-151930000D01*
X49830000Y-151996667D01*
X49830000Y-152163333D01*
X49796667Y-152230000D01*
X49763334Y-152263333D01*
X49696667Y-152296667D01*
X49530000Y-152296667D01*
X49463334Y-152263333D01*
X49430000Y-152230000D01*
D11*
X44123810Y-151483333D02*
X44504762Y-151483333D01*
X44047619Y-151711905D02*
X44314286Y-150911905D01*
X44580953Y-151711905D01*
X44847619Y-151711905D02*
X44847619Y-150911905D01*
X45152381Y-150911905D01*
X45228572Y-150950000D01*
X45266667Y-150988095D01*
X45304762Y-151064286D01*
X45304762Y-151178571D01*
X45266667Y-151254762D01*
X45228572Y-151292857D01*
X45152381Y-151330952D01*
X44847619Y-151330952D01*
X45609524Y-151483333D02*
X45990476Y-151483333D01*
X45533333Y-151711905D02*
X45800000Y-150911905D01*
X46066667Y-151711905D01*
X46752381Y-151711905D02*
X46295238Y-151711905D01*
X46523809Y-151711905D02*
X46523809Y-150911905D01*
X46447619Y-151026190D01*
X46371428Y-151102381D01*
X46295238Y-151140476D01*
X47247619Y-150911905D02*
X47323810Y-150911905D01*
X47400000Y-150950000D01*
X47438095Y-150988095D01*
X47476191Y-151064286D01*
X47514286Y-151216667D01*
X47514286Y-151407143D01*
X47476191Y-151559524D01*
X47438095Y-151635714D01*
X47400000Y-151673810D01*
X47323810Y-151711905D01*
X47247619Y-151711905D01*
X47171429Y-151673810D01*
X47133333Y-151635714D01*
X47095238Y-151559524D01*
X47057143Y-151407143D01*
X47057143Y-151216667D01*
X47095238Y-151064286D01*
X47133333Y-150988095D01*
X47171429Y-150950000D01*
X47247619Y-150911905D01*
X47819048Y-150988095D02*
X47857143Y-150950000D01*
X47933334Y-150911905D01*
X48123810Y-150911905D01*
X48200000Y-150950000D01*
X48238096Y-150988095D01*
X48276191Y-151064286D01*
X48276191Y-151140476D01*
X48238096Y-151254762D01*
X47780953Y-151711905D01*
X48276191Y-151711905D01*
X44123810Y-157933333D02*
X44504762Y-157933333D01*
X44047619Y-158161905D02*
X44314286Y-157361905D01*
X44580953Y-158161905D01*
X44847619Y-158161905D02*
X44847619Y-157361905D01*
X45152381Y-157361905D01*
X45228572Y-157400000D01*
X45266667Y-157438095D01*
X45304762Y-157514286D01*
X45304762Y-157628571D01*
X45266667Y-157704762D01*
X45228572Y-157742857D01*
X45152381Y-157780952D01*
X44847619Y-157780952D01*
X45609524Y-157933333D02*
X45990476Y-157933333D01*
X45533333Y-158161905D02*
X45800000Y-157361905D01*
X46066667Y-158161905D01*
X46752381Y-158161905D02*
X46295238Y-158161905D01*
X46523809Y-158161905D02*
X46523809Y-157361905D01*
X46447619Y-157476190D01*
X46371428Y-157552381D01*
X46295238Y-157590476D01*
X47247619Y-157361905D02*
X47323810Y-157361905D01*
X47400000Y-157400000D01*
X47438095Y-157438095D01*
X47476191Y-157514286D01*
X47514286Y-157666667D01*
X47514286Y-157857143D01*
X47476191Y-158009524D01*
X47438095Y-158085714D01*
X47400000Y-158123810D01*
X47323810Y-158161905D01*
X47247619Y-158161905D01*
X47171429Y-158123810D01*
X47133333Y-158085714D01*
X47095238Y-158009524D01*
X47057143Y-157857143D01*
X47057143Y-157666667D01*
X47095238Y-157514286D01*
X47133333Y-157438095D01*
X47171429Y-157400000D01*
X47247619Y-157361905D01*
X47819048Y-157438095D02*
X47857143Y-157400000D01*
X47933334Y-157361905D01*
X48123810Y-157361905D01*
X48200000Y-157400000D01*
X48238096Y-157438095D01*
X48276191Y-157514286D01*
X48276191Y-157590476D01*
X48238096Y-157704762D01*
X47780953Y-158161905D01*
X48276191Y-158161905D01*
X44073810Y-145083333D02*
X44454762Y-145083333D01*
X43997619Y-145311905D02*
X44264286Y-144511905D01*
X44530953Y-145311905D01*
X44797619Y-145311905D02*
X44797619Y-144511905D01*
X45102381Y-144511905D01*
X45178572Y-144550000D01*
X45216667Y-144588095D01*
X45254762Y-144664286D01*
X45254762Y-144778571D01*
X45216667Y-144854762D01*
X45178572Y-144892857D01*
X45102381Y-144930952D01*
X44797619Y-144930952D01*
X45559524Y-145083333D02*
X45940476Y-145083333D01*
X45483333Y-145311905D02*
X45750000Y-144511905D01*
X46016667Y-145311905D01*
X46702381Y-145311905D02*
X46245238Y-145311905D01*
X46473809Y-145311905D02*
X46473809Y-144511905D01*
X46397619Y-144626190D01*
X46321428Y-144702381D01*
X46245238Y-144740476D01*
X47197619Y-144511905D02*
X47273810Y-144511905D01*
X47350000Y-144550000D01*
X47388095Y-144588095D01*
X47426191Y-144664286D01*
X47464286Y-144816667D01*
X47464286Y-145007143D01*
X47426191Y-145159524D01*
X47388095Y-145235714D01*
X47350000Y-145273810D01*
X47273810Y-145311905D01*
X47197619Y-145311905D01*
X47121429Y-145273810D01*
X47083333Y-145235714D01*
X47045238Y-145159524D01*
X47007143Y-145007143D01*
X47007143Y-144816667D01*
X47045238Y-144664286D01*
X47083333Y-144588095D01*
X47121429Y-144550000D01*
X47197619Y-144511905D01*
X47769048Y-144588095D02*
X47807143Y-144550000D01*
X47883334Y-144511905D01*
X48073810Y-144511905D01*
X48150000Y-144550000D01*
X48188096Y-144588095D01*
X48226191Y-144664286D01*
X48226191Y-144740476D01*
X48188096Y-144854762D01*
X47730953Y-145311905D01*
X48226191Y-145311905D01*
X39783333Y-140226190D02*
X39783333Y-139845238D01*
X40011905Y-140302381D02*
X39211905Y-140035714D01*
X40011905Y-139769047D01*
X40011905Y-139502381D02*
X39211905Y-139502381D01*
X39211905Y-139197619D01*
X39250000Y-139121428D01*
X39288095Y-139083333D01*
X39364286Y-139045238D01*
X39478571Y-139045238D01*
X39554762Y-139083333D01*
X39592857Y-139121428D01*
X39630952Y-139197619D01*
X39630952Y-139502381D01*
X39783333Y-138740476D02*
X39783333Y-138359524D01*
X40011905Y-138816667D02*
X39211905Y-138550000D01*
X40011905Y-138283333D01*
X40011905Y-137597619D02*
X40011905Y-138054762D01*
X40011905Y-137826191D02*
X39211905Y-137826191D01*
X39326190Y-137902381D01*
X39402381Y-137978572D01*
X39440476Y-138054762D01*
X39211905Y-137102381D02*
X39211905Y-137026190D01*
X39250000Y-136950000D01*
X39288095Y-136911905D01*
X39364286Y-136873809D01*
X39516667Y-136835714D01*
X39707143Y-136835714D01*
X39859524Y-136873809D01*
X39935714Y-136911905D01*
X39973810Y-136950000D01*
X40011905Y-137026190D01*
X40011905Y-137102381D01*
X39973810Y-137178571D01*
X39935714Y-137216667D01*
X39859524Y-137254762D01*
X39707143Y-137292857D01*
X39516667Y-137292857D01*
X39364286Y-137254762D01*
X39288095Y-137216667D01*
X39250000Y-137178571D01*
X39211905Y-137102381D01*
X39288095Y-136530952D02*
X39250000Y-136492857D01*
X39211905Y-136416666D01*
X39211905Y-136226190D01*
X39250000Y-136150000D01*
X39288095Y-136111904D01*
X39364286Y-136073809D01*
X39440476Y-136073809D01*
X39554762Y-136111904D01*
X40011905Y-136569047D01*
X40011905Y-136073809D01*
X33383333Y-140226190D02*
X33383333Y-139845238D01*
X33611905Y-140302381D02*
X32811905Y-140035714D01*
X33611905Y-139769047D01*
X33611905Y-139502381D02*
X32811905Y-139502381D01*
X32811905Y-139197619D01*
X32850000Y-139121428D01*
X32888095Y-139083333D01*
X32964286Y-139045238D01*
X33078571Y-139045238D01*
X33154762Y-139083333D01*
X33192857Y-139121428D01*
X33230952Y-139197619D01*
X33230952Y-139502381D01*
X33383333Y-138740476D02*
X33383333Y-138359524D01*
X33611905Y-138816667D02*
X32811905Y-138550000D01*
X33611905Y-138283333D01*
X33611905Y-137597619D02*
X33611905Y-138054762D01*
X33611905Y-137826191D02*
X32811905Y-137826191D01*
X32926190Y-137902381D01*
X33002381Y-137978572D01*
X33040476Y-138054762D01*
X32811905Y-137102381D02*
X32811905Y-137026190D01*
X32850000Y-136950000D01*
X32888095Y-136911905D01*
X32964286Y-136873809D01*
X33116667Y-136835714D01*
X33307143Y-136835714D01*
X33459524Y-136873809D01*
X33535714Y-136911905D01*
X33573810Y-136950000D01*
X33611905Y-137026190D01*
X33611905Y-137102381D01*
X33573810Y-137178571D01*
X33535714Y-137216667D01*
X33459524Y-137254762D01*
X33307143Y-137292857D01*
X33116667Y-137292857D01*
X32964286Y-137254762D01*
X32888095Y-137216667D01*
X32850000Y-137178571D01*
X32811905Y-137102381D01*
X32888095Y-136530952D02*
X32850000Y-136492857D01*
X32811905Y-136416666D01*
X32811905Y-136226190D01*
X32850000Y-136150000D01*
X32888095Y-136111904D01*
X32964286Y-136073809D01*
X33040476Y-136073809D01*
X33154762Y-136111904D01*
X33611905Y-136569047D01*
X33611905Y-136073809D01*
D10*
X32430000Y-135006666D02*
X32463333Y-135040000D01*
X32496667Y-135140000D01*
X32496667Y-135206666D01*
X32463333Y-135306666D01*
X32396667Y-135373333D01*
X32330000Y-135406666D01*
X32196667Y-135440000D01*
X32096667Y-135440000D01*
X31963333Y-135406666D01*
X31896667Y-135373333D01*
X31830000Y-135306666D01*
X31796667Y-135206666D01*
X31796667Y-135140000D01*
X31830000Y-135040000D01*
X31863333Y-135006666D01*
X31863333Y-134740000D02*
X31830000Y-134706666D01*
X31796667Y-134640000D01*
X31796667Y-134473333D01*
X31830000Y-134406666D01*
X31863333Y-134373333D01*
X31930000Y-134340000D01*
X31996667Y-134340000D01*
X32096667Y-134373333D01*
X32496667Y-134773333D01*
X32496667Y-134340000D01*
X39910745Y-125818579D02*
X40405719Y-125323605D01*
X40523570Y-125441455D01*
X40570711Y-125535736D01*
X40570711Y-125630017D01*
X40547141Y-125700727D01*
X40476430Y-125818579D01*
X40405719Y-125889290D01*
X40287868Y-125960000D01*
X40217157Y-125983571D01*
X40122877Y-125983570D01*
X40028595Y-125936430D01*
X39910745Y-125818579D01*
X40664991Y-126572826D02*
X40382149Y-126289983D01*
X40523570Y-126431405D02*
X41018545Y-125936430D01*
X40900694Y-125960001D01*
X40806413Y-125960000D01*
X40735702Y-125936430D01*
D11*
X26983333Y-140226190D02*
X26983333Y-139845238D01*
X27211905Y-140302381D02*
X26411905Y-140035714D01*
X27211905Y-139769047D01*
X27211905Y-139502381D02*
X26411905Y-139502381D01*
X26411905Y-139197619D01*
X26450000Y-139121428D01*
X26488095Y-139083333D01*
X26564286Y-139045238D01*
X26678571Y-139045238D01*
X26754762Y-139083333D01*
X26792857Y-139121428D01*
X26830952Y-139197619D01*
X26830952Y-139502381D01*
X26983333Y-138740476D02*
X26983333Y-138359524D01*
X27211905Y-138816667D02*
X26411905Y-138550000D01*
X27211905Y-138283333D01*
X27211905Y-137597619D02*
X27211905Y-138054762D01*
X27211905Y-137826191D02*
X26411905Y-137826191D01*
X26526190Y-137902381D01*
X26602381Y-137978572D01*
X26640476Y-138054762D01*
X26411905Y-137102381D02*
X26411905Y-137026190D01*
X26450000Y-136950000D01*
X26488095Y-136911905D01*
X26564286Y-136873809D01*
X26716667Y-136835714D01*
X26907143Y-136835714D01*
X27059524Y-136873809D01*
X27135714Y-136911905D01*
X27173810Y-136950000D01*
X27211905Y-137026190D01*
X27211905Y-137102381D01*
X27173810Y-137178571D01*
X27135714Y-137216667D01*
X27059524Y-137254762D01*
X26907143Y-137292857D01*
X26716667Y-137292857D01*
X26564286Y-137254762D01*
X26488095Y-137216667D01*
X26450000Y-137178571D01*
X26411905Y-137102381D01*
X26488095Y-136530952D02*
X26450000Y-136492857D01*
X26411905Y-136416666D01*
X26411905Y-136226190D01*
X26450000Y-136150000D01*
X26488095Y-136111904D01*
X26564286Y-136073809D01*
X26640476Y-136073809D01*
X26754762Y-136111904D01*
X27211905Y-136569047D01*
X27211905Y-136073809D01*
D10*
X36750000Y-135006666D02*
X36783333Y-135040000D01*
X36816667Y-135140000D01*
X36816667Y-135206666D01*
X36783333Y-135306666D01*
X36716667Y-135373333D01*
X36650000Y-135406666D01*
X36516667Y-135440000D01*
X36416667Y-135440000D01*
X36283333Y-135406666D01*
X36216667Y-135373333D01*
X36150000Y-135306666D01*
X36116667Y-135206666D01*
X36116667Y-135140000D01*
X36150000Y-135040000D01*
X36183333Y-135006666D01*
X36116667Y-134773333D02*
X36116667Y-134340000D01*
X36383333Y-134573333D01*
X36383333Y-134473333D01*
X36416667Y-134406666D01*
X36450000Y-134373333D01*
X36516667Y-134340000D01*
X36683333Y-134340000D01*
X36750000Y-134373333D01*
X36783333Y-134406666D01*
X36816667Y-134473333D01*
X36816667Y-134673333D01*
X36783333Y-134740000D01*
X36750000Y-134773333D01*
X61330000Y-135006666D02*
X61363333Y-135040000D01*
X61396667Y-135140000D01*
X61396667Y-135206666D01*
X61363333Y-135306666D01*
X61296667Y-135373333D01*
X61230000Y-135406666D01*
X61096667Y-135440000D01*
X60996667Y-135440000D01*
X60863333Y-135406666D01*
X60796667Y-135373333D01*
X60730000Y-135306666D01*
X60696667Y-135206666D01*
X60696667Y-135140000D01*
X60730000Y-135040000D01*
X60763333Y-135006666D01*
X60696667Y-134773333D02*
X60696667Y-134306666D01*
X61396667Y-134606666D01*
X56970000Y-135080000D02*
X57003333Y-135113334D01*
X57036667Y-135213334D01*
X57036667Y-135280000D01*
X57003333Y-135380000D01*
X56936667Y-135446667D01*
X56870000Y-135480000D01*
X56736667Y-135513334D01*
X56636667Y-135513334D01*
X56503333Y-135480000D01*
X56436667Y-135446667D01*
X56370000Y-135380000D01*
X56336667Y-135280000D01*
X56336667Y-135213334D01*
X56370000Y-135113334D01*
X56403333Y-135080000D01*
X57036667Y-134413334D02*
X57036667Y-134813334D01*
X57036667Y-134613334D02*
X56336667Y-134613334D01*
X56436667Y-134680000D01*
X56503333Y-134746667D01*
X56536667Y-134813334D01*
X56336667Y-133980000D02*
X56336667Y-133913333D01*
X56370000Y-133846667D01*
X56403333Y-133813333D01*
X56470000Y-133780000D01*
X56603333Y-133746667D01*
X56770000Y-133746667D01*
X56903333Y-133780000D01*
X56970000Y-133813333D01*
X57003333Y-133846667D01*
X57036667Y-133913333D01*
X57036667Y-133980000D01*
X57003333Y-134046667D01*
X56970000Y-134080000D01*
X56903333Y-134113333D01*
X56770000Y-134146667D01*
X56603333Y-134146667D01*
X56470000Y-134113333D01*
X56403333Y-134080000D01*
X56370000Y-134046667D01*
X56336667Y-133980000D01*
D11*
X52883333Y-140626190D02*
X52883333Y-140245238D01*
X53111905Y-140702381D02*
X52311905Y-140435714D01*
X53111905Y-140169047D01*
X53111905Y-139902381D02*
X52311905Y-139902381D01*
X52311905Y-139597619D01*
X52350000Y-139521428D01*
X52388095Y-139483333D01*
X52464286Y-139445238D01*
X52578571Y-139445238D01*
X52654762Y-139483333D01*
X52692857Y-139521428D01*
X52730952Y-139597619D01*
X52730952Y-139902381D01*
X52883333Y-139140476D02*
X52883333Y-138759524D01*
X53111905Y-139216667D02*
X52311905Y-138950000D01*
X53111905Y-138683333D01*
X53111905Y-137997619D02*
X53111905Y-138454762D01*
X53111905Y-138226191D02*
X52311905Y-138226191D01*
X52426190Y-138302381D01*
X52502381Y-138378572D01*
X52540476Y-138454762D01*
X52311905Y-137502381D02*
X52311905Y-137426190D01*
X52350000Y-137350000D01*
X52388095Y-137311905D01*
X52464286Y-137273809D01*
X52616667Y-137235714D01*
X52807143Y-137235714D01*
X52959524Y-137273809D01*
X53035714Y-137311905D01*
X53073810Y-137350000D01*
X53111905Y-137426190D01*
X53111905Y-137502381D01*
X53073810Y-137578571D01*
X53035714Y-137616667D01*
X52959524Y-137654762D01*
X52807143Y-137692857D01*
X52616667Y-137692857D01*
X52464286Y-137654762D01*
X52388095Y-137616667D01*
X52350000Y-137578571D01*
X52311905Y-137502381D01*
X52388095Y-136930952D02*
X52350000Y-136892857D01*
X52311905Y-136816666D01*
X52311905Y-136626190D01*
X52350000Y-136550000D01*
X52388095Y-136511904D01*
X52464286Y-136473809D01*
X52540476Y-136473809D01*
X52654762Y-136511904D01*
X53111905Y-136969047D01*
X53111905Y-136473809D01*
X59483333Y-140626190D02*
X59483333Y-140245238D01*
X59711905Y-140702381D02*
X58911905Y-140435714D01*
X59711905Y-140169047D01*
X59711905Y-139902381D02*
X58911905Y-139902381D01*
X58911905Y-139597619D01*
X58950000Y-139521428D01*
X58988095Y-139483333D01*
X59064286Y-139445238D01*
X59178571Y-139445238D01*
X59254762Y-139483333D01*
X59292857Y-139521428D01*
X59330952Y-139597619D01*
X59330952Y-139902381D01*
X59483333Y-139140476D02*
X59483333Y-138759524D01*
X59711905Y-139216667D02*
X58911905Y-138950000D01*
X59711905Y-138683333D01*
X59711905Y-137997619D02*
X59711905Y-138454762D01*
X59711905Y-138226191D02*
X58911905Y-138226191D01*
X59026190Y-138302381D01*
X59102381Y-138378572D01*
X59140476Y-138454762D01*
X58911905Y-137502381D02*
X58911905Y-137426190D01*
X58950000Y-137350000D01*
X58988095Y-137311905D01*
X59064286Y-137273809D01*
X59216667Y-137235714D01*
X59407143Y-137235714D01*
X59559524Y-137273809D01*
X59635714Y-137311905D01*
X59673810Y-137350000D01*
X59711905Y-137426190D01*
X59711905Y-137502381D01*
X59673810Y-137578571D01*
X59635714Y-137616667D01*
X59559524Y-137654762D01*
X59407143Y-137692857D01*
X59216667Y-137692857D01*
X59064286Y-137654762D01*
X58988095Y-137616667D01*
X58950000Y-137578571D01*
X58911905Y-137502381D01*
X58988095Y-136930952D02*
X58950000Y-136892857D01*
X58911905Y-136816666D01*
X58911905Y-136626190D01*
X58950000Y-136550000D01*
X58988095Y-136511904D01*
X59064286Y-136473809D01*
X59140476Y-136473809D01*
X59254762Y-136511904D01*
X59711905Y-136969047D01*
X59711905Y-136473809D01*
D10*
X51566667Y-129654667D02*
X51566667Y-130221333D01*
X51600000Y-130288000D01*
X51633333Y-130321333D01*
X51700000Y-130354667D01*
X51833333Y-130354667D01*
X51900000Y-130321333D01*
X51933333Y-130288000D01*
X51966667Y-130221333D01*
X51966667Y-129654667D01*
X52600000Y-129888000D02*
X52600000Y-130354667D01*
X52433333Y-129621333D02*
X52266666Y-130121333D01*
X52700000Y-130121333D01*
D11*
X44473810Y-131983333D02*
X44854762Y-131983333D01*
X44397619Y-132211905D02*
X44664286Y-131411905D01*
X44930953Y-132211905D01*
X45197619Y-132211905D02*
X45197619Y-131411905D01*
X45502381Y-131411905D01*
X45578572Y-131450000D01*
X45616667Y-131488095D01*
X45654762Y-131564286D01*
X45654762Y-131678571D01*
X45616667Y-131754762D01*
X45578572Y-131792857D01*
X45502381Y-131830952D01*
X45197619Y-131830952D01*
X45959524Y-131983333D02*
X46340476Y-131983333D01*
X45883333Y-132211905D02*
X46150000Y-131411905D01*
X46416667Y-132211905D01*
X47102381Y-132211905D02*
X46645238Y-132211905D01*
X46873809Y-132211905D02*
X46873809Y-131411905D01*
X46797619Y-131526190D01*
X46721428Y-131602381D01*
X46645238Y-131640476D01*
X47597619Y-131411905D02*
X47673810Y-131411905D01*
X47750000Y-131450000D01*
X47788095Y-131488095D01*
X47826191Y-131564286D01*
X47864286Y-131716667D01*
X47864286Y-131907143D01*
X47826191Y-132059524D01*
X47788095Y-132135714D01*
X47750000Y-132173810D01*
X47673810Y-132211905D01*
X47597619Y-132211905D01*
X47521429Y-132173810D01*
X47483333Y-132135714D01*
X47445238Y-132059524D01*
X47407143Y-131907143D01*
X47407143Y-131716667D01*
X47445238Y-131564286D01*
X47483333Y-131488095D01*
X47521429Y-131450000D01*
X47597619Y-131411905D01*
X48169048Y-131488095D02*
X48207143Y-131450000D01*
X48283334Y-131411905D01*
X48473810Y-131411905D01*
X48550000Y-131450000D01*
X48588096Y-131488095D01*
X48626191Y-131564286D01*
X48626191Y-131640476D01*
X48588096Y-131754762D01*
X48130953Y-132211905D01*
X48626191Y-132211905D01*
X44473810Y-119033333D02*
X44854762Y-119033333D01*
X44397619Y-119261905D02*
X44664286Y-118461905D01*
X44930953Y-119261905D01*
X45197619Y-119261905D02*
X45197619Y-118461905D01*
X45502381Y-118461905D01*
X45578572Y-118500000D01*
X45616667Y-118538095D01*
X45654762Y-118614286D01*
X45654762Y-118728571D01*
X45616667Y-118804762D01*
X45578572Y-118842857D01*
X45502381Y-118880952D01*
X45197619Y-118880952D01*
X45959524Y-119033333D02*
X46340476Y-119033333D01*
X45883333Y-119261905D02*
X46150000Y-118461905D01*
X46416667Y-119261905D01*
X47102381Y-119261905D02*
X46645238Y-119261905D01*
X46873809Y-119261905D02*
X46873809Y-118461905D01*
X46797619Y-118576190D01*
X46721428Y-118652381D01*
X46645238Y-118690476D01*
X47597619Y-118461905D02*
X47673810Y-118461905D01*
X47750000Y-118500000D01*
X47788095Y-118538095D01*
X47826191Y-118614286D01*
X47864286Y-118766667D01*
X47864286Y-118957143D01*
X47826191Y-119109524D01*
X47788095Y-119185714D01*
X47750000Y-119223810D01*
X47673810Y-119261905D01*
X47597619Y-119261905D01*
X47521429Y-119223810D01*
X47483333Y-119185714D01*
X47445238Y-119109524D01*
X47407143Y-118957143D01*
X47407143Y-118766667D01*
X47445238Y-118614286D01*
X47483333Y-118538095D01*
X47521429Y-118500000D01*
X47597619Y-118461905D01*
X48169048Y-118538095D02*
X48207143Y-118500000D01*
X48283334Y-118461905D01*
X48473810Y-118461905D01*
X48550000Y-118500000D01*
X48588096Y-118538095D01*
X48626191Y-118614286D01*
X48626191Y-118690476D01*
X48588096Y-118804762D01*
X48130953Y-119261905D01*
X48626191Y-119261905D01*
X44473810Y-125483333D02*
X44854762Y-125483333D01*
X44397619Y-125711905D02*
X44664286Y-124911905D01*
X44930953Y-125711905D01*
X45197619Y-125711905D02*
X45197619Y-124911905D01*
X45502381Y-124911905D01*
X45578572Y-124950000D01*
X45616667Y-124988095D01*
X45654762Y-125064286D01*
X45654762Y-125178571D01*
X45616667Y-125254762D01*
X45578572Y-125292857D01*
X45502381Y-125330952D01*
X45197619Y-125330952D01*
X45959524Y-125483333D02*
X46340476Y-125483333D01*
X45883333Y-125711905D02*
X46150000Y-124911905D01*
X46416667Y-125711905D01*
X47102381Y-125711905D02*
X46645238Y-125711905D01*
X46873809Y-125711905D02*
X46873809Y-124911905D01*
X46797619Y-125026190D01*
X46721428Y-125102381D01*
X46645238Y-125140476D01*
X47597619Y-124911905D02*
X47673810Y-124911905D01*
X47750000Y-124950000D01*
X47788095Y-124988095D01*
X47826191Y-125064286D01*
X47864286Y-125216667D01*
X47864286Y-125407143D01*
X47826191Y-125559524D01*
X47788095Y-125635714D01*
X47750000Y-125673810D01*
X47673810Y-125711905D01*
X47597619Y-125711905D01*
X47521429Y-125673810D01*
X47483333Y-125635714D01*
X47445238Y-125559524D01*
X47407143Y-125407143D01*
X47407143Y-125216667D01*
X47445238Y-125064286D01*
X47483333Y-124988095D01*
X47521429Y-124950000D01*
X47597619Y-124911905D01*
X48169048Y-124988095D02*
X48207143Y-124950000D01*
X48283334Y-124911905D01*
X48473810Y-124911905D01*
X48550000Y-124950000D01*
X48588096Y-124988095D01*
X48626191Y-125064286D01*
X48626191Y-125140476D01*
X48588096Y-125254762D01*
X48130953Y-125711905D01*
X48626191Y-125711905D01*
X39341065Y-135361088D02*
X39475751Y-135293745D01*
X39644111Y-135125386D01*
X39677782Y-135024370D01*
X39677782Y-134957027D01*
X39644111Y-134856012D01*
X39576767Y-134788668D01*
X39475752Y-134754997D01*
X39408409Y-134754997D01*
X39307393Y-134788668D01*
X39139034Y-134889684D01*
X39038018Y-134923355D01*
X38970675Y-134923355D01*
X38869660Y-134889684D01*
X38802316Y-134822340D01*
X38768645Y-134721325D01*
X38768645Y-134653982D01*
X38802316Y-134552966D01*
X38970676Y-134384607D01*
X39105363Y-134317264D01*
X39307393Y-134047890D02*
X40182858Y-134586638D01*
X39812469Y-133946874D01*
X40452233Y-134317264D01*
X39913484Y-133441798D01*
X40788950Y-134115233D02*
X41327698Y-133576485D01*
X41832775Y-132936722D02*
X41260354Y-132835707D01*
X41428713Y-133340783D02*
X40721606Y-132633676D01*
X40990981Y-132364302D01*
X41091996Y-132330630D01*
X41159339Y-132330630D01*
X41260355Y-132364302D01*
X41361370Y-132465317D01*
X41395041Y-132566332D01*
X41395041Y-132633676D01*
X41361370Y-132734691D01*
X41091995Y-133004065D01*
X42068477Y-132633676D02*
X42203163Y-132566333D01*
X42371523Y-132397974D01*
X42405194Y-132296958D01*
X42405194Y-132229615D01*
X42371523Y-132128600D01*
X42304179Y-132061256D01*
X42203164Y-132027585D01*
X42135821Y-132027585D01*
X42034805Y-132061256D01*
X41866446Y-132162272D01*
X41765430Y-132195943D01*
X41698087Y-132195943D01*
X41597072Y-132162272D01*
X41529728Y-132094928D01*
X41496057Y-131993913D01*
X41496057Y-131926570D01*
X41529728Y-131825554D01*
X41698088Y-131657195D01*
X41832775Y-131589852D01*
X42001133Y-131354150D02*
X42405194Y-130950088D01*
X42910270Y-131859226D02*
X42203163Y-131152119D01*
X49321371Y-146341316D02*
X49456058Y-146273972D01*
X49624417Y-146105613D01*
X49658089Y-146004598D01*
X49658089Y-145937254D01*
X49624417Y-145836239D01*
X49557074Y-145768896D01*
X49456059Y-145735224D01*
X49388715Y-145735224D01*
X49287700Y-145768895D01*
X49119340Y-145869911D01*
X49018325Y-145903583D01*
X48950982Y-145903583D01*
X48849966Y-145869911D01*
X48782623Y-145802567D01*
X48748951Y-145701552D01*
X48748951Y-145634209D01*
X48782623Y-145533194D01*
X48950982Y-145364834D01*
X49085669Y-145297491D01*
X49287700Y-145028117D02*
X50163165Y-145566865D01*
X49792776Y-144927101D01*
X50432539Y-145297491D01*
X49893791Y-144422026D01*
X50769257Y-145095461D02*
X51308005Y-144556713D01*
X51274333Y-143714918D02*
X51038630Y-143950621D01*
X51409020Y-144321010D02*
X50701913Y-143613904D01*
X51038631Y-143277186D01*
X52351829Y-143378201D02*
X52015111Y-143714919D01*
X51308005Y-143007812D01*
X52351829Y-142974140D02*
X52688547Y-142637422D01*
X52486516Y-143243514D02*
X52015111Y-142300705D01*
X52957921Y-142772109D01*
X53126280Y-142536407D02*
X53260966Y-142469064D01*
X53429326Y-142300705D01*
X53462997Y-142199689D01*
X53462997Y-142132346D01*
X53429326Y-142031331D01*
X53361982Y-141963987D01*
X53260967Y-141930316D01*
X53193624Y-141930316D01*
X53092608Y-141963987D01*
X52924249Y-142065003D01*
X52823233Y-142098674D01*
X52755890Y-142098674D01*
X52654875Y-142065003D01*
X52587531Y-141997659D01*
X52553860Y-141896644D01*
X52553860Y-141829301D01*
X52587531Y-141728285D01*
X52755891Y-141559926D01*
X52890578Y-141492583D01*
X53867058Y-141862972D02*
X53159951Y-141155865D01*
X53496668Y-141492583D02*
X53900730Y-141088521D01*
X54271119Y-141458911D02*
X53564013Y-140751804D01*
M02*
