G04 #@! TF.FileFunction,Copper,L1,Top,Signal*
%FSLAX46Y46*%
G04 Gerber Fmt 4.6, Leading zero omitted, Abs format (unit mm)*
G04 Created by KiCad (PCBNEW 4.0.2-4+6225~38~ubuntu15.10.1-stable) date Sun 06 Mar 2016 02:01:02 PM EST*
%MOMM*%
G01*
G04 APERTURE LIST*
%ADD10C,0.100000*%
%ADD11C,0.300000*%
%ADD12R,1.400000X1.400000*%
%ADD13R,1.300000X1.400000*%
%ADD14C,1.399540*%
%ADD15C,1.500000*%
%ADD16R,0.800000X0.750000*%
%ADD17R,1.400000X1.300000*%
%ADD18R,0.750000X0.800000*%
%ADD19O,0.300000X0.850000*%
%ADD20O,0.850000X0.300000*%
%ADD21R,1.675000X1.675000*%
%ADD22C,0.700000*%
%ADD23C,0.700000*%
%ADD24R,3.657600X2.032000*%
%ADD25R,1.016000X2.032000*%
%ADD26C,0.600000*%
%ADD27C,0.250000*%
%ADD28C,0.400000*%
%ADD29C,0.200000*%
G04 APERTURE END LIST*
D10*
D11*
X130050000Y-145650000D03*
X130050000Y-145150000D03*
X130050000Y-146150000D03*
X128450000Y-145650000D03*
X128450000Y-145150000D03*
X128450000Y-146150000D03*
X109900000Y-111350000D03*
X108700000Y-111350000D03*
X109300000Y-111350000D03*
X109850000Y-109450000D03*
X108650000Y-109450000D03*
X109250000Y-109450000D03*
X109850000Y-99950000D03*
X108650000Y-99950000D03*
X109250000Y-99950000D03*
X109900000Y-98050000D03*
X108700000Y-98050000D03*
X109300000Y-98050000D03*
X109850000Y-88550000D03*
X108650000Y-88550000D03*
X109250000Y-88550000D03*
X109850000Y-86250000D03*
X108650000Y-86250000D03*
X109250000Y-86250000D03*
X149500000Y-86200000D03*
X148300000Y-86200000D03*
X148900000Y-86200000D03*
X149450000Y-88500000D03*
X148250000Y-88500000D03*
X148850000Y-88500000D03*
X149450000Y-98000000D03*
X148250000Y-98000000D03*
X148850000Y-98000000D03*
X149450000Y-99950000D03*
X148250000Y-99950000D03*
X148850000Y-99950000D03*
X149500000Y-109450000D03*
X148300000Y-109450000D03*
X148900000Y-109450000D03*
X149600000Y-120900000D03*
X150150000Y-120900000D03*
X149100000Y-120900000D03*
X150700000Y-120900000D03*
X149050000Y-122900000D03*
X150100000Y-122900000D03*
X149550000Y-122900000D03*
X150650000Y-122900000D03*
X108700000Y-120800000D03*
X109250000Y-120800000D03*
X108150000Y-120800000D03*
X107650000Y-120800000D03*
D12*
X107300000Y-134800000D03*
X107300000Y-130400000D03*
D13*
X105700000Y-130400000D03*
X105700000Y-134800000D03*
D12*
X104100000Y-134800000D03*
X104100000Y-130400000D03*
X107300000Y-141250000D03*
X107300000Y-136850000D03*
D13*
X105700000Y-136850000D03*
X105700000Y-141250000D03*
D12*
X104100000Y-141250000D03*
X104100000Y-136850000D03*
X107300000Y-128350000D03*
X107300000Y-123950000D03*
D13*
X105700000Y-123950000D03*
X105700000Y-128350000D03*
D12*
X104100000Y-128350000D03*
X104100000Y-123950000D03*
D14*
X101171296Y-137440511D03*
X97280511Y-141331296D03*
X98693000Y-134962215D03*
X94731504Y-138782289D03*
D15*
X102100000Y-126820000D03*
X102100000Y-124280000D03*
D10*
G36*
X100156205Y-134180165D02*
X100720165Y-133616205D01*
X101284125Y-134180165D01*
X100720165Y-134744125D01*
X100156205Y-134180165D01*
X100156205Y-134180165D01*
G37*
G36*
X101215875Y-135239835D02*
X101779835Y-134675875D01*
X102343795Y-135239835D01*
X101779835Y-135803795D01*
X101215875Y-135239835D01*
X101215875Y-135239835D01*
G37*
D15*
X109250000Y-126820000D03*
X109250000Y-124280000D03*
D16*
X110550000Y-156300000D03*
X109050000Y-156300000D03*
X109050000Y-158000000D03*
X110550000Y-158000000D03*
D12*
X104100000Y-156400000D03*
X104100000Y-160800000D03*
D13*
X105700000Y-160800000D03*
X105700000Y-156400000D03*
D12*
X107300000Y-156400000D03*
X107300000Y-160800000D03*
X104100000Y-162850000D03*
X104100000Y-167250000D03*
D13*
X105700000Y-167250000D03*
X105700000Y-162850000D03*
D12*
X107300000Y-162850000D03*
X107300000Y-167250000D03*
D15*
X109300000Y-164110000D03*
X109300000Y-166650000D03*
X102100000Y-164080000D03*
X102100000Y-166620000D03*
D12*
X94800000Y-144000000D03*
X90400000Y-144000000D03*
D17*
X90400000Y-145600000D03*
X94800000Y-145600000D03*
D12*
X94800000Y-147200000D03*
X90400000Y-147200000D03*
D15*
X87020000Y-149150000D03*
X84480000Y-149150000D03*
D18*
X92730000Y-140690000D03*
X92730000Y-142190000D03*
D19*
X100550000Y-149650000D03*
X100050000Y-149650000D03*
X99550000Y-149650000D03*
X99050000Y-149650000D03*
X98550000Y-149650000D03*
X98050000Y-149650000D03*
X97550000Y-149650000D03*
D20*
X96600000Y-150600000D03*
X96600000Y-151100000D03*
X96600000Y-151600000D03*
X96600000Y-152100000D03*
X96600000Y-152600000D03*
X96600000Y-153100000D03*
X96600000Y-153600000D03*
D19*
X97550000Y-154550000D03*
X98050000Y-154550000D03*
X98550000Y-154550000D03*
X99050000Y-154550000D03*
X99550000Y-154550000D03*
X100050000Y-154550000D03*
X100550000Y-154550000D03*
D20*
X101500000Y-153600000D03*
X101500000Y-153100000D03*
X101500000Y-152600000D03*
X101500000Y-152100000D03*
X101500000Y-151600000D03*
X101500000Y-151100000D03*
X101500000Y-150600000D03*
D21*
X98212500Y-152937500D03*
X99887500Y-152937500D03*
X98212500Y-151262500D03*
X99887500Y-151262500D03*
D12*
X88400000Y-144000000D03*
X84000000Y-144000000D03*
D17*
X84000000Y-145600000D03*
X88400000Y-145600000D03*
D12*
X88400000Y-147200000D03*
X84000000Y-147200000D03*
D18*
X94550000Y-142190000D03*
X94550000Y-140690000D03*
D12*
X101200000Y-144000000D03*
X96800000Y-144000000D03*
D17*
X96800000Y-145600000D03*
X101200000Y-145600000D03*
D12*
X101200000Y-147200000D03*
X96800000Y-147200000D03*
D15*
X87020000Y-142050000D03*
X84480000Y-142050000D03*
D18*
X118650000Y-142150000D03*
X118650000Y-140650000D03*
X116650000Y-142130000D03*
X116650000Y-140630000D03*
D12*
X109950000Y-147200000D03*
X114350000Y-147200000D03*
D17*
X114350000Y-145600000D03*
X109950000Y-145600000D03*
D12*
X109950000Y-144000000D03*
X114350000Y-144000000D03*
D22*
X107864186Y-142895559D02*
X108217740Y-143249113D01*
X102808373Y-147951373D02*
X103161927Y-148304927D01*
D23*
X104399717Y-146399627D03*
X105342644Y-145456700D03*
X106240669Y-144558675D03*
X105389313Y-146431093D03*
X106326229Y-145529532D03*
D12*
X116500000Y-147200000D03*
X120900000Y-147200000D03*
D17*
X120900000Y-145600000D03*
X116500000Y-145600000D03*
D12*
X116500000Y-144000000D03*
X120900000Y-144000000D03*
X104100000Y-150000000D03*
X104100000Y-154400000D03*
D13*
X105700000Y-154400000D03*
X105700000Y-150000000D03*
D12*
X107300000Y-150000000D03*
X107300000Y-154400000D03*
D14*
X109928704Y-153879489D03*
X113819489Y-149988704D03*
X112407000Y-156357785D03*
X116368496Y-152537711D03*
D15*
X110320000Y-119700000D03*
X107780000Y-119700000D03*
D12*
X111810000Y-103100000D03*
X107410000Y-103100000D03*
D17*
X107410000Y-104700000D03*
X111810000Y-104700000D03*
D12*
X111810000Y-106300000D03*
X107410000Y-106300000D03*
X111800000Y-114500000D03*
X107400000Y-114500000D03*
D17*
X107400000Y-116100000D03*
X111800000Y-116100000D03*
D12*
X111800000Y-117700000D03*
X107400000Y-117700000D03*
X118250000Y-114500000D03*
X113850000Y-114500000D03*
D17*
X113850000Y-116100000D03*
X118250000Y-116100000D03*
D12*
X118250000Y-117700000D03*
X113850000Y-117700000D03*
X118350000Y-103100000D03*
X113950000Y-103100000D03*
D17*
X113950000Y-104700000D03*
X118350000Y-104700000D03*
D12*
X118350000Y-106300000D03*
X113950000Y-106300000D03*
D15*
X110270000Y-108300000D03*
X107730000Y-108300000D03*
X110270000Y-101100000D03*
X107730000Y-101100000D03*
X110320000Y-112500000D03*
X107780000Y-112500000D03*
X110290000Y-96850000D03*
X107750000Y-96850000D03*
D12*
X111800000Y-91700000D03*
X107400000Y-91700000D03*
D17*
X107400000Y-93300000D03*
X111800000Y-93300000D03*
D12*
X111800000Y-94900000D03*
X107400000Y-94900000D03*
X111800000Y-79900000D03*
X107400000Y-79900000D03*
D17*
X107400000Y-81500000D03*
X111800000Y-81500000D03*
D12*
X111800000Y-83100000D03*
X107400000Y-83100000D03*
D15*
X110270000Y-85100000D03*
X107730000Y-85100000D03*
X110270000Y-77950000D03*
X107730000Y-77950000D03*
X110320000Y-89650000D03*
X107780000Y-89650000D03*
D12*
X131250000Y-79900000D03*
X126850000Y-79900000D03*
D17*
X126850000Y-81500000D03*
X131250000Y-81500000D03*
D12*
X131250000Y-83100000D03*
X126850000Y-83100000D03*
X137750000Y-79900000D03*
X133350000Y-79900000D03*
D17*
X133350000Y-81500000D03*
X137750000Y-81500000D03*
D12*
X137750000Y-83100000D03*
X133350000Y-83100000D03*
X137750000Y-91700000D03*
X133350000Y-91700000D03*
D17*
X133350000Y-93300000D03*
X137750000Y-93300000D03*
D12*
X137750000Y-94900000D03*
X133350000Y-94900000D03*
X131300000Y-91700000D03*
X126900000Y-91700000D03*
D17*
X126900000Y-93300000D03*
X131300000Y-93300000D03*
D12*
X131300000Y-94900000D03*
X126900000Y-94900000D03*
X131250000Y-114500000D03*
X126850000Y-114500000D03*
D17*
X126850000Y-116100000D03*
X131250000Y-116100000D03*
D12*
X131250000Y-117700000D03*
X126850000Y-117700000D03*
X131310000Y-103100000D03*
X126910000Y-103100000D03*
D17*
X126910000Y-104700000D03*
X131310000Y-104700000D03*
D12*
X131310000Y-106300000D03*
X126910000Y-106300000D03*
X124850000Y-103100000D03*
X120450000Y-103100000D03*
D17*
X120450000Y-104700000D03*
X124850000Y-104700000D03*
D12*
X124850000Y-106300000D03*
X120450000Y-106300000D03*
X137750000Y-114500000D03*
X133350000Y-114500000D03*
D17*
X133350000Y-116100000D03*
X137750000Y-116100000D03*
D12*
X137750000Y-117700000D03*
X133350000Y-117700000D03*
X137800000Y-103100000D03*
X133400000Y-103100000D03*
D17*
X133400000Y-104700000D03*
X137800000Y-104700000D03*
D12*
X137800000Y-106300000D03*
X133400000Y-106300000D03*
X124750000Y-114500000D03*
X120350000Y-114500000D03*
D17*
X120350000Y-116100000D03*
X124750000Y-116100000D03*
D12*
X124750000Y-117700000D03*
X120350000Y-117700000D03*
X144250000Y-79900000D03*
X139850000Y-79900000D03*
D17*
X139850000Y-81500000D03*
X144250000Y-81500000D03*
D12*
X144250000Y-83100000D03*
X139850000Y-83100000D03*
X150750000Y-79900000D03*
X146350000Y-79900000D03*
D17*
X146350000Y-81500000D03*
X150750000Y-81500000D03*
D12*
X150750000Y-83100000D03*
X146350000Y-83100000D03*
D15*
X150370000Y-85050000D03*
X147830000Y-85050000D03*
X150370000Y-77950000D03*
X147830000Y-77950000D03*
X150370000Y-96850000D03*
X147830000Y-96850000D03*
D12*
X144250000Y-91700000D03*
X139850000Y-91700000D03*
D17*
X139850000Y-93300000D03*
X144250000Y-93300000D03*
D12*
X144250000Y-94900000D03*
X139850000Y-94900000D03*
X150750000Y-91700000D03*
X146350000Y-91700000D03*
D17*
X146350000Y-93300000D03*
X150750000Y-93300000D03*
D12*
X150750000Y-94900000D03*
X146350000Y-94900000D03*
D15*
X150370000Y-89700000D03*
X147830000Y-89700000D03*
D12*
X124800000Y-91700000D03*
X120400000Y-91700000D03*
D17*
X120400000Y-93300000D03*
X124800000Y-93300000D03*
D12*
X124800000Y-94900000D03*
X120400000Y-94900000D03*
X118300000Y-91700000D03*
X113900000Y-91700000D03*
D17*
X113900000Y-93300000D03*
X118300000Y-93300000D03*
D12*
X118300000Y-94900000D03*
X113900000Y-94900000D03*
X118250000Y-79900000D03*
X113850000Y-79900000D03*
D17*
X113850000Y-81500000D03*
X118250000Y-81500000D03*
D12*
X118250000Y-83100000D03*
X113850000Y-83100000D03*
X124750000Y-79900000D03*
X120350000Y-79900000D03*
D17*
X120350000Y-81500000D03*
X124750000Y-81500000D03*
D12*
X124750000Y-83100000D03*
X120350000Y-83100000D03*
X144300000Y-103100000D03*
X139900000Y-103100000D03*
D17*
X139900000Y-104700000D03*
X144300000Y-104700000D03*
D12*
X144300000Y-106300000D03*
X139900000Y-106300000D03*
X150750000Y-103100000D03*
X146350000Y-103100000D03*
D17*
X146350000Y-104700000D03*
X150750000Y-104700000D03*
D12*
X150750000Y-106300000D03*
X146350000Y-106300000D03*
D15*
X150370000Y-101100000D03*
X147830000Y-101100000D03*
D12*
X150700000Y-114500000D03*
X146300000Y-114500000D03*
D17*
X146300000Y-116100000D03*
X150700000Y-116100000D03*
D12*
X150700000Y-117700000D03*
X146300000Y-117700000D03*
D15*
X150370000Y-108300000D03*
X147830000Y-108300000D03*
D12*
X144250000Y-114500000D03*
X139850000Y-114500000D03*
D17*
X139850000Y-116100000D03*
X144250000Y-116100000D03*
D12*
X144250000Y-117700000D03*
X139850000Y-117700000D03*
D15*
X150420000Y-119700000D03*
X147880000Y-119700000D03*
X150420000Y-112500000D03*
X147880000Y-112500000D03*
X124280000Y-149150000D03*
X126820000Y-149150000D03*
D12*
X154450000Y-153750000D03*
X154450000Y-149350000D03*
D13*
X152850000Y-149350000D03*
X152850000Y-153750000D03*
D12*
X151250000Y-153750000D03*
X151250000Y-149350000D03*
X122950000Y-147200000D03*
X127350000Y-147200000D03*
D17*
X127350000Y-145600000D03*
X122950000Y-145600000D03*
D12*
X122950000Y-144000000D03*
X127350000Y-144000000D03*
D15*
X149300000Y-166670000D03*
X149300000Y-164130000D03*
X156400000Y-166720000D03*
X156400000Y-164180000D03*
D12*
X154450000Y-167150000D03*
X154450000Y-162750000D03*
D13*
X152850000Y-162750000D03*
X152850000Y-167150000D03*
D12*
X151250000Y-167150000D03*
X151250000Y-162750000D03*
X154450000Y-160450000D03*
X154450000Y-156050000D03*
D13*
X152850000Y-156050000D03*
X152850000Y-160450000D03*
D12*
X151250000Y-160450000D03*
X151250000Y-156050000D03*
D15*
X124230000Y-142000000D03*
X126770000Y-142000000D03*
D12*
X144150000Y-147150000D03*
X148550000Y-147150000D03*
D17*
X148550000Y-145550000D03*
X144150000Y-145550000D03*
D12*
X144150000Y-143950000D03*
X148550000Y-143950000D03*
X151250000Y-137300000D03*
X151250000Y-141700000D03*
D13*
X152850000Y-141700000D03*
X152850000Y-137300000D03*
D12*
X154450000Y-137300000D03*
X154450000Y-141700000D03*
X150650000Y-147150000D03*
X155050000Y-147150000D03*
D17*
X155050000Y-145550000D03*
X150650000Y-145550000D03*
D12*
X150650000Y-143950000D03*
X155050000Y-143950000D03*
D15*
X131530000Y-149100000D03*
X134070000Y-149100000D03*
X131550000Y-141950000D03*
X134090000Y-141950000D03*
D12*
X131150000Y-147150000D03*
X135550000Y-147150000D03*
D17*
X135550000Y-145550000D03*
X131150000Y-145550000D03*
D12*
X131150000Y-143950000D03*
X135550000Y-143950000D03*
X137650000Y-147150000D03*
X142050000Y-147150000D03*
D17*
X142050000Y-145550000D03*
X137650000Y-145550000D03*
D12*
X137650000Y-143950000D03*
X142050000Y-143950000D03*
D15*
X174020000Y-149150000D03*
X171480000Y-149150000D03*
D12*
X168000000Y-143950000D03*
X163600000Y-143950000D03*
D17*
X163600000Y-145550000D03*
X168000000Y-145550000D03*
D12*
X168000000Y-147150000D03*
X163600000Y-147150000D03*
X174500000Y-143950000D03*
X170100000Y-143950000D03*
D17*
X170100000Y-145550000D03*
X174500000Y-145550000D03*
D12*
X174500000Y-147150000D03*
X170100000Y-147150000D03*
X161500000Y-143950000D03*
X157100000Y-143950000D03*
D17*
X157100000Y-145550000D03*
X161500000Y-145550000D03*
D12*
X161500000Y-147150000D03*
X157100000Y-147150000D03*
D15*
X174070000Y-142000000D03*
X171530000Y-142000000D03*
D12*
X151250000Y-123950000D03*
X151250000Y-128350000D03*
D13*
X152850000Y-128350000D03*
X152850000Y-123950000D03*
D12*
X154450000Y-123950000D03*
X154450000Y-128350000D03*
X151250000Y-130600000D03*
X151250000Y-135000000D03*
D13*
X152850000Y-135000000D03*
X152850000Y-130600000D03*
D12*
X154450000Y-130600000D03*
X154450000Y-135000000D03*
D15*
X156400000Y-124330000D03*
X156400000Y-126870000D03*
X149300000Y-124330000D03*
X149300000Y-126870000D03*
D24*
X111850000Y-135098000D03*
D25*
X111850000Y-141702000D03*
X114136000Y-141702000D03*
X109564000Y-141702000D03*
D11*
X109250000Y-122950000D03*
X108700000Y-122950000D03*
X108150000Y-122950000D03*
X107650000Y-122950000D03*
X149500000Y-111400000D03*
X148900000Y-111400000D03*
X148300000Y-111400000D03*
D23*
X117650000Y-140650000D03*
X120597300Y-142311800D03*
X91763600Y-141948100D03*
X114128600Y-140120400D03*
X110026600Y-155183800D03*
X95722300Y-149650000D03*
D26*
X101688300Y-133334300D03*
D23*
X102779300Y-136561000D03*
D26*
X103443100Y-143170600D03*
D23*
X103084000Y-146981600D03*
D26*
X102642900Y-150467000D03*
X99660300Y-147786400D03*
X99772500Y-148673800D03*
X91453400Y-148718700D03*
X90298700Y-148890100D03*
D23*
X113205400Y-151499000D03*
X107851700Y-139790300D03*
X108683900Y-144165800D03*
X110746000Y-142736700D03*
X99634000Y-145600000D03*
X98546800Y-145579600D03*
D26*
X117025500Y-79548700D03*
X129946400Y-79676600D03*
X136352600Y-79489800D03*
X123412400Y-79465100D03*
X121568000Y-79900000D03*
X115179400Y-79900000D03*
X128071100Y-80095800D03*
X134603600Y-80296900D03*
X141408800Y-80296900D03*
X147556500Y-80296900D03*
X130049400Y-91613400D03*
X136362000Y-91471500D03*
X123509200Y-91613400D03*
X116780600Y-91205900D03*
X121614800Y-91700000D03*
X115176600Y-91700000D03*
X141051100Y-92211500D03*
X147553800Y-91717500D03*
X134733800Y-92238800D03*
X128443700Y-92238800D03*
X130097700Y-102913000D03*
X116971500Y-102746800D03*
X135928400Y-102913000D03*
X123152700Y-102746800D03*
X121778500Y-103403200D03*
X134829800Y-103554800D03*
X141105600Y-103669200D03*
X147588400Y-103234100D03*
X115187400Y-103125400D03*
X128118100Y-103554800D03*
X116784700Y-114282500D03*
X129939000Y-114191900D03*
X135877000Y-114106900D03*
X123242700Y-114191900D03*
X134662000Y-114850800D03*
X147524300Y-114500000D03*
X122120600Y-114955800D03*
X128192600Y-114955800D03*
X141444000Y-114850800D03*
X115149100Y-114791500D03*
X145356000Y-147059600D03*
X151851600Y-147061600D03*
X134334200Y-147279000D03*
X140527800Y-145845000D03*
X146764900Y-145799800D03*
X153250800Y-146142500D03*
X150783800Y-138503000D03*
X151281400Y-133792300D03*
X151470900Y-140445900D03*
X151281400Y-127144900D03*
X160293700Y-143576500D03*
X171334800Y-143784700D03*
X165444800Y-144183200D03*
X159296800Y-143802000D03*
X154952200Y-152545600D03*
X153295600Y-158095000D03*
X154070600Y-150674300D03*
X155126000Y-164106300D03*
D27*
X103900000Y-149800000D02*
X104100000Y-150000000D01*
X99550000Y-150925000D02*
X99887500Y-151262000D01*
X99550000Y-149650000D02*
X99550000Y-150925000D01*
D28*
X99887500Y-151262000D02*
X98212500Y-151262000D01*
D27*
X103900000Y-149800000D02*
X104100000Y-150000000D01*
D28*
X99887500Y-151262500D02*
X99887500Y-151262000D01*
D29*
X98212500Y-152938000D02*
X98212500Y-152937500D01*
X98212500Y-152937500D02*
X98212500Y-151262500D01*
D28*
X98212500Y-151262500D02*
X98212500Y-152937500D01*
X98212500Y-152937500D02*
X98212500Y-152938000D01*
X99887500Y-152938000D02*
X99887500Y-152937500D01*
X98212500Y-152938000D02*
X99887500Y-152938000D01*
X99887500Y-152937500D02*
X99887500Y-151262500D01*
D27*
X102985100Y-148128100D02*
X102330900Y-147473900D01*
X87944700Y-142974700D02*
X88400000Y-142974700D01*
X87020000Y-142050000D02*
X87944700Y-142974700D01*
X88400000Y-144000000D02*
X88400000Y-142974700D01*
D28*
X98212500Y-151262200D02*
X98212500Y-151262500D01*
D29*
X98212500Y-151262500D02*
X98212500Y-151262200D01*
X98212500Y-151262200D02*
X98212500Y-151262100D01*
X98212500Y-151262100D02*
X98212500Y-151262000D01*
D28*
X98212500Y-151262000D02*
X98212500Y-151262100D01*
X98212500Y-151262100D02*
X98212500Y-151262200D01*
D27*
X118650000Y-140650000D02*
X118062300Y-140650000D01*
X118062300Y-140650000D02*
X117650000Y-140650000D01*
X117370300Y-140650000D02*
X117350300Y-140630000D01*
X117650000Y-140650000D02*
X117370300Y-140650000D01*
X116650000Y-140630000D02*
X117350300Y-140630000D01*
X94740600Y-142915300D02*
X94800000Y-142974700D01*
X94550000Y-142915300D02*
X94740600Y-142915300D01*
X94800000Y-144000000D02*
X94800000Y-142974700D01*
X103074700Y-163105300D02*
X103074700Y-162850000D01*
X102100000Y-164080000D02*
X103074700Y-163105300D01*
X104100000Y-162850000D02*
X103074700Y-162850000D01*
X107300000Y-142331300D02*
X107300000Y-141250000D01*
X107386700Y-142417900D02*
X107300000Y-142331300D01*
X109564000Y-141702000D02*
X109564000Y-141031300D01*
X107300000Y-141250000D02*
X108325300Y-141250000D01*
X107300000Y-128350000D02*
X107812700Y-128350000D01*
X108041000Y-143072300D02*
X107943300Y-142974600D01*
X107943300Y-142974600D02*
X107386700Y-142417900D01*
X107824800Y-142974600D02*
X107943300Y-142974600D01*
X106240700Y-144558700D02*
X107824800Y-142974600D01*
X107812700Y-128257300D02*
X107812700Y-128350000D01*
X109250000Y-126820000D02*
X107812700Y-128257300D01*
X116650000Y-140630000D02*
X115949700Y-140630000D01*
X108544000Y-141031300D02*
X108325300Y-141250000D01*
X109564000Y-141031300D02*
X108544000Y-141031300D01*
X111154400Y-139440900D02*
X109564000Y-141031300D01*
X114760600Y-139440900D02*
X111154400Y-139440900D01*
X115949700Y-140630000D02*
X114760600Y-139440900D01*
X92730000Y-140690000D02*
X92029700Y-140690000D01*
X107300000Y-134800000D02*
X107300000Y-133774700D01*
X92730000Y-140690000D02*
X93430300Y-140690000D01*
X100850100Y-135136700D02*
X98693000Y-135136700D01*
X102212100Y-133774700D02*
X100850100Y-135136700D01*
X107300000Y-133774700D02*
X102212100Y-133774700D01*
X98693000Y-135136700D02*
X98693000Y-134962200D01*
X95047400Y-138782300D02*
X98693000Y-135136700D01*
X94731500Y-138782300D02*
X95047400Y-138782300D01*
X110550000Y-158000000D02*
X110550000Y-158700300D01*
X104100000Y-156400000D02*
X104100000Y-157425300D01*
X108310800Y-157425300D02*
X104100000Y-157425300D01*
X108310800Y-158497900D02*
X108310800Y-157425300D01*
X108513200Y-158700300D02*
X108310800Y-158497900D01*
X110550000Y-158700300D02*
X108513200Y-158700300D01*
X109050000Y-156662800D02*
X109050000Y-156300000D01*
X108310800Y-157402000D02*
X109050000Y-156662800D01*
X108310800Y-157425300D02*
X108310800Y-157402000D01*
X112407000Y-156357800D02*
X112477700Y-156357800D01*
X111275300Y-157560200D02*
X111275300Y-158000000D01*
X112477700Y-156357800D02*
X111275300Y-157560200D01*
X110550000Y-158000000D02*
X111275300Y-158000000D01*
X116500000Y-147200000D02*
X117525300Y-147200000D01*
X112548400Y-156357800D02*
X116368500Y-152537700D01*
X112477700Y-156357800D02*
X112548400Y-156357800D01*
X123355300Y-148225300D02*
X122950000Y-148225300D01*
X124280000Y-149150000D02*
X123355300Y-148225300D01*
X122950000Y-147200000D02*
X122950000Y-148225300D01*
X118550600Y-148225300D02*
X122950000Y-148225300D01*
X118550600Y-150355600D02*
X118550600Y-148225300D01*
X116368500Y-152537700D02*
X118550600Y-150355600D01*
X118550600Y-148225300D02*
X117525300Y-147200000D01*
X94550000Y-142190000D02*
X94550000Y-142915300D01*
X101400000Y-149750000D02*
X103627500Y-149750000D01*
X99887500Y-151262000D02*
X101400000Y-149750000D01*
X103850000Y-149750000D02*
X103900000Y-149800000D01*
X103627500Y-149750000D02*
X103850000Y-149750000D01*
X103627500Y-148794300D02*
X103639400Y-148782400D01*
X103627500Y-149750000D02*
X103627500Y-148794300D01*
X102985100Y-148128100D02*
X103639400Y-148782400D01*
X95950600Y-142890300D02*
X95250300Y-142190000D01*
X99065000Y-142890300D02*
X95950600Y-142890300D01*
X100174700Y-144000000D02*
X99065000Y-142890300D01*
X101200000Y-144000000D02*
X100174700Y-144000000D01*
X94550000Y-142190000D02*
X94900200Y-142190000D01*
X94900200Y-142190000D02*
X95250300Y-142190000D01*
X95250400Y-140071200D02*
X94562200Y-139383000D01*
X95250400Y-141839800D02*
X95250400Y-140071200D01*
X94900200Y-142190000D02*
X95250400Y-141839800D01*
X93430300Y-140514900D02*
X94562200Y-139383000D01*
X93430300Y-140690000D02*
X93430300Y-140514900D01*
X94731500Y-139213700D02*
X94731500Y-138782300D01*
X94562200Y-139383000D02*
X94731500Y-139213700D01*
X102330900Y-144792900D02*
X102565100Y-144558700D01*
X102330900Y-147473900D02*
X102330900Y-144792900D01*
X102225300Y-144218900D02*
X102225300Y-144000000D01*
X102565100Y-144558700D02*
X102225300Y-144218900D01*
X101200000Y-144000000D02*
X102225300Y-144000000D01*
X102565100Y-144558700D02*
X106240700Y-144558700D01*
X108924700Y-147158000D02*
X108924700Y-147200000D01*
X106325400Y-144558700D02*
X108924700Y-147158000D01*
X106240700Y-144558700D02*
X106325400Y-144558700D01*
X109950000Y-147200000D02*
X108924700Y-147200000D01*
X89745000Y-142974700D02*
X88400000Y-142974700D01*
X92029700Y-140690000D02*
X89745000Y-142974700D01*
X105700000Y-136850000D02*
X105700000Y-134800000D01*
X104100000Y-136850000D02*
X104100000Y-134800000D01*
X116500000Y-145600000D02*
X114350000Y-145600000D01*
X116500000Y-144000000D02*
X114350000Y-144000000D01*
X105700000Y-154400000D02*
X105700000Y-156400000D01*
X107300000Y-154400000D02*
X107300000Y-156400000D01*
X96800000Y-145600000D02*
X94800000Y-145600000D01*
X96800000Y-147200000D02*
X94800000Y-147200000D01*
X105700000Y-128350000D02*
X105700000Y-130400000D01*
X104100000Y-128350000D02*
X104100000Y-130400000D01*
X122950000Y-145600000D02*
X120900000Y-145600000D01*
X122950000Y-144000000D02*
X120900000Y-144000000D01*
X124230000Y-143505300D02*
X126324700Y-145600000D01*
X124230000Y-142000000D02*
X124230000Y-143505300D01*
X127350000Y-145600000D02*
X126324700Y-145600000D01*
X127350000Y-142580000D02*
X127350000Y-144000000D01*
X126770000Y-142000000D02*
X127350000Y-142580000D01*
X107814700Y-164110000D02*
X105700000Y-166224700D01*
X109300000Y-164110000D02*
X107814700Y-164110000D01*
X105700000Y-167250000D02*
X105700000Y-166224700D01*
X108925300Y-166650000D02*
X108325300Y-167250000D01*
X109300000Y-166650000D02*
X108925300Y-166650000D01*
X107300000Y-167250000D02*
X108325300Y-167250000D01*
X87020000Y-147594700D02*
X85025300Y-145600000D01*
X87020000Y-149150000D02*
X87020000Y-147594700D01*
X84000000Y-145600000D02*
X85025300Y-145600000D01*
X84000000Y-148670000D02*
X84000000Y-147200000D01*
X84480000Y-149150000D02*
X84000000Y-148670000D01*
X146350000Y-81500000D02*
X144250000Y-81500000D01*
X146350000Y-83100000D02*
X144250000Y-83100000D01*
X146350000Y-93300000D02*
X144250000Y-93300000D01*
X146350000Y-94900000D02*
X144250000Y-94900000D01*
X146350000Y-104700000D02*
X144300000Y-104700000D01*
X146350000Y-106300000D02*
X144300000Y-106300000D01*
X144250000Y-116100000D02*
X146300000Y-116100000D01*
X144250000Y-117700000D02*
X146300000Y-117700000D01*
X139850000Y-81500000D02*
X137750000Y-81500000D01*
X139850000Y-83100000D02*
X137750000Y-83100000D01*
X139850000Y-93300000D02*
X137750000Y-93300000D01*
X139850000Y-94900000D02*
X137750000Y-94900000D01*
X139900000Y-104700000D02*
X137800000Y-104700000D01*
X139900000Y-106300000D02*
X137800000Y-106300000D01*
X139850000Y-116100000D02*
X137750000Y-116100000D01*
X139850000Y-117700000D02*
X137750000Y-117700000D01*
X133350000Y-81500000D02*
X131250000Y-81500000D01*
X133350000Y-83100000D02*
X131250000Y-83100000D01*
X131300000Y-93300000D02*
X133350000Y-93300000D01*
X131300000Y-94900000D02*
X133350000Y-94900000D01*
X133400000Y-104700000D02*
X131310000Y-104700000D01*
X133400000Y-106300000D02*
X131310000Y-106300000D01*
X133350000Y-116100000D02*
X131250000Y-116100000D01*
X133350000Y-117700000D02*
X131250000Y-117700000D01*
X124750000Y-81500000D02*
X126850000Y-81500000D01*
X124750000Y-83100000D02*
X126850000Y-83100000D01*
X127350000Y-148620000D02*
X127350000Y-147200000D01*
X126820000Y-149150000D02*
X127350000Y-148620000D01*
X84000000Y-142530000D02*
X84000000Y-144000000D01*
X84480000Y-142050000D02*
X84000000Y-142530000D01*
X102444700Y-166620000D02*
X103074700Y-167250000D01*
X102100000Y-166620000D02*
X102444700Y-166620000D01*
X104100000Y-167250000D02*
X103074700Y-167250000D01*
X107300000Y-123950000D02*
X108325300Y-123950000D01*
X108655300Y-124280000D02*
X108325300Y-123950000D01*
X109250000Y-124280000D02*
X108655300Y-124280000D01*
X107300000Y-130400000D02*
X107300000Y-131425300D01*
X107300000Y-123950000D02*
X107300000Y-124975300D01*
X105230200Y-127045100D02*
X107300000Y-124975300D01*
X103542500Y-127045100D02*
X105230200Y-127045100D01*
X103045800Y-127541800D02*
X103542500Y-127045100D01*
X103045800Y-131205900D02*
X103045800Y-127541800D01*
X103265200Y-131425300D02*
X103045800Y-131205900D01*
X107300000Y-131425300D02*
X103265200Y-131425300D01*
X104100000Y-154400000D02*
X103074700Y-154400000D01*
X104100000Y-160800000D02*
X103074700Y-160800000D01*
X107300000Y-136850000D02*
X108325300Y-136850000D01*
X118650000Y-142150000D02*
X117949700Y-142150000D01*
X120900000Y-147200000D02*
X119874700Y-147200000D01*
X117624900Y-142474800D02*
X117624900Y-142855400D01*
X117949700Y-142150000D02*
X117624900Y-142474800D01*
X117624900Y-144950200D02*
X119874700Y-147200000D01*
X117624900Y-142855400D02*
X117624900Y-144950200D01*
X114350000Y-147200000D02*
X113324700Y-147200000D01*
X114192100Y-141758100D02*
X114136000Y-141702000D01*
X114192100Y-142278700D02*
X114192100Y-141758100D01*
X114768800Y-142855400D02*
X114192100Y-142278700D01*
X117624900Y-142855400D02*
X114768800Y-142855400D01*
X118650000Y-142150000D02*
X119350300Y-142150000D01*
X120435500Y-142150000D02*
X120597300Y-142311800D01*
X119350300Y-142150000D02*
X120435500Y-142150000D01*
X103074700Y-160800000D02*
X103074700Y-154400000D01*
X92730000Y-142190000D02*
X93430300Y-142190000D01*
X119350300Y-140115200D02*
X119350300Y-142150000D01*
X116085100Y-136850000D02*
X119350300Y-140115200D01*
X108325300Y-136850000D02*
X116085100Y-136850000D01*
X108325300Y-132450600D02*
X107300000Y-131425300D01*
X108325300Y-136850000D02*
X108325300Y-132450600D01*
X93430300Y-141809700D02*
X94550000Y-140690000D01*
X93430300Y-142190000D02*
X93430300Y-141809700D01*
X113324700Y-143146100D02*
X113324700Y-147200000D01*
X114192100Y-142278700D02*
X113324700Y-143146100D01*
X104100000Y-154400000D02*
X104100000Y-153374700D01*
X105798500Y-153374700D02*
X104100000Y-153374700D01*
X108336900Y-150836300D02*
X105798500Y-153374700D01*
X108336900Y-148225800D02*
X108336900Y-150836300D01*
X112298900Y-148225800D02*
X108336900Y-148225800D01*
X113324700Y-147200000D02*
X112298900Y-148225800D01*
X106225900Y-148225800D02*
X104399700Y-146399600D01*
X108336900Y-148225800D02*
X106225900Y-148225800D01*
X96600000Y-150600000D02*
X96600000Y-150540500D01*
X96800000Y-144000000D02*
X97825300Y-144000000D01*
X95042600Y-149943300D02*
X95042600Y-149235400D01*
X95639800Y-150540500D02*
X95042600Y-149943300D01*
X96600000Y-150540500D02*
X95639800Y-150540500D01*
X97825300Y-148037000D02*
X97825300Y-144000000D01*
X97299800Y-148562500D02*
X97825300Y-148037000D01*
X95715500Y-148562500D02*
X97299800Y-148562500D01*
X95042600Y-149235400D02*
X95715500Y-148562500D01*
X91425300Y-145749500D02*
X91425300Y-144000000D01*
X94911200Y-149235400D02*
X91425300Y-145749500D01*
X95042600Y-149235400D02*
X94911200Y-149235400D01*
X90400000Y-144000000D02*
X91425300Y-144000000D01*
X92730000Y-142190000D02*
X92029700Y-142190000D01*
X92005500Y-143419800D02*
X91425300Y-144000000D01*
X92005500Y-142190000D02*
X92005500Y-143419800D01*
X92029700Y-142190000D02*
X92005500Y-142190000D01*
X92005500Y-142190000D02*
X91763600Y-141948100D01*
X111850000Y-141702000D02*
X111850000Y-140473300D01*
X116650000Y-142130000D02*
X116062300Y-142130000D01*
X114128600Y-140360700D02*
X114128600Y-140120400D01*
X114793200Y-140360700D02*
X114128600Y-140360700D01*
X116062300Y-141629800D02*
X114793200Y-140360700D01*
X116062300Y-142130000D02*
X116062300Y-141629800D01*
X111962600Y-140360700D02*
X111850000Y-140473300D01*
X114128600Y-140360700D02*
X111962600Y-140360700D01*
X109349400Y-157000300D02*
X109050000Y-157299700D01*
X110550000Y-157000300D02*
X109349400Y-157000300D01*
X110550000Y-156300000D02*
X110550000Y-157000300D01*
X109050000Y-158000000D02*
X109050000Y-157299700D01*
X110442500Y-155599700D02*
X110550000Y-155599700D01*
X110026600Y-155183800D02*
X110442500Y-155599700D01*
X110550000Y-156300000D02*
X110550000Y-155599700D01*
X97550000Y-149650000D02*
X98050000Y-149650000D01*
X97550000Y-149650000D02*
X95722300Y-149650000D01*
X100720200Y-134180200D02*
X101232200Y-133668200D01*
X101566100Y-133334300D02*
X101688300Y-133334300D01*
X101232200Y-133668200D02*
X101566100Y-133334300D01*
D28*
X102310600Y-135839100D02*
X102344900Y-135804800D01*
X102310600Y-136301200D02*
X102310600Y-135839100D01*
X102570400Y-136561000D02*
X102310600Y-136301200D01*
X102779300Y-136561000D02*
X102570400Y-136561000D01*
X101779800Y-135239800D02*
X102344900Y-135804800D01*
X102310600Y-136301200D02*
X101171300Y-137440500D01*
X101171300Y-137440500D02*
X97280500Y-141331300D01*
D27*
X104100000Y-141250000D02*
X104100000Y-142275300D01*
X104100000Y-142513700D02*
X103443100Y-143170600D01*
X104100000Y-142275300D02*
X104100000Y-142513700D01*
D28*
X107300000Y-150000000D02*
X107300000Y-148899700D01*
X105002100Y-148899700D02*
X103084000Y-146981600D01*
X107300000Y-148899700D02*
X105002100Y-148899700D01*
D27*
X103201200Y-151025300D02*
X105700000Y-151025300D01*
X102642900Y-150467000D02*
X103201200Y-151025300D01*
X105700000Y-150000000D02*
X105700000Y-151025300D01*
X98550000Y-148650000D02*
X98725000Y-148475000D01*
X98550000Y-149650000D02*
X98550000Y-148650000D01*
X98725000Y-148475000D02*
X98900000Y-148300000D01*
X98971700Y-148475000D02*
X99660300Y-147786400D01*
X98725000Y-148475000D02*
X98971700Y-148475000D01*
X99050000Y-149050000D02*
X99200400Y-148899600D01*
X99050000Y-149650000D02*
X99050000Y-149050000D01*
X99200400Y-148899600D02*
X99350000Y-148750000D01*
X99546700Y-148899600D02*
X99772500Y-148673800D01*
X99200400Y-148899600D02*
X99546700Y-148899600D01*
X102150000Y-152100000D02*
X102275000Y-152225000D01*
X101500000Y-152100000D02*
X102150000Y-152100000D01*
X91453400Y-149407900D02*
X91453400Y-148718700D01*
X97380300Y-155334800D02*
X91453400Y-149407900D01*
X100719400Y-155334800D02*
X97380300Y-155334800D01*
X102275000Y-153779200D02*
X100719400Y-155334800D01*
X102275000Y-152225000D02*
X102275000Y-153779200D01*
X105700000Y-162850000D02*
X105700000Y-160800000D01*
X107300000Y-162850000D02*
X107300000Y-160800000D01*
X88400000Y-145600000D02*
X90400000Y-145600000D01*
X88400000Y-147200000D02*
X90400000Y-147200000D01*
X105700000Y-123950000D02*
X105700000Y-124975300D01*
X103944700Y-124975300D02*
X102100000Y-126820000D01*
X105700000Y-124975300D02*
X103944700Y-124975300D01*
X102744700Y-124280000D02*
X103074700Y-123950000D01*
X102100000Y-124280000D02*
X102744700Y-124280000D01*
X104100000Y-123950000D02*
X103074700Y-123950000D01*
X147830000Y-83394700D02*
X149724700Y-81500000D01*
X147830000Y-85050000D02*
X147830000Y-83394700D01*
X150750000Y-81500000D02*
X149724700Y-81500000D01*
X150750000Y-84670000D02*
X150750000Y-83100000D01*
X150370000Y-85050000D02*
X150750000Y-84670000D01*
X147830000Y-95194700D02*
X149724700Y-93300000D01*
X147830000Y-96850000D02*
X147830000Y-95194700D01*
X150750000Y-93300000D02*
X149724700Y-93300000D01*
X150750000Y-96470000D02*
X150750000Y-94900000D01*
X150370000Y-96850000D02*
X150750000Y-96470000D01*
X147830000Y-106594700D02*
X149724700Y-104700000D01*
X147830000Y-108300000D02*
X147830000Y-106594700D01*
X150750000Y-104700000D02*
X149724700Y-104700000D01*
X150750000Y-107920000D02*
X150750000Y-106300000D01*
X150370000Y-108300000D02*
X150750000Y-107920000D01*
X147880000Y-117894700D02*
X149674700Y-116100000D01*
X147880000Y-119700000D02*
X147880000Y-117894700D01*
X150700000Y-116100000D02*
X149674700Y-116100000D01*
X150700000Y-119420000D02*
X150700000Y-117700000D01*
X150420000Y-119700000D02*
X150700000Y-119420000D01*
X124800000Y-93300000D02*
X126900000Y-93300000D01*
X124800000Y-94900000D02*
X126900000Y-94900000D01*
X124850000Y-104700000D02*
X126910000Y-104700000D01*
X124850000Y-106300000D02*
X126910000Y-106300000D01*
X124750000Y-116100000D02*
X126850000Y-116100000D01*
X124750000Y-117700000D02*
X126850000Y-117700000D01*
X120350000Y-81500000D02*
X118250000Y-81500000D01*
X120350000Y-83100000D02*
X118250000Y-83100000D01*
X118300000Y-93300000D02*
X120400000Y-93300000D01*
X118300000Y-94900000D02*
X120400000Y-94900000D01*
X120450000Y-104700000D02*
X118350000Y-104700000D01*
X120450000Y-106300000D02*
X118350000Y-106300000D01*
X120350000Y-116100000D02*
X118250000Y-116100000D01*
X120350000Y-117700000D02*
X118250000Y-117700000D01*
X113850000Y-81500000D02*
X111800000Y-81500000D01*
X113850000Y-83100000D02*
X111800000Y-83100000D01*
X113900000Y-93300000D02*
X111800000Y-93300000D01*
X113900000Y-94900000D02*
X111800000Y-94900000D01*
X113950000Y-104700000D02*
X111810000Y-104700000D01*
X113950000Y-106300000D02*
X111810000Y-106300000D01*
X113850000Y-116100000D02*
X111800000Y-116100000D01*
X113850000Y-117700000D02*
X111800000Y-117700000D01*
X110270000Y-83344700D02*
X108425300Y-81500000D01*
X110270000Y-85100000D02*
X110270000Y-83344700D01*
X107400000Y-81500000D02*
X108425300Y-81500000D01*
X107400000Y-84770000D02*
X107400000Y-83100000D01*
X107730000Y-85100000D02*
X107400000Y-84770000D01*
X110290000Y-95164700D02*
X108425300Y-93300000D01*
X110290000Y-96850000D02*
X110290000Y-95164700D01*
X107400000Y-93300000D02*
X108425300Y-93300000D01*
X107400000Y-96500000D02*
X107400000Y-94900000D01*
X107750000Y-96850000D02*
X107400000Y-96500000D01*
X110270000Y-106534700D02*
X108435300Y-104700000D01*
X110270000Y-108300000D02*
X110270000Y-106534700D01*
X107410000Y-104700000D02*
X108435300Y-104700000D01*
X107410000Y-107980000D02*
X107410000Y-106300000D01*
X107730000Y-108300000D02*
X107410000Y-107980000D01*
X110320000Y-117994700D02*
X108425300Y-116100000D01*
X110320000Y-119700000D02*
X110320000Y-117994700D01*
X107400000Y-116100000D02*
X108425300Y-116100000D01*
X107400000Y-119320000D02*
X107400000Y-117700000D01*
X107780000Y-119700000D02*
X107400000Y-119320000D01*
X137650000Y-145550000D02*
X135550000Y-145550000D01*
X134090000Y-143635300D02*
X132175300Y-145550000D01*
X134090000Y-141950000D02*
X134090000Y-143635300D01*
X131150000Y-145550000D02*
X132175300Y-145550000D01*
X131150000Y-142350000D02*
X131150000Y-143950000D01*
X131550000Y-141950000D02*
X131150000Y-142350000D01*
X137650000Y-143950000D02*
X135550000Y-143950000D01*
X152850000Y-130600000D02*
X152850000Y-128350000D01*
X154744700Y-126870000D02*
X152850000Y-124975300D01*
X156400000Y-126870000D02*
X154744700Y-126870000D01*
X152850000Y-123950000D02*
X152850000Y-124975300D01*
X155855300Y-124330000D02*
X155475300Y-123950000D01*
X156400000Y-124330000D02*
X155855300Y-124330000D01*
X154450000Y-123950000D02*
X155475300Y-123950000D01*
X154450000Y-130600000D02*
X154450000Y-128350000D01*
X170100000Y-145550000D02*
X168000000Y-145550000D01*
X171480000Y-147544700D02*
X173474700Y-145550000D01*
X171480000Y-149150000D02*
X171480000Y-147544700D01*
X174500000Y-145550000D02*
X173474700Y-145550000D01*
X174500000Y-148670000D02*
X174500000Y-147150000D01*
X174020000Y-149150000D02*
X174500000Y-148670000D01*
X170100000Y-147150000D02*
X168000000Y-147150000D01*
X152850000Y-160450000D02*
X152850000Y-162750000D01*
X150855300Y-164130000D02*
X152850000Y-166124700D01*
X149300000Y-164130000D02*
X150855300Y-164130000D01*
X152850000Y-167150000D02*
X152850000Y-166124700D01*
X149744700Y-166670000D02*
X150224700Y-167150000D01*
X149300000Y-166670000D02*
X149744700Y-166670000D01*
X151250000Y-167150000D02*
X150224700Y-167150000D01*
X151250000Y-160450000D02*
X151250000Y-162750000D01*
X152850000Y-135000000D02*
X152850000Y-137300000D01*
X154450000Y-135000000D02*
X154450000Y-137300000D01*
X142050000Y-145550000D02*
X144150000Y-145550000D01*
X142050000Y-143950000D02*
X144150000Y-143950000D01*
X161500000Y-145550000D02*
X163600000Y-145550000D01*
X161500000Y-147150000D02*
X163600000Y-147150000D01*
X152850000Y-156050000D02*
X152850000Y-153750000D01*
X151250000Y-156050000D02*
X151250000Y-153750000D01*
X150650000Y-145550000D02*
X148550000Y-145550000D01*
X150650000Y-143950000D02*
X148550000Y-143950000D01*
X102500000Y-151600000D02*
X102800000Y-151900000D01*
X101500000Y-151600000D02*
X102500000Y-151600000D01*
X102850400Y-151950400D02*
X102800000Y-151900000D01*
X102850400Y-153944300D02*
X102850400Y-151950400D01*
X101009500Y-155785200D02*
X102850400Y-153944300D01*
X97193800Y-155785200D02*
X101009500Y-155785200D01*
X90298700Y-148890100D02*
X97193800Y-155785200D01*
X113819500Y-150884900D02*
X113205400Y-151499000D01*
X113819500Y-149988700D02*
X113819500Y-150884900D01*
X112309200Y-151499000D02*
X109928700Y-153879500D01*
X113205400Y-151499000D02*
X112309200Y-151499000D01*
D28*
X107492300Y-140149700D02*
X107851700Y-139790300D01*
X105700000Y-140149700D02*
X107492300Y-140149700D01*
X105700000Y-141250000D02*
X105700000Y-140149700D01*
X109950000Y-144000000D02*
X108849700Y-144000000D01*
X108683900Y-144165800D02*
X108849700Y-144000000D01*
X109950000Y-145600000D02*
X111050300Y-145600000D01*
X111050300Y-143041000D02*
X111050300Y-145600000D01*
X110746000Y-142736700D02*
X111050300Y-143041000D01*
X101200000Y-145600000D02*
X100099700Y-145600000D01*
X100099700Y-145600000D02*
X99634000Y-145600000D01*
X101200000Y-147200000D02*
X100099700Y-147200000D01*
X98546800Y-145647100D02*
X100099700Y-147200000D01*
X98546800Y-145579600D02*
X98546800Y-145647100D01*
D27*
X150750000Y-79900000D02*
X149724700Y-79900000D01*
X118250000Y-79900000D02*
X117224700Y-79900000D01*
X117025500Y-79700800D02*
X117025500Y-79548700D01*
X117224700Y-79900000D02*
X117025500Y-79700800D01*
X149724700Y-79844700D02*
X147830000Y-77950000D01*
X149724700Y-79900000D02*
X149724700Y-79844700D01*
X146349400Y-77950000D02*
X147830000Y-77950000D01*
X145275300Y-79024100D02*
X146349400Y-77950000D01*
X145275300Y-79900000D02*
X145275300Y-79024100D01*
X144250000Y-79900000D02*
X145275300Y-79900000D01*
X131250000Y-79900000D02*
X130224700Y-79900000D01*
X130169800Y-79900000D02*
X129946400Y-79676600D01*
X130224700Y-79900000D02*
X130169800Y-79900000D01*
X137750000Y-79900000D02*
X136724700Y-79900000D01*
X136352600Y-79527900D02*
X136352600Y-79489800D01*
X136724700Y-79900000D02*
X136352600Y-79527900D01*
X124750000Y-79900000D02*
X123724700Y-79900000D01*
X123412400Y-79587700D02*
X123412400Y-79465100D01*
X123724700Y-79900000D02*
X123412400Y-79587700D01*
X111194700Y-78874700D02*
X111800000Y-78874700D01*
X110270000Y-77950000D02*
X111194700Y-78874700D01*
X111800000Y-79900000D02*
X111800000Y-78874700D01*
X107400000Y-78280000D02*
X107400000Y-79900000D01*
X107730000Y-77950000D02*
X107400000Y-78280000D01*
X120350000Y-79900000D02*
X121375300Y-79900000D01*
X121375300Y-79900000D02*
X121568000Y-79900000D01*
X113850000Y-79900000D02*
X114875300Y-79900000D01*
X114875300Y-79900000D02*
X115179400Y-79900000D01*
X126850000Y-79900000D02*
X127875300Y-79900000D01*
X127875300Y-79900000D02*
X128071100Y-80095800D01*
X133350000Y-79900000D02*
X134375300Y-79900000D01*
X134603600Y-80128300D02*
X134603600Y-80296900D01*
X134375300Y-79900000D02*
X134603600Y-80128300D01*
X139850000Y-79900000D02*
X140875300Y-79900000D01*
X141011900Y-79900000D02*
X141408800Y-80296900D01*
X140875300Y-79900000D02*
X141011900Y-79900000D01*
X146350000Y-79900000D02*
X147375300Y-79900000D01*
X147375300Y-80115700D02*
X147556500Y-80296900D01*
X147375300Y-79900000D02*
X147375300Y-80115700D01*
X150750000Y-91700000D02*
X149724700Y-91700000D01*
X131300000Y-91700000D02*
X130274700Y-91700000D01*
X130188100Y-91613400D02*
X130049400Y-91613400D01*
X130274700Y-91700000D02*
X130188100Y-91613400D01*
X144250000Y-91700000D02*
X144762700Y-91700000D01*
X149724700Y-91594700D02*
X147830000Y-89700000D01*
X149724700Y-91700000D02*
X149724700Y-91594700D01*
X144762700Y-91367600D02*
X144762700Y-91700000D01*
X146430300Y-89700000D02*
X144762700Y-91367600D01*
X147830000Y-89700000D02*
X146430300Y-89700000D01*
X137750000Y-91700000D02*
X136724700Y-91700000D01*
X136590500Y-91700000D02*
X136362000Y-91471500D01*
X136724700Y-91700000D02*
X136590500Y-91700000D01*
X124800000Y-91700000D02*
X123774700Y-91700000D01*
X123595800Y-91700000D02*
X123509200Y-91613400D01*
X123774700Y-91700000D02*
X123595800Y-91700000D01*
X118300000Y-91700000D02*
X117274700Y-91700000D01*
X117274700Y-91700000D02*
X116780600Y-91205900D01*
X111344700Y-90674700D02*
X111800000Y-90674700D01*
X110320000Y-89650000D02*
X111344700Y-90674700D01*
X111800000Y-91700000D02*
X111800000Y-90674700D01*
X120400000Y-91700000D02*
X121425300Y-91700000D01*
X121425300Y-91700000D02*
X121614800Y-91700000D01*
X107780000Y-90294700D02*
X107400000Y-90674700D01*
X107780000Y-89650000D02*
X107780000Y-90294700D01*
X107400000Y-91700000D02*
X107400000Y-90674700D01*
X113900000Y-91700000D02*
X115176600Y-91700000D01*
X139850000Y-91700000D02*
X140875300Y-91700000D01*
X140875300Y-92035700D02*
X141051100Y-92211500D01*
X140875300Y-91700000D02*
X140875300Y-92035700D01*
X146350000Y-91700000D02*
X147375300Y-91700000D01*
X147536300Y-91700000D02*
X147553800Y-91717500D01*
X147375300Y-91700000D02*
X147536300Y-91700000D01*
X133350000Y-91700000D02*
X134375300Y-91700000D01*
X134375300Y-91880300D02*
X134733800Y-92238800D01*
X134375300Y-91700000D02*
X134375300Y-91880300D01*
X126900000Y-91700000D02*
X127925300Y-91700000D01*
X127925300Y-91720400D02*
X128443700Y-92238800D01*
X127925300Y-91700000D02*
X127925300Y-91720400D01*
X131310000Y-103100000D02*
X130284700Y-103100000D01*
X130097700Y-102913000D02*
X130284700Y-103100000D01*
X111244700Y-102074700D02*
X110270000Y-101100000D01*
X111810000Y-102074700D02*
X111244700Y-102074700D01*
X111810000Y-103100000D02*
X111810000Y-102074700D01*
X118350000Y-103100000D02*
X117324700Y-103100000D01*
X117324700Y-103100000D02*
X116971500Y-102746800D01*
X137800000Y-103100000D02*
X136774700Y-103100000D01*
X136587700Y-102913000D02*
X135928400Y-102913000D01*
X136774700Y-103100000D02*
X136587700Y-102913000D01*
X124850000Y-103100000D02*
X123824700Y-103100000D01*
X123471500Y-102746800D02*
X123152700Y-102746800D01*
X123824700Y-103100000D02*
X123471500Y-102746800D01*
X146300000Y-101100000D02*
X147830000Y-101100000D01*
X144300000Y-103100000D02*
X146300000Y-101100000D01*
X149724700Y-102994700D02*
X149724700Y-103100000D01*
X147830000Y-101100000D02*
X149724700Y-102994700D01*
X150750000Y-103100000D02*
X149724700Y-103100000D01*
X107730000Y-101754700D02*
X107410000Y-102074700D01*
X107730000Y-101100000D02*
X107730000Y-101754700D01*
X107410000Y-103100000D02*
X107410000Y-102074700D01*
X120450000Y-103100000D02*
X121475300Y-103100000D01*
X121475300Y-103100000D02*
X121778500Y-103403200D01*
X133400000Y-103100000D02*
X134425300Y-103100000D01*
X134829800Y-103504500D02*
X134829800Y-103554800D01*
X134425300Y-103100000D02*
X134829800Y-103504500D01*
X139900000Y-103100000D02*
X140925300Y-103100000D01*
X140925300Y-103488900D02*
X141105600Y-103669200D01*
X140925300Y-103100000D02*
X140925300Y-103488900D01*
X146350000Y-103100000D02*
X147375300Y-103100000D01*
X147509400Y-103234100D02*
X147588400Y-103234100D01*
X147375300Y-103100000D02*
X147509400Y-103234100D01*
X113950000Y-103100000D02*
X114975300Y-103100000D01*
X115162000Y-103100000D02*
X115187400Y-103125400D01*
X114975300Y-103100000D02*
X115162000Y-103100000D01*
X126910000Y-103100000D02*
X127935300Y-103100000D01*
X127935300Y-103372000D02*
X128118100Y-103554800D01*
X127935300Y-103100000D02*
X127935300Y-103372000D01*
X150700000Y-114500000D02*
X149674700Y-114500000D01*
X118250000Y-114500000D02*
X117224700Y-114500000D01*
X117007200Y-114282500D02*
X116784700Y-114282500D01*
X117224700Y-114500000D02*
X117007200Y-114282500D01*
X147880000Y-113099900D02*
X147880000Y-112500000D01*
X148274600Y-113099900D02*
X147880000Y-113099900D01*
X149674700Y-114500000D02*
X148274600Y-113099900D01*
X144405400Y-114500000D02*
X144250000Y-114500000D01*
X145805500Y-113099900D02*
X144405400Y-114500000D01*
X147880000Y-113099900D02*
X145805500Y-113099900D01*
X131250000Y-114500000D02*
X130224700Y-114500000D01*
X130224700Y-114477600D02*
X130224700Y-114500000D01*
X129939000Y-114191900D02*
X130224700Y-114477600D01*
X137750000Y-114500000D02*
X136724700Y-114500000D01*
X136331600Y-114106900D02*
X135877000Y-114106900D01*
X136724700Y-114500000D02*
X136331600Y-114106900D01*
X111294700Y-113474700D02*
X111800000Y-113474700D01*
X110320000Y-112500000D02*
X111294700Y-113474700D01*
X111800000Y-114500000D02*
X111800000Y-113474700D01*
X124750000Y-114500000D02*
X123724700Y-114500000D01*
X123416600Y-114191900D02*
X123242700Y-114191900D01*
X123724700Y-114500000D02*
X123416600Y-114191900D01*
X107400000Y-112880000D02*
X107400000Y-114500000D01*
X107780000Y-112500000D02*
X107400000Y-112880000D01*
X133350000Y-114500000D02*
X134375300Y-114500000D01*
X134662000Y-114786700D02*
X134662000Y-114850800D01*
X134375300Y-114500000D02*
X134662000Y-114786700D01*
X146300000Y-114500000D02*
X147325300Y-114500000D01*
X147325300Y-114500000D02*
X147524300Y-114500000D01*
X120350000Y-114500000D02*
X121375300Y-114500000D01*
X122120600Y-114955700D02*
X122120600Y-114955800D01*
X121831000Y-114955700D02*
X122120600Y-114955700D01*
X121375300Y-114500000D02*
X121831000Y-114955700D01*
X126850000Y-114500000D02*
X127875300Y-114500000D01*
X128192600Y-114817300D02*
X128192600Y-114955800D01*
X127875300Y-114500000D02*
X128192600Y-114817300D01*
X139850000Y-114500000D02*
X140875300Y-114500000D01*
X141444000Y-114850700D02*
X141444000Y-114850800D01*
X141226000Y-114850700D02*
X141444000Y-114850700D01*
X140875300Y-114500000D02*
X141226000Y-114850700D01*
X113850000Y-114500000D02*
X114875300Y-114500000D01*
X115149100Y-114773800D02*
X115149100Y-114791500D01*
X114875300Y-114500000D02*
X115149100Y-114773800D01*
X132175300Y-147205300D02*
X132175300Y-147150000D01*
X134070000Y-149100000D02*
X132175300Y-147205300D01*
X131150000Y-147150000D02*
X132175300Y-147150000D01*
X135571800Y-149100000D02*
X134070000Y-149100000D01*
X136624700Y-148047100D02*
X135571800Y-149100000D01*
X136624700Y-147150000D02*
X136624700Y-148047100D01*
X137650000Y-147150000D02*
X136624700Y-147150000D01*
X144150000Y-147150000D02*
X145175300Y-147150000D01*
X150650000Y-147150000D02*
X151675300Y-147150000D01*
X145265700Y-147059600D02*
X145356000Y-147059600D01*
X145175300Y-147150000D02*
X145265700Y-147059600D01*
X151763700Y-147061600D02*
X151675300Y-147150000D01*
X151851600Y-147061600D02*
X151763700Y-147061600D01*
X135550000Y-147150000D02*
X134524700Y-147150000D01*
X134395700Y-147279000D02*
X134334200Y-147279000D01*
X134524700Y-147150000D02*
X134395700Y-147279000D01*
X141024700Y-146341900D02*
X140527800Y-145845000D01*
X141024700Y-147150000D02*
X141024700Y-146341900D01*
X142050000Y-147150000D02*
X141024700Y-147150000D01*
X147524700Y-146559600D02*
X147524700Y-147150000D01*
X146764900Y-145799800D02*
X147524700Y-146559600D01*
X148550000Y-147150000D02*
X147524700Y-147150000D01*
X154024700Y-146916400D02*
X153250800Y-146142500D01*
X154024700Y-147150000D02*
X154024700Y-146916400D01*
X155050000Y-147150000D02*
X154024700Y-147150000D01*
X151250000Y-130600000D02*
X151250000Y-129574700D01*
X151250000Y-137300000D02*
X151250000Y-138325300D01*
X150961500Y-138325300D02*
X150783800Y-138503000D01*
X151250000Y-138325300D02*
X150961500Y-138325300D01*
X149300000Y-128319500D02*
X149300000Y-126870000D01*
X150555200Y-129574700D02*
X149300000Y-128319500D01*
X151250000Y-129574700D02*
X150555200Y-129574700D01*
X151194700Y-124975300D02*
X151250000Y-124975300D01*
X149300000Y-126870000D02*
X151194700Y-124975300D01*
X151250000Y-123950000D02*
X151250000Y-124975300D01*
X151250000Y-133823700D02*
X151281400Y-133792300D01*
X151250000Y-135000000D02*
X151250000Y-133823700D01*
X151250000Y-140666800D02*
X151470900Y-140445900D01*
X151250000Y-141700000D02*
X151250000Y-140666800D01*
X151250000Y-128350000D02*
X151250000Y-127324700D01*
X151281400Y-127293300D02*
X151281400Y-127144900D01*
X151250000Y-127324700D02*
X151281400Y-127293300D01*
X173474700Y-143944700D02*
X171530000Y-142000000D01*
X173474700Y-143950000D02*
X173474700Y-143944700D01*
X174500000Y-143950000D02*
X173474700Y-143950000D01*
X170189900Y-142000000D02*
X171530000Y-142000000D01*
X169025300Y-143164600D02*
X170189900Y-142000000D01*
X169025300Y-143950000D02*
X169025300Y-143164600D01*
X168000000Y-143950000D02*
X169025300Y-143950000D01*
X161500000Y-143950000D02*
X160474700Y-143950000D01*
X160293700Y-143769000D02*
X160293700Y-143576500D01*
X160474700Y-143950000D02*
X160293700Y-143769000D01*
X170100000Y-143950000D02*
X171125300Y-143950000D01*
X171290600Y-143784700D02*
X171125300Y-143950000D01*
X171334800Y-143784700D02*
X171290600Y-143784700D01*
X164858500Y-144183200D02*
X164625300Y-143950000D01*
X165444800Y-144183200D02*
X164858500Y-144183200D01*
X163600000Y-143950000D02*
X164625300Y-143950000D01*
X157100000Y-143950000D02*
X158125300Y-143950000D01*
X158273300Y-143802000D02*
X159296800Y-143802000D01*
X158125300Y-143950000D02*
X158273300Y-143802000D01*
X154450000Y-167150000D02*
X154450000Y-166124700D01*
X154773100Y-152724700D02*
X154952200Y-152545600D01*
X154450000Y-152724700D02*
X154773100Y-152724700D01*
X154450000Y-153750000D02*
X154450000Y-152724700D01*
X154450000Y-160450000D02*
X154450000Y-161475300D01*
X155825100Y-164180000D02*
X156400000Y-164180000D01*
X155108000Y-161475300D02*
X154450000Y-161475300D01*
X155825100Y-162192400D02*
X155108000Y-161475300D01*
X155825100Y-164180000D02*
X155825100Y-162192400D01*
X155825100Y-164749600D02*
X155825100Y-164180000D01*
X154450000Y-166124700D02*
X155825100Y-164749600D01*
X154315300Y-157075300D02*
X153295600Y-158095000D01*
X154450000Y-157075300D02*
X154315300Y-157075300D01*
X154450000Y-156050000D02*
X154450000Y-157075300D01*
X154369600Y-150375300D02*
X154070600Y-150674300D01*
X154450000Y-150375300D02*
X154369600Y-150375300D01*
X154450000Y-149350000D02*
X154450000Y-150375300D01*
X154795000Y-163775300D02*
X155126000Y-164106300D01*
X154450000Y-163775300D02*
X154795000Y-163775300D01*
X154450000Y-162750000D02*
X154450000Y-163775300D01*
M02*
