G04 #@! TF.FileFunction,Copper,L2,Bot,Signal*
%FSLAX46Y46*%
G04 Gerber Fmt 4.6, Leading zero omitted, Abs format (unit mm)*
G04 Created by KiCad (PCBNEW 4.1.0-alpha+201605262346+6832~44~ubuntu16.04.1-product) date Sun Jun 12 17:49:52 2016*
%MOMM*%
%LPD*%
G01*
G04 APERTURE LIST*
%ADD10C,0.100000*%
%ADD11C,1.500000*%
%ADD12C,0.700000*%
%ADD13C,0.700000*%
%ADD14C,1.100000*%
%ADD15C,0.600000*%
%ADD16C,0.250000*%
%ADD17C,0.400000*%
G04 APERTURE END LIST*
D10*
D11*
X102100000Y-126820000D03*
X102100000Y-124280000D03*
X109250000Y-126820000D03*
X109250000Y-124280000D03*
X109300000Y-164110000D03*
X109300000Y-166650000D03*
X102100000Y-164080000D03*
X102100000Y-166620000D03*
X87020000Y-149150000D03*
X84480000Y-149150000D03*
X87020000Y-142050000D03*
X84480000Y-142050000D03*
D12*
X107864186Y-142895559D02*
X108217740Y-143249113D01*
X102808373Y-147951373D02*
X103161927Y-148304927D01*
D13*
X104399717Y-146399627D03*
X105342644Y-145456700D03*
X106240669Y-144558675D03*
X105389313Y-146431093D03*
X106326229Y-145529532D03*
D11*
X110320000Y-119700000D03*
X107780000Y-119700000D03*
X110270000Y-108300000D03*
X107730000Y-108300000D03*
X110270000Y-101100000D03*
X107730000Y-101100000D03*
X110320000Y-112500000D03*
X107780000Y-112500000D03*
X110290000Y-96850000D03*
X107750000Y-96850000D03*
X110270000Y-85100000D03*
X107730000Y-85100000D03*
X110270000Y-77950000D03*
X107730000Y-77950000D03*
X110320000Y-89650000D03*
X107780000Y-89650000D03*
X150370000Y-85050000D03*
X147830000Y-85050000D03*
X150370000Y-77950000D03*
X147830000Y-77950000D03*
X150370000Y-96850000D03*
X147830000Y-96850000D03*
X150370000Y-89700000D03*
X147830000Y-89700000D03*
X150370000Y-101100000D03*
X147830000Y-101100000D03*
X150370000Y-108300000D03*
X147830000Y-108300000D03*
X150420000Y-119700000D03*
X147880000Y-119700000D03*
X150420000Y-112500000D03*
X147880000Y-112500000D03*
X124280000Y-149150000D03*
X126820000Y-149150000D03*
X149300000Y-166670000D03*
X149300000Y-164130000D03*
X156400000Y-166720000D03*
X156400000Y-164180000D03*
X124230000Y-142000000D03*
X126770000Y-142000000D03*
X131530000Y-149100000D03*
X134070000Y-149100000D03*
X131550000Y-141950000D03*
X134090000Y-141950000D03*
X174020000Y-149150000D03*
X171480000Y-149150000D03*
X174070000Y-142000000D03*
X171530000Y-142000000D03*
D10*
G36*
X114171662Y-139251992D02*
X114701992Y-138721662D01*
X115267678Y-139287348D01*
X114737348Y-139817678D01*
X114171662Y-139251992D01*
X114171662Y-139251992D01*
G37*
G36*
X115232322Y-140312652D02*
X115762652Y-139782322D01*
X116328338Y-140348008D01*
X115798008Y-140878338D01*
X115232322Y-140312652D01*
X115232322Y-140312652D01*
G37*
G36*
X104571662Y-129951992D02*
X105101992Y-129421662D01*
X105667678Y-129987348D01*
X105137348Y-130517678D01*
X104571662Y-129951992D01*
X104571662Y-129951992D01*
G37*
G36*
X105632322Y-131012652D02*
X106162652Y-130482322D01*
X106728338Y-131048008D01*
X106198008Y-131578338D01*
X105632322Y-131012652D01*
X105632322Y-131012652D01*
G37*
G36*
X99925305Y-155288909D02*
X99288909Y-155925305D01*
X98935355Y-155571751D01*
X99571751Y-154935355D01*
X99925305Y-155288909D01*
X99925305Y-155288909D01*
G37*
G36*
X98864645Y-154228249D02*
X98228249Y-154864645D01*
X97874695Y-154511091D01*
X98511091Y-153874695D01*
X98864645Y-154228249D01*
X98864645Y-154228249D01*
G37*
G36*
X107724695Y-133211091D02*
X108361091Y-132574695D01*
X108714645Y-132928249D01*
X108078249Y-133564645D01*
X107724695Y-133211091D01*
X107724695Y-133211091D01*
G37*
G36*
X108785355Y-134271751D02*
X109421751Y-133635355D01*
X109775305Y-133988909D01*
X109138909Y-134625305D01*
X108785355Y-134271751D01*
X108785355Y-134271751D01*
G37*
G36*
X109374695Y-131561091D02*
X110011091Y-130924695D01*
X110364645Y-131278249D01*
X109728249Y-131914645D01*
X109374695Y-131561091D01*
X109374695Y-131561091D01*
G37*
G36*
X110435355Y-132621751D02*
X111071751Y-131985355D01*
X111425305Y-132338909D01*
X110788909Y-132975305D01*
X110435355Y-132621751D01*
X110435355Y-132621751D01*
G37*
D14*
X112846302Y-145646800D02*
X111927064Y-144727562D01*
X111432088Y-147061014D02*
X110512850Y-146141776D01*
X110017874Y-148475227D02*
X109098636Y-147555989D01*
X108603661Y-149889441D02*
X107684423Y-148970203D01*
X107189447Y-151303654D02*
X106270209Y-150384416D01*
X105775234Y-152717868D02*
X104855996Y-151798630D01*
D10*
G36*
X103823619Y-130698563D02*
X104601437Y-131476381D01*
X102904381Y-133173437D01*
X102126563Y-132395619D01*
X103823619Y-130698563D01*
X103823619Y-130698563D01*
G37*
D14*
X105237833Y-132890595D02*
X104318595Y-133809833D01*
X106652046Y-134304808D02*
X105732808Y-135224046D01*
X108066260Y-135719022D02*
X107147022Y-136638260D01*
X109480473Y-137133235D02*
X108561235Y-138052473D01*
X110894687Y-138547449D02*
X109975449Y-139466687D01*
X112308900Y-139961662D02*
X111389662Y-140880900D01*
X113723114Y-141375876D02*
X112803876Y-142295114D01*
X102409405Y-152689584D02*
X101490167Y-153608822D01*
X100995192Y-151275371D02*
X100075954Y-152194609D01*
X99580978Y-149861157D02*
X98661740Y-150780395D01*
X98166765Y-148446944D02*
X97247527Y-149366182D01*
X96752551Y-147032730D02*
X95833313Y-147951968D01*
X95338338Y-145618517D02*
X94419100Y-146537755D01*
X93924124Y-144204303D02*
X93004886Y-145123541D01*
X92509911Y-142790089D02*
X91590673Y-143709327D01*
D10*
G36*
X112975305Y-137038909D02*
X112338909Y-137675305D01*
X111985355Y-137321751D01*
X112621751Y-136685355D01*
X112975305Y-137038909D01*
X112975305Y-137038909D01*
G37*
G36*
X111914645Y-135978249D02*
X111278249Y-136614645D01*
X110924695Y-136261091D01*
X111561091Y-135624695D01*
X111914645Y-135978249D01*
X111914645Y-135978249D01*
G37*
G36*
X96175305Y-151438909D02*
X95538909Y-152075305D01*
X95185355Y-151721751D01*
X95821751Y-151085355D01*
X96175305Y-151438909D01*
X96175305Y-151438909D01*
G37*
G36*
X95114645Y-150378249D02*
X94478249Y-151014645D01*
X94124695Y-150661091D01*
X94761091Y-150024695D01*
X95114645Y-150378249D01*
X95114645Y-150378249D01*
G37*
G36*
X113204695Y-149241091D02*
X113841091Y-148604695D01*
X114194645Y-148958249D01*
X113558249Y-149594645D01*
X113204695Y-149241091D01*
X113204695Y-149241091D01*
G37*
G36*
X114265355Y-150301751D02*
X114901751Y-149665355D01*
X115255305Y-150018909D01*
X114618909Y-150655305D01*
X114265355Y-150301751D01*
X114265355Y-150301751D01*
G37*
G36*
X108474695Y-153861091D02*
X109111091Y-153224695D01*
X109464645Y-153578249D01*
X108828249Y-154214645D01*
X108474695Y-153861091D01*
X108474695Y-153861091D01*
G37*
G36*
X109535355Y-154921751D02*
X110171751Y-154285355D01*
X110525305Y-154638909D01*
X109888909Y-155275305D01*
X109535355Y-154921751D01*
X109535355Y-154921751D01*
G37*
G36*
X111674695Y-150711091D02*
X112311091Y-150074695D01*
X112664645Y-150428249D01*
X112028249Y-151064645D01*
X111674695Y-150711091D01*
X111674695Y-150711091D01*
G37*
G36*
X112735355Y-151771751D02*
X113371751Y-151135355D01*
X113725305Y-151488909D01*
X113088909Y-152125305D01*
X112735355Y-151771751D01*
X112735355Y-151771751D01*
G37*
G36*
X112474695Y-134711091D02*
X113111091Y-134074695D01*
X113464645Y-134428249D01*
X112828249Y-135064645D01*
X112474695Y-134711091D01*
X112474695Y-134711091D01*
G37*
G36*
X113535355Y-135771751D02*
X114171751Y-135135355D01*
X114525305Y-135488909D01*
X113888909Y-136125305D01*
X113535355Y-135771751D01*
X113535355Y-135771751D01*
G37*
D11*
X156400000Y-124330000D03*
X156400000Y-126870000D03*
X149300000Y-124330000D03*
X149300000Y-126870000D03*
D10*
G36*
X110124695Y-152261091D02*
X110761091Y-151624695D01*
X111114645Y-151978249D01*
X110478249Y-152614645D01*
X110124695Y-152261091D01*
X110124695Y-152261091D01*
G37*
G36*
X111185355Y-153321751D02*
X111821751Y-152685355D01*
X112175305Y-153038909D01*
X111538909Y-153675305D01*
X111185355Y-153321751D01*
X111185355Y-153321751D01*
G37*
G36*
X101404695Y-157991091D02*
X102041091Y-157354695D01*
X102394645Y-157708249D01*
X101758249Y-158344645D01*
X101404695Y-157991091D01*
X101404695Y-157991091D01*
G37*
G36*
X102465355Y-159051751D02*
X103101751Y-158415355D01*
X103455305Y-158768909D01*
X102818909Y-159405305D01*
X102465355Y-159051751D01*
X102465355Y-159051751D01*
G37*
D13*
X101100000Y-154650000D03*
X117650000Y-140980000D03*
X102845000Y-156400000D03*
X104093800Y-157706700D03*
D15*
X109209800Y-132155100D03*
X111941600Y-133541600D03*
X117877100Y-149822600D03*
X116676700Y-139492500D03*
D13*
X105573800Y-159499600D03*
X90859600Y-142621600D03*
X95537200Y-140690000D03*
X102029700Y-131500300D03*
X119642500Y-147200000D03*
X114245000Y-140106900D03*
X111511200Y-157431000D03*
X95774100Y-149193400D03*
X105584900Y-138200300D03*
D15*
X94621100Y-151617500D03*
X103547400Y-142555700D03*
D13*
X108321500Y-151161500D03*
D15*
X103924500Y-151204600D03*
X101980600Y-148425600D03*
X101098300Y-149056900D03*
X99007000Y-142911500D03*
D13*
X107951800Y-139652500D03*
X110637200Y-142745100D03*
X111849300Y-143577800D03*
X98766400Y-146113500D03*
X99516700Y-146661800D03*
X129994800Y-79900000D03*
X142084700Y-80163800D03*
X116930200Y-79900000D03*
X123255700Y-79900000D03*
X136235100Y-79900000D03*
X121612800Y-80846700D03*
X134846300Y-80872700D03*
X141235300Y-80914100D03*
X128596300Y-80872700D03*
X147605000Y-79900000D03*
X115179400Y-80687700D03*
X117039700Y-91700000D03*
X123287100Y-91700000D03*
X136497100Y-91700000D03*
X130021000Y-91700000D03*
X142993000Y-91700000D03*
X121659300Y-92643200D03*
X128160200Y-92644100D03*
X141606900Y-93050000D03*
X135086500Y-93050000D03*
X147858500Y-91628900D03*
X115204400Y-92487700D03*
X143005500Y-103100000D03*
X123588400Y-103100000D03*
X117054600Y-103100000D03*
X129830000Y-103100000D03*
X135956700Y-103100000D03*
X121727300Y-103994100D03*
X147600700Y-102908400D03*
X134691500Y-104009000D03*
X128342600Y-104009000D03*
X141205400Y-104009000D03*
X115229400Y-103887700D03*
X142958700Y-114500000D03*
X136486600Y-114500000D03*
X123496400Y-114500000D03*
X129916200Y-114500000D03*
X116925500Y-114500000D03*
X128245800Y-114879500D03*
X134934900Y-115093500D03*
X147556800Y-114453000D03*
X115179400Y-114796300D03*
X121625600Y-115301600D03*
X141116000Y-114977800D03*
X145487200Y-147039100D03*
X151901900Y-147039100D03*
X138942400Y-147200000D03*
X134290700Y-147085100D03*
X146816100Y-145752000D03*
X152195700Y-145760800D03*
X140527800Y-146421800D03*
X151102000Y-131863200D03*
X151102000Y-138571800D03*
X150996100Y-126998400D03*
X152702000Y-133524500D03*
X152702000Y-140284400D03*
X166726200Y-143498200D03*
X160243300Y-143848000D03*
X166119200Y-144181600D03*
X171428400Y-144026700D03*
X158846700Y-143802000D03*
X154087100Y-159179400D03*
X154132500Y-152494500D03*
X153295600Y-158095000D03*
X153402300Y-164000300D03*
X153295600Y-150874400D03*
D15*
X102877500Y-149428700D03*
X99816000Y-144238400D03*
X91873300Y-149857100D03*
X100219700Y-155728200D03*
X115615900Y-149000200D03*
X112344100Y-153879500D03*
X102213900Y-151616200D03*
D16*
X101100000Y-153999000D02*
X101949800Y-153149200D01*
X101100000Y-154650000D02*
X101100000Y-153999000D01*
X101949800Y-153149200D02*
X101949900Y-153149100D01*
X101949900Y-153149100D02*
X101950000Y-153149000D01*
D17*
X110030300Y-154780300D02*
X109429100Y-155381500D01*
X116430000Y-140980000D02*
X115780300Y-140330300D01*
X117650000Y-140980000D02*
X116430000Y-140980000D01*
X103863500Y-155062700D02*
X103863500Y-155381500D01*
X101949900Y-153149100D02*
X103863500Y-155062700D01*
X109429000Y-155381500D02*
X103863500Y-155381500D01*
X109429100Y-155381500D02*
X109429000Y-155381500D01*
X103863500Y-155381500D02*
X102845000Y-156400000D01*
X104093800Y-162086200D02*
X104093800Y-157706700D01*
X102100000Y-164080000D02*
X104093800Y-162086200D01*
X103512800Y-147600400D02*
X102985100Y-148128100D01*
X105323100Y-147600400D02*
X103512800Y-147600400D01*
X107108500Y-145815000D02*
X105323100Y-147600400D01*
X107108500Y-145232100D02*
X107108500Y-145815000D01*
X106435100Y-144558700D02*
X107108500Y-145232100D01*
X106240700Y-144558700D02*
X106435100Y-144558700D01*
D16*
X105035700Y-130053700D02*
X104624500Y-130464900D01*
X104442500Y-130857400D02*
X104442500Y-130857500D01*
X104624500Y-130675400D02*
X104442500Y-130857400D01*
X104624500Y-130465000D02*
X104624500Y-130675400D01*
X104624500Y-130464900D02*
X104624500Y-130465000D01*
X105035700Y-130053700D02*
X105119700Y-129969700D01*
X103903300Y-131396700D02*
X104442500Y-130857500D01*
X103903300Y-131396700D02*
X103364000Y-131936000D01*
X106110200Y-129969700D02*
X105615000Y-129474400D01*
X107024400Y-129969700D02*
X106110200Y-129969700D01*
X109209800Y-132155100D02*
X107024400Y-129969700D01*
X105119700Y-129969700D02*
X105615000Y-129474400D01*
X112969700Y-134569700D02*
X111941600Y-133541600D01*
X117175300Y-139492500D02*
X116676700Y-139492500D01*
X118368600Y-140685800D02*
X117175300Y-139492500D01*
X118368600Y-149331100D02*
X118368600Y-140685800D01*
X117877100Y-149822600D02*
X118368600Y-149331100D01*
D17*
X105573800Y-163146200D02*
X102100000Y-166620000D01*
X105573800Y-159499600D02*
X105573800Y-163146200D01*
X90277500Y-143203700D02*
X90859600Y-142621600D01*
X85633700Y-143203700D02*
X90277500Y-143203700D01*
X84480000Y-142050000D02*
X85633700Y-143203700D01*
X92791200Y-140690000D02*
X95537200Y-140690000D01*
X90859600Y-142621600D02*
X92791200Y-140690000D01*
X95537200Y-137992800D02*
X102029700Y-131500300D01*
X95537200Y-140690000D02*
X95537200Y-137992800D01*
X109250000Y-124280000D02*
X102029700Y-131500300D01*
X119642500Y-150386000D02*
X119642500Y-147966900D01*
X110528900Y-159499600D02*
X119642500Y-150386000D01*
X105573800Y-159499600D02*
X110528900Y-159499600D01*
X125636900Y-147966900D02*
X126820000Y-149150000D01*
X119642500Y-147966900D02*
X125636900Y-147966900D01*
X119642500Y-147966900D02*
X119642500Y-147200000D01*
X113263500Y-141835500D02*
X114395200Y-140703800D01*
X109881600Y-133529000D02*
X110930300Y-132480300D01*
X113000400Y-151400400D02*
X112770600Y-151170500D01*
X109280300Y-134130300D02*
X109881600Y-133529000D01*
X113230300Y-150710800D02*
X112770600Y-151170500D01*
X113230300Y-150629700D02*
X113230300Y-150710800D01*
X114608300Y-149251700D02*
X113230300Y-150629700D01*
X114608300Y-143180300D02*
X114608300Y-149251700D01*
X113263500Y-141835500D02*
X114608300Y-143180300D01*
X114719700Y-139269700D02*
X114153800Y-138703800D01*
X114003800Y-138703800D02*
X114153800Y-138703800D01*
X112480300Y-137180300D02*
X114003800Y-138703800D01*
X114719700Y-139269700D02*
X114171400Y-139818000D01*
X114245000Y-140108600D02*
X114245000Y-140106900D01*
X114385400Y-140249000D02*
X114245000Y-140108600D01*
X114385400Y-140694100D02*
X114385400Y-140249000D01*
X114395200Y-140703800D02*
X114385400Y-140694100D01*
X114245000Y-139891700D02*
X114171400Y-139818000D01*
X114245000Y-140106900D02*
X114245000Y-139891700D01*
X113000400Y-151400400D02*
X113230300Y-151630300D01*
X113230300Y-155711900D02*
X111511200Y-157431000D01*
X113230300Y-152550000D02*
X113230300Y-155711900D01*
X113690200Y-152090100D02*
X113230300Y-152550000D01*
X113230300Y-151630300D02*
X113690200Y-152090100D01*
X112480300Y-137180300D02*
X112020600Y-136720500D01*
X94619700Y-150519700D02*
X95221000Y-149918400D01*
X104753400Y-137617600D02*
X104753400Y-138978800D01*
X107797200Y-134573800D02*
X104753400Y-137617600D01*
X108277200Y-134573800D02*
X107797200Y-134573800D01*
X108720700Y-134130300D02*
X108277200Y-134573800D01*
X109280300Y-134130300D02*
X108720700Y-134130300D01*
X111694000Y-137047100D02*
X112020600Y-136720500D01*
X110854600Y-137047100D02*
X111694000Y-137047100D01*
X109973700Y-136166200D02*
X110854600Y-137047100D01*
X109033200Y-136166200D02*
X109973700Y-136166200D01*
X106220600Y-138978800D02*
X109033200Y-136166200D01*
X104753400Y-138978800D02*
X106220600Y-138978800D01*
X95774100Y-149193400D02*
X95708200Y-149259300D01*
X95220900Y-149918400D02*
X95221000Y-149918400D01*
X95220900Y-149746600D02*
X95220900Y-149918400D01*
X95708200Y-149259300D02*
X95220900Y-149746600D01*
X93464200Y-147015300D02*
X95708200Y-149259300D01*
X93464200Y-146148700D02*
X93464200Y-147015300D01*
X96001100Y-143611800D02*
X93464200Y-146148700D01*
X99452300Y-143611800D02*
X96001100Y-143611800D01*
X104085300Y-138978800D02*
X99452300Y-143611800D01*
X104753400Y-138978800D02*
X104085300Y-138978800D01*
X114030300Y-135630300D02*
X113429100Y-136231500D01*
X113317200Y-136119700D02*
X113429100Y-136231500D01*
X111419700Y-136119700D02*
X113317200Y-136119700D01*
X105584900Y-138200300D02*
X107606600Y-136178600D01*
X110846800Y-135546800D02*
X111419700Y-136119700D01*
X109238100Y-135546800D02*
X110846800Y-135546800D01*
X108738300Y-135046900D02*
X109238100Y-135546800D01*
X107606600Y-136178600D02*
X108738300Y-135046900D01*
D16*
X95680300Y-151580300D02*
X96228500Y-151032100D01*
X95680300Y-151580300D02*
X95132100Y-152128500D01*
X110619700Y-152119700D02*
X111026400Y-152526400D01*
X95132100Y-152128500D02*
X94621100Y-151617500D01*
X97707100Y-148906600D02*
X98785800Y-147827900D01*
X110860000Y-152692800D02*
X111026400Y-152526400D01*
X110860000Y-154794100D02*
X110860000Y-152692800D01*
X109634500Y-156019600D02*
X110860000Y-154794100D01*
X104546100Y-156019600D02*
X109634500Y-156019600D01*
X101877300Y-158688400D02*
X104546100Y-156019600D01*
X101564700Y-158688400D02*
X101877300Y-158688400D01*
X98595600Y-155719300D02*
X101564700Y-158688400D01*
X98595600Y-155204400D02*
X98595600Y-155719300D01*
X99212100Y-154587900D02*
X98595600Y-155204400D01*
X99212100Y-154015700D02*
X99212100Y-154587900D01*
X96228500Y-151032100D02*
X99212100Y-154015700D01*
X97707100Y-148906600D02*
X96628600Y-149985100D01*
X96628600Y-150632000D02*
X96628600Y-149985100D01*
X96228500Y-151032100D02*
X96628600Y-150632000D01*
X103547300Y-142555700D02*
X103547400Y-142555700D01*
X103547300Y-143608900D02*
X103547300Y-142555700D01*
X99328300Y-147827900D02*
X103547300Y-143608900D01*
X98785800Y-147827900D02*
X99328300Y-147827900D01*
D17*
X112169700Y-150569700D02*
X111568500Y-151170900D01*
X108321500Y-151021500D02*
X108321500Y-151161500D01*
X106695700Y-149395700D02*
X108321500Y-151021500D01*
X105554700Y-149395700D02*
X106695700Y-149395700D01*
X104821200Y-150129200D02*
X105554700Y-149395700D01*
X99313000Y-150129200D02*
X104821200Y-150129200D01*
X99121400Y-150320800D02*
X99313000Y-150129200D01*
X111559000Y-151161500D02*
X111568500Y-151170900D01*
X108321500Y-151161500D02*
X111559000Y-151161500D01*
D16*
X100535600Y-151735000D02*
X101614300Y-150656300D01*
X108969700Y-153719700D02*
X108562900Y-153312900D01*
X103924500Y-150893200D02*
X103924500Y-151204600D01*
X105364800Y-150893200D02*
X103924500Y-150893200D01*
X107784500Y-153312900D02*
X105364800Y-150893200D01*
X108562900Y-153312900D02*
X107784500Y-153312900D01*
X101692600Y-150734700D02*
X101614300Y-150656300D01*
X103354900Y-150734700D02*
X101692600Y-150734700D01*
X103513400Y-150893200D02*
X103354900Y-150734700D01*
X103924500Y-150893200D02*
X103513400Y-150893200D01*
X106192400Y-134764400D02*
X107271100Y-133685700D01*
X109869700Y-131419700D02*
X110276400Y-131826400D01*
X107506500Y-133921200D02*
X107271100Y-133685700D01*
X108186800Y-133921200D02*
X107506500Y-133921200D01*
X109327600Y-132780400D02*
X108186800Y-133921200D01*
X109468900Y-132780400D02*
X109327600Y-132780400D01*
X109835100Y-132414200D02*
X109468900Y-132780400D01*
X109835100Y-132272900D02*
X109835100Y-132414200D01*
X109869700Y-132238300D02*
X109835100Y-132272900D01*
X109869700Y-132233100D02*
X109869700Y-132238300D01*
X110276400Y-131826400D02*
X109869700Y-132233100D01*
X104745400Y-147075000D02*
X105389300Y-146431100D01*
X102721200Y-147075000D02*
X104745400Y-147075000D01*
X101980600Y-147815600D02*
X102721200Y-147075000D01*
X101980600Y-148425600D02*
X101980600Y-147815600D01*
X103694100Y-145456700D02*
X105342600Y-145456700D01*
X101098300Y-148052500D02*
X103694100Y-145456700D01*
X101098300Y-149056900D02*
X101098300Y-148052500D01*
X100567800Y-159458500D02*
X102412100Y-159458500D01*
X91222300Y-150113000D02*
X100567800Y-159458500D01*
X91222300Y-146906100D02*
X91222300Y-150113000D01*
X93464500Y-144663900D02*
X91222300Y-146906100D01*
X102960300Y-158910300D02*
X102412100Y-159458500D01*
X93869100Y-142911500D02*
X93128800Y-142171200D01*
X99007000Y-142911500D02*
X93869100Y-142911500D01*
X92050300Y-143249700D02*
X93128800Y-142171200D01*
X108219700Y-133069700D02*
X106180300Y-131030300D01*
D17*
X107951800Y-138787000D02*
X107951800Y-139652500D01*
X107889300Y-138724500D02*
X107951800Y-138787000D01*
X109020900Y-137592900D02*
X107889300Y-138724500D01*
X110068400Y-142176300D02*
X110637200Y-142745100D01*
X110068400Y-140903700D02*
X110068400Y-142176300D01*
X109303500Y-140138700D02*
X110068400Y-140903700D01*
X110435100Y-139007100D02*
X109303500Y-140138700D01*
X111849300Y-142684600D02*
X111849300Y-143577800D01*
X110717700Y-141552900D02*
X111849300Y-142684600D01*
X111849300Y-140421300D02*
X110717700Y-141552900D01*
X98519200Y-146360700D02*
X98766400Y-146113500D01*
X97424600Y-146360700D02*
X98519200Y-146360700D01*
X97424600Y-146360600D02*
X97424600Y-146360700D01*
X96292900Y-147492300D02*
X97424600Y-146360600D01*
X99516700Y-146661800D02*
X99516700Y-145802700D01*
X99516700Y-145802700D02*
X98872899Y-145158899D01*
X98872899Y-145158899D02*
X95797956Y-145158899D01*
X95797956Y-145158899D02*
X94878719Y-146078136D01*
X112220000Y-79900000D02*
X110270000Y-77950000D01*
X116930200Y-79900000D02*
X112220000Y-79900000D01*
X129994800Y-79900000D02*
X123255700Y-79900000D01*
X123255700Y-79900000D02*
X116930200Y-79900000D01*
X145616200Y-80163800D02*
X147830000Y-77950000D01*
X142084700Y-80163800D02*
X145616200Y-80163800D01*
X141820900Y-79900000D02*
X136235100Y-79900000D01*
X142084700Y-80163800D02*
X141820900Y-79900000D01*
X136235100Y-79900000D02*
X129994800Y-79900000D01*
X128596300Y-80872700D02*
X134846300Y-80872700D01*
X146590900Y-80914100D02*
X147605000Y-79900000D01*
X141235300Y-80914100D02*
X146590900Y-80914100D01*
X148420000Y-79900000D02*
X147605000Y-79900000D01*
X150370000Y-77950000D02*
X148420000Y-79900000D01*
X134887700Y-80914100D02*
X141235300Y-80914100D01*
X134846300Y-80872700D02*
X134887700Y-80914100D01*
X121638800Y-80872700D02*
X121612800Y-80846700D01*
X128596300Y-80872700D02*
X121638800Y-80872700D01*
X115338400Y-80846700D02*
X115179400Y-80687700D01*
X121612800Y-80846700D02*
X115338400Y-80846700D01*
X110467700Y-80687700D02*
X107730000Y-77950000D01*
X115179400Y-80687700D02*
X110467700Y-80687700D01*
X112370000Y-91700000D02*
X110320000Y-89650000D01*
X117039700Y-91700000D02*
X112370000Y-91700000D01*
X123287100Y-91700000D02*
X117039700Y-91700000D01*
X130021000Y-91700000D02*
X123287100Y-91700000D01*
X130021000Y-91700000D02*
X136497100Y-91700000D01*
X136497100Y-91700000D02*
X142993000Y-91700000D01*
X145830000Y-91700000D02*
X147830000Y-89700000D01*
X142993000Y-91700000D02*
X145830000Y-91700000D01*
X141606900Y-93050000D02*
X135086500Y-93050000D01*
X128566100Y-93050000D02*
X128160200Y-92644100D01*
X135086500Y-93050000D02*
X128566100Y-93050000D01*
X148441100Y-91628900D02*
X147858500Y-91628900D01*
X150370000Y-89700000D02*
X148441100Y-91628900D01*
X146437400Y-93050000D02*
X141606900Y-93050000D01*
X147858500Y-91628900D02*
X146437400Y-93050000D01*
X128159300Y-92643200D02*
X121659300Y-92643200D01*
X128160200Y-92644100D02*
X128159300Y-92643200D01*
X115359900Y-92643200D02*
X115204400Y-92487700D01*
X121659300Y-92643200D02*
X115359900Y-92643200D01*
X110617700Y-92487700D02*
X107780000Y-89650000D01*
X115204400Y-92487700D02*
X110617700Y-92487700D01*
X123588400Y-103100000D02*
X117054600Y-103100000D01*
X112270000Y-103100000D02*
X110270000Y-101100000D01*
X117054600Y-103100000D02*
X112270000Y-103100000D01*
X123588400Y-103100000D02*
X129830000Y-103100000D01*
X145830000Y-103100000D02*
X143005500Y-103100000D01*
X147830000Y-101100000D02*
X145830000Y-103100000D01*
X143005500Y-103100000D02*
X135956700Y-103100000D01*
X135956700Y-103100000D02*
X129830000Y-103100000D01*
X128342600Y-104009000D02*
X134691500Y-104009000D01*
X148561600Y-102908400D02*
X147600700Y-102908400D01*
X150370000Y-101100000D02*
X148561600Y-102908400D01*
X134691500Y-104009000D02*
X141205400Y-104009000D01*
X146500100Y-104009000D02*
X147600700Y-102908400D01*
X141205400Y-104009000D02*
X146500100Y-104009000D01*
X128327700Y-103994100D02*
X121727300Y-103994100D01*
X128342600Y-104009000D02*
X128327700Y-103994100D01*
X115335800Y-103994100D02*
X115229400Y-103887700D01*
X121727300Y-103994100D02*
X115335800Y-103994100D01*
X110517700Y-103887700D02*
X107730000Y-101100000D01*
X115229400Y-103887700D02*
X110517700Y-103887700D01*
X145880000Y-114500000D02*
X142958700Y-114500000D01*
X147880000Y-112500000D02*
X145880000Y-114500000D01*
X130087600Y-114328600D02*
X129916200Y-114500000D01*
X136315200Y-114328600D02*
X130087600Y-114328600D01*
X136486600Y-114500000D02*
X136315200Y-114328600D01*
X136808000Y-114178600D02*
X136486600Y-114500000D01*
X142637300Y-114178600D02*
X136808000Y-114178600D01*
X142958700Y-114500000D02*
X142637300Y-114178600D01*
X123867300Y-114129100D02*
X123496400Y-114500000D01*
X129545300Y-114129100D02*
X123867300Y-114129100D01*
X129916200Y-114500000D02*
X129545300Y-114129100D01*
X111843200Y-114023200D02*
X110320000Y-112500000D01*
X116448700Y-114023200D02*
X111843200Y-114023200D01*
X116925500Y-114500000D02*
X116448700Y-114023200D01*
X123496400Y-114500000D02*
X116925500Y-114500000D01*
X110076300Y-114796300D02*
X115179400Y-114796300D01*
X107780000Y-112500000D02*
X110076300Y-114796300D01*
X128245800Y-114879500D02*
X128245800Y-115250200D01*
X134778000Y-115250400D02*
X134934900Y-115093500D01*
X128246000Y-115250400D02*
X134778000Y-115250400D01*
X128245800Y-115250200D02*
X128246000Y-115250400D01*
X115684700Y-115301600D02*
X121625600Y-115301600D01*
X115179400Y-114796300D02*
X115684700Y-115301600D01*
X128194400Y-115301600D02*
X128245800Y-115250200D01*
X121625600Y-115301600D02*
X128194400Y-115301600D01*
X148467000Y-114453000D02*
X147556800Y-114453000D01*
X150420000Y-112500000D02*
X148467000Y-114453000D01*
X146759400Y-115250400D02*
X147556800Y-114453000D01*
X141116000Y-115250400D02*
X146759400Y-115250400D01*
X135091800Y-115250400D02*
X141116000Y-115250400D01*
X134934900Y-115093500D02*
X135091800Y-115250400D01*
X141116000Y-115250400D02*
X141116000Y-114977800D01*
X145487200Y-147039100D02*
X151901900Y-147039100D01*
X135970000Y-147200000D02*
X138942400Y-147200000D01*
X134070000Y-149100000D02*
X135970000Y-147200000D01*
X145326300Y-147200000D02*
X145487200Y-147039100D01*
X138942400Y-147200000D02*
X145326300Y-147200000D01*
X146824900Y-145760800D02*
X146816100Y-145752000D01*
X152195700Y-145760800D02*
X146824900Y-145760800D01*
X133544900Y-147085100D02*
X131530000Y-149100000D01*
X134290700Y-147085100D02*
X133544900Y-147085100D01*
X141197600Y-145752000D02*
X140527800Y-146421800D01*
X146816100Y-145752000D02*
X141197600Y-145752000D01*
X134954000Y-146421800D02*
X140527800Y-146421800D01*
X134290700Y-147085100D02*
X134954000Y-146421800D01*
X151102000Y-128672000D02*
X151102000Y-131863200D01*
X149300000Y-126870000D02*
X151102000Y-128672000D01*
X151102000Y-131863200D02*
X151102000Y-138571800D01*
X150996100Y-126026100D02*
X150996100Y-126998400D01*
X149300000Y-124330000D02*
X150996100Y-126026100D01*
X152702000Y-128704300D02*
X152702000Y-133524500D01*
X150996100Y-126998400D02*
X152702000Y-128704300D01*
X152702000Y-133524500D02*
X152702000Y-140284400D01*
X170031800Y-143498200D02*
X166726200Y-143498200D01*
X171530000Y-142000000D02*
X170031800Y-143498200D01*
X160660000Y-143431300D02*
X160243300Y-143848000D01*
X166659300Y-143431300D02*
X160660000Y-143431300D01*
X166726200Y-143498200D02*
X166659300Y-143431300D01*
X172043300Y-144026700D02*
X174070000Y-142000000D01*
X171428400Y-144026700D02*
X172043300Y-144026700D01*
X159647000Y-144602300D02*
X158846700Y-143802000D01*
X165698500Y-144602300D02*
X159647000Y-144602300D01*
X166119200Y-144181600D02*
X165698500Y-144602300D01*
X171190400Y-144264700D02*
X171428400Y-144026700D01*
X166202300Y-144264700D02*
X171190400Y-144264700D01*
X166119200Y-144181600D02*
X166202300Y-144264700D01*
X154087100Y-161867100D02*
X154087100Y-159179400D01*
X156400000Y-164180000D02*
X154087100Y-161867100D01*
X154087100Y-152539900D02*
X154132500Y-152494500D01*
X154087100Y-159179400D02*
X154087100Y-152539900D01*
X156400000Y-166720000D02*
X153541300Y-163861300D01*
X153541300Y-163861300D02*
X153402300Y-164000300D01*
X153295600Y-163615600D02*
X153295600Y-158095000D01*
X153541300Y-163861300D02*
X153295600Y-163615600D01*
X153295600Y-158095000D02*
X153295600Y-150874400D01*
D16*
X113699700Y-149099700D02*
X113292900Y-148692900D01*
X102124100Y-141930300D02*
X99816000Y-144238400D01*
X104568100Y-141930300D02*
X102124100Y-141930300D01*
X107974900Y-145337100D02*
X104568100Y-141930300D01*
X107974900Y-146663200D02*
X107974900Y-145337100D01*
X109620100Y-146663200D02*
X107974900Y-146663200D01*
X111649800Y-148692900D02*
X109620100Y-146663200D01*
X113292900Y-148692900D02*
X111649800Y-148692900D01*
X103021000Y-149428700D02*
X102877500Y-149428700D01*
X104289900Y-148159800D02*
X103021000Y-149428700D01*
X106478300Y-148159800D02*
X104289900Y-148159800D01*
X107974900Y-146663200D02*
X106478300Y-148159800D01*
X98369700Y-154369700D02*
X97962900Y-153962900D01*
X95979100Y-153962900D02*
X97962900Y-153962900D01*
X91873300Y-149857100D02*
X95979100Y-153962900D01*
X99430300Y-155430300D02*
X99837100Y-155837100D01*
X99946000Y-155728200D02*
X99837100Y-155837100D01*
X100219700Y-155728200D02*
X99946000Y-155728200D01*
X114760300Y-150160300D02*
X115308500Y-149612100D01*
X115615900Y-149304700D02*
X115615900Y-149000200D01*
X115308500Y-149612100D02*
X115615900Y-149304700D01*
X111680300Y-153180300D02*
X112087100Y-153587100D01*
X112087100Y-153622500D02*
X112344100Y-153879500D01*
X112087100Y-153587100D02*
X112087100Y-153622500D01*
X101899700Y-157849700D02*
X101492900Y-157442900D01*
X101492900Y-156057500D02*
X101492900Y-157442900D01*
X100396300Y-154960900D02*
X101492900Y-156057500D01*
X100396300Y-153433800D02*
X100396300Y-154960900D01*
X102213900Y-151616200D02*
X100396300Y-153433800D01*
M02*
