G04 #@! TF.FileFunction,Copper,L1,Top,Signal*
%FSLAX46Y46*%
G04 Gerber Fmt 4.6, Leading zero omitted, Abs format (unit mm)*
G04 Created by KiCad (PCBNEW 4.1.0-alpha+201605262346+6832~44~ubuntu16.04.1-product) date Sun Jun 12 17:49:52 2016*
%MOMM*%
%LPD*%
G01*
G04 APERTURE LIST*
%ADD10C,0.100000*%
%ADD11R,1.400000X1.400000*%
%ADD12R,1.300000X1.400000*%
%ADD13C,1.399540*%
%ADD14C,1.500000*%
%ADD15R,0.800000X0.750000*%
%ADD16R,1.400000X1.300000*%
%ADD17R,0.750000X0.800000*%
%ADD18O,0.300000X0.850000*%
%ADD19O,0.850000X0.300000*%
%ADD20R,1.675000X1.675000*%
%ADD21C,0.700000*%
%ADD22C,0.700000*%
%ADD23R,3.657600X2.032000*%
%ADD24R,1.016000X2.032000*%
%ADD25R,0.800100X0.800100*%
%ADD26C,0.600000*%
%ADD27C,0.400000*%
%ADD28C,0.250000*%
G04 APERTURE END LIST*
D10*
D11*
X107300000Y-134800000D03*
X107300000Y-130400000D03*
D12*
X105700000Y-130400000D03*
X105700000Y-134800000D03*
D11*
X104100000Y-134800000D03*
X104100000Y-130400000D03*
X107300000Y-141250000D03*
X107300000Y-136850000D03*
D12*
X105700000Y-136850000D03*
X105700000Y-141250000D03*
D11*
X104100000Y-141250000D03*
X104100000Y-136850000D03*
X107300000Y-128350000D03*
X107300000Y-123950000D03*
D12*
X105700000Y-123950000D03*
X105700000Y-128350000D03*
D11*
X104100000Y-128350000D03*
X104100000Y-123950000D03*
D13*
X101171296Y-137440511D03*
X97280511Y-141331296D03*
X98693000Y-134962215D03*
X94731504Y-138782289D03*
D14*
X102100000Y-126820000D03*
X102100000Y-124280000D03*
X109250000Y-126820000D03*
X109250000Y-124280000D03*
D15*
X110550000Y-156300000D03*
X109050000Y-156300000D03*
X109050000Y-158000000D03*
X110550000Y-158000000D03*
D11*
X104100000Y-156400000D03*
X104100000Y-160800000D03*
D12*
X105700000Y-160800000D03*
X105700000Y-156400000D03*
D11*
X107300000Y-156400000D03*
X107300000Y-160800000D03*
X104100000Y-162850000D03*
X104100000Y-167250000D03*
D12*
X105700000Y-167250000D03*
X105700000Y-162850000D03*
D11*
X107300000Y-162850000D03*
X107300000Y-167250000D03*
D14*
X109300000Y-164110000D03*
X109300000Y-166650000D03*
X102100000Y-164080000D03*
X102100000Y-166620000D03*
D11*
X94800000Y-144000000D03*
X90400000Y-144000000D03*
D16*
X90400000Y-145600000D03*
X94800000Y-145600000D03*
D11*
X94800000Y-147200000D03*
X90400000Y-147200000D03*
D14*
X87020000Y-149150000D03*
X84480000Y-149150000D03*
D17*
X92730000Y-140690000D03*
X92730000Y-142190000D03*
D18*
X100250000Y-149800000D03*
X99750000Y-149800000D03*
X99250000Y-149800000D03*
X98750000Y-149800000D03*
X98250000Y-149800000D03*
X97750000Y-149800000D03*
X97250000Y-149800000D03*
D19*
X96300000Y-150750000D03*
X96300000Y-151250000D03*
X96300000Y-151750000D03*
X96300000Y-152250000D03*
X96300000Y-152750000D03*
X96300000Y-153250000D03*
X96300000Y-153750000D03*
D18*
X97250000Y-154700000D03*
X97750000Y-154700000D03*
X98250000Y-154700000D03*
X98750000Y-154700000D03*
X99250000Y-154700000D03*
X99750000Y-154700000D03*
X100250000Y-154700000D03*
D19*
X101200000Y-153750000D03*
X101200000Y-153250000D03*
X101200000Y-152750000D03*
X101200000Y-152250000D03*
X101200000Y-151750000D03*
X101200000Y-151250000D03*
X101200000Y-150750000D03*
D20*
X97912500Y-153087500D03*
X99587500Y-153087500D03*
X97912500Y-151412500D03*
X99587500Y-151412500D03*
D11*
X88400000Y-144000000D03*
X84000000Y-144000000D03*
D16*
X84000000Y-145600000D03*
X88400000Y-145600000D03*
D11*
X88400000Y-147200000D03*
X84000000Y-147200000D03*
D17*
X94550000Y-142190000D03*
X94550000Y-140690000D03*
D11*
X101200000Y-144000000D03*
X96800000Y-144000000D03*
D16*
X96800000Y-145600000D03*
X101200000Y-145600000D03*
D11*
X101200000Y-147200000D03*
X96800000Y-147200000D03*
D14*
X87020000Y-142050000D03*
X84480000Y-142050000D03*
D17*
X118650000Y-142150000D03*
X118650000Y-140650000D03*
X116650000Y-142130000D03*
X116650000Y-140630000D03*
D11*
X109950000Y-147200000D03*
X114350000Y-147200000D03*
D16*
X114350000Y-145600000D03*
X109950000Y-145600000D03*
D11*
X109950000Y-144000000D03*
X114350000Y-144000000D03*
D21*
X107864186Y-142895559D02*
X108217740Y-143249113D01*
X102808373Y-147951373D02*
X103161927Y-148304927D01*
D22*
X104399717Y-146399627D03*
X105342644Y-145456700D03*
X106240669Y-144558675D03*
X105389313Y-146431093D03*
X106326229Y-145529532D03*
D11*
X116500000Y-147200000D03*
X120900000Y-147200000D03*
D16*
X120900000Y-145600000D03*
X116500000Y-145600000D03*
D11*
X116500000Y-144000000D03*
X120900000Y-144000000D03*
X104100000Y-150000000D03*
X104100000Y-154400000D03*
D12*
X105700000Y-154400000D03*
X105700000Y-150000000D03*
D11*
X107300000Y-150000000D03*
X107300000Y-154400000D03*
D13*
X109928704Y-153879489D03*
X113819489Y-149988704D03*
X112407000Y-156357785D03*
X116368496Y-152537711D03*
D14*
X110320000Y-119700000D03*
X107780000Y-119700000D03*
D11*
X111810000Y-103100000D03*
X107410000Y-103100000D03*
D16*
X107410000Y-104700000D03*
X111810000Y-104700000D03*
D11*
X111810000Y-106300000D03*
X107410000Y-106300000D03*
X111800000Y-114500000D03*
X107400000Y-114500000D03*
D16*
X107400000Y-116100000D03*
X111800000Y-116100000D03*
D11*
X111800000Y-117700000D03*
X107400000Y-117700000D03*
X118250000Y-114500000D03*
X113850000Y-114500000D03*
D16*
X113850000Y-116100000D03*
X118250000Y-116100000D03*
D11*
X118250000Y-117700000D03*
X113850000Y-117700000D03*
X118350000Y-103100000D03*
X113950000Y-103100000D03*
D16*
X113950000Y-104700000D03*
X118350000Y-104700000D03*
D11*
X118350000Y-106300000D03*
X113950000Y-106300000D03*
D14*
X110270000Y-108300000D03*
X107730000Y-108300000D03*
X110270000Y-101100000D03*
X107730000Y-101100000D03*
X110320000Y-112500000D03*
X107780000Y-112500000D03*
X110290000Y-96850000D03*
X107750000Y-96850000D03*
D11*
X111800000Y-91700000D03*
X107400000Y-91700000D03*
D16*
X107400000Y-93300000D03*
X111800000Y-93300000D03*
D11*
X111800000Y-94900000D03*
X107400000Y-94900000D03*
X111800000Y-79900000D03*
X107400000Y-79900000D03*
D16*
X107400000Y-81500000D03*
X111800000Y-81500000D03*
D11*
X111800000Y-83100000D03*
X107400000Y-83100000D03*
D14*
X110270000Y-85100000D03*
X107730000Y-85100000D03*
X110270000Y-77950000D03*
X107730000Y-77950000D03*
X110320000Y-89650000D03*
X107780000Y-89650000D03*
D11*
X131250000Y-79900000D03*
X126850000Y-79900000D03*
D16*
X126850000Y-81500000D03*
X131250000Y-81500000D03*
D11*
X131250000Y-83100000D03*
X126850000Y-83100000D03*
X137750000Y-79900000D03*
X133350000Y-79900000D03*
D16*
X133350000Y-81500000D03*
X137750000Y-81500000D03*
D11*
X137750000Y-83100000D03*
X133350000Y-83100000D03*
X137750000Y-91700000D03*
X133350000Y-91700000D03*
D16*
X133350000Y-93300000D03*
X137750000Y-93300000D03*
D11*
X137750000Y-94900000D03*
X133350000Y-94900000D03*
X131300000Y-91700000D03*
X126900000Y-91700000D03*
D16*
X126900000Y-93300000D03*
X131300000Y-93300000D03*
D11*
X131300000Y-94900000D03*
X126900000Y-94900000D03*
X131250000Y-114500000D03*
X126850000Y-114500000D03*
D16*
X126850000Y-116100000D03*
X131250000Y-116100000D03*
D11*
X131250000Y-117700000D03*
X126850000Y-117700000D03*
X131310000Y-103100000D03*
X126910000Y-103100000D03*
D16*
X126910000Y-104700000D03*
X131310000Y-104700000D03*
D11*
X131310000Y-106300000D03*
X126910000Y-106300000D03*
X124850000Y-103100000D03*
X120450000Y-103100000D03*
D16*
X120450000Y-104700000D03*
X124850000Y-104700000D03*
D11*
X124850000Y-106300000D03*
X120450000Y-106300000D03*
X137750000Y-114500000D03*
X133350000Y-114500000D03*
D16*
X133350000Y-116100000D03*
X137750000Y-116100000D03*
D11*
X137750000Y-117700000D03*
X133350000Y-117700000D03*
X137800000Y-103100000D03*
X133400000Y-103100000D03*
D16*
X133400000Y-104700000D03*
X137800000Y-104700000D03*
D11*
X137800000Y-106300000D03*
X133400000Y-106300000D03*
X124750000Y-114500000D03*
X120350000Y-114500000D03*
D16*
X120350000Y-116100000D03*
X124750000Y-116100000D03*
D11*
X124750000Y-117700000D03*
X120350000Y-117700000D03*
X144250000Y-79900000D03*
X139850000Y-79900000D03*
D16*
X139850000Y-81500000D03*
X144250000Y-81500000D03*
D11*
X144250000Y-83100000D03*
X139850000Y-83100000D03*
X150750000Y-79900000D03*
X146350000Y-79900000D03*
D16*
X146350000Y-81500000D03*
X150750000Y-81500000D03*
D11*
X150750000Y-83100000D03*
X146350000Y-83100000D03*
D14*
X150370000Y-85050000D03*
X147830000Y-85050000D03*
X150370000Y-77950000D03*
X147830000Y-77950000D03*
X150370000Y-96850000D03*
X147830000Y-96850000D03*
D11*
X144250000Y-91700000D03*
X139850000Y-91700000D03*
D16*
X139850000Y-93300000D03*
X144250000Y-93300000D03*
D11*
X144250000Y-94900000D03*
X139850000Y-94900000D03*
X150750000Y-91700000D03*
X146350000Y-91700000D03*
D16*
X146350000Y-93300000D03*
X150750000Y-93300000D03*
D11*
X150750000Y-94900000D03*
X146350000Y-94900000D03*
D14*
X150370000Y-89700000D03*
X147830000Y-89700000D03*
D11*
X124800000Y-91700000D03*
X120400000Y-91700000D03*
D16*
X120400000Y-93300000D03*
X124800000Y-93300000D03*
D11*
X124800000Y-94900000D03*
X120400000Y-94900000D03*
X118300000Y-91700000D03*
X113900000Y-91700000D03*
D16*
X113900000Y-93300000D03*
X118300000Y-93300000D03*
D11*
X118300000Y-94900000D03*
X113900000Y-94900000D03*
X118250000Y-79900000D03*
X113850000Y-79900000D03*
D16*
X113850000Y-81500000D03*
X118250000Y-81500000D03*
D11*
X118250000Y-83100000D03*
X113850000Y-83100000D03*
X124750000Y-79900000D03*
X120350000Y-79900000D03*
D16*
X120350000Y-81500000D03*
X124750000Y-81500000D03*
D11*
X124750000Y-83100000D03*
X120350000Y-83100000D03*
X144300000Y-103100000D03*
X139900000Y-103100000D03*
D16*
X139900000Y-104700000D03*
X144300000Y-104700000D03*
D11*
X144300000Y-106300000D03*
X139900000Y-106300000D03*
X150750000Y-103100000D03*
X146350000Y-103100000D03*
D16*
X146350000Y-104700000D03*
X150750000Y-104700000D03*
D11*
X150750000Y-106300000D03*
X146350000Y-106300000D03*
D14*
X150370000Y-101100000D03*
X147830000Y-101100000D03*
D11*
X150700000Y-114500000D03*
X146300000Y-114500000D03*
D16*
X146300000Y-116100000D03*
X150700000Y-116100000D03*
D11*
X150700000Y-117700000D03*
X146300000Y-117700000D03*
D14*
X150370000Y-108300000D03*
X147830000Y-108300000D03*
D11*
X144250000Y-114500000D03*
X139850000Y-114500000D03*
D16*
X139850000Y-116100000D03*
X144250000Y-116100000D03*
D11*
X144250000Y-117700000D03*
X139850000Y-117700000D03*
D14*
X150420000Y-119700000D03*
X147880000Y-119700000D03*
X150420000Y-112500000D03*
X147880000Y-112500000D03*
X124280000Y-149150000D03*
X126820000Y-149150000D03*
D11*
X154450000Y-153750000D03*
X154450000Y-149350000D03*
D12*
X152850000Y-149350000D03*
X152850000Y-153750000D03*
D11*
X151250000Y-153750000D03*
X151250000Y-149350000D03*
X122950000Y-147200000D03*
X127350000Y-147200000D03*
D16*
X127350000Y-145600000D03*
X122950000Y-145600000D03*
D11*
X122950000Y-144000000D03*
X127350000Y-144000000D03*
D14*
X149300000Y-166670000D03*
X149300000Y-164130000D03*
X156400000Y-166720000D03*
X156400000Y-164180000D03*
D11*
X154450000Y-167150000D03*
X154450000Y-162750000D03*
D12*
X152850000Y-162750000D03*
X152850000Y-167150000D03*
D11*
X151250000Y-167150000D03*
X151250000Y-162750000D03*
X154450000Y-160450000D03*
X154450000Y-156050000D03*
D12*
X152850000Y-156050000D03*
X152850000Y-160450000D03*
D11*
X151250000Y-160450000D03*
X151250000Y-156050000D03*
D14*
X124230000Y-142000000D03*
X126770000Y-142000000D03*
D11*
X144150000Y-147150000D03*
X148550000Y-147150000D03*
D16*
X148550000Y-145550000D03*
X144150000Y-145550000D03*
D11*
X144150000Y-143950000D03*
X148550000Y-143950000D03*
X151250000Y-137300000D03*
X151250000Y-141700000D03*
D12*
X152850000Y-141700000D03*
X152850000Y-137300000D03*
D11*
X154450000Y-137300000D03*
X154450000Y-141700000D03*
X150650000Y-147150000D03*
X155050000Y-147150000D03*
D16*
X155050000Y-145550000D03*
X150650000Y-145550000D03*
D11*
X150650000Y-143950000D03*
X155050000Y-143950000D03*
D14*
X131530000Y-149100000D03*
X134070000Y-149100000D03*
X131550000Y-141950000D03*
X134090000Y-141950000D03*
D11*
X131150000Y-147150000D03*
X135550000Y-147150000D03*
D16*
X135550000Y-145550000D03*
X131150000Y-145550000D03*
D11*
X131150000Y-143950000D03*
X135550000Y-143950000D03*
X137650000Y-147150000D03*
X142050000Y-147150000D03*
D16*
X142050000Y-145550000D03*
X137650000Y-145550000D03*
D11*
X137650000Y-143950000D03*
X142050000Y-143950000D03*
D14*
X174020000Y-149150000D03*
X171480000Y-149150000D03*
D11*
X168000000Y-143950000D03*
X163600000Y-143950000D03*
D16*
X163600000Y-145550000D03*
X168000000Y-145550000D03*
D11*
X168000000Y-147150000D03*
X163600000Y-147150000D03*
X174500000Y-143950000D03*
X170100000Y-143950000D03*
D16*
X170100000Y-145550000D03*
X174500000Y-145550000D03*
D11*
X174500000Y-147150000D03*
X170100000Y-147150000D03*
X161500000Y-143950000D03*
X157100000Y-143950000D03*
D16*
X157100000Y-145550000D03*
X161500000Y-145550000D03*
D11*
X161500000Y-147150000D03*
X157100000Y-147150000D03*
D14*
X174070000Y-142000000D03*
X171530000Y-142000000D03*
D11*
X151250000Y-123950000D03*
X151250000Y-128350000D03*
D12*
X152850000Y-128350000D03*
X152850000Y-123950000D03*
D11*
X154450000Y-123950000D03*
X154450000Y-128350000D03*
X151250000Y-130600000D03*
X151250000Y-135000000D03*
D12*
X152850000Y-135000000D03*
X152850000Y-130600000D03*
D11*
X154450000Y-130600000D03*
X154450000Y-135000000D03*
D14*
X156400000Y-124330000D03*
X156400000Y-126870000D03*
X149300000Y-124330000D03*
X149300000Y-126870000D03*
D23*
X111850000Y-135098000D03*
D24*
X111850000Y-141702000D03*
X114136000Y-141702000D03*
X109564000Y-141702000D03*
D25*
X93600000Y-148949240D03*
X91700000Y-148949240D03*
X92650000Y-150948220D03*
X118700000Y-149000240D03*
X116800000Y-149000240D03*
X117750000Y-150999220D03*
D22*
X101100000Y-154650000D03*
X117650000Y-140980000D03*
X102845000Y-156400000D03*
X104093800Y-157706700D03*
D26*
X109209800Y-132155100D03*
X111941600Y-133541600D03*
X117877100Y-149822600D03*
X116676700Y-139492500D03*
D22*
X105573800Y-159499600D03*
X90859600Y-142621600D03*
X95537200Y-140690000D03*
X102029700Y-131500300D03*
X119642500Y-147200000D03*
X114245000Y-140106900D03*
X111511200Y-157431000D03*
X95774100Y-149193400D03*
X105584900Y-138200300D03*
D26*
X94621100Y-151617500D03*
X103547400Y-142555700D03*
D22*
X108321500Y-151161500D03*
D26*
X103924500Y-151204600D03*
X101980600Y-148425600D03*
X101098300Y-149056900D03*
X99007000Y-142911500D03*
D22*
X107951800Y-139652500D03*
X110637200Y-142745100D03*
X111849300Y-143577800D03*
X98766400Y-146113500D03*
X99516700Y-146661800D03*
X129994800Y-79900000D03*
X142084700Y-80163800D03*
X116930200Y-79900000D03*
X123255700Y-79900000D03*
X136235100Y-79900000D03*
X121612800Y-80846700D03*
X134846300Y-80872700D03*
X141235300Y-80914100D03*
X128596300Y-80872700D03*
X147605000Y-79900000D03*
X115179400Y-80687700D03*
X117039700Y-91700000D03*
X123287100Y-91700000D03*
X136497100Y-91700000D03*
X130021000Y-91700000D03*
X142993000Y-91700000D03*
X121659300Y-92643200D03*
X128160200Y-92644100D03*
X141606900Y-93050000D03*
X135086500Y-93050000D03*
X147858500Y-91628900D03*
X115204400Y-92487700D03*
X143005500Y-103100000D03*
X123588400Y-103100000D03*
X117054600Y-103100000D03*
X129830000Y-103100000D03*
X135956700Y-103100000D03*
X121727300Y-103994100D03*
X147600700Y-102908400D03*
X134691500Y-104009000D03*
X128342600Y-104009000D03*
X141205400Y-104009000D03*
X115229400Y-103887700D03*
X142958700Y-114500000D03*
X136486600Y-114500000D03*
X123496400Y-114500000D03*
X129916200Y-114500000D03*
X116925500Y-114500000D03*
X128245800Y-114879500D03*
X134934900Y-115093500D03*
X147556800Y-114453000D03*
X115179400Y-114796300D03*
X121625600Y-115301600D03*
X141116000Y-114977800D03*
X145487200Y-147039100D03*
X151901900Y-147039100D03*
X138942400Y-147200000D03*
X134290700Y-147085100D03*
X146816100Y-145752000D03*
X152195700Y-145760800D03*
X140527800Y-146421800D03*
X151102000Y-131863200D03*
X151102000Y-138571800D03*
X150996100Y-126998400D03*
X152702000Y-133524500D03*
X152702000Y-140284400D03*
X166726200Y-143498200D03*
X160243300Y-143848000D03*
X166119200Y-144181600D03*
X171428400Y-144026700D03*
X158846700Y-143802000D03*
X154087100Y-159179400D03*
X154132500Y-152494500D03*
X153295600Y-158095000D03*
X153402300Y-164000300D03*
X153295600Y-150874400D03*
D26*
X102877500Y-149428700D03*
X99816000Y-144238400D03*
X91873300Y-149857100D03*
X100219700Y-155728200D03*
X115615900Y-149000200D03*
X112344100Y-153879500D03*
X102213900Y-151616200D03*
D27*
X107300000Y-141250000D02*
X107300000Y-142350300D01*
X99587500Y-151412500D02*
X99587500Y-151412000D01*
X99150300Y-151174700D02*
X99250000Y-151075000D01*
X99150300Y-151412500D02*
X99150300Y-151174700D01*
D28*
X99250000Y-149800000D02*
X99250000Y-151075000D01*
X99250000Y-151075000D02*
X99587500Y-151412000D01*
D27*
X118650000Y-140650000D02*
X118024800Y-140650000D01*
X89491000Y-142899700D02*
X88400000Y-142899700D01*
X91700700Y-140690000D02*
X89491000Y-142899700D01*
X91954700Y-140690000D02*
X91700700Y-140690000D01*
X92730000Y-140690000D02*
X91954700Y-140690000D01*
X88400000Y-144000000D02*
X88400000Y-142899700D01*
X87550300Y-142050000D02*
X88400000Y-142899700D01*
X87020000Y-142050000D02*
X87550300Y-142050000D01*
X99587500Y-153087500D02*
X99587500Y-153088000D01*
X99587500Y-153087500D02*
X99150300Y-153087500D01*
X98531400Y-151412500D02*
X98531400Y-153087500D01*
X97912500Y-153087500D02*
X98531400Y-153087500D01*
X98531400Y-153087500D02*
X99150300Y-153087500D01*
X97912500Y-151412500D02*
X98531400Y-151412500D01*
X98531400Y-151412500D02*
X99150300Y-151412500D01*
X109625300Y-157075300D02*
X110550000Y-158000000D01*
X109050000Y-157075300D02*
X109625300Y-157075300D01*
X109050000Y-156662400D02*
X109050000Y-157075300D01*
X108181700Y-157500300D02*
X104100000Y-157500300D01*
X109019600Y-156662400D02*
X108181700Y-157500300D01*
X109050000Y-156662400D02*
X109019600Y-156662400D01*
X109050000Y-156481200D02*
X109050000Y-156662400D01*
X116650000Y-140630000D02*
X115874700Y-140630000D01*
X109564000Y-140285700D02*
X110556700Y-139293000D01*
X115874700Y-140454200D02*
X115874700Y-140630000D01*
X114713500Y-139293000D02*
X115874700Y-140454200D01*
X110556700Y-139293000D02*
X114713500Y-139293000D01*
X109564000Y-141702000D02*
X109564000Y-140993800D01*
X109564000Y-140993800D02*
X109564000Y-140285700D01*
X108656500Y-140993800D02*
X108400300Y-141250000D01*
X109564000Y-140993800D02*
X108656500Y-140993800D01*
X107300000Y-141250000D02*
X108400300Y-141250000D01*
X116650000Y-140630000D02*
X117425300Y-140630000D01*
X117820100Y-140854700D02*
X118024800Y-140650000D01*
X117650000Y-140854700D02*
X117820100Y-140854700D01*
X117425300Y-140630000D02*
X117650000Y-140854700D01*
X122950000Y-147200000D02*
X122950000Y-148262700D01*
X117650000Y-140854700D02*
X117650000Y-140980000D01*
X116500000Y-147200000D02*
X117600300Y-147200000D01*
X117650000Y-140980000D02*
X117650000Y-147150300D01*
X117650000Y-147150300D02*
X117600300Y-147200000D01*
X118224200Y-147150300D02*
X117650000Y-147150300D01*
X119650000Y-148576100D02*
X118224200Y-147150300D01*
X122045100Y-148262700D02*
X122950000Y-148262700D01*
X121731700Y-148576100D02*
X122045100Y-148262700D01*
X119650000Y-148576100D02*
X121731700Y-148576100D01*
X123392700Y-148262700D02*
X124280000Y-149150000D01*
X122950000Y-148262700D02*
X123392700Y-148262700D01*
X110556700Y-138056700D02*
X110556700Y-139293000D01*
X107300000Y-134800000D02*
X110556700Y-138056700D01*
X99955500Y-133699700D02*
X107300000Y-133699700D01*
X98693000Y-134962200D02*
X99955500Y-133699700D01*
X107300000Y-134800000D02*
X107300000Y-133699700D01*
X107300000Y-128350000D02*
X107850200Y-128350000D01*
X108418800Y-132580900D02*
X107300000Y-133699700D01*
X108418800Y-128918600D02*
X108418800Y-132580900D01*
X107850200Y-128350000D02*
X108418800Y-128918600D01*
X109250000Y-126950200D02*
X109250000Y-126820000D01*
X107850200Y-128350000D02*
X109250000Y-126950200D01*
X98551600Y-134962200D02*
X94731500Y-138782300D01*
X98693000Y-134962200D02*
X98551600Y-134962200D01*
X93505300Y-140008500D02*
X93505300Y-140690000D01*
X94731500Y-138782300D02*
X93505300Y-140008500D01*
D28*
X101100000Y-154600000D02*
X101100000Y-154650000D01*
X99587500Y-153088000D02*
X101100000Y-154600000D01*
D27*
X109050000Y-156481200D02*
X109050000Y-156300000D01*
X111573900Y-155524700D02*
X112407000Y-156357800D01*
X109050000Y-155524700D02*
X111573900Y-155524700D01*
X109050000Y-156300000D02*
X109050000Y-155524700D01*
X119650000Y-150482600D02*
X119650000Y-148576100D01*
X117594900Y-152537700D02*
X119650000Y-150482600D01*
X116368500Y-152537700D02*
X117594900Y-152537700D01*
X112548400Y-156357800D02*
X112407000Y-156357800D01*
X116368500Y-152537700D02*
X112548400Y-156357800D01*
X92730000Y-140690000D02*
X93117700Y-140690000D01*
X93117700Y-140690000D02*
X93505300Y-140690000D01*
X94550000Y-142122300D02*
X94550000Y-142190000D01*
X93117700Y-140690000D02*
X94550000Y-142122300D01*
X94800000Y-143240300D02*
X94800000Y-144000000D01*
X94550000Y-142990300D02*
X94800000Y-143240300D01*
X94550000Y-142190000D02*
X94550000Y-142990300D01*
X104100000Y-156400000D02*
X102999700Y-156400000D01*
X102999700Y-156400000D02*
X102845000Y-156400000D01*
X104100000Y-156400000D02*
X104100000Y-156950100D01*
X104100000Y-156950100D02*
X104100000Y-157500300D01*
X104093800Y-156956300D02*
X104093800Y-157706700D01*
X104100000Y-156950100D02*
X104093800Y-156956300D01*
X104100000Y-150000000D02*
X104100000Y-148899700D01*
X107319000Y-142350300D02*
X107300000Y-142350300D01*
X107333600Y-142364900D02*
X107319000Y-142350300D01*
X103756700Y-148899700D02*
X102985100Y-148128100D01*
X104100000Y-148899700D02*
X103756700Y-148899700D01*
X102300300Y-147443300D02*
X102300300Y-144000000D01*
X102985100Y-148128100D02*
X102300300Y-147443300D01*
X101200000Y-144000000D02*
X102300300Y-144000000D01*
X102999700Y-163180300D02*
X102999700Y-162850000D01*
X102100000Y-164080000D02*
X102999700Y-163180300D01*
X104100000Y-162850000D02*
X102999700Y-162850000D01*
X109950000Y-147200000D02*
X108849700Y-147200000D01*
X108041000Y-143072300D02*
X107687300Y-142718600D01*
X107687300Y-142718600D02*
X107333600Y-142364900D01*
X106464600Y-143941300D02*
X106464600Y-144558700D01*
X107687300Y-142718600D02*
X106464600Y-143941300D01*
X108849700Y-146943800D02*
X106464600Y-144558700D01*
X108849700Y-147200000D02*
X108849700Y-146943800D01*
X106464600Y-144558700D02*
X106240700Y-144558700D01*
X105700000Y-136850000D02*
X105700000Y-134800000D01*
X104100000Y-136850000D02*
X104100000Y-134800000D01*
X116500000Y-145600000D02*
X114350000Y-145600000D01*
X116500000Y-144000000D02*
X114350000Y-144000000D01*
X105700000Y-154400000D02*
X105700000Y-156400000D01*
X107300000Y-154400000D02*
X107300000Y-156400000D01*
X96800000Y-145600000D02*
X94800000Y-145600000D01*
X96800000Y-147200000D02*
X94800000Y-147200000D01*
X105700000Y-128350000D02*
X105700000Y-130400000D01*
X104100000Y-128350000D02*
X104100000Y-130400000D01*
X122950000Y-145600000D02*
X120900000Y-145600000D01*
X122950000Y-144000000D02*
X120900000Y-144000000D01*
X124230000Y-143580300D02*
X126249700Y-145600000D01*
X124230000Y-142000000D02*
X124230000Y-143580300D01*
X127350000Y-145600000D02*
X126249700Y-145600000D01*
X127350000Y-142580000D02*
X127350000Y-144000000D01*
X126770000Y-142000000D02*
X127350000Y-142580000D01*
X107739700Y-164110000D02*
X105700000Y-166149700D01*
X109300000Y-164110000D02*
X107739700Y-164110000D01*
X105700000Y-167250000D02*
X105700000Y-166149700D01*
X109000300Y-166650000D02*
X108400300Y-167250000D01*
X109300000Y-166650000D02*
X109000300Y-166650000D01*
X107300000Y-167250000D02*
X108400300Y-167250000D01*
X87020000Y-147519700D02*
X85100300Y-145600000D01*
X87020000Y-149150000D02*
X87020000Y-147519700D01*
X84000000Y-145600000D02*
X85100300Y-145600000D01*
X84000000Y-148670000D02*
X84000000Y-147200000D01*
X84480000Y-149150000D02*
X84000000Y-148670000D01*
X146350000Y-81500000D02*
X144250000Y-81500000D01*
X146350000Y-83100000D02*
X144250000Y-83100000D01*
X146350000Y-93300000D02*
X144250000Y-93300000D01*
X146350000Y-94900000D02*
X144250000Y-94900000D01*
X146350000Y-104700000D02*
X144300000Y-104700000D01*
X146350000Y-106300000D02*
X144300000Y-106300000D01*
X144250000Y-116100000D02*
X146300000Y-116100000D01*
X144250000Y-117700000D02*
X146300000Y-117700000D01*
X139850000Y-81500000D02*
X137750000Y-81500000D01*
X139850000Y-83100000D02*
X137750000Y-83100000D01*
X139850000Y-93300000D02*
X137750000Y-93300000D01*
X139850000Y-94900000D02*
X137750000Y-94900000D01*
X139900000Y-104700000D02*
X137800000Y-104700000D01*
X139900000Y-106300000D02*
X137800000Y-106300000D01*
X139850000Y-116100000D02*
X137750000Y-116100000D01*
X139850000Y-117700000D02*
X137750000Y-117700000D01*
X133350000Y-81500000D02*
X131250000Y-81500000D01*
X133350000Y-83100000D02*
X131250000Y-83100000D01*
X131300000Y-93300000D02*
X133350000Y-93300000D01*
X131300000Y-94900000D02*
X133350000Y-94900000D01*
X133400000Y-104700000D02*
X131310000Y-104700000D01*
X133400000Y-106300000D02*
X131310000Y-106300000D01*
X133350000Y-116100000D02*
X131250000Y-116100000D01*
X133350000Y-117700000D02*
X131250000Y-117700000D01*
X124750000Y-81500000D02*
X126850000Y-81500000D01*
X124750000Y-83100000D02*
X126850000Y-83100000D01*
D28*
X117877100Y-150146800D02*
X117877100Y-149822600D01*
X117750000Y-150273900D02*
X117877100Y-150146800D01*
X109668000Y-136271800D02*
X109668000Y-133541600D01*
X109849000Y-136452800D02*
X109668000Y-136271800D01*
X113637000Y-136452800D02*
X109849000Y-136452800D01*
X116676700Y-139492500D02*
X113637000Y-136452800D01*
X109668000Y-132613300D02*
X109668000Y-133541600D01*
X109209800Y-132155100D02*
X109668000Y-132613300D01*
X109668000Y-133541600D02*
X111941600Y-133541600D01*
X117750000Y-150999200D02*
X117750000Y-150273900D01*
X96300000Y-150750000D02*
X95700000Y-150750000D01*
D27*
X84000000Y-142530000D02*
X84000000Y-144000000D01*
X84480000Y-142050000D02*
X84000000Y-142530000D01*
X102369700Y-166620000D02*
X102999700Y-167250000D01*
X102100000Y-166620000D02*
X102369700Y-166620000D01*
X104100000Y-167250000D02*
X102999700Y-167250000D01*
X104100000Y-160800000D02*
X104100000Y-159699700D01*
X127350000Y-148620000D02*
X127350000Y-147200000D01*
X126820000Y-149150000D02*
X127350000Y-148620000D01*
X96800000Y-144000000D02*
X96800000Y-142899700D01*
X107300000Y-136850000D02*
X107300000Y-137950300D01*
X114350000Y-147200000D02*
X113249700Y-147200000D01*
X94550000Y-140690000D02*
X95325300Y-140690000D01*
X95325300Y-141425000D02*
X96800000Y-142899700D01*
X95325300Y-140690000D02*
X95325300Y-141425000D01*
X90400000Y-144000000D02*
X90400000Y-142899700D01*
X92730000Y-142190000D02*
X91954700Y-142190000D01*
X90581500Y-142899700D02*
X90859600Y-142621600D01*
X90400000Y-142899700D02*
X90581500Y-142899700D01*
X91523100Y-142621600D02*
X91954700Y-142190000D01*
X90859600Y-142621600D02*
X91523100Y-142621600D01*
X90400000Y-144000000D02*
X91500300Y-144000000D01*
X95325300Y-140690000D02*
X95537200Y-140690000D01*
X107300000Y-130400000D02*
X107300000Y-131500300D01*
X107300000Y-131500300D02*
X102029700Y-131500300D01*
X113249700Y-142588300D02*
X113249700Y-147200000D01*
X114136000Y-141702000D02*
X113249700Y-142588300D01*
X120900000Y-147200000D02*
X119799700Y-147200000D01*
X119799700Y-147200000D02*
X119642500Y-147200000D01*
X118650000Y-146207500D02*
X119642500Y-147200000D01*
X118650000Y-142150000D02*
X118650000Y-146207500D01*
X104100000Y-154400000D02*
X102999700Y-154400000D01*
X94106700Y-150873200D02*
X95449100Y-150873200D01*
X92634200Y-149400700D02*
X94106700Y-150873200D01*
X92634200Y-145133900D02*
X92634200Y-149400700D01*
X91500300Y-144000000D02*
X92634200Y-145133900D01*
X95576800Y-150873200D02*
X95700000Y-150750000D01*
X95449100Y-150873200D02*
X95576800Y-150873200D01*
X104300100Y-159499600D02*
X104100000Y-159699700D01*
X105573800Y-159499600D02*
X104300100Y-159499600D01*
X104300100Y-159499600D02*
X101151800Y-156351200D01*
X101059100Y-156443900D02*
X101151800Y-156351200D01*
X97916300Y-156443900D02*
X101059100Y-156443900D01*
X95449100Y-153976700D02*
X97916300Y-156443900D01*
X95449100Y-150873200D02*
X95449100Y-153976700D01*
X102999700Y-154503300D02*
X102999700Y-154400000D01*
X101151800Y-156351200D02*
X102999700Y-154503300D01*
X108730300Y-124280000D02*
X108400300Y-123950000D01*
X109250000Y-124280000D02*
X108730300Y-124280000D01*
X107300000Y-123950000D02*
X108400300Y-123950000D01*
X104399700Y-146503800D02*
X104399700Y-146399600D01*
X106200100Y-148304200D02*
X104399700Y-146503800D01*
X112145500Y-148304200D02*
X106200100Y-148304200D01*
X113249700Y-147200000D02*
X112145500Y-148304200D01*
X97311900Y-142899700D02*
X96800000Y-142899700D01*
X98000400Y-142211200D02*
X97311900Y-142899700D01*
X102829700Y-142211200D02*
X98000400Y-142211200D01*
X102829700Y-140544300D02*
X102829700Y-142211200D01*
X104423400Y-138950600D02*
X102829700Y-140544300D01*
X106299700Y-138950600D02*
X104423400Y-138950600D01*
X107300000Y-137950300D02*
X106299700Y-138950600D01*
X104399700Y-144398300D02*
X104399700Y-146399600D01*
X102829700Y-142828300D02*
X104399700Y-144398300D01*
X102829700Y-142211200D02*
X102829700Y-142828300D01*
X111850000Y-141702000D02*
X111850000Y-140285700D01*
X112028800Y-140106900D02*
X114245000Y-140106900D01*
X111850000Y-140285700D02*
X112028800Y-140106900D01*
X115247300Y-141502600D02*
X115874700Y-142130000D01*
X115247300Y-140678500D02*
X115247300Y-141502600D01*
X114675700Y-140106900D02*
X115247300Y-140678500D01*
X114245000Y-140106900D02*
X114675700Y-140106900D01*
X110550000Y-156300000D02*
X110550000Y-157075300D01*
X111155500Y-157075300D02*
X110550000Y-157075300D01*
X111511200Y-157431000D02*
X111155500Y-157075300D01*
X111511200Y-158482900D02*
X111511200Y-157431000D01*
X111218800Y-158775300D02*
X111511200Y-158482900D01*
X109050000Y-158775300D02*
X111218800Y-158775300D01*
X109050000Y-158000000D02*
X109050000Y-158775300D01*
X116650000Y-142130000D02*
X115874700Y-142130000D01*
D28*
X97250000Y-149800000D02*
X97250000Y-149160600D01*
D27*
X95806900Y-149160600D02*
X95774100Y-149193400D01*
X97250000Y-149160600D02*
X95806900Y-149160600D01*
D28*
X97250000Y-149160600D02*
X97250000Y-149150000D01*
D27*
X101171300Y-137440500D02*
X97280500Y-141331300D01*
X101931100Y-138200300D02*
X105584900Y-138200300D01*
X101171300Y-137440500D02*
X101931100Y-138200300D01*
D28*
X92650000Y-150948200D02*
X93375300Y-150948200D01*
X94044600Y-151617500D02*
X94621100Y-151617500D01*
X93375300Y-150948200D02*
X94044600Y-151617500D01*
X104100000Y-141250000D02*
X104100000Y-142275300D01*
X103827800Y-142275300D02*
X103547400Y-142555700D01*
X104100000Y-142275300D02*
X103827800Y-142275300D01*
D27*
X107300000Y-150000000D02*
X107300000Y-151100300D01*
X108260300Y-151100300D02*
X108321500Y-151161500D01*
X107300000Y-151100300D02*
X108260300Y-151100300D01*
D28*
X105700000Y-150000000D02*
X105700000Y-151025300D01*
X105520700Y-151204600D02*
X103924500Y-151204600D01*
X105700000Y-151025300D02*
X105520700Y-151204600D01*
X98250000Y-149125000D02*
X98250000Y-149800000D01*
X101980600Y-148425700D02*
X101980600Y-148425600D01*
X98830000Y-148425700D02*
X101980600Y-148425700D01*
X98250000Y-149005700D02*
X98830000Y-148425700D01*
X98250000Y-149125000D02*
X98250000Y-149005700D01*
X98750000Y-149800000D02*
X98750000Y-149352800D01*
X98750000Y-149352800D02*
X98750000Y-149250000D01*
X101068800Y-149027400D02*
X101098300Y-149056900D01*
X99075400Y-149027400D02*
X101068800Y-149027400D01*
X98750000Y-149352800D02*
X99075400Y-149027400D01*
X101200000Y-152250000D02*
X101850000Y-152250000D01*
X102024600Y-142911500D02*
X99007000Y-142911500D01*
X103244000Y-144130900D02*
X102024600Y-142911500D01*
X103244000Y-146252200D02*
X103244000Y-144130900D01*
X105966400Y-148974600D02*
X103244000Y-146252200D01*
X108137400Y-148974600D02*
X105966400Y-148974600D01*
X109000200Y-149837400D02*
X108137400Y-148974600D01*
X109000200Y-151440500D02*
X109000200Y-149837400D01*
X108190700Y-152250000D02*
X109000200Y-151440500D01*
X101850000Y-152250000D02*
X108190700Y-152250000D01*
D27*
X105700000Y-162850000D02*
X105700000Y-160800000D01*
X107300000Y-162850000D02*
X107300000Y-160800000D01*
X88400000Y-145600000D02*
X90400000Y-145600000D01*
X88400000Y-147200000D02*
X90400000Y-147200000D01*
X103930300Y-126820000D02*
X105700000Y-125050300D01*
X102100000Y-126820000D02*
X103930300Y-126820000D01*
X105700000Y-123950000D02*
X105700000Y-125050300D01*
X102669700Y-124280000D02*
X102999700Y-123950000D01*
X102100000Y-124280000D02*
X102669700Y-124280000D01*
X104100000Y-123950000D02*
X102999700Y-123950000D01*
X147830000Y-83319700D02*
X149649700Y-81500000D01*
X147830000Y-85050000D02*
X147830000Y-83319700D01*
X150750000Y-81500000D02*
X149649700Y-81500000D01*
X150750000Y-84670000D02*
X150750000Y-83100000D01*
X150370000Y-85050000D02*
X150750000Y-84670000D01*
X147830000Y-95119700D02*
X149649700Y-93300000D01*
X147830000Y-96850000D02*
X147830000Y-95119700D01*
X150750000Y-93300000D02*
X149649700Y-93300000D01*
X150750000Y-96470000D02*
X150750000Y-94900000D01*
X150370000Y-96850000D02*
X150750000Y-96470000D01*
X147830000Y-106519700D02*
X149649700Y-104700000D01*
X147830000Y-108300000D02*
X147830000Y-106519700D01*
X150750000Y-104700000D02*
X149649700Y-104700000D01*
X150750000Y-107920000D02*
X150750000Y-106300000D01*
X150370000Y-108300000D02*
X150750000Y-107920000D01*
X147880000Y-117819700D02*
X149599700Y-116100000D01*
X147880000Y-119700000D02*
X147880000Y-117819700D01*
X150700000Y-116100000D02*
X149599700Y-116100000D01*
X150700000Y-119420000D02*
X150700000Y-117700000D01*
X150420000Y-119700000D02*
X150700000Y-119420000D01*
X124800000Y-93300000D02*
X126900000Y-93300000D01*
X124800000Y-94900000D02*
X126900000Y-94900000D01*
X124850000Y-104700000D02*
X126910000Y-104700000D01*
X124850000Y-106300000D02*
X126910000Y-106300000D01*
X124750000Y-116100000D02*
X126850000Y-116100000D01*
X124750000Y-117700000D02*
X126850000Y-117700000D01*
X120350000Y-81500000D02*
X118250000Y-81500000D01*
X120350000Y-83100000D02*
X118250000Y-83100000D01*
X118300000Y-93300000D02*
X120400000Y-93300000D01*
X118300000Y-94900000D02*
X120400000Y-94900000D01*
X120450000Y-104700000D02*
X118350000Y-104700000D01*
X120450000Y-106300000D02*
X118350000Y-106300000D01*
X120350000Y-116100000D02*
X118250000Y-116100000D01*
X120350000Y-117700000D02*
X118250000Y-117700000D01*
X113850000Y-81500000D02*
X111800000Y-81500000D01*
X113850000Y-83100000D02*
X111800000Y-83100000D01*
X113900000Y-93300000D02*
X111800000Y-93300000D01*
X113900000Y-94900000D02*
X111800000Y-94900000D01*
X113950000Y-104700000D02*
X111810000Y-104700000D01*
X113950000Y-106300000D02*
X111810000Y-106300000D01*
X113850000Y-116100000D02*
X111800000Y-116100000D01*
X113850000Y-117700000D02*
X111800000Y-117700000D01*
X110270000Y-83269700D02*
X108500300Y-81500000D01*
X110270000Y-85100000D02*
X110270000Y-83269700D01*
X107400000Y-81500000D02*
X108500300Y-81500000D01*
X107400000Y-84770000D02*
X107400000Y-83100000D01*
X107730000Y-85100000D02*
X107400000Y-84770000D01*
X110290000Y-95089700D02*
X108500300Y-93300000D01*
X110290000Y-96850000D02*
X110290000Y-95089700D01*
X107400000Y-93300000D02*
X108500300Y-93300000D01*
X107400000Y-96500000D02*
X107400000Y-94900000D01*
X107750000Y-96850000D02*
X107400000Y-96500000D01*
X110270000Y-106459700D02*
X108510300Y-104700000D01*
X110270000Y-108300000D02*
X110270000Y-106459700D01*
X107410000Y-104700000D02*
X108510300Y-104700000D01*
X107410000Y-107980000D02*
X107410000Y-106300000D01*
X107730000Y-108300000D02*
X107410000Y-107980000D01*
X110320000Y-117919700D02*
X108500300Y-116100000D01*
X110320000Y-119700000D02*
X110320000Y-117919700D01*
X107400000Y-116100000D02*
X108500300Y-116100000D01*
X107400000Y-119320000D02*
X107400000Y-117700000D01*
X107780000Y-119700000D02*
X107400000Y-119320000D01*
X137650000Y-145550000D02*
X135550000Y-145550000D01*
X134090000Y-143710300D02*
X132250300Y-145550000D01*
X134090000Y-141950000D02*
X134090000Y-143710300D01*
X131150000Y-145550000D02*
X132250300Y-145550000D01*
X131150000Y-142350000D02*
X131150000Y-143950000D01*
X131550000Y-141950000D02*
X131150000Y-142350000D01*
X137650000Y-143950000D02*
X135550000Y-143950000D01*
X152850000Y-130600000D02*
X152850000Y-128350000D01*
X154669700Y-126870000D02*
X152850000Y-125050300D01*
X156400000Y-126870000D02*
X154669700Y-126870000D01*
X152850000Y-123950000D02*
X152850000Y-125050300D01*
X155930300Y-124330000D02*
X155550300Y-123950000D01*
X156400000Y-124330000D02*
X155930300Y-124330000D01*
X154450000Y-123950000D02*
X155550300Y-123950000D01*
X154450000Y-130600000D02*
X154450000Y-128350000D01*
X170100000Y-145550000D02*
X168000000Y-145550000D01*
X171480000Y-147469700D02*
X173399700Y-145550000D01*
X171480000Y-149150000D02*
X171480000Y-147469700D01*
X174500000Y-145550000D02*
X173399700Y-145550000D01*
X174500000Y-148670000D02*
X174500000Y-147150000D01*
X174020000Y-149150000D02*
X174500000Y-148670000D01*
X170100000Y-147150000D02*
X168000000Y-147150000D01*
X152850000Y-160450000D02*
X152850000Y-162750000D01*
X150930300Y-164130000D02*
X152850000Y-166049700D01*
X149300000Y-164130000D02*
X150930300Y-164130000D01*
X152850000Y-167150000D02*
X152850000Y-166049700D01*
X149669700Y-166670000D02*
X150149700Y-167150000D01*
X149300000Y-166670000D02*
X149669700Y-166670000D01*
X151250000Y-167150000D02*
X150149700Y-167150000D01*
X151250000Y-160450000D02*
X151250000Y-162750000D01*
X152850000Y-135000000D02*
X152850000Y-137300000D01*
X154450000Y-135000000D02*
X154450000Y-137300000D01*
X142050000Y-145550000D02*
X144150000Y-145550000D01*
X142050000Y-143950000D02*
X144150000Y-143950000D01*
X161500000Y-145550000D02*
X163600000Y-145550000D01*
X161500000Y-147150000D02*
X163600000Y-147150000D01*
X152850000Y-156050000D02*
X152850000Y-153750000D01*
X151250000Y-156050000D02*
X151250000Y-153750000D01*
X150650000Y-145550000D02*
X148550000Y-145550000D01*
X150650000Y-143950000D02*
X148550000Y-143950000D01*
X106197200Y-139652500D02*
X105700000Y-140149700D01*
X107951800Y-139652500D02*
X106197200Y-139652500D01*
X105700000Y-141250000D02*
X105700000Y-140149700D01*
X110637200Y-143312800D02*
X109950000Y-144000000D01*
X110637200Y-142745100D02*
X110637200Y-143312800D01*
X109950000Y-145600000D02*
X111050300Y-145600000D01*
X111849300Y-144801000D02*
X111849300Y-143577800D01*
X111050300Y-145600000D02*
X111849300Y-144801000D01*
X99279900Y-145600000D02*
X101200000Y-145600000D01*
X98766400Y-146113500D02*
X99279900Y-145600000D01*
X101200000Y-147200000D02*
X100099700Y-147200000D01*
X99561500Y-146661800D02*
X99516700Y-146661800D01*
X100099700Y-147200000D02*
X99561500Y-146661800D01*
X111119700Y-78799700D02*
X111800000Y-78799700D01*
X110270000Y-77950000D02*
X111119700Y-78799700D01*
X111800000Y-79900000D02*
X111800000Y-78799700D01*
X131250000Y-79900000D02*
X130149700Y-79900000D01*
X130149700Y-79900000D02*
X129994800Y-79900000D01*
X142885900Y-80163800D02*
X143149700Y-79900000D01*
X142084700Y-80163800D02*
X142885900Y-80163800D01*
X144250000Y-79900000D02*
X143149700Y-79900000D01*
X149649700Y-79769700D02*
X149649700Y-79900000D01*
X147830000Y-77950000D02*
X149649700Y-79769700D01*
X150750000Y-79900000D02*
X149649700Y-79900000D01*
X118250000Y-79900000D02*
X117149700Y-79900000D01*
X117149700Y-79900000D02*
X116930200Y-79900000D01*
X124750000Y-79900000D02*
X123649700Y-79900000D01*
X123649700Y-79900000D02*
X123255700Y-79900000D01*
X137750000Y-79900000D02*
X136649700Y-79900000D01*
X136649700Y-79900000D02*
X136235100Y-79900000D01*
X120666100Y-79900000D02*
X121612800Y-80846700D01*
X120350000Y-79900000D02*
X120666100Y-79900000D01*
X133350000Y-79900000D02*
X134450300Y-79900000D01*
X134450300Y-80476700D02*
X134846300Y-80872700D01*
X134450300Y-79900000D02*
X134450300Y-80476700D01*
X139850000Y-79900000D02*
X140950300Y-79900000D01*
X141235200Y-80914100D02*
X141235300Y-80914100D01*
X141235200Y-80184900D02*
X141235200Y-80914100D01*
X140950300Y-79900000D02*
X141235200Y-80184900D01*
X126850000Y-79900000D02*
X127950300Y-79900000D01*
X127950300Y-80226700D02*
X127950300Y-79900000D01*
X128596300Y-80872700D02*
X127950300Y-80226700D01*
X146350000Y-79900000D02*
X147450300Y-79900000D01*
X147450300Y-79900000D02*
X147605000Y-79900000D01*
X113850000Y-79900000D02*
X114950300Y-79900000D01*
X115179400Y-80129100D02*
X114950300Y-79900000D01*
X115179400Y-80687700D02*
X115179400Y-80129100D01*
X107400000Y-78280000D02*
X107400000Y-79900000D01*
X107730000Y-77950000D02*
X107400000Y-78280000D01*
X111269700Y-90599700D02*
X111800000Y-90599700D01*
X110320000Y-89650000D02*
X111269700Y-90599700D01*
X111800000Y-91700000D02*
X111800000Y-90599700D01*
X150750000Y-91700000D02*
X149649700Y-91700000D01*
X149649700Y-91519700D02*
X147830000Y-89700000D01*
X149649700Y-91700000D02*
X149649700Y-91519700D01*
X118300000Y-91700000D02*
X117199700Y-91700000D01*
X117199700Y-91700000D02*
X117039700Y-91700000D01*
X124800000Y-91700000D02*
X123699700Y-91700000D01*
X123699700Y-91700000D02*
X123287100Y-91700000D01*
X137750000Y-91700000D02*
X136649700Y-91700000D01*
X136649700Y-91700000D02*
X136497100Y-91700000D01*
X131300000Y-91700000D02*
X130199700Y-91700000D01*
X130199700Y-91700000D02*
X130021000Y-91700000D01*
X144250000Y-91700000D02*
X143149700Y-91700000D01*
X143149700Y-91700000D02*
X142993000Y-91700000D01*
X107400000Y-90030000D02*
X107400000Y-91700000D01*
X107780000Y-89650000D02*
X107400000Y-90030000D01*
X120716100Y-91700000D02*
X120400000Y-91700000D01*
X121659300Y-92643200D02*
X120716100Y-91700000D01*
X128000300Y-92484200D02*
X128160200Y-92644100D01*
X128000300Y-91700000D02*
X128000300Y-92484200D01*
X126900000Y-91700000D02*
X128000300Y-91700000D01*
X140950300Y-92393400D02*
X140950300Y-91700000D01*
X141606900Y-93050000D02*
X140950300Y-92393400D01*
X139850000Y-91700000D02*
X140950300Y-91700000D01*
X133350000Y-91700000D02*
X134450300Y-91700000D01*
X134450300Y-92413800D02*
X135086500Y-93050000D01*
X134450300Y-91700000D02*
X134450300Y-92413800D01*
X147521400Y-91628900D02*
X147450300Y-91700000D01*
X147858500Y-91628900D02*
X147521400Y-91628900D01*
X146350000Y-91700000D02*
X147450300Y-91700000D01*
X113900000Y-91700000D02*
X115000300Y-91700000D01*
X115204400Y-91904100D02*
X115000300Y-91700000D01*
X115204400Y-92487700D02*
X115204400Y-91904100D01*
X144300000Y-103100000D02*
X143199700Y-103100000D01*
X143199700Y-103100000D02*
X143005500Y-103100000D01*
X124850000Y-103100000D02*
X123749700Y-103100000D01*
X123749700Y-103100000D02*
X123588400Y-103100000D01*
X118350000Y-103100000D02*
X117249700Y-103100000D01*
X117249700Y-103100000D02*
X117054600Y-103100000D01*
X131310000Y-103100000D02*
X130209700Y-103100000D01*
X130209700Y-103100000D02*
X129830000Y-103100000D01*
X137800000Y-103100000D02*
X136699700Y-103100000D01*
X136699700Y-103100000D02*
X135956700Y-103100000D01*
X149649700Y-102919700D02*
X149649700Y-103100000D01*
X147830000Y-101100000D02*
X149649700Y-102919700D01*
X150750000Y-103100000D02*
X149649700Y-103100000D01*
X111169700Y-101999700D02*
X111810000Y-101999700D01*
X110270000Y-101100000D02*
X111169700Y-101999700D01*
X111810000Y-103100000D02*
X111810000Y-101999700D01*
X121550300Y-103817100D02*
X121727300Y-103994100D01*
X121550300Y-103100000D02*
X121550300Y-103817100D01*
X120450000Y-103100000D02*
X121550300Y-103100000D01*
X146350000Y-103100000D02*
X147450300Y-103100000D01*
X147450300Y-103058800D02*
X147450300Y-103100000D01*
X147600700Y-102908400D02*
X147450300Y-103058800D01*
X133400000Y-103100000D02*
X134500300Y-103100000D01*
X134691500Y-103291200D02*
X134691500Y-104009000D01*
X134500300Y-103100000D02*
X134691500Y-103291200D01*
X126910000Y-103100000D02*
X128010300Y-103100000D01*
X128010300Y-103676700D02*
X128010300Y-103100000D01*
X128342600Y-104009000D02*
X128010300Y-103676700D01*
X139900000Y-103100000D02*
X141000300Y-103100000D01*
X141000300Y-103803900D02*
X141000300Y-103100000D01*
X141205400Y-104009000D02*
X141000300Y-103803900D01*
X107410000Y-101420000D02*
X107410000Y-103100000D01*
X107730000Y-101100000D02*
X107410000Y-101420000D01*
X113950000Y-103100000D02*
X115050300Y-103100000D01*
X115229400Y-103279100D02*
X115050300Y-103100000D01*
X115229400Y-103887700D02*
X115229400Y-103279100D01*
X144250000Y-114500000D02*
X143149700Y-114500000D01*
X143149700Y-114500000D02*
X142958700Y-114500000D01*
X137750000Y-114500000D02*
X136649700Y-114500000D01*
X136649700Y-114500000D02*
X136486600Y-114500000D01*
X124750000Y-114500000D02*
X123649700Y-114500000D01*
X123649700Y-114500000D02*
X123496400Y-114500000D01*
X131250000Y-114500000D02*
X130149700Y-114500000D01*
X130149700Y-114500000D02*
X129916200Y-114500000D01*
X149599700Y-114219700D02*
X149599700Y-114500000D01*
X147880000Y-112500000D02*
X149599700Y-114219700D01*
X150700000Y-114500000D02*
X149599700Y-114500000D01*
X111219700Y-113399700D02*
X111800000Y-113399700D01*
X110320000Y-112500000D02*
X111219700Y-113399700D01*
X111800000Y-114500000D02*
X111800000Y-113399700D01*
X118250000Y-114500000D02*
X117149700Y-114500000D01*
X117149700Y-114500000D02*
X116925500Y-114500000D01*
X107400000Y-112880000D02*
X107400000Y-114500000D01*
X107780000Y-112500000D02*
X107400000Y-112880000D01*
X126850000Y-114500000D02*
X127950300Y-114500000D01*
X128245800Y-114795500D02*
X128245800Y-114879500D01*
X127950300Y-114500000D02*
X128245800Y-114795500D01*
X133350000Y-114500000D02*
X134450300Y-114500000D01*
X134934900Y-114984600D02*
X134934900Y-115093500D01*
X134450300Y-114500000D02*
X134934900Y-114984600D01*
X146300000Y-114500000D02*
X147400300Y-114500000D01*
X147447300Y-114453000D02*
X147556800Y-114453000D01*
X147400300Y-114500000D02*
X147447300Y-114453000D01*
X114950300Y-114567200D02*
X114950300Y-114500000D01*
X115179400Y-114796300D02*
X114950300Y-114567200D01*
X113850000Y-114500000D02*
X114950300Y-114500000D01*
X120350000Y-114500000D02*
X121450300Y-114500000D01*
X121450300Y-115126300D02*
X121450300Y-114500000D01*
X121625600Y-115301600D02*
X121450300Y-115126300D01*
X139850000Y-114500000D02*
X140950300Y-114500000D01*
X141116000Y-114665700D02*
X141116000Y-114977800D01*
X140950300Y-114500000D02*
X141116000Y-114665700D01*
X144150000Y-147150000D02*
X145250300Y-147150000D01*
X150650000Y-147150000D02*
X151750300Y-147150000D01*
X151861200Y-147039100D02*
X151901900Y-147039100D01*
X151750300Y-147150000D02*
X151861200Y-147039100D01*
X145361200Y-147039100D02*
X145487200Y-147039100D01*
X145250300Y-147150000D02*
X145361200Y-147039100D01*
X137750000Y-147250000D02*
X137700000Y-147200000D01*
X137700000Y-147200000D02*
X137650000Y-147150000D01*
X137700000Y-147200000D02*
X138942400Y-147200000D01*
X132250300Y-147280300D02*
X132250300Y-147150000D01*
X134070000Y-149100000D02*
X132250300Y-147280300D01*
X131150000Y-147150000D02*
X132250300Y-147150000D01*
X135550000Y-147150000D02*
X134449700Y-147150000D01*
X134384800Y-147085100D02*
X134290700Y-147085100D01*
X134449700Y-147150000D02*
X134384800Y-147085100D01*
X147449700Y-146385600D02*
X147449700Y-147150000D01*
X146816100Y-145752000D02*
X147449700Y-146385600D01*
X148550000Y-147150000D02*
X147449700Y-147150000D01*
X153584900Y-147150000D02*
X152195700Y-145760800D01*
X155050000Y-147150000D02*
X153584900Y-147150000D01*
X142050000Y-147150000D02*
X140949700Y-147150000D01*
X140949700Y-146843700D02*
X140527800Y-146421800D01*
X140949700Y-147150000D02*
X140949700Y-146843700D01*
X151250000Y-123950000D02*
X151250000Y-125050300D01*
X151119700Y-125050300D02*
X149300000Y-126870000D01*
X151250000Y-125050300D02*
X151119700Y-125050300D01*
X151250000Y-131715200D02*
X151102000Y-131863200D01*
X151250000Y-130600000D02*
X151250000Y-131715200D01*
X151250000Y-138423800D02*
X151102000Y-138571800D01*
X151250000Y-137300000D02*
X151250000Y-138423800D01*
X151247400Y-127249700D02*
X150996100Y-126998400D01*
X151250000Y-127249700D02*
X151247400Y-127249700D01*
X151250000Y-128350000D02*
X151250000Y-127249700D01*
X152326800Y-133899700D02*
X152702000Y-133524500D01*
X151250000Y-133899700D02*
X152326800Y-133899700D01*
X151250000Y-135000000D02*
X151250000Y-133899700D01*
X152386700Y-140599700D02*
X152702000Y-140284400D01*
X151250000Y-140599700D02*
X152386700Y-140599700D01*
X151250000Y-141700000D02*
X151250000Y-140599700D01*
X173399700Y-143869700D02*
X171530000Y-142000000D01*
X173399700Y-143950000D02*
X173399700Y-143869700D01*
X174500000Y-143950000D02*
X173399700Y-143950000D01*
X166899700Y-143671700D02*
X166726200Y-143498200D01*
X166899700Y-143950000D02*
X166899700Y-143671700D01*
X161500000Y-143950000D02*
X160399700Y-143950000D01*
X160297700Y-143848000D02*
X160243300Y-143848000D01*
X160399700Y-143950000D02*
X160297700Y-143848000D01*
X168000000Y-143950000D02*
X166899700Y-143950000D01*
X163600000Y-143950000D02*
X164700300Y-143950000D01*
X164931900Y-144181600D02*
X166119200Y-144181600D01*
X164700300Y-143950000D02*
X164931900Y-144181600D01*
X170100000Y-143950000D02*
X171200300Y-143950000D01*
X171351700Y-143950000D02*
X171428400Y-144026700D01*
X171200300Y-143950000D02*
X171351700Y-143950000D01*
X158348300Y-143802000D02*
X158200300Y-143950000D01*
X158846700Y-143802000D02*
X158348300Y-143802000D01*
X157100000Y-143950000D02*
X158200300Y-143950000D01*
X154530300Y-166049700D02*
X156400000Y-164180000D01*
X154450000Y-166049700D02*
X154530300Y-166049700D01*
X154450000Y-167150000D02*
X154450000Y-166049700D01*
X154257400Y-159349700D02*
X154087100Y-159179400D01*
X154450000Y-159349700D02*
X154257400Y-159349700D01*
X154450000Y-160450000D02*
X154450000Y-159349700D01*
X154287700Y-152649700D02*
X154132500Y-152494500D01*
X154450000Y-152649700D02*
X154287700Y-152649700D01*
X154450000Y-153750000D02*
X154450000Y-152649700D01*
X154240300Y-157150300D02*
X153295600Y-158095000D01*
X154450000Y-157150300D02*
X154240300Y-157150300D01*
X154450000Y-156050000D02*
X154450000Y-157150300D01*
X154450000Y-162750000D02*
X154450000Y-163850300D01*
X153552300Y-163850300D02*
X153402300Y-164000300D01*
X154450000Y-163850300D02*
X153552300Y-163850300D01*
X153719700Y-150450300D02*
X153295600Y-150874400D01*
X154450000Y-150450300D02*
X153719700Y-150450300D01*
X154450000Y-149350000D02*
X154450000Y-150450300D01*
D28*
X101200000Y-150750000D02*
X101875000Y-150750000D01*
X102877400Y-149428700D02*
X102877500Y-149428700D01*
X102877400Y-149747600D02*
X102877400Y-149428700D01*
X101875000Y-150750000D02*
X102877400Y-149747600D01*
X95049100Y-148225400D02*
X94325300Y-148949200D01*
X97646200Y-148225400D02*
X95049100Y-148225400D01*
X97930500Y-147941100D02*
X97646200Y-148225400D01*
X97930500Y-145941100D02*
X97930500Y-147941100D01*
X99633200Y-144238400D02*
X97930500Y-145941100D01*
X99816000Y-144238400D02*
X99633200Y-144238400D01*
X93600000Y-148949200D02*
X94325300Y-148949200D01*
X91873300Y-149847900D02*
X91873300Y-149857100D01*
X91700000Y-149674600D02*
X91873300Y-149847900D01*
X91700000Y-148949200D02*
X91700000Y-149674600D01*
X101200000Y-152750000D02*
X101850000Y-152750000D01*
X118700000Y-149000200D02*
X117974600Y-149000200D01*
X101850000Y-152750000D02*
X101988000Y-152888000D01*
X101015500Y-155728200D02*
X100219700Y-155728200D01*
X101988000Y-154755700D02*
X101015500Y-155728200D01*
X101988000Y-152888000D02*
X101988000Y-154755700D01*
X117974600Y-148909400D02*
X117974600Y-149000200D01*
X117340100Y-148274900D02*
X117974600Y-148909400D01*
X113614300Y-148274900D02*
X117340100Y-148274900D01*
X109001200Y-152888000D02*
X113614300Y-148274900D01*
X101988000Y-152888000D02*
X109001200Y-152888000D01*
X116800000Y-149000200D02*
X116074600Y-149000200D01*
X116074600Y-149000200D02*
X115615900Y-149000200D01*
X112344100Y-153879500D02*
X109928700Y-153879500D01*
X113819500Y-152404100D02*
X113819500Y-149988700D01*
X112344100Y-153879500D02*
X113819500Y-152404100D01*
X101200000Y-151750000D02*
X101875000Y-151750000D01*
X102080100Y-151750000D02*
X102213900Y-151616200D01*
X101875000Y-151750000D02*
X102080100Y-151750000D01*
M02*
