999
dxflib 3.12.2.0
  0
SECTION
  2
HEADER
  9
$ACADVER
  1
AC1015
  9
$HANDSEED
  5
FFFF
  9
$DIMADEC
 70
0
  9
$DIMASZ
 40
2.5
  9
$DIMAUNIT
 70
0
  9
$DIMAZIN
 70
2
  9
$DIMDEC
 70
4
  9
$DIMEXE
 40
1.25
  9
$DIMEXO
 40
0.625
  9
$DIMGAP
 40
0.625
  9
$DIMLUNIT
 70
2
  9
$DIMSCALE
 40
1.0
  9
$DIMTSZ
 40
0.0
  9
$DIMTXT
 40
2.5
  9
$DIMZIN
 70
8
  9
$DWGCODEPAGE
  3
ANSI_1252
  9
$INSUNITS
 70
4
  9
$LTSCALE
 40
1.0
  9
$MEASUREMENT
 70
1
  9
$PDMODE
 70
0
  9
$PDSIZE
 40
0
  0
ENDSEC
  0
SECTION
  2
TABLES
  0
TABLE
  2
VPORT
  5
8
100
AcDbSymbolTable
 70
1
  0
VPORT
  5
30
100
AcDbSymbolTableRecord
100
AcDbViewportTableRecord
  2
*Active
 70
0
 10
0.0
 20
0.0
 11
1.0
 21
1.0
 12
286.3055555555554861
 22
148.5
 13
0.0
 23
0.0
 14
10.0
 24
10.0
 15
10.0
 25
10.0
 16
0.0
 26
0.0
 36
1.0
 17
0.0
 27
0.0
 37
0.0
 40
297.0
 41
1.92798353909465
 42
50.0
 43
0.0
 44
0.0
 50
0.0
 51
0.0
 71
0
 72
100
 73
1
 74
3
 75
1
 76
1
 77
0
 78
0
281
0
 65
1
110
0.0
120
0.0
130
0.0
111
1.0
121
0.0
131
0.0
112
0.0
122
1.0
132
0.0
 79
0
146
0.0
  0
ENDTAB
  0
TABLE
  2
LTYPE
  5
5
100
AcDbSymbolTable
 70
41
  0
LTYPE
  5
16
100
AcDbSymbolTableRecord
100
AcDbLinetypeTableRecord
  2
Continuous
 70
0
  3
Solid line
 72
65
 73
0
 40
0.0
  0
LTYPE
  5
31
100
AcDbSymbolTableRecord
100
AcDbLinetypeTableRecord
  2
ACAD_ISO15W100
 70
0
  3
ISO double-dash triple-dot __ __ . . . __ __ . .
 72
65
 73
10
 40
39.0000000000000071
 49
12.0
 74
0
 49
-3.0
 74
0
 49
12.0
 74
0
 49
-2.9500000000000002
 74
0
 49
0.1
 74
0
 49
-2.9000000000000004
 74
0
 49
0.1
 74
0
 49
-2.9000000000000004
 74
0
 49
0.1
 74
0
 49
-2.9500000000000002
 74
0
  0
LTYPE
  5
32
100
AcDbSymbolTableRecord
100
AcDbLinetypeTableRecord
  2
DIVIDE
 70
0
  3
Divide ____ . . ____ . . ____ . . ____ . . ____
 72
65
 73
6
 40
31.7500000000000036
 49
12.6999999999999993
 74
0
 49
-6.2999999999999998
 74
0
 49
0.1
 74
0
 49
-6.25
 74
0
 49
0.1
 74
0
 49
-6.2999999999999998
 74
0
  0
LTYPE
  5
33
100
AcDbSymbolTableRecord
100
AcDbLinetypeTableRecord
  2
ACAD_ISO10W100
 70
0
  3
ISO dash dot __ . __ . __ . __ . __ . __ . __ . 
 72
65
 73
4
 40
18.0
 49
12.0
 74
0
 49
-2.9500000000000002
 74
0
 49
0.1
 74
0
 49
-2.9500000000000002
 74
0
  0
LTYPE
  5
34
100
AcDbSymbolTableRecord
100
AcDbLinetypeTableRecord
  2
ACAD_ISO04W100
 70
0
  3
ISO long-dash dot ____ . ____ . ____ . ____ . _
 72
65
 73
4
 40
30.0
 49
24.0
 74
0
 49
-2.9500000000000002
 74
0
 49
0.1
 74
0
 49
-2.9500000000000002
 74
0
  0
LTYPE
  5
35
100
AcDbSymbolTableRecord
100
AcDbLinetypeTableRecord
  2
CENTER2
 70
0
  3
Center (.5x) ___ _ ___ _ ___ _ ___ _ ___ _ ___
 72
65
 73
4
 40
28.5750000000000028
 49
19.0500000000000007
 74
0
 49
-3.1749999999999998
 74
0
 49
3.1749999999999998
 74
0
 49
-3.1749999999999998
 74
0
  0
LTYPE
  5
36
100
AcDbSymbolTableRecord
100
AcDbLinetypeTableRecord
  2
ACAD_ISO11W100
 70
0
  3
ISO double-dash dot __ __ . __ __ . __ __ . __ _
 72
65
 73
6
 40
33.0
 49
12.0
 74
0
 49
-3.0
 74
0
 49
12.0
 74
0
 49
-2.9500000000000002
 74
0
 49
0.1
 74
0
 49
-2.9500000000000002
 74
0
  0
LTYPE
  5
37
100
AcDbSymbolTableRecord
100
AcDbLinetypeTableRecord
  2
HIDDEN2
 70
0
  3
Hidden (.5x) _ _ _ _ _ _ _ _ _ _ _ _ _ _ _ _ _ 
 72
65
 73
2
 40
4.7624999999999993
 49
3.1749999999999998
 74
0
 49
-1.5874999999999999
 74
0
  0
LTYPE
  5
38
100
AcDbSymbolTableRecord
100
AcDbLinetypeTableRecord
  2
BORDERX2
 70
0
  3
Border (2x) ____  ____  .  ____  ____  .  ___
 72
65
 73
6
 40
88.8999999999999773
 49
25.3999999999999986
 74
0
 49
-12.6999999999999993
 74
0
 49
25.3999999999999986
 74
0
 49
-12.6499999999999986
 74
0
 49
0.1
 74
0
 49
-12.6499999999999986
 74
0
  0
LTYPE
  5
39
100
AcDbSymbolTableRecord
100
AcDbLinetypeTableRecord
  2
ACAD_ISO05W100
 70
0
  3
ISO long-dash double-dot ____ .. ____ .. ____ . 
 72
65
 73
6
 40
33.0000000000000071
 49
24.0
 74
0
 49
-2.9500000000000002
 74
0
 49
0.1
 74
0
 49
-2.9000000000000004
 74
0
 49
0.1
 74
0
 49
-2.9500000000000002
 74
0
  0
LTYPE
  5
3A
100
AcDbSymbolTableRecord
100
AcDbLinetypeTableRecord
  2
DASHDOTX2
 70
0
  3
Dash dot (2x) ____  .  ____  .  ____  .  ___
 72
65
 73
4
 40
50.7999999999999972
 49
25.3999999999999986
 74
0
 49
-12.6499999999999986
 74
0
 49
0.1
 74
0
 49
-12.6499999999999986
 74
0
  0
LTYPE
  5
3B
100
AcDbSymbolTableRecord
100
AcDbLinetypeTableRecord
  2
HIDDENX2
 70
0
  3
Hidden (2x) ____ ____ ____ ____ ____ ____ ____ 
 72
65
 73
2
 40
19.0499999999999972
 49
12.6999999999999993
 74
0
 49
-6.3499999999999996
 74
0
  0
LTYPE
  5
3C
100
AcDbSymbolTableRecord
100
AcDbLinetypeTableRecord
  2
CENTERX2
 70
0
  3
Center (2x) ________  __  ________  __  _____
 72
65
 73
4
 40
101.6000000000000085
 49
63.5
 74
0
 49
-12.6999999999999993
 74
0
 49
12.6999999999999993
 74
0
 49
-12.6999999999999993
 74
0
  0
LTYPE
  5
3D
100
AcDbSymbolTableRecord
100
AcDbLinetypeTableRecord
  2
BORDER2
 70
0
  3
Border (.5x) __.__.__.__.__.__.__.__.__.__.__.
 72
65
 73
6
 40
22.2250000000000014
 49
6.3499999999999996
 74
0
 49
-3.1749999999999998
 74
0
 49
6.3499999999999996
 74
0
 49
-3.125
 74
0
 49
0.1
 74
0
 49
-3.125
 74
0
  0
LTYPE
  5
3E
100
AcDbSymbolTableRecord
100
AcDbLinetypeTableRecord
  2
DASHDOT2
 70
0
  3
Dash dot (.5x) _._._._._._._._._._._._._._._.
 72
65
 73
4
 40
12.6999999999999993
 49
6.3499999999999996
 74
0
 49
-3.125
 74
0
 49
0.1
 74
0
 49
-3.125
 74
0
  0
LTYPE
  5
3F
100
AcDbSymbolTableRecord
100
AcDbLinetypeTableRecord
  2
ACAD_ISO12W100
 70
0
  3
ISO dash double-dot __ . . __ . . __ . . __ . . 
 72
65
 73
6
 40
21.0
 49
12.0
 74
0
 49
-2.9500000000000002
 74
0
 49
0.1
 74
0
 49
-2.9000000000000004
 74
0
 49
0.1
 74
0
 49
-2.9500000000000002
 74
0
  0
LTYPE
  5
40
100
AcDbSymbolTableRecord
100
AcDbLinetypeTableRecord
  2
ACAD_ISO07W100
 70
0
  3
ISO dot . . . . . . . . . . . . . . . . . . . . 
 72
65
 73
2
 40
3.0
 49
0.1
 74
0
 49
-2.8999999999999999
 74
0
  0
LTYPE
  5
41
100
AcDbSymbolTableRecord
100
AcDbLinetypeTableRecord
  2
HIDDEN
 70
0
  3
Hidden __ __ __ __ __ __ __ __ __ __ __ __ __ __
 72
65
 73
2
 40
9.5249999999999986
 49
6.3499999999999996
 74
0
 49
-3.1749999999999998
 74
0
  0
LTYPE
  5
42
100
AcDbSymbolTableRecord
100
AcDbLinetypeTableRecord
  2
ACAD_ISO06W100
 70
0
  3
ISO long-dash triple-dot ____ ... ____ ... ____
 72
65
 73
8
 40
36.0000000000000071
 49
24.0
 74
0
 49
-2.9500000000000002
 74
0
 49
0.1
 74
0
 49
-2.9000000000000004
 74
0
 49
0.1
 74
0
 49
-2.9000000000000004
 74
0
 49
0.1
 74
0
 49
-2.9500000000000002
 74
0
  0
LTYPE
  5
43
100
AcDbSymbolTableRecord
100
AcDbLinetypeTableRecord
  2
CENTER
 70
0
  3
Center ____ _ ____ _ ____ _ ____ _ ____ _ ____
 72
65
 73
4
 40
50.8000000000000043
 49
31.75
 74
0
 49
-6.3499999999999996
 74
0
 49
6.3499999999999996
 74
0
 49
-6.3499999999999996
 74
0
  0
LTYPE
  5
44
100
AcDbSymbolTableRecord
100
AcDbLinetypeTableRecord
  2
DOTX2
 70
0
  3
Dot (2x) .  .  .  .  .  .  .  .  .  .  .  .  .  .
 72
65
 73
2
 40
12.6999999999999993
 49
0.1
 74
0
 49
-12.5999999999999996
 74
0
  0
LTYPE
  5
45
100
AcDbSymbolTableRecord
100
AcDbLinetypeTableRecord
  2
PHANTOM
 70
0
  3
Phantom ______  __  __  ______  __  __  ______ 
 72
65
 73
6
 40
63.5000000000000071
 49
31.75
 74
0
 49
-6.3499999999999996
 74
0
 49
6.3499999999999996
 74
0
 49
-6.3499999999999996
 74
0
 49
6.3499999999999996
 74
0
 49
-6.3499999999999996
 74
0
  0
LTYPE
  5
46
100
AcDbSymbolTableRecord
100
AcDbLinetypeTableRecord
  2
ACAD_ISO08W100
 70
0
  3
ISO long-dash short-dash ____ __ ____ __ ____ _
 72
65
 73
4
 40
36.0
 49
24.0
 74
0
 49
-3.0
 74
0
 49
6.0
 74
0
 49
-3.0
 74
0
  0
LTYPE
  5
47
100
AcDbSymbolTableRecord
100
AcDbLinetypeTableRecord
  2
DASHEDX2
 70
0
  3
Dashed (2x) ____  ____  ____  ____  ____  ___
 72
65
 73
2
 40
38.0999999999999943
 49
25.3999999999999986
 74
0
 49
-12.6999999999999993
 74
0
  0
LTYPE
  5
48
100
AcDbSymbolTableRecord
100
AcDbLinetypeTableRecord
  2
ACAD_ISO02W100
 70
0
  3
ISO dash __ __ __ __ __ __ __ __ __ __ __ __ __
 72
65
 73
2
 40
15.0
 49
12.0
 74
0
 49
-3.0
 74
0
  0
LTYPE
  5
49
100
AcDbSymbolTableRecord
100
AcDbLinetypeTableRecord
  2
PHANTOM2
 70
0
  3
Phantom (.5x) ___ _ _ ___ _ _ ___ _ _ ___ _ _
 72
65
 73
6
 40
31.7500000000000036
 49
15.875
 74
0
 49
-3.1749999999999998
 74
0
 49
3.1749999999999998
 74
0
 49
-3.1749999999999998
 74
0
 49
3.1749999999999998
 74
0
 49
-3.1749999999999998
 74
0
  0
LTYPE
  5
4A
100
AcDbSymbolTableRecord
100
AcDbLinetypeTableRecord
  2
DASHED2
 70
0
  3
Dashed (.5x) _ _ _ _ _ _ _ _ _ _ _ _ _ _ _ _ _ 
 72
65
 73
2
 40
9.5249999999999986
 49
6.3499999999999996
 74
0
 49
-3.1749999999999998
 74
0
  0
LTYPE
  5
4B
100
AcDbSymbolTableRecord
100
AcDbLinetypeTableRecord
  2
ACAD_ISO09W100
 70
0
  3
ISO long-dash double-short-dash ____ __ __ ____
 72
65
 73
6
 40
45.0
 49
24.0
 74
0
 49
-3.0
 74
0
 49
6.0
 74
0
 49
-3.0
 74
0
 49
6.0
 74
0
 49
-3.0
 74
0
  0
LTYPE
  5
4C
100
AcDbSymbolTableRecord
100
AcDbLinetypeTableRecord
  2
ACAD_ISO13W100
 70
0
  3
ISO double-dash double-dot __ __ . . __ __ . . _
 72
65
 73
8
 40
36.0000000000000071
 49
12.0
 74
0
 49
-3.0
 74
0
 49
12.0
 74
0
 49
-2.9500000000000002
 74
0
 49
0.1
 74
0
 49
-2.9000000000000004
 74
0
 49
0.1
 74
0
 49
-2.9500000000000002
 74
0
  0
LTYPE
  5
4D
100
AcDbSymbolTableRecord
100
AcDbLinetypeTableRecord
  2
DOT2
 70
0
  3
Dot (.5x) ........................................
 72
65
 73
2
 40
3.1749999999999998
 49
0.1
 74
0
 49
-3.0749999999999997
 74
0
  0
LTYPE
  5
4E
100
AcDbSymbolTableRecord
100
AcDbLinetypeTableRecord
  2
DASHED
 70
0
  3
Dashed __ __ __ __ __ __ __ __ __ __ __ __ __ _
 72
65
 73
2
 40
19.0499999999999972
 49
12.6999999999999993
 74
0
 49
-6.3499999999999996
 74
0
  0
LTYPE
  5
4F
100
AcDbSymbolTableRecord
100
AcDbLinetypeTableRecord
  2
ACAD_ISO14W100
 70
0
  3
ISO dash triple-dot __ . . . __ . . . __ . . . _
 72
65
 73
8
 40
24.0000000000000036
 49
12.0
 74
0
 49
-2.9500000000000002
 74
0
 49
0.1
 74
0
 49
-2.9000000000000004
 74
0
 49
0.1
 74
0
 49
-2.9000000000000004
 74
0
 49
0.1
 74
0
 49
-2.9500000000000002
 74
0
  0
LTYPE
  5
15
100
AcDbSymbolTableRecord
100
AcDbLinetypeTableRecord
  2
BYLAYER
 70
0
  3

 72
65
 73
0
 40
0.0
  0
LTYPE
  5
50
100
AcDbSymbolTableRecord
100
AcDbLinetypeTableRecord
  2
PHANTOMX2
 70
0
  3
Phantom (2x) ____________    ____    ____   _
 72
65
 73
6
 40
127.0000000000000142
 49
63.5
 74
0
 49
-12.6999999999999993
 74
0
 49
12.6999999999999993
 74
0
 49
-12.6999999999999993
 74
0
 49
12.6999999999999993
 74
0
 49
-12.6999999999999993
 74
0
  0
LTYPE
  5
14
100
AcDbSymbolTableRecord
100
AcDbLinetypeTableRecord
  2
BYBLOCK
 70
0
  3

 72
65
 73
0
 40
0.0
  0
LTYPE
  5
51
100
AcDbSymbolTableRecord
100
AcDbLinetypeTableRecord
  2
DIVIDEX2
 70
0
  3
Divide (2x) ________  .  .  ________  .  .  _
 72
65
 73
6
 40
63.5
 49
25.3999999999999986
 74
0
 49
-12.6499999999999986
 74
0
 49
0.1
 74
0
 49
-12.5999999999999979
 74
0
 49
0.1
 74
0
 49
-12.6499999999999986
 74
0
  0
LTYPE
  5
52
100
AcDbSymbolTableRecord
100
AcDbLinetypeTableRecord
  2
BORDER
 70
0
  3
Border __ __ . __ __ . __ __ . __ __ . __ __ .
 72
65
 73
6
 40
44.4499999999999957
 49
12.6999999999999993
 74
0
 49
-6.3499999999999996
 74
0
 49
12.6999999999999993
 74
0
 49
-6.2999999999999998
 74
0
 49
0.1
 74
0
 49
-6.2999999999999998
 74
0
  0
LTYPE
  5
53
100
AcDbSymbolTableRecord
100
AcDbLinetypeTableRecord
  2
DIVIDE2
 70
0
  3
Divide (.5x) __..__..__..__..__..__..__..__.._
 72
65
 73
6
 40
15.8749999999999982
 49
6.3499999999999996
 74
0
 49
-3.125
 74
0
 49
0.1
 74
0
 49
-3.0750000000000002
 74
0
 49
0.1
 74
0
 49
-3.125
 74
0
  0
LTYPE
  5
54
100
AcDbSymbolTableRecord
100
AcDbLinetypeTableRecord
  2
DOT
 70
0
  3
Dot . . . . . . . . . . . . . . . . . . . . . . . .
 72
65
 73
2
 40
6.3499999999999996
 49
0.1
 74
0
 49
-6.25
 74
0
  0
LTYPE
  5
55
100
AcDbSymbolTableRecord
100
AcDbLinetypeTableRecord
  2
DASHDOT
 70
0
  3
Dash dot __ . __ . __ . __ . __ . __ . __ . __
 72
65
 73
4
 40
25.4000000000000021
 49
12.6999999999999993
 74
0
 49
-6.2999999999999998
 74
0
 49
0.1
 74
0
 49
-6.2999999999999998
 74
0
  0
LTYPE
  5
56
100
AcDbSymbolTableRecord
100
AcDbLinetypeTableRecord
  2
ACAD_ISO03W100
 70
0
  3
ISO dash space __    __    __    __    __    __
 72
65
 73
2
 40
30.0
 49
12.0
 74
0
 49
-18.0
 74
0
  0
ENDTAB
  0
TABLE
  2
LAYER
  5
2
100
AcDbSymbolTable
 70
1
  0
LAYER
  5
10
100
AcDbSymbolTableRecord
100
AcDbLayerTableRecord
  2
0
 70
0
 62
7
420
16777215
  6
Continuous
370
25
390
F
  0
ENDTAB
  0
TABLE
  2
STYLE
  5
3
100
AcDbSymbolTable
 70
1
  0
STYLE
  5
57
100
AcDbSymbolTableRecord
100
AcDbTextStyleTableRecord
  2
Standard
 70
0
 40
0.0
 41
1.0
 50
0.0
 71
0
 42
2.5
  3

  4

1001
ACAD
1000
txt
1071
0
  0
ENDTAB
  0
TABLE
  2
VIEW
  5
6
100
AcDbSymbolTable
 70
0
  0
ENDTAB
  0
TABLE
  2
UCS
  5
7
100
AcDbSymbolTable
 70
0
  0
ENDTAB
  0
TABLE
  2
APPID
  5
9
100
AcDbSymbolTable
 70
1
  0
APPID
  5
12
100
AcDbSymbolTableRecord
100
AcDbRegAppTableRecord
  2
ACAD
 70
0
  0
APPID
  5
58
100
AcDbSymbolTableRecord
100
AcDbRegAppTableRecord
  2
QCAD
 70
0
  0
ENDTAB
  0
TABLE
  2
DIMSTYLE
  5
A
100
AcDbSymbolTable
 70
1
100
AcDbDimStyleTable
 71
0
  0
DIMSTYLE
105
27
100
AcDbSymbolTableRecord
100
AcDbDimStyleTableRecord
  2
Standard
 41
2.5
 42
0.625
 43
3.75
 44
1.25
 70
0
 73
0
 74
0
 77
1
 78
8
140
2.5
141
2.5
143
0.03937007874016
147
0.625
171
3
172
1
271
2
272
2
274
3
278
44
283
0
284
8
340
57
  0
ENDTAB
  0
TABLE
  2
BLOCK_RECORD
  5
1
100
AcDbSymbolTable
 70
1
  0
BLOCK_RECORD
  5
1F
100
AcDbSymbolTableRecord
100
AcDbBlockTableRecord
  2
*Model_Space
340
22
  0
BLOCK_RECORD
  5
1B
100
AcDbSymbolTableRecord
100
AcDbBlockTableRecord
  2
*Paper_Space
340
1E
  0
BLOCK_RECORD
  5
23
100
AcDbSymbolTableRecord
100
AcDbBlockTableRecord
  2
*Paper_Space0
340
26
  0
ENDTAB
  0
ENDSEC
  0
SECTION
  2
BLOCKS
  0
BLOCK
  5
20
100
AcDbEntity
  8
0
100
AcDbBlockBegin
  2
*Model_Space
 70
0
 10
0.0
 20
0.0
 30
0.0
  3
*Model_Space
  1

  0
ENDBLK
  5
21
100
AcDbEntity
  8
0
100
AcDbBlockEnd
  0
BLOCK
  5
1C
100
AcDbEntity
 67
1
  8
0
100
AcDbBlockBegin
  2
*Paper_Space
 70
0
 10
0.0
 20
0.0
 30
0.0
  3
*Paper_Space
  1

  0
ENDBLK
  5
1D
100
AcDbEntity
 67
1
  8
0
100
AcDbBlockEnd
  0
BLOCK
  5
24
100
AcDbEntity
  8
0
100
AcDbBlockBegin
  2
*Paper_Space0
 70
0
 10
0.0
 20
0.0
 30
0.0
  3
*Paper_Space0
  1

  0
ENDBLK
  5
25
100
AcDbEntity
  8
0
100
AcDbBlockEnd
  0
ENDSEC
  0
SECTION
  2
ENTITIES
  0
LINE
  5
59
100
AcDbEntity
100
AcDbLine
  8
0
 62
256
370
-1
 48
1.0
  6
BYLAYER
 10
72.4468759365188077
 20
25.2706825103689212
 30
0.0
 11
85.5959106836120895
 21
25.2702222059534805
 31
0.0
  0
LINE
  5
5A
100
AcDbEntity
100
AcDbLine
  8
0
 62
256
370
-1
 48
1.0
  6
BYLAYER
 10
72.4468759365188077
 20
36.8711874588601987
 30
0.0
 11
72.4468759365188077
 21
25.2706825103689212
 31
0.0
  0
LINE
  5
5B
100
AcDbEntity
100
AcDbLine
  8
0
 62
256
370
-1
 48
1.0
  6
BYLAYER
 10
67.1468759365188248
 20
25.2708408669963731
 30
0.0
 11
67.1468759365187964
 21
36.8711874588601987
 31
0.0
  0
LINE
  5
5C
100
AcDbEntity
100
AcDbLine
  8
0
 62
256
370
-1
 48
1.0
  6
BYLAYER
 10
55.5468759362703182
 20
25.2711874588602186
 30
0.0
 11
67.1468759365188248
 21
25.2708408669963731
 31
0.0
  0
LINE
  5
5D
100
AcDbEntity
100
AcDbLine
  8
0
 62
256
370
-1
 48
1.0
  6
BYLAYER
 10
67.1468759365187964
 20
19.9622836351165844
 30
0.0
 11
55.5468759365128832
 21
19.9711874588602072
 31
0.0
  0
LINE
  5
5E
100
AcDbEntity
100
AcDbLine
  8
0
 62
256
370
-1
 48
1.0
  6
BYLAYER
 10
67.1468759365188248
 20
6.8211874588602015
 30
0.0
 11
67.1468759365187964
 21
19.9622836351165844
 31
0.0
  0
LINE
  5
5F
100
AcDbEntity
100
AcDbLine
  8
0
 62
256
370
-1
 48
1.0
  6
BYLAYER
 10
72.4468759365188077
 20
19.9582155087509747
 30
0.0
 11
84.0468759365365656
 21
19.949311685007352
 31
0.0
  0
LINE
  5
60
100
AcDbEntity
100
AcDbLine
  8
0
 62
256
370
-1
 48
1.0
  6
BYLAYER
 10
74.4968759365187907
 20
0.92118745886021
 30
0.0
 11
74.4968759365187907
 21
4.7711874588602043
 31
0.0
  0
LINE
  5
61
100
AcDbEntity
100
AcDbLine
  8
0
 62
256
370
-1
 48
1.0
  6
BYLAYER
 10
65.9968759365187907
 20
0.0156489450464576
 30
0.0
 11
73.5968759365188134
 21
0.0211874588602043
 31
0.0
  0
LINE
  5
62
100
AcDbEntity
100
AcDbLine
  8
0
 62
256
370
-1
 48
1.0
  6
BYLAYER
 10
65.0968759365188134
 20
4.7711874588602043
 30
0.0
 11
65.0968759365188134
 21
1.0211874588602043
 31
0.0
  0
ARC
  5
63
100
AcDbEntity
  8
0
 62
256
370
-1
 48
1.0
  6
BYLAYER
100
AcDbCircle
 10
73.5968759365188134
 20
0.92118745886021
 30
0.0
 40
0.8999999999999986
100
AcDbArc
 50
270.0
 51
0.0
  0
ARC
  5
64
100
AcDbEntity
  8
0
 62
256
370
-1
 48
1.0
  6
BYLAYER
100
AcDbCircle
 10
65.9968759365187907
 20
0.92118745886021
 30
0.0
 40
0.9055385138137402
100
AcDbArc
 50
173.6598082540901657
 51
270.0
  0
LINE
  5
65
100
AcDbEntity
100
AcDbLine
  8
0
 62
256
370
-1
 48
1.0
  6
BYLAYER
 10
87.6468759365187964
 20
17.92118745886021
 30
0.0
 11
91.5968759365188134
 21
17.92118745886021
 31
0.0
  0
LINE
  5
66
100
AcDbEntity
100
AcDbLine
  8
0
 62
256
370
-1
 48
1.0
  6
BYLAYER
 10
92.3968759365187964
 20
26.42118745886021
 30
0.0
 11
92.3968759365187964
 21
18.7211874588602072
 31
0.0
  0
LINE
  5
67
100
AcDbEntity
100
AcDbLine
  8
0
 62
256
370
-1
 48
1.0
  6
BYLAYER
 10
87.6468759365187964
 20
27.3211874588602015
 30
0.0
 11
91.4968759365188191
 21
27.3211874588602015
 31
0.0
  0
ARC
  5
68
100
AcDbEntity
  8
0
 62
256
370
-1
 48
1.0
  6
BYLAYER
100
AcDbCircle
 10
91.5968759365188134
 20
18.7211874588602072
 30
0.0
 40
0.8000000000000007
100
AcDbArc
 50
270.0
 51
0.0
  0
ARC
  5
69
100
AcDbEntity
  8
0
 62
256
370
-1
 48
1.0
  6
BYLAYER
100
AcDbCircle
 10
91.4968759365188191
 20
26.42118745886021
 30
0.0
 40
0.8999999999999986
100
AcDbArc
 50
0.0
 51
90.0
  0
LINE
  5
6A
100
AcDbEntity
100
AcDbLine
  8
0
 62
256
370
-1
 48
1.0
  6
BYLAYER
 10
74.4968759365187907
 20
44.3211874588602157
 30
0.0
 11
74.4968759365187907
 21
40.471187458860193
 31
0.0
  0
LINE
  5
6B
100
AcDbEntity
100
AcDbLine
  8
0
 62
256
370
-1
 48
1.0
  6
BYLAYER
 10
65.0968759365188134
 20
40.471187458860193
 30
0.0
 11
65.0968759365188134
 21
44.3211874588602157
 31
0.0
  0
ARC
  5
6C
100
AcDbEntity
  8
0
 62
256
370
-1
 48
1.0
  6
BYLAYER
100
AcDbCircle
 10
73.5968759365188134
 20
44.3211874588602157
 30
0.0
 40
0.8999999999999986
100
AcDbArc
 50
0.0
 51
90.0
  0
ARC
  5
6D
100
AcDbEntity
  8
0
 62
256
370
-1
 48
1.0
  6
BYLAYER
100
AcDbCircle
 10
65.9968759365187907
 20
44.3211874588602157
 30
0.0
 40
0.8999999999999986
100
AcDbArc
 50
90.0
 51
180.0
  0
LINE
  5
6E
100
AcDbEntity
100
AcDbLine
  8
0
 62
256
370
-1
 48
1.0
  6
BYLAYER
 10
48.1968759365188006
 20
27.3211874588602015
 30
0.0
 11
51.9468759365188006
 21
27.3211874588602015
 31
0.0
  0
LINE
  5
6F
100
AcDbEntity
100
AcDbLine
  8
0
 62
256
370
-1
 48
1.0
  6
BYLAYER
 10
51.9468759365188006
 20
17.92118745886021
 30
0.0
 11
48.1968759365188006
 21
17.9161998967481182
 31
0.0
  0
ARC
  5
70
100
AcDbEntity
  8
0
 62
256
370
-1
 48
1.0
  6
BYLAYER
100
AcDbCircle
 10
48.1968759365188006
 20
26.3211874588602015
 30
0.0
 40
1.0
100
AcDbArc
 50
90.0000000000000142
 51
180.0
  0
ARC
  5
71
100
AcDbEntity
  8
0
 62
256
370
-1
 48
1.0
  6
BYLAYER
100
AcDbCircle
 10
48.1968759365188006
 20
18.92118745886021
 30
0.0
 40
1.004987562112089
100
AcDbArc
 50
174.289406862500357
 51
270.0
  0
LINE
  5
72
100
AcDbEntity
100
AcDbLine
  8
0
 62
256
370
-1
 48
1.0
  6
BYLAYER
 10
72.4468759365188077
 20
38.42118745886021
 30
0.0
 11
72.4468759365188077
 21
36.8711874588601987
 31
0.0
  0
LINE
  5
73
100
AcDbEntity
100
AcDbLine
  8
0
 62
256
370
-1
 48
1.0
  6
BYLAYER
 10
67.1468759365187964
 20
38.42118745886021
 30
0.0
 11
67.1468759365187964
 21
36.8711874588601987
 31
0.0
  0
LINE
  5
74
100
AcDbEntity
100
AcDbLine
  8
0
 62
256
370
-1
 48
1.0
  6
BYLAYER
 10
53.9968759365187978
 20
25.2711874588602043
 30
0.0
 11
55.546875936518795
 21
25.2711874588602043
 31
0.0
  0
LINE
  5
75
100
AcDbEntity
100
AcDbLine
  8
0
 62
256
370
-1
 48
1.0
  6
BYLAYER
 10
55.546875936518795
 20
19.971187458860193
 30
0.0
 11
53.9968759365187978
 21
19.9711874588602072
 31
0.0
  0
LINE
  5
76
100
AcDbEntity
100
AcDbLine
  8
0
 62
256
370
-1
 48
1.0
  6
BYLAYER
 10
85.6217216214109555
 20
19.9463417739680651
 30
0.0
 11
84.0468759365188305
 21
19.9493116850073662
 31
0.0
  0
LINE
  5
77
100
AcDbEntity
100
AcDbLine
  8
0
 62
256
370
-1
 48
1.0
  6
BYLAYER
 10
51.9468759365188006
 20
17.92118745886021
 30
0.0
 11
53.9968759365187978
 21
19.9711874588602072
 31
0.0
  0
LINE
  5
78
100
AcDbEntity
100
AcDbLine
  8
0
 62
256
370
-1
 48
1.0
  6
BYLAYER
 10
51.9468759365188006
 20
27.3211874588602015
 30
0.0
 11
53.9968759365187978
 21
25.2711874588602043
 31
0.0
  0
LINE
  5
79
100
AcDbEntity
100
AcDbLine
  8
0
 62
256
370
-1
 48
1.0
  6
BYLAYER
 10
74.4968759365187907
 20
40.471187458860193
 30
0.0
 11
72.4468759365188077
 21
38.42118745886021
 31
0.0
  0
LINE
  5
7A
100
AcDbEntity
100
AcDbLine
  8
0
 62
256
370
-1
 48
1.0
  6
BYLAYER
 10
65.0968759365188134
 20
40.471187458860193
 30
0.0
 11
67.1468759365187964
 21
38.42118745886021
 31
0.0
  0
LINE
  5
7B
100
AcDbEntity
100
AcDbLine
  8
0
 62
256
370
-1
 48
1.0
  6
BYLAYER
 10
87.6468759365187964
 20
27.3211874588602015
 30
0.0
 11
85.5959106836120611
 21
25.2702222059534805
 31
0.0
  0
LINE
  5
7C
100
AcDbEntity
100
AcDbLine
  8
0
 62
256
370
-1
 48
1.0
  6
BYLAYER
 10
87.6468759365187964
 20
17.92118745886021
 30
0.0
 11
85.6217216214109555
 21
19.9463417739680651
 31
0.0
  0
LINE
  5
7D
100
AcDbEntity
100
AcDbLine
  8
0
 62
256
370
-1
 48
1.0
  6
BYLAYER
 10
74.4968759365187907
 20
4.7711874588602043
 30
0.0
 11
72.4468759365188077
 21
6.8211874588602015
 31
0.0
  0
LINE
  5
7E
100
AcDbEntity
100
AcDbLine
  8
0
 62
256
370
-1
 48
1.0
  6
BYLAYER
 10
65.0968759365188134
 20
4.7711874588602043
 30
0.0
 11
67.1468759365187964
 21
6.8211874588602015
 31
0.0
  0
LINE
  5
7F
100
AcDbEntity
100
AcDbLine
  8
0
 62
256
370
-1
 48
1.0
  6
BYLAYER
 10
63.8480194155497855
 20
81.9995725918366531
 30
0.0
 11
61.7980194155498026
 21
84.0495725918366645
 31
0.0
  0
LINE
  5
80
100
AcDbEntity
100
AcDbLine
  8
0
 62
256
370
-1
 48
1.0
  6
BYLAYER
 10
63.8480194155497998
 20
70.1995725918366418
 30
0.0
 11
61.7980194155497884
 21
72.2495725918366531
 31
0.0
  0
LINE
  5
81
100
AcDbEntity
100
AcDbLine
  8
0
 62
256
370
-1
 48
1.0
  6
BYLAYER
 10
63.8480194155497855
 20
58.799572591836629
 30
0.0
 11
61.7980194155497884
 21
60.8495725918366404
 31
0.0
  0
LINE
  5
82
100
AcDbEntity
100
AcDbLine
  8
0
 62
256
370
-1
 48
1.0
  6
BYLAYER
 10
63.8480194155497855
 20
47.3995725918366375
 30
0.0
 11
61.7980194155497884
 21
49.4495725918366631
 31
0.0
  0
LINE
  5
83
100
AcDbEntity
100
AcDbLine
  8
0
 62
256
370
-1
 48
1.0
  6
BYLAYER
 10
63.8480194155497998
 20
91.3995725918366304
 30
0.0
 11
61.7980194155497884
 21
89.349572591836619
 31
0.0
  0
LINE
  5
84
100
AcDbEntity
100
AcDbLine
  8
0
 62
256
370
-1
 48
1.0
  6
BYLAYER
 10
63.848019415549814
 20
79.5995725918366475
 30
0.0
 11
61.7980194155498168
 21
77.5495725918366361
 31
0.0
  0
LINE
  5
85
100
AcDbEntity
100
AcDbLine
  8
0
 62
256
370
-1
 48
1.0
  6
BYLAYER
 10
63.8480194155497855
 20
68.1995725918366418
 30
0.0
 11
61.7980194155497884
 21
66.1495725918366304
 31
0.0
  0
LINE
  5
86
100
AcDbEntity
100
AcDbLine
  8
0
 62
256
370
-1
 48
1.0
  6
BYLAYER
 10
63.8480194155497855
 20
56.7995725918366574
 30
0.0
 11
61.7980194155497884
 21
54.749572591836646
 31
0.0
  0
LINE
  5
87
100
AcDbEntity
100
AcDbLine
  8
0
 62
256
370
-1
 48
1.0
  6
BYLAYER
 10
28.1480194155498111
 20
70.1995725918366418
 30
0.0
 11
30.1980194155497941
 21
72.2495725918366531
 31
0.0
  0
LINE
  5
88
100
AcDbEntity
100
AcDbLine
  8
0
 62
256
370
-1
 48
1.0
  6
BYLAYER
 10
28.1480194155498111
 20
58.799572591836629
 30
0.0
 11
30.1980194155497941
 21
60.8495725918366546
 31
0.0
  0
LINE
  5
89
100
AcDbEntity
100
AcDbLine
  8
0
 62
256
370
-1
 48
1.0
  6
BYLAYER
 10
28.1480194155498111
 20
47.3995725918366375
 30
0.0
 11
30.1980194155497941
 21
49.4495725918366631
 31
0.0
  0
LINE
  5
8A
100
AcDbEntity
100
AcDbLine
  8
0
 62
256
370
-1
 48
1.0
  6
BYLAYER
 10
28.1480194155498253
 20
81.9995725918366531
 30
0.0
 11
30.198019415549787
 21
84.0495725918366645
 31
0.0
  0
LINE
  5
8B
100
AcDbEntity
100
AcDbLine
  8
0
 62
256
370
-1
 48
1.0
  6
BYLAYER
 10
28.1480194155498111
 20
79.5995725918366475
 30
0.0
 11
30.1980194155498012
 21
77.5495725918366361
 31
0.0
  0
LINE
  5
8C
100
AcDbEntity
100
AcDbLine
  8
0
 62
256
370
-1
 48
1.0
  6
BYLAYER
 10
28.1480194155498111
 20
68.1995725918366418
 30
0.0
 11
30.1980194155497941
 21
66.1495725918366304
 31
0.0
  0
LINE
  5
8D
100
AcDbEntity
100
AcDbLine
  8
0
 62
256
370
-1
 48
1.0
  6
BYLAYER
 10
28.148019415549804
 20
56.7995725918366574
 30
0.0
 11
30.1980194155497941
 21
54.749572591836646
 31
0.0
  0
LINE
  5
8E
100
AcDbEntity
100
AcDbLine
  8
0
 62
256
370
-1
 48
1.0
  6
BYLAYER
 10
28.1480194155498182
 20
91.3995725918366304
 30
0.0
 11
30.198019415549787
 21
89.349572591836619
 31
0.0
  0
LINE
  5
8F
100
AcDbEntity
100
AcDbLine
  8
0
 62
256
370
-1
 48
1.0
  6
BYLAYER
 10
61.7980194155498168
 20
77.5495725918366361
 30
0.0
 11
60.248019415549777
 21
77.5495725918366361
 31
0.0
  0
LINE
  5
90
100
AcDbEntity
100
AcDbLine
  8
0
 62
256
370
-1
 48
1.0
  6
BYLAYER
 10
61.7980194155497884
 20
66.1495725918366304
 30
0.0
 11
60.248019415549777
 21
66.1495725918366304
 31
0.0
  0
LINE
  5
91
100
AcDbEntity
100
AcDbLine
  8
0
 62
256
370
-1
 48
1.0
  6
BYLAYER
 10
61.7980194155497884
 20
54.749572591836646
 30
0.0
 11
60.248019415549777
 21
54.749572591836646
 31
0.0
  0
LINE
  5
92
100
AcDbEntity
100
AcDbLine
  8
0
 62
256
370
-1
 48
1.0
  6
BYLAYER
 10
61.7980194155497884
 20
89.349572591836619
 30
0.0
 11
60.2480194155497912
 21
89.349572591836619
 31
0.0
  0
LINE
  5
93
100
AcDbEntity
100
AcDbLine
  8
0
 62
256
370
-1
 48
1.0
  6
BYLAYER
 10
61.7980194155497884
 20
72.2495725918366531
 30
0.0
 11
60.2480194155497912
 21
72.2495725918366531
 31
0.0
  0
LINE
  5
94
100
AcDbEntity
100
AcDbLine
  8
0
 62
256
370
-1
 48
1.0
  6
BYLAYER
 10
61.7980194155497884
 20
60.8495725918366404
 30
0.0
 11
60.248019415549777
 21
60.8495725918366404
 31
0.0
  0
LINE
  5
95
100
AcDbEntity
100
AcDbLine
  8
0
 62
256
370
-1
 48
1.0
  6
BYLAYER
 10
61.7980194155497884
 20
49.4495725918366631
 30
0.0
 11
60.248019415549777
 21
49.4495725918366631
 31
0.0
  0
LINE
  5
96
100
AcDbEntity
100
AcDbLine
  8
0
 62
256
370
-1
 48
1.0
  6
BYLAYER
 10
61.7980194155498026
 20
84.0495725918366645
 30
0.0
 11
60.248019415549777
 21
84.0495725918366645
 31
0.0
  0
LINE
  5
97
100
AcDbEntity
100
AcDbLine
  8
0
 62
256
370
-1
 48
1.0
  6
BYLAYER
 10
30.1980194155497941
 20
72.2495725918366531
 30
0.0
 11
31.7480194155498054
 21
72.2495725918366531
 31
0.0
  0
LINE
  5
98
100
AcDbEntity
100
AcDbLine
  8
0
 62
256
370
-1
 48
1.0
  6
BYLAYER
 10
30.1980194155497941
 20
60.8495725918366546
 30
0.0
 11
31.7480194155498054
 21
60.8495725918366404
 31
0.0
  0
LINE
  5
99
100
AcDbEntity
100
AcDbLine
  8
0
 62
256
370
-1
 48
1.0
  6
BYLAYER
 10
30.1980194155497941
 20
49.4495725918366631
 30
0.0
 11
31.7480194155498054
 21
49.4495725918366631
 31
0.0
  0
LINE
  5
9A
100
AcDbEntity
100
AcDbLine
  8
0
 62
256
370
-1
 48
1.0
  6
BYLAYER
 10
30.198019415549787
 20
84.0495725918366645
 30
0.0
 11
31.7480194155497983
 21
84.0495725918366645
 31
0.0
  0
LINE
  5
9B
100
AcDbEntity
100
AcDbLine
  8
0
 62
256
370
-1
 48
1.0
  6
BYLAYER
 10
30.1980194155498012
 20
77.5495725918366361
 30
0.0
 11
31.7480194155498054
 21
77.5495725918366361
 31
0.0
  0
LINE
  5
9C
100
AcDbEntity
100
AcDbLine
  8
0
 62
256
370
-1
 48
1.0
  6
BYLAYER
 10
30.1980194155497941
 20
66.1495725918366304
 30
0.0
 11
31.7480194155498125
 21
66.1495725918366304
 31
0.0
  0
LINE
  5
9D
100
AcDbEntity
100
AcDbLine
  8
0
 62
256
370
-1
 48
1.0
  6
BYLAYER
 10
30.1980194155497941
 20
54.749572591836646
 30
0.0
 11
31.7480194155498054
 21
54.749572591836646
 31
0.0
  0
LINE
  5
9E
100
AcDbEntity
100
AcDbLine
  8
0
 62
256
370
-1
 48
1.0
  6
BYLAYER
 10
30.198019415549787
 20
89.349572591836619
 30
0.0
 11
31.7480194155498125
 21
89.349572591836619
 31
0.0
  0
ARC
  5
9F
100
AcDbEntity
  8
0
 62
256
370
-1
 48
1.0
  6
BYLAYER
100
AcDbCircle
 10
0.9999999999999999
 20
18.8999999999999986
 30
0.0
 40
1.004987562112089
100
AcDbArc
 50
174.289406862500357
 51
270.0
  0
ARC
  5
A0
100
AcDbEntity
  8
0
 62
256
370
-1
 48
1.0
  6
BYLAYER
100
AcDbCircle
 10
0.9999999999999999
 20
26.2999999999999972
 30
0.0
 40
1.0
100
AcDbArc
 50
90.0000000000000142
 51
180.0
  0
LINE
  5
A1
100
AcDbEntity
100
AcDbLine
  8
0
 62
256
370
-1
 48
1.0
  6
BYLAYER
 10
4.75
 20
17.8999999999999986
 30
0.0
 11
0.9999999999999997
 21
17.8950124378879103
 31
0.0
  0
LINE
  5
A2
100
AcDbEntity
100
AcDbLine
  8
0
 62
256
370
-1
 48
1.0
  6
BYLAYER
 10
0.0
 20
19.0
 30
0.0
 11
-0.0000000000000001
 21
26.2999999999999972
 31
0.0
  0
LINE
  5
A3
100
AcDbEntity
100
AcDbLine
  8
0
 62
256
370
-1
 48
1.0
  6
BYLAYER
 10
0.9999999999999998
 20
27.2999999999999972
 30
0.0
 11
4.7500000000000044
 21
27.2999999999999972
 31
0.0
  0
ARC
  5
A4
100
AcDbEntity
  8
0
 62
256
370
-1
 48
1.0
  6
BYLAYER
100
AcDbCircle
 10
24.2980194155497884
 20
71.0995725918366475
 30
0.0
 40
0.8999999999999986
100
AcDbArc
 50
180.0
 51
270.0
  0
ARC
  5
A5
100
AcDbEntity
  8
0
 62
256
370
-1
 48
1.0
  6
BYLAYER
100
AcDbCircle
 10
24.2980194155497884
 20
59.6995725918366347
 30
0.0
 40
0.8999999999999986
100
AcDbArc
 50
180.0
 51
270.0
  0
ARC
  5
A6
100
AcDbEntity
  8
0
 62
256
370
-1
 48
1.0
  6
BYLAYER
100
AcDbCircle
 10
24.2980194155497884
 20
48.2995725918366432
 30
0.0
 40
0.8999999999999986
100
AcDbArc
 50
180.0
 51
270.0
  0
ARC
  5
A7
100
AcDbEntity
  8
0
 62
256
370
-1
 48
1.0
  6
BYLAYER
100
AcDbCircle
 10
24.2980194155497884
 20
82.8995725918366304
 30
0.0
 40
0.8999999999999986
100
AcDbArc
 50
180.0
 51
270.0
  0
ARC
  5
A8
100
AcDbEntity
  8
0
 62
256
370
-1
 48
1.0
  6
BYLAYER
100
AcDbCircle
 10
18.7999999999999972
 20
44.2999999999999972
 30
0.0
 40
0.8999999999999986
100
AcDbArc
 50
90.0
 51
180.0
  0
ARC
  5
A9
100
AcDbEntity
  8
0
 62
256
370
-1
 48
1.0
  6
BYLAYER
100
AcDbCircle
 10
24.2980194155497813
 20
78.6995725918366418
 30
0.0
 40
0.8999999999999986
100
AcDbArc
 50
90.0
 51
180.0
  0
ARC
  5
AA
100
AcDbEntity
  8
0
 62
256
370
-1
 48
1.0
  6
BYLAYER
100
AcDbCircle
 10
24.2980194155498026
 20
67.2995725918366361
 30
0.0
 40
0.8999999999999986
100
AcDbArc
 50
90.0
 51
180.0
  0
ARC
  5
AB
100
AcDbEntity
  8
0
 62
256
370
-1
 48
1.0
  6
BYLAYER
100
AcDbCircle
 10
24.2980194155497884
 20
55.8995725918366659
 30
0.0
 40
0.8999999999999986
100
AcDbArc
 50
90.0
 51
180.0
  0
ARC
  5
AC
100
AcDbEntity
  8
0
 62
256
370
-1
 48
1.0
  6
BYLAYER
100
AcDbCircle
 10
24.2980194155497955
 20
90.4995725918366531
 30
0.0
 40
0.8999999999999986
100
AcDbArc
 50
90.0
 51
180.0
  0
ARC
  5
AD
100
AcDbEntity
  8
0
 62
256
370
-1
 48
1.0
  6
BYLAYER
100
AcDbCircle
 10
26.3999999999999986
 20
44.2999999999999972
 30
0.0
 40
0.8999999999999986
100
AcDbArc
 50
0.0
 51
90.0
  0
LINE
  5
AE
100
AcDbEntity
100
AcDbLine
  8
0
 62
256
370
-1
 48
1.0
  6
BYLAYER
 10
17.8999999999999986
 20
40.4499999999999957
 30
0.0
 11
17.8999999999999986
 21
44.2999999999999972
 31
0.0
  0
LINE
  5
AF
100
AcDbEntity
100
AcDbLine
  8
0
 62
256
370
-1
 48
1.0
  6
BYLAYER
 10
23.3980194155498111
 20
71.0995725918366475
 30
0.0
 11
23.3980194155498182
 21
78.6995725918366418
 31
0.0
  0
LINE
  5
B0
100
AcDbEntity
100
AcDbLine
  8
0
 62
256
370
-1
 48
1.0
  6
BYLAYER
 10
23.3980194155498111
 20
59.6995725918366347
 30
0.0
 11
23.3980194155498111
 21
67.2995725918366361
 31
0.0
  0
LINE
  5
B1
100
AcDbEntity
100
AcDbLine
  8
0
 62
256
370
-1
 48
1.0
  6
BYLAYER
 10
23.3980194155498182
 20
48.2995725918366574
 30
0.0
 11
23.3980194155498182
 21
55.8995725918366517
 31
0.0
  0
LINE
  5
B2
100
AcDbEntity
100
AcDbLine
  8
0
 62
256
370
-1
 48
1.0
  6
BYLAYER
 10
23.3980194155498111
 20
82.8995725918366304
 30
0.0
 11
23.3980194155498111
 21
90.4995725918366531
 31
0.0
  0
LINE
  5
B3
100
AcDbEntity
100
AcDbLine
  8
0
 62
256
370
-1
 48
1.0
  6
BYLAYER
 10
27.2999999999999972
 20
44.2999999999999972
 30
0.0
 11
27.2999999999999972
 21
40.4499999999999957
 31
0.0
  0
ARC
  5
B4
100
AcDbEntity
  8
0
 62
256
370
-1
 48
1.0
  6
BYLAYER
100
AcDbCircle
 10
44.2999999999999972
 20
26.3999999999999986
 30
0.0
 40
0.8999999999999986
100
AcDbArc
 50
0.0
 51
90.0
  0
ARC
  5
B5
100
AcDbEntity
  8
0
 62
256
370
-1
 48
1.0
  6
BYLAYER
100
AcDbCircle
 10
44.3999999999999986
 20
18.6999999999999993
 30
0.0
 40
0.8000000000000007
100
AcDbArc
 50
270.0
 51
0.0
  0
LINE
  5
B6
100
AcDbEntity
100
AcDbLine
  8
0
 62
256
370
-1
 48
1.0
  6
BYLAYER
 10
40.4499999999999957
 20
27.2999999999999972
 30
0.0
 11
44.2999999999999972
 21
27.2999999999999972
 31
0.0
  0
LINE
  5
B7
100
AcDbEntity
100
AcDbLine
  8
0
 62
256
370
-1
 48
1.0
  6
BYLAYER
 10
40.4499999999999957
 20
17.8999999999999986
 30
0.0
 11
44.3999999999999986
 21
17.8999999999999986
 31
0.0
  0
ARC
  5
B8
100
AcDbEntity
  8
0
 62
256
370
-1
 48
1.0
  6
BYLAYER
100
AcDbCircle
 10
67.6980194155497657
 20
71.0995725918366475
 30
0.0
 40
0.9055385138137402
100
AcDbArc
 50
263.6598082540901373
 51
0.0
  0
ARC
  5
B9
100
AcDbEntity
  8
0
 62
256
370
-1
 48
1.0
  6
BYLAYER
100
AcDbCircle
 10
67.6980194155498225
 20
59.6995725918366347
 30
0.0
 40
0.9055385138137402
100
AcDbArc
 50
263.6598082540901373
 51
0.0
  0
ARC
  5
BA
100
AcDbEntity
  8
0
 62
256
370
-1
 48
1.0
  6
BYLAYER
100
AcDbCircle
 10
67.6980194155497941
 20
48.2995725918366432
 30
0.0
 40
0.9055385138137402
100
AcDbArc
 50
263.6598082540901373
 51
0.0
  0
ARC
  5
BB
100
AcDbEntity
  8
0
 62
256
370
-1
 48
1.0
  6
BYLAYER
100
AcDbCircle
 10
67.6980194155499078
 20
82.8995725918366304
 30
0.0
 40
0.9055385138137402
100
AcDbArc
 50
263.6598082540901373
 51
0.0
  0
ARC
  5
BC
100
AcDbEntity
  8
0
 62
256
370
-1
 48
1.0
  6
BYLAYER
100
AcDbCircle
 10
18.7999999999999972
 20
0.8999999999999999
 30
0.0
 40
0.9055385138137402
100
AcDbArc
 50
173.6598082540901657
 51
270.0
  0
ARC
  5
BD
100
AcDbEntity
  8
0
 62
256
370
-1
 48
1.0
  6
BYLAYER
100
AcDbCircle
 10
67.6980194155497941
 20
78.6995725918366418
 30
0.0
 40
0.8999999999999986
100
AcDbArc
 50
0.0
 51
90.0
  0
ARC
  5
BE
100
AcDbEntity
  8
0
 62
256
370
-1
 48
1.0
  6
BYLAYER
100
AcDbCircle
 10
67.6980194155498083
 20
67.2995725918366361
 30
0.0
 40
0.8999999999999986
100
AcDbArc
 50
0.0
 51
90.0
  0
ARC
  5
BF
100
AcDbEntity
  8
0
 62
256
370
-1
 48
1.0
  6
BYLAYER
100
AcDbCircle
 10
67.6980194155497941
 20
55.8995725918366517
 30
0.0
 40
0.8999999999999986
100
AcDbArc
 50
0.0
 51
90.0
  0
ARC
  5
C0
100
AcDbEntity
  8
0
 62
256
370
-1
 48
1.0
  6
BYLAYER
100
AcDbCircle
 10
67.698019415549922
 20
90.4995725918366531
 30
0.0
 40
0.8999999999999986
100
AcDbArc
 50
0.0
 51
90.0
  0
ARC
  5
C1
100
AcDbEntity
  8
0
 62
256
370
-1
 48
1.0
  6
BYLAYER
100
AcDbCircle
 10
26.3999999999999986
 20
0.8999999999999999
 30
0.0
 40
0.8999999999999986
100
AcDbArc
 50
270.0
 51
0.0
  0
LINE
  5
C2
100
AcDbEntity
100
AcDbLine
  8
0
 62
256
370
-1
 48
1.0
  6
BYLAYER
 10
17.8999999999999986
 20
4.75
 30
0.0
 11
17.8999999999999986
 21
0.9999999999999989
 31
0.0
  0
LINE
  5
C3
100
AcDbEntity
100
AcDbLine
  8
0
 62
256
370
-1
 48
1.0
  6
BYLAYER
 10
68.6035579293528315
 20
71.0995725918366475
 30
0.0
 11
68.5980194155416712
 21
78.6995725918366418
 31
0.0
  0
LINE
  5
C4
100
AcDbEntity
100
AcDbLine
  8
0
 62
256
370
-1
 48
1.0
  6
BYLAYER
 10
68.6035579293601785
 20
59.6995725918366347
 30
0.0
 11
68.5980194155491603
 21
67.2995725918366361
 31
0.0
  0
LINE
  5
C5
100
AcDbEntity
100
AcDbLine
  8
0
 62
256
370
-1
 48
1.0
  6
BYLAYER
 10
68.603557929363518
 20
48.2995725918366432
 30
0.0
 11
68.5980194155528835
 21
55.8995725918366517
 31
0.0
  0
LINE
  5
C6
100
AcDbEntity
100
AcDbLine
  8
0
 62
256
370
-1
 48
1.0
  6
BYLAYER
 10
68.6035579293694724
 20
82.8995725918366304
 30
0.0
 11
68.598019415578932
 21
90.4995725918366531
 31
0.0
  0
LINE
  5
C7
100
AcDbEntity
100
AcDbLine
  8
0
 62
256
370
-1
 48
1.0
  6
BYLAYER
 10
18.7999999999999972
 20
-0.0055385138137403
 30
0.0
 11
26.3999999999999986
 21
0.0000000000000013
 31
0.0
  0
LINE
  5
C8
100
AcDbEntity
100
AcDbLine
  8
0
 62
256
370
-1
 48
1.0
  6
BYLAYER
 10
27.2999999999999972
 20
0.8999999999999999
 30
0.0
 11
27.2999999999999972
 21
4.75
 31
0.0
  0
LINE
  5
C9
100
AcDbEntity
100
AcDbLine
  8
0
 62
256
370
-1
 48
1.0
  6
BYLAYER
 10
31.7480194155498054
 20
72.2495725918366531
 30
0.0
 11
60.2480194155497912
 21
72.2495725918366531
 31
0.0
  0
LINE
  5
CA
100
AcDbEntity
100
AcDbLine
  8
0
 62
256
370
-1
 48
1.0
  6
BYLAYER
 10
31.7480194155498054
 20
60.8495725918366404
 30
0.0
 11
60.248019415549777
 21
60.8495725918366404
 31
0.0
  0
LINE
  5
CB
100
AcDbEntity
100
AcDbLine
  8
0
 62
256
370
-1
 48
1.0
  6
BYLAYER
 10
31.7480194155498054
 20
49.4495725918366631
 30
0.0
 11
60.248019415549777
 21
49.4495725918366631
 31
0.0
  0
LINE
  5
CC
100
AcDbEntity
100
AcDbLine
  8
0
 62
256
370
-1
 48
1.0
  6
BYLAYER
 10
31.7480194155497983
 20
84.0495725918366645
 30
0.0
 11
60.248019415549777
 21
84.0495725918366645
 31
0.0
  0
LINE
  5
CD
100
AcDbEntity
100
AcDbLine
  8
0
 62
256
370
-1
 48
1.0
  6
BYLAYER
 10
60.248019415549777
 20
77.5495725918366361
 30
0.0
 11
31.7480194155498054
 21
77.5495725918366361
 31
0.0
  0
LINE
  5
CE
100
AcDbEntity
100
AcDbLine
  8
0
 62
256
370
-1
 48
1.0
  6
BYLAYER
 10
60.248019415549777
 20
66.1495725918366304
 30
0.0
 11
31.7480194155498125
 21
66.1495725918366304
 31
0.0
  0
LINE
  5
CF
100
AcDbEntity
100
AcDbLine
  8
0
 62
256
370
-1
 48
1.0
  6
BYLAYER
 10
60.248019415549777
 20
54.749572591836646
 30
0.0
 11
31.7480194155498054
 21
54.749572591836646
 31
0.0
  0
LINE
  5
D0
100
AcDbEntity
100
AcDbLine
  8
0
 62
256
370
-1
 48
1.0
  6
BYLAYER
 10
60.2480194155497912
 20
89.349572591836619
 30
0.0
 11
31.7480194155498125
 21
89.349572591836619
 31
0.0
  0
LINE
  5
D1
100
AcDbEntity
100
AcDbLine
  8
0
 62
256
370
-1
 48
1.0
  6
BYLAYER
 10
6.9359342229441658
 20
18.5359342229441744
 30
0.0
 11
18.5357508081864104
 21
6.9358220679650628
 31
0.0
  0
LINE
  5
D2
100
AcDbEntity
100
AcDbLine
  8
0
 62
256
370
-1
 48
1.0
  6
BYLAYER
 10
18.5357508081864104
 20
6.9358220679650628
 30
0.0
 11
19.3107864380757377
 21
6.1607864380757373
 31
0.0
  0
LINE
  5
D3
100
AcDbEntity
100
AcDbLine
  8
0
 62
256
370
-1
 48
1.0
  6
BYLAYER
 10
6.9359342229441667
 20
18.5359342229441744
 30
0.0
 11
6.1609342229441681
 21
19.3109342229441694
 31
0.0
  0
LINE
  5
D4
100
AcDbEntity
100
AcDbLine
  8
0
 62
256
370
-1
 48
1.0
  6
BYLAYER
 10
25.8892134180488469
 20
39.0392134180488455
 30
0.0
 11
38.2645270339858925
 21
26.6636042198525125
 31
0.0
  0
LINE
  5
D5
100
AcDbEntity
100
AcDbLine
  8
0
 62
256
370
-1
 48
1.0
  6
BYLAYER
 10
38.2645270339858925
 20
26.6636042198525125
 30
0.0
 11
39.0390656269191965
 21
25.889065626919205
 31
0.0
  0
LINE
  5
D6
100
AcDbEntity
100
AcDbLine
  8
0
 62
256
370
-1
 48
1.0
  6
BYLAYER
 10
38.2522163834226063
 20
18.5240927794999095
 30
0.0
 11
26.6642134180488455
 21
6.9357865819511346
 31
0.0
  0
LINE
  5
D7
100
AcDbEntity
100
AcDbLine
  8
0
 62
256
370
-1
 48
1.0
  6
BYLAYER
 10
26.6642134180488455
 20
6.9357865819511346
 30
0.0
 11
25.889213418048854
 21
6.1607865819511414
 31
0.0
  0
LINE
  5
D8
100
AcDbEntity
100
AcDbLine
  8
0
 62
256
370
-1
 48
1.0
  6
BYLAYER
 10
38.2522163834226063
 20
18.5240927794999131
 30
0.0
 11
39.0390618019613456
 21
19.3109381980386523
 31
0.0
  0
LINE
  5
D9
100
AcDbEntity
100
AcDbLine
  8
0
 62
256
370
-1
 48
1.0
  6
BYLAYER
 10
6.9357865819511417
 20
26.6642134180488419
 30
0.0
 11
18.5367012359001393
 21
38.2651281726294457
 31
0.0
  0
LINE
  5
DA
100
AcDbEntity
100
AcDbLine
  8
0
 62
256
370
-1
 48
1.0
  6
BYLAYER
 10
18.5367012359001393
 20
38.2651281726294457
 30
0.0
 11
19.310786531635344
 21
39.0392134683646503
 31
0.0
  0
LINE
  5
DB
100
AcDbEntity
100
AcDbLine
  8
0
 62
256
370
-1
 48
1.0
  6
BYLAYER
 10
6.9357865819511435
 20
26.6642134180488455
 30
0.0
 11
6.1607865819511494
 21
25.8892134180488505
 31
0.0
  0
LINE
  5
DC
100
AcDbEntity
100
AcDbLine
  8
0
 62
256
370
-1
 48
1.0
  6
BYLAYER
 10
4.7500000000000044
 20
27.2999999999999972
 30
0.0
 11
6.1607865819511494
 21
25.8892134180488505
 31
0.0
  0
LINE
  5
DD
100
AcDbEntity
100
AcDbLine
  8
0
 62
256
370
-1
 48
1.0
  6
BYLAYER
 10
6.1609342229441681
 20
19.3109342229441694
 30
0.0
 11
4.75
 21
17.8999999999999986
 31
0.0
  0
LINE
  5
DE
100
AcDbEntity
100
AcDbLine
  8
0
 62
256
370
-1
 48
1.0
  6
BYLAYER
 10
19.3107864380757377
 20
6.1607864380757373
 30
0.0
 11
17.8999999999999986
 21
4.75
 31
0.0
  0
LINE
  5
DF
100
AcDbEntity
100
AcDbLine
  8
0
 62
256
370
-1
 48
1.0
  6
BYLAYER
 10
27.2999999999999972
 20
4.75
 30
0.0
 11
25.889213418048854
 21
6.1607865819511414
 31
0.0
  0
LINE
  5
E0
100
AcDbEntity
100
AcDbLine
  8
0
 62
256
370
-1
 48
1.0
  6
BYLAYER
 10
40.4499999999999957
 20
17.8999999999999986
 30
0.0
 11
39.0390618019613456
 21
19.3109381980386523
 31
0.0
  0
LINE
  5
E1
100
AcDbEntity
100
AcDbLine
  8
0
 62
256
370
-1
 48
1.0
  6
BYLAYER
 10
40.4499999999999957
 20
27.2999999999999972
 30
0.0
 11
39.0390656269191965
 21
25.889065626919205
 31
0.0
  0
LINE
  5
E2
100
AcDbEntity
100
AcDbLine
  8
0
 62
256
370
-1
 48
1.0
  6
BYLAYER
 10
25.8892134179167961
 20
39.0392134181250015
 30
0.0
 11
27.2999999999999972
 21
40.4499999999999957
 31
0.0
  0
LINE
  5
E3
100
AcDbEntity
100
AcDbLine
  8
0
 62
256
370
-1
 48
1.0
  6
BYLAYER
 10
17.8999999999999986
 20
40.4499999999999957
 30
0.0
 11
19.310786531635344
 21
39.0392134683646503
 31
0.0
  0
LINE
  5
E4
100
AcDbEntity
100
AcDbLine
  8
0
 62
256
370
-1
 48
1.0
  6
BYLAYER
 10
67.6980194155499078
 20
91.3995725918366304
 30
0.0
 11
63.8480194155497998
 21
91.3995725918366304
 31
0.0
  0
LINE
  5
E5
100
AcDbEntity
100
AcDbLine
  8
0
 62
256
370
-1
 48
1.0
  6
BYLAYER
 10
28.148019415549804
 20
56.7995725918366574
 30
0.0
 11
26.7980194155497884
 21
56.7995725918366716
 31
0.0
  0
LINE
  5
E6
100
AcDbEntity
100
AcDbLine
  8
0
 62
256
370
-1
 48
1.0
  6
BYLAYER
 10
25.5980194155497998
 20
56.799572591836629
 30
0.0
 11
24.2980194155497955
 21
56.7995725918366432
 31
0.0
  0
LINE
  5
E7
100
AcDbEntity
100
AcDbLine
  8
0
 62
256
370
-1
 48
1.0
  6
BYLAYER
 10
24.2980194155497884
 20
58.7995725918366574
 30
0.0
 11
25.5980194155497998
 21
58.7995725918366574
 31
0.0
  0
LINE
  5
E8
100
AcDbEntity
100
AcDbLine
  8
0
 62
256
370
-1
 48
1.0
  6
BYLAYER
 10
28.1480194155498111
 20
58.799572591836629
 30
0.0
 11
26.7980194155497884
 21
58.799572591836629
 31
0.0
  0
LINE
  5
E9
100
AcDbEntity
100
AcDbLine
  8
0
 62
256
370
-1
 48
1.0
  6
BYLAYER
 10
28.1480194155498111
 20
68.1995725918366418
 30
0.0
 11
26.7980194155497813
 21
68.1995725918366418
 31
0.0
  0
LINE
  5
EA
100
AcDbEntity
100
AcDbLine
  8
0
 62
256
370
-1
 48
1.0
  6
BYLAYER
 10
25.5980194155497998
 20
68.1995725918366702
 30
0.0
 11
24.2980194155497884
 21
68.1995725918366418
 31
0.0
  0
LINE
  5
EB
100
AcDbEntity
100
AcDbLine
  8
0
 62
256
370
-1
 48
1.0
  6
BYLAYER
 10
24.2980194155497955
 20
70.1995725918366418
 30
0.0
 11
25.5980194155498069
 21
70.1995725918366418
 31
0.0
  0
LINE
  5
EC
100
AcDbEntity
100
AcDbLine
  8
0
 62
256
370
-1
 48
1.0
  6
BYLAYER
 10
26.7980194155497955
 20
70.1995725918366418
 30
0.0
 11
28.1480194155498111
 21
70.1995725918366418
 31
0.0
  0
LINE
  5
ED
100
AcDbEntity
100
AcDbLine
  8
0
 62
256
370
-1
 48
1.0
  6
BYLAYER
 10
28.1480194155498111
 20
79.5995725918366475
 30
0.0
 11
26.7980194155497955
 21
79.5995725918366475
 31
0.0
  0
LINE
  5
EE
100
AcDbEntity
100
AcDbLine
  8
0
 62
256
370
-1
 48
1.0
  6
BYLAYER
 10
25.5980194155498069
 20
79.5995725918366475
 30
0.0
 11
24.2980194155497813
 21
79.5995725918366475
 31
0.0
  0
LINE
  5
EF
100
AcDbEntity
100
AcDbLine
  8
0
 62
256
370
-1
 48
1.0
  6
BYLAYER
 10
24.2980194155497955
 20
81.9995725918366531
 30
0.0
 11
25.5980194155498069
 21
81.9995725918366531
 31
0.0
  0
LINE
  5
F0
100
AcDbEntity
100
AcDbLine
  8
0
 62
256
370
-1
 48
1.0
  6
BYLAYER
 10
28.1480194155498253
 20
81.9995725918366531
 30
0.0
 11
26.7980194155497884
 21
81.9995725918366531
 31
0.0
  0
LINE
  5
F1
100
AcDbEntity
100
AcDbLine
  8
0
 62
256
370
-1
 48
1.0
  6
BYLAYER
 10
25.5980194155497998
 20
91.3995725918366304
 30
0.0
 11
24.2980194155497884
 21
91.3995725918366304
 31
0.0
  0
LINE
  5
F2
100
AcDbEntity
100
AcDbLine
  8
0
 62
256
370
-1
 48
1.0
  6
BYLAYER
 10
28.1480194155498182
 20
91.3995725918366304
 30
0.0
 11
26.7980194155497884
 21
91.3995725918366304
 31
0.0
  0
LINE
  5
F3
100
AcDbEntity
100
AcDbLine
  8
0
 62
256
370
-1
 48
1.0
  6
BYLAYER
 10
65.1980194155497941
 20
56.7995725918366006
 30
0.0
 11
65.1980194155497941
 21
58.799572591836629
 31
0.0
  0
LINE
  5
F4
100
AcDbEntity
100
AcDbLine
  8
0
 62
256
370
-1
 48
1.0
  6
BYLAYER
 10
25.5980194155497998
 20
56.799572591836629
 30
0.0
 11
25.5980194155497998
 21
58.7995725918366574
 31
0.0
  0
LINE
  5
F5
100
AcDbEntity
100
AcDbLine
  8
0
 62
256
370
-1
 48
1.0
  6
BYLAYER
 10
66.3980194155497827
 20
56.799572591836629
 30
0.0
 11
66.3980194155497827
 21
58.799572591836629
 31
0.0
  0
LINE
  5
F6
100
AcDbEntity
100
AcDbLine
  8
0
 62
256
370
-1
 48
1.0
  6
BYLAYER
 10
26.7980194155497884
 20
56.7995725918366716
 30
0.0
 11
26.7980194155497884
 21
58.799572591836629
 31
0.0
  0
LINE
  5
F7
100
AcDbEntity
100
AcDbLine
  8
0
 62
256
370
-1
 48
1.0
  6
BYLAYER
 10
65.1980194155497941
 20
68.1995725918366418
 30
0.0
 11
65.1980194155497941
 21
70.1995725918366418
 31
0.0
  0
LINE
  5
F8
100
AcDbEntity
100
AcDbLine
  8
0
 62
256
370
-1
 48
1.0
  6
BYLAYER
 10
25.5980194155497998
 20
68.1995725918366702
 30
0.0
 11
25.5980194155498069
 21
70.1995725918366418
 31
0.0
  0
LINE
  5
F9
100
AcDbEntity
100
AcDbLine
  8
0
 62
256
370
-1
 48
1.0
  6
BYLAYER
 10
66.3980194155497969
 20
68.1995725918366418
 30
0.0
 11
66.3980194155497969
 21
70.1995725918366418
 31
0.0
  0
LINE
  5
FA
100
AcDbEntity
100
AcDbLine
  8
0
 62
256
370
-1
 48
1.0
  6
BYLAYER
 10
26.7980194155497813
 20
68.1995725918366418
 30
0.0
 11
26.7980194155497955
 21
70.1995725918366418
 31
0.0
  0
LINE
  5
FB
100
AcDbEntity
100
AcDbLine
  8
0
 62
256
370
-1
 48
1.0
  6
BYLAYER
 10
65.1980194155498083
 20
79.599572591836619
 30
0.0
 11
65.1980194155498225
 21
81.9995725918366247
 31
0.0
  0
LINE
  5
FC
100
AcDbEntity
100
AcDbLine
  8
0
 62
256
370
-1
 48
1.0
  6
BYLAYER
 10
25.5980194155498069
 20
79.5995725918366475
 30
0.0
 11
25.5980194155498069
 21
81.9995725918366531
 31
0.0
  0
LINE
  5
FD
100
AcDbEntity
100
AcDbLine
  8
0
 62
256
370
-1
 48
1.0
  6
BYLAYER
 10
66.3980194155497685
 20
79.599572591836619
 30
0.0
 11
66.3980194155497969
 21
81.9995725918366247
 31
0.0
  0
LINE
  5
FE
100
AcDbEntity
100
AcDbLine
  8
0
 62
256
370
-1
 48
1.0
  6
BYLAYER
 10
26.7980194155497955
 20
79.5995725918366475
 30
0.0
 11
26.7980194155497884
 21
81.9995725918366531
 31
0.0
  0
LINE
  5
FF
100
AcDbEntity
100
AcDbLine
  8
0
 62
256
370
-1
 48
1.0
  6
BYLAYER
 10
25.5980194155497998
 20
91.3995725918366304
 30
0.0
 11
26.7980194155497884
 21
91.3995725918366304
 31
0.0
  0
LINE
  5
100
100
AcDbEntity
100
AcDbLine
  8
0
 62
256
370
-1
 48
1.0
  6
BYLAYER
 10
67.6980194155497941
 20
56.799572591836629
 30
0.0
 11
66.3980194155497827
 21
56.799572591836629
 31
0.0
  0
LINE
  5
101
100
AcDbEntity
100
AcDbLine
  8
0
 62
256
370
-1
 48
1.0
  6
BYLAYER
 10
65.1980194155497941
 20
56.7995725918366006
 30
0.0
 11
63.8480194155497855
 21
56.7995725918366574
 31
0.0
  0
LINE
  5
102
100
AcDbEntity
100
AcDbLine
  8
0
 62
256
370
-1
 48
1.0
  6
BYLAYER
 10
63.8480194155497855
 20
58.799572591836629
 30
0.0
 11
65.1980194155497941
 21
58.799572591836629
 31
0.0
  0
LINE
  5
103
100
AcDbEntity
100
AcDbLine
  8
0
 62
256
370
-1
 48
1.0
  6
BYLAYER
 10
66.3980194155497827
 20
58.799572591836629
 30
0.0
 11
67.5980194155497855
 21
58.7995725918366574
 31
0.0
  0
LINE
  5
104
100
AcDbEntity
100
AcDbLine
  8
0
 62
256
370
-1
 48
1.0
  6
BYLAYER
 10
67.6980194155498225
 20
68.1995725918366418
 30
0.0
 11
66.3980194155497969
 21
68.1995725918366418
 31
0.0
  0
LINE
  5
105
100
AcDbEntity
100
AcDbLine
  8
0
 62
256
370
-1
 48
1.0
  6
BYLAYER
 10
65.1980194155497941
 20
68.1995725918366418
 30
0.0
 11
63.8480194155497855
 21
68.1995725918366418
 31
0.0
  0
LINE
  5
106
100
AcDbEntity
100
AcDbLine
  8
0
 62
256
370
-1
 48
1.0
  6
BYLAYER
 10
65.1980194155497941
 20
70.1995725918366418
 30
0.0
 11
63.8480194155497998
 21
70.1995725918366418
 31
0.0
  0
LINE
  5
107
100
AcDbEntity
100
AcDbLine
  8
0
 62
256
370
-1
 48
1.0
  6
BYLAYER
 10
66.3980194155497969
 20
70.1995725918366418
 30
0.0
 11
67.5980194155498424
 21
70.1995725918366418
 31
0.0
  0
LINE
  5
108
100
AcDbEntity
100
AcDbLine
  8
0
 62
256
370
-1
 48
1.0
  6
BYLAYER
 10
65.1980194155498083
 20
79.599572591836619
 30
0.0
 11
63.848019415549814
 21
79.5995725918366475
 31
0.0
  0
LINE
  5
109
100
AcDbEntity
100
AcDbLine
  8
0
 62
256
370
-1
 48
1.0
  6
BYLAYER
 10
66.3980194155497685
 20
79.599572591836619
 30
0.0
 11
67.6980194155498083
 21
79.5995725918366475
 31
0.0
  0
LINE
  5
10A
100
AcDbEntity
100
AcDbLine
  8
0
 62
256
370
-1
 48
1.0
  6
BYLAYER
 10
65.1980194155498225
 20
81.9995725918366247
 30
0.0
 11
63.8480194155497855
 21
81.9995725918366531
 31
0.0
  0
LINE
  5
10B
100
AcDbEntity
100
AcDbLine
  8
0
 62
256
370
-1
 48
1.0
  6
BYLAYER
 10
66.3980194155497969
 20
81.9995725918366247
 30
0.0
 11
67.5980194155497145
 21
81.9995725918366531
 31
0.0
  0
LINE
  5
10C
100
AcDbEntity
100
AcDbLine
  8
0
 62
256
370
-1
 48
1.0
  6
BYLAYER
 10
47.1999999999999957
 20
21.9999999999999964
 30
0.0
 11
45.2000000000000028
 21
21.9999999999999929
 31
0.0
  0
LINE
  5
10D
100
AcDbEntity
100
AcDbLine
  8
0
 62
256
370
-1
 48
1.0
  6
BYLAYER
 10
45.1999999999999957
 20
23.0999999999999979
 30
0.0
 11
47.1968759365188006
 21
23.0999999999999979
 31
0.0
  0
LINE
  5
10E
100
AcDbEntity
100
AcDbLine
  8
0
 62
256
370
-1
 48
1.0
  6
BYLAYER
 10
45.2000000000000028
 20
18.6999999999999993
 30
0.0
 11
45.2000000000000028
 21
21.9999999999999929
 31
0.0
  0
LINE
  5
10F
100
AcDbEntity
100
AcDbLine
  8
0
 62
256
370
-1
 48
1.0
  6
BYLAYER
 10
45.1999999999999957
 20
23.0999999999999979
 30
0.0
 11
45.1999999999999957
 21
26.3999999999999986
 31
0.0
  0
LINE
  5
110
100
AcDbEntity
100
AcDbLine
  8
0
 62
256
370
-1
 48
1.0
  6
BYLAYER
 10
47.1968759365188006
 20
26.3211874588602015
 30
0.0
 11
47.1968759365188006
 21
23.0999999999999979
 31
0.0
  0
LINE
  5
111
100
AcDbEntity
100
AcDbLine
  8
0
 62
256
370
-1
 48
1.0
  6
BYLAYER
 10
47.1999999999999957
 20
21.9999999999999964
 30
0.0
 11
47.1968759365188006
 21
19.0211874588602114
 31
0.0
  0
LINE
  5
112
100
AcDbEntity
100
AcDbLine
  8
0
 62
256
370
-1
 48
1.0
  6
BYLAYER
 10
73.5968759365188134
 20
45.2211874588602143
 30
0.0
 11
67.5999857841900962
 21
45.2157876155318732
 31
0.0
  0
LINE
  5
113
100
AcDbEntity
100
AcDbLine
  8
0
 62
256
370
-1
 48
1.0
  6
BYLAYER
 10
26.2000000000000028
 20
45.1999999999999957
 30
0.0
 11
26.1980336313597064
 21
47.3837849763047672
 31
0.0
  0
LINE
  5
114
100
AcDbEntity
100
AcDbLine
  8
0
 62
256
370
-1
 48
1.0
  6
BYLAYER
 10
24.5968901523286974
 20
45.2053998433283368
 30
0.0
 11
24.5968901523286974
 21
47.3837849763047601
 31
0.0
  0
LINE
  5
115
100
AcDbEntity
100
AcDbLine
  8
0
 62
256
370
-1
 48
1.0
  6
BYLAYER
 10
63.8480194155497855
 20
47.3995725918366375
 30
0.0
 11
65.9968759365187907
 21
47.3995725918366375
 31
0.0
  0
LINE
  5
116
100
AcDbEntity
100
AcDbLine
  8
0
 62
256
370
-1
 48
1.0
  6
BYLAYER
 10
24.5968901523286974
 20
47.3837849763047601
 30
0.0
 11
24.2980194155497884
 21
47.3995725918366446
 31
0.0
  0
LINE
  5
117
100
AcDbEntity
100
AcDbLine
  8
0
 62
256
370
-1
 48
1.0
  6
BYLAYER
 10
28.1480194155498111
 20
47.3995725918366375
 30
0.0
 11
26.1980336313597064
 21
47.3837849763047672
 31
0.0
  0
LINE
  5
118
100
AcDbEntity
100
AcDbLine
  8
0
 62
256
370
-1
 48
1.0
  6
BYLAYER
 10
26.3999999999999986
 20
45.1999999999999957
 30
0.0
 11
26.2000000000000028
 21
45.1999999999999957
 31
0.0
  0
LINE
  5
119
100
AcDbEntity
100
AcDbLine
  8
0
 62
256
370
-1
 48
1.0
  6
BYLAYER
 10
24.5968901523286974
 20
45.2053998433283368
 30
0.0
 11
18.7999999999999972
 21
45.1999999999999957
 31
0.0
  0
LINE
  5
11A
100
AcDbEntity
100
AcDbLine
  8
0
 62
256
370
-1
 48
1.0
  6
BYLAYER
 10
65.9968759365187907
 20
47.3995725918366375
 30
0.0
 11
65.9968759365187907
 21
45.2211874588602143
 31
0.0
  0
LINE
  5
11B
100
AcDbEntity
100
AcDbLine
  8
0
 62
256
370
-1
 48
1.0
  6
BYLAYER
 10
67.5999857841900962
 20
45.2157876155318732
 30
0.0
 11
67.5980194155497998
 21
47.3995725918366446
 31
0.0
  0
LINE
  5
11C
100
AcDbEntity
100
AcDbLine
  8
0
 62
256
370
-1
 48
1.0
  6
BYLAYER
 10
72.4468759365188077
 20
6.8211874588602015
 30
0.0
 11
72.4468759365188077
 21
19.9582155087509605
 31
0.0
  0
ENDSEC
  0
SECTION
  2
OBJECTS
  0
DICTIONARY
  5
C
100
AcDbDictionary
280
0
281
1
  3
ACAD_GROUP
350
D
  3
ACAD_LAYOUT
350
1A
  3
ACAD_MLINESTYLE
350
17
  3
ACAD_PLOTSETTINGS
350
19
  3
ACAD_PLOTSTYLENAME
350
E
  3
AcDbVariableDictionary
350
11D
  3
QCAD_OBJECTS
350
11E
  0
DICTIONARY
  5
D
100
AcDbDictionary
280
0
281
1
  0
ACDBDICTIONARYWDFLT
  5
E
100
AcDbDictionary
281
1
  3
Normal
350
F
100
AcDbDictionaryWithDefault
340
F
  0
ACDBPLACEHOLDER
  5
F
  0
DICTIONARY
  5
17
100
AcDbDictionary
280
0
281
1
  3
Standard
350
18
  0
MLINESTYLE
  5
18
100
AcDbMlineStyle
  2
STANDARD
 70
0
  3

 62
256
 51
90.0
 52
90.0
 71
2
 49
0.5
 62
256
  6
BYLAYER
 49
-0.5
 62
256
  6
BYLAYER
  0
DICTIONARY
  5
19
100
AcDbDictionary
280
0
281
1
  0
DICTIONARY
  5
1A
100
AcDbDictionary
281
1
  3
Layout1
350
1E
  3
Layout2
350
26
  3
Model
350
22
  0
LAYOUT
  5
1E
100
AcDbPlotSettings
  1

  2
none_device
  4

  6

 40
0.0
 41
0.0
 42
0.0
 43
0.0
 44
0.0
 45
0.0
 46
0.0
 47
0.0
 48
0.0
 49
0.0
140
0.0
141
0.0
142
1.0
143
1.0
 70
688
 72
0
 73
0
 74
5
  7

 75
16
147
1.0
148
0.0
149
0.0
100
AcDbLayout
  1
Layout1
 70
1
 71
1
 10
0.0
 20
0.0
 11
420.0
 21
297.0
 12
0.0
 22
0.0
 32
0.0
 14
100000000000000000000.0
 24
100000000000000000000.0
 34
100000000000000000000.0
 15
-100000000000000000000.0
 25
-100000000000000000000.0
 35
-100000000000000000000.0
146
0.0
 13
0.0
 23
0.0
 33
0.0
 16
1.0
 26
0.0
 36
0.0
 17
0.0
 27
1.0
 37
0.0
 76
0
330
1B
  0
LAYOUT
  5
22
100
AcDbPlotSettings
  1

  2
none_device
  4

  6

 40
0.0
 41
0.0
 42
0.0
 43
0.0
 44
0.0
 45
0.0
 46
0.0
 47
0.0
 48
0.0
 49
0.0
140
0.0
141
0.0
142
1.0
143
1.0
 70
1712
 72
0
 73
0
 74
0
  7

 75
0
147
1.0
148
0.0
149
0.0
100
AcDbLayout
  1
Model
 70
1
 71
0
 10
0.0
 20
0.0
 11
12.0
 21
9.0
 12
0.0
 22
0.0
 32
0.0
 14
0.0
 24
0.0
 34
0.0
 15
0.0
 25
0.0
 35
0.0
146
0.0
 13
0.0
 23
0.0
 33
0.0
 16
1.0
 26
0.0
 36
0.0
 17
0.0
 27
1.0
 37
0.0
 76
0
330
1F
  0
LAYOUT
  5
26
100
AcDbPlotSettings
  1

  2
none_device
  4

  6

 40
0.0
 41
0.0
 42
0.0
 43
0.0
 44
0.0
 45
0.0
 46
0.0
 47
0.0
 48
0.0
 49
0.0
140
0.0
141
0.0
142
1.0
143
1.0
 70
688
 72
0
 73
0
 74
5
  7

 75
16
147
1.0
148
0.0
149
0.0
100
AcDbLayout
  1
Layout2
 70
1
 71
2
 10
0.0
 20
0.0
 11
12.0
 21
9.0
 12
0.0
 22
0.0
 32
0.0
 14
0.0
 24
0.0
 34
0.0
 15
0.0
 25
0.0
 35
0.0
146
0.0
 13
0.0
 23
0.0
 33
0.0
 16
1.0
 26
0.0
 36
0.0
 17
0.0
 27
1.0
 37
0.0
 76
0
330
23
  0
DICTIONARY
  5
11D
100
AcDbDictionary
281
1
  3
DIMASSOC
350
120
  3
HIDETEXT
350
11F
  0
DICTIONARYVAR
  5
11F
100
DictionaryVariables
280
0
  1
2
  0
DICTIONARYVAR
  5
120
100
DictionaryVariables
280
0
  1
1
  0
DICTIONARY
  5
11E
100
AcDbDictionary
281
1
  3
ColorSettings/BackgroundColor
350
121
  3
ColorSettings/ColorMode
350
122
  3
Grid/DisplayGrid00
350
123
  3
Grid/DisplayGrid01
350
124
  3
Grid/DisplayGrid02
350
125
  3
Grid/DisplayGrid03
350
126
  3
Grid/GridSpacingX00
350
127
  3
Grid/GridSpacingX01
350
128
  3
Grid/GridSpacingX02
350
129
  3
Grid/GridSpacingX03
350
12A
  3
Grid/GridSpacingY00
350
12B
  3
Grid/GridSpacingY01
350
12C
  3
Grid/GridSpacingY02
350
12D
  3
Grid/GridSpacingY03
350
12E
  3
Grid/IsometricGrid00
350
12F
  3
Grid/IsometricGrid01
350
130
  3
Grid/IsometricGrid02
350
131
  3
Grid/IsometricGrid03
350
132
  3
Grid/IsometricProjection00
350
133
  3
Grid/IsometricProjection01
350
134
  3
Grid/IsometricProjection02
350
135
  3
Grid/IsometricProjection03
350
136
  3
Grid/MetaGridSpacingX00
350
137
  3
Grid/MetaGridSpacingX01
350
138
  3
Grid/MetaGridSpacingX02
350
139
  3
Grid/MetaGridSpacingX03
350
13A
  3
Grid/MetaGridSpacingY00
350
13B
  3
Grid/MetaGridSpacingY01
350
13C
  3
Grid/MetaGridSpacingY02
350
13D
  3
Grid/MetaGridSpacingY03
350
13E
  3
MultiPageSettings/Columns
350
13F
  3
MultiPageSettings/GlueMarginsBottom
350
140
  3
MultiPageSettings/GlueMarginsLeft
350
141
  3
MultiPageSettings/GlueMarginsRight
350
142
  3
MultiPageSettings/GlueMarginsTop
350
143
  3
MultiPageSettings/PrintCropMarks
350
144
  3
MultiPageSettings/Rows
350
145
  3
PageSettings/OffsetX
350
146
  3
PageSettings/OffsetY
350
147
  3
PageSettings/PageOrientation
350
148
  3
PageSettings/PaperHeight
350
149
  3
PageSettings/PaperWidth
350
14A
  3
PageSettings/Scale
350
14B
  3
PageSettings/ShowPaperBorders
350
14C
  3
QCADVersion
350
14D
  3
UnitSettings/Measurement
350
14E
  3
UnitSettings/PaperUnit
350
14F
  0
XRECORD
  5
121
330
11E
100
AcDbXrecord
280
1
1000
White
  0
XRECORD
  5
122
330
11E
100
AcDbXrecord
280
1
1000
FullColor
  0
XRECORD
  5
123
330
11E
100
AcDbXrecord
280
1
290
1
  0
XRECORD
  5
124
330
11E
100
AcDbXrecord
280
1
290
1
  0
XRECORD
  5
125
330
11E
100
AcDbXrecord
280
1
290
1
  0
XRECORD
  5
126
330
11E
100
AcDbXrecord
280
1
290
1
  0
XRECORD
  5
127
330
11E
100
AcDbXrecord
280
1
1000
auto
  0
XRECORD
  5
128
330
11E
100
AcDbXrecord
280
1
1000
auto
  0
XRECORD
  5
129
330
11E
100
AcDbXrecord
280
1
1000
auto
  0
XRECORD
  5
12A
330
11E
100
AcDbXrecord
280
1
1000
auto
  0
XRECORD
  5
12B
330
11E
100
AcDbXrecord
280
1
1000
auto
  0
XRECORD
  5
12C
330
11E
100
AcDbXrecord
280
1
1000
auto
  0
XRECORD
  5
12D
330
11E
100
AcDbXrecord
280
1
1000
auto
  0
XRECORD
  5
12E
330
11E
100
AcDbXrecord
280
1
1000
auto
  0
XRECORD
  5
12F
330
11E
100
AcDbXrecord
280
1
290
0
  0
XRECORD
  5
130
330
11E
100
AcDbXrecord
280
1
290
0
  0
XRECORD
  5
131
330
11E
100
AcDbXrecord
280
1
290
0
  0
XRECORD
  5
132
330
11E
100
AcDbXrecord
280
1
290
0
  0
XRECORD
  5
133
330
11E
100
AcDbXrecord
280
1
 90
0
  0
XRECORD
  5
134
330
11E
100
AcDbXrecord
280
1
 90
0
  0
XRECORD
  5
135
330
11E
100
AcDbXrecord
280
1
 90
0
  0
XRECORD
  5
136
330
11E
100
AcDbXrecord
280
1
 90
0
  0
XRECORD
  5
137
330
11E
100
AcDbXrecord
280
1
1000
auto
  0
XRECORD
  5
138
330
11E
100
AcDbXrecord
280
1
1000
auto
  0
XRECORD
  5
139
330
11E
100
AcDbXrecord
280
1
1000
auto
  0
XRECORD
  5
13A
330
11E
100
AcDbXrecord
280
1
1000
auto
  0
XRECORD
  5
13B
330
11E
100
AcDbXrecord
280
1
1000
auto
  0
XRECORD
  5
13C
330
11E
100
AcDbXrecord
280
1
1000
auto
  0
XRECORD
  5
13D
330
11E
100
AcDbXrecord
280
1
1000
auto
  0
XRECORD
  5
13E
330
11E
100
AcDbXrecord
280
1
1000
auto
  0
XRECORD
  5
13F
330
11E
100
AcDbXrecord
280
1
 90
1
  0
XRECORD
  5
140
330
11E
100
AcDbXrecord
280
1
 40
0.0
  0
XRECORD
  5
141
330
11E
100
AcDbXrecord
280
1
 40
0.0
  0
XRECORD
  5
142
330
11E
100
AcDbXrecord
280
1
 40
0.0
  0
XRECORD
  5
143
330
11E
100
AcDbXrecord
280
1
 40
0.0
  0
XRECORD
  5
144
330
11E
100
AcDbXrecord
280
1
290
0
  0
XRECORD
  5
145
330
11E
100
AcDbXrecord
280
1
 90
1
  0
XRECORD
  5
146
330
11E
100
AcDbXrecord
280
1
 40
0.0
  0
XRECORD
  5
147
330
11E
100
AcDbXrecord
280
1
 40
0.0
  0
XRECORD
  5
148
330
11E
100
AcDbXrecord
280
1
1000
Portrait
  0
XRECORD
  5
149
330
11E
100
AcDbXrecord
280
1
 40
297.0
  0
XRECORD
  5
14A
330
11E
100
AcDbXrecord
280
1
 40
210.0
  0
XRECORD
  5
14B
330
11E
100
AcDbXrecord
280
1
1000
1:1
  0
XRECORD
  5
14C
330
11E
100
AcDbXrecord
280
1
290
1
  0
XRECORD
  5
14D
330
11E
100
AcDbXrecord
280
1
1000
3.12.3
  0
XRECORD
  5
14E
330
11E
100
AcDbXrecord
280
1
 90
1
  0
XRECORD
  5
14F
330
11E
100
AcDbXrecord
280
1
 90
4
  0
ENDSEC
  0
EOF
